<svg width="24" height="23" viewBox="0 0 24 23" fill="none" xmlns="http://www.w3.org/2000/svg">
<path d="M14.6192 0.620171C14.6148 0.212697 14.6665 -0.00442451 15.1674 3.68844e-05C17.747 0.0253181 20.3267 0.0178825 22.9063 0.00598541C23.2624 0.00449828 23.4338 0.0639836 23.4323 0.481868C23.4175 3.74612 23.419 7.00889 23.4308 10.2731C23.4323 10.7193 23.2284 10.8145 22.8428 10.8055C22.0819 10.7877 21.3195 10.8011 20.5572 10.8011C19.2201 10.8011 19.2156 10.8011 19.2954 12.0979C19.3708 13.3337 19.6456 14.513 20.2602 15.6015C21.0285 16.9623 22.1839 17.8724 23.5801 18.4925C24.0056 18.6814 24.1001 18.8747 23.8948 19.3283C23.5151 20.17 23.2107 21.0474 22.8857 21.9144C22.3996 23.2112 22.3966 23.2246 21.2043 22.5866C17.9125 20.8258 15.9342 18.0717 15.2146 14.4104C14.6133 11.3498 14.5852 8.24767 14.6251 5.75673C14.6251 3.63608 14.6355 2.12812 14.6192 0.620171Z" fill="#CCCCCC"/>
<path d="M0.0163927 5.68279C0.0163927 3.61865 0.0296898 2.1107 0.00900459 0.602748C0.00309467 0.168505 0.102086 -0.00251494 0.577831 0.00194646C3.15749 0.0242535 5.73715 0.0197921 8.31533 0.00492073C8.69061 0.00343359 8.82801 0.0971229 8.82654 0.495675C8.81324 3.73316 8.81176 6.97214 8.82654 10.2096C8.82801 10.6662 8.66992 10.8164 8.22521 10.806C7.16882 10.7822 6.11243 10.8075 5.05604 10.7941C4.69997 10.7896 4.5271 10.8595 4.55074 11.2818C4.632 12.7392 4.87135 14.1654 5.56281 15.4562C6.27643 16.7887 7.35941 17.7702 8.74232 18.3799C9.28455 18.6194 9.59334 18.8038 9.21068 19.4983C8.8029 20.2389 8.57832 21.0821 8.28283 21.8851C7.79083 23.2206 7.80265 23.2057 6.55419 22.5826C3.13237 20.8739 1.34464 17.9725 0.6192 14.3201C0.0193481 11.2848 -0.0412283 8.20795 0.0163927 5.68279Z" fill="#CCCCCC"/>
</svg>
