<svg width="18" height="18" viewBox="0 0 18 18" fill="none" xmlns="http://www.w3.org/2000/svg">
<path d="M14.1384 10.9832C13.5786 10.8628 13.1358 11.1227 12.7437 11.3497C12.3422 11.5836 11.5786 12.203 11.141 12.0444C8.90025 11.1218 6.79279 9.1606 5.88051 6.91088C5.71972 6.46388 6.33622 5.6955 6.56837 5.28921C6.79365 4.89593 7.04816 4.44893 6.93208 3.88498C6.82718 3.37821 5.47036 1.65173 4.99057 1.17961C4.67416 0.867747 4.35 0.696224 4.01724 0.668504C2.76618 0.614794 1.36895 2.28411 1.12389 2.68346C0.50997 3.53501 0.513409 4.6681 1.13421 6.04201C2.63033 9.73234 8.28891 15.3016 11.9931 16.854C12.6766 17.1736 13.3017 17.3339 13.8632 17.3339C14.4127 17.3339 14.9019 17.1806 15.3224 16.8765C15.6396 16.6937 17.3774 15.2271 17.3318 13.9424C17.3043 13.615 17.1332 13.2875 16.8254 12.9705C16.3567 12.4862 14.6414 11.0889 14.1384 10.9832Z" fill="white"/>
</svg>
