<svg width="15" height="15" viewBox="0 0 15 15" fill="none" xmlns="http://www.w3.org/2000/svg">
<path fill-rule="evenodd" clip-rule="evenodd" d="M0 7.5C0 3.36425 3.36425 0 7.5 0C11.6358 0 15 3.36425 15 7.5C15 11.6358 11.6358 15 7.5 15C3.36425 15 0 11.6358 0 7.5ZM1.16188 7.5C1.16188 10.9944 4.00562 13.8381 7.5 13.8381C10.9944 13.8381 13.8381 10.9944 13.8381 7.5C13.8381 4.00562 10.995 1.16188 7.5 1.16188C4.00562 1.16188 1.16188 4.00562 1.16188 7.5ZM8.08016 7.25592L10.1716 8.82448C10.4284 9.01678 10.4807 9.38103 10.2877 9.63726C10.1739 9.79063 9.99958 9.87023 9.82239 9.87023C9.70098 9.87023 9.57896 9.83246 9.4744 9.75404L7.15063 8.01119C7.00423 7.90198 6.91825 7.72942 6.91825 7.54643V4.06075C6.91825 3.73948 7.17793 3.47979 7.4992 3.47979C7.82047 3.47979 8.08016 3.73948 8.08016 4.06075V7.25592Z" fill="#666666"/>
</svg>
