<svg xmlns="http://www.w3.org/2000/svg">
<defs>
<font id="SVN-HelveticaNeueLight" horiz-adv-x="1024" >
  <font-face 
    font-family="SVN-Helvetica Neue Light"
    font-weight="300"
    font-stretch="normal"
    units-per-em="2048"
    panose-1="2 4 6 3 5 5 6 2 2 4"
    ascent="1638"
    descent="-410"
    x-height="1053"
    cap-height="1462"
    bbox="-142 -438 4553 2199"
    underline-thickness="109"
    underline-position="-251"
    unicode-range="U+0020-2122"
  />
<missing-glyph horiz-adv-x="4653" 
d="M788 1681v510h343v-61h-274v-157h236v-61h-236v-231h-69zM1253 1865q0 -72 30 -106.5t76 -34.5t77 34.5t31 106.5q0 69 -31 104.5t-77 35.5t-76 -35.5t-30 -104.5zM1189 1865q0 104 56 151q45 42 114 42q37 0 68.5 -13t54.5 -37t36 -59t13 -79q0 -52 -12.5 -89t-35.5 -61
t-54.5 -35t-69.5 -11q-78 0 -124 48.5t-46 142.5zM1608 1681v369h58v-53q41 61 115 61q56 0 85 -27t37 -63q2 -10 3.5 -24.5t1.5 -36.5v-226h-64v223q0 54 -19.5 77.5t-57.5 23.5q-20 0 -37.5 -6t-30 -20t-20 -37.5t-7.5 -58.5v-202h-64zM2149 1679q-14 -2 -25.5 -3.5
t-21.5 -1.5q-27 5 -44 8t-27 13t-13.5 31t-3.5 62v214h-45v48h45v90l64 38v-128h63v-48h-63v-217q0 -18 1.5 -28t5.5 -15t10.5 -6t16.5 -1h29zM2444 1851q4 -56 40 -86t106 -30q62 0 94.5 23t32.5 61q0 24 -12 41t-44 31q-10 4 -33 10t-57 14t-59 16t-39 16q-40 18 -57 45.5
t-17 65.5q0 29 12.5 54.5t36 45t56.5 30.5t75 11q45 0 80.5 -11.5t60.5 -31.5t39 -47.5t16 -60.5l-69 -3q-11 93 -124 93q-62 0 -88 -22.5t-26 -54.5q0 -27 18 -45q11 -11 35 -19t66 -18q82 -16 112 -32q46 -18 66.5 -50t20.5 -72q0 -34 -14 -61.5t-39 -47.5t-60 -31
t-78 -11q-100 0 -157.5 45t-57.5 130zM3022 1681l-193 510h74l130 -372q8 -22 14 -42l12 -40q6 22 14 42l16 40l140 372h69l-202 -510h-74zM3356 1681v510h72l257 -398v398h69v-510h-74l-255 396v-396h-69zM128 1098q0 -70 29 -104t71 -34t71.5 33t29.5 99q0 78 -30.5 113.5
t-72.5 35.5t-70 -34.5t-28 -108.5zM327 917v45q-37 -53 -104 -53q-35 0 -64 14t-50 39t-33 60t-12 78q0 42 10.5 77.5t30.5 61.5t48.5 40.5t64.5 14.5q34 0 59.5 -14.5t43.5 -38.5v186h64v-510h-58zM725 917v53q-23 -29 -52 -45t-65 -16q-56 0 -85 25.5t-37 65.5

<glyph glyph-name=".notdef" horiz-adv-x="4653" 
d="M788 1681v510h343v-61h-274v-157h236v-61h-236v-231h-69zM1253 1865q0 -72 30 -106.5t76 -34.5t77 34.5t31 106.5q0 69 -31 104.5t-77 35.5t-76 -35.5t-30 -104.5zM1189 1865q0 104 56 151q45 42 114 42q37 0 68.5 -13t54.5 -37t36 -59t13 -79q0 -52 -12.5 -89t-35.5 -61
t-54.5 -35t-69.5 -11q-78 0 -124 48.5t-46 142.5zM1608 1681v369h58v-53q41 61 115 61q56 0 85 -27t37 -63q2 -10 3.5 -24.5t1.5 -36.5v-226h-64v223q0 54 -19.5 77.5t-57.5 23.5q-20 0 -37.5 -6t-30 -20t-20 -37.5t-7.5 -58.5v-202h-64zM2149 1679q-14 -2 -25.5 -3.5
t-21.5 -1.5q-27 5 -44 8t-27 13t-13.5 31t-3.5 62v214h-45v48h45v90l64 38v-128h63v-48h-63v-217q0 -18 1.5 -28t5.5 -15t10.5 -6t16.5 -1h29zM2444 1851q4 -56 40 -86t106 -30q62 0 94.5 23t32.5 61q0 24 -12 41t-44 31q-10 4 -33 10t-57 14t-59 16t-39 16q-40 18 -57 45.5
t-17 65.5q0 29 12.5 54.5t36 45t56.5 30.5t75 11q45 0 80.5 -11.5t60.5 -31.5t39 -47.5t16 -60.5l-69 -3q-11 93 -124 93q-62 0 -88 -22.5t-26 -54.5q0 -27 18 -45q11 -11 35 -19t66 -18q82 -16 112 -32q46 -18 66.5 -50t20.5 -72q0 -34 -14 -61.5t-39 -47.5t-60 -31
t-78 -11q-100 0 -157.5 45t-57.5 130zM3022 1681l-193 510h74l130 -372q8 -22 14 -42l12 -40q6 22 14 42l16 40l140 372h69l-202 -510h-74zM3356 1681v510h72l257 -398v398h69v-510h-74l-255 396v-396h-69zM128 1098q0 -70 29 -104t71 -34t71.5 33t29.5 99q0 78 -30.5 113.5
t-72.5 35.5t-70 -34.5t-28 -108.5zM327 917v45q-37 -53 -104 -53q-35 0 -64 14t-50 39t-33 60t-12 78q0 42 10.5 77.5t30.5 61.5t48.5 40.5t64.5 14.5q34 0 59.5 -14.5t43.5 -38.5v186h64v-510h-58zM725 917v53q-23 -29 -52 -45t-65 -16q-56 0 -85 25.5t-37 65.5
q-2 8 -2.5 21.5t-0.5 33.5v231h64v-207q0 -24 0.5 -40t2.5 -26q5 -24 23 -37.5t48 -13.5q46 0 72 28.5t26 96.5v199h64v-369h-58zM669 1360h-48l-79 99h82zM878 917v369h59v-53q40 61 114 61q56 0 85 -27t37 -63q2 -10 3.5 -24.5t1.5 -36.5v-226h-63v223q0 54 -19.5 77.5
t-57.5 23.5q-20 0 -37.5 -6t-30.5 -20t-20.5 -37.5t-7.5 -58.5v-202h-64zM1311 1106q0 -72 28 -104t70 -32t71.5 32t29.5 104q0 66 -29.5 100.5t-71.5 34.5t-70 -34.5t-28 -100.5zM1324 883q2 -16 6.5 -27.5t14.5 -17.5q20 -16 61 -16q42 0 65 15.5t31 45.5q5 22 5 79
q-22 -22 -46.5 -33.5t-54.5 -11.5q-39 0 -68.5 14.5t-49.5 40t-30.5 59t-10.5 72.5q0 40 11 74.5t31 60.5t49.5 41t67.5 15q62 0 107 -53v45h58v-318q1 -63 -9 -100t-31 -57.5t-52.5 -28.5t-74.5 -13q-64 0 -104.5 29t-38.5 93zM1921 1103q0 -69 16 -95q28 -48 80 -48
q21 0 39.5 8.5t32.5 26t22.5 43.5t8.5 62q0 72 -29 108t-69 36q-42 0 -71.5 -35.5t-29.5 -105.5zM1924 917h-61v510h63v-183q18 26 43.5 38t57.5 12q34 0 62.5 -14t49.5 -39t33 -59.5t12 -75.5q0 -48 -13 -85t-34.5 -61.5t-50.5 -37.5t-61 -13q-34 0 -58.5 13.5t-42.5 39.5
v-45zM2500 1103q-18 -8 -44 -13.5t-60 -10.5q-27 -5 -44 -10t-27 -12.5t-13.5 -17t-3.5 -23.5q0 -26 18.5 -42.5t56.5 -16.5q34 0 63 14.5t43 44.5q8 21 8 63zM2502 962q-34 -29 -65.5 -41t-69.5 -12q-62 0 -93.5 29t-31.5 75q0 44 26 69t62 37q10 2 24 4t31 4q76 12 112 24
q2 6 2.5 10t0.5 6q0 37 -19 53q-26 21 -72 21t-66.5 -15.5t-28.5 -53.5l-64 8q12 56 50.5 85t114.5 29q37 0 62 -6.5t41 -17.5t24.5 -26t12.5 -32q2 -10 4 -24t2 -34v-85q0 -43 0.5 -68.5t2 -41t5 -24.5t10.5 -18h-64q-6 11 -8.5 21t-4.5 24zM2407 1406q21 0 24 2
q17 4 21 13q0 10 -11 14q-16 8 -48 8q-6 0 -13.5 -0.5t-17.5 -2.5l-3 35q6 2 18 2h30q22 -2 39.5 -6t31.5 -10q27 -11 32 -37q0 -36 -64 -40v-18h-39v40zM2656 917v369h58v-53q41 61 115 61q56 0 85 -27t37 -63q2 -10 3.5 -24.5t1.5 -36.5v-226h-64v223q0 54 -19.5 77.5
t-57.5 23.5q-20 0 -37.5 -6t-30 -20t-20 -37.5t-7.5 -58.5v-202h-64zM3089 1106q0 -72 28 -104t70 -32t71 32t29 104q0 66 -29 100.5t-71 34.5t-70 -34.5t-28 -100.5zM3102 883q3 -34 21 -45q19 -16 61 -16t65 15.5t31 45.5q2 10 3.5 30t1.5 49q-22 -22 -46.5 -33.5
t-54.5 -11.5q-39 0 -68.5 14.5t-49.5 40t-30.5 59t-10.5 72.5q0 40 10.5 74.5t31 60.5t50 41t67.5 15q62 0 106 -53v45h59v-318q1 -63 -9.5 -100t-31.5 -57.5t-52.5 -28.5t-74.5 -13q-64 0 -104.5 29t-38.5 93zM3640 917v369h59v-53q18 26 45.5 43.5t65.5 17.5
q42 0 67.5 -17t36.5 -47q43 64 116 64q114 0 114 -125v-252h-63v231q0 51 -15.5 72t-51.5 21q-38 0 -64 -26.5t-26 -84.5v-213h-63v239q0 42 -15 63.5t-49 21.5q-44 0 -68.5 -30.5t-24.5 -102.5v-191h-64zM4473 1103q-17 -8 -43 -13.5t-60 -10.5q-27 -5 -44 -10t-27 -12.5
t-13.5 -17t-3.5 -23.5q0 -26 18.5 -42.5t56.5 -16.5q34 0 63 14.5t43 44.5q8 21 8 63zM4476 962q-34 -29 -65.5 -41t-69.5 -12q-62 0 -93.5 29t-31.5 75q0 44 26 69t62 37q10 2 23.5 4t31.5 4q76 12 112 24q2 6 2 10v6q0 38 -18 53q-26 21 -72 21t-66.5 -15.5t-28.5 -53.5
l-64 8q12 56 50.5 85t114.5 29q37 0 62 -6.5t41 -17.5t24.5 -26t12.5 -32q2 -10 3.5 -24t1.5 -34v-85q0 -43 0.5 -68.5t2 -41t5.5 -24.5t11 -18h-64q-6 11 -8.5 21t-4.5 24zM4288 1350q-2 32 17.5 53t51.5 21q10 0 25 -5.5t33 -15.5q21 -8 32 -8q10 0 17 7.5t9 21.5h46
q-4 -74 -69 -74q-11 0 -26 4t-33 12q-12 6 -20 9.5t-14 3.5q-29 0 -24 -29h-45zM1364 535h69v-294q0 -54 -10 -95.5t-33.5 -70t-61.5 -43t-94 -14.5q-55 0 -93 12.5t-61.5 39.5t-34 69t-10.5 102v294h69v-291q0 -47 6.5 -78t21.5 -50t39 -26.5t58 -7.5q36 0 61.5 7.5
t42 25.5t24 49.5t7.5 79.5v291zM1539 26v369h58v-53q20 29 48.5 45t66.5 16q55 0 84.5 -27.5t37.5 -63.5q2 -10 3.5 -24t1.5 -37v-225h-64v223q0 54 -19.5 77.5t-57.5 23.5q-20 0 -37.5 -6t-30 -20.5t-20 -38t-7.5 -57.5v-202h-64zM1934 26v369h64v-369h-64zM1934 464v71h64
v-71h-64zM2396 153q-10 -64 -53 -99.5t-101 -35.5q-78 0 -122.5 49t-44.5 139q0 94 44.5 145.5t120.5 51.5q62 0 98 -30.5t50 -86.5l-64 -8q-10 34 -31 54t-51 20q-48 0 -75.5 -34.5t-27.5 -108.5t27 -107.5t74 -33.5q77 0 92 93zM2489 209q0 -72 30 -106.5t76 -34.5
t77.5 34.5t31.5 106.5q0 70 -31.5 105.5t-77.5 35.5t-76 -35.5t-30 -105.5zM2425 209q0 103 56 151q47 43 114 43q37 0 68.5 -13t54.5 -37.5t36 -59.5t13 -79q0 -52 -12.5 -89t-35.5 -61t-54.5 -35t-69.5 -11q-78 0 -124 48.5t-46 142.5zM2884 206q0 -69 29.5 -103.5
t71.5 -34.5t71.5 33.5t29.5 99.5q0 78 -31 113.5t-73 35.5q-41 0 -69.5 -35t-28.5 -109zM3083 26v45q-37 -53 -103 -53q-35 0 -64 14t-50 39t-33 60t-12 78q0 42 10.5 77.5t30.5 61.5t48 40.5t64 14.5q35 0 60.5 -15t43.5 -38v185h64v-509h-59zM3497 244q-2 23 -9 41t-17 30
q-34 37 -80 37t-76.5 -30t-32.5 -78h215zM3558 137q-16 -58 -58 -88.5t-106 -30.5q-82 0 -130 49t-48 139q0 94 47 145.5t125 51.5q39 0 71 -13.5t54.5 -39t35 -61t12.5 -80.5q0 -2 -0.5 -6t-2.5 -10h-278q2 -62 34 -93.5t80 -31.5q38 0 62 17.5t38 59.5z" />
    <glyph glyph-name="nonmarkingreturn" horiz-adv-x="571" 
 />
    <glyph glyph-name="dieresis.001" 
 />
    <glyph glyph-name="ugrave" horiz-adv-x="582" 
 />
    <glyph glyph-name="uacute" horiz-adv-x="580" 
 />
    <glyph glyph-name="yacute" horiz-adv-x="629" 
 />
    <glyph glyph-name="Ccaron" unicode="&#x10c;" horiz-adv-x="1274" 
 />
    <glyph glyph-name="ccaron" unicode="&#x10d;" horiz-adv-x="922" 
 />
    <glyph glyph-name="space" unicode=" " horiz-adv-x="569" 
 />
    <glyph glyph-name="exclam" unicode="!" horiz-adv-x="379" 
d="M170 0v201h41v-201h-41zM170 373v1089h41v-1089h-41z" />
    <glyph glyph-name="quotedbl" unicode="&#x22;" horiz-adv-x="569" 
d="M190 1001h-40v461h40v-461zM420 1001h-41v461h41v-461z" />
    <glyph glyph-name="numbersign" unicode="#" horiz-adv-x="1139" 
d="M502 1393l-64 -480h350l64 480h41l-64 -480h238v-41h-248l-49 -362h240v-41h-248l-64 -469h-41l64 469h-352l-64 -469h-41l64 469h-256v41h266l49 362h-258v41h268l64 480h41zM379 510h350l49 362h-350z" />
    <glyph glyph-name="dollar" unicode="$" horiz-adv-x="1139" 
d="M543 1456q-77 -1 -156.5 -17.5t-144 -55.5t-105.5 -103t-41 -160q0 -91 37 -148.5t99.5 -93.5t143 -57.5t167.5 -40.5v676zM53 485q0 -125 35.5 -213.5t100 -146t155 -85.5t199.5 -32v729q-59 13 -118 27t-113.5 33t-101 45t-81 64.5t-54.5 90.5t-20 123q0 108 43.5 180
t113.5 115.5t157 62t174 19.5v88h41v-90q102 -2 189 -27t151.5 -78t103 -136t43.5 -201h-41q-4 108 -39 183.5t-94 123t-139 70t-174 24.5v-684l16 -4q68 -18 131.5 -33.5t119 -35.5t101.5 -46.5t79 -66t51 -95t18 -131.5q0 -104 -45.5 -178t-119 -122t-165.5 -70.5
t-186 -22.5v-180h-41v182q-117 5 -215.5 37t-169.5 95t-109.5 158.5t-36.5 227.5h41zM584 6q86 0 171 20t152.5 63t109.5 110t42 161q0 70 -20 120.5t-55 87t-81.5 61.5t-99 42.5t-109 30t-110.5 25.5v-721z" />
    <glyph glyph-name="percent" unicode="%" horiz-adv-x="1403" 
d="M772 322q0 -62 16.5 -117.5t50 -97.5t84.5 -66.5t119 -24.5q69 0 120.5 24.5t86.5 66.5t52.5 97.5t17.5 117.5q0 70 -16.5 127.5t-51 98.5t-86.5 64t-123 23t-122 -23.5t-84 -65.5t-48.5 -99.5t-15.5 -124.5zM731 322q0 77 20.5 142t60.5 112t98 73.5t132 26.5
q78 0 137 -26.5t99.5 -73t61 -111.5t20.5 -141q0 -71 -21 -134.5t-61.5 -111t-99.5 -75.5t-136 -28q-81 0 -139.5 29t-96.5 77t-56.5 110.5t-18.5 130.5zM43 1063q0 78 20.5 143t60.5 112t98 73t132 26q78 0 137 -26t99.5 -73t61 -111.5t20.5 -141.5q0 -71 -21 -134
t-61.5 -110.5t-99.5 -75.5t-136 -28q-81 0 -139.5 28.5t-96.5 76.5t-56.5 110.5t-18.5 130.5zM84 1063q0 -62 16.5 -117.5t50 -97t84.5 -66t119 -24.5q69 0 120.5 24.5t86.5 66.5t52.5 97t17.5 117q0 70 -16.5 127.5t-51 98.5t-86.5 64t-123 23t-122 -23.5t-84 -65.5
t-48.5 -99.5t-15.5 -124.5zM1155 1462h47l-975 -1532h-47z" />
    <glyph glyph-name="ampersand" unicode="&#x26;" horiz-adv-x="1176" 
d="M307 1194q0 -35 12.5 -70t38 -77t65.5 -95t95 -125q44 30 97 66.5t99.5 81t77.5 98t31 117.5q0 54 -21 96.5t-56.5 72.5t-81.5 46t-97 16q-53 0 -100 -15.5t-82.5 -44.5t-56.5 -71t-21 -96zM508 774q-62 -39 -129 -81.5t-122 -95t-90.5 -118.5t-35.5 -151
q0 -78 32.5 -138.5t85.5 -101t120.5 -61.5t138.5 -21q73 0 134 19.5t111 55t89 84t67 105.5zM1171 0h-53l-182 231q-31 -56 -72 -104.5t-94 -84.5t-118.5 -56.5t-143.5 -20.5q-77 0 -152 25t-134 72t-95.5 114t-36.5 152q0 89 37 159.5t94.5 128t127 104t134.5 87.5
q-30 42 -67.5 88t-71 94.5t-56 99t-22.5 101.5q0 70 26.5 121.5t69 85t96 49.5t107.5 16q61 0 115 -18.5t95 -53t65 -85.5t24 -115q0 -72 -31.5 -129t-79 -103.5t-104 -85t-106.5 -75.5l385 -488q20 45 36 111t13 147h41q1 -45 -3 -84t-12 -74t-20 -68.5t-27 -68.5z" />
    <glyph glyph-name="quotesingle" unicode="'" horiz-adv-x="342" 
d="M152 1462h41v-461h-41v461z" />
    <glyph glyph-name="parenleft" unicode="(" horiz-adv-x="455" 
d="M418 1497q-115 -211 -176.5 -444t-61.5 -475q0 -248 60.5 -486t179.5 -454h-41q-60 116 -105 227.5t-75 226t-45 234.5t-15 252q0 241 61.5 474.5t176.5 444.5h41z" />
    <glyph glyph-name="parenright" unicode=")" horiz-adv-x="455" 
d="M37 -362q114 211 175.5 444t61.5 475q0 248 -60 485.5t-179 454.5h41q60 -116 105 -228t74.5 -226t44.5 -234t15 -252q0 -241 -61.5 -474.5t-175.5 -444.5h-41z" />
    <glyph glyph-name="asterisk" unicode="*" horiz-adv-x="721" 
d="M377 1462v-286l270 88l8 -39l-266 -88l170 -224l-33 -24l-170 221l-172 -213l-32 27l180 213l-266 88l12 39l258 -88v286h41z" />
    <glyph glyph-name="plus" unicode="+" horiz-adv-x="1229" 
d="M594 1036h41v-497h495v-41h-495v-498h-41v498h-496v41h496v497z" />
    <glyph glyph-name="comma" unicode="," horiz-adv-x="569" 
d="M305 201v-201q0 -92 -19.5 -150.5t-70.5 -93.5v41q26 26 37.5 73t11.5 130v201h41z" />
    <glyph glyph-name="hyphen" unicode="-" horiz-adv-x="682" 
d="M162 569h358v-41h-358v41z" />
    <glyph glyph-name="period" unicode="." horiz-adv-x="569" 
d="M305 0h-41v201h41v-201z" />
    <glyph glyph-name="slash" unicode="/" horiz-adv-x="682" 
d="M-14 -35l669 1532h41l-669 -1532h-41z" />
    <glyph glyph-name="zero" unicode="0" horiz-adv-x="1139" 
d="M1055 696q0 77 -9.5 158t-32 156.5t-59 142t-90.5 116t-127 78.5t-168 29t-168 -29t-127 -78.5t-90.5 -116t-58.5 -142t-31.5 -156.5t-9.5 -158t9.5 -157.5t31.5 -156t58.5 -142.5t90.5 -116.5t127 -78.5t168 -29t168 29t127 78.5t90.5 116.5t59 142.5t32 156t9.5 157.5z
M1096 696q0 -87 -11.5 -174t-36.5 -167.5t-65.5 -149.5t-99 -120.5t-136.5 -80.5t-178 -29t-177.5 29t-136 80.5t-99 120.5t-65.5 149.5t-36.5 167.5t-11.5 174t11.5 174t36.5 167.5t65.5 149.5t99 120.5t136 80.5t177.5 29t178 -29t136.5 -80.5t99 -120.5t65.5 -149.5
t36.5 -167.5t11.5 -174z" />
    <glyph glyph-name="one" unicode="1" horiz-adv-x="1139" 
d="M610 1339h-4q-32 -44 -74 -82t-91 -69.5t-101.5 -55t-103.5 -38.5v41q63 21 112 45.5t91.5 55t82.5 69t84 88.5h45v-1393h-41v1339z" />
    <glyph glyph-name="two" unicode="2" horiz-adv-x="1139" 
d="M1051 41v-41h-938q-1 58 16.5 109.5t49 97.5t74 87.5t91.5 80t102 75.5t105 74q80 55 156 112t135 120t95 133.5t36 152.5t-29.5 144.5t-81 104.5t-122.5 63.5t-154 21.5q-109 0 -186.5 -33t-126.5 -91.5t-72 -139t-23 -176.5h-41q1 114 29.5 203.5t85 151t140 94
t194.5 32.5q89 0 167 -23.5t136 -70.5t91.5 -117t33.5 -164q0 -87 -35.5 -161t-94 -139.5t-134 -124t-154.5 -113.5q-81 -56 -157 -109.5t-137 -110t-101 -116.5t-47 -127h897z" />
    <glyph glyph-name="three" unicode="3" horiz-adv-x="1139" 
d="M121 961q-2 113 31.5 198.5t95.5 142.5t150.5 86t197.5 29q83 0 161.5 -18.5t139.5 -59.5t98 -106t37 -158q0 -74 -23 -131t-63 -98t-94.5 -64.5t-118.5 -29.5v-4q61 -6 120 -30t104.5 -68t73.5 -109.5t28 -155.5q0 -97 -38 -173t-103 -128.5t-150.5 -80.5t-179.5 -28
q-119 0 -215.5 33t-164 96t-101 155.5t-25.5 211.5h41q-9 -111 22 -196t93 -142.5t151.5 -87t198.5 -29.5q84 0 161.5 24t137 70.5t95.5 115.5t36 159q0 89 -30 153t-83.5 105.5t-127 62t-159.5 23.5h-100v41h100q68 0 134.5 15.5t119.5 51.5t86 94.5t33 143.5
q-2 84 -36 141.5t-89.5 93t-126 51t-143.5 15.5q-100 0 -180.5 -26t-137.5 -77.5t-87.5 -129.5t-28.5 -182h-41z" />
    <glyph glyph-name="four" unicode="4" horiz-adv-x="1139" 
d="M776 1335h-4l-661 -932h665v932zM70 362v50l696 981h51v-990h252v-41h-252v-362h-41v362h-706z" />
    <glyph glyph-name="five" unicode="5" horiz-adv-x="1139" 
d="M301 1352l-127 -596h4q59 96 159 142t222 46q108 0 196.5 -36t151.5 -99.5t98 -152t35 -193.5q0 -111 -35 -201t-98 -153.5t-151.5 -98.5t-196.5 -35q-109 0 -199.5 32t-154.5 92.5t-98 148t-31 198.5h41q-3 -102 27.5 -182t89 -135t141.5 -84t184 -29q100 0 181.5 32
t139 90.5t88.5 141t31 183.5q0 97 -31.5 177.5t-89.5 139t-139 91t-180 32.5q-62 0 -119.5 -13.5t-108 -40.5t-92 -67t-69.5 -92h-51l149 703h715v-41h-682z" />
    <glyph glyph-name="six" unicode="6" horiz-adv-x="1139" 
d="M1018 457q0 91 -34.5 171t-94.5 140t-140 94.5t-171 34.5q-92 0 -172 -34.5t-140 -94.5t-94.5 -140t-34.5 -171q0 -92 34.5 -172t94.5 -140t140 -94.5t172 -34.5q91 0 171 34.5t140 94.5t94.5 140t34.5 172zM993 1065q-21 94 -64.5 154.5t-98.5 95.5t-115 48t-113 13
q-104 0 -180.5 -36t-131 -97t-88.5 -141t-53 -167.5t-25.5 -177t-4.5 -169.5h4q15 73 56.5 137t102 111.5t136.5 74.5t160 27q90 0 176.5 -35t154 -98.5t109 -152t41.5 -195.5q0 -105 -39 -193t-105.5 -152.5t-153.5 -100.5t-183 -36q-72 0 -134.5 19t-114 50t-91.5 70.5
t-66 80.5q-30 46 -48 98.5t-28 111t-13 122t-3 130.5q0 87 10.5 177t35 174.5t64 159t97.5 130t136.5 87.5t180.5 32q91 0 165.5 -27.5t130 -75t89.5 -111.5t45 -138h-41z" />
    <glyph glyph-name="seven" unicode="7" horiz-adv-x="1139" 
d="M125 1352v41h889v-56q-142 -142 -258 -290.5t-198.5 -312t-127.5 -345t-45 -389.5h-41q-2 205 42 389t126.5 351.5t199 319t257.5 292.5h-844z" />
    <glyph glyph-name="eight" unicode="8" horiz-adv-x="1139" 
d="M1034 389q0 100 -38.5 168t-103 108.5t-148.5 58t-175 17.5q-90 0 -174 -17.5t-148.5 -58t-103.5 -108.5t-39 -168q0 -101 38.5 -171.5t103 -115.5t148.5 -65.5t175 -20.5t175.5 20.5t148.5 65.5t102.5 115.5t38.5 171.5zM719 764q82 -8 148 -37.5t112 -78t71 -114
t25 -145.5q0 -108 -40.5 -186.5t-110 -129t-161.5 -74.5t-194 -24t-194 24t-161 74.5t-110 129t-41 186.5q0 80 25 145.5t71.5 114t112.5 78t148 37.5v4q-60 7 -112.5 32t-91 64t-61 90t-22.5 111q0 94 34 160.5t93.5 109t139 62.5t169.5 20q91 0 170.5 -20t138.5 -62.5
t93.5 -109t34.5 -160.5q0 -60 -22.5 -111t-61 -90t-91 -64t-112.5 -32v-4zM965 1065q0 89 -33.5 149t-89 96t-127 51t-146.5 15t-146 -15t-126.5 -51t-89 -96t-33.5 -149q0 -75 36 -128.5t92.5 -88t127 -50.5t139.5 -16t139.5 16t127.5 50.5t93 88t36 128.5z" />
    <glyph glyph-name="nine" unicode="9" horiz-adv-x="1139" 
d="M145 328q21 -95 65 -155.5t99 -95t115 -48t113 -13.5q104 0 180.5 36t130.5 97t88.5 141.5t53.5 168t25 177t5 169.5h-4q-15 -74 -57 -138t-102.5 -111t-136 -74t-159.5 -27q-91 0 -177.5 35t-154 98t-108.5 151.5t-41 196.5q0 104 39 192.5t105.5 152.5t153.5 100
t183 36q72 0 134.5 -19t114 -49.5t91.5 -70t66 -80.5q31 -46 49.5 -99t28.5 -111.5t13 -122t3 -130.5q0 -86 -10.5 -176t-35 -174.5t-64.5 -159t-98.5 -130t-137 -88t-180.5 -32.5q-91 0 -165.5 27.5t-130 75t-90 112t-45.5 138.5h41zM1001 936q0 91 -34.5 171.5t-94 140
t-140 94t-171.5 34.5q-92 0 -172 -34.5t-139.5 -94t-94 -140t-34.5 -171.5q0 -92 34.5 -172t94 -139.5t139.5 -94t172 -34.5q91 0 171.5 34.5t140 94t94 139.5t34.5 172z" />
    <glyph glyph-name="colon" unicode=":" horiz-adv-x="569" 
d="M264 0v201h41v-201h-41zM264 852v201h41v-201h-41z" />
    <glyph glyph-name="semicolon" unicode=";" horiz-adv-x="569" 
d="M305 0q0 -92 -19.5 -150.5t-70.5 -93.5v41q26 26 37.5 73t11.5 130v201h41v-201zM264 852v201h41v-201h-41z" />
    <glyph glyph-name="less" unicode="&#x3c;" horiz-adv-x="1229" 
d="M1135 -16l-1041 510v49l1041 510v-43l-1004 -492l1004 -491v-43z" />
    <glyph glyph-name="equal" unicode="=" horiz-adv-x="1229" 
d="M98 696v41h1032v-41h-1032zM98 299v41h1032v-41h-1032z" />
    <glyph glyph-name="greater" unicode="&#x3e;" horiz-adv-x="1229" 
d="M1098 518l-1004 492v43l1041 -510v-49l-1041 -510v43z" />
    <glyph glyph-name="question" unicode="?" 
d="M72 1010q-4 106 24 195.5t85.5 154.5t142 101t192.5 36q84 0 158 -22.5t128.5 -66t86 -107t31.5 -144.5q0 -77 -22 -135.5t-53.5 -102.5t-66 -75t-59.5 -53q-56 -54 -94.5 -98t-62.5 -90.5t-35 -101t-11 -128.5h-41q0 69 9.5 124.5t33 105.5t62 99t96.5 105
q8 8 26.5 22.5t41 36t46.5 50.5t44 65t32.5 80t12.5 96q0 72 -27.5 128t-76 94t-115 57.5t-144.5 19.5q-101 0 -178.5 -32.5t-128.5 -91.5t-75.5 -141t-20.5 -181h-41zM475 0v201h41v-201h-41z" />
    <glyph glyph-name="at" unicode="@" horiz-adv-x="1638" 
d="M1145 934q-15 53 -44 88.5t-66 56.5t-79 30t-82 9q-65 0 -122 -25t-105.5 -67t-87 -98t-65.5 -117t-41.5 -124t-14.5 -120q0 -54 18.5 -101t51 -81.5t77.5 -54t99 -19.5q41 0 84.5 10.5t85.5 38.5t79.5 75.5t65.5 121.5zM1217 1120h43l-228 -590q-18 -45 -27.5 -85
t-6 -69.5t23.5 -47t61 -17.5q42 0 87.5 18.5t89.5 52.5t84 82t70 107t48 127.5t19 143.5q1 127 -46.5 233t-131 182t-198 118t-247.5 42q-150 0 -278 -54.5t-221.5 -149t-147 -220.5t-53.5 -270q0 -116 26 -213.5t72.5 -176.5t111 -138t142.5 -99t166 -60t182 -20t180.5 25
t162.5 68.5t139.5 103t111.5 127.5h47q-50 -82 -121 -149.5t-155 -115.5t-177.5 -74t-187.5 -26q-91 0 -181.5 19.5t-172.5 59.5t-153 101t-123 144t-81.5 188.5t-29.5 235.5q0 159 59 293.5t160 233t235.5 153.5t286.5 55q138 0 258.5 -43t210.5 -123t142 -194t53 -256
q0 -79 -18.5 -152t-51 -136.5t-76.5 -116t-93.5 -89.5t-101.5 -57.5t-102 -20.5q-30 0 -54.5 9.5t-41 27t-23.5 41t-2 51.5h-4q-28 -39 -61.5 -64t-69.5 -39.5t-73.5 -20t-73.5 -5.5q-59 0 -110 23t-88.5 63t-59 94.5t-21.5 116.5q0 63 16 132t45.5 134.5t72.5 124.5t97 104
t118 71t137 26q48 0 92.5 -12t82 -34.5t65 -54.5t40.5 -73h4z" />
    <glyph glyph-name="A" unicode="A" horiz-adv-x="1178" 
d="M946 522l-348 899h-4l-361 -899h713zM217 481l-194 -481h-48l594 1462h54l577 -1462h-45l-192 481h-746z" />
    <glyph glyph-name="B" unicode="B" horiz-adv-x="1251" 
d="M137 41h582q89 0 166 21.5t134 65.5t89.5 110.5t32.5 156.5q0 96 -36 162t-94.5 107t-133 59t-152.5 18h-588v-700zM96 1462h629q86 0 161 -22.5t131 -68t88 -114t32 -159.5q0 -66 -23.5 -125t-64.5 -104t-98 -73t-124 -32v-4q72 -2 136 -27.5t113 -71.5t77.5 -112.5
t28.5 -151.5q0 -98 -36 -172.5t-100 -124.5t-152.5 -75t-193.5 -25h-604v1462zM137 782h588q73 0 140 20t118.5 59.5t82 99t30.5 137.5q0 83 -28.5 144t-78.5 100.5t-118 59t-146 19.5h-588v-639z" />
    <glyph glyph-name="C" unicode="C" horiz-adv-x="1403" 
d="M1356 573q-18 -134 -69 -245.5t-132.5 -192t-192.5 -125.5t-249 -45q-146 0 -267.5 56t-209.5 156.5t-136.5 239t-48.5 302.5q0 88 16.5 180.5t51.5 178.5t89.5 162.5t131 133.5t176 90t223.5 33q97 0 177.5 -22.5t144.5 -60t112.5 -86.5t81.5 -101.5t49.5 -105
t18.5 -97.5h-41q-7 79 -47.5 156.5t-110.5 138.5t-167.5 99t-217.5 38t-215 -33.5t-166.5 -90t-122 -131t-82.5 -156.5t-46.5 -166t-14.5 -160q0 -93 18.5 -182t54.5 -168.5t89 -146t122 -114.5t153.5 -75t183.5 -27q132 0 236 43t180 119t122.5 180t63.5 225h41z" />
    <glyph glyph-name="D" unicode="D" horiz-adv-x="1327" 
d="M111 1462h512q72 0 146.5 -14t143.5 -47.5t129.5 -88t105.5 -136t71 -191.5t26 -254q0 -131 -26.5 -236t-73.5 -186.5t-111 -139.5t-140.5 -95.5t-161.5 -55.5t-173 -18h-448v1462zM152 41h417q130 0 245.5 41.5t202 127t137 215t50.5 306.5q0 137 -23.5 241t-65 181
t-98 128.5t-122 82.5t-138 44t-145.5 13h-460v-1380z" />
    <glyph glyph-name="E" unicode="E" horiz-adv-x="1100" 
d="M152 41h938v-41h-979v1462h970v-41h-929v-639h874v-41h-874v-700z" />
    <glyph glyph-name="F" unicode="F" horiz-adv-x="985" 
d="M152 782h778v-41h-778v-741h-41v1462h901v-41h-860v-639z" />
    <glyph glyph-name="G" unicode="G" horiz-adv-x="1479" 
d="M772 643v41h608v-686h-41v364h-4q-28 -93 -82.5 -166.5t-130.5 -124.5t-170 -78.5t-200 -27.5q-170 0 -298.5 60.5t-214.5 164.5t-129.5 243.5t-43.5 297.5q0 160 46.5 300t135 243.5t216 163t288.5 59.5q123 0 226 -34.5t182 -98.5t129.5 -155t68.5 -203h-41
q-19 102 -67 185t-121 142t-168 91t-209 32q-153 0 -273 -57.5t-203 -156t-126.5 -230.5t-43.5 -281t41 -281t123 -230.5t204 -156t284 -57.5q121 0 227 42t184.5 117t124 178t45.5 224v76h-567z" />
    <glyph glyph-name="H" unicode="H" horiz-adv-x="1327" 
d="M152 741v-741h-41v1462h41v-680h1024v680h41v-1462h-41v741h-1024z" />
    <glyph glyph-name="I" unicode="I" horiz-adv-x="262" 
d="M111 1462h41v-1462h-41v1462z" />
    <glyph glyph-name="J" unicode="J" horiz-adv-x="948" 
d="M786 1462h41v-1081q0 -92 -21 -168t-68.5 -131.5t-124 -86t-187.5 -30.5q-104 0 -177.5 30.5t-120.5 84t-69 126.5t-22 159v88h41v-88q0 -181 89 -270t259 -89q87 0 154.5 20t113 67.5t69 125t23.5 193.5v1050z" />
    <glyph glyph-name="K" unicode="K" horiz-adv-x="1214" 
d="M152 518v-518h-41v1462h41v-889l1013 889h62l-707 -622l748 -840h-56l-725 815z" />
    <glyph glyph-name="L" unicode="L" horiz-adv-x="985" 
d="M1006 41v-41h-895v1462h41v-1421h854z" />
    <glyph glyph-name="M" unicode="M" horiz-adv-x="1597" 
d="M1419 1462h68v-1462h-41v1411h-4l-621 -1411h-45l-620 1411h-4v-1411h-41v1462h67l619 -1409h4z" />
    <glyph glyph-name="N" unicode="N" horiz-adv-x="1327" 
d="M127 1462h61l999 -1411h5v1411h41v-1462h-62l-999 1411h-4v-1411h-41v1462z" />
    <glyph glyph-name="O" unicode="O" horiz-adv-x="1477" 
d="M106 731q2 -158 46 -291t125 -229.5t198 -150.5t264 -54q148 0 264.5 54t198 150.5t125 229.5t45.5 291q-2 158 -45.5 291t-125 229.5t-198 150.5t-264.5 54q-147 0 -264 -54t-198 -150.5t-125 -229.5t-46 -291zM66 731q0 156 43.5 295t128.5 244t211 166t290 61
q165 0 290.5 -61t211 -166t129 -244t43.5 -295t-43.5 -295t-129 -244t-211 -166t-290.5 -61q-164 0 -290 61t-211 166t-128.5 244t-43.5 295z" />
    <glyph glyph-name="P" unicode="P" horiz-adv-x="1176" 
d="M152 707h550q86 0 160 23.5t128 69t85 112t31 151.5q0 172 -101 265t-303 93h-550v-714zM152 0h-41v1462h591q105 0 187.5 -25t139.5 -75.5t87.5 -125t30.5 -173.5q0 -97 -34.5 -171t-96.5 -124.5t-147.5 -76t-186.5 -25.5h-530v-666z" />
    <glyph glyph-name="Q" unicode="Q" horiz-adv-x="1477" 
d="M874 319l23 33l264 -182q100 96 154.5 240t56.5 321q-2 158 -45.5 291t-125 229.5t-198 150.5t-264.5 54q-147 0 -264 -54t-198 -150.5t-125 -229.5t-46 -291q2 -158 46 -291t125 -229.5t198 -150.5t264 -54q119 0 217.5 35.5t176.5 101.5zM1169 119q-81 -72 -189 -113
t-241 -41q-164 0 -290 61t-211 166t-128.5 244t-43.5 295t43.5 295t128.5 244t211 166t290 61q165 0 290.5 -61t211 -166t129 -244t43.5 -295q0 -87 -14 -169t-41 -157t-67.5 -141t-94.5 -119l236 -161l-21 -29z" />
    <glyph glyph-name="R" unicode="R" horiz-adv-x="1251" 
d="M152 727h546q81 0 156 21t133 65.5t93 113.5t34 165q-1 77 -23.5 138t-70.5 103.5t-122.5 65t-178.5 22.5h-567v-694zM152 0h-41v1462h598q226 0 333.5 -93t112.5 -282q3 -145 -77.5 -243.5t-235.5 -132.5v-4q93 -12 149.5 -44.5t87.5 -83.5t41 -120.5t10 -157.5
q0 -33 2 -78.5t6 -89.5t10.5 -81t16.5 -52h-45q-9 23 -15 60.5t-9 80.5t-4.5 87t-1.5 79q0 90 -13.5 160.5t-54.5 119t-117.5 74t-202.5 25.5h-550v-686z" />
    <glyph glyph-name="S" unicode="S" horiz-adv-x="1251" 
d="M1087 1053q-4 112 -41.5 189t-100.5 124.5t-148.5 68.5t-184.5 21q-51 0 -105 -6.5t-105 -22t-96 -41t-79 -63t-53.5 -88t-19.5 -115.5q0 -66 20 -114t55 -82t83 -57.5t104 -41t117.5 -31t123.5 -28.5q68 -18 131.5 -33.5t119.5 -35.5t101.5 -46.5t78.5 -66t51 -95
t18 -131.5q0 -104 -45.5 -178t-119 -122t-165.5 -70.5t-186 -22.5q-125 0 -230.5 29.5t-182 92.5t-119 161.5t-39.5 236.5h41q0 -131 39 -222.5t109.5 -148.5t167.5 -82.5t214 -25.5q86 0 171 20t152.5 63t109.5 110t42 161q0 74 -22.5 126.5t-60.5 89.5t-88.5 61.5
t-107.5 41.5t-117 29.5t-116 26.5q-59 14 -118.5 28t-114 33t-102 45t-82 64.5t-54.5 90.5t-20 124q0 73 20.5 129t56.5 98t84.5 70.5t104 46.5t115 25.5t118.5 7.5q108 0 200 -23.5t160.5 -76t109.5 -137t46 -207.5h-41z" />
    <glyph glyph-name="T" unicode="T" 
d="M-35 1421v41h1094v-41h-527v-1421h-40v1421h-527z" />
    <glyph glyph-name="U" unicode="U" horiz-adv-x="1294" 
d="M1143 1462h41v-917q0 -290 -139.5 -435t-397.5 -145t-397 145t-139 435v917h41v-917q0 -261 122 -400t373 -139q250 0 373 139t123 400v917z" />
    <glyph glyph-name="V" unicode="V" horiz-adv-x="1102" 
d="M1098 1462h41l-557 -1462h-45l-574 1462h41l553 -1409h4z" />
    <glyph glyph-name="W" unicode="W" horiz-adv-x="1782" 
d="M1761 1462h41l-424 -1462h-55l-430 1411h-4l-422 -1411h-55l-432 1462h43l413 -1411h4l422 1411h60l428 -1411h4z" />
    <glyph glyph-name="X" unicode="X" horiz-adv-x="1065" 
d="M1044 1462h52l-533 -710l557 -752h-51l-534 719l-539 -719h-51l563 752l-533 710h54l506 -678z" />
    <glyph glyph-name="Y" unicode="Y" horiz-adv-x="1102" 
d="M1114 1462h49l-592 -846v-616h-41v616l-591 846h51l561 -803z" />
    <glyph glyph-name="Z" unicode="Z" 
d="M1040 41v-41h-1079v55l1022 1366h-965v41h1006v-55l-1022 -1366h1038z" />
    <glyph glyph-name="bracketleft" unicode="[" horiz-adv-x="455" 
d="M428 1497v-41h-190v-1778h190v-40h-231v1859h231z" />
    <glyph glyph-name="backslash" unicode="\" horiz-adv-x="682" 
d="M655 -35l-669 1532h41l669 -1532h-41z" />
    <glyph glyph-name="bracketright" unicode="]" horiz-adv-x="455" 
d="M27 -362v40h190v1778h-190v41h231v-1859h-231z" />
    <glyph glyph-name="asciicircum" unicode="^" horiz-adv-x="1229" 
d="M1108 465h-41l-453 887l-452 -887h-41l473 928h41z" />
    <glyph glyph-name="underscore" unicode="_" 
d="M0 -256v102h1024v-102h-1024z" />
    <glyph glyph-name="grave" unicode="`" horiz-adv-x="266" 
d="M-78 1497h60l256 -295h-31z" />
    <glyph glyph-name="a" unicode="a" horiz-adv-x="985" 
d="M819 618h-4q-21 -30 -63 -45t-97.5 -22t-119 -9.5t-127.5 -6.5q-62 -5 -120 -17t-103 -41t-72 -81t-27 -136q0 -45 16 -89t52 -78.5t94.5 -55.5t144.5 -21q103 0 182.5 34.5t133.5 91.5t82 130.5t28 151.5v194zM111 727q4 75 30.5 139t76.5 111t123 73.5t171 26.5
q70 0 132 -14.5t109.5 -49.5t76 -93t30.5 -144v-670q0 -30 13 -44.5t32.5 -20t43 -4t44.5 3.5v-41q-30 -2 -61 -1.5t-56 10t-41 31t-16 62.5v138h-4q-15 -51 -52 -99t-91 -84.5t-124 -59t-151 -22.5q-78 0 -143 18.5t-111.5 54.5t-72 89t-25.5 123q0 65 14.5 113t40 82
t60.5 55.5t75.5 35t84.5 20t88 9.5q108 6 185.5 11t128 20.5t74 47t23.5 91.5q0 48 -8.5 99t-39.5 94t-92.5 70.5t-166.5 27.5q-165 0 -257 -80t-103 -229h-41z" />
    <glyph glyph-name="b" unicode="b" horiz-adv-x="1100" 
d="M154 524q0 -102 28.5 -194t83 -162t133.5 -111t181 -41t178.5 41.5t127 111.5t76 162t25.5 193q0 61 -10 122.5t-31.5 118.5t-54 106.5t-78 86t-103.5 57.5t-130 21q-96 0 -174.5 -34t-134.5 -99.5t-86.5 -161t-30.5 -217.5zM154 758h4q18 71 55 130t90.5 101t123 65
t153.5 23q109 0 192.5 -45t140.5 -121t86 -176t29 -211q0 -119 -31 -219.5t-89 -174t-141 -114.5t-187 -41q-81 0 -149.5 24t-122.5 67t-92 101.5t-58 127.5h-4v-295h-41v1462h41v-704z" />
    <glyph glyph-name="c" unicode="c" 
d="M961 358q-9 -88 -44 -159t-91 -120.5t-131.5 -76.5t-164.5 -27q-112 0 -199 42.5t-146.5 114.5t-90.5 168t-31 204q0 114 29.5 218t90 183t153 125.5t219.5 46.5q74 0 141.5 -22.5t121 -66t89 -107.5t45.5 -148h-41q-12 77 -44.5 134t-80 94.5t-107 56t-124.5 18.5
q-84 0 -150 -22t-116 -60.5t-85.5 -90.5t-57.5 -111t-32 -122.5t-10 -125.5q0 -97 27.5 -185t81.5 -155.5t133.5 -107.5t183.5 -40q78 0 146 24t120 68t85 107.5t39 142.5h41z" />
    <glyph glyph-name="d" unicode="d" horiz-adv-x="1100" 
d="M932 524q0 122 -30.5 217.5t-86.5 161t-134.5 99.5t-174.5 34q-72 0 -130.5 -21t-104 -57.5t-78 -86t-54 -106.5t-31.5 -118.5t-10 -122.5q0 -101 25.5 -193t76.5 -162t127.5 -111.5t178.5 -41.5q101 0 180.5 41t134 111t83 162t28.5 194zM932 1462h41v-1462h-41v295h-4
q-20 -69 -58.5 -127.5t-92.5 -101.5t-122 -67t-149 -24q-105 0 -188 41t-141 114.5t-89 174t-31 219.5q0 111 29 211t86 176t141 121t193 45q84 0 153.5 -23t123 -65t90.5 -101t55 -130h4v704z" />
    <glyph glyph-name="e" unicode="e" 
d="M932 559q1 97 -26 183.5t-79.5 151.5t-130.5 103.5t-180 38.5q-85 0 -160 -33t-132 -95t-92 -150t-40 -199h840zM92 518q1 -106 24.5 -197.5t73 -159t128 -106.5t190.5 -39q81 0 151 22.5t123.5 66.5t89 109t48.5 151h41q-11 -91 -48.5 -163t-96.5 -122.5t-136.5 -77.5
t-167.5 -27q-122 -2 -209.5 40t-143.5 116.5t-82 176t-26 218.5q0 132 38.5 234.5t102.5 173t147.5 107t172.5 36.5q123 0 212 -46.5t146 -124.5t82 -179t21 -209h-881z" />
    <glyph glyph-name="f" unicode="f" horiz-adv-x="418" 
d="M-2 1012v41h180v233q0 63 20 98.5t50.5 52.5t67 21t69.5 4q28 0 49.5 -3t38.5 -5v-41q-29 5 -51 6.5t-45 1.5q-49 0 -80 -9t-48 -27.5t-23.5 -46.5t-6.5 -66v-219h227v-41h-227v-1012h-41v1012h-180z" />
    <glyph glyph-name="g" unicode="g" horiz-adv-x="1063" 
d="M911 561q1 91 -24.5 176.5t-76 152t-126 106.5t-174.5 40q-102 0 -179 -38t-129 -103.5t-78 -151.5t-26 -182q0 -98 26 -182.5t76 -146.5t124 -98t170 -36q101 0 179 36.5t131 99.5t80 147.5t27 179.5zM913 352h-4q-16 -70 -57.5 -124.5t-98 -92.5t-123.5 -58t-134 -20
q-110 0 -192.5 41t-137 110t-82 160.5t-27.5 192.5q0 106 29 200t86 164t142 111t196 41q75 0 141 -23.5t118.5 -64.5t88.5 -97t51 -120h4v281h41v-1018q0 -108 -30 -187t-86 -131.5t-137.5 -78t-184.5 -25.5q-80 0 -151.5 18.5t-126.5 59t-88 103t-35 151.5h41
q3 -78 32.5 -133.5t78 -90.5t112.5 -51t135 -16q95 0 169.5 23t125.5 70t77.5 118.5t26.5 169.5v317z" />
    <glyph glyph-name="h" unicode="h" 
d="M113 1462h41v-669h4q15 60 46.5 112t79.5 90.5t111.5 60t141.5 21.5q82 0 151 -25t118.5 -73t77 -119t27.5 -162v-698h-41v692q0 91 -27 156.5t-73 107t-106 61t-127 19.5q-95 0 -166.5 -36t-119.5 -96.5t-72.5 -140.5t-24.5 -167v-596h-41v1462z" />
    <glyph glyph-name="i" unicode="i" horiz-adv-x="266" 
d="M154 0h-41v1053h41v-1053zM154 1255h-41v207h41v-207z" />
    <glyph glyph-name="j" unicode="j" horiz-adv-x="266" 
d="M154 -154q0 -73 -17 -114t-49.5 -62t-80 -26t-107.5 -6v40q60 0 100.5 4t65.5 22t36 55t11 102v1192h41v-1207zM154 1255h-41v207h41v-207z" />
    <glyph glyph-name="k" unicode="k" horiz-adv-x="909" 
d="M154 397v-397h-41v1462h41v-1013l727 604h59l-483 -402l518 -651h-55l-494 623z" />
    <glyph glyph-name="l" unicode="l" horiz-adv-x="266" 
d="M113 1462h41v-1462h-41v1462z" />
    <glyph glyph-name="m" unicode="m" horiz-adv-x="1593" 
d="M113 1053h41v-260h4q15 60 46 112t75 90.5t98.5 60t116.5 21.5q61 1 113 -15t92.5 -48t68.5 -78.5t41 -104.5h4q15 55 47 100t75.5 77.5t97.5 50.5t114 18q95 0 159 -28t103 -79t55.5 -122t16.5 -156v-692h-41v692q0 78 -13.5 141.5t-47 108.5t-90 69.5t-142.5 24.5
q-78 0 -139 -30t-103 -80.5t-64.5 -117.5t-23.5 -140v-668h-41v676q1 73 -10.5 138t-42.5 114.5t-86.5 78.5t-142.5 29q-78 0 -141 -36t-107.5 -96.5t-68 -140.5t-23.5 -167v-596h-41v1053z" />
    <glyph glyph-name="n" unicode="n" 
d="M113 1053h41v-260h4q15 60 46.5 112t79.5 90.5t111.5 60t141.5 21.5q82 0 151 -25t118.5 -73t77 -119t27.5 -162v-698h-41v692q0 91 -27 156.5t-73 107t-106 61t-127 19.5q-95 0 -166.5 -36t-119.5 -96.5t-72.5 -140.5t-24.5 -167v-596h-41v1053z" />
    <glyph glyph-name="o" unicode="o" horiz-adv-x="1063" 
d="M57 526q0 108 31 207.5t91 176t148.5 122t204.5 45.5q115 0 203.5 -45.5t148.5 -122t91 -176t31 -207.5t-31 -207.5t-91 -176t-149 -122t-205 -45.5q-115 0 -203.5 45.5t-148.5 122t-90.5 176t-30.5 207.5zM98 526q0 -100 28 -192t82.5 -162.5t135.5 -113t188 -42.5
q105 0 186 42.5t136 113t83 162.5t28 192q0 98 -28 190t-83 163t-136 114t-186 43q-107 0 -188 -43t-135.5 -114t-82.5 -163t-28 -190z" />
    <glyph glyph-name="p" unicode="p" horiz-adv-x="1100" 
d="M580 16q72 0 130 21t103.5 57.5t78 86t54 106.5t31.5 118.5t10 122.5q0 102 -25.5 194t-76 161.5t-127 111t-178.5 41.5t-181 -41t-133.5 -110.5t-83 -162t-28.5 -194.5q0 -122 30.5 -217t86.5 -160.5t134.5 -100t174.5 -34.5zM154 -362h-41v1415h41v-295h4
q20 69 58 127.5t92 101t122.5 66.5t149.5 24q104 0 187 -41t141 -114t89 -174t31 -220q0 -111 -29 -211t-86 -176t-140.5 -121t-192.5 -45q-84 0 -153.5 23t-123 65t-90.5 101t-55 131h-4v-657z" />
    <glyph glyph-name="q" unicode="q" horiz-adv-x="1100" 
d="M932 1053h41v-1415h-41v657h-4q-18 -72 -55 -131t-90.5 -101t-123 -65t-153.5 -23q-109 0 -193 45t-141 121t-86 176t-29 211q0 119 31 220t89 174t141 114t188 41q81 0 149 -24t122 -66.5t92.5 -101t58.5 -127.5h4v295zM932 528q0 102 -28.5 194.5t-83 162t-134 110.5
t-180.5 41q-102 0 -178.5 -41.5t-127.5 -111t-76.5 -161.5t-25.5 -194q0 -61 10 -122.5t31.5 -118.5t54 -106.5t78 -86t104 -57.5t130.5 -21q96 0 174.5 34.5t134.5 100t86.5 160.5t30.5 217z" />
    <glyph glyph-name="r" unicode="r" horiz-adv-x="530" 
d="M154 0h-41v1053h41v-260h4q15 58 45.5 111t81 92.5t121 61.5t165.5 19v-41q-108 6 -186.5 -30t-130 -98.5t-76 -144t-24.5 -167.5v-596z" />
    <glyph glyph-name="s" unicode="s" horiz-adv-x="948" 
d="M799 741q0 79 -25 135t-70 91.5t-107.5 52t-137.5 16.5q-74 0 -126 -14t-87 -35.5t-55.5 -48t-31 -51.5t-13.5 -45t-3 -29q0 -78 31.5 -120.5t85.5 -63.5q56 -22 120.5 -38.5t149.5 -39.5q61 -15 121.5 -33t108.5 -48.5t78 -78.5t30 -123q0 -79 -34 -134.5t-88 -91
t-122 -51.5t-137 -16q-207 0 -316.5 93.5t-109.5 291.5h41q0 -87 26 -152t75.5 -107.5t121 -63.5t162.5 -21q57 0 117 13.5t109.5 43t81.5 76.5t32 115q0 47 -14.5 81t-39.5 59.5t-59.5 43t-74.5 30.5t-84.5 24t-89.5 22q-75 19 -133 35.5t-103 36.5q-65 28 -96 80t-31 137
q0 44 19 90.5t61.5 85t110.5 63.5t166 25q87 0 157.5 -19.5t120 -60.5t76.5 -104.5t27 -151.5h-41z" />
    <glyph glyph-name="t" unicode="t" horiz-adv-x="494" 
d="M225 1012v-807q0 -59 13 -92t34 -49t46 -19.5t49 -3.5q31 0 55.5 1.5t34.5 4.5v-41q-9 -1 -17 -2t-18.5 -2t-26 -1.5t-39.5 -0.5q-36 0 -67.5 9.5t-54.5 32.5t-36.5 61t-13.5 94v815h-194v41h194v331h41v-331h238v-41h-238z" />
    <glyph glyph-name="u" unicode="u" 
d="M911 0h-41v260h-4q-15 -61 -47 -113t-80 -90.5t-111 -60t-141 -21.5q-82 0 -151 25t-118.5 73.5t-77 119t-27.5 161.5v699h41v-693q0 -91 27 -156t72.5 -107t106 -61.5t127.5 -19.5q94 0 166 36t120 96.5t72.5 140.5t24.5 168v596h41v-1053z" />
    <glyph glyph-name="v" unicode="v" horiz-adv-x="834" 
d="M813 1053h45l-397 -1053h-51l-435 1053h50l407 -1012h4z" />
    <glyph glyph-name="w" unicode="w" horiz-adv-x="1403" 
d="M1378 1053h41l-336 -1053h-53l-328 1012h-4l-329 -1012h-58l-327 1053h41l313 -1012h4l326 1012h63l324 -1012h4z" />
    <glyph glyph-name="x" unicode="x" horiz-adv-x="834" 
d="M778 1053h49l-385 -508l422 -545h-51l-397 514l-396 -514h-51l422 545l-383 508h53l355 -478z" />
    <glyph glyph-name="y" unicode="y" horiz-adv-x="834" 
d="M815 1053h43l-485 -1268q-21 -54 -49.5 -83.5t-63.5 -43.5t-76.5 -17t-89.5 -3v40q52 -1 90 2.5t66.5 17t50 41t39.5 75.5l76 196l-441 1043h45l418 -998z" />
    <glyph glyph-name="z" unicode="z" horiz-adv-x="834" 
d="M823 41v-41h-813v51l738 961h-682v41h725v-52l-738 -960h770z" />
    <glyph glyph-name="braceleft" unicode="{" horiz-adv-x="682" 
d="M471 -362q-43 0 -71.5 13.5t-46 41.5t-24.5 70.5t-7 101.5v334q0 62 -6 114t-22.5 95.5t-45.5 79.5t-74 65v41q33 5 60 36t46.5 78t30.5 106.5t11 121.5v338q0 58 7 100.5t24.5 69.5t46 40t71.5 13h102v-41h-98q-31 0 -52.5 -10.5t-35 -36t-19.5 -67.5t-6 -105v-336
q0 -45 -8.5 -96.5t-26 -98t-45.5 -83.5t-67 -54q34 -16 61 -48.5t46 -77t29.5 -98.5t10.5 -112v-331q0 -69 6.5 -112.5t20.5 -68t35.5 -34t50.5 -9.5h98v-40h-102z" />
    <glyph glyph-name="bar" unicode="|" horiz-adv-x="455" 
d="M207 -438v2048h41v-2048h-41z" />
    <glyph glyph-name="braceright" unicode="}" horiz-adv-x="682" 
d="M211 1497q43 0 71.5 -13.5t46 -41.5t24.5 -71t7 -101v-334q0 -62 6 -114.5t22.5 -96t45.5 -79t74 -64.5v-41q-33 -6 -60.5 -36.5t-47 -78t-30 -106.5t-10.5 -121v-338q0 -59 -7 -101t-24.5 -69t-46 -40t-71.5 -13h-102v40h98q31 0 52 10.5t34.5 36t19.5 68t6 105.5v335
q0 45 8.5 96.5t26.5 98t46 83.5t67 54q-34 16 -61 48.5t-46.5 77t-30 98t-10.5 112.5v332q0 68 -6.5 111.5t-20 68t-35 34t-50.5 9.5h-98v41h102z" />
    <glyph glyph-name="asciitilde" unicode="~" horiz-adv-x="1229" 
d="M1071 604q-20 -32 -42.5 -63.5t-49.5 -56.5t-59 -40.5t-72 -15.5q-26 0 -50 6t-48 15.5t-49 21t-52 23.5q-26 12 -53 25t-57.5 24.5t-65 18.5t-74.5 7q-35 0 -63.5 -11t-52.5 -31t-45 -47.5t-39 -59.5l-41 12q19 36 43 68.5t54 56.5t65.5 38.5t78.5 14.5q56 3 118 -19
t122 -50q31 -13 60 -26t56 -23t51 -16.5t44 -6.5q31 0 56 13t47 34t40.5 47t36.5 53z" />
    <glyph glyph-name="Euro" unicode="&#x20ac;" horiz-adv-x="1139" 
d="M1161 150q-178 -181 -430 -181q-128 0 -232 45.5t-181 124.5t-126 185t-67 227h-125l14 35h109q-2 11 -3 21.5t-1 21.5v43q0 29 1 59.5t3 59.5h-123l14 34h113q16 126 64.5 235t127 190t185.5 127t241 46q112 0 203.5 -33.5t177.5 -101.5l-18 -33q-43 33 -85 57.5t-86 41
t-91.5 24.5t-102.5 8q-123 0 -223 -44t-173.5 -119.5t-118.5 -178t-60 -219.5h833l-18 -34h-819q-2 -25 -3 -49.5t-1 -49.5q0 -54 6 -106h774l-18 -35h-752q18 -111 64 -210.5t117.5 -173.5t168.5 -117.5t217 -43.5q256 0 424 199v-55v0z" />
    <glyph glyph-name="quotesinglbase" unicode="&#x201a;" horiz-adv-x="342" 
d="M190 201v-201q0 -92 -20 -150.5t-72 -93.5v41q28 26 40 73t12 130v201h40z" />
    <glyph glyph-name="florin" unicode="&#x192;" horiz-adv-x="1139" 
d="M387 -113q-9 -48 -28.5 -93t-50.5 -79.5t-75.5 -55.5t-103.5 -21q-26 0 -52 2t-50 10l10 41q22 -6 43 -9.5t43 -3.5q51 0 88.5 16t64 45t43 69t25.5 88l186 946h-243l8 41h244l79 399q23 114 92 164.5t179 50.5q28 0 57 -3t55 -11l-8 -39q-24 5 -51.5 8.5t-56.5 3.5
q-47 0 -84 -9.5t-64.5 -32.5t-46.5 -60.5t-31 -93.5l-75 -377h260l-8 -41h-261z" />
    <glyph glyph-name="quotedblbase" unicode="&#x201e;" horiz-adv-x="569" 
d="M399 201v-201q0 -92 -20 -150.5t-72 -93.5v41q28 26 39.5 73t11.5 130v201h41zM195 201v-201q0 -92 -20.5 -150.5t-72.5 -93.5v41q28 26 40 73t12 130v201h41z" />
    <glyph glyph-name="ellipsis" unicode="&#x2026;" horiz-adv-x="2048" 
d="M362 0h-40v201h40v-201zM1044 0h-40v201h40v-201zM1726 0h-40v201h40v-201z" />
    <glyph glyph-name="dagger" unicode="&#x2020;" horiz-adv-x="1139" 
d="M590 1462v-497h426v-41h-426v-1211h-41v1211h-426v41h426v497h41z" />
    <glyph glyph-name="daggerdbl" unicode="&#x2021;" horiz-adv-x="1139" 
d="M123 117v41h426v860h-426v41h426v403h41v-403h426v-41h-426v-860h426v-41h-426v-404h-41v404h-426z" />
    <glyph glyph-name="circumflex" unicode="&#x2c6;" horiz-adv-x="266" 
d="M340 1212l-211 252l-203 -252h-41l232 285h30l234 -285h-41z" />
    <glyph glyph-name="perthousand" unicode="&#x2030;" horiz-adv-x="2124" 
d="M43 1063q0 78 20.5 143t60.5 112t98 73t132 26q78 0 137 -26t99.5 -73t61 -111.5t20.5 -141.5q0 -71 -21 -134t-61.5 -110.5t-99.5 -75.5t-136 -28q-81 0 -139.5 28.5t-96.5 76.5t-56.5 110.5t-18.5 130.5zM84 1063q0 -62 16.5 -117.5t50 -97t84.5 -66t119 -24.5
q69 0 120.5 24.5t86.5 66.5t52.5 97t17.5 117q0 70 -16.5 127.5t-51 98.5t-86.5 64t-123 23t-122 -23.5t-84 -65.5t-48.5 -99.5t-15.5 -124.5zM715 322q0 77 20.5 142t60.5 112t97.5 73.5t132.5 26.5q78 0 137 -26.5t99 -73t60.5 -111.5t20.5 -141q0 -71 -20.5 -134.5
t-61 -111t-99.5 -75.5t-136 -28q-81 0 -139.5 29t-96.5 77t-56.5 110.5t-18.5 130.5zM756 322q0 -62 16.5 -117.5t50 -97.5t84.5 -66.5t119 -24.5t120 24.5t87 66.5t52.5 97.5t17.5 117.5q0 70 -17 127.5t-51 98.5t-86.5 64t-122.5 23q-71 0 -122 -23.5t-84 -65.5
t-48.5 -99.5t-15.5 -124.5zM1452 322q0 77 20.5 142t60.5 112t98 73.5t132 26.5q78 0 137 -26.5t99.5 -73t61 -111.5t20.5 -141q0 -71 -21 -134.5t-61.5 -111t-99.5 -75.5t-136 -28q-81 0 -139.5 29t-96.5 77t-56.5 110.5t-18.5 130.5zM1493 322q0 -62 16.5 -117.5t50 -97.5
t84.5 -66.5t119 -24.5q69 0 120.5 24.5t86.5 66.5t52.5 97.5t17.5 117.5q0 70 -16.5 127.5t-51 98.5t-86.5 64t-123 23t-122 -23.5t-84 -65.5t-48.5 -99.5t-15.5 -124.5zM1157 1462h47l-975 -1532h-47z" />
    <glyph glyph-name="Scaron" unicode="&#x160;" horiz-adv-x="1251" 
d="M1087 1053q-4 112 -41.5 189t-100.5 124.5t-148.5 68.5t-184.5 21q-51 0 -105 -6.5t-105 -22t-96 -41t-79 -63t-53.5 -88t-19.5 -115.5q0 -66 20 -114t55 -82t83 -57.5t104 -41t117.5 -31t123.5 -28.5q68 -18 131.5 -33.5t119.5 -35.5t101.5 -46.5t78.5 -66t51 -95
t18 -131.5q0 -104 -45.5 -178t-119 -122t-165.5 -70.5t-186 -22.5q-125 0 -230.5 29.5t-182 92.5t-119 161.5t-39.5 236.5h41q0 -131 39 -222.5t109.5 -148.5t167.5 -82.5t214 -25.5q86 0 171 20t152.5 63t109.5 110t42 161q0 74 -22.5 126.5t-60.5 89.5t-88.5 61.5
t-107.5 41.5t-117 29.5t-116 26.5q-59 14 -118.5 28t-114 33t-102 45t-82 64.5t-54.5 90.5t-20 124q0 73 20.5 129t56.5 98t84.5 70.5t104 46.5t115 25.5t118.5 7.5q108 0 200 -23.5t160.5 -76t109.5 -137t46 -207.5h-41zM420 1907l211 -252l203 252h40l-231 -285h-31
l-233 285h41z" />
    <glyph glyph-name="guilsinglleft" unicode="&#x2039;" horiz-adv-x="530" 
d="M346 248l-211 284v33l211 285v-72l-170 -229l170 -230v-71z" />
    <glyph glyph-name="OE" unicode="&#x152;" horiz-adv-x="2087" 
d="M1933 782v-41h-749v-700h848v-41h-889v133q-85 -88 -190 -128t-212 -40q-165 0 -291 61t-211.5 165t-129 241.5t-43.5 290.5q0 102 19 199.5t56.5 183.5t94 158t131.5 123.5t168.5 80.5t205.5 29q121 0 221 -38.5t181 -129.5v133h889v-41h-848v-639h749zM1143 1276
q-47 48 -91 82.5t-91.5 56t-101 31.5t-118.5 10q-145 0 -261.5 -52.5t-199 -149t-127.5 -231.5t-47 -300q2 -155 46 -286.5t125.5 -227t198.5 -149.5t265 -54q48 0 100 10t104.5 32.5t103 58t94.5 86.5v1083z" />
    <glyph glyph-name="Zcaron" unicode="&#x17d;" 
d="M1040 41v-41h-1079v55l1022 1366h-965v41h1006v-55l-1022 -1366h1038zM305 1907l211 -252l203 252h41l-232 -285h-30l-234 285h41z" />
    <glyph glyph-name="quoteleft" unicode="&#x2018;" horiz-adv-x="342" 
d="M150 1001v242q0 55 4 90.5t14.5 59t28.5 39t45 30.5v-41q-15 -10 -25 -24.5t-16 -35.5t-8.5 -50t-2.5 -68v-242h-40z" />
    <glyph glyph-name="quoteright" unicode="&#x2019;" horiz-adv-x="342" 
d="M193 1462v-241q0 -55 -4.5 -90.5t-15 -59.5t-28.5 -39.5t-45 -30.5v41q31 20 41.5 61t10.5 118v241h41z" />
    <glyph glyph-name="quotedblleft" unicode="&#x201c;" horiz-adv-x="569" 
d="M170 1001v242q0 55 4 90.5t14.5 59t28.5 39t45 30.5v-41q-15 -10 -25 -24.5t-16 -35.5t-8 -50t-2 -68v-242h-41zM375 1001v242q0 55 4 90.5t14.5 59t28.5 39t45 30.5v-41q-15 -10 -25 -24.5t-16 -35.5t-8 -50t-2 -68v-242h-41z" />
    <glyph glyph-name="quotedblright" unicode="&#x201d;" horiz-adv-x="569" 
d="M399 1462v-241q0 -55 -4.5 -90.5t-15 -59.5t-28 -39.5t-44.5 -30.5v41q31 20 41 61t10 118v241h41zM195 1462v-241q0 -55 -4.5 -90.5t-15 -59.5t-28.5 -39.5t-45 -30.5v41q31 20 41.5 61t10.5 118v241h41z" />
    <glyph glyph-name="bullet" unicode="&#x2022;" 
d="M147 731q0 76 28.5 142.5t78 116t116 78t142.5 28.5t143 -28.5t116.5 -78t78.5 -116t29 -142.5t-29 -143t-78.5 -116.5t-116.5 -78t-143 -28.5t-142.5 28.5t-116 78t-78 116.5t-28.5 143z" />
    <glyph glyph-name="endash" unicode="&#x2013;" 
d="M0 569h1024v-41h-1024v41z" />
    <glyph glyph-name="emdash" unicode="&#x2014;" horiz-adv-x="2048" 
d="M1782 528h-1516v41h1516v-41z" />
    <glyph glyph-name="tilde" unicode="&#x2dc;" horiz-adv-x="266" 
d="M-137 1233q0 28 11.5 57t31 52.5t44.5 38t52 14.5q35 0 69 -18.5t66.5 -41t63.5 -41t61 -18.5q24 0 42.5 9.5t31.5 25t19.5 36t6.5 42.5h41q0 -30 -9 -58t-26.5 -49t-44 -34t-61.5 -13q-39 0 -72 18.5t-63.5 41t-60.5 41t-64 18.5q-21 0 -39 -11.5t-31 -29.5t-20.5 -39.5
t-7.5 -40.5h-41z" />
    <glyph glyph-name="trademark" unicode="&#x2122;" horiz-adv-x="2028" 
d="M475 1421h-307v41h655v-41h-307v-803h-41v803zM1016 1462h69l332 -786l332 786h70v-844h-41v803h-4l-336 -803h-41l-336 803h-4v-803h-41v844z" />
    <glyph glyph-name="scaron" unicode="&#x161;" horiz-adv-x="948" 
d="M799 741q0 79 -25 135t-70 91.5t-107.5 52t-137.5 16.5q-74 0 -126 -14t-87 -35.5t-55.5 -48t-31 -51.5t-13.5 -45t-3 -29q0 -78 31.5 -120.5t85.5 -63.5q56 -22 120.5 -38.5t149.5 -39.5q61 -15 121.5 -33t108.5 -48.5t78 -78.5t30 -123q0 -79 -34 -134.5t-88 -91
t-122 -51.5t-137 -16q-207 0 -316.5 93.5t-109.5 291.5h41q0 -87 26 -152t75.5 -107.5t121 -63.5t162.5 -21q57 0 117 13.5t109.5 43t81.5 76.5t32 115q0 47 -14.5 81t-39.5 59.5t-59.5 43t-74.5 30.5t-84.5 24t-89.5 22q-75 19 -133 35.5t-103 36.5q-65 28 -96 80t-31 137
q0 44 19 90.5t61.5 85t110.5 63.5t166 25q87 0 157.5 -19.5t120 -60.5t76.5 -104.5t27 -151.5h-41zM268 1497l211 -252l203 252h41l-231 -285h-31l-234 285h41z" />
    <glyph glyph-name="guilsinglright" unicode="&#x203a;" horiz-adv-x="530" 
d="M184 850l211 -285v-33l-211 -284v71l170 230l-170 229v72z" />
    <glyph glyph-name="oe" unicode="&#x153;" horiz-adv-x="1823" 
d="M1712 559q-2 97 -24 183.5t-68 151.5t-118.5 103.5t-176.5 38.5q-106 0 -179.5 -36.5t-120 -100.5t-69 -151.5t-26.5 -188.5h782zM889 526q0 98 -20 190t-65.5 163t-120.5 114t-185 43q-107 0 -181.5 -43t-121.5 -114.5t-68 -163.5t-21 -189q0 -95 21 -186.5t68 -163.5
t121.5 -116t181.5 -44q112 0 187 42t120.5 112.5t64.5 162.5t19 193zM930 518q-2 -242 95 -372t298 -130q90 0 155 27.5t110 74t71.5 107.5t38.5 129h41q-14 -85 -47 -155t-85 -119.5t-123 -77t-161 -27.5q-174 0 -280.5 89.5t-131.5 257.5h-4q-17 -79 -50 -143t-84 -109.5
t-119.5 -70t-155.5 -24.5q-77 0 -139.5 21.5t-110.5 60t-82.5 90.5t-56.5 113.5t-32.5 129t-10.5 136.5q0 102 23 200.5t74 176.5t133.5 126t201.5 48q85 0 155 -26.5t122 -74t85 -113.5t45 -146h4q14 77 44.5 142t81 113t122 75.5t166.5 29.5q114 1 195 -42t133.5 -116.5
t77 -169.5t24.5 -200v-31h-823z" />
    <glyph glyph-name="zcaron" unicode="&#x17e;" horiz-adv-x="834" 
d="M823 41v-41h-813v51l738 961h-682v41h725v-52l-738 -960h770zM211 1497l211 -252l203 252h41l-232 -285h-31l-233 285h41z" />
    <glyph glyph-name="Ydieresis" unicode="&#x178;" horiz-adv-x="1102" 
d="M1114 1462h49l-592 -846v-616h-41v616l-591 846h51l561 -803zM371 1573v166h41v-166h-41zM690 1573v166h41v-166h-41z" />
    <glyph glyph-name="uni00A0" unicode="&#xa0;" horiz-adv-x="569" 
 />
    <glyph glyph-name="exclamdown" unicode="&#xa1;" horiz-adv-x="379" 
d="M211 1110v-201h-41v201h41zM211 737v-1099h-41v1099h41z" />
    <glyph glyph-name="cent" unicode="&#xa2;" horiz-adv-x="1139" 
d="M557 1034q-101 -4 -175 -49t-123 -115.5t-73 -160t-24 -181.5q0 -95 23.5 -185t72.5 -161.5t123.5 -116.5t175.5 -49v1018zM598 16h10q75 0 139.5 26t112.5 71.5t78.5 108t38.5 136.5h41q-11 -90 -46.5 -160.5t-90 -120t-127 -75.5t-156.5 -27v-223h-41v223
q-110 4 -192 52t-136 124.5t-81 174.5t-27 202q0 102 27.5 198.5t82 173t136.5 124t190 51.5v180h41v-180q79 -2 149.5 -24.5t125 -65t90.5 -105.5t45 -147h-41q-12 75 -44 131t-80.5 93.5t-111 56t-133.5 20.5v-1018z" />
    <glyph glyph-name="sterling" unicode="&#xa3;" horiz-adv-x="1139" 
d="M606 748v-41h-305q35 -63 48 -135t13 -144q0 -118 -54 -214.5t-148 -176.5l4 -4q38 29 92 52.5t117 23.5q51 0 102 -16.5t100 -33.5q51 -20 101 -36.5t96 -16.5q49 0 90 12.5t77.5 35t72 53.5t73.5 69l27 -29q-45 -51 -86 -85.5t-82 -56t-83 -31t-89 -9.5
q-51 0 -102.5 15.5t-102.5 35.5q-51 17 -99.5 34.5t-94.5 17.5q-73 0 -135 -27.5t-121 -75.5l-37 41q50 42 94 90.5t77 102t52 111t19 118.5q0 78 -17.5 152t-48.5 127h-156v41h136q-20 40 -45 84.5t-47 91.5t-37 95.5t-15 96.5q0 97 38.5 169t103 119t148 70t173.5 23
q117 0 210.5 -36t155.5 -103t90 -162t15 -213h-41q11 115 -16.5 203.5t-85 148.5t-141.5 90.5t-187 30.5q-79 0 -155 -19t-135 -60t-95.5 -105.5t-36.5 -155.5q0 -48 15.5 -96t38.5 -95t49 -92t47 -85h323z" />
    <glyph glyph-name="currency" unicode="&#xa4;" horiz-adv-x="1139" 
d="M1030 1186l29 -29l-117 -117q68 -72 101.5 -161t33.5 -183q0 -93 -33.5 -181t-101.5 -163l117 -116l-29 -29l-117 117q-72 -66 -161 -100t-183 -36q-93 0 -181 33.5t-163 102.5l-116 -117l-29 29l117 116q-69 75 -102.5 163t-33.5 181q2 94 36 183t100 161l-117 117
l29 29l116 -117q75 68 163 101.5t181 33.5q94 0 183 -33.5t161 -101.5zM1036 696q0 97 -36.5 182t-100 148.5t-148.5 100t-182 36.5q-96 0 -181 -37t-148.5 -100.5t-100.5 -148.5t-37 -181t37 -181t100.5 -148.5t148.5 -100.5t181 -37t181 37t148.5 100.5t100.5 148.5
t37 181z" />
    <glyph glyph-name="yen" unicode="&#xa5;" horiz-adv-x="1139" 
d="M588 416h301v-41h-301v-375h-41v375h-301v41h301v209h-301v41h282l-485 796h45l479 -784h4l480 784h45l-486 -796h279v-41h-301v-209z" />
    <glyph glyph-name="brokenbar" unicode="&#xa6;" horiz-adv-x="455" 
d="M248 -182h-41v512h41v-512zM248 1354v-512h-41v512h41z" />
    <glyph glyph-name="section" unicode="&#xa7;" horiz-adv-x="1139" 
d="M864 1118q-2 78 -22.5 141t-59.5 106.5t-96.5 67t-134.5 23.5q-40 0 -90 -11t-93 -37.5t-71 -72t-25 -114.5q1 -39 11 -69.5t26 -54.5t36.5 -43t43.5 -36q37 -27 69 -46t64 -37t67 -37t77 -46q109 -71 178.5 -125t109 -102.5t54 -97.5t14.5 -109q0 -56 -25.5 -103
t-63 -83t-79 -60t-72.5 -33q40 -33 65 -65t38 -63.5t16.5 -62t1.5 -61.5q-5 -71 -34.5 -123t-75.5 -85.5t-104 -49.5t-120 -16q-86 0 -153.5 26.5t-113.5 77t-69.5 124.5t-21.5 169h41q-1 -78 16.5 -143.5t55.5 -112.5t98.5 -73t146.5 -27q79 -1 134.5 22.5t91 58.5t51.5 76
t16 76q0 41 -5 72.5t-22 61.5t-49.5 61t-87.5 70q-34 24 -77.5 52t-91.5 58t-97 60.5t-94 60.5q-73 49 -116.5 91.5t-67 82t-30.5 79t-7 81.5q0 48 19 93t50 82.5t71.5 65.5t82.5 43q-20 17 -39.5 38.5t-35 48.5t-25 61t-9.5 76q0 57 16.5 99.5t43.5 73t61.5 49.5t70.5 30.5
t70.5 15.5t61.5 4q81 0 145.5 -27t110 -77t70 -120t24.5 -155h-41zM981 420q0 51 -13.5 94t-51 88t-103 96.5t-170.5 118.5q-26 16 -63 37.5t-75 43.5t-72.5 42t-55.5 33q-15 -5 -37 -15t-46.5 -25.5t-48.5 -37.5t-43.5 -51t-31.5 -65t-12 -79q0 -24 5 -54t25.5 -65.5
t61.5 -77t112 -87.5q45 -29 97.5 -62t104 -66t98 -64t81.5 -56q31 7 72 26.5t78 51.5t62.5 75.5t25.5 98.5z" />
    <glyph glyph-name="dieresis" unicode="&#xa8;" horiz-adv-x="266" 
d="M-47 1208v166h41v-166h-41zM272 1208v166h41v-166h-41z" />
    <glyph glyph-name="copyright" unicode="&#xa9;" horiz-adv-x="1638" 
d="M1174 877q-10 67 -41 117t-77 83.5t-102.5 50.5t-117.5 17q-96 0 -171 -32t-127 -89t-79 -134.5t-27 -168.5q0 -90 28 -169t81 -138t129 -93t172 -34q56 0 108.5 18.5t97 54t77 87t49.5 118.5h40q-16 -71 -50 -129.5t-82.5 -100.5t-109 -65.5t-130.5 -23.5
q-103 0 -186.5 36.5t-142 100t-90.5 150t-32 186.5t30.5 186t87.5 148t139.5 97.5t187.5 35.5q72 0 136.5 -20.5t115 -60t83.5 -97t43 -131.5h-40zM53 731q0 106 27.5 204t77 183t119.5 155t155 119.5t183 77t204 27.5t204 -27.5t183 -77t155 -119.5t119.5 -155t77 -183
t27.5 -204t-27.5 -204t-77 -183t-119.5 -155t-155 -119.5t-183 -77t-204 -27.5t-204 27.5t-183 77t-155 119.5t-119.5 155t-77 183t-27.5 204zM94 731q0 -100 26 -193t73 -173.5t113 -146.5t146.5 -113t173.5 -73t193 -26q101 0 193.5 26t173 73t146.5 113t113 146.5
t73 173.5t26 193t-26 193t-73 173.5t-113 146.5t-146.5 113t-173.5 73t-193 26t-193 -26t-173.5 -73t-146.5 -113t-113 -146.5t-73 -173.5t-26 -193z" />
    <glyph glyph-name="ordfeminine" unicode="&#xaa;" horiz-adv-x="614" 
d="M504 1130h-4q-13 -19 -38 -28.5t-58 -13.5t-72 -5.5t-80 -5.5t-79 -11.5t-67.5 -24t-47 -44.5t-17.5 -73q0 -36 16 -61t42.5 -40.5t60.5 -22.5t69 -7q66 0 117.5 18.5t86.5 51t53 76t18 93.5v98zM614 766q-18 -1 -37.5 -0.5t-35.5 6.5t-26.5 19.5t-10.5 37.5v84h-4v-14
q-22 -68 -91.5 -107.5t-179.5 -39.5q-44 0 -85.5 9.5t-73.5 30.5t-51 53.5t-19 78.5q0 60 22 97t57.5 57.5t80.5 28.5t92 11q48 2 93 2.5t80.5 8t57 25.5t21.5 56q0 90 -48.5 128t-150.5 38q-103 0 -156.5 -45.5t-64.5 -126.5h-41q11 100 75.5 156.5t186.5 56.5q50 0 93 -9
t75.5 -30.5t51 -56.5t20.5 -86v-389q0 -18 6 -26.5t15.5 -12t22 -3t25.5 2.5v-41z" />
    <glyph glyph-name="guillemotleft" unicode="&#xab;" horiz-adv-x="721" 
d="M346 248l-211 284v33l211 285v-72l-170 -229l170 -230v-71zM537 248l-211 284v33l211 285v-72l-170 -229l170 -230v-71z" />
    <glyph glyph-name="logicalnot" unicode="&#xac;" horiz-adv-x="1229" 
d="M1090 696h-992v41h1032v-547h-40v506z" />
    <glyph glyph-name="uni00AD" unicode="&#xad;" horiz-adv-x="682" 
d="M162 569h358v-41h-358v41z" />
    <glyph glyph-name="registered" unicode="&#xae;" horiz-adv-x="1638" 
d="M561 1157h289q150 0 220.5 -62.5t70.5 -174.5q0 -56 -18.5 -97.5t-50 -70t-73.5 -43.5t-88 -19l271 -414h-52l-264 410q-15 -2 -30.5 -2h-32.5h-201v-408h-41v881zM815 725q45 0 95 5.5t92 25.5t70 59t28 105q0 60 -21.5 98.5t-56.5 60t-81 29.5t-95 8h-244v-391h213z
M53 731q0 106 27.5 204t77 183t119.5 155t155 119.5t183 77t204 27.5t204 -27.5t183 -77t155 -119.5t119.5 -155t77 -183t27.5 -204t-27.5 -204t-77 -183t-119.5 -155t-155 -119.5t-183 -77t-204 -27.5t-204 27.5t-183 77t-155 119.5t-119.5 155t-77 183t-27.5 204zM94 731
q0 -100 26 -193t73 -173.5t113 -146.5t146.5 -113t173.5 -73t193 -26q101 0 193.5 26t173 73t146.5 113t113 146.5t73 173.5t26 193t-26 193t-73 173.5t-113 146.5t-146.5 113t-173.5 73t-193 26t-193 -26t-173.5 -73t-146.5 -113t-113 -146.5t-73 -173.5t-26 -193z" />
    <glyph glyph-name="macron" unicode="&#xaf;" horiz-adv-x="266" 
d="M371 1286h-475v41h475v-41z" />
    <glyph glyph-name="degree" unicode="&#xb0;" horiz-adv-x="819" 
d="M662 1124q0 51 -18.5 96.5t-52 80t-80 55t-101.5 20.5q-51 0 -97 -21t-80.5 -56t-54.5 -80.5t-20 -94.5q0 -55 20 -102t54.5 -81t80.5 -53.5t97 -19.5q54 0 100 20t79.5 54.5t53 81t19.5 100.5zM702 1124q0 -61 -22.5 -115t-61.5 -94.5t-92.5 -64t-115.5 -23.5t-115 23
t-93 62.5t-62.5 94t-22.5 117.5q0 60 22.5 113.5t62.5 93t93 63t115 23.5q61 0 114.5 -23.5t93 -63t62 -93t22.5 -113.5z" />
    <glyph glyph-name="plusminus" unicode="&#xb1;" horiz-adv-x="1229" 
d="M594 1036h41v-405h495v-41h-495v-406h-41v406h-496v41h496v405zM98 41h1032v-41h-1032v41z" />
    <glyph glyph-name="twosuperior" unicode="&#xb2;" horiz-adv-x="682" 
d="M647 608v-41h-610q0 58 25 103.5t65.5 83t91.5 70.5t103 67q51 34 98 67.5t83 71t57.5 80.5t21.5 94q0 44 -18 76.5t-49.5 53.5t-75.5 31.5t-95 10.5q-67 0 -114.5 -17t-78 -48.5t-44.5 -78t-13 -104.5h-41q1 69 17.5 123t51 91t89.5 56t133 19q58 0 108.5 -12t88.5 -38
t60 -66.5t22 -96.5q0 -41 -10.5 -79t-40 -77.5t-82.5 -84t-138 -99.5q-51 -33 -98.5 -65.5t-84 -64t-59.5 -63.5t-26 -63h563z" />
    <glyph glyph-name="threesuperior" unicode="&#xb3;" horiz-adv-x="682" 
d="M49 1145q-2 67 20.5 117.5t64 85t99 52t125.5 17.5q51 0 102 -9.5t91.5 -32.5t66 -62.5t25.5 -100.5q0 -43 -15.5 -78.5t-43.5 -61t-66.5 -40t-83.5 -14.5v-4q45 -3 86 -17t72 -40t49 -65t18 -93q0 -59 -25 -104.5t-67 -77t-97 -48t-116 -16.5q-78 0 -141.5 19.5
t-107 57.5t-65.5 93t-17 127h40q-5 -65 14.5 -113t58 -79.5t94 -47.5t122.5 -16q51 0 99 13t85 39t59.5 64t22.5 89q0 57 -22.5 94.5t-59.5 60t-84.5 32t-97.5 9.5h-49v43h53q46 0 90 9t78 29t55 53.5t21 82.5q0 52 -21 84t-55.5 50t-79 24t-90.5 6q-129 0 -197.5 -55.5
t-68.5 -175.5h-41z" />
    <glyph glyph-name="acute" unicode="&#xb4;" horiz-adv-x="266" 
d="M350 1497l-299 -295h-31l271 295h59z" />
    <glyph glyph-name="mu" unicode="&#xb5;" horiz-adv-x="1139" 
d="M967 0h-41v260h-4q-14 -61 -46 -113t-80 -90.5t-111.5 -60t-141.5 -21.5q-51 0 -100 10.5t-92 33t-78 59t-58 88.5h-4v-528h-41v1415h39v-693q0 -91 27 -156t73 -107t106.5 -61.5t127.5 -19.5q94 0 166 36t120 96.5t72.5 140.5t24.5 168v596h41v-1053z" />
    <glyph glyph-name="paragraph" unicode="&#xb6;" horiz-adv-x="1229" 
d="M1006 1462v-1749h-41v1708h-334v-1708h-41v959q-102 0 -185.5 31t-143.5 84.5t-93 124t-33 149.5q0 97 31 171.5t90 125.5t143.5 77.5t192.5 26.5h414z" />
    <glyph glyph-name="periodcentered" unicode="&#xb7;" horiz-adv-x="569" 
d="M219 696q0 28 19 47t47 19t46.5 -19t18.5 -47t-18.5 -46.5t-46.5 -18.5t-47 18.5t-19 46.5z" />
    <glyph glyph-name="cedilla" unicode="&#xb8;" horiz-adv-x="266" 
d="M-33 -301q35 -12 72 -22.5t78 -10.5q28 0 56.5 5t51.5 18t37 33.5t14 52.5q0 21 -11.5 36.5t-29 25.5t-37 15t-34.5 5q-65 0 -111 -27l-30 20l116 150h41l-84 -115q14 1 27 7t41 6q30 0 57.5 -6.5t49 -21t34 -38t12.5 -57.5q0 -45 -16.5 -74.5t-44 -46t-63.5 -23
t-76 -6.5q-54 0 -96.5 13t-71.5 22z" />
    <glyph glyph-name="onesuperior" unicode="&#xb9;" horiz-adv-x="682" 
d="M371 1356h-4q-19 -26 -46.5 -49t-59.5 -42t-66.5 -33.5t-67.5 -23.5v39q41 13 73 28t59.5 33.5t53 41.5t54.5 53h45v-836h-41v789z" />
    <glyph glyph-name="ordmasculine" unicode="&#xba;" horiz-adv-x="614" 
d="M0 1087q0 65 20 124.5t59.5 105.5t97 73t132.5 27t132.5 -27t96.5 -73t58.5 -105.5t19.5 -124.5t-19.5 -125.5t-58.5 -107t-97 -74.5t-134 -28q-74 0 -131.5 28t-96.5 74.5t-59 107t-20 125.5zM41 1087q0 -55 18 -108t52.5 -94t84 -66.5t113.5 -25.5q63 0 112.5 25.5
t83.5 66.5t52 94t18 108q0 54 -18 106t-52 92.5t-83.5 65.5t-112.5 25q-64 0 -113.5 -25t-84 -65.5t-52.5 -92.5t-18 -106z" />
    <glyph glyph-name="guillemotright" unicode="&#xbb;" horiz-adv-x="721" 
d="M375 850l211 -285v-33l-211 -284v71l170 230l-170 229v72zM184 850l211 -285v-33l-211 -284v71l170 230l-170 229v72z" />
    <glyph glyph-name="onequarter" unicode="&#xbc;" horiz-adv-x="1708" 
d="M1300 776v4l-4 -4l-405 -526h409v526zM848 209v51l442 576h51v-586h156v-41h-156v-209h-41v209h-452zM1270 1462h47l-975 -1532h-47zM453 1356h-4q-19 -26 -46.5 -49t-59.5 -42t-66.5 -33.5t-67.5 -23.5v39q40 13 72 28t60 33.5t53.5 41.5t54.5 53h45v-836h-41v789z" />
    <glyph glyph-name="onehalf" unicode="&#xbd;" horiz-adv-x="1708" 
d="M1174 1462h47l-975 -1532h-47zM377 1356h-4q-18 -26 -45.5 -49t-60 -42t-67 -33.5t-67.5 -23.5v39q41 13 73 28t59.5 33.5t53 41.5t54.5 53h45v-836h-41v789zM1577 41v-41h-610q0 58 25 103.5t65.5 83t91.5 70.5t102 67q52 34 99 67.5t83 71t57 80.5t21 94q0 44 -18 76.5
t-49.5 53.5t-75 31.5t-94.5 10.5q-67 0 -114.5 -17t-78 -48.5t-44.5 -78t-13 -104.5h-41q1 69 17.5 123t51 90.5t89.5 56t133 19.5q57 0 108 -12.5t88.5 -38.5t59.5 -66t22 -96q0 -42 -10.5 -80t-40 -77.5t-82.5 -84t-137 -98.5q-51 -33 -98.5 -65.5t-84 -64t-59.5 -63.5
t-26 -63h563z" />
    <glyph glyph-name="threequarters" unicode="&#xbe;" horiz-adv-x="1708" 
d="M1399 776v4l-4 -4l-406 -526h410v526zM946 209v51l443 576h51v-586h155v-41h-155v-209h-41v209h-453zM1380 1462h47l-974 -1532h-47zM139 1145q-2 67 21 117.5t64 85t98.5 52t126.5 17.5q51 0 101.5 -9.5t91 -32.5t66 -62.5t25.5 -100.5q0 -43 -15.5 -78.5t-43.5 -61
t-66.5 -40t-83.5 -14.5v-4q45 -3 86 -17t72 -40t49.5 -65t18.5 -93q0 -59 -25 -104.5t-67 -77t-97.5 -48t-116.5 -16.5q-78 0 -141.5 19.5t-107 57.5t-65.5 93t-17 127h41q-6 -65 13.5 -113t58 -79.5t94 -47.5t122.5 -16q52 0 100 13t85 39t59.5 64t22.5 89q0 57 -22.5 95
t-59.5 61t-85 32.5t-98 9.5h-24t-25 -2v43h54q46 0 89.5 9t77.5 29t55 53.5t21 82.5q0 52 -21 84t-55.5 50t-79 24t-90.5 6q-129 0 -197.5 -55.5t-68.5 -175.5h-41z" />
    <glyph glyph-name="questiondown" unicode="&#xbf;" 
d="M952 100q4 -107 -24 -196t-85.5 -154t-142 -101t-192.5 -36q-84 0 -158 22.5t-128.5 66t-86 107t-31.5 144.5q0 77 21.5 135.5t52.5 102.5t65.5 75t59.5 53q55 54 94 98t63 90.5t35 101t11 128.5h41q0 -69 -10 -124.5t-33 -105.5t-61.5 -99t-96.5 -105q-8 -8 -26 -22.5
t-40.5 -36t-46.5 -50.5t-43.5 -65t-32 -80t-12.5 -96q0 -72 27.5 -128t76 -94t115 -57.5t144.5 -19.5q101 0 178.5 32.5t128.5 91.5t75.5 141t20.5 181h41zM549 1110v-201h-41v201h41z" />
    <glyph glyph-name=".notdef.106" unicode="&#xc0;" horiz-adv-x="1178" 
d="M946 522l-348 899h-4l-361 -899h713zM217 481l-194 -481h-48l594 1462h54l577 -1462h-45l-192 481h-746zM379 1862h59l256 -295h-30z" />
    <glyph glyph-name=".notdef.107" unicode="&#xc1;" horiz-adv-x="1178" 
d="M946 522l-348 899h-4l-361 -899h713zM217 481l-194 -481h-48l594 1462h54l577 -1462h-45l-192 481h-746zM807 1862l-299 -295h-31l271 295h59z" />
    <glyph glyph-name=".notdef.111" unicode="&#xc2;" horiz-adv-x="1178" 
d="M946 522l-348 899h-4l-361 -899h713zM217 481l-194 -481h-48l594 1462h54l577 -1462h-45l-192 481h-746zM797 1577l-211 252l-203 -252h-41l231 285h31l234 -285h-41z" />
    <glyph glyph-name=".notdef.109" unicode="&#xc3;" horiz-adv-x="1178" 
d="M946 522l-348 899h-4l-361 -899h713zM217 481l-194 -481h-48l594 1462h54l577 -1462h-45l-192 481h-746zM319 1597q0 28 11.5 57t31 52.5t45 38t52.5 14.5q35 0 69 -18.5t66.5 -41t63.5 -41t61 -18.5q24 0 42.5 9.5t31 25.5t19.5 36.5t7 41.5h41q0 -30 -9 -58t-26.5 -49
t-44 -34t-61.5 -13q-39 0 -72 18.5t-63.5 41t-60.5 41t-64 18.5q-22 0 -40 -11.5t-31 -29.5t-20.5 -39.5t-7.5 -40.5h-41z" />
    <glyph glyph-name="Adieresis" unicode="&#xc4;" horiz-adv-x="1178" 
d="M946 522l-348 899h-4l-361 -899h713zM217 481l-194 -481h-48l594 1462h54l577 -1462h-45l-192 481h-746zM410 1573v166h41v-166h-41zM729 1573v166h41v-166h-41z" />
    <glyph glyph-name="Aring" unicode="&#xc5;" horiz-adv-x="1178" 
d="M946 522l-348 899h-4l-361 -899h713zM217 481l-194 -481h-48l594 1462h54l577 -1462h-45l-192 481h-746zM770 1688q0 -37 -14.5 -70t-39 -57.5t-57 -39t-69.5 -14.5q-36 0 -68.5 14.5t-57.5 39t-39.5 57.5t-14.5 70q0 36 14.5 68.5t39.5 57.5t57.5 39.5t68.5 14.5
t68.5 -14.5t57.5 -39.5t39.5 -57.5t14.5 -68.5zM729 1688q0 28 -11 53.5t-30 44.5t-44.5 30t-53.5 11q-29 0 -54 -11t-44 -30t-30 -44.5t-11 -53.5q0 -29 11 -54t30 -44.5t44 -30.5t54 -11q28 0 53.5 11t44.5 30.5t30 44.5t11 54z" />
    <glyph glyph-name="AE" unicode="&#xc6;" horiz-adv-x="1745" 
d="M317 561l-297 -561h-45l775 1462h960v-41h-803v-639h738v-41h-738v-700h803v-41h-844v561h-549zM770 1425l-432 -823h528v823h-96z" />
    <glyph glyph-name="Ccedilla" unicode="&#xc7;" horiz-adv-x="1403" 
d="M1282 1024q-7 79 -47.5 156.5t-110.5 138.5t-167.5 99t-217.5 38t-215 -33.5t-166.5 -90t-122 -131t-82.5 -156.5t-46.5 -166t-14.5 -160q0 -93 18.5 -182t54.5 -168.5t89 -146t122 -114.5t153.5 -75t183.5 -27q132 0 236 43t180 119t122.5 180t63.5 225h41
q-18 -133 -68.5 -244t-130.5 -191.5t-189 -126t-245 -46.5l-59 -80q14 2 26.5 7.5t40.5 5.5q30 0 58 -6.5t49 -21t34 -38t13 -57.5q0 -45 -16.5 -74.5t-44 -46t-64 -23t-76.5 -6.5q-54 0 -96.5 13t-71.5 22l19 39q35 -12 72 -22.5t77 -10.5q28 0 57 5t51.5 18t37 33.5
t14.5 52.5q0 21 -12 36.5t-29 25.5t-37 15t-35 5q-65 0 -110 -27l-31 20l90 117q-140 6 -255.5 64.5t-198.5 158t-129 234.5t-46 295q0 88 16.5 180.5t51.5 178.5t89.5 162.5t131 133.5t176 90t223.5 33q97 0 177.5 -22.5t144.5 -60t112.5 -86.5t81.5 -101.5t49.5 -105
t18.5 -97.5h-41z" />
    <glyph glyph-name=".notdef.123" unicode="&#xc8;" horiz-adv-x="1100" 
d="M152 41h938v-41h-979v1462h970v-41h-929v-639h874v-41h-874v-700zM340 1862h59l256 -295h-30z" />
    <glyph glyph-name=".notdef.124" unicode="&#xc9;" horiz-adv-x="1100" 
d="M152 41h938v-41h-979v1462h970v-41h-929v-639h874v-41h-874v-700zM768 1862l-299 -295h-31l271 295h59z" />
    <glyph glyph-name=".notdef.128" unicode="&#xca;" horiz-adv-x="1100" 
d="M152 41h938v-41h-979v1462h970v-41h-929v-639h874v-41h-874v-700zM758 1577l-211 252l-203 -252h-41l232 285h30l234 -285h-41z" />
    <glyph glyph-name="Edieresis" unicode="&#xcb;" horiz-adv-x="1100" 
d="M152 41h938v-41h-979v1462h970v-41h-929v-639h874v-41h-874v-700zM371 1573v166h41v-166h-41zM690 1573v166h41v-166h-41z" />
    <glyph glyph-name=".notdef.104" unicode="&#xcc;" horiz-adv-x="262" 
d="M111 1462h41v-1462h-41v1462zM-80 1862h60l256 -295h-31z" />
    <glyph glyph-name=".notdef.103" unicode="&#xcd;" horiz-adv-x="262" 
d="M111 1462h41v-1462h-41v1462zM348 1862l-299 -295h-31l271 295h59z" />
    <glyph glyph-name="Icircumflex" unicode="&#xce;" horiz-adv-x="262" 
d="M111 1462h41v-1462h-41v1462zM338 1577l-211 252l-203 -252h-41l232 285h30l234 -285h-41z" />
    <glyph glyph-name="Idieresis" unicode="&#xcf;" horiz-adv-x="262" 
d="M111 1462h41v-1462h-41v1462zM-49 1573v166h41v-166h-41zM270 1573v166h41v-166h-41z" />
    <glyph glyph-name="Eth" unicode="&#xd0;" horiz-adv-x="1327" 
d="M-20 741v41h131v680h512q72 0 146.5 -14t143.5 -47.5t129.5 -88t105.5 -136t71 -191.5t26 -254q0 -131 -26.5 -236t-73.5 -186.5t-111 -139.5t-140.5 -95.5t-161.5 -55.5t-173 -18h-448v741h-131zM152 741v-700h417q130 0 245.5 41.5t202 127t137 215t50.5 306.5
q0 137 -23.5 241t-65 181t-98 128.5t-122 82.5t-138 44t-145.5 13h-460v-639h608v-41h-608z" />
    <glyph glyph-name="Ntilde" unicode="&#xd1;" horiz-adv-x="1327" 
d="M111 1462h61l999 -1411h5v1411h41v-1462h-62l-999 1411h-4v-1411h-41v1462zM393 1597q0 28 11.5 57t31 52.5t44.5 38t52 14.5q36 0 70 -18.5t66.5 -41t63.5 -41t61 -18.5q24 0 42.5 9.5t31 25.5t19.5 36.5t7 41.5h41q0 -30 -9 -58t-26.5 -49t-44 -34t-61.5 -13
q-39 0 -72 18.5t-63.5 41t-61 41t-64.5 18.5q-21 0 -39 -11.5t-31 -29.5t-20.5 -39.5t-7.5 -40.5h-41z" />
    <glyph glyph-name=".notdef.099" unicode="&#xd2;" horiz-adv-x="1477" 
d="M106 731q2 -158 46 -291t125 -229.5t198 -150.5t264 -54q148 0 264.5 54t198 150.5t125 229.5t45.5 291q-2 158 -45.5 291t-125 229.5t-198 150.5t-264.5 54q-147 0 -264 -54t-198 -150.5t-125 -229.5t-46 -291zM66 731q0 156 43.5 295t128.5 244t211 166t290 61
q165 0 290.5 -61t211 -166t129 -244t43.5 -295t-43.5 -295t-129 -244t-211 -166t-290.5 -61q-164 0 -290 61t-211 166t-128.5 244t-43.5 295zM528 1862h60l256 -295h-31z" />
    <glyph glyph-name=".notdef.098" unicode="&#xd3;" horiz-adv-x="1477" 
d="M106 731q2 -158 46 -291t125 -229.5t198 -150.5t264 -54q148 0 264.5 54t198 150.5t125 229.5t45.5 291q-2 158 -45.5 291t-125 229.5t-198 150.5t-264.5 54q-147 0 -264 -54t-198 -150.5t-125 -229.5t-46 -291zM66 731q0 156 43.5 295t128.5 244t211 166t290 61
q165 0 290.5 -61t211 -166t129 -244t43.5 -295t-43.5 -295t-129 -244t-211 -166t-290.5 -61q-164 0 -290 61t-211 166t-128.5 244t-43.5 295zM956 1862l-299 -295h-30l270 295h59z" />
    <glyph glyph-name=".notdef.094" unicode="&#xd4;" horiz-adv-x="1477" 
d="M106 731q2 -158 46 -291t125 -229.5t198 -150.5t264 -54q148 0 264.5 54t198 150.5t125 229.5t45.5 291q-2 158 -45.5 291t-125 229.5t-198 150.5t-264.5 54q-147 0 -264 -54t-198 -150.5t-125 -229.5t-46 -291zM66 731q0 156 43.5 295t128.5 244t211 166t290 61
q165 0 290.5 -61t211 -166t129 -244t43.5 -295t-43.5 -295t-129 -244t-211 -166t-290.5 -61q-164 0 -290 61t-211 166t-128.5 244t-43.5 295zM946 1577l-211 252l-203 -252h-40l231 285h31l233 -285h-41z" />
    <glyph glyph-name=".notdef.096" unicode="&#xd5;" horiz-adv-x="1477" 
d="M106 731q2 -158 46 -291t125 -229.5t198 -150.5t264 -54q148 0 264.5 54t198 150.5t125 229.5t45.5 291q-2 158 -45.5 291t-125 229.5t-198 150.5t-264.5 54q-147 0 -264 -54t-198 -150.5t-125 -229.5t-46 -291zM66 731q0 156 43.5 295t128.5 244t211 166t290 61
q165 0 290.5 -61t211 -166t129 -244t43.5 -295t-43.5 -295t-129 -244t-211 -166t-290.5 -61q-164 0 -290 61t-211 166t-128.5 244t-43.5 295zM469 1597q0 28 11.5 57t31 52.5t44.5 38t52 14.5q35 0 69 -18.5t66.5 -41t63.5 -41t61 -18.5q24 0 43 9.5t31.5 25.5t19.5 36.5
t7 41.5h41q0 -30 -9 -58t-26.5 -49t-44 -34t-62.5 -13q-39 0 -72 18.5t-63.5 41t-60.5 41t-64 18.5q-21 0 -39 -11.5t-31 -29.5t-20.5 -39.5t-7.5 -40.5h-41z" />
    <glyph glyph-name="Odieresis" unicode="&#xd6;" horiz-adv-x="1477" 
d="M106 731q2 -158 46 -291t125 -229.5t198 -150.5t264 -54q148 0 264.5 54t198 150.5t125 229.5t45.5 291q-2 158 -45.5 291t-125 229.5t-198 150.5t-264.5 54q-147 0 -264 -54t-198 -150.5t-125 -229.5t-46 -291zM66 731q0 156 43.5 295t128.5 244t211 166t290 61
q165 0 290.5 -61t211 -166t129 -244t43.5 -295t-43.5 -295t-129 -244t-211 -166t-290.5 -61q-164 0 -290 61t-211 166t-128.5 244t-43.5 295zM559 1573v166h41v-166h-41zM879 1573v166h41v-166h-41z" />
    <glyph glyph-name="multiply" unicode="&#xd7;" horiz-adv-x="1229" 
d="M197 907l28 27l387 -391l392 391l28 -27l-391 -389l391 -389l-28 -29l-392 392l-387 -392l-28 29l389 389z" />
    <glyph glyph-name="Oslash" unicode="&#xd8;" horiz-adv-x="1477" 
d="M1190 1264q-82 91 -194.5 141.5t-256.5 50.5q-147 0 -264 -54t-198 -150.5t-125 -229.5t-46 -291q2 -152 41 -278t113 -220zM287 203q80 -94 193.5 -145.5t258.5 -51.5q148 0 264.5 54t198 150.5t125 229.5t45.5 291q-2 152 -41 279t-114 221zM231 201q-81 103 -123 239
t-42 291q0 156 43.5 295t128.5 244t211 166t290 61q155 0 275 -54.5t205 -148.5l120 133l31 -24l-125 -139q84 -104 126 -240.5t42 -292.5t-43.5 -295t-129 -244t-211 -166t-290.5 -61q-156 0 -276 55t-205 152l-145 -162l-31 25z" />
    <glyph glyph-name=".notdef.088" unicode="&#xd9;" horiz-adv-x="1294" 
d="M1143 1462h41v-917q0 -290 -139.5 -435t-397.5 -145t-397 145t-139 435v917h41v-917q0 -261 122 -400t373 -139q250 0 373 139t123 400v917zM436 1862h60l256 -295h-31z" />
    <glyph glyph-name=".notdef.087" unicode="&#xda;" horiz-adv-x="1294" 
d="M1143 1462h41v-917q0 -290 -139.5 -435t-397.5 -145t-397 145t-139 435v917h41v-917q0 -261 122 -400t373 -139q250 0 373 139t123 400v917zM864 1862l-299 -295h-30l270 295h59z" />
    <glyph glyph-name="Ucircumflex" unicode="&#xdb;" horiz-adv-x="1294" 
d="M1143 1462h41v-917q0 -290 -139.5 -435t-397.5 -145t-397 145t-139 435v917h41v-917q0 -261 122 -400t373 -139q250 0 373 139t123 400v917zM854 1577l-211 252l-203 -252h-41l232 285h31l233 -285h-41z" />
    <glyph glyph-name="Udieresis" unicode="&#xdc;" horiz-adv-x="1294" 
d="M1143 1462h41v-917q0 -290 -139.5 -435t-397.5 -145t-397 145t-139 435v917h41v-917q0 -261 122 -400t373 -139q250 0 373 139t123 400v917zM467 1573v166h41v-166h-41zM786 1573v166h41v-166h-41z" />
    <glyph glyph-name=".notdef.070" unicode="&#xdd;" horiz-adv-x="1102" 
d="M1114 1462h49l-592 -846v-616h-41v616l-591 846h51l561 -803zM768 1907l-299 -295h-31l271 295h59z" />
    <glyph glyph-name="Thorn" unicode="&#xde;" horiz-adv-x="1176" 
d="M152 453h550q86 0 160 23.5t128 69t85 112t31 151.5q0 172 -101 265t-303 93h-550v-714zM702 1208q105 0 187.5 -25t139.5 -75.5t87.5 -125t30.5 -173.5q0 -97 -34.5 -171t-96.5 -124.5t-147.5 -76t-186.5 -25.5h-530v-412h-41v1462h41v-254h550z" />
    <glyph glyph-name="germandbls" unicode="&#xdf;" horiz-adv-x="985" 
d="M414 834q78 -2 149.5 13t126 52t87 98t32.5 152q0 70 -26.5 125t-72 93t-106.5 58.5t-131 20.5q-26 0 -59.5 -3.5t-69 -15t-70 -32.5t-61 -55.5t-43 -85.5t-16.5 -121v-1133h-41v1139q0 97 31.5 164t82.5 107.5t115.5 58.5t130.5 18q74 0 142 -23t120.5 -66.5t83.5 -106
t31 -142.5q0 -63 -16 -118.5t-48.5 -99t-81.5 -72.5t-114 -40v-4q88 -8 151.5 -38.5t104.5 -81t60.5 -117.5t19.5 -148q0 -99 -25.5 -180.5t-85.5 -138.5t-158 -86.5t-243 -24.5v41q103 -5 190 11t149 61t97 122.5t35 194.5q0 113 -35 184t-97.5 111t-149 54.5t-189.5 13.5
v41z" />
    <glyph glyph-name=".notdef.066" unicode="&#xe0;" horiz-adv-x="985" 
d="M819 618h-4q-21 -30 -63 -45t-97.5 -22t-119 -9.5t-127.5 -6.5q-62 -5 -120 -17t-103 -41t-72 -81t-27 -136q0 -45 16 -89t52 -78.5t94.5 -55.5t144.5 -21q103 0 182.5 34.5t133.5 91.5t82 130.5t28 151.5v194zM111 727q4 75 30.5 139t76.5 111t123 73.5t171 26.5
q70 0 132 -14.5t109.5 -49.5t76 -93t30.5 -144v-670q0 -30 13 -44.5t32.5 -20t43 -4t44.5 3.5v-41q-30 -2 -61 -1.5t-56 10t-41 31t-16 62.5v138h-4q-15 -51 -52 -99t-91 -84.5t-124 -59t-151 -22.5q-78 0 -143 18.5t-111.5 54.5t-72 89t-25.5 123q0 65 14.5 113t40 82
t60.5 55.5t75.5 35t84.5 20t88 9.5q108 6 185.5 11t128 20.5t74 47t23.5 91.5q0 48 -8.5 99t-39.5 94t-92.5 70.5t-166.5 27.5q-165 0 -257 -80t-103 -229h-41zM283 1452h59l256 -295h-31z" />
    <glyph glyph-name=".notdef.065" unicode="&#xe1;" horiz-adv-x="985" 
d="M819 618h-4q-21 -30 -63 -45t-97.5 -22t-119 -9.5t-127.5 -6.5q-62 -5 -120 -17t-103 -41t-72 -81t-27 -136q0 -45 16 -89t52 -78.5t94.5 -55.5t144.5 -21q103 0 182.5 34.5t133.5 91.5t82 130.5t28 151.5v194zM111 727q4 75 30.5 139t76.5 111t123 73.5t171 26.5
q70 0 132 -14.5t109.5 -49.5t76 -93t30.5 -144v-670q0 -30 13 -44.5t32.5 -20t43 -4t44.5 3.5v-41q-30 -2 -61 -1.5t-56 10t-41 31t-16 62.5v138h-4q-15 -51 -52 -99t-91 -84.5t-124 -59t-151 -22.5q-78 0 -143 18.5t-111.5 54.5t-72 89t-25.5 123q0 65 14.5 113t40 82
t60.5 55.5t75.5 35t84.5 20t88 9.5q108 6 185.5 11t128 20.5t74 47t23.5 91.5q0 48 -8.5 99t-39.5 94t-92.5 70.5t-166.5 27.5q-165 0 -257 -80t-103 -229h-41zM711 1452l-299 -295h-31l270 295h60z" />
    <glyph glyph-name=".notdef.061" unicode="&#xe2;" horiz-adv-x="985" 
d="M819 618h-4q-21 -30 -63 -45t-97.5 -22t-119 -9.5t-127.5 -6.5q-62 -5 -120 -17t-103 -41t-72 -81t-27 -136q0 -45 16 -89t52 -78.5t94.5 -55.5t144.5 -21q103 0 182.5 34.5t133.5 91.5t82 130.5t28 151.5v194zM111 727q4 75 30.5 139t76.5 111t123 73.5t171 26.5
q70 0 132 -14.5t109.5 -49.5t76 -93t30.5 -144v-670q0 -30 13 -44.5t32.5 -20t43 -4t44.5 3.5v-41q-30 -2 -61 -1.5t-56 10t-41 31t-16 62.5v138h-4q-15 -51 -52 -99t-91 -84.5t-124 -59t-151 -22.5q-78 0 -143 18.5t-111.5 54.5t-72 89t-25.5 123q0 65 14.5 113t40 82
t60.5 55.5t75.5 35t84.5 20t88 9.5q108 6 185.5 11t128 20.5t74 47t23.5 91.5q0 48 -8.5 99t-39.5 94t-92.5 70.5t-166.5 27.5q-165 0 -257 -80t-103 -229h-41zM700 1167l-211 252l-202 -252h-41l231 285h31l233 -285h-41z" />
    <glyph glyph-name=".notdef.063" unicode="&#xe3;" horiz-adv-x="985" 
d="M819 618h-4q-21 -30 -63 -45t-97.5 -22t-119 -9.5t-127.5 -6.5q-62 -5 -120 -17t-103 -41t-72 -81t-27 -136q0 -45 16 -89t52 -78.5t94.5 -55.5t144.5 -21q103 0 182.5 34.5t133.5 91.5t82 130.5t28 151.5v194zM111 727q4 75 30.5 139t76.5 111t123 73.5t171 26.5
q70 0 132 -14.5t109.5 -49.5t76 -93t30.5 -144v-670q0 -30 13 -44.5t32.5 -20t43 -4t44.5 3.5v-41q-30 -2 -61 -1.5t-56 10t-41 31t-16 62.5v138h-4q-15 -51 -52 -99t-91 -84.5t-124 -59t-151 -22.5q-78 0 -143 18.5t-111.5 54.5t-72 89t-25.5 123q0 65 14.5 113t40 82
t60.5 55.5t75.5 35t84.5 20t88 9.5q108 6 185.5 11t128 20.5t74 47t23.5 91.5q0 48 -8.5 99t-39.5 94t-92.5 70.5t-166.5 27.5q-165 0 -257 -80t-103 -229h-41zM223 1188q0 28 11.5 57t31 52.5t44.5 38t52 14.5q36 0 70 -18.5t66.5 -41t63.5 -41t61 -18.5q24 0 42.5 9.5
t31 25t19.5 36t7 41.5h41q0 -30 -9 -57.5t-26.5 -48.5t-44 -34t-61.5 -13q-39 0 -72 18.5t-63.5 41t-61 41t-64.5 18.5q-21 0 -39 -11.5t-31 -29.5t-20.5 -39.5t-7.5 -40.5h-41z" />
    <glyph glyph-name="adieresis" unicode="&#xe4;" horiz-adv-x="985" 
d="M819 618h-4q-21 -30 -63 -45t-97.5 -22t-119 -9.5t-127.5 -6.5q-62 -5 -120 -17t-103 -41t-72 -81t-27 -136q0 -45 16 -89t52 -78.5t94.5 -55.5t144.5 -21q103 0 182.5 34.5t133.5 91.5t82 130.5t28 151.5v194zM111 727q4 75 30.5 139t76.5 111t123 73.5t171 26.5
q70 0 132 -14.5t109.5 -49.5t76 -93t30.5 -144v-670q0 -30 13 -44.5t32.5 -20t43 -4t44.5 3.5v-41q-30 -2 -61 -1.5t-56 10t-41 31t-16 62.5v138h-4q-15 -51 -52 -99t-91 -84.5t-124 -59t-151 -22.5q-78 0 -143 18.5t-111.5 54.5t-72 89t-25.5 123q0 65 14.5 113t40 82
t60.5 55.5t75.5 35t84.5 20t88 9.5q108 6 185.5 11t128 20.5t74 47t23.5 91.5q0 48 -8.5 99t-39.5 94t-92.5 70.5t-166.5 27.5q-165 0 -257 -80t-103 -229h-41zM313 1163v166h41v-166h-41zM633 1163v166h41v-166h-41z" />
    <glyph glyph-name="aring" unicode="&#xe5;" horiz-adv-x="985" 
d="M819 618h-4q-21 -30 -63 -45t-97.5 -22t-119 -9.5t-127.5 -6.5q-62 -5 -120 -17t-103 -41t-72 -81t-27 -136q0 -45 16 -89t52 -78.5t94.5 -55.5t144.5 -21q103 0 182.5 34.5t133.5 91.5t82 130.5t28 151.5v194zM111 727q4 75 30.5 139t76.5 111t123 73.5t171 26.5
q70 0 132 -14.5t109.5 -49.5t76 -93t30.5 -144v-670q0 -30 13 -44.5t32.5 -20t43 -4t44.5 3.5v-41q-30 -2 -61 -1.5t-56 10t-41 31t-16 62.5v138h-4q-15 -51 -52 -99t-91 -84.5t-124 -59t-151 -22.5q-78 0 -143 18.5t-111.5 54.5t-72 89t-25.5 123q0 65 14.5 113t40 82
t60.5 55.5t75.5 35t84.5 20t88 9.5q108 6 185.5 11t128 20.5t74 47t23.5 91.5q0 48 -8.5 99t-39.5 94t-92.5 70.5t-166.5 27.5q-165 0 -257 -80t-103 -229h-41zM674 1380q0 -37 -14.5 -69.5t-39 -57t-57 -39t-69.5 -14.5q-36 0 -69 14.5t-58 39t-39.5 57t-14.5 69.5
q0 36 14.5 69t39.5 58t58 39.5t69 14.5t68.5 -14.5t57.5 -39.5t39.5 -58t14.5 -69zM633 1380q0 28 -11 53.5t-30 45t-44.5 30.5t-53.5 11q-29 0 -54 -11t-44.5 -30.5t-30.5 -45t-11 -53.5t11 -53.5t30.5 -44.5t44.5 -30t54 -11q28 0 53.5 11t44.5 30t30 44.5t11 53.5z" />
    <glyph glyph-name="ae" unicode="&#xe6;" horiz-adv-x="1821" 
d="M1714 559q0 98 -25 185t-76 152t-128 102.5t-180 37.5q-97 0 -172 -33.5t-128.5 -96t-84.5 -150.5t-39 -197h833zM840 618h-4q-21 -30 -63.5 -45t-98 -22t-119 -9.5t-127.5 -6.5q-62 -5 -120 -17t-103 -41t-72 -81t-27 -136q0 -45 16 -89t52 -78.5t95 -55.5t145 -21
q103 0 182.5 34.5t133.5 91.5t82 130.5t28 151.5v194zM131 727q4 75 30.5 139t76.5 111t123 73.5t171 26.5q70 0 132.5 -15t109.5 -50t75.5 -94.5t31.5 -147.5h4q21 66 58 122t89.5 97.5t121 64.5t151.5 23q119 0 206 -46t142.5 -123t80.5 -178t21 -212h-874
q4 -104 28 -195.5t73.5 -159.5t127.5 -107.5t190 -39.5q78 0 147 22.5t123.5 66.5t90.5 109t47 151h41q-9 -87 -45 -158.5t-95 -122.5t-137.5 -79.5t-171.5 -29.5q-84 -1 -154.5 22t-125.5 67t-94 108t-60 145h-4q-15 -81 -56 -144.5t-100 -107.5t-133 -67t-155 -23
q-78 0 -143 18.5t-111.5 54.5t-72 89t-25.5 123q0 97 32 157t83 93.5t116 46.5t131 18q108 6 186 11t128.5 20.5t74 47t23.5 91.5q0 48 -8.5 99t-40 94t-93 70.5t-166.5 27.5q-165 0 -257 -80t-103 -229h-41z" />
    <glyph glyph-name="ccedilla" unicode="&#xe7;" 
d="M961 358q-9 -87 -42.5 -156.5t-88.5 -119t-127.5 -76.5t-159.5 -29l-68 -92q14 1 27 7t41 6q30 0 57.5 -6.5t49 -21t34 -38t12.5 -57.5q0 -45 -16.5 -74.5t-44 -46t-63.5 -23t-76 -6.5q-54 0 -96.5 13t-71.5 22l18 39q35 -12 72 -22.5t78 -10.5q28 0 56.5 5t51 18
t37 33.5t14.5 52.5q0 21 -11.5 36.5t-29 25.5t-37 15t-34.5 5q-65 0 -111 -27l-31 20l101 130q-105 4 -187 47.5t-138 115t-85 164.5t-29 197q0 114 29.5 218t90 183t153 125.5t219.5 46.5q74 0 141.5 -22.5t121 -66t89 -107.5t45.5 -148h-41q-12 77 -44.5 134t-80 94.5
t-107 56t-124.5 18.5q-84 0 -150 -22t-116 -60.5t-85.5 -90.5t-57.5 -111t-32 -122.5t-10 -125.5q0 -97 27.5 -185t81.5 -155.5t133.5 -107.5t183.5 -40q78 0 146 24t120 68t85 107.5t39 142.5h41z" />
    <glyph glyph-name=".notdef.049" unicode="&#xe8;" 
d="M932 559q1 97 -26 183.5t-79.5 151.5t-130.5 103.5t-180 38.5q-85 0 -160 -33t-132 -95t-92 -150t-40 -199h840zM92 518q1 -106 24.5 -197.5t73 -159t128 -106.5t190.5 -39q81 0 151 22.5t123.5 66.5t89 109t48.5 151h41q-11 -91 -48.5 -163t-96.5 -122.5t-136.5 -77.5
t-167.5 -27q-122 -2 -209.5 40t-143.5 116.5t-82 176t-26 218.5q0 132 38.5 234.5t102.5 173t147.5 107t172.5 36.5q123 0 212 -46.5t146 -124.5t82 -179t21 -209h-881zM301 1452h59l256 -295h-30z" />
    <glyph glyph-name=".notdef.048" unicode="&#xe9;" 
d="M932 559q1 97 -26 183.5t-79.5 151.5t-130.5 103.5t-180 38.5q-85 0 -160 -33t-132 -95t-92 -150t-40 -199h840zM92 518q1 -106 24.5 -197.5t73 -159t128 -106.5t190.5 -39q81 0 151 22.5t123.5 66.5t89 109t48.5 151h41q-11 -91 -48.5 -163t-96.5 -122.5t-136.5 -77.5
t-167.5 -27q-122 -2 -209.5 40t-143.5 116.5t-82 176t-26 218.5q0 132 38.5 234.5t102.5 173t147.5 107t172.5 36.5q123 0 212 -46.5t146 -124.5t82 -179t21 -209h-881zM729 1452l-299 -295h-31l271 295h59z" />
    <glyph glyph-name=".notdef.044" unicode="&#xea;" 
d="M932 559q1 97 -26 183.5t-79.5 151.5t-130.5 103.5t-180 38.5q-85 0 -160 -33t-132 -95t-92 -150t-40 -199h840zM92 518q1 -106 24.5 -197.5t73 -159t128 -106.5t190.5 -39q81 0 151 22.5t123.5 66.5t89 109t48.5 151h41q-11 -91 -48.5 -163t-96.5 -122.5t-136.5 -77.5
t-167.5 -27q-122 -2 -209.5 40t-143.5 116.5t-82 176t-26 218.5q0 132 38.5 234.5t102.5 173t147.5 107t172.5 36.5q123 0 212 -46.5t146 -124.5t82 -179t21 -209h-881zM719 1167l-211 252l-203 -252h-41l232 285h30l234 -285h-41z" />
    <glyph glyph-name="edieresis" unicode="&#xeb;" 
d="M932 559q1 97 -26 183.5t-79.5 151.5t-130.5 103.5t-180 38.5q-85 0 -160 -33t-132 -95t-92 -150t-40 -199h840zM92 518q1 -106 24.5 -197.5t73 -159t128 -106.5t190.5 -39q81 0 151 22.5t123.5 66.5t89 109t48.5 151h41q-11 -91 -48.5 -163t-96.5 -122.5t-136.5 -77.5
t-167.5 -27q-122 -2 -209.5 40t-143.5 116.5t-82 176t-26 218.5q0 132 38.5 234.5t102.5 173t147.5 107t172.5 36.5q123 0 212 -46.5t146 -124.5t82 -179t21 -209h-881zM332 1163v166h41v-166h-41zM651 1163v166h41v-166h-41z" />
    <glyph glyph-name=".notdef.038" unicode="&#xec;" horiz-adv-x="266" 
d="M113 0v1053h41v-1053h-41zM-78 1452h60l256 -295h-31z" />
    <glyph glyph-name=".notdef.037" unicode="&#xed;" horiz-adv-x="266" 
d="M113 0v1053h41v-1053h-41zM350 1452l-299 -295h-31l271 295h59z" />
    <glyph glyph-name="icircumflex" unicode="&#xee;" horiz-adv-x="266" 
d="M113 0v1053h41v-1053h-41zM340 1167l-211 252l-203 -252h-41l232 285h30l234 -285h-41z" />
    <glyph glyph-name="idieresis" unicode="&#xef;" horiz-adv-x="266" 
d="M113 0v1053h41v-1053h-41zM-47 1163v166h41v-166h-41zM272 1163v166h41v-166h-41z" />
    <glyph glyph-name="eth" unicode="&#xf0;" horiz-adv-x="1063" 
d="M510 1327q-37 29 -84 60.5t-107 62.5l33 29q59 -31 109.5 -65.5t87.5 -65.5l252 139l30 -33l-245 -137q109 -101 188.5 -198t131 -195.5t76 -201.5t24.5 -214q0 -105 -31 -201t-91 -169.5t-149 -117t-205 -43.5q-115 0 -203.5 43.5t-148.5 117t-90.5 169.5t-30.5 201
q0 103 31 199t91 169.5t148.5 117.5t204.5 44q47 0 93.5 -8.5t90 -26t81.5 -45.5t67 -67h8q-30 61 -72 121t-87 113.5t-89.5 98t-80.5 74.5l-250 -139l-31 31zM98 508q0 -96 28 -184.5t82.5 -156.5t135.5 -108.5t188 -40.5q105 0 186 40.5t136 108.5t83 156.5t28 184.5
q0 94 -28 182.5t-83 156.5t-136 109t-186 41q-107 0 -188 -41t-135.5 -109t-82.5 -156.5t-28 -182.5z" />
    <glyph glyph-name="ntilde" unicode="&#xf1;" 
d="M113 1053h41v-260h4q15 60 46.5 112t79.5 90.5t111.5 60t141.5 21.5q82 0 151 -25t118.5 -73t77 -119t27.5 -162v-698h-41v692q0 91 -27 156.5t-73 107t-106 61t-127 19.5q-95 0 -166.5 -36t-119.5 -96.5t-72.5 -140.5t-24.5 -167v-596h-41v1053zM242 1188q0 28 11.5 57
t31 52.5t44.5 38t52 14.5q35 0 69 -18.5t66.5 -41t63.5 -41t61 -18.5q24 0 42.5 9.5t31.5 25t19.5 36t6.5 41.5h41q0 -30 -9 -57.5t-26.5 -48.5t-44 -34t-61.5 -13q-39 0 -72 18.5t-63.5 41t-60.5 41t-64 18.5q-21 0 -39 -11.5t-31 -29.5t-20.5 -39.5t-7.5 -40.5h-41z" />
    <glyph glyph-name=".notdef.033" unicode="&#xf2;" horiz-adv-x="1063" 
d="M57 526q0 108 31 207.5t91 176t148.5 122t204.5 45.5q115 0 203.5 -45.5t148.5 -122t91 -176t31 -207.5t-31 -207.5t-91 -176t-149 -122t-205 -45.5q-115 0 -203.5 45.5t-148.5 122t-90.5 176t-30.5 207.5zM98 526q0 -100 28 -192t82.5 -162.5t135.5 -113t188 -42.5
q105 0 186 42.5t136 113t83 162.5t28 192q0 98 -28 190t-83 163t-136 114t-186 43q-107 0 -188 -43t-135.5 -114t-82.5 -163t-28 -190zM322 1452h59l256 -295h-31z" />
    <glyph glyph-name=".notdef.032" unicode="&#xf3;" horiz-adv-x="1063" 
d="M57 526q0 108 31 207.5t91 176t148.5 122t204.5 45.5q115 0 203.5 -45.5t148.5 -122t91 -176t31 -207.5t-31 -207.5t-91 -176t-149 -122t-205 -45.5q-115 0 -203.5 45.5t-148.5 122t-90.5 176t-30.5 207.5zM98 526q0 -100 28 -192t82.5 -162.5t135.5 -113t188 -42.5
q105 0 186 42.5t136 113t83 162.5t28 192q0 98 -28 190t-83 163t-136 114t-186 43q-107 0 -188 -43t-135.5 -114t-82.5 -163t-28 -190zM750 1452l-299 -295h-31l270 295h60z" />
    <glyph glyph-name=".notdef.028" unicode="&#xf4;" horiz-adv-x="1063" 
d="M57 526q0 108 31 207.5t91 176t148.5 122t204.5 45.5q115 0 203.5 -45.5t148.5 -122t91 -176t31 -207.5t-31 -207.5t-91 -176t-149 -122t-205 -45.5q-115 0 -203.5 45.5t-148.5 122t-90.5 176t-30.5 207.5zM98 526q0 -100 28 -192t82.5 -162.5t135.5 -113t188 -42.5
q105 0 186 42.5t136 113t83 162.5t28 192q0 98 -28 190t-83 163t-136 114t-186 43q-107 0 -188 -43t-135.5 -114t-82.5 -163t-28 -190zM739 1167l-211 252l-202 -252h-41l231 285h31l233 -285h-41z" />
    <glyph glyph-name=".notdef.030" unicode="&#xf5;" horiz-adv-x="1063" 
d="M57 526q0 108 31 207.5t91 176t148.5 122t204.5 45.5q115 0 203.5 -45.5t148.5 -122t91 -176t31 -207.5t-31 -207.5t-91 -176t-149 -122t-205 -45.5q-115 0 -203.5 45.5t-148.5 122t-90.5 176t-30.5 207.5zM98 526q0 -100 28 -192t82.5 -162.5t135.5 -113t188 -42.5
q105 0 186 42.5t136 113t83 162.5t28 192q0 98 -28 190t-83 163t-136 114t-186 43q-107 0 -188 -43t-135.5 -114t-82.5 -163t-28 -190zM262 1188q0 28 11.5 57t31 52.5t44.5 38t52 14.5q36 0 70 -18.5t66.5 -41t63.5 -41t61 -18.5q24 0 42.5 9.5t31 25t19.5 36t7 41.5h41
q0 -30 -9 -57.5t-26.5 -48.5t-44 -34t-61.5 -13q-39 0 -72 18.5t-63.5 41t-61 41t-64.5 18.5q-21 0 -39 -11.5t-31 -29.5t-20.5 -39.5t-7.5 -40.5h-41z" />
    <glyph glyph-name="odieresis" unicode="&#xf6;" horiz-adv-x="1063" 
d="M57 526q0 108 31 207.5t91 176t148.5 122t204.5 45.5q115 0 203.5 -45.5t148.5 -122t91 -176t31 -207.5t-31 -207.5t-91 -176t-149 -122t-205 -45.5q-115 0 -203.5 45.5t-148.5 122t-90.5 176t-30.5 207.5zM98 526q0 -100 28 -192t82.5 -162.5t135.5 -113t188 -42.5
q105 0 186 42.5t136 113t83 162.5t28 192q0 98 -28 190t-83 163t-136 114t-186 43q-107 0 -188 -43t-135.5 -114t-82.5 -163t-28 -190zM352 1163v166h41v-166h-41zM672 1163v166h41v-166h-41z" />
    <glyph glyph-name="divide" unicode="&#xf7;" horiz-adv-x="1229" 
d="M98 498v41h1032v-41h-1032zM614 868q-45 0 -64.5 24.5t-19.5 59.5q0 37 24.5 60.5t59.5 23.5q36 0 60 -24.5t24 -59.5t-18.5 -59.5t-65.5 -24.5zM614 0q-45 0 -64.5 24.5t-19.5 59.5q0 37 24.5 60.5t59.5 23.5q36 0 60 -24.5t24 -59.5t-18.5 -59.5t-65.5 -24.5z" />
    <glyph glyph-name="oslash" unicode="&#xf8;" horiz-adv-x="1063" 
d="M844 889q-53 68 -130.5 107.5t-181.5 39.5q-107 0 -188 -43t-135.5 -114t-82.5 -163t-28 -190q0 -89 22.5 -172t67.5 -151zM213 170q53 -71 133 -112.5t186 -41.5q105 0 186 42.5t136 113t83 162.5t28 192q0 91 -24.5 176t-72.5 154zM967 1016l28 -29l-96 -100
q53 -72 80 -165t27 -196q0 -108 -31 -207.5t-91 -176t-149 -122t-205 -45.5q-114 0 -201 44t-147 118l-116 -121l-29 29l123 127q-51 72 -77 163.5t-26 190.5q0 108 31 207.5t91 176t148.5 122t204.5 45.5q112 0 197 -41.5t145 -115.5z" />
    <glyph glyph-name=".notdef.022" unicode="&#xf9;" 
d="M911 0h-41v260h-4q-15 -61 -47 -113t-80 -90.5t-111 -60t-141 -21.5q-82 0 -151 25t-118.5 73.5t-77 119t-27.5 161.5v699h41v-693q0 -91 27 -156t72.5 -107t106 -61.5t127.5 -19.5q94 0 166 36t120 96.5t72.5 140.5t24.5 168v596h41v-1053zM301 1452h59l256 -295h-30z
" />
    <glyph glyph-name=".notdef.021" unicode="&#xfa;" 
d="M911 0h-41v260h-4q-15 -61 -47 -113t-80 -90.5t-111 -60t-141 -21.5q-82 0 -151 25t-118.5 73.5t-77 119t-27.5 161.5v699h41v-693q0 -91 27 -156t72.5 -107t106 -61.5t127.5 -19.5q94 0 166 36t120 96.5t72.5 140.5t24.5 168v596h41v-1053zM729 1452l-299 -295h-31
l271 295h59z" />
    <glyph glyph-name="ucircumflex" unicode="&#xfb;" 
d="M911 0h-41v260h-4q-15 -61 -47 -113t-80 -90.5t-111 -60t-141 -21.5q-82 0 -151 25t-118.5 73.5t-77 119t-27.5 161.5v699h41v-693q0 -91 27 -156t72.5 -107t106 -61.5t127.5 -19.5q94 0 166 36t120 96.5t72.5 140.5t24.5 168v596h41v-1053zM719 1167l-211 252l-203 -252
h-41l232 285h30l234 -285h-41z" />
    <glyph glyph-name="udieresis" unicode="&#xfc;" 
d="M911 0h-41v260h-4q-15 -61 -47 -113t-80 -90.5t-111 -60t-141 -21.5q-82 0 -151 25t-118.5 73.5t-77 119t-27.5 161.5v699h41v-693q0 -91 27 -156t72.5 -107t106 -61.5t127.5 -19.5q94 0 166 36t120 96.5t72.5 140.5t24.5 168v596h41v-1053zM332 1163v166h41v-166h-41z
M651 1163v166h41v-166h-41z" />
    <glyph glyph-name=".notdef.004" unicode="&#xfd;" horiz-adv-x="834" 
d="M815 1053h43l-485 -1268q-21 -54 -49.5 -83.5t-63.5 -43.5t-76.5 -17t-89.5 -3v40q52 -1 90 2.5t66.5 17t50 41t39.5 75.5l76 196l-441 1043h45l418 -998zM635 1497l-299 -295h-31l270 295h60z" />
    <glyph glyph-name="thorn" unicode="&#xfe;" horiz-adv-x="1100" 
d="M987 528q0 102 -23 194t-72.5 161.5t-126.5 111t-185 41.5t-188 -41t-133 -110.5t-79 -162t-26 -194.5q0 -122 31.5 -217t88.5 -160.5t135 -100t171 -34.5q78 0 138.5 21t105.5 57.5t76 86t50.5 106.5t28 118.5t8.5 122.5zM154 -362h-41v1824h41v-704h4q20 69 55.5 127.5
t88 101t122 66.5t156.5 24q110 0 194 -41t140.5 -114t85 -174t28.5 -220q0 -111 -26 -211t-80.5 -176t-139.5 -121t-202 -45q-81 0 -150 23t-123.5 65t-92.5 101t-56 131h-4v-657z" />
    <glyph glyph-name="ydieresis" unicode="&#xff;" horiz-adv-x="834" 
d="M815 1053h43l-485 -1268q-21 -54 -49.5 -83.5t-63.5 -43.5t-76.5 -17t-89.5 -3v40q52 -1 90 2.5t66.5 17t50 41t39.5 75.5l76 196l-441 1043h45l418 -998zM238 1208v166h41v-166h-41zM557 1208v166h41v-166h-41z" />
    <glyph glyph-name=".notdef.117" unicode="&#x102;" horiz-adv-x="1178" 
d="M930 522l-348 899h-4l-361 -899h713zM201 481l-194 -481h-48l594 1462h54l577 -1462h-45l-192 481h-746zM403 1766q10 -69 58 -111.5t119 -42.5q37 0 69.5 9.5t57 28.5t40 48t19.5 68h36q-11 -91 -71.5 -140t-150.5 -49q-43 0 -79.5 14t-64.5 39t-45.5 59.5t-22.5 76.5
h35z" />
    <glyph glyph-name=".notdef.055" unicode="&#x103;" horiz-adv-x="985" 
d="M819 618h-4q-21 -30 -63 -45t-97.5 -22t-119 -9.5t-127.5 -6.5q-62 -5 -120 -17t-103 -41t-72 -81t-27 -136q0 -45 16 -89t52 -78.5t94.5 -55.5t144.5 -21q103 0 182.5 34.5t133.5 91.5t82 130.5t28 151.5v194zM111 727q4 75 30.5 139t76.5 111t123 73.5t171 26.5
q70 0 132 -14.5t109.5 -49.5t76 -93t30.5 -144v-670q0 -30 13 -44.5t32.5 -20t43 -4t44.5 3.5v-41q-30 -2 -61 -1.5t-56 10t-41 31t-16 62.5v138h-4q-15 -51 -52 -99t-91 -84.5t-124 -59t-151 -22.5q-78 0 -143 18.5t-111.5 54.5t-72 89t-25.5 123q0 65 14.5 113t40 82
t60.5 55.5t75.5 35t84.5 20t88 9.5q108 6 185.5 11t128 20.5t74 47t23.5 91.5q0 48 -8.5 99t-39.5 94t-92.5 70.5t-166.5 27.5q-165 0 -257 -80t-103 -229h-41zM307 1358q10 -69 58 -111.5t119 -42.5q37 0 69.5 9.5t57 28.5t40 48t19.5 68h36q-11 -91 -71.5 -140t-150.5 -49
q-43 0 -79.5 14t-64.5 39t-45.5 59.5t-22.5 76.5h35z" />
    <glyph glyph-name="Dslash" unicode="&#x110;" horiz-adv-x="1327" 
d="M-20 741v41h131v680h512q72 0 146.5 -14t143.5 -47.5t129.5 -88t105.5 -136t71 -191.5t26 -254q0 -131 -26.5 -236t-73.5 -186.5t-111 -139.5t-140.5 -95.5t-161.5 -55.5t-173 -18h-448v741h-131zM152 741v-700h417q130 0 245.5 41.5t202 127t137 215t50.5 306.5
q0 137 -23.5 241t-65 181t-98 128.5t-122 82.5t-138 44t-145.5 13h-460v-639h608v-41h-608z" />
    <glyph glyph-name="dcroat" unicode="&#x111;" horiz-adv-x="1100" 
d="M932 524q0 122 -30.5 217.5t-86.5 161t-134.5 99.5t-174.5 34q-72 0 -130.5 -21t-104 -57.5t-78 -86t-54 -106.5t-31.5 -118.5t-10 -122.5q0 -101 25.5 -193t76.5 -162t127.5 -111.5t178.5 -41.5q101 0 180.5 41t134 111t83 162t28.5 194zM932 1462h41v-1462h-41v295h-4
q-20 -69 -58.5 -127.5t-92.5 -101.5t-122 -67t-149 -24q-105 0 -188 41t-141 114.5t-89 174t-31 219.5q0 111 29 211t86 176t141 121t193 45q84 0 153.5 -23t123 -65t90.5 -101t55 -130h4v704zM608 1297h496v-41h-496v41z" />
    <glyph glyph-name=".notdef.101" unicode="&#x128;" horiz-adv-x="262" 
d="M111 1462h41v-1462h-41v1462zM-142 1597q0 28 11.5 57t31 52.5t45 38t52.5 14.5q35 0 69 -18.5t66.5 -41t63.5 -41t61 -18.5q24 0 42.5 9.5t31 25.5t19.5 36.5t7 41.5h41q0 -30 -9 -58t-26.5 -49t-44 -34t-61.5 -13q-39 0 -72 18.5t-63.5 41t-60.5 41t-64 18.5
q-22 0 -40 -11.5t-31 -29.5t-20.5 -39.5t-7.5 -40.5h-41z" />
    <glyph glyph-name=".notdef.035" unicode="&#x129;" horiz-adv-x="266" 
d="M154 0h-41v1053h41v-1053zM-137 1188q0 28 11.5 57t31 52.5t44.5 38t52 14.5q36 0 70 -18.5t66.5 -41t63.5 -41t61 -18.5q24 0 42.5 9.5t31 25t19.5 36t7 41.5h41q0 -30 -9 -57.5t-26.5 -48.5t-44 -34t-61.5 -13q-39 0 -72 18.5t-63.5 41t-61 41t-64.5 18.5
q-21 0 -39 -11.5t-31 -29.5t-20.5 -39.5t-7.5 -40.5h-41z" />
    <glyph glyph-name=".notdef.102" unicode="&#x1ec8;" horiz-adv-x="262" 
d="M111 1462h41v-1462h-41v1462zM-11 1747q-3 72 32.5 109.5t103.5 37.5q26 0 49 -7.5t40.5 -21.5t27.5 -34.5t10 -47.5q0 -22 -6 -39.5t-15 -31t-19 -23t-19 -16.5l-3 -3q-15 -14 -23 -23t-12.5 -18.5t-5.5 -23t-1 -37.5h-36q0 24 1.5 40.5t6.5 29t15 24.5t27 29q1 2 2.5 3
t3.5 3q6 5 14 12.5t15.5 18t13 24.5t5.5 31q0 36 -26 55.5t-65 19.5q-105 0 -102 -111h-34z" />
    <glyph glyph-name=".notdef.036" unicode="&#x1ec9;" horiz-adv-x="266" 
d="M154 0h-41v1053h41v-1053zM-8 1336q-3 72 32.5 109.5t103.5 37.5q26 0 49 -7.5t40.5 -21.5t27.5 -34.5t10 -47.5q0 -22 -6 -39.5t-15 -31t-19 -23t-19 -16.5l-3 -3q-15 -14 -23 -23t-12.5 -18.5t-5.5 -23t-1 -37.5h-36q0 24 1.5 40.5t6.5 29t15 24.5t27 29q1 2 2.5 3
t3.5 3q6 5 14 12.5t15.5 18t13 24.5t5.5 31q0 36 -26 55.5t-65 19.5q-105 0 -102 -111h-34z" />
    <glyph glyph-name=".notdef.100" unicode="&#x1eca;" horiz-adv-x="262" 
d="M111 1462h41v-1462h-41v1462zM155 -337h-41v201h41v-201z" />
    <glyph glyph-name=".notdef.034" unicode="&#x1ecb;" horiz-adv-x="266" 
d="M154 0h-41v1053h41v-1053zM154 1255h-41v207h41v-207zM158 -337h-41v201h41v-201z" />
    <glyph glyph-name=".notdef.095" unicode="&#x1ecc;" horiz-adv-x="1477" 
d="M106 731q2 -158 46 -291t125 -229.5t198 -150.5t264 -54q148 0 264.5 54t198 150.5t125 229.5t45.5 291q-2 158 -45.5 291t-125 229.5t-198 150.5t-264.5 54q-147 0 -264 -54t-198 -150.5t-125 -229.5t-46 -291zM66 731q0 156 43.5 295t128.5 244t211 166t290 61
q165 0 290.5 -61t211 -166t129 -244t43.5 -295t-43.5 -295t-129 -244t-211 -166t-290.5 -61q-164 0 -290 61t-211 166t-128.5 244t-43.5 295zM761 -337h-41v201h41v-201z" />
    <glyph glyph-name=".notdef.029" unicode="&#x1ecd;" horiz-adv-x="1063" 
d="M57 526q0 108 31 207.5t91 176t148.5 122t204.5 45.5q115 0 203.5 -45.5t148.5 -122t91 -176t31 -207.5t-31 -207.5t-91 -176t-149 -122t-205 -45.5q-115 0 -203.5 45.5t-148.5 122t-90.5 176t-30.5 207.5zM98 526q0 -100 28 -192t82.5 -162.5t135.5 -113t188 -42.5
q105 0 186 42.5t136 113t83 162.5t28 192q0 98 -28 190t-83 163t-136 114t-186 43q-107 0 -188 -43t-135.5 -114t-82.5 -163t-28 -190zM553 -337h-41v201h41v-201z" />
    <glyph glyph-name=".notdef.097" unicode="&#x1ece;" horiz-adv-x="1477" 
d="M106 731q2 -158 46 -291t125 -229.5t198 -150.5t264 -54q148 0 264.5 54t198 150.5t125 229.5t45.5 291q-2 158 -45.5 291t-125 229.5t-198 150.5t-264.5 54q-147 0 -264 -54t-198 -150.5t-125 -229.5t-46 -291zM66 731q0 156 43.5 295t128.5 244t211 166t290 61
q165 0 290.5 -61t211 -166t129 -244t43.5 -295t-43.5 -295t-129 -244t-211 -166t-290.5 -61q-164 0 -290 61t-211 166t-128.5 244t-43.5 295zM600 1747q-3 72 32.5 109.5t103.5 37.5q26 0 49 -7.5t40.5 -21.5t27.5 -34.5t10 -47.5q0 -22 -6 -39.5t-15 -31t-19 -23t-19 -16.5
l-3 -3q-15 -14 -23 -23t-12.5 -18.5t-5.5 -23t-1 -37.5h-36q0 24 1.5 40.5t6.5 29t15 24.5t27 29q1 2 2.5 3t3.5 3q6 5 14 12.5t15.5 18t13 24.5t5.5 31q0 36 -26 55.5t-65 19.5q-105 0 -102 -111h-34z" />
    <glyph glyph-name=".notdef.031" unicode="&#x1ecf;" horiz-adv-x="1063" 
d="M57 526q0 108 31 207.5t91 176t148.5 122t204.5 45.5q115 0 203.5 -45.5t148.5 -122t91 -176t31 -207.5t-31 -207.5t-91 -176t-149 -122t-205 -45.5q-115 0 -203.5 45.5t-148.5 122t-90.5 176t-30.5 207.5zM98 526q0 -100 28 -192t82.5 -162.5t135.5 -113t188 -42.5
q105 0 186 42.5t136 113t83 162.5t28 192q0 98 -28 190t-83 163t-136 114t-186 43q-107 0 -188 -43t-135.5 -114t-82.5 -163t-28 -190zM391 1336q-3 72 32.5 109.5t103.5 37.5q26 0 49 -7.5t40.5 -21.5t27.5 -34.5t10 -47.5q0 -22 -6 -39.5t-15 -31t-19 -23t-19 -16.5l-3 -3
q-15 -14 -23 -23t-12.5 -18.5t-5.5 -23t-1 -37.5h-36q0 24 1.5 40.5t6.5 29t15 24.5t27 29q1 2 2.5 3t3.5 3q6 5 14 12.5t15.5 18t13 24.5t5.5 31q0 36 -26 55.5t-65 19.5q-105 0 -102 -111h-34z" />
    <glyph glyph-name=".notdef.092" unicode="&#x1ed0;" horiz-adv-x="1477" 
d="M106 731q2 -158 46 -291t125 -229.5t198 -150.5t264 -54q148 0 264.5 54t198 150.5t125 229.5t45.5 291q-2 158 -45.5 291t-125 229.5t-198 150.5t-264.5 54q-147 0 -264 -54t-198 -150.5t-125 -229.5t-46 -291zM66 731q0 156 43.5 295t128.5 244t211 166t290 61
q165 0 290.5 -61t211 -166t129 -244t43.5 -295t-43.5 -295t-129 -244t-211 -166t-290.5 -61q-164 0 -290 61t-211 166t-128.5 244t-43.5 295zM946 1577l-211 252l-203 -252h-40l231 285h31l233 -285h-41zM1243 2069l-299 -295h-31l271 295h59z" />
    <glyph glyph-name=".notdef.026" unicode="&#x1ed1;" horiz-adv-x="1063" 
d="M57 526q0 108 31 207.5t91 176t148.5 122t204.5 45.5q115 0 203.5 -45.5t148.5 -122t91 -176t31 -207.5t-31 -207.5t-91 -176t-149 -122t-205 -45.5q-115 0 -203.5 45.5t-148.5 122t-90.5 176t-30.5 207.5zM98 526q0 -100 28 -192t82.5 -162.5t135.5 -113t188 -42.5
q105 0 186 42.5t136 113t83 162.5t28 192q0 98 -28 190t-83 163t-136 114t-186 43q-107 0 -188 -43t-135.5 -114t-82.5 -163t-28 -190zM739 1167l-211 252l-202 -252h-41l231 285h31l233 -285h-41zM1037 1660l-299 -295h-31l271 295h59z" />
    <glyph glyph-name=".notdef.093" unicode="&#x1ed2;" horiz-adv-x="1477" 
d="M106 731q2 -158 46 -291t125 -229.5t198 -150.5t264 -54q148 0 264.5 54t198 150.5t125 229.5t45.5 291q-2 158 -45.5 291t-125 229.5t-198 150.5t-264.5 54q-147 0 -264 -54t-198 -150.5t-125 -229.5t-46 -291zM66 731q0 156 43.5 295t128.5 244t211 166t290 61
q165 0 290.5 -61t211 -166t129 -244t43.5 -295t-43.5 -295t-129 -244t-211 -166t-290.5 -61q-164 0 -290 61t-211 166t-128.5 244t-43.5 295zM946 1577l-211 252l-203 -252h-40l231 285h31l233 -285h-41zM752 2069h59l256 -295h-30z" />
    <glyph glyph-name=".notdef.027" unicode="&#x1ed3;" horiz-adv-x="1063" 
d="M57 526q0 108 31 207.5t91 176t148.5 122t204.5 45.5q115 0 203.5 -45.5t148.5 -122t91 -176t31 -207.5t-31 -207.5t-91 -176t-149 -122t-205 -45.5q-115 0 -203.5 45.5t-148.5 122t-90.5 176t-30.5 207.5zM98 526q0 -100 28 -192t82.5 -162.5t135.5 -113t188 -42.5
q105 0 186 42.5t136 113t83 162.5t28 192q0 98 -28 190t-83 163t-136 114t-186 43q-107 0 -188 -43t-135.5 -114t-82.5 -163t-28 -190zM739 1167l-211 252l-202 -252h-41l231 285h31l233 -285h-41zM545 1659h59l256 -295h-30z" />
    <glyph glyph-name=".notdef.091" unicode="&#x1ed4;" horiz-adv-x="1477" 
d="M106 731q2 -158 46 -291t125 -229.5t198 -150.5t264 -54q148 0 264.5 54t198 150.5t125 229.5t45.5 291q-2 158 -45.5 291t-125 229.5t-198 150.5t-264.5 54q-147 0 -264 -54t-198 -150.5t-125 -229.5t-46 -291zM66 731q0 156 43.5 295t128.5 244t211 166t290 61
q165 0 290.5 -61t211 -166t129 -244t43.5 -295t-43.5 -295t-129 -244t-211 -166t-290.5 -61q-164 0 -290 61t-211 166t-128.5 244t-43.5 295zM946 1577l-211 252l-203 -252h-40l231 285h31l233 -285h-41zM868 1925q-3 72 32.5 109.5t103.5 37.5q26 0 49 -7.5t40.5 -21.5
t27.5 -34.5t10 -47.5q0 -22 -6 -39.5t-15 -31t-19 -23t-19 -16.5l-3 -3q-15 -14 -23 -23t-12.5 -18.5t-5.5 -23t-1 -37.5h-36q0 24 1.5 40.5t6.5 29t15 24.5t27 29q1 2 2.5 3t3.5 3q6 5 14 12.5t15.5 18t13 24.5t5.5 31q0 36 -26 55.5t-65 19.5q-105 0 -102 -111h-34z" />
    <glyph glyph-name=".notdef.025" unicode="&#x1ed5;" horiz-adv-x="1063" 
d="M57 526q0 108 31 207.5t91 176t148.5 122t204.5 45.5q115 0 203.5 -45.5t148.5 -122t91 -176t31 -207.5t-31 -207.5t-91 -176t-149 -122t-205 -45.5q-115 0 -203.5 45.5t-148.5 122t-90.5 176t-30.5 207.5zM98 526q0 -100 28 -192t82.5 -162.5t135.5 -113t188 -42.5
q105 0 186 42.5t136 113t83 162.5t28 192q0 98 -28 190t-83 163t-136 114t-186 43q-107 0 -188 -43t-135.5 -114t-82.5 -163t-28 -190zM739 1167l-211 252l-202 -252h-41l231 285h31l233 -285h-41zM662 1516q-3 72 32.5 109.5t103.5 37.5q26 0 49 -7.5t40.5 -21.5
t27.5 -34.5t10 -47.5q0 -22 -6 -39.5t-15 -31t-19 -23t-19 -16.5l-3 -3q-15 -14 -23 -23t-12.5 -18.5t-5.5 -23t-1 -37.5h-36q0 24 1.5 40.5t6.5 29t15 24.5t27 29q1 2 2.5 3t3.5 3q6 5 14 12.5t15.5 18t13 24.5t5.5 31q0 36 -26 55.5t-65 19.5q-105 0 -102 -111h-34z" />
    <glyph glyph-name=".notdef.090" unicode="&#x1ed6;" horiz-adv-x="1477" 
d="M106 731q2 -158 46 -291t125 -229.5t198 -150.5t264 -54q148 0 264.5 54t198 150.5t125 229.5t45.5 291q-2 158 -45.5 291t-125 229.5t-198 150.5t-264.5 54q-147 0 -264 -54t-198 -150.5t-125 -229.5t-46 -291zM66 731q0 156 43.5 295t128.5 244t211 166t290 61
q165 0 290.5 -61t211 -166t129 -244t43.5 -295t-43.5 -295t-129 -244t-211 -166t-290.5 -61q-164 0 -290 61t-211 166t-128.5 244t-43.5 295zM946 1577l-211 252l-203 -252h-40l231 285h31l233 -285h-41zM468 1914q0 28 11.5 57t31 52.5t45 38t52.5 14.5q35 0 69 -18.5
t66.5 -41t63.5 -41t61 -18.5q24 0 42.5 9.5t31 25.5t19.5 36.5t7 41.5h41q0 -30 -9 -58t-26.5 -49t-44 -34t-61.5 -13q-39 0 -72 18.5t-63.5 41t-60.5 41t-64 18.5q-22 0 -40 -11.5t-31 -29.5t-20.5 -39.5t-7.5 -40.5h-41z" />
    <glyph glyph-name=".notdef.024" unicode="&#x1ed7;" horiz-adv-x="1063" 
d="M57 526q0 108 31 207.5t91 176t148.5 122t204.5 45.5q115 0 203.5 -45.5t148.5 -122t91 -176t31 -207.5t-31 -207.5t-91 -176t-149 -122t-205 -45.5q-115 0 -203.5 45.5t-148.5 122t-90.5 176t-30.5 207.5zM98 526q0 -100 28 -192t82.5 -162.5t135.5 -113t188 -42.5
q105 0 186 42.5t136 113t83 162.5t28 192q0 98 -28 190t-83 163t-136 114t-186 43q-107 0 -188 -43t-135.5 -114t-82.5 -163t-28 -190zM739 1167l-211 252l-202 -252h-41l231 285h31l233 -285h-41zM261 1504q0 28 11.5 57t31 52.5t45 38t52.5 14.5q35 0 69 -18.5t66.5 -41
t63.5 -41t61 -18.5q24 0 42.5 9.5t31 25.5t19.5 36.5t7 41.5h41q0 -30 -9 -58t-26.5 -49t-44 -34t-61.5 -13q-39 0 -72 18.5t-63.5 41t-60.5 41t-64 18.5q-22 0 -40 -11.5t-31 -29.5t-20.5 -39.5t-7.5 -40.5h-41z" />
    <glyph glyph-name=".notdef.089" unicode="&#x1ed8;" horiz-adv-x="1477" 
d="M106 731q2 -158 46 -291t125 -229.5t198 -150.5t264 -54q148 0 264.5 54t198 150.5t125 229.5t45.5 291q-2 158 -45.5 291t-125 229.5t-198 150.5t-264.5 54q-147 0 -264 -54t-198 -150.5t-125 -229.5t-46 -291zM66 731q0 156 43.5 295t128.5 244t211 166t290 61
q165 0 290.5 -61t211 -166t129 -244t43.5 -295t-43.5 -295t-129 -244t-211 -166t-290.5 -61q-164 0 -290 61t-211 166t-128.5 244t-43.5 295zM946 1577l-211 252l-203 -252h-40l231 285h31l233 -285h-41zM761 -337h-41v201h41v-201z" />
    <glyph glyph-name=".notdef.023" unicode="&#x1ed9;" horiz-adv-x="1063" 
d="M57 526q0 108 31 207.5t91 176t148.5 122t204.5 45.5q115 0 203.5 -45.5t148.5 -122t91 -176t31 -207.5t-31 -207.5t-91 -176t-149 -122t-205 -45.5q-115 0 -203.5 45.5t-148.5 122t-90.5 176t-30.5 207.5zM98 526q0 -100 28 -192t82.5 -162.5t135.5 -113t188 -42.5
q105 0 186 42.5t136 113t83 162.5t28 192q0 98 -28 190t-83 163t-136 114t-186 43q-107 0 -188 -43t-135.5 -114t-82.5 -163t-28 -190zM739 1167l-211 252l-202 -252h-41l231 285h31l233 -285h-41zM553 -337h-41v201h41v-201z" />
    <glyph glyph-name=".notdef.083" unicode="&#x1af;" horiz-adv-x="1436" 
d="M1143 1462h41v-917q0 -290 -139.5 -435t-397.5 -145t-397 145t-139 435v917h41v-917q0 -261 122 -400t373 -139q250 0 373 139t123 400v917zM1316 1462v-179q0 -55 -6.5 -91.5t-22 -61t-41 -40t-63.5 -27.5v41q31 10 49.5 24.5t28 36t12 50.5t2.5 68v179h41z" />
    <glyph glyph-name=".notdef.017" unicode="&#x1b0;" horiz-adv-x="1107" 
d="M911 0h-41v260h-4q-15 -61 -47 -113t-80 -90.5t-111 -60t-141 -21.5q-82 0 -151 25t-118.5 73.5t-77 119t-27.5 161.5v699h41v-693q0 -91 27 -156t72.5 -107t106 -61.5t127.5 -19.5q94 0 166 36t120 96.5t72.5 140.5t24.5 168v596h41v-1053zM1040 1053v-179
q0 -55 -6.5 -91.5t-22 -61t-41 -40t-63.5 -27.5v41q31 10 49.5 24.5t28 36t12 50.5t2.5 68v179h41z" />
    <glyph glyph-name=".notdef.085" unicode="&#x168;" horiz-adv-x="1294" 
d="M1143 1462h41v-917q0 -290 -139.5 -435t-397.5 -145t-397 145t-139 435v917h41v-917q0 -261 122 -400t373 -139q250 0 373 139t123 400v917zM380 1597q0 28 11.5 57t31 52.5t45 38t52.5 14.5q35 0 69 -18.5t66.5 -41t63.5 -41t61 -18.5q24 0 42.5 9.5t31 25.5t19.5 36.5
t7 41.5h41q0 -30 -9 -58t-26.5 -49t-44 -34t-61.5 -13q-39 0 -72 18.5t-63.5 41t-60.5 41t-64 18.5q-22 0 -40 -11.5t-31 -29.5t-20.5 -39.5t-7.5 -40.5h-41z" />
    <glyph glyph-name=".notdef.019" unicode="&#x169;" 
d="M911 0h-41v260h-4q-15 -61 -47 -113t-80 -90.5t-111 -60t-141 -21.5q-82 0 -151 25t-118.5 73.5t-77 119t-27.5 161.5v699h41v-693q0 -91 27 -156t72.5 -107t106 -61.5t127.5 -19.5q94 0 166 36t120 96.5t72.5 140.5t24.5 168v596h41v-1053zM237 1188q0 28 11.5 57
t31 52.5t44.5 38t52 14.5q36 0 70 -18.5t66.5 -41t63.5 -41t61 -18.5q24 0 42.5 9.5t31 25t19.5 36t7 41.5h41q0 -30 -9 -57.5t-26.5 -48.5t-44 -34t-61.5 -13q-39 0 -72 18.5t-63.5 41t-61 41t-64.5 18.5q-21 0 -39 -11.5t-31 -29.5t-20.5 -39.5t-7.5 -40.5h-41z" />
    <glyph glyph-name=".notdef.084" unicode="&#x1ee4;" horiz-adv-x="1294" 
d="M1143 1462h41v-917q0 -290 -139.5 -435t-397.5 -145t-397 145t-139 435v917h41v-917q0 -261 122 -400t373 -139q250 0 373 139t123 400v917zM669 -337h-41v201h41v-201z" />
    <glyph glyph-name=".notdef.018" unicode="&#x1ee5;" 
d="M911 0h-41v260h-4q-15 -61 -47 -113t-80 -90.5t-111 -60t-141 -21.5q-82 0 -151 25t-118.5 73.5t-77 119t-27.5 161.5v699h41v-693q0 -91 27 -156t72.5 -107t106 -61.5t127.5 -19.5q94 0 166 36t120 96.5t72.5 140.5t24.5 168v596h41v-1053zM507 -337h-41v201h41v-201z
" />
    <glyph glyph-name=".notdef.086" unicode="&#x1ee6;" horiz-adv-x="1294" 
d="M1143 1462h41v-917q0 -290 -139.5 -435t-397.5 -145t-397 145t-139 435v917h41v-917q0 -261 122 -400t373 -139q250 0 373 139t123 400v917zM524 1747q-3 72 32.5 109.5t103.5 37.5q26 0 49 -7.5t40.5 -21.5t27.5 -34.5t10 -47.5q0 -22 -6 -39.5t-15 -31t-19 -23
t-19 -16.5l-3 -3q-15 -14 -23 -23t-12.5 -18.5t-5.5 -23t-1 -37.5h-36q0 24 1.5 40.5t6.5 29t15 24.5t27 29q1 2 2.5 3t3.5 3q6 5 14 12.5t15.5 18t13 24.5t5.5 31q0 36 -26 55.5t-65 19.5q-105 0 -102 -111h-34z" />
    <glyph glyph-name=".notdef.020" unicode="&#x1ee7;" 
d="M911 0h-41v260h-4q-15 -61 -47 -113t-80 -90.5t-111 -60t-141 -21.5q-82 0 -151 25t-118.5 73.5t-77 119t-27.5 161.5v699h41v-693q0 -91 27 -156t72.5 -107t106 -61.5t127.5 -19.5q94 0 166 36t120 96.5t72.5 140.5t24.5 168v596h41v-1053zM379 1336q-3 72 32.5 109.5
t103.5 37.5q26 0 49 -7.5t40.5 -21.5t27.5 -34.5t10 -47.5q0 -22 -6 -39.5t-15 -31t-19 -23t-19 -16.5l-3 -3q-15 -14 -23 -23t-12.5 -18.5t-5.5 -23t-1 -37.5h-36q0 24 1.5 40.5t6.5 29t15 24.5t27 29q1 2 2.5 3t3.5 3q6 5 14 12.5t15.5 18t13 24.5t5.5 31q0 36 -26 55.5
t-65 19.5q-105 0 -102 -111h-34z" />
    <glyph glyph-name=".notdef.127" unicode="&#x1eb8;" horiz-adv-x="1100" 
d="M152 41h938v-41h-979v1462h970v-41h-929v-639h874v-41h-874v-700zM607 -337h-41v201h41v-201z" />
    <glyph glyph-name=".notdef.045" unicode="&#x1eb9;" 
d="M932 559q1 97 -26 183.5t-79.5 151.5t-130.5 103.5t-180 38.5q-85 0 -160 -33t-132 -95t-92 -150t-40 -199h840zM92 518q1 -106 24.5 -197.5t73 -159t128 -106.5t190.5 -39q81 0 151 22.5t123.5 66.5t89 109t48.5 151h41q-11 -91 -48.5 -163t-96.5 -122.5t-136.5 -77.5
t-167.5 -27q-122 -2 -209.5 40t-143.5 116.5t-82 176t-26 218.5q0 132 38.5 234.5t102.5 173t147.5 107t172.5 36.5q123 0 212 -46.5t146 -124.5t82 -179t21 -209h-881zM526 -337h-41v201h41v-201z" />
    <glyph glyph-name=".notdef.125" unicode="&#x1eba;" horiz-adv-x="1100" 
d="M152 41h938v-41h-979v1462h970v-41h-929v-639h874v-41h-874v-700zM460 1747q-3 72 32.5 109.5t103.5 37.5q26 0 49 -7.5t40.5 -21.5t27.5 -34.5t10 -47.5q0 -22 -6 -39.5t-15 -31t-19 -23t-19 -16.5l-3 -3q-15 -14 -23 -23t-12.5 -18.5t-5.5 -23t-1 -37.5h-36
q0 24 1.5 40.5t6.5 29t15 24.5t27 29q1 2 2.5 3t3.5 3q6 5 14 12.5t15.5 18t13 24.5t5.5 31q0 36 -26 55.5t-65 19.5q-105 0 -102 -111h-34z" />
    <glyph glyph-name=".notdef.047" unicode="&#x1ebb;" 
d="M932 559q1 97 -26 183.5t-79.5 151.5t-130.5 103.5t-180 38.5q-85 0 -160 -33t-132 -95t-92 -150t-40 -199h840zM92 518q1 -106 24.5 -197.5t73 -159t128 -106.5t190.5 -39q81 0 151 22.5t123.5 66.5t89 109t48.5 151h41q-11 -91 -48.5 -163t-96.5 -122.5t-136.5 -77.5
t-167.5 -27q-122 -2 -209.5 40t-143.5 116.5t-82 176t-26 218.5q0 132 38.5 234.5t102.5 173t147.5 107t172.5 36.5q123 0 212 -46.5t146 -124.5t82 -179t21 -209h-881zM372 1336q-3 72 32.5 109.5t103.5 37.5q26 0 49 -7.5t40.5 -21.5t27.5 -34.5t10 -47.5q0 -22 -6 -39.5
t-15 -31t-19 -23t-19 -16.5l-3 -3q-15 -14 -23 -23t-12.5 -18.5t-5.5 -23t-1 -37.5h-36q0 24 1.5 40.5t6.5 29t15 24.5t27 29q1 2 2.5 3t3.5 3q6 5 14 12.5t15.5 18t13 24.5t5.5 31q0 36 -26 55.5t-65 19.5q-105 0 -102 -111h-34z" />
    <glyph glyph-name=".notdef.126" unicode="&#x1ebc;" horiz-adv-x="1100" 
d="M152 41h938v-41h-979v1462h970v-41h-929v-639h874v-41h-874v-700zM319 1597q0 28 11.5 57t31 52.5t45 38t52.5 14.5q35 0 69 -18.5t66.5 -41t63.5 -41t61 -18.5q24 0 42.5 9.5t31 25.5t19.5 36.5t7 41.5h41q0 -30 -9 -58t-26.5 -49t-44 -34t-61.5 -13q-39 0 -72 18.5
t-63.5 41t-60.5 41t-64 18.5q-22 0 -40 -11.5t-31 -29.5t-20.5 -39.5t-7.5 -40.5h-41z" />
    <glyph glyph-name=".notdef.046" unicode="&#x1ebd;" 
d="M932 559q1 97 -26 183.5t-79.5 151.5t-130.5 103.5t-180 38.5q-85 0 -160 -33t-132 -95t-92 -150t-40 -199h840zM92 518q1 -106 24.5 -197.5t73 -159t128 -106.5t190.5 -39q81 0 151 22.5t123.5 66.5t89 109t48.5 151h41q-11 -91 -48.5 -163t-96.5 -122.5t-136.5 -77.5
t-167.5 -27q-122 -2 -209.5 40t-143.5 116.5t-82 176t-26 218.5q0 132 38.5 234.5t102.5 173t147.5 107t172.5 36.5q123 0 212 -46.5t146 -124.5t82 -179t21 -209h-881zM246 1188q0 28 11.5 57t31 52.5t44.5 38t52 14.5q36 0 70 -18.5t66.5 -41t63.5 -41t61 -18.5
q24 0 42.5 9.5t31 25t19.5 36t7 41.5h41q0 -30 -9 -57.5t-26.5 -48.5t-44 -34t-61.5 -13q-39 0 -72 18.5t-63.5 41t-61 41t-64.5 18.5q-21 0 -39 -11.5t-31 -29.5t-20.5 -39.5t-7.5 -40.5h-41z" />
    <glyph glyph-name=".notdef.110" unicode="&#x1ea0;" horiz-adv-x="1178" 
d="M946 522l-348 899h-4l-361 -899h713zM217 481l-194 -481h-48l594 1462h54l577 -1462h-45l-192 481h-746zM607 -337h-41v201h41v-201z" />
    <glyph glyph-name=".notdef.062" unicode="&#x1ea1;" horiz-adv-x="985" 
d="M819 618h-4q-21 -30 -63 -45t-97.5 -22t-119 -9.5t-127.5 -6.5q-62 -5 -120 -17t-103 -41t-72 -81t-27 -136q0 -45 16 -89t52 -78.5t94.5 -55.5t144.5 -21q103 0 182.5 34.5t133.5 91.5t82 130.5t28 151.5v194zM111 727q4 75 30.5 139t76.5 111t123 73.5t171 26.5
q70 0 132 -14.5t109.5 -49.5t76 -93t30.5 -144v-670q0 -30 13 -44.5t32.5 -20t43 -4t44.5 3.5v-41q-30 -2 -61 -1.5t-56 10t-41 31t-16 62.5v138h-4q-15 -51 -52 -99t-91 -84.5t-124 -59t-151 -22.5q-78 0 -143 18.5t-111.5 54.5t-72 89t-25.5 123q0 65 14.5 113t40 82
t60.5 55.5t75.5 35t84.5 20t88 9.5q108 6 185.5 11t128 20.5t74 47t23.5 91.5q0 48 -8.5 99t-39.5 94t-92.5 70.5t-166.5 27.5q-165 0 -257 -80t-103 -229h-41zM526 -337h-41v201h41v-201z" />
    <glyph glyph-name=".notdef.108" unicode="&#x1ea2;" horiz-adv-x="1178" 
d="M946 522l-348 899h-4l-361 -899h713zM217 481l-194 -481h-48l594 1462h54l577 -1462h-45l-192 481h-746zM460 1747q-3 72 32.5 109.5t103.5 37.5q26 0 49 -7.5t40.5 -21.5t27.5 -34.5t10 -47.5q0 -22 -6 -39.5t-15 -31t-19 -23t-19 -16.5l-3 -3q-15 -14 -23 -23
t-12.5 -18.5t-5.5 -23t-1 -37.5h-36q0 24 1.5 40.5t6.5 29t15 24.5t27 29q1 2 2.5 3t3.5 3q6 5 14 12.5t15.5 18t13 24.5t5.5 31q0 36 -26 55.5t-65 19.5q-105 0 -102 -111h-34z" />
    <glyph glyph-name=".notdef.064" unicode="&#x1ea3;" horiz-adv-x="985" 
d="M819 618h-4q-21 -30 -63 -45t-97.5 -22t-119 -9.5t-127.5 -6.5q-62 -5 -120 -17t-103 -41t-72 -81t-27 -136q0 -45 16 -89t52 -78.5t94.5 -55.5t144.5 -21q103 0 182.5 34.5t133.5 91.5t82 130.5t28 151.5v194zM111 727q4 75 30.5 139t76.5 111t123 73.5t171 26.5
q70 0 132 -14.5t109.5 -49.5t76 -93t30.5 -144v-670q0 -30 13 -44.5t32.5 -20t43 -4t44.5 3.5v-41q-30 -2 -61 -1.5t-56 10t-41 31t-16 62.5v138h-4q-15 -51 -52 -99t-91 -84.5t-124 -59t-151 -22.5q-78 0 -143 18.5t-111.5 54.5t-72 89t-25.5 123q0 65 14.5 113t40 82
t60.5 55.5t75.5 35t84.5 20t88 9.5q108 6 185.5 11t128 20.5t74 47t23.5 91.5q0 48 -8.5 99t-39.5 94t-92.5 70.5t-166.5 27.5q-165 0 -257 -80t-103 -229h-41zM372 1336q-3 72 32.5 109.5t103.5 37.5q26 0 49 -7.5t40.5 -21.5t27.5 -34.5t10 -47.5q0 -22 -6 -39.5t-15 -31
t-19 -23t-19 -16.5l-3 -3q-15 -14 -23 -23t-12.5 -18.5t-5.5 -23t-1 -37.5h-36q0 24 1.5 40.5t6.5 29t15 24.5t27 29q1 2 2.5 3t3.5 3q6 5 14 12.5t15.5 18t13 24.5t5.5 31q0 36 -26 55.5t-65 19.5q-105 0 -102 -111h-34z" />
    <glyph glyph-name=".notdef.071" unicode="&#x1ef2;" horiz-adv-x="1102" 
d="M1114 1462h49l-592 -846v-616h-41v616l-591 846h51l561 -803zM379 1862h59l256 -295h-30z" />
    <glyph glyph-name=".notdef.005" unicode="&#x1ef3;" horiz-adv-x="834" 
d="M815 1053h43l-485 -1268q-21 -54 -49.5 -83.5t-63.5 -43.5t-76.5 -17t-89.5 -3v40q52 -1 90 2.5t66.5 17t50 41t39.5 75.5l76 196l-441 1043h45l418 -998zM228 1452h59l256 -295h-30z" />
    <glyph glyph-name=".notdef.067" unicode="&#x1ef4;" horiz-adv-x="1102" 
d="M1114 1462h49l-592 -846v-616h-41v616l-591 846h51l561 -803zM575 -337h-41v201h41v-201z" />
    <glyph glyph-name=".notdef.001" unicode="&#x1ef5;" horiz-adv-x="834" 
d="M815 1053h43l-485 -1268q-21 -54 -49.5 -83.5t-63.5 -43.5t-76.5 -17t-89.5 -3v40q52 -1 90 2.5t66.5 17t50 41t39.5 75.5l76 196l-441 1043h45l418 -998zM542 -337h-41v201h41v-201z" />
    <glyph glyph-name=".notdef.069" unicode="&#x1ef6;" horiz-adv-x="1102" 
d="M1114 1462h49l-592 -846v-616h-41v616l-591 846h51l561 -803zM420 1747q-3 72 32.5 109.5t103.5 37.5q26 0 49 -7.5t40.5 -21.5t27.5 -34.5t10 -47.5q0 -22 -6 -39.5t-15 -31t-19 -23t-19 -16.5l-3 -3q-15 -14 -23 -23t-12.5 -18.5t-5.5 -23t-1 -37.5h-36q0 24 1.5 40.5
t6.5 29t15 24.5t27 29q1 2 2.5 3t3.5 3q6 5 14 12.5t15.5 18t13 24.5t5.5 31q0 36 -26 55.5t-65 19.5q-105 0 -102 -111h-34z" />
    <glyph glyph-name=".notdef.003" unicode="&#x1ef7;" horiz-adv-x="834" 
d="M815 1053h43l-485 -1268q-21 -54 -49.5 -83.5t-63.5 -43.5t-76.5 -17t-89.5 -3v40q52 -1 90 2.5t66.5 17t50 41t39.5 75.5l76 196l-441 1043h45l418 -998zM294 1336q-3 72 32.5 109.5t103.5 37.5q26 0 49 -7.5t40.5 -21.5t27.5 -34.5t10 -47.5q0 -22 -6 -39.5t-15 -31
t-19 -23t-19 -16.5l-3 -3q-15 -14 -23 -23t-12.5 -18.5t-5.5 -23t-1 -37.5h-36q0 24 1.5 40.5t6.5 29t15 24.5t27 29q1 2 2.5 3t3.5 3q6 5 14 12.5t15.5 18t13 24.5t5.5 31q0 36 -26 55.5t-65 19.5q-105 0 -102 -111h-34z" />
    <glyph glyph-name=".notdef.068" unicode="&#x1ef8;" horiz-adv-x="1102" 
d="M1114 1462h49l-592 -846v-616h-41v616l-591 846h51l561 -803zM282 1597q0 28 11.5 57t31 52.5t45 38t52.5 14.5q35 0 69 -18.5t66.5 -41t63.5 -41t61 -18.5q24 0 42.5 9.5t31 25.5t19.5 36.5t7 41.5h41q0 -30 -9 -58t-26.5 -49t-44 -34t-61.5 -13q-39 0 -72 18.5
t-63.5 41t-60.5 41t-64 18.5q-22 0 -40 -11.5t-31 -29.5t-20.5 -39.5t-7.5 -40.5h-41z" />
    <glyph glyph-name=".notdef.002" unicode="&#x1ef9;" horiz-adv-x="834" 
d="M815 1053h43l-485 -1268q-21 -54 -49.5 -83.5t-63.5 -43.5t-76.5 -17t-89.5 -3v40q52 -1 90 2.5t66.5 17t50 41t39.5 75.5l76 196l-441 1043h45l418 -998zM154 1188q0 28 11.5 57t31 52.5t44.5 38t52 14.5q36 0 70 -18.5t66.5 -41t63.5 -41t61 -18.5q24 0 42.5 9.5t31 25
t19.5 36t7 41.5h41q0 -30 -9 -57.5t-26.5 -48.5t-44 -34t-61.5 -13q-39 0 -72 18.5t-63.5 41t-61 41t-64.5 18.5q-21 0 -39 -11.5t-31 -29.5t-20.5 -39.5t-7.5 -40.5h-41z" />
    <glyph glyph-name=".notdef.119" unicode="&#x1eae;" horiz-adv-x="1178" 
d="M946 522l-348 899h-4l-361 -899h713zM217 481l-194 -481h-48l594 1462h54l577 -1462h-45l-192 481h-746zM419 1766q10 -69 58 -111.5t119 -42.5q37 0 69.5 9.5t57 28.5t40 48t19.5 68h36q-11 -91 -71.5 -140t-150.5 -49q-43 0 -79.5 14t-64.5 39t-45.5 59.5t-22.5 76.5
h35zM817 2064l-299 -295h-31l271 295h59z" />
    <glyph glyph-name=".notdef.053" unicode="&#x1eaf;" horiz-adv-x="985" 
d="M819 618h-4q-21 -30 -63 -45t-97.5 -22t-119 -9.5t-127.5 -6.5q-62 -5 -120 -17t-103 -41t-72 -81t-27 -136q0 -45 16 -89t52 -78.5t94.5 -55.5t144.5 -21q103 0 182.5 34.5t133.5 91.5t82 130.5t28 151.5v194zM111 727q4 75 30.5 139t76.5 111t123 73.5t171 26.5
q70 0 132 -14.5t109.5 -49.5t76 -93t30.5 -144v-670q0 -30 13 -44.5t32.5 -20t43 -4t44.5 3.5v-41q-30 -2 -61 -1.5t-56 10t-41 31t-16 62.5v138h-4q-15 -51 -52 -99t-91 -84.5t-124 -59t-151 -22.5q-78 0 -143 18.5t-111.5 54.5t-72 89t-25.5 123q0 65 14.5 113t40 82
t60.5 55.5t75.5 35t84.5 20t88 9.5q108 6 185.5 11t128 20.5t74 47t23.5 91.5q0 48 -8.5 99t-39.5 94t-92.5 70.5t-166.5 27.5q-165 0 -257 -80t-103 -229h-41zM307 1358q10 -69 58 -111.5t119 -42.5q37 0 69.5 9.5t57 28.5t40 48t19.5 68h36q-11 -91 -71.5 -140t-150.5 -49
q-43 0 -79.5 14t-64.5 39t-45.5 59.5t-22.5 76.5h35zM712 1654l-299 -295h-31l271 295h59z" />
    <glyph glyph-name=".notdef.118" unicode="&#x1eb0;" horiz-adv-x="1178" 
d="M946 522l-348 899h-4l-361 -899h713zM217 481l-194 -481h-48l594 1462h54l577 -1462h-45l-192 481h-746zM419 1766q10 -69 58 -111.5t119 -42.5q37 0 69.5 9.5t57 28.5t40 48t19.5 68h36q-11 -91 -71.5 -140t-150.5 -49q-43 0 -79.5 14t-64.5 39t-45.5 59.5t-22.5 76.5
h35zM396 2063h59l256 -295h-30z" />
    <glyph glyph-name=".notdef.054" unicode="&#x1eb1;" horiz-adv-x="985" 
d="M819 618h-4q-21 -30 -63 -45t-97.5 -22t-119 -9.5t-127.5 -6.5q-62 -5 -120 -17t-103 -41t-72 -81t-27 -136q0 -45 16 -89t52 -78.5t94.5 -55.5t144.5 -21q103 0 182.5 34.5t133.5 91.5t82 130.5t28 151.5v194zM111 727q4 75 30.5 139t76.5 111t123 73.5t171 26.5
q70 0 132 -14.5t109.5 -49.5t76 -93t30.5 -144v-670q0 -30 13 -44.5t32.5 -20t43 -4t44.5 3.5v-41q-30 -2 -61 -1.5t-56 10t-41 31t-16 62.5v138h-4q-15 -51 -52 -99t-91 -84.5t-124 -59t-151 -22.5q-78 0 -143 18.5t-111.5 54.5t-72 89t-25.5 123q0 65 14.5 113t40 82
t60.5 55.5t75.5 35t84.5 20t88 9.5q108 6 185.5 11t128 20.5t74 47t23.5 91.5q0 48 -8.5 99t-39.5 94t-92.5 70.5t-166.5 27.5q-165 0 -257 -80t-103 -229h-41zM307 1358q10 -69 58 -111.5t119 -42.5q37 0 69.5 9.5t57 28.5t40 48t19.5 68h36q-11 -91 -71.5 -140t-150.5 -49
q-43 0 -79.5 14t-64.5 39t-45.5 59.5t-22.5 76.5h35zM292 1653h59l256 -295h-31z" />
    <glyph glyph-name=".notdef.120" unicode="&#x1eb2;" horiz-adv-x="1178" 
d="M946 522l-348 899h-4l-361 -899h713zM217 481l-194 -481h-48l594 1462h54l577 -1462h-45l-192 481h-746zM419 1766q10 -69 58 -111.5t119 -42.5q37 0 69.5 9.5t57 28.5t40 48t19.5 68h36q-11 -91 -71.5 -140t-150.5 -49q-43 0 -79.5 14t-64.5 39t-45.5 59.5t-22.5 76.5
h35zM454 1921q-3 72 32.5 109.5t103.5 37.5q26 0 49 -7.5t40.5 -21.5t27.5 -34.5t10 -47.5q0 -22 -6 -39.5t-15 -31t-19 -23t-19 -16.5l-3 -3q-15 -14 -23 -23t-12.5 -18.5t-5.5 -23t-1 -37.5h-36q0 24 1.5 40.5t6.5 29t15 24.5t27 29q1 2 2.5 3t3.5 3q6 5 14 12.5t15.5 18
t13 24.5t5.5 31q0 36 -26 55.5t-65 19.5q-105 0 -102 -111h-34z" />
    <glyph glyph-name=".notdef.052" unicode="&#x1eb3;" horiz-adv-x="985" 
d="M819 618h-4q-21 -30 -63 -45t-97.5 -22t-119 -9.5t-127.5 -6.5q-62 -5 -120 -17t-103 -41t-72 -81t-27 -136q0 -45 16 -89t52 -78.5t94.5 -55.5t144.5 -21q103 0 182.5 34.5t133.5 91.5t82 130.5t28 151.5v194zM111 727q4 75 30.5 139t76.5 111t123 73.5t171 26.5
q70 0 132 -14.5t109.5 -49.5t76 -93t30.5 -144v-670q0 -30 13 -44.5t32.5 -20t43 -4t44.5 3.5v-41q-30 -2 -61 -1.5t-56 10t-41 31t-16 62.5v138h-4q-15 -51 -52 -99t-91 -84.5t-124 -59t-151 -22.5q-78 0 -143 18.5t-111.5 54.5t-72 89t-25.5 123q0 65 14.5 113t40 82
t60.5 55.5t75.5 35t84.5 20t88 9.5q108 6 185.5 11t128 20.5t74 47t23.5 91.5q0 48 -8.5 99t-39.5 94t-92.5 70.5t-166.5 27.5q-165 0 -257 -80t-103 -229h-41zM307 1358q10 -69 58 -111.5t119 -42.5q37 0 69.5 9.5t57 28.5t40 48t19.5 68h36q-11 -91 -71.5 -140t-150.5 -49
q-43 0 -79.5 14t-64.5 39t-45.5 59.5t-22.5 76.5h35zM342 1521q-3 72 32.5 109.5t103.5 37.5q26 0 49 -7.5t40.5 -21.5t27.5 -34.5t10 -47.5q0 -22 -6 -39.5t-15 -31t-19 -23t-19 -16.5l-3 -3q-15 -14 -23 -23t-12.5 -18.5t-5.5 -23t-1 -37.5h-36q0 24 1.5 40.5t6.5 29
t15 24.5t27 29q1 2 2.5 3t3.5 3q6 5 14 12.5t15.5 18t13 24.5t5.5 31q0 36 -26 55.5t-65 19.5q-105 0 -102 -111h-34z" />
    <glyph glyph-name=".notdef.121" unicode="&#x1eb4;" horiz-adv-x="1178" 
d="M946 522l-348 899h-4l-361 -899h713zM217 481l-194 -481h-48l594 1462h54l577 -1462h-45l-192 481h-746zM419 1766q10 -69 58 -111.5t119 -42.5q37 0 69.5 9.5t57 28.5t40 48t19.5 68h36q-11 -91 -71.5 -140t-150.5 -49q-43 0 -79.5 14t-64.5 39t-45.5 59.5t-22.5 76.5
h35zM319 1812q0 28 11.5 57t31 52.5t45 38t52.5 14.5q35 0 69 -18.5t66.5 -41t63.5 -41t61 -18.5q24 0 42.5 9.5t31 25.5t19.5 36.5t7 41.5h41q0 -30 -9 -58t-26.5 -49t-44 -34t-61.5 -13q-39 0 -72 18.5t-63.5 41t-60.5 41t-64 18.5q-22 0 -40 -11.5t-31 -29.5t-20.5 -39.5
t-7.5 -40.5h-41z" />
    <glyph glyph-name=".notdef.051" unicode="&#x1eb5;" horiz-adv-x="985" 
d="M819 618h-4q-21 -30 -63 -45t-97.5 -22t-119 -9.5t-127.5 -6.5q-62 -5 -120 -17t-103 -41t-72 -81t-27 -136q0 -45 16 -89t52 -78.5t94.5 -55.5t144.5 -21q103 0 182.5 34.5t133.5 91.5t82 130.5t28 151.5v194zM111 727q4 75 30.5 139t76.5 111t123 73.5t171 26.5
q70 0 132 -14.5t109.5 -49.5t76 -93t30.5 -144v-670q0 -30 13 -44.5t32.5 -20t43 -4t44.5 3.5v-41q-30 -2 -61 -1.5t-56 10t-41 31t-16 62.5v138h-4q-15 -51 -52 -99t-91 -84.5t-124 -59t-151 -22.5q-78 0 -143 18.5t-111.5 54.5t-72 89t-25.5 123q0 65 14.5 113t40 82
t60.5 55.5t75.5 35t84.5 20t88 9.5q108 6 185.5 11t128 20.5t74 47t23.5 91.5q0 48 -8.5 99t-39.5 94t-92.5 70.5t-166.5 27.5q-165 0 -257 -80t-103 -229h-41zM307 1358q10 -69 58 -111.5t119 -42.5q37 0 69.5 9.5t57 28.5t40 48t19.5 68h36q-11 -91 -71.5 -140t-150.5 -49
q-43 0 -79.5 14t-64.5 39t-45.5 59.5t-22.5 76.5h35zM221 1416q0 28 11.5 57t31 52.5t45 38t52.5 14.5q35 0 69 -18.5t66.5 -41t63.5 -41t61 -18.5q24 0 42.5 9.5t31 25.5t19.5 36.5t7 41.5h41q0 -30 -9 -58t-26.5 -49t-44 -34t-61.5 -13q-39 0 -72 18.5t-63.5 41t-60.5 41
t-64 18.5q-22 0 -40 -11.5t-31 -29.5t-20.5 -39.5t-7.5 -40.5h-41z" />
    <glyph glyph-name=".notdef.122" unicode="&#x1eb6;" horiz-adv-x="1178" 
d="M946 522l-348 899h-4l-361 -899h713zM217 481l-194 -481h-48l594 1462h54l577 -1462h-45l-192 481h-746zM419 1766q10 -69 58 -111.5t119 -42.5q37 0 69.5 9.5t57 28.5t40 48t19.5 68h36q-11 -91 -71.5 -140t-150.5 -49q-43 0 -79.5 14t-64.5 39t-45.5 59.5t-22.5 76.5
h35zM607 -337h-41v201h41v-201z" />
    <glyph glyph-name=".notdef.050" unicode="&#x1eb7;" horiz-adv-x="985" 
d="M819 618h-4q-21 -30 -63 -45t-97.5 -22t-119 -9.5t-127.5 -6.5q-62 -5 -120 -17t-103 -41t-72 -81t-27 -136q0 -45 16 -89t52 -78.5t94.5 -55.5t144.5 -21q103 0 182.5 34.5t133.5 91.5t82 130.5t28 151.5v194zM111 727q4 75 30.5 139t76.5 111t123 73.5t171 26.5
q70 0 132 -14.5t109.5 -49.5t76 -93t30.5 -144v-670q0 -30 13 -44.5t32.5 -20t43 -4t44.5 3.5v-41q-30 -2 -61 -1.5t-56 10t-41 31t-16 62.5v138h-4q-15 -51 -52 -99t-91 -84.5t-124 -59t-151 -22.5q-78 0 -143 18.5t-111.5 54.5t-72 89t-25.5 123q0 65 14.5 113t40 82
t60.5 55.5t75.5 35t84.5 20t88 9.5q108 6 185.5 11t128 20.5t74 47t23.5 91.5q0 48 -8.5 99t-39.5 94t-92.5 70.5t-166.5 27.5q-165 0 -257 -80t-103 -229h-41zM307 1358q10 -69 58 -111.5t119 -42.5q37 0 69.5 9.5t57 28.5t40 48t19.5 68h36q-11 -91 -71.5 -140t-150.5 -49
q-43 0 -79.5 14t-64.5 39t-45.5 59.5t-22.5 76.5h35zM526 -337h-41v201h41v-201z" />
    <glyph glyph-name=".notdef.130" unicode="&#x1ebe;" horiz-adv-x="1100" 
d="M152 41h938v-41h-979v1462h970v-41h-929v-639h874v-41h-874v-700zM758 1577l-211 252l-203 -252h-41l232 285h30l234 -285h-41zM1055 2069l-299 -295h-31l271 295h59z" />
    <glyph glyph-name=".notdef.042" unicode="&#x1ebf;" 
d="M932 559q1 97 -26 183.5t-79.5 151.5t-130.5 103.5t-180 38.5q-85 0 -160 -33t-132 -95t-92 -150t-40 -199h840zM92 518q1 -106 24.5 -197.5t73 -159t128 -106.5t190.5 -39q81 0 151 22.5t123.5 66.5t89 109t48.5 151h41q-11 -91 -48.5 -163t-96.5 -122.5t-136.5 -77.5
t-167.5 -27q-122 -2 -209.5 40t-143.5 116.5t-82 176t-26 218.5q0 132 38.5 234.5t102.5 173t147.5 107t172.5 36.5q123 0 212 -46.5t146 -124.5t82 -179t21 -209h-881zM719 1167l-211 252l-203 -252h-41l232 285h30l234 -285h-41zM1017 1660l-299 -295h-31l271 295h59z" />
    <glyph glyph-name=".notdef.129" unicode="&#x1ec0;" horiz-adv-x="1100" 
d="M152 41h938v-41h-979v1462h970v-41h-929v-639h874v-41h-874v-700zM758 1577l-211 252l-203 -252h-41l232 285h30l234 -285h-41zM563 2069h59l256 -295h-30z" />
    <glyph glyph-name=".notdef.043" unicode="&#x1ec1;" 
d="M932 559q1 97 -26 183.5t-79.5 151.5t-130.5 103.5t-180 38.5q-85 0 -160 -33t-132 -95t-92 -150t-40 -199h840zM92 518q1 -106 24.5 -197.5t73 -159t128 -106.5t190.5 -39q81 0 151 22.5t123.5 66.5t89 109t48.5 151h41q-11 -91 -48.5 -163t-96.5 -122.5t-136.5 -77.5
t-167.5 -27q-122 -2 -209.5 40t-143.5 116.5t-82 176t-26 218.5q0 132 38.5 234.5t102.5 173t147.5 107t172.5 36.5q123 0 212 -46.5t146 -124.5t82 -179t21 -209h-881zM719 1167l-211 252l-203 -252h-41l232 285h30l234 -285h-41zM524 1659h59l256 -295h-30z" />
    <glyph glyph-name=".notdef.131" unicode="&#x1ec2;" horiz-adv-x="1100" 
d="M152 41h938v-41h-979v1462h970v-41h-929v-639h874v-41h-874v-700zM758 1577l-211 252l-203 -252h-41l232 285h30l234 -285h-41zM680 1925q-3 72 32.5 109.5t103.5 37.5q26 0 49 -7.5t40.5 -21.5t27.5 -34.5t10 -47.5q0 -22 -6 -39.5t-15 -31t-19 -23t-19 -16.5l-3 -3
q-15 -14 -23 -23t-12.5 -18.5t-5.5 -23t-1 -37.5h-36q0 24 1.5 40.5t6.5 29t15 24.5t27 29q1 2 2.5 3t3.5 3q6 5 14 12.5t15.5 18t13 24.5t5.5 31q0 36 -26 55.5t-65 19.5q-105 0 -102 -111h-34z" />
    <glyph glyph-name=".notdef.041" unicode="&#x1ec3;" 
d="M932 559q1 97 -26 183.5t-79.5 151.5t-130.5 103.5t-180 38.5q-85 0 -160 -33t-132 -95t-92 -150t-40 -199h840zM92 518q1 -106 24.5 -197.5t73 -159t128 -106.5t190.5 -39q81 0 151 22.5t123.5 66.5t89 109t48.5 151h41q-11 -91 -48.5 -163t-96.5 -122.5t-136.5 -77.5
t-167.5 -27q-122 -2 -209.5 40t-143.5 116.5t-82 176t-26 218.5q0 132 38.5 234.5t102.5 173t147.5 107t172.5 36.5q123 0 212 -46.5t146 -124.5t82 -179t21 -209h-881zM719 1167l-211 252l-203 -252h-41l232 285h30l234 -285h-41zM642 1516q-3 72 32.5 109.5t103.5 37.5
q26 0 49 -7.5t40.5 -21.5t27.5 -34.5t10 -47.5q0 -22 -6 -39.5t-15 -31t-19 -23t-19 -16.5l-3 -3q-15 -14 -23 -23t-12.5 -18.5t-5.5 -23t-1 -37.5h-36q0 24 1.5 40.5t6.5 29t15 24.5t27 29q1 2 2.5 3t3.5 3q6 5 14 12.5t15.5 18t13 24.5t5.5 31q0 36 -26 55.5t-65 19.5
q-105 0 -102 -111h-34z" />
    <glyph glyph-name=".notdef.132" unicode="&#x1ec4;" horiz-adv-x="1100" 
d="M152 41h938v-41h-979v1462h970v-41h-929v-639h874v-41h-874v-700zM758 1577l-211 252l-203 -252h-41l232 285h30l234 -285h-41zM281 1914q0 28 11.5 57t31 52.5t45 38t52.5 14.5q35 0 69 -18.5t66.5 -41t63.5 -41t61 -18.5q24 0 42.5 9.5t31 25.5t19.5 36.5t7 41.5h41
q0 -30 -9 -58t-26.5 -49t-44 -34t-61.5 -13q-39 0 -72 18.5t-63.5 41t-60.5 41t-64 18.5q-22 0 -40 -11.5t-31 -29.5t-20.5 -39.5t-7.5 -40.5h-41z" />
    <glyph glyph-name=".notdef.040" unicode="&#x1ec5;" 
d="M932 559q1 97 -26 183.5t-79.5 151.5t-130.5 103.5t-180 38.5q-85 0 -160 -33t-132 -95t-92 -150t-40 -199h840zM92 518q1 -106 24.5 -197.5t73 -159t128 -106.5t190.5 -39q81 0 151 22.5t123.5 66.5t89 109t48.5 151h41q-11 -91 -48.5 -163t-96.5 -122.5t-136.5 -77.5
t-167.5 -27q-122 -2 -209.5 40t-143.5 116.5t-82 176t-26 218.5q0 132 38.5 234.5t102.5 173t147.5 107t172.5 36.5q123 0 212 -46.5t146 -124.5t82 -179t21 -209h-881zM719 1167l-211 252l-203 -252h-41l232 285h30l234 -285h-41zM241 1504q0 28 11.5 57t31 52.5t45 38
t52.5 14.5q35 0 69 -18.5t66.5 -41t63.5 -41t61 -18.5q24 0 42.5 9.5t31 25.5t19.5 36.5t7 41.5h41q0 -30 -9 -58t-26.5 -49t-44 -34t-61.5 -13q-39 0 -72 18.5t-63.5 41t-60.5 41t-64 18.5q-22 0 -40 -11.5t-31 -29.5t-20.5 -39.5t-7.5 -40.5h-41z" />
    <glyph glyph-name=".notdef.105" unicode="&#x1ec6;" horiz-adv-x="1100" 
d="M152 41h938v-41h-979v1462h970v-41h-929v-639h874v-41h-874v-700zM758 1577l-211 252l-203 -252h-41l232 285h30l234 -285h-41zM607 -337h-41v201h41v-201z" />
    <glyph glyph-name=".notdef.039" unicode="&#x1ec7;" 
d="M932 559q1 97 -26 183.5t-79.5 151.5t-130.5 103.5t-180 38.5q-85 0 -160 -33t-132 -95t-92 -150t-40 -199h840zM92 518q1 -106 24.5 -197.5t73 -159t128 -106.5t190.5 -39q81 0 151 22.5t123.5 66.5t89 109t48.5 151h41q-11 -91 -48.5 -163t-96.5 -122.5t-136.5 -77.5
t-167.5 -27q-122 -2 -209.5 40t-143.5 116.5t-82 176t-26 218.5q0 132 38.5 234.5t102.5 173t147.5 107t172.5 36.5q123 0 212 -46.5t146 -124.5t82 -179t21 -209h-881zM719 1167l-211 252l-203 -252h-41l232 285h30l234 -285h-41zM526 -337h-41v201h41v-201z" />
    <glyph glyph-name=".notdef.113" unicode="&#x1ea4;" horiz-adv-x="1178" 
d="M946 522l-348 899h-4l-361 -899h713zM217 481l-194 -481h-48l594 1462h54l577 -1462h-45l-192 481h-746zM797 1577l-211 252l-203 -252h-41l231 285h31l234 -285h-41zM1094 2069l-299 -295h-31l271 295h59z" />
    <glyph glyph-name=".notdef.059" unicode="&#x1ea5;" horiz-adv-x="985" 
d="M819 618h-4q-21 -30 -63 -45t-97.5 -22t-119 -9.5t-127.5 -6.5q-62 -5 -120 -17t-103 -41t-72 -81t-27 -136q0 -45 16 -89t52 -78.5t94.5 -55.5t144.5 -21q103 0 182.5 34.5t133.5 91.5t82 130.5t28 151.5v194zM111 727q4 75 30.5 139t76.5 111t123 73.5t171 26.5
q70 0 132 -14.5t109.5 -49.5t76 -93t30.5 -144v-670q0 -30 13 -44.5t32.5 -20t43 -4t44.5 3.5v-41q-30 -2 -61 -1.5t-56 10t-41 31t-16 62.5v138h-4q-15 -51 -52 -99t-91 -84.5t-124 -59t-151 -22.5q-78 0 -143 18.5t-111.5 54.5t-72 89t-25.5 123q0 65 14.5 113t40 82
t60.5 55.5t75.5 35t84.5 20t88 9.5q108 6 185.5 11t128 20.5t74 47t23.5 91.5q0 48 -8.5 99t-39.5 94t-92.5 70.5t-166.5 27.5q-165 0 -257 -80t-103 -229h-41zM700 1167l-211 252l-202 -252h-41l231 285h31l233 -285h-41zM998 1660l-299 -295h-31l271 295h59z" />
    <glyph glyph-name=".notdef.112" unicode="&#x1ea6;" horiz-adv-x="1178" 
d="M946 522l-348 899h-4l-361 -899h713zM217 481l-194 -481h-48l594 1462h54l577 -1462h-45l-192 481h-746zM797 1577l-211 252l-203 -252h-41l231 285h31l234 -285h-41zM602 2069h59l256 -295h-30z" />
    <glyph glyph-name=".notdef.060" unicode="&#x1ea7;" horiz-adv-x="985" 
d="M819 618h-4q-21 -30 -63 -45t-97.5 -22t-119 -9.5t-127.5 -6.5q-62 -5 -120 -17t-103 -41t-72 -81t-27 -136q0 -45 16 -89t52 -78.5t94.5 -55.5t144.5 -21q103 0 182.5 34.5t133.5 91.5t82 130.5t28 151.5v194zM111 727q4 75 30.5 139t76.5 111t123 73.5t171 26.5
q70 0 132 -14.5t109.5 -49.5t76 -93t30.5 -144v-670q0 -30 13 -44.5t32.5 -20t43 -4t44.5 3.5v-41q-30 -2 -61 -1.5t-56 10t-41 31t-16 62.5v138h-4q-15 -51 -52 -99t-91 -84.5t-124 -59t-151 -22.5q-78 0 -143 18.5t-111.5 54.5t-72 89t-25.5 123q0 65 14.5 113t40 82
t60.5 55.5t75.5 35t84.5 20t88 9.5q108 6 185.5 11t128 20.5t74 47t23.5 91.5q0 48 -8.5 99t-39.5 94t-92.5 70.5t-166.5 27.5q-165 0 -257 -80t-103 -229h-41zM700 1167l-211 252l-202 -252h-41l231 285h31l233 -285h-41zM506 1659h59l256 -295h-30z" />
    <glyph glyph-name=".notdef.114" unicode="&#x1ea8;" horiz-adv-x="1178" 
d="M946 522l-348 899h-4l-361 -899h713zM217 481l-194 -481h-48l594 1462h54l577 -1462h-45l-192 481h-746zM797 1577l-211 252l-203 -252h-41l231 285h31l234 -285h-41zM719 1925q-3 72 32.5 109.5t103.5 37.5q26 0 49 -7.5t40.5 -21.5t27.5 -34.5t10 -47.5q0 -22 -6 -39.5
t-15 -31t-19 -23t-19 -16.5l-3 -3q-15 -14 -23 -23t-12.5 -18.5t-5.5 -23t-1 -37.5h-36q0 24 1.5 40.5t6.5 29t15 24.5t27 29q1 2 2.5 3t3.5 3q6 5 14 12.5t15.5 18t13 24.5t5.5 31q0 36 -26 55.5t-65 19.5q-105 0 -102 -111h-34z" />
    <glyph glyph-name=".notdef.058" unicode="&#x1ea9;" horiz-adv-x="985" 
d="M819 618h-4q-21 -30 -63 -45t-97.5 -22t-119 -9.5t-127.5 -6.5q-62 -5 -120 -17t-103 -41t-72 -81t-27 -136q0 -45 16 -89t52 -78.5t94.5 -55.5t144.5 -21q103 0 182.5 34.5t133.5 91.5t82 130.5t28 151.5v194zM111 727q4 75 30.5 139t76.5 111t123 73.5t171 26.5
q70 0 132 -14.5t109.5 -49.5t76 -93t30.5 -144v-670q0 -30 13 -44.5t32.5 -20t43 -4t44.5 3.5v-41q-30 -2 -61 -1.5t-56 10t-41 31t-16 62.5v138h-4q-15 -51 -52 -99t-91 -84.5t-124 -59t-151 -22.5q-78 0 -143 18.5t-111.5 54.5t-72 89t-25.5 123q0 65 14.5 113t40 82
t60.5 55.5t75.5 35t84.5 20t88 9.5q108 6 185.5 11t128 20.5t74 47t23.5 91.5q0 48 -8.5 99t-39.5 94t-92.5 70.5t-166.5 27.5q-165 0 -257 -80t-103 -229h-41zM700 1167l-211 252l-202 -252h-41l231 285h31l233 -285h-41zM623 1516q-3 72 32.5 109.5t103.5 37.5
q26 0 49 -7.5t40.5 -21.5t27.5 -34.5t10 -47.5q0 -22 -6 -39.5t-15 -31t-19 -23t-19 -16.5l-3 -3q-15 -14 -23 -23t-12.5 -18.5t-5.5 -23t-1 -37.5h-36q0 24 1.5 40.5t6.5 29t15 24.5t27 29q1 2 2.5 3t3.5 3q6 5 14 12.5t15.5 18t13 24.5t5.5 31q0 36 -26 55.5t-65 19.5
q-105 0 -102 -111h-34z" />
    <glyph glyph-name=".notdef.115" unicode="&#x1eaa;" horiz-adv-x="1178" 
d="M946 522l-348 899h-4l-361 -899h713zM217 481l-194 -481h-48l594 1462h54l577 -1462h-45l-192 481h-746zM797 1577l-211 252l-203 -252h-41l231 285h31l234 -285h-41zM319 1914q0 28 11.5 57t31 52.5t45 38t52.5 14.5q35 0 69 -18.5t66.5 -41t63.5 -41t61 -18.5
q24 0 42.5 9.5t31 25.5t19.5 36.5t7 41.5h41q0 -30 -9 -58t-26.5 -49t-44 -34t-61.5 -13q-39 0 -72 18.5t-63.5 41t-60.5 41t-64 18.5q-22 0 -40 -11.5t-31 -29.5t-20.5 -39.5t-7.5 -40.5h-41z" />
    <glyph glyph-name=".notdef.057" unicode="&#x1eab;" horiz-adv-x="985" 
d="M819 618h-4q-21 -30 -63 -45t-97.5 -22t-119 -9.5t-127.5 -6.5q-62 -5 -120 -17t-103 -41t-72 -81t-27 -136q0 -45 16 -89t52 -78.5t94.5 -55.5t144.5 -21q103 0 182.5 34.5t133.5 91.5t82 130.5t28 151.5v194zM111 727q4 75 30.5 139t76.5 111t123 73.5t171 26.5
q70 0 132 -14.5t109.5 -49.5t76 -93t30.5 -144v-670q0 -30 13 -44.5t32.5 -20t43 -4t44.5 3.5v-41q-30 -2 -61 -1.5t-56 10t-41 31t-16 62.5v138h-4q-15 -51 -52 -99t-91 -84.5t-124 -59t-151 -22.5q-78 0 -143 18.5t-111.5 54.5t-72 89t-25.5 123q0 65 14.5 113t40 82
t60.5 55.5t75.5 35t84.5 20t88 9.5q108 6 185.5 11t128 20.5t74 47t23.5 91.5q0 48 -8.5 99t-39.5 94t-92.5 70.5t-166.5 27.5q-165 0 -257 -80t-103 -229h-41zM700 1167l-211 252l-202 -252h-41l231 285h31l233 -285h-41zM222 1504q0 28 11.5 57t31 52.5t45 38t52.5 14.5
q35 0 69 -18.5t66.5 -41t63.5 -41t61 -18.5q24 0 42.5 9.5t31 25.5t19.5 36.5t7 41.5h41q0 -30 -9 -58t-26.5 -49t-44 -34t-61.5 -13q-39 0 -72 18.5t-63.5 41t-60.5 41t-64 18.5q-22 0 -40 -11.5t-31 -29.5t-20.5 -39.5t-7.5 -40.5h-41z" />
    <glyph glyph-name=".notdef.116" unicode="&#x1eac;" horiz-adv-x="1178" 
d="M946 522l-348 899h-4l-361 -899h713zM217 481l-194 -481h-48l594 1462h54l577 -1462h-45l-192 481h-746zM797 1577l-211 252l-203 -252h-41l231 285h31l234 -285h-41zM607 -337h-41v201h41v-201z" />
    <glyph glyph-name=".notdef.056" unicode="&#x1ead;" horiz-adv-x="985" 
d="M819 618h-4q-21 -30 -63 -45t-97.5 -22t-119 -9.5t-127.5 -6.5q-62 -5 -120 -17t-103 -41t-72 -81t-27 -136q0 -45 16 -89t52 -78.5t94.5 -55.5t144.5 -21q103 0 182.5 34.5t133.5 91.5t82 130.5t28 151.5v194zM111 727q4 75 30.5 139t76.5 111t123 73.5t171 26.5
q70 0 132 -14.5t109.5 -49.5t76 -93t30.5 -144v-670q0 -30 13 -44.5t32.5 -20t43 -4t44.5 3.5v-41q-30 -2 -61 -1.5t-56 10t-41 31t-16 62.5v138h-4q-15 -51 -52 -99t-91 -84.5t-124 -59t-151 -22.5q-78 0 -143 18.5t-111.5 54.5t-72 89t-25.5 123q0 65 14.5 113t40 82
t60.5 55.5t75.5 35t84.5 20t88 9.5q108 6 185.5 11t128 20.5t74 47t23.5 91.5q0 48 -8.5 99t-39.5 94t-92.5 70.5t-166.5 27.5q-165 0 -257 -80t-103 -229h-41zM700 1167l-211 252l-202 -252h-41l231 285h31l233 -285h-41zM526 -337h-41v201h41v-201z" />
    <glyph glyph-name=".notdef.077" unicode="&#x1a0;" horiz-adv-x="1571" 
d="M106 731q2 -158 46 -291t125 -229.5t198 -150.5t264 -54q148 0 264.5 54t198 150.5t125 229.5t45.5 291q-2 158 -45.5 291t-125 229.5t-198 150.5t-264.5 54q-147 0 -264 -54t-198 -150.5t-125 -229.5t-46 -291zM66 731q0 156 43.5 295t128.5 244t211 166t290 61
q165 0 290.5 -61t211 -166t129 -244t43.5 -295t-43.5 -295t-129 -244t-211 -166t-290.5 -61q-164 0 -290 61t-211 166t-128.5 244t-43.5 295zM1448 1462v-179q0 -55 -6.5 -91.5t-22 -61t-41 -40t-63.5 -27.5v41q31 10 49.5 24.5t28 36t12 50.5t2.5 68v179h41z" />
    <glyph glyph-name=".notdef.011" unicode="&#x1a1;" horiz-adv-x="1086" 
d="M57 526q0 108 31 207.5t91 176t148.5 122t204.5 45.5q115 0 203.5 -45.5t148.5 -122t91 -176t31 -207.5t-31 -207.5t-91 -176t-149 -122t-205 -45.5q-115 0 -203.5 45.5t-148.5 122t-90.5 176t-30.5 207.5zM98 526q0 -100 28 -192t82.5 -162.5t135.5 -113t188 -42.5
q105 0 186 42.5t136 113t83 162.5t28 192q0 98 -28 190t-83 163t-136 114t-186 43q-107 0 -188 -43t-135.5 -114t-82.5 -163t-28 -190zM1087 1053v-179q0 -55 -6.5 -91.5t-22 -61t-41 -40t-63.5 -27.5v41q31 10 49.5 24.5t28 36t12 50.5t2.5 68v179h41z" />
    <glyph glyph-name=".notdef.075" unicode="&#x1eda;" horiz-adv-x="1571" 
d="M106 731q2 -158 46 -291t125 -229.5t198 -150.5t264 -54q148 0 264.5 54t198 150.5t125 229.5t45.5 291q-2 158 -45.5 291t-125 229.5t-198 150.5t-264.5 54q-147 0 -264 -54t-198 -150.5t-125 -229.5t-46 -291zM66 731q0 156 43.5 295t128.5 244t211 166t290 61
q165 0 290.5 -61t211 -166t129 -244t43.5 -295t-43.5 -295t-129 -244t-211 -166t-290.5 -61q-164 0 -290 61t-211 166t-128.5 244t-43.5 295zM1448 1462v-179q0 -55 -6.5 -91.5t-22 -61t-41 -40t-63.5 -27.5v41q31 10 49.5 24.5t28 36t12 50.5t2.5 68v179h41zM956 1862
l-299 -295h-30l270 295h59z" />
    <glyph glyph-name=".notdef.009" unicode="&#x1edb;" horiz-adv-x="1086" 
d="M57 526q0 108 31 207.5t91 176t148.5 122t204.5 45.5q115 0 203.5 -45.5t148.5 -122t91 -176t31 -207.5t-31 -207.5t-91 -176t-149 -122t-205 -45.5q-115 0 -203.5 45.5t-148.5 122t-90.5 176t-30.5 207.5zM98 526q0 -100 28 -192t82.5 -162.5t135.5 -113t188 -42.5
q105 0 186 42.5t136 113t83 162.5t28 192q0 98 -28 190t-83 163t-136 114t-186 43q-107 0 -188 -43t-135.5 -114t-82.5 -163t-28 -190zM1087 1053v-179q0 -55 -6.5 -91.5t-22 -61t-41 -40t-63.5 -27.5v41q31 10 49.5 24.5t28 36t12 50.5t2.5 68v179h41zM750 1452l-299 -295
h-31l270 295h60z" />
    <glyph glyph-name=".notdef.076" unicode="&#x1edc;" horiz-adv-x="1571" 
d="M106 731q2 -158 46 -291t125 -229.5t198 -150.5t264 -54q148 0 264.5 54t198 150.5t125 229.5t45.5 291q-2 158 -45.5 291t-125 229.5t-198 150.5t-264.5 54q-147 0 -264 -54t-198 -150.5t-125 -229.5t-46 -291zM66 731q0 156 43.5 295t128.5 244t211 166t290 61
q165 0 290.5 -61t211 -166t129 -244t43.5 -295t-43.5 -295t-129 -244t-211 -166t-290.5 -61q-164 0 -290 61t-211 166t-128.5 244t-43.5 295zM1448 1462v-179q0 -55 -6.5 -91.5t-22 -61t-41 -40t-63.5 -27.5v41q31 10 49.5 24.5t28 36t12 50.5t2.5 68v179h41zM528 1862h60
l256 -295h-31z" />
    <glyph glyph-name=".notdef.010" unicode="&#x1edd;" horiz-adv-x="1086" 
d="M57 526q0 108 31 207.5t91 176t148.5 122t204.5 45.5q115 0 203.5 -45.5t148.5 -122t91 -176t31 -207.5t-31 -207.5t-91 -176t-149 -122t-205 -45.5q-115 0 -203.5 45.5t-148.5 122t-90.5 176t-30.5 207.5zM98 526q0 -100 28 -192t82.5 -162.5t135.5 -113t188 -42.5
q105 0 186 42.5t136 113t83 162.5t28 192q0 98 -28 190t-83 163t-136 114t-186 43q-107 0 -188 -43t-135.5 -114t-82.5 -163t-28 -190zM1087 1053v-179q0 -55 -6.5 -91.5t-22 -61t-41 -40t-63.5 -27.5v41q31 10 49.5 24.5t28 36t12 50.5t2.5 68v179h41zM322 1452h59
l256 -295h-31z" />
    <glyph glyph-name=".notdef.074" unicode="&#x1ede;" horiz-adv-x="1571" 
d="M106 731q2 -158 46 -291t125 -229.5t198 -150.5t264 -54q148 0 264.5 54t198 150.5t125 229.5t45.5 291q-2 158 -45.5 291t-125 229.5t-198 150.5t-264.5 54q-147 0 -264 -54t-198 -150.5t-125 -229.5t-46 -291zM66 731q0 156 43.5 295t128.5 244t211 166t290 61
q165 0 290.5 -61t211 -166t129 -244t43.5 -295t-43.5 -295t-129 -244t-211 -166t-290.5 -61q-164 0 -290 61t-211 166t-128.5 244t-43.5 295zM1448 1462v-179q0 -55 -6.5 -91.5t-22 -61t-41 -40t-63.5 -27.5v41q31 10 49.5 24.5t28 36t12 50.5t2.5 68v179h41zM600 1747
q-3 72 32.5 109.5t103.5 37.5q26 0 49 -7.5t40.5 -21.5t27.5 -34.5t10 -47.5q0 -22 -6 -39.5t-15 -31t-19 -23t-19 -16.5l-3 -3q-15 -14 -23 -23t-12.5 -18.5t-5.5 -23t-1 -37.5h-36q0 24 1.5 40.5t6.5 29t15 24.5t27 29q1 2 2.5 3t3.5 3q6 5 14 12.5t15.5 18t13 24.5
t5.5 31q0 36 -26 55.5t-65 19.5q-105 0 -102 -111h-34z" />
    <glyph glyph-name=".notdef.008" unicode="&#x1edf;" horiz-adv-x="1086" 
d="M57 526q0 108 31 207.5t91 176t148.5 122t204.5 45.5q115 0 203.5 -45.5t148.5 -122t91 -176t31 -207.5t-31 -207.5t-91 -176t-149 -122t-205 -45.5q-115 0 -203.5 45.5t-148.5 122t-90.5 176t-30.5 207.5zM98 526q0 -100 28 -192t82.5 -162.5t135.5 -113t188 -42.5
q105 0 186 42.5t136 113t83 162.5t28 192q0 98 -28 190t-83 163t-136 114t-186 43q-107 0 -188 -43t-135.5 -114t-82.5 -163t-28 -190zM1087 1053v-179q0 -55 -6.5 -91.5t-22 -61t-41 -40t-63.5 -27.5v41q31 10 49.5 24.5t28 36t12 50.5t2.5 68v179h41zM391 1336
q-3 72 32.5 109.5t103.5 37.5q26 0 49 -7.5t40.5 -21.5t27.5 -34.5t10 -47.5q0 -22 -6 -39.5t-15 -31t-19 -23t-19 -16.5l-3 -3q-15 -14 -23 -23t-12.5 -18.5t-5.5 -23t-1 -37.5h-36q0 24 1.5 40.5t6.5 29t15 24.5t27 29q1 2 2.5 3t3.5 3q6 5 14 12.5t15.5 18t13 24.5
t5.5 31q0 36 -26 55.5t-65 19.5q-105 0 -102 -111h-34z" />
    <glyph glyph-name=".notdef.073" unicode="&#x1ee0;" horiz-adv-x="1571" 
d="M106 731q2 -158 46 -291t125 -229.5t198 -150.5t264 -54q148 0 264.5 54t198 150.5t125 229.5t45.5 291q-2 158 -45.5 291t-125 229.5t-198 150.5t-264.5 54q-147 0 -264 -54t-198 -150.5t-125 -229.5t-46 -291zM66 731q0 156 43.5 295t128.5 244t211 166t290 61
q165 0 290.5 -61t211 -166t129 -244t43.5 -295t-43.5 -295t-129 -244t-211 -166t-290.5 -61q-164 0 -290 61t-211 166t-128.5 244t-43.5 295zM1448 1462v-179q0 -55 -6.5 -91.5t-22 -61t-41 -40t-63.5 -27.5v41q31 10 49.5 24.5t28 36t12 50.5t2.5 68v179h41zM469 1597
q0 28 11.5 57t31 52.5t44.5 38t52 14.5q35 0 69 -18.5t66.5 -41t63.5 -41t61 -18.5q24 0 43 9.5t31.5 25.5t19.5 36.5t7 41.5h41q0 -30 -9 -58t-26.5 -49t-44 -34t-62.5 -13q-39 0 -72 18.5t-63.5 41t-60.5 41t-64 18.5q-21 0 -39 -11.5t-31 -29.5t-20.5 -39.5t-7.5 -40.5
h-41z" />
    <glyph glyph-name=".notdef.007" unicode="&#x1ee1;" horiz-adv-x="1086" 
d="M57 526q0 108 31 207.5t91 176t148.5 122t204.5 45.5q115 0 203.5 -45.5t148.5 -122t91 -176t31 -207.5t-31 -207.5t-91 -176t-149 -122t-205 -45.5q-115 0 -203.5 45.5t-148.5 122t-90.5 176t-30.5 207.5zM98 526q0 -100 28 -192t82.5 -162.5t135.5 -113t188 -42.5
q105 0 186 42.5t136 113t83 162.5t28 192q0 98 -28 190t-83 163t-136 114t-186 43q-107 0 -188 -43t-135.5 -114t-82.5 -163t-28 -190zM1087 1053v-179q0 -55 -6.5 -91.5t-22 -61t-41 -40t-63.5 -27.5v41q31 10 49.5 24.5t28 36t12 50.5t2.5 68v179h41zM262 1188
q0 28 11.5 57t31 52.5t44.5 38t52 14.5q36 0 70 -18.5t66.5 -41t63.5 -41t61 -18.5q24 0 42.5 9.5t31 25t19.5 36t7 41.5h41q0 -30 -9 -57.5t-26.5 -48.5t-44 -34t-61.5 -13q-39 0 -72 18.5t-63.5 41t-61 41t-64.5 18.5q-21 0 -39 -11.5t-31 -29.5t-20.5 -39.5t-7.5 -40.5
h-41z" />
    <glyph glyph-name=".notdef.072" unicode="&#x1ee2;" horiz-adv-x="1571" 
d="M106 731q2 -158 46 -291t125 -229.5t198 -150.5t264 -54q148 0 264.5 54t198 150.5t125 229.5t45.5 291q-2 158 -45.5 291t-125 229.5t-198 150.5t-264.5 54q-147 0 -264 -54t-198 -150.5t-125 -229.5t-46 -291zM66 731q0 156 43.5 295t128.5 244t211 166t290 61
q165 0 290.5 -61t211 -166t129 -244t43.5 -295t-43.5 -295t-129 -244t-211 -166t-290.5 -61q-164 0 -290 61t-211 166t-128.5 244t-43.5 295zM1448 1462v-179q0 -55 -6.5 -91.5t-22 -61t-41 -40t-63.5 -27.5v41q31 10 49.5 24.5t28 36t12 50.5t2.5 68v179h41zM761 -337h-41
v201h41v-201z" />
    <glyph glyph-name=".notdef.006" unicode="&#x1ee3;" horiz-adv-x="1086" 
d="M57 526q0 108 31 207.5t91 176t148.5 122t204.5 45.5q115 0 203.5 -45.5t148.5 -122t91 -176t31 -207.5t-31 -207.5t-91 -176t-149 -122t-205 -45.5q-115 0 -203.5 45.5t-148.5 122t-90.5 176t-30.5 207.5zM98 526q0 -100 28 -192t82.5 -162.5t135.5 -113t188 -42.5
q105 0 186 42.5t136 113t83 162.5t28 192q0 98 -28 190t-83 163t-136 114t-186 43q-107 0 -188 -43t-135.5 -114t-82.5 -163t-28 -190zM1087 1053v-179q0 -55 -6.5 -91.5t-22 -61t-41 -40t-63.5 -27.5v41q31 10 49.5 24.5t28 36t12 50.5t2.5 68v179h41zM553 -337h-41v201h41
v-201z" />
    <glyph glyph-name=".notdef.081" unicode="&#x1ee8;" horiz-adv-x="1436" 
d="M1143 1462h41v-917q0 -290 -139.5 -435t-397.5 -145t-397 145t-139 435v917h41v-917q0 -261 122 -400t373 -139q250 0 373 139t123 400v917zM1316 1462v-179q0 -55 -6.5 -91.5t-22 -61t-41 -40t-63.5 -27.5v41q31 10 49.5 24.5t28 36t12 50.5t2.5 68v179h41zM864 1862
l-299 -295h-30l270 295h59z" />
    <glyph glyph-name=".notdef.015" unicode="&#x1ee9;" horiz-adv-x="1107" 
d="M911 0h-41v260h-4q-15 -61 -47 -113t-80 -90.5t-111 -60t-141 -21.5q-82 0 -151 25t-118.5 73.5t-77 119t-27.5 161.5v699h41v-693q0 -91 27 -156t72.5 -107t106 -61.5t127.5 -19.5q94 0 166 36t120 96.5t72.5 140.5t24.5 168v596h41v-1053zM1040 1053v-179
q0 -55 -6.5 -91.5t-22 -61t-41 -40t-63.5 -27.5v41q31 10 49.5 24.5t28 36t12 50.5t2.5 68v179h41zM729 1452l-299 -295h-31l271 295h59z" />
    <glyph glyph-name=".notdef.082" unicode="&#x1eea;" horiz-adv-x="1436" 
d="M1143 1462h41v-917q0 -290 -139.5 -435t-397.5 -145t-397 145t-139 435v917h41v-917q0 -261 122 -400t373 -139q250 0 373 139t123 400v917zM1316 1462v-179q0 -55 -6.5 -91.5t-22 -61t-41 -40t-63.5 -27.5v41q31 10 49.5 24.5t28 36t12 50.5t2.5 68v179h41zM436 1862h60
l256 -295h-31z" />
    <glyph glyph-name=".notdef.016" unicode="&#x1eeb;" horiz-adv-x="1107" 
d="M911 0h-41v260h-4q-15 -61 -47 -113t-80 -90.5t-111 -60t-141 -21.5q-82 0 -151 25t-118.5 73.5t-77 119t-27.5 161.5v699h41v-693q0 -91 27 -156t72.5 -107t106 -61.5t127.5 -19.5q94 0 166 36t120 96.5t72.5 140.5t24.5 168v596h41v-1053zM1040 1053v-179
q0 -55 -6.5 -91.5t-22 -61t-41 -40t-63.5 -27.5v41q31 10 49.5 24.5t28 36t12 50.5t2.5 68v179h41zM301 1452h59l256 -295h-30z" />
    <glyph glyph-name=".notdef.080" unicode="&#x1eec;" horiz-adv-x="1436" 
d="M1143 1462h41v-917q0 -290 -139.5 -435t-397.5 -145t-397 145t-139 435v917h41v-917q0 -261 122 -400t373 -139q250 0 373 139t123 400v917zM1316 1462v-179q0 -55 -6.5 -91.5t-22 -61t-41 -40t-63.5 -27.5v41q31 10 49.5 24.5t28 36t12 50.5t2.5 68v179h41zM524 1747
q-3 72 32.5 109.5t103.5 37.5q26 0 49 -7.5t40.5 -21.5t27.5 -34.5t10 -47.5q0 -22 -6 -39.5t-15 -31t-19 -23t-19 -16.5l-3 -3q-15 -14 -23 -23t-12.5 -18.5t-5.5 -23t-1 -37.5h-36q0 24 1.5 40.5t6.5 29t15 24.5t27 29q1 2 2.5 3t3.5 3q6 5 14 12.5t15.5 18t13 24.5
t5.5 31q0 36 -26 55.5t-65 19.5q-105 0 -102 -111h-34z" />
    <glyph glyph-name=".notdef.014" unicode="&#x1eed;" horiz-adv-x="1107" 
d="M911 0h-41v260h-4q-15 -61 -47 -113t-80 -90.5t-111 -60t-141 -21.5q-82 0 -151 25t-118.5 73.5t-77 119t-27.5 161.5v699h41v-693q0 -91 27 -156t72.5 -107t106 -61.5t127.5 -19.5q94 0 166 36t120 96.5t72.5 140.5t24.5 168v596h41v-1053zM1040 1053v-179
q0 -55 -6.5 -91.5t-22 -61t-41 -40t-63.5 -27.5v41q31 10 49.5 24.5t28 36t12 50.5t2.5 68v179h41zM379 1336q-3 72 32.5 109.5t103.5 37.5q26 0 49 -7.5t40.5 -21.5t27.5 -34.5t10 -47.5q0 -22 -6 -39.5t-15 -31t-19 -23t-19 -16.5l-3 -3q-15 -14 -23 -23t-12.5 -18.5
t-5.5 -23t-1 -37.5h-36q0 24 1.5 40.5t6.5 29t15 24.5t27 29q1 2 2.5 3t3.5 3q6 5 14 12.5t15.5 18t13 24.5t5.5 31q0 36 -26 55.5t-65 19.5q-105 0 -102 -111h-34z" />
    <glyph glyph-name=".notdef.079" unicode="&#x1eee;" horiz-adv-x="1436" 
d="M1143 1462h41v-917q0 -290 -139.5 -435t-397.5 -145t-397 145t-139 435v917h41v-917q0 -261 122 -400t373 -139q250 0 373 139t123 400v917zM1316 1462v-179q0 -55 -6.5 -91.5t-22 -61t-41 -40t-63.5 -27.5v41q31 10 49.5 24.5t28 36t12 50.5t2.5 68v179h41zM380 1597
q0 28 11.5 57t31 52.5t45 38t52.5 14.5q35 0 69 -18.5t66.5 -41t63.5 -41t61 -18.5q24 0 42.5 9.5t31 25.5t19.5 36.5t7 41.5h41q0 -30 -9 -58t-26.5 -49t-44 -34t-61.5 -13q-39 0 -72 18.5t-63.5 41t-60.5 41t-64 18.5q-22 0 -40 -11.5t-31 -29.5t-20.5 -39.5t-7.5 -40.5
h-41z" />
    <glyph glyph-name=".notdef.013" unicode="&#x1eef;" horiz-adv-x="1107" 
d="M911 0h-41v260h-4q-15 -61 -47 -113t-80 -90.5t-111 -60t-141 -21.5q-82 0 -151 25t-118.5 73.5t-77 119t-27.5 161.5v699h41v-693q0 -91 27 -156t72.5 -107t106 -61.5t127.5 -19.5q94 0 166 36t120 96.5t72.5 140.5t24.5 168v596h41v-1053zM1040 1053v-179
q0 -55 -6.5 -91.5t-22 -61t-41 -40t-63.5 -27.5v41q31 10 49.5 24.5t28 36t12 50.5t2.5 68v179h41zM237 1188q0 28 11.5 57t31 52.5t44.5 38t52 14.5q36 0 70 -18.5t66.5 -41t63.5 -41t61 -18.5q24 0 42.5 9.5t31 25t19.5 36t7 41.5h41q0 -30 -9 -57.5t-26.5 -48.5t-44 -34
t-61.5 -13q-39 0 -72 18.5t-63.5 41t-61 41t-64.5 18.5q-21 0 -39 -11.5t-31 -29.5t-20.5 -39.5t-7.5 -40.5h-41z" />
    <glyph glyph-name=".notdef.078" unicode="&#x1ef0;" horiz-adv-x="1436" 
d="M1143 1462h41v-917q0 -290 -139.5 -435t-397.5 -145t-397 145t-139 435v917h41v-917q0 -261 122 -400t373 -139q250 0 373 139t123 400v917zM1316 1462v-179q0 -55 -6.5 -91.5t-22 -61t-41 -40t-63.5 -27.5v41q31 10 49.5 24.5t28 36t12 50.5t2.5 68v179h41zM669 -337
h-41v201h41v-201z" />
    <glyph glyph-name=".notdef.012" unicode="&#x1ef1;" horiz-adv-x="1107" 
d="M911 0h-41v260h-4q-15 -61 -47 -113t-80 -90.5t-111 -60t-141 -21.5q-82 0 -151 25t-118.5 73.5t-77 119t-27.5 161.5v699h41v-693q0 -91 27 -156t72.5 -107t106 -61.5t127.5 -19.5q94 0 166 36t120 96.5t72.5 140.5t24.5 168v596h41v-1053zM1040 1053v-179
q0 -55 -6.5 -91.5t-22 -61t-41 -40t-63.5 -27.5v41q31 10 49.5 24.5t28 36t12 50.5t2.5 68v179h41zM507 -337h-41v201h41v-201z" />
  </font>
</defs>
</svg>
