<?xml version="1.0" standalone="no"?>
<!DOCTYPE svg PUBLIC "-//W3C//DTD SVG 1.1//EN" "http://www.w3.org/Graphics/SVG/1.1/DTD/svg11.dtd" >
<svg xmlns="http://www.w3.org/2000/svg" xmlns:xlink="http://www.w3.org/1999/xlink" version="1.1">
<metadata>
Created by FontForge 20170731 at Wed Oct 12 18:20:04 2016
 By Aleksey,,,
Copyright (c) 2016 by Jeremy Dooley. All rights reserved.
</metadata>
<defs>
<font id="CabritoDidone-NorReg" horiz-adv-x="732" >
  <font-face 
    font-family="CabritoDidone-NorReg"
    font-weight="400"
    font-stretch="normal"
    units-per-em="1000"
    panose-1="2 0 5 3 4 0 0 2 0 4"
    ascent="758"
    descent="-242"
    x-height="507"
    cap-height="703"
    bbox="-168.762 -258 1287 923"
    underline-thickness="48"
    underline-position="-145"
    unicode-range="U+000D-FB04"
  />
<missing-glyph horiz-adv-x="269" 
 />
    <glyph glyph-name="ff" unicode="ff" horiz-adv-x="642" 
d="M450 3q-14 0 -41 -1t-40 -1q-8 0 -15 -0.5t-11 -1t-6 -0.5q-12 0 -12 10t11 10q3 0 13.5 -1t19.5 -1q23 0 31 7t8 27v432h-244v-432q0 -20 8 -27t32 -7q8 0 18 1t13 1q12 0 12 -10t-12 -10q-2 0 -5.5 0.5t-10.5 1t-15 0.5q-13 0 -40 1t-42 1q-14 0 -41 -1t-40 -1
q-8 0 -15 -0.5t-10.5 -1t-6.5 -0.5q-11 0 -11 10t11 10q2 0 12.5 -1t19.5 -1q24 0 31.5 7t7.5 27v432h-81q-7 0 -9 2t-2 9v2q0 11 11 11h82q8 92 62.5 139.5t148.5 47.5q84 0 127 -45q33 109 159 109q116 0 116 -105q0 -22 -15 -36.5t-34 -14.5q-20 0 -33 13.5t-13 34.5
q0 22 14 36.5t35 14.5q7 0 17 -4q-21 42 -76 42q-97 0 -97 -157v-75h131q9 0 9 -8v-7q0 -9 -9 -9h-131v-432q0 -20 8 -27t31 -7q9 0 19.5 1t12.5 1q12 0 12 -10t-12 -10q-3 0 -6.5 0.5t-10.5 1t-15 0.5q-13 0 -40 1t-41 1zM408 507v68q-17 98 -115 98q-61 0 -92.5 -38.5
t-35.5 -127.5h243z" />
    <glyph glyph-name="fi" unicode="fi" horiz-adv-x="600" 
d="M441 126v319q0 23 -12 30.5t-61 7.5h-164v-432q0 -20 7.5 -27t31.5 -7q9 0 19.5 1t13.5 1q11 0 11 -10t-11 -10q-2 0 -13 1t-20 1q-13 0 -40 1t-41 1t-41 -1t-40 -1q-8 0 -19 -1t-14 -1q-10 0 -10 10t10 10q4 0 14.5 -1t18.5 -1q24 0 31.5 7t7.5 27v432h-66q-7 0 -9 2
t-2 9v2q0 11 11 11h66v24q0 112 57.5 169.5t165.5 57.5q85 0 128.5 -34t43.5 -91q0 -22 -14 -36.5t-35 -14.5q-20 0 -33 13.5t-13 34.5q0 22 14 36.5t35 14.5q7 0 15 -3q-31 59 -128 59q-77 0 -114.5 -46t-37.5 -154v-30h157q32 0 79 4.5t62 4.5q13 0 18 -6t5 -21v-393
q0 -80 47 -80q8 0 16 2.5t11.5 5t9 7.5t6.5 5q12 11 18 2q6 -8 -6 -18q-29 -25 -82 -25t-78.5 31.5t-25.5 99.5z" />
    <glyph glyph-name="fl" unicode="fl" horiz-adv-x="647" 
d="M447 126v453q-2 73 -30.5 116.5t-87.5 43.5q-63 0 -95.5 -37.5t-32.5 -123.5v-71h128q9 0 9 -8v-7q0 -9 -9 -9h-128v-432q0 -20 7.5 -27t30.5 -7q9 0 19.5 1t13.5 1q11 0 11 -10t-11 -10q-2 0 -13 1t-20 1q-13 0 -39.5 1t-41.5 1q-14 0 -41 -1t-40 -1q-8 0 -18.5 -1
t-13.5 -1q-11 0 -11 10t11 10q3 0 13.5 -1t18.5 -1q24 0 31.5 7t7.5 27v432h-74q-7 0 -9 2t-2 9v2q0 11 11 11h74v46q0 101 55.5 153t161.5 52q82 0 124 -47q20 5 41.5 21t25.5 16q7 0 7 -13v-639q0 -80 47 -80q20 0 43 20q13 11 18 2q6 -8 -6 -18q-29 -25 -82 -25
t-78.5 31.5t-25.5 99.5z" />
    <glyph glyph-name="ffi" unicode="ffi" horiz-adv-x="888" 
d="M451 3q-14 0 -40.5 -1t-39.5 -1q-6 0 -18.5 -1t-15.5 -1q-10 0 -10 10t11 10q3 0 13.5 -1t19.5 -1q23 0 30.5 7t7.5 27v432h-243v-432q0 -20 7.5 -27t31.5 -7q9 0 19.5 1t12.5 1q12 0 12 -10t-12 -10q-3 0 -6.5 0.5t-10.5 1t-15 0.5q-13 0 -40 1t-41 1q-15 0 -41.5 -1
t-39.5 -1q-8 0 -15 -0.5t-11 -1t-6 -0.5q-12 0 -12 10t11 10q3 0 13.5 -1t19.5 -1q23 0 31 7t8 27v432h-78q-7 0 -9 2t-2 9v2q0 11 11 11h79q17 187 211 187q92 0 134 -53q47 117 204 117q85 0 128.5 -34t43.5 -91q0 -22 -14 -36.5t-35 -14.5q-20 0 -33 13.5t-13 34.5
q0 22 14 36.5t35 14.5q8 0 15 -3q-31 59 -128 59q-77 0 -114.5 -46t-37.5 -154v-30h155q32 0 79 4.5t62 4.5q13 0 18 -6t5 -21v-393q0 -80 47 -80q20 0 43 20q12 11 18 2q6 -8 -6 -18q-29 -25 -82 -25t-78.5 31.5t-25.5 99.5v319q0 23 -12 30.5t-61 7.5h-162v-432
q0 -20 8 -27t32 -7q8 0 18.5 1t13.5 1q11 0 11 -10t-11 -10q-2 0 -14 1t-18 1q-19 0 -46 1t-36 1zM409 507v24q0 26 2 39q-7 47 -36.5 75t-80.5 28q-61 0 -92.5 -38t-35.5 -128h243z" />
    <glyph glyph-name="ffl" unicode="ffl" horiz-adv-x="898" 
d="M454 3q-15 0 -41.5 -1t-39.5 -1q-8 0 -19 -1t-14 -1q-11 0 -11 10t11 10q3 0 13.5 -1t19.5 -1q23 0 30.5 7t7.5 27v432h-245v-432q0 -20 7.5 -27t31.5 -7q9 0 19 1t13 1q12 0 12 -10t-12 -10q-2 0 -13 1t-19 1q-13 0 -40 1t-41 1t-41 -1t-40 -1q-8 0 -19 -1t-14 -1
q-11 0 -11 10t11 10q3 0 13.5 -1t19.5 -1q23 0 31 7t8 27v432h-79q-7 0 -9 2t-2 9v2q0 11 11 11h80q17 187 211 187q88 0 132 -50q43 114 201 114q83 0 125 -47q20 5 41.5 21t25.5 16q7 0 7 -13v-639q0 -80 47 -80q8 0 16 2.5t11.5 5t9 7.5t6.5 5q12 11 18 2q5 -7 -6 -18
q-29 -25 -82 -25t-79 31.5t-26 99.5v460q-2 70 -31 111.5t-86 41.5q-63 0 -96 -38t-33 -123v-71h150q9 0 9 -8v-7q0 -9 -8 -9h-151v-432q0 -20 8 -27t32 -7q8 0 18.5 1t13.5 1q11 0 11 -10t-11 -10q-3 0 -14 1t-18 1q-13 0 -40 1t-41 1zM294 673q-61 0 -92.5 -38t-35.5 -128
h245v62q-6 47 -36 75.5t-81 28.5z" />
    <glyph glyph-name="f_j" unicode="fj" horiz-adv-x="565" 
d="M434 19v426q0 23 -12 30.5t-60 7.5h-158v-432q0 -20 7.5 -27t31.5 -7q9 0 19.5 1t13.5 1q11 0 11 -10t-11 -10q-2 0 -13 1t-20 1q-13 0 -40 1t-41 1t-41 -1t-40 -1q-8 0 -19 -1t-14 -1q-10 0 -10 10t10 10q4 0 14.5 -1t18.5 -1q24 0 31.5 7t7.5 27v432h-72q-7 0 -9 2
t-2 9v2q0 11 11 11h72v24q0 112 57.5 169.5t165.5 57.5q83 0 126.5 -33t45.5 -88v-4q0 -22 -14 -36.5t-35 -14.5q-20 0 -33 13.5t-13 34.5q0 22 14 36.5t35 14.5q7 0 15 -3q-31 59 -128 59q-77 0 -114.5 -46t-37.5 -154v-30h150q32 0 79.5 4.5t62.5 4.5q23 0 23 -27v-416
q0 -191 -154 -291q-20 -14 -35 -22q-13 -8 -19 2q-4 9 8 17q2 2 13 8t22 13q46 34 63 78.5t17 140.5z" />
    <glyph glyph-name="f_f_j" unicode="ffj" horiz-adv-x="854" 
d="M452 3q-15 0 -41.5 -1t-39.5 -1q-9 0 -20 -1t-13 -1q-11 0 -11 10t11 10q3 0 13.5 -1t19.5 -1q23 0 30.5 7t7.5 27v432h-243v-432q0 -20 7.5 -27t31.5 -7q9 0 19 1t13 1q12 0 12 -10t-12 -10q-2 0 -13 1t-19 1q-13 0 -40 1t-41 1q-15 0 -41.5 -1t-39.5 -1q-8 0 -19 -1
t-14 -1q-11 0 -11 10t11 10q3 0 13.5 -1t19.5 -1q23 0 31 7t8 27v432h-78q-7 0 -9 2t-2 9v2q0 11 11 11h79q17 187 211 187q92 0 134 -53q47 117 204 117q85 0 128.5 -34t43.5 -91q0 -22 -14 -36.5t-35 -14.5q-20 0 -33 13.5t-13 34.5q0 22 14 36.5t35 14.5q8 0 15 -3
q-31 59 -128 59q-77 0 -114.5 -46t-37.5 -154v-30h158q32 0 79 4.5t62 4.5q13 0 18 -6t5 -21v-416q0 -191 -154 -291q-24 -17 -34 -22q-14 -8 -19 2q-5 9 7 17q2 2 13 8t22 13q47 34 64 78.5t17 140.5v426q0 23 -12 30.5t-61 7.5h-165v-432q0 -20 8 -27t32 -7q8 0 18.5 1
t13.5 1q11 0 11 -10t-11 -10q-3 0 -14 1t-18 1q-13 0 -40 1t-41 1zM409 507v24q0 26 2 39q-7 47 -36.5 75t-80.5 28q-61 0 -92.5 -38t-35.5 -128h243z" />
    <glyph glyph-name=".notdef" horiz-adv-x="269" 
 />
    <glyph glyph-name=".null" horiz-adv-x="0" 
 />
    <glyph glyph-name="nonmarkingreturn" horiz-adv-x="333" 
 />
    <glyph glyph-name="NULL" horiz-adv-x="0" 
 />
    <glyph glyph-name="NULL" horiz-adv-x="0" 
 />
    <glyph glyph-name="CR" unicode="&#xd;" horiz-adv-x="247" 
 />
    <glyph glyph-name="space" unicode=" " horiz-adv-x="247" 
 />
    <glyph glyph-name="exclam" unicode="!" horiz-adv-x="269" 
d="M189 661q0 -39 -10.5 -99.5t-21 -157.5t-10.5 -224q0 -13 -11 -13q-10 0 -10 13q0 128 -11.5 224.5t-23 157t-11.5 99.5q0 64 54 64q29 0 42 -15.5t13 -48.5zM81 45q0 25 16 41.5t38 16.5t36.5 -14.5t14.5 -39.5q0 -24 -16 -40t-39 -16q-21 0 -35.5 14.5t-14.5 37.5z" />
    <glyph glyph-name="quotedbl" unicode="&#x22;" horiz-adv-x="346" 
d="M250 714q19 0 31.5 -12t12.5 -36q0 -18 -5 -34l-25 -131q-6 -20 -14 -20q-9 0 -15 20l-25 131q-5 16 -5 35q0 47 45 47zM97 714q20 0 32.5 -12t12.5 -37q0 -11 -5 -33l-26 -131q-6 -20 -14 -20q-9 0 -15 20l-25 131q-5 16 -5 35q0 47 45 47z" />
    <glyph glyph-name="numbersign" unicode="#" horiz-adv-x="566" 
d="M127 12l31 196h-114q-6 0 -8.5 2t-1.5 7l2 10q1 7 10 7h116l28 175h-117q-6 0 -8.5 1.5t-1.5 5.5l2 12q1 6 10 6h119l30 182q1 9 2.5 10.5t9.5 1.5h7h6t3 -2.5t0 -8.5l-30 -183h155l29 182q1 9 3 10.5t9 1.5h8h6t3 -2.5t0 -8.5l-30 -183h117q6 0 8 -1.5t1 -5.5l-2 -12
q-1 -6 -10 -6h-118l-28 -175h120q6 0 8 -1.5t1 -5.5l-2 -12q-1 -7 -10 -7h-121l-31 -195q-1 -10 -3 -11.5t-9 -1.5h-9h-5t-2.5 3t0.5 9l31 196h-155l-31 -195q-1 -10 -3 -11.5t-9 -1.5h-8h-4.5t-3 1t-1 3.5t0.5 7.5zM218 409l-28 -175h155l28 175h-155z" />
    <glyph glyph-name="dollar" unicode="$" horiz-adv-x="544" 
d="M263 787l-1 -78q5 1 17 1q20 0 30 -1l1 77q0 10 1.5 12.5t8.5 2.5t8.5 -2.5t1.5 -11.5l-1 -81q75 -11 115.5 -55t40.5 -112q0 -24 -16.5 -38.5t-38.5 -14.5q-21 0 -36 14.5t-15 37.5q0 25 16.5 41t38.5 16q12 0 23 -6q-25 78 -129 94l-3 -289q79 -31 123.5 -76.5
t44.5 -130.5q0 -86 -47 -134.5t-126 -60.5l-1 -94q0 -11 -2 -13.5t-9 -2.5t-8.5 3t-1.5 12l1 92q-26 -2 -38 -2h-9l-1 -89q0 -11 -1.5 -13.5t-8.5 -2.5t-8.5 3t-1.5 12l1 91q-87 6 -137.5 48.5t-50.5 118.5q0 27 15.5 43.5t41.5 16.5q24 0 39 -14.5t15 -40.5
q0 -27 -16 -40.5t-37 -13.5q-20 0 -34 11q12 -48 56 -75t108 -32l4 326q-40 14 -66 27t-53 35t-40.5 54t-13.5 74q0 79 48 126t130 56l1 78q0 10 2 12.5t8 2.5q7 0 9 -2.5t2 -11.5zM448 155q0 58 -32.5 92t-91.5 58l-4 -291q128 23 128 141zM104 558q0 -52 34 -81t99 -53
l3 260q-62 -8 -99 -40t-37 -86zM303 312l-46 17l-5 -320h10q25 0 37 2zM279 687q-12 0 -18 -1l-3 -269q36 -12 46 -16l4 285q-9 1 -29 1z" />
    <glyph glyph-name="percent" unicode="%" horiz-adv-x="898" 
d="M36 512q0 89 42.5 145t132.5 56t133 -56t43 -145q0 -88 -43 -145t-133 -57t-132.5 56.5t-42.5 145.5zM211 694q-97 0 -97 -183q0 -88 22 -135t75 -47q55 0 76.5 46t21.5 136q0 183 -98 183zM512 194q0 88 42.5 144.5t132.5 56.5q89 0 132.5 -56.5t43.5 -144.5
q0 -89 -43.5 -146t-132.5 -57q-90 0 -132.5 57t-42.5 146zM687 376q-97 0 -97 -183q0 -89 22 -135.5t75 -46.5q55 0 76.5 46.5t21.5 135.5q0 183 -98 183zM212 8l462 711q9 14 12 16t9 -2t6 -7.5t-6 -15.5l-465 -716q-9 -12 -19 -7t1 21z" />
    <glyph glyph-name="ampersand" unicode="&#x26;" horiz-adv-x="675" 
d="M405 559q0 25 16 41.5t38 16.5q12 0 22 -5q-19 34 -60.5 55.5t-93.5 21.5q-72 0 -112 -40.5t-40 -118.5q0 -74 37 -111t101 -39h294q16 0 21 -4.5t6 -19.5l6 -87q1 -18 2.5 -29.5t1.5 -15.5q0 -15 -9 -15q-10 0 -11 13q0 4 -0.5 17.5t-1.5 26.5q-5 48 -31 69t-93 25v-312
q0 -20 7 -26t30 -6q10 0 19 0.5t12 0.5q11 0 11 -10t-11 -10q-2 0 -11 1t-20 1q-13 0 -39 0.5t-40 0.5h-138q-125 0 -196.5 47t-71.5 144q0 79 50 126.5t125 53.5q-23 4 -43.5 12t-43.5 25t-36.5 47.5t-13.5 71.5q0 85 58.5 133.5t162.5 48.5q93 0 148 -40t55 -108
q0 -25 -14.5 -40.5t-39.5 -15.5q-23 0 -38 15t-15 39zM315 20l95 -1v342h-91q-81 0 -127.5 -43.5t-46.5 -128.5q0 -83 44 -125.5t126 -43.5z" />
    <glyph glyph-name="quotesingle" unicode="'" horiz-adv-x="193" 
d="M97 714q20 0 32.5 -12t12.5 -37q0 -11 -5 -33l-26 -131q-6 -20 -14 -20q-9 0 -15 20l-25 131q-5 16 -5 35q0 47 45 47z" />
    <glyph glyph-name="parenleft" unicode="(" horiz-adv-x="297" 
d="M242 -137q-92 72 -143 186t-51 247h70q0 -283 139 -417q13 -13 7 -20q-7 -7 -22 4zM242 728q15 13 22 4q6 -7 -7 -20q-139 -134 -139 -416h-70q0 133 51 246.5t143 185.5z" />
    <glyph glyph-name="parenright" unicode=")" horiz-adv-x="299" 
d="M57 -137q92 72 143 186t51 247h-73q0 -284 -136 -417q-13 -13 -7 -20q6 -8 22 4zM57 728q92 -72 143 -185.5t51 -246.5h-73q0 283 -136 416q-13 13 -7 20q7 9 22 -4z" />
    <glyph glyph-name="asterisk" unicode="*" horiz-adv-x="440" 
d="M233 528l-1 -1q12 -6 58 -22t68 -31q32 -21 16 -47q-16 -25 -49 -5q-22 14 -54.5 49.5t-45.5 44.5q1 -13 11.5 -60t10.5 -73q0 -16 -8 -27t-22 -11q-13 0 -22 10.5t-9 26.5q0 27 12.5 74t13.5 59q-10 -8 -45 -41t-57 -46q-32 -19 -49 7q-6 11 -1.5 23.5t17.5 20.5
q22 13 68.5 27.5t59.5 22.5q-11 7 -57.5 22t-68.5 30q-33 22 -16 45q8 12 21.5 12.5t26.5 -8.5q22 -14 56 -48t45 -42q-1 12 -13.5 60t-12.5 76q0 16 9 26.5t22 10.5q14 0 21.5 -11t7.5 -27q0 -27 -10 -74.5t-11 -61.5q14 8 48.5 43t57.5 48q32 18 47 -7q6 -12 1 -24.5
t-19 -20.5q-23 -14 -69 -29t-58 -21z" />
    <glyph glyph-name="plus" unicode="+" horiz-adv-x="463" 
d="M242 459v-166h174q12 0 12 -10q0 -7 -3 -9t-13 -2h-170v-182q0 -13 -11 -13q-8 0 -10.5 2.5t-2.5 9.5v183h-170q-6 0 -8.5 0.5t-3.5 2.5t-1 7q0 11 12 11h171v170q0 12 11 12q9 0 11 -3t2 -13z" />
    <glyph glyph-name="comma" unicode="," horiz-adv-x="216" 
d="M55 46q0 26 14.5 41.5t39.5 15.5q24 0 39 -17t15 -44q0 -45 -30 -89.5t-61 -67.5q-12 -10 -19 -3q-7 8 6 18q25 20 47 52t28 64q-12 -23 -38 -23q-17 0 -29 15t-12 38z" />
    <glyph glyph-name="hyphen" unicode="-" horiz-adv-x="403" 
d="M311 295h-222q-14 0 -18 1.5t-4 8.5q0 10 22 10h226q14 0 17.5 -2t3.5 -8q0 -10 -25 -10z" />
    <glyph glyph-name="period" unicode="." horiz-adv-x="217" 
d="M55 45q0 25 16.5 41.5t38.5 16.5q21 0 36 -14.5t15 -39.5q0 -24 -16.5 -40t-39.5 -16q-21 0 -35.5 14.5t-14.5 37.5z" />
    <glyph glyph-name="slash" unicode="/" horiz-adv-x="341" 
d="M41 -17l234 736q4 12 7.5 15t12.5 1q12 -3 6 -22l-237 -737q-6 -16 -19 -12q-10 3 -4 19z" />
    <glyph glyph-name="zero" unicode="0" horiz-adv-x="607" 
d="M304 -13q-118 0 -183 102.5t-65 262.5t64.5 259t183.5 99t182.5 -98.5t63.5 -258.5q0 -162 -64 -264t-182 -102zM459 353q0 159 -39.5 247.5t-115.5 88.5t-115.5 -89.5t-39.5 -247.5q0 -163 39.5 -253.5t115.5 -90.5t115.5 91t39.5 254z" />
    <glyph glyph-name="one" unicode="1" horiz-adv-x="377" 
d="M243 59q0 -24 10.5 -33t36.5 -9q13 0 31 1t24 1q11 0 11 -10t-11 -10q-4 0 -23.5 1t-31.5 1q-14 0 -45 1t-46 1t-46 -1t-45 -1q-12 0 -32 -1t-24 -1q-11 0 -11 10t11 10q5 0 24 -1t32 -1q26 0 36.5 9t10.5 33v522q0 34 -22 34q-8 0 -28 -5q-8 -3 -27 -10t-26 -8
q-13 -4 -14 7q-1 10 12 14q28 4 50 12q62 20 116 76q10 9 18 9q9 0 9 -13v-638z" />
    <glyph glyph-name="two" unicode="2" horiz-adv-x="526" 
d="M51 531q0 79 48.5 128.5t148.5 49.5q96 0 150.5 -49t54.5 -138q0 -27 -5.5 -51.5t-22 -53t-29.5 -48.5t-47 -57t-55 -59t-71.5 -73t-80.5 -81l-34 -37h247q49 0 68.5 14t25.5 51q3 20 3 43q0 22 10 22q9 0 9 -17q0 -9 -3 -22l-14 -128q-2 -15 -6.5 -20t-18.5 -5h-385
q-10 0 -10 8q0 7 17 25l63 67q143 156 197.5 246t54.5 177q0 79 -36 120t-102 41q-61 0 -100 -28.5t-52 -76.5q12 9 30 9q23 0 39 -15t16 -41t-17 -41.5t-40 -15.5t-38 15.5t-15 40.5z" />
    <glyph glyph-name="three" unicode="3" horiz-adv-x="525" 
d="M381 189q0 172 -151 172q-6 0 -15 -0.5t-11 -0.5q-16 0 -16 12q0 8 16 8h24q66 0 104 41t38 116q0 72 -35.5 111.5t-98.5 39.5q-47 0 -83.5 -20.5t-53.5 -55.5q10 5 22 5q23 0 39 -16t16 -42q0 -24 -14.5 -38.5t-38.5 -14.5q-25 0 -39.5 15.5t-14.5 39.5q0 68 49.5 108.5
t133.5 40.5q96 0 148.5 -46.5t52.5 -128.5q0 -43 -14.5 -75t-39 -49.5t-48 -26.5t-49.5 -13q75 -7 120.5 -52.5t45.5 -129.5q0 -94 -59.5 -148t-171.5 -54q-90 0 -142.5 43t-52.5 117h3q0 55 50 55q24 0 39 -14.5t15 -38.5q0 -25 -16.5 -42t-39.5 -17q-16 0 -27 8
q17 -40 59 -64.5t96 -24.5q78 0 119 46t41 134z" />
    <glyph glyph-name="four" unicode="4" horiz-adv-x="543" 
d="M9 144q0 4 13 20l109 142q87 111 113 162.5t26 101.5q0 10 -1.5 39t-1.5 49q0 24 14.5 38t39.5 14q24 0 37 -14.5t13 -38.5q0 -72 -67 -168q-26 -38 -156 -199l-104 -133h238v209q0 18 12 31q24 20 56 63q9 12 13 12q7 0 7 -14v-301h19q57 0 77 13t26 52q2 19 2 51
q0 15 11 15q10 0 10 -15q0 -2 -0.5 -6.5t-2.5 -19.5t-5 -36l-6 -51q-2 -14 -7 -19t-21 -5h-103v-81q0 -22 8.5 -30t33.5 -8q10 0 21 1t14 1q12 0 12 -10t-12 -10q-3 0 -15 1t-20 1q-14 0 -42.5 1t-42.5 1q-15 0 -44 -1t-42 -1q-9 0 -21 -1t-14 -1q-12 0 -12 10t12 10
q3 0 14 -1t21 -1q25 0 33 8t8 30v81h-261q-12 0 -12 8z" />
    <glyph glyph-name="five" unicode="5" horiz-adv-x="518" 
d="M373 197q0 195 -195 195h-85q-7 0 -9.5 2.5t-1.5 10.5l39 280q3 14 16 14h275q14 0 18 -5t5 -20l6 -110q1 -11 1.5 -20.5t1 -13.5t0.5 -8q0 -15 -9 -15q-8 0 -9 12q0 4 -0.5 15t-1.5 23q-3 41 -26.5 60.5t-77.5 19.5h-181l-32 -222h72q62 0 109.5 -9.5t88.5 -32.5
t63 -67.5t22 -108.5q0 -97 -60 -153.5t-166 -56.5q-92 0 -142.5 42t-50.5 116q0 24 14.5 39.5t38.5 15.5t39.5 -14.5t15.5 -38.5q0 -26 -17 -42.5t-40 -16.5q-16 0 -27 9q16 -40 57 -64t94 -24q75 0 115 48.5t40 139.5z" />
    <glyph glyph-name="six" unicode="6" horiz-adv-x="561" 
d="M376 569q0 26 16.5 42t40.5 16q14 0 23 -9q-15 31 -49.5 50.5t-78.5 19.5q-38 0 -67 -15t-48.5 -43.5t-32.5 -63.5t-20 -82t-10 -90.5t-3 -96.5q11 79 56.5 113.5t103.5 34.5q86 0 142.5 -54.5t56.5 -166.5q0 -116 -61 -175.5t-164 -59.5q-114 0 -168 77.5t-54 249.5
q0 178 63 286t190 108q80 0 126 -38t46 -101q0 -25 -14.5 -40.5t-39.5 -15.5q-24 0 -39 15t-15 39zM285 9q59 0 95 54.5t36 156.5q0 97 -34 149.5t-94 52.5q-61 0 -96 -53.5t-35 -152.5q0 -98 33.5 -152.5t94.5 -54.5z" />
    <glyph glyph-name="seven" unicode="7" horiz-adv-x="468" 
d="M463 691q0 -9 -10 -25l-122 -207q-106 -183 -106 -302q0 -27 13.5 -62t13.5 -51q0 -23 -15 -37.5t-39 -14.5t-37 14.5t-13 38.5q0 163 164 430l92 162h-258q-49 0 -69.5 -15t-25.5 -50q-2 -19 -2 -46q0 -18 -11 -18q-10 0 -10 15q0 2 1 6t2.5 16t2.5 31l12 98
q2 15 6.5 20t17.5 5h382q11 0 11 -8z" />
    <glyph glyph-name="eight" unicode="8" horiz-adv-x="571" 
d="M285 710q89 0 140.5 -45t51.5 -127q0 -68 -35.5 -105.5t-91.5 -46.5q28 -2 55.5 -14t54 -34t43 -61t16.5 -89q0 -99 -66 -150t-168 -51t-168 51.5t-66 150.5q0 50 17 89t44 61t54 33.5t54 13.5q-55 8 -90.5 46t-35.5 107q0 82 51 126.5t140 44.5zM139 191
q0 -95 40.5 -139t105.5 -44q66 0 106.5 44.5t40.5 137.5q0 87 -36 136.5t-111 49.5q-146 0 -146 -185zM284 690q-53 0 -81.5 -38.5t-28.5 -112.5q0 -143 110 -143q112 0 112 142q0 73 -29 112.5t-83 39.5z" />
    <glyph glyph-name="nine" unicode="9" horiz-adv-x="567" 
d="M174 131q0 -25 -16.5 -42t-38.5 -17q-17 0 -26 9q17 -32 52.5 -51t80.5 -19q48 0 83.5 22.5t55.5 57.5t32.5 88t16.5 104t4 115q-10 -76 -55 -110t-106 -34q-86 0 -142 55t-56 169q0 113 61.5 172.5t158.5 59.5q118 0 173.5 -76.5t55.5 -245.5q0 -181 -66 -290t-199 -109
q-81 0 -128.5 38t-47.5 101q0 25 14.5 40.5t39.5 15.5q23 0 38 -14.5t15 -38.5zM279 690q-59 0 -94 -54.5t-35 -155.5q0 -98 33.5 -150.5t94.5 -52.5t96 54t35 156q0 96 -33 149.5t-97 53.5z" />
    <glyph glyph-name="colon" unicode=":" horiz-adv-x="241" 
d="M68 45q0 25 16 41.5t38 16.5q21 0 36 -14.5t15 -39.5q0 -24 -16.5 -40t-38.5 -16t-36 14t-14 38zM68 453q0 25 16 41.5t38 16.5q21 0 36 -15t15 -39t-16.5 -40t-38.5 -16t-36 14t-14 38z" />
    <glyph glyph-name="semicolon" unicode=";" horiz-adv-x="261" 
d="M78 453q0 25 16.5 41.5t38.5 16.5q21 0 36 -15t15 -39t-16.5 -40t-39.5 -16q-22 0 -36 14.5t-14 37.5zM81 46q0 26 14.5 41.5t39.5 15.5q24 0 39 -17t15 -44q0 -45 -30 -89.5t-61 -67.5q-12 -10 -19 -3q-7 8 6 18q25 20 47 52t28 64q-12 -23 -38 -23q-17 0 -29 15t-12 38
z" />
    <glyph glyph-name="less" unicode="&#x3c;" horiz-adv-x="573" 
d="M60 270l442 -197q10 -6 13 -9.5t0 -10.5q-6 -12 -30 -1l-432 196q-10 5 -14 8t-7 6.5t-3 7.5h31zM502 468l-442 -198h-31q0 11 24 22l431 196q26 12 31 -1q3 -8 0.5 -11t-13.5 -8z" />
    <glyph glyph-name="equal" unicode="=" horiz-adv-x="562" 
d="M473 368h-388q-12 0 -12 9q0 11 11 11h392q12 0 12 -9q0 -7 -2.5 -9t-12.5 -2zM473 195h-388q-8 0 -10 1.5t-2 7.5q0 11 11 11h392q12 0 12 -9q0 -7 -2.5 -9t-12.5 -2z" />
    <glyph glyph-name="greater" unicode="&#x3e;" horiz-adv-x="572" 
d="M512 270l-441 -197q-11 -5 -13.5 -8.5t0.5 -11.5q6 -12 38 3l423 192q25 11 25 22h-32zM512 270l-441 198q-11 5 -13.5 8t0.5 11q5 12 39 -3l422 -192q25 -11 25 -22h-32z" />
    <glyph glyph-name="question" unicode="?" horiz-adv-x="509" 
d="M31 538v5q2 66 56 116.5t157 50.5q105 0 163 -54t58 -141q0 -46 -22.5 -86t-55 -67.5t-65 -53.5t-55 -56t-22.5 -63v-10q0 -11 -1.5 -14t-6.5 -3q-7 0 -9 3t-2 14v13q0 43 23 85t50.5 71.5t50.5 75.5t23 97q0 74 -36.5 118.5t-109.5 44.5q-62 0 -103.5 -25.5t-59.5 -65.5
q16 7 29 7q24 0 41.5 -17t17.5 -44q0 -28 -18.5 -44.5t-44.5 -16.5q-25 0 -41.5 16.5t-16.5 43.5zM183 45q0 25 16.5 41.5t38.5 16.5t36.5 -14.5t14.5 -39.5q0 -24 -16.5 -40t-38.5 -16t-36.5 14.5t-14.5 37.5z" />
    <glyph glyph-name="at" unicode="@" horiz-adv-x="842" 
d="M802 396q0 -107 -58 -183t-138 -76q-86 0 -94 80q-22 -38 -54.5 -59t-68.5 -21q-63 0 -108.5 41.5t-45.5 119.5q0 99 58.5 174t154.5 75q161 0 161 -152q0 -42 -15 -111.5t-15 -86.5q0 -22 9 -31t31 -9q48 0 84.5 59t36.5 178q0 148 -85 223.5t-209 75.5
q-154 0 -241.5 -97t-87.5 -260q0 -164 86.5 -249t235.5 -85q103 0 187 32q7 2 32 17q19 11 23 0q3 -10 -13 -19q-3 -2 -30 -14q-83 -35 -205 -35q-168 0 -274.5 97.5t-106.5 256.5q0 160 108.5 267t284.5 107q153 0 255 -85.5t102 -229.5zM399 159q52 0 95 71t43 168
q0 130 -90 130q-61 0 -100.5 -72t-39.5 -165q0 -132 92 -132z" />
    <glyph glyph-name="A" unicode="A" horiz-adv-x="659" 
d="M479 73l-53 147h-257l-53 -148q-8 -20 -8 -34q0 -21 32 -21q8 0 20 1.5t16 1.5q14 0 14 -9q0 -12 -16 -12q-4 0 -29.5 2t-61.5 2q-15 0 -40.5 -2t-39.5 -2t-14 11q0 9 14 9q5 0 15 -1t14 -1q19 0 32.5 12.5t27.5 50.5l218 602q9 28 18 28q8 0 17 -27l220 -594
q18 -48 28.5 -60t34.5 -12q6 0 15 1t13 1q15 0 15 -9q0 -11 -15 -11q-14 0 -52 2t-53 2q-36 0 -80 -2t-48 -2q-15 0 -15 11q0 9 13 9q4 0 15.5 -1t19.5 -1q31 0 31 23q0 11 -8 33zM297 578l-120 -336h241z" />
    <glyph glyph-name="B" unicode="B" horiz-adv-x="643" 
d="M301 703q124 0 188 -40.5t64 -130.5q0 -71 -42 -110t-101 -47v-1q93 -12 138.5 -55.5t45.5 -128.5q0 -48 -16 -83t-41 -55t-63.5 -32t-75.5 -16t-85 -4h-143q-25 0 -64.5 -2t-50.5 -2q-12 0 -12 10t11 10q2 0 13 -1t19 -1q24 0 32 7t8 27v603q0 20 -8 26.5t-32 6.5
q-8 0 -19 -0.5t-13 -0.5q-11 0 -11 10t12 10q11 0 52.5 -1.5t63.5 -1.5q23 0 59 1.5t48 1.5h23zM213 362v-310q0 -21 7.5 -26.5t36.5 -5.5h56q188 0 188 170q0 172 -198 172h-90zM213 651v-269h92q157 0 157 151q0 82 -40.5 116t-118.5 34h-19q-47 0 -59 -5t-12 -27z" />
    <glyph glyph-name="C" unicode="C" horiz-adv-x="652" 
d="M146 348q0 -339 244 -339q96 0 184 44q7 3 16 9.5t14 9.5q12 8 18 -2q5 -11 -9 -18q-3 -2 -16 -7.5t-18 -8.5q-102 -49 -198 -49q-151 0 -239.5 92t-88.5 270q0 162 86 261.5t238 99.5q64 0 110.5 -17t71.5 -46t36.5 -60t11.5 -65q0 -25 -17.5 -40.5t-40.5 -15.5
t-38.5 15t-15.5 41t15.5 42t40.5 16q14 0 28 -7q-14 51 -63 83.5t-129 32.5q-64 0 -111.5 -27t-75 -75t-41 -108t-13.5 -131z" />
    <glyph glyph-name="D" unicode="D" horiz-adv-x="726" 
d="M126 51v600q0 20 -7.5 27t-31.5 7q-9 0 -19 -1t-13 -1q-11 0 -11 10t12 10q8 0 49 -2t65 -2q32 0 70.5 2t50.5 2q180 0 280.5 -86t100.5 -269q0 -348 -382 -348q-21 0 -61.5 1.5t-59.5 1.5q-17 0 -60.5 -2t-49.5 -2q-15 0 -15 10t11 10q3 0 13 -1t19 -1q24 0 31.5 7
t7.5 27zM286 19q154 0 222.5 78t68.5 255q0 180 -70.5 256t-229.5 76q-42 0 -52.5 -6t-10.5 -26v-605q0 -17 12.5 -22.5t59.5 -5.5z" />
    <glyph glyph-name="E" unicode="E" horiz-adv-x="617" 
d="M157 0q-23 0 -58.5 -0.5t-43.5 -0.5q-13 0 -13 10q0 9 12 9q2 0 13 -1t20 -1q22 0 30.5 6.5t8.5 25.5v607q0 19 -8 25.5t-32 6.5q-8 0 -19 -2t-13 -2q-11 0 -11 10q0 11 13 11q8 0 42.5 -0.5t58.5 -0.5h354q16 0 21 -5t6 -20l5 -87q1 -16 2.5 -28.5t1.5 -16.5
q0 -16 -9 -16t-10 14v15t-2 29q-5 50 -39.5 72.5t-116.5 22.5h-157v-329h89q97 0 97 70q0 6 -0.5 15.5t-0.5 11.5q0 13 11 13q10 0 10 -13q0 -2 -1 -11.5t-1 -15.5q0 -13 -1 -37.5t-1 -41.5t1 -43t1 -39q0 -6 1 -15t1 -11q0 -14 -10 -14q-11 0 -11 14q0 2 0.5 11t0.5 15
q0 71 -97 71h-89v-314h119q61 0 102.5 9.5t64.5 27.5t33.5 39t13.5 50q2 15 2 41q0 16 12 16q9 0 9 -17q0 -3 -0.5 -8.5t-1.5 -15.5l-2 -20l-11 -117q-1 -15 -6.5 -20t-20.5 -5h-370z" />
    <glyph glyph-name="F" unicode="F" horiz-adv-x="576" 
d="M426 341q0 -17 1 -43t1 -39q0 -6 1 -15t1 -11q0 -13 -11 -13t-11 13q0 2 1 11t1 15q0 71 -97 71h-99v-287q1 -15 9 -20.5t30 -5.5q9 0 19 1t13 1q13 0 13 -10t-13 -10q-2 0 -13 1t-19 1q-22 0 -66 2h-17q-14 0 -42 -1t-41 -1q-8 0 -19 -1t-14 -1q-12 0 -12 10t12 10
q4 0 14.5 -1t18.5 -1q22 0 29.5 5.5t9.5 20.5v612q0 19 -7.5 25t-31.5 6q-9 0 -19 -1.5t-13 -1.5q-13 0 -13 10q0 11 14 11q8 0 36.5 -0.5t47.5 -0.5h376q16 0 21.5 -5t6.5 -20l5 -87q1 -16 2.5 -28.5t1.5 -16.5q0 -16 -9 -16t-10 14q0 4 -0.5 16t-1.5 28q-5 50 -39.5 72.5
t-117.5 22.5h-161v-333h99q97 0 97 70q0 6 -1 15.5t-1 11.5q0 13 11 13t11 -13q0 -2 -1 -11.5t-1 -15.5q0 -13 -1 -37.5t-1 -41.5z" />
    <glyph glyph-name="G" unicode="G" horiz-adv-x="693" 
d="M511 521q0 26 17 42.5t39 16.5q15 0 30 -10q-17 51 -72.5 85t-137.5 34q-124 0 -182.5 -87t-58.5 -259q0 -334 225 -334q33 0 62 7.5t54.5 24t40.5 48t15 75.5v133q0 20 -18 20h-50q-15 0 -34 -1t-23 -1q-13 0 -13 10q0 11 16 11q3 0 21.5 -0.5t32.5 -0.5h141
q11 0 11 -10v-316q0 -17 -9 -17q-11 0 -11 16q-3 70 -22 70q-7 0 -16 -7t-23.5 -19.5t-27.5 -21.5q-66 -43 -155 -43q-139 0 -224 92.5t-85 265.5q0 169 85 267t243 98q118 0 180 -55t62 -132q0 -26 -17.5 -41.5t-41.5 -15.5q-23 0 -38.5 15t-15.5 40z" />
    <glyph glyph-name="H" unicode="H" horiz-adv-x="756" 
d="M170 699q15 0 42.5 1t40.5 1q9 0 20 1t13 1q11 0 11 -10t-11 -10q-3 0 -13.5 1t-19.5 1q-23 0 -30.5 -7t-7.5 -27v-291h327v291q0 20 -8 27t-31 7q-8 0 -18.5 -1t-14.5 -1q-11 0 -11 10t11 10q3 0 14 -1t19 -1q13 0 41 -1t42 -1t41.5 1t40.5 1q8 0 19 1t14 1q11 0 11 -10
t-11 -10q-4 0 -14 1t-19 1q-23 0 -31 -7t-8 -27v-600q0 -20 8 -27t31 -7q9 0 19 1t14 1q13 0 13 -10t-13 -10q-3 0 -14 1t-19 1q-13 0 -40.5 1t-41.5 1t-42 -1t-41 -1q-8 0 -19 -1t-14 -1q-12 0 -12 10t12 10q4 0 14.5 -1t18.5 -1q23 0 31 7t8 27v288h-327v-288
q0 -20 7.5 -27t30.5 -7q9 0 19.5 1t13.5 1q13 0 13 -10t-13 -10q-2 0 -13 1t-20 1q-13 0 -40.5 1t-42.5 1q-14 0 -41.5 -1t-40.5 -1q-8 0 -19 -1t-14 -1q-12 0 -12 10t12 10q3 0 13.5 -1t19.5 -1q23 0 31 7t8 27v600q0 20 -8 27t-31 7q-9 0 -19.5 -1t-13.5 -1q-11 0 -11 10
t11 10q3 0 14 -1t19 -1q13 0 40.5 -1t41.5 -1z" />
    <glyph glyph-name="I" unicode="I" horiz-adv-x="342" 
d="M170 699q15 0 42.5 1t40.5 1q9 0 20 1t13 1q11 0 11 -10t-11 -10q-3 0 -13.5 1t-19.5 1q-23 0 -30.5 -7t-7.5 -27v-600q0 -20 7.5 -27t30.5 -7q9 0 19.5 1t13.5 1q13 0 13 -10t-13 -10q-2 0 -13 1t-20 1q-13 0 -40.5 1t-42.5 1q-14 0 -41.5 -1t-40.5 -1q-8 0 -19 -1
t-14 -1q-12 0 -12 10t12 10q3 0 13.5 -1t19.5 -1q23 0 31 7t8 27v600q0 20 -8 27t-31 7q-9 0 -19.5 -1t-13.5 -1q-11 0 -11 10t11 10q3 0 14 -1t19 -1q13 0 40.5 -1t41.5 -1z" />
    <glyph glyph-name="J" unicode="J" horiz-adv-x="325" 
d="M19 -113q51 32 76 81t25 145v538q0 20 -7.5 27t-31.5 7q-9 0 -19.5 -1t-13.5 -1q-11 0 -11 10t11 10q2 0 13 -1t20 -1q13 0 40.5 -1t42.5 -1q14 0 42 1t41 1q7 0 18 1t14 1q11 0 11 -10t-11 -10q-3 0 -13.5 1t-18.5 1q-24 0 -32 -7t-8 -27v-482q0 -109 -45.5 -179.5
t-130.5 -120.5q-3 -2 -10.5 -6t-14 -8t-8.5 -4q-17 -8 -21 2t7 16q31 16 35 18z" />
    <glyph glyph-name="K" unicode="K" horiz-adv-x="684" 
d="M170 3q-14 0 -41.5 -1t-40.5 -1q-8 0 -19 -1t-14 -1q-12 0 -12 10t12 10q3 0 13.5 -1t19.5 -1q23 0 31 7t8 27v600q0 19 -8 26.5t-31 7.5q-9 0 -19.5 -1t-13.5 -1q-11 0 -11 10t11 10q3 0 14 -1t19 -1q13 0 40.5 -1t41.5 -1q15 0 42.5 1t40.5 1q9 0 20 1t13 1
q11 0 11 -10t-11 -10q-3 0 -13.5 1t-19.5 1q-23 0 -30.5 -7.5t-7.5 -26.5v-329l293 320q38 42 -7 42q-8 0 -20.5 -0.5t-15.5 -0.5q-15 0 -15 8q0 12 17 12q4 0 31.5 -3t54.5 -3q16 0 47 3t46 3t15 -11q0 -9 -15 -9q-6 0 -14.5 0.5t-15.5 0.5q-27 0 -40.5 -8t-37.5 -36
l-223 -244h8q95 0 141.5 -45.5t72.5 -154.5q45 -186 108 -186q19 0 45 15q13 8 18 -1q4 -9 -10 -17q-29 -18 -74 -18q-76 0 -114.5 44.5t-64.5 155.5q-22 95 -52 142t-90 47h-5l-83 -92v-235q0 -20 7.5 -27t30.5 -7q9 0 19.5 1t13.5 1q13 0 13 -10t-13 -10q-2 0 -13 1t-20 1
q-13 0 -40.5 1t-42.5 1z" />
    <glyph glyph-name="L" unicode="L" horiz-adv-x="593" 
d="M140 0q-17 0 -45.5 -2t-37.5 -2q-13 0 -13 10t12 10q2 0 12 -1t19 -1q24 0 32 7t8 27v608q-1 16 -9.5 22.5t-30.5 6.5q-8 0 -18.5 -1t-13.5 -1q-11 0 -11 10t11 10q3 0 14 -1t18 -1q14 0 41.5 -1t41.5 -1q15 0 42.5 1t40.5 1q9 0 20 1t13 1q11 0 11 -10t-11 -10
q-3 0 -13.5 1t-19.5 1q-21 0 -29 -6t-9 -21v-638h119q61 0 102.5 9.5t64.5 27.5t33.5 39t13.5 50q2 23 2 41q0 16 11 16q10 0 10 -17q0 -4 -2 -17.5t-3 -26.5l-11 -117q-1 -15 -6 -20t-21 -5h-388z" />
    <glyph glyph-name="M" unicode="M" horiz-adv-x="889" 
d="M140 3q-12 0 -28.5 -1t-25.5 -1q-8 0 -19.5 -1t-14.5 -1q-11 0 -11 10t11 10q3 0 14 -1t20 -1q24 0 32 7t8 27v606q-1 16 -9.5 22.5t-30.5 6.5q-9 0 -20 -1.5t-13 -1.5q-13 0 -13 10q0 11 14 11q7 0 36.5 -1.5t48.5 -1.5h64q16 0 26 -21l223 -564l219 568q5 10 9 13.5
t15 3.5h47q20 0 52 1t41 1q15 0 15 -10t-14 -10q-2 0 -13 1.5t-20 1.5q-24 0 -32 -7t-8 -27v-601q0 -20 8 -27t32 -7q9 0 20 1t14 1q12 0 12 -10t-12 -10q-3 0 -14.5 1t-19.5 1q-13 0 -37.5 1t-39.5 1q-14 0 -42.5 -1t-41.5 -1q-8 0 -19.5 -1t-14.5 -1q-11 0 -11 10t11 10
q4 0 14.5 -1t19.5 -1q24 0 32.5 7t8.5 27v587l-250 -641q-3 -7 -11 -7h-2q-7 0 -11 7l-256 635v-41h-1v-540q0 -20 8 -27t32 -7q9 0 19.5 1t14.5 1q11 0 11 -10t-11 -10q-2 0 -14 1t-20 1q-9 0 -25 1t-27 1z" />
    <glyph glyph-name="N" unicode="N" 
d="M600 699q9 0 25.5 1t26.5 1q8 0 19 1t14 1q11 0 11 -10t-11 -10q-4 0 -14.5 1t-18.5 1q-24 0 -32 -7t-8 -27v-645q0 -18 -8 -18t-19 17l-435 618v-572q0 -20 8 -27t32 -7q8 0 18.5 1t13.5 1q11 0 11 -10t-11 -10q-2 0 -13 1t-19 1q-10 0 -26 1t-26 1q-9 0 -25.5 -1
t-26.5 -1q-7 0 -18.5 -1t-14.5 -1q-10 0 -10 10t10 10q4 0 14.5 -1t18.5 -1q24 0 32 7t8 27v600q0 20 -8.5 26.5t-31.5 6.5q-8 0 -19 -0.5t-13 -0.5q-11 0 -11 10t12 10q5 0 32.5 -2t46.5 -2h53q16 0 27 -15l373 -532v499q0 20 -7.5 27t-30.5 7q-9 0 -19.5 -1t-13.5 -1
q-12 0 -12 10t12 10q2 0 13.5 -1t19.5 -1q9 0 25 -1t26 -1z" />
    <glyph glyph-name="O" unicode="O" horiz-adv-x="749" 
d="M53 347q0 53 9 102t32 97.5t58.5 84t92.5 57.5t129 22q86 0 150.5 -30t100.5 -82.5t53.5 -114.5t17.5 -134q0 -52 -9 -100.5t-32 -97.5t-58.5 -84.5t-92.5 -57.5t-130 -22q-69 0 -124.5 20t-92 54t-60.5 81t-34 98t-10 107zM374 689q-229 0 -229 -340q0 -341 229 -341
q69 0 116 28t70.5 78.5t33 106t9.5 125.5q0 343 -229 343z" />
    <glyph glyph-name="P" unicode="P" horiz-adv-x="609" 
d="M170 3q-14 0 -42 -1t-41 -1q-7 0 -18.5 -1t-14.5 -1q-12 0 -12 10t12 10q4 0 14.5 -1t18.5 -1q24 0 31.5 7t7.5 27v600q0 20 -7.5 26.5t-31.5 6.5q-9 0 -19.5 -0.5t-12.5 -0.5q-12 0 -12 10t13 10q10 0 49.5 -1.5t66.5 -1.5q20 0 51 1.5t51 1.5h10q147 0 219.5 -51
t72.5 -168q0 -116 -73.5 -168.5t-218.5 -52.5h-70v-212q0 -20 7.5 -27t31.5 -7q9 0 19 1t13 1q13 0 13 -10t-13 -10q-2 0 -13 1t-19 1q-13 0 -41 1t-42 1zM214 284h69q103 0 152.5 49t49.5 152t-49.5 150t-154.5 47h-11q-37 0 -46.5 -6t-9.5 -25v-367z" />
    <glyph glyph-name="Q" unicode="Q" horiz-adv-x="749" 
d="M53 347q0 53 9 102t32 97.5t58.5 84t92.5 57.5t129 22q86 0 150.5 -30t100.5 -82.5t53.5 -114.5t17.5 -134q0 -57 -11.5 -109.5t-36.5 -102.5t-72 -87t-110 -52q57 -6 103 -24.5t74.5 -41t51 -44.5t43.5 -37.5t42 -17.5q25 -2 48 10q14 6 19 -5q4 -13 -14 -16
q-29 -7 -80 -7q-56 0 -100.5 17.5t-74 43t-56.5 51t-61.5 43t-74.5 17.5v1q-2 0 -6 -0.5t-6 -0.5q-69 0 -124.5 20t-92 54t-60.5 81t-34 98t-10 107zM374 689q-229 0 -229 -340q0 -341 229 -341q69 0 116 28t70.5 78.5t33 106t9.5 125.5q0 343 -229 343z" />
    <glyph glyph-name="R" unicode="R" horiz-adv-x="687" 
d="M170 3q-38 0 -75.5 -2t-38.5 -2q-13 0 -13 10t12 10q2 0 12.5 -1t19.5 -1q24 0 31.5 7t7.5 27v600q0 20 -7.5 26.5t-31.5 6.5q-9 0 -19.5 -0.5t-12.5 -0.5q-12 0 -12 10t13 10q10 0 49.5 -1.5t62.5 -1.5q22 0 54 1.5t44 1.5h21q140 0 210.5 -49t70.5 -155
q0 -166 -185 -189q55 -14 90 -46.5t59 -86.5q49 -112 60 -129q21 -34 53 -34q15 0 42 16q10 6 15 -2q4 -8 -6 -15q-28 -19 -87 -19q-56 0 -90.5 34t-73.5 123q-33 74 -71 112.5t-106 41.5h-54v-254q0 -20 7.5 -27t31.5 -7q9 0 19.5 1t12.5 1q12 0 12 -10t-13 -10q-3 0 -38 2
t-76 2zM214 325h83q88 0 133.5 45.5t45.5 132.5q0 93 -46 136.5t-140 43.5h-46q-17 0 -23.5 -6.5t-6.5 -23.5v-328z" />
    <glyph glyph-name="S" unicode="S" horiz-adv-x="544" 
d="M439 150q0 54 -38 91.5t-92 61t-107.5 49t-91.5 70.5t-38 110q0 88 54 133t142 45q77 0 134 -37q24 -16 28 -16q8 0 6 31q0 16 11 16q8 0 9 -11v-14.5t1 -19.5l5 -101q1 -14 2 -23t2 -14t1 -8q0 -15 -10 -15q-9 0 -9 11l-3 30q-6 76 -57 111.5t-118 35.5
q-148 0 -148 -121q0 -49 38 -83t92 -57t107.5 -49t91.5 -75.5t38 -120.5q0 -93 -58 -140.5t-156 -47.5q-87 0 -148 37q-27 17 -33 17q-9 0 -9 -26q0 -12 -8 -12t-10 23l-5 106q-1 24 -3.5 41t-2.5 21q0 14 9 14q10 0 13 -27q4 -61 37.5 -101.5t74 -55t86.5 -14.5
q72 0 117.5 34t45.5 101z" />
    <glyph glyph-name="T" unicode="T" horiz-adv-x="572" 
d="M513 703q16 0 21 -5t6 -20l6 -87q1 -17 2.5 -29.5t1.5 -15.5q0 -15 -9 -15q-10 0 -10 13l-3 44q-5 50 -31.5 71.5t-100.5 23.5h-66v-632q0 -20 8 -27t31 -7q8 0 18.5 1t14.5 1q11 0 11 -10t-11 -10q-3 0 -14 1t-19 1q-13 0 -41 1t-42 1t-42 -1t-41 -1q-8 0 -18.5 -1
t-13.5 -1q-11 0 -11 10t11 10q3 0 13.5 -1t18.5 -1q24 0 32 7t8 27v632h-51q-84 0 -114 -21t-35 -74q-1 -16 -1.5 -28t-0.5 -16q-1 -13 -10 -13t-9 15q0 4 1.5 16.5t2.5 28.5l6 87q1 15 5.5 20t21.5 5h454z" />
    <glyph glyph-name="U" unicode="U" 
d="M606 699q9 0 25.5 1t26.5 1q8 0 19 1t14 1q11 0 11 -10t-11 -10q-3 0 -13.5 1t-19.5 1q-23 0 -31 -7.5t-8 -26.5v-393q0 -137 -61.5 -204t-190.5 -67q-131 0 -193 68.5t-62 204.5v391q0 19 -7.5 26.5t-30.5 7.5q-9 0 -19.5 -1t-13.5 -1q-11 0 -11 10t11 10q2 0 13.5 -1
t19.5 -1q13 0 40.5 -1t42.5 -1q14 0 41.5 1t41.5 1q7 0 18 1t14 1q11 0 11 -10t-11 -10q-3 0 -13.5 1t-18.5 1q-23 0 -31.5 -7.5t-8.5 -26.5v-390q0 -124 42.5 -185.5t144.5 -61.5q207 0 207 244v393q0 19 -8 26.5t-31 7.5q-8 0 -18.5 -1t-14.5 -1q-10 0 -10 10t10 10
q3 0 14 -1t19 -1q9 0 26 -1t25 -1z" />
    <glyph glyph-name="V" unicode="V" horiz-adv-x="655" 
d="M176 629l183 -515l181 515q9 25 9 37q0 19 -32 19q-8 0 -20.5 -1t-15.5 -1q-14 0 -14 8q0 12 16 12q3 0 27 -2.5t58 -2.5q16 0 43.5 2.5t42.5 2.5q14 0 14 -11q0 -9 -14 -9q-7 0 -16.5 1t-12.5 1q-22 -1 -33.5 -12.5t-26.5 -51.5l-224 -622q-5 -12 -11 -12q-8 0 -12 12
l-233 632q-12 33 -23 43.5t-33 10.5q-7 0 -15 -1t-14 -1q-14 0 -14 9q0 11 14 11q15 0 57.5 -2.5t58.5 -2.5q33 0 71.5 2.5t41.5 2.5q17 0 17 -11q0 -9 -14 -9q-4 0 -16.5 1t-20.5 1q-27 0 -27 -21q0 -15 8 -35z" />
    <glyph glyph-name="W" unicode="W" horiz-adv-x="947" 
d="M869 642l-190 -639q-4 -15 -10 -15h-1q-7 0 -12 15l-184 565l-181 -565q-5 -15 -12 -15h-2q-6 0 -11 15l-183 628q-9 32 -20.5 43t-30.5 11q-8 0 -16 -1t-14 -1q-14 0 -14 9q0 11 15 11t57 -2.5t64 -2.5q28 0 64 2.5t39 2.5q17 0 17 -11q0 -9 -14 -9q-3 0 -14 1t-22 1
q-27 0 -27 -20q0 -14 7 -36l135 -492l184 564q3 8 10 8h2q5 0 9 -8l180 -567l148 509q6 23 0.5 32.5t-25.5 9.5q-9 0 -20.5 -1t-15.5 -1q-14 0 -14 9q0 11 17 11q5 0 31 -2.5t48 -2.5q14 0 43.5 2.5t41.5 2.5q16 0 16 -11q0 -9 -13 -9q-6 0 -16 1t-17 1q-37 0 -49 -43z" />
    <glyph glyph-name="X" unicode="X" horiz-adv-x="625" 
d="M210 629l126 -223l153 237q20 32 15 38q-5 4 -15 4q-11 0 -22 -1t-14 -1q-13 0 -13 9q0 11 15 11q7 0 33 -1.5t38 -1.5q10 0 39 1.5t44 1.5q13 0 13 -11q0 -9 -13 -9q-6 0 -13.5 1t-14.5 1q-22 0 -35.5 -9t-32.5 -39l-164 -253l160 -281q31 -57 47.5 -71.5t39.5 -14.5
q7 0 15.5 1t11.5 1q14 0 14 -9q0 -11 -14 -11q-13 0 -58 2.5t-65 2.5q-22 0 -60.5 -2.5t-49.5 -2.5q-15 0 -15 11q0 9 14 9q3 0 15 -1t19 -1q21 0 23 10.5t-17 46.5l-137 241l-170 -257q-27 -41 9 -41q11 0 21.5 1t13.5 1q13 0 13 -8q0 -12 -15 -12q-4 0 -29 2.5t-52 2.5
q-15 0 -41.5 -2.5t-38.5 -2.5q-14 0 -14 11q0 9 14 9q5 0 12.5 -1t14.5 -1q22 0 36 10t36 43l177 268l-169 297q-17 30 -30.5 40t-35.5 10q-7 0 -15 -1t-13 -1q-13 0 -13 9q0 11 13 11q14 0 61 -2t61 -2q34 0 71.5 2t39.5 2q16 0 16 -11q0 -9 -14 -9q-3 0 -15.5 1t-19.5 1
q-22 0 -23.5 -10.5t17.5 -45.5z" />
    <glyph glyph-name="Y" unicode="Y" horiz-adv-x="642" 
d="M325 3q-13 0 -41 -1t-42 -1q-8 0 -18.5 -1t-13.5 -1q-11 0 -11 10t11 10q3 0 13.5 -1t18.5 -1q24 0 32 7t8 27v231l-197 368q-9 17 -19.5 25t-17 9t-18.5 1q-6 0 -14 -1t-15 -1q-14 0 -14 9q0 11 14 11q15 0 60 -2t60 -2q34 0 71.5 2t40.5 2q16 0 16 -12q0 -8 -14 -8
q-3 0 -14 1t-23 1q-21 0 -22 -10t17 -46l160 -310l171 336q6 11 8 15.5t-1.5 9.5t-17.5 5q-8 0 -20.5 -1t-15.5 -1q-15 0 -15 8q0 12 17 12q3 0 21 -2t53 -2q15 0 38 2t39 2q14 0 14 -11q0 -9 -14 -9q-6 0 -14 1t-13 1q-22 0 -32.5 -6.5t-22.5 -28.5l-179 -349v-250
q0 -20 7.5 -27t31.5 -7q9 0 19 1t14 1q11 0 11 -10t-11 -10q-3 0 -14 1t-19 1q-13 0 -41 1t-42 1z" />
    <glyph glyph-name="Z" unicode="Z" horiz-adv-x="590" 
d="M520 703q12 0 12 -9q0 -12 -7 -23l-388 -651h235q149 0 157 95q2 16 2.5 29t0.5 15q1 13 11 13q9 0 9 -16q0 -3 -0.5 -7.5t-2 -14.5t-2.5 -22l-7 -87q-2 -15 -7 -20t-22 -5h-461q-8 0 -10.5 2t-2.5 8q0 4 10 22l390 651h-210q-85 0 -118 -21.5t-38 -73.5q-2 -16 -2 -29
v-15q-1 -13 -11 -13q-9 0 -9 15q0 4 1.5 16.5t2.5 28.5l6 87q1 15 6 20t22 5h433z" />
    <glyph glyph-name="bracketleft" unicode="[" horiz-adv-x="322" 
d="M116 723h164q11 0 11 -10q0 -9 -11 -9h-92v-839h92q11 0 11 -8q0 -11 -11 -11h-164q-12 0 -12 12v849q0 16 12 16z" />
    <glyph glyph-name="backslash" unicode="\" horiz-adv-x="337" 
d="M65 709l230 -713q8 -15 -3 -19q-13 -6 -19 10l-232 713q-6 19 5 23q13 4 19 -14z" />
    <glyph glyph-name="bracketright" unicode="]" horiz-adv-x="322" 
d="M42 723h164q12 0 12 -16v-849q0 -12 -12 -12h-164q-11 0 -11 11q0 8 11 8h92v839h-92q-11 0 -11 9q0 10 11 10z" />
    <glyph glyph-name="asciicircum" unicode="^" horiz-adv-x="539" 
d="M462 410l-194 291l-192 -289q-10 -14 -27 -14q-20 0 -6 19l192 293q11 17 33 17t33 -17l195 -295q11 -17 -9 -17q-18 0 -25 12z" />
    <glyph glyph-name="underscore" unicode="_" horiz-adv-x="780" 
d="M722 -34h-668q-12 0 -12 9q0 10 17 10h666q12 0 12 -9q0 -10 -15 -10z" />
    <glyph glyph-name="grave" unicode="`" horiz-adv-x="264" 
d="M31 661q9 16 24 16q19 0 52 -24l108 -77q10 -7 8 -14q-1 -7 -15 -3q-24 9 -69.5 24t-64.5 22q-32 8 -41.5 23.5t-1.5 32.5z" />
    <glyph glyph-name="a" unicode="a" horiz-adv-x="556" 
d="M127 452q17 0 32.5 -14.5t15.5 -37.5t-15.5 -37.5t-37.5 -14.5q-20 0 -34 13.5t-14 33.5v4q2 61 43 94.5t122 33.5q216 0 216 -226v-205q0 -80 49 -80q8 0 15.5 2.5t11 5t9.5 7.5l7 5q11 11 18 2q6 -7 -7 -18q-32 -25 -82 -25q-93 0 -103 101q-20 -45 -62.5 -73.5
t-105.5 -28.5q-72 0 -116 35.5t-44 105.5q0 84 63.5 118.5t187.5 34.5h76v27q0 101 -37 146t-111 45q-95 0 -123 -62q13 8 26 8zM129 134q0 -116 99 -116q44 0 82 32q62 51 62 149v69h-76q-89 0 -128 -31t-39 -103z" />
    <glyph glyph-name="b" unicode="b" horiz-adv-x="581" 
d="M173 389q23 67 60.5 101.5t103.5 34.5q94 0 144.5 -65.5t50.5 -197.5q0 -59 -11.5 -104.5t-38.5 -86t-80 -62.5t-128 -22q-54 0 -106 13t-73 24q-7 5 -7 16l1 538v87q-1 19 -10.5 26t-32.5 7q-5 0 -15 -1t-14 -1q-12 0 -12 10q0 9 13 9q4 0 13.5 -0.5t14.5 -0.5
q65 0 100 24q13 10 20 10t7 -13v-346zM316 496q-62 0 -100 -61.5t-45 -176.5v-235q47 -15 102 -15q92 0 131 64t39 186q0 238 -127 238z" />
    <glyph glyph-name="c" unicode="c" horiz-adv-x="511" 
d="M136 259q0 -243 174 -243q63 0 117 27q20 12 24 16q19 14 24 3q7 -10 -12 -21q-7 -4 -29 -14q-65 -35 -141 -35q-123 0 -184.5 70t-61.5 194q0 126 66 198.5t179 72.5q88 0 131.5 -40.5t43.5 -92.5h-4q0 -26 -12.5 -41.5t-37.5 -15.5q-23 0 -38 15t-15 40q0 26 16.5 43
t39.5 17q7 0 13 -3q-40 58 -126 58q-167 0 -167 -248z" />
    <glyph glyph-name="d" unicode="d" horiz-adv-x="600" 
d="M493 96q0 -80 48 -80q8 0 15.5 2.5t11 5l10.5 7.5l6 5q11 11 18 2q5 -8 -7 -18q-32 -25 -82 -25q-53 0 -78.5 31t-25.5 99q-19 -65 -59 -97q-42 -34 -103 -34q-93 0 -146 60t-53 182q0 132 61 211t172 79q65 0 128 -40v172q0 24 -8.5 32t-34.5 8q-5 0 -15 -1t-14 -1
q-12 0 -12 10q0 9 13 9q4 0 13.5 -0.5t14.5 -0.5q66 0 100 24q14 10 20 10q7 0 7 -13v-639zM263 20q129 0 146 231v208q-46 44 -116 44q-55 0 -91.5 -38.5t-51 -96t-14.5 -131.5q0 -217 127 -217z" />
    <glyph glyph-name="e" unicode="e" horiz-adv-x="521" 
d="M279 527q89 0 140 -41.5t51 -117.5q0 -150 -231 -150h-102q6 -111 46.5 -156.5t114.5 -45.5q69 0 133 27q7 3 12 6t10 6.5t8 5.5q13 6 17 -1q7 -10 -7 -18q-4 -2 -34 -16q-75 -34 -149 -34q-120 0 -180 70t-60 193q0 124 59.5 198t171.5 74zM279 507q-143 0 -143 -250
v-18h102q80 0 117 33t37 100q0 66 -29 100.5t-84 34.5z" />
    <glyph glyph-name="f" unicode="f" horiz-adv-x="349" 
d="M158 3q-14 0 -41 -1t-40 -1q-8 0 -15 -0.5t-10.5 -1t-5.5 -0.5q-12 0 -12 10t11 10q3 0 13 -1t19 -1q24 0 31.5 7t7.5 27v432h-74q-7 0 -9 2t-2 9v2q0 11 11 11h74v58q0 95 43.5 144t126.5 49q113 0 116 -101v-4q0 -22 -14.5 -36.5t-33.5 -14.5q-20 0 -33.5 13.5
t-13.5 34.5q0 22 14.5 36.5t34.5 14.5q7 0 19 -4q-21 42 -77 42q-97 0 -97 -157v-75h128q9 0 9 -8v-7q0 -9 -9 -9h-128v-432q0 -20 7.5 -27t31.5 -7q8 0 18 1t13 1q12 0 12 -10t-12 -10q-2 0 -5.5 0.5t-10.5 1t-15 0.5q-13 0 -40 1t-42 1z" />
    <glyph glyph-name="g" unicode="g" horiz-adv-x="602" 
d="M235 -218q84 0 131 52.5t47 161.5v130q-19 -65 -59 -97q-43 -34 -103 -34q-93 0 -146 59.5t-53 182.5q0 132 61.5 211t171.5 79q65 0 128 -40v29q0 11 9 11t17 -9q17 -22 104 -24q8 -1 25 -1q12 0 12 -9q0 -10 -12 -10q-3 0 -13.5 1t-18.5 1q-22 0 -30.5 -7t-8.5 -24
v-430q0 -123 -69.5 -189.5t-182.5 -66.5q-85 0 -136 36t-51 99q0 19 15 33.5t35 14.5t34.5 -13t14.5 -35t-14.5 -36t-34.5 -14q-12 0 -20 5q17 -32 56.5 -49.5t90.5 -17.5zM267 20q129 0 146 232v208q-46 44 -116 44q-55 0 -91.5 -38.5t-51 -96t-14.5 -131.5
q0 -218 127 -218z" />
    <glyph glyph-name="h" unicode="h" horiz-adv-x="634" 
d="M433 126v241q0 131 -99 131q-42 0 -73 -24q-66 -54 -69 -211v-212q0 -20 7.5 -27t31.5 -7q8 0 18.5 1t14.5 1q10 0 10 -10t-10 -10q-3 0 -14 1t-19 1q-13 0 -40 1t-41 1t-41 -1t-40 -1q-8 0 -19 -1t-14 -1q-11 0 -11 10t11 10q4 0 14 -1t19 -1q24 0 31.5 7t7.5 27v607
q0 24 -9 32t-35 8q-5 0 -14.5 -1t-13.5 -1q-12 0 -12 10t13 10q4 0 13.5 -0.5t14.5 -0.5q66 0 100 23q13 10 19 10q8 0 8 -12v-333q19 56 60.5 90t106.5 34q73 0 115.5 -42t42.5 -128v-261q0 -80 48 -80q19 0 42 20q12 10 19 2t-7 -18q-32 -25 -82 -25q-53 0 -78.5 31.5
t-25.5 99.5z" />
    <glyph glyph-name="i" unicode="i" horiz-adv-x="308" 
d="M201 51q0 -20 7.5 -27t31.5 -7q8 0 18.5 1t13.5 1q11 0 11 -10t-11 -10q-2 0 -13 1t-19 1q-13 0 -40 1t-41 1t-41 -1t-40 -1q-8 0 -19 -1t-14 -1q-11 0 -11 10t11 10q4 0 14 -1t19 -1q23 0 31 7t8 27v385q0 23 -9 31t-35 8q-5 0 -14.5 -0.5t-12.5 -0.5q-13 0 -13 9
q0 10 13 10q3 0 13 -0.5t15 -0.5q66 0 100 23q12 11 20 11q7 0 7 -13v-462zM111 660q0 23 15 38.5t35 15.5t34 -13.5t14 -36.5t-15 -37t-37 -14q-20 0 -33 13t-13 34z" />
    <glyph glyph-name="j" unicode="j" horiz-adv-x="283" 
d="M110 19v418q0 24 -8.5 32t-34.5 8q-5 0 -15 -1t-13 -1q-13 0 -13 10t13 10q4 0 14 -0.5t15 -0.5q66 0 100 23q14 11 19 11q7 0 7 -14v-441q0 -192 -153 -291q-29 -19 -35 -22q-13 -8 -19 2q-4 10 7 17q1 1 13 7t23 14q46 34 63 78.5t17 140.5zM104 660q0 23 15.5 38.5
t35.5 15.5t33.5 -13.5t13.5 -36.5t-15 -37t-37 -14q-19 0 -32.5 13t-13.5 34z" />
    <glyph glyph-name="k" unicode="k" horiz-adv-x="567" 
d="M406 454l-120 -118l126 -217q38 -67 57 -86.5t41 -19.5q7 0 12.5 1t10 3.5t7.5 4t7.5 5t5.5 4.5q11 9 17 2t-3 -16q-29 -26 -92 -26q-47 0 -78.5 21.5t-72.5 94.5l-98 170l-34 -35v-191q0 -20 7.5 -27t31.5 -7q8 0 18.5 1t14.5 1q10 0 10 -10t-10 -10q-3 0 -14 1t-19 1
q-13 0 -40 1t-41 1t-41 -1t-40 -1q-8 0 -19 -1t-14 -1q-11 0 -11 10t11 10q4 0 14 -1t19 -1q24 0 31.5 7t7.5 27v607q0 24 -9 32t-35 8q-5 0 -14.5 -1t-13.5 -1q-12 0 -12 10q0 9 13 9q4 0 13.5 -0.5t14.5 -0.5q65 0 100 24q13 10 19 10q8 0 8 -13v-464l193 192
q13 13 9 20.5t-24 7.5q-8 0 -35 -3q-16 0 -16 11q0 10 21 10q14 0 47 -3t44 -3t40.5 3t43.5 3q16 0 16 -10q0 -11 -15 -11q-5 0 -15 1.5t-16 1.5q-42 0 -79 -37z" />
    <glyph glyph-name="l" unicode="l" horiz-adv-x="299" 
d="M150 3q-14 0 -41 -1t-40 -1q-8 0 -19 -1t-14 -1q-11 0 -11 10t11 10q4 0 14 -1t19 -1q22 0 29.5 5.5t9.5 20.5v615q0 24 -9 32t-35 8q-5 0 -14.5 -1t-13.5 -1q-12 0 -12 10q0 9 13 9q4 0 13.5 -0.5t14.5 -0.5q65 0 100 24q13 10 19 10q8 0 8 -13v-684q0 -20 7.5 -27
t31.5 -7q8 0 18.5 1t14.5 1q10 0 10 -10t-10 -10q-3 0 -14 1t-19 1q-13 0 -40 1t-41 1z" />
    <glyph glyph-name="m" unicode="m" horiz-adv-x="935" 
d="M735 126v251q0 122 -93 122q-59 0 -95.5 -49.5t-37.5 -138.5v-261q0 -20 7.5 -27t30.5 -7q9 0 18.5 1t11.5 1q12 0 12 -10t-12 -10q-2 0 -12 1t-18 1q-13 0 -39 1t-41 1q-14 0 -40 -1t-39 -1q-8 0 -18 -1t-13 -1q-10 0 -10 10t10 10q4 0 13.5 -1t17.5 -1q23 0 30.5 7
t7.5 27v327q0 122 -93 122q-54 0 -93 -53.5t-39 -143.5v-252q0 -20 6.5 -27t29.5 -7q8 0 17.5 1t12.5 1q11 0 11 -10t-11 -10q-3 0 -13 1t-17 1q-13 0 -38.5 1t-39.5 1t-40.5 -1t-39.5 -1q-8 0 -18 -1t-12 -1q-11 0 -11 10t11 10q3 0 12.5 -1t17.5 -1q23 0 30.5 7t7.5 27
v386q0 23 -8.5 31t-34.5 8q-5 0 -15.5 -0.5t-13.5 -0.5q-12 0 -12 9q0 10 13 10q3 0 13 -0.5t15 -0.5q68 0 100 23q12 11 20 11q7 0 7 -13v-96q21 53 62 81t94 28q121 0 146 -114q43 114 163 114q70 0 111.5 -42t41.5 -128v-260q0 -80 47 -80q20 0 43 20q12 11 18 2
q6 -8 -6 -18q-29 -25 -82 -25t-78.5 31.5t-25.5 99.5z" />
    <glyph glyph-name="n" unicode="n" horiz-adv-x="643" 
d="M343 498q-41 0 -73 -24q-68 -53 -68 -229v-194q0 -20 7.5 -27t31.5 -7q9 0 19 1t12 1q12 0 12 -10t-12 -10q-2 0 -13 1t-18 1q-13 0 -40.5 1t-41.5 1t-41 -1t-40 -1q-8 0 -19 -1t-14 -1q-10 0 -10 10t10 10q4 0 14.5 -1t18.5 -1q24 0 31.5 7t7.5 27v385q0 23 -8.5 31
t-34.5 8q-5 0 -15 -0.5t-13 -0.5q-13 0 -13 9q0 10 13 10q4 0 14 -0.5t15 -0.5q66 0 100 23q12 11 19 11q8 0 8 -13v-108q44 122 166 122q73 0 115.5 -42t42.5 -128v-261q0 -80 48 -80q8 0 16 2.5t11.5 5t9 7.5t6.5 5q12 11 18 2q5 -7 -6 -18q-29 -25 -82 -25t-79 31.5
t-26 99.5v241q0 131 -99 131z" />
    <glyph glyph-name="o" unicode="o" horiz-adv-x="568" 
d="M48 258q0 120 57.5 194.5t178.5 74.5q120 0 178 -74.5t58 -194.5q0 -121 -58 -196t-178 -75q-121 0 -178.5 75t-57.5 196zM284 507q-148 0 -148 -249q0 -251 148 -251t148 251q0 249 -148 249z" />
    <glyph glyph-name="p" unicode="p" horiz-adv-x="603" 
d="M193 -190q0 -20 7.5 -27t31.5 -7q9 0 19 1t14 1q11 0 11 -10t-11 -10q-3 0 -14 1t-19 1q-13 0 -40 1t-41 1t-41 -1t-40 -1q-8 0 -19 -1t-14 -1q-11 0 -11 10t11 10q4 0 14 -1t19 -1q24 0 31.5 7t7.5 27v626q0 23 -8.5 31t-34.5 8q-5 0 -15 -0.5t-14 -0.5q-11 0 -11 9
q0 10 12 10q4 0 13.5 -0.5t14.5 -0.5q64 0 100 23q14 11 20 11q7 0 7 -13v-127h1q23 74 65 107.5t105 33.5q92 0 140.5 -65t48.5 -195q0 -280 -222 -280q-70 0 -138 33v-210zM346 502q-65 0 -107 -65.5t-46 -179.5v-209q53 -39 127 -39q81 0 114 64t33 194q0 53 -5 92
t-17.5 73t-37.5 52t-61 18z" />
    <glyph glyph-name="q" unicode="q" horiz-adv-x="598" 
d="M451 -238q-14 0 -41 -1t-40 -1q-8 0 -19 -1t-13 -1q-12 0 -12 10t12 10q2 0 12.5 -1t19.5 -1q23 0 31 7.5t8 26.5v316q-19 -65 -59 -97q-42 -34 -103 -34q-93 0 -146 59.5t-53 182.5q0 132 61.5 211t171.5 79q65 0 128 -40v29q0 11 9 11t17 -8q18 -23 104 -25q8 -1 25 -1
q12 0 12 -9q0 -10 -12 -10q-3 0 -13.5 1t-18.5 1q-23 0 -31 -6t-8 -23v-637q0 -19 8 -26.5t31 -7.5q8 0 18.5 1t14.5 1q11 0 11 -10t-11 -10q-3 0 -14 1t-19 1q-13 0 -40 1t-41 1zM263 20q129 0 146 232v208q-46 44 -116 44q-55 0 -91.5 -38.5t-51 -96t-14.5 -131.5
q0 -218 127 -218z" />
    <glyph glyph-name="r" unicode="r" horiz-adv-x="463" 
d="M345 434q0 23 15 38t34 15q12 0 22 -6q-19 27 -55 27q-51 0 -88 -44t-54 -107.5t-17 -134.5v-171q0 -20 7.5 -27t31.5 -7q9 0 19 1t12 1q12 0 12 -10t-12 -10q-2 0 -13 1t-18 1q-13 0 -40.5 1t-41.5 1t-41 -1t-40 -1q-8 0 -19 -1t-14 -1q-10 0 -10 10t10 10q4 0 14.5 -1
t18.5 -1q24 0 31.5 7t7.5 27v385q0 24 -8.5 32t-34.5 8q-5 0 -15 -1t-13 -1q-13 0 -13 10t13 10q4 0 14 -0.5t15 -0.5q66 0 100 23q14 11 19 11q8 0 8 -14v-151q4 19 10.5 37.5t20 42.5t29.5 42t42 30.5t56 12.5q42 0 64 -25.5t22 -65.5q0 -23 -14.5 -37.5t-37.5 -14.5
q-21 0 -35 14t-14 36z" />
    <glyph glyph-name="s" unicode="s" horiz-adv-x="475" 
d="M241 15q64 0 99 27t35 75q0 45 -32.5 70.5t-78.5 37t-92 24.5t-78.5 45t-32.5 87q0 70 44.5 108t127.5 38q62 0 108 -27q27 -14 29 -14q3 0 4.5 1t1.5 4v5.5v8.5v10q2 15 11 15q10 0 10 -17v-57l2 -34l2 -26t2 -21t1 -11q0 -16 -10 -16t-10 16q0 13 -1 26q-4 53 -44 84.5
t-107 31.5q-60 0 -90.5 -25t-30.5 -65q0 -34 23.5 -55.5t58.5 -30.5t75.5 -21.5t75.5 -27t58.5 -49t23.5 -86.5q0 -153 -185 -153q-67 0 -129 40q-14 11 -25 11q-3 0 -4.5 -1.5t-2 -4.5t-0.5 -6v-8v-8q0 -16 -10 -16q-9 0 -9 15q0 1 0.5 5.5t0.5 11v13.5q0 13 -2 37l-1 23
q-1 18 -3 35t-3 26.5t-1 13.5q0 17 11 17q9 0 9 -16q0 -7 1.5 -17.5t1.5 -13.5q4 -60 49 -97.5t117 -37.5z" />
    <glyph glyph-name="t" unicode="t" horiz-adv-x="359" 
d="M37 507h67q24 0 43.5 49.5t19.5 92.5q0 16 11 16q10 0 10 -16v-142h132q9 0 9 -8v-7q0 -9 -9 -9h-132v-341q0 -67 18 -96.5t55 -29.5q43 0 66 20q3 2 8.5 8t8.5 8q11 10 16 2q8 -6 -4 -18q-8 -8 -19 -14q-40 -28 -91 -28q-142 0 -142 158v331h-67q-7 0 -9 2t-2 9v2
q0 11 11 11z" />
    <glyph glyph-name="u" unicode="u" horiz-adv-x="635" 
d="M288 23q42 0 73 25q68 53 68 229v159q0 23 -8.5 31t-33.5 8q-5 0 -15.5 -0.5t-13.5 -0.5q-12 0 -12 9q0 10 13 10q3 0 13 -0.5t16 -0.5q64 0 98 23q12 11 21 11q7 0 7 -13v-417q0 -80 47 -80q8 0 16 2.5t11.5 5t9 7.5t6.5 5q12 11 18 2q5 -7 -6 -18q-29 -25 -82 -25
q-52 0 -78 29t-27 92q-43 -122 -166 -122q-73 0 -116 42.5t-43 127.5v272q0 23 -8.5 31t-34.5 8q-5 0 -15.5 -0.5t-13.5 -0.5q-11 0 -11 9q0 10 13 10q3 0 13 -0.5t16 -0.5q65 0 99 23q12 11 20 11q6 0 6 -13v-359q0 -131 100 -131z" />
    <glyph glyph-name="v" unicode="v" horiz-adv-x="578" 
d="M483 452l-181 -457q-3 -8 -10 -8h-3q-7 0 -10 8l-183 448q-12 28 -22.5 37t-31.5 9q-8 0 -17.5 -1t-12.5 -1q-11 0 -11 11q0 9 11 9q2 0 12 -1t18 -1q13 0 38.5 -1t39.5 -1t46 1t45 1q8 0 17.5 1t12.5 1q11 0 11 -9q0 -11 -11 -11q-3 0 -12.5 1t-17.5 1q-24 0 -31.5 -8.5
t0.5 -27.5l140 -362l139 364q7 19 0 26.5t-32 7.5q-7 0 -17 -1t-13 -1q-11 0 -11 11q0 9 11 9q2 0 12.5 -1t17.5 -1q10 0 29.5 -1t30.5 -1t25.5 1t23.5 1q8 0 18.5 1t13.5 1q11 0 11 -9q0 -11 -11 -11q-4 0 -13.5 1t-18.5 1q-23 0 -33.5 -7.5t-19.5 -29.5z" />
    <glyph glyph-name="w" unicode="w" horiz-adv-x="848" 
d="M249 -1l-164 456q-7 21 -14 27.5t-30 6.5q-9 0 -18 -1t-12 -1q-12 0 -12 11q0 9 12 9q3 0 12.5 -1t17.5 -1q13 0 37.5 -1t38.5 -1q13 0 44 1t44 1q7 0 17 1t13 1q11 0 11 -9q0 -11 -11 -11q-3 0 -12.5 1t-17.5 1q-44 0 -32 -34l118 -353l143 394q7 21 16 21q8 0 15 -21
l146 -390l123 349q7 18 -1.5 26t-33.5 8q-8 0 -17.5 -1t-12.5 -1q-11 0 -11 11q0 9 11 9q3 0 14 -1t19 -1t26 -1t29 -1q9 0 26 1t27 1q8 0 18 1t13 1q11 0 11 -9q0 -11 -11 -11q-4 0 -13 1t-18 1q-22 0 -32.5 -7.5t-17.5 -26.5l-163 -454q-5 -14 -13 -14q-9 0 -14 15
l-151 399l-143 -401q-5 -13 -13 -13q-9 0 -14 12z" />
    <glyph glyph-name="x" unicode="x" horiz-adv-x="566" 
d="M101 51l150 196l-140 202q-24 34 -33 39q-10 5 -28 5q-8 0 -18 -1t-13 -1q-11 0 -11 10t11 10q3 0 13 -1t18 -1q13 0 40 -1t41 -1t41.5 1t40.5 1q8 0 18 1t13 1q11 0 11 -10t-11 -10q-3 0 -13 1t-18 1q-23 0 -26.5 -8.5t9.5 -25.5l104 -149l114 149q15 19 11 26.5
t-27 7.5q-9 0 -18.5 -1t-12.5 -1q-11 0 -11 10t11 10q3 0 13 -1t18 -1t23.5 -1t26.5 -1q8 0 24.5 1t25.5 1q8 0 18 1t13 1q11 0 11 -10t-11 -10q-4 0 -13.5 1t-17.5 1q-15 0 -24 -4t-13.5 -8.5t-16.5 -21.5l-130 -169l159 -227q20 -28 31 -37t31 -9q8 0 17.5 1t13.5 1
q10 0 10 -10t-10 -10q-3 0 -13 1t-18 1q-13 0 -40 1t-41 1t-41.5 -1t-40.5 -1q-8 0 -17.5 -1t-12.5 -1q-12 0 -12 10t12 10q3 0 12.5 -1t17.5 -1q41 0 17 34l-124 176l-135 -176q-26 -34 21 -34q8 0 17.5 1t12.5 1q12 0 12 -10t-12 -10q-2 0 -12 1t-18 1t-29 1t-31 1
t-24.5 -1t-23.5 -1t-18.5 -1t-12.5 -1q-11 0 -11 10t11 10q3 0 12.5 -1t18.5 -1q32 0 58 34z" />
    <glyph glyph-name="y" unicode="y" horiz-adv-x="584" 
d="M495 451l-199 -517q-37 -95 -75.5 -135t-92.5 -40q-43 0 -69 24t-26 68v1q0 19 15 33.5t35 14.5t35 -13t15 -35t-15 -36t-35 -14q-6 0 -14 2q19 -26 60 -26t75.5 37t71.5 128l13 35l-195 468q-11 27 -20 35t-30 8q-9 0 -18 -1t-12 -1q-12 0 -12 10t12 10q2 0 12 -1t18 -1
q13 0 39 -1t40 -1t45.5 1t44.5 1q8 0 18 1t12 1q12 0 12 -10t-12 -10q-3 0 -12.5 1t-17.5 1q-24 0 -30 -7.5t2 -26.5l146 -366l140 366q7 19 -0.5 26.5t-31.5 7.5q-9 0 -18.5 -1t-12.5 -1q-11 0 -11 10t11 10q3 0 13 -1t18 -1q13 0 25.5 -1t26.5 -1t26.5 1t25.5 1q8 0 18 1
t13 1q11 0 11 -10t-11 -10q-4 0 -13 1t-18 1q-22 0 -30.5 -7t-17.5 -31z" />
    <glyph glyph-name="z" unicode="z" horiz-adv-x="517" 
d="M47 0q-10 0 -10 9q0 7 18 30l315 448h-127q-70 0 -113.5 -25t-49.5 -69v-16t-1 -13q-3 -14 -11 -14q-10 0 -9 16l4 34l9 82q2 15 6.5 20t20.5 5h352q13 0 13 -8q0 -7 -17 -32l-315 -448h4v1h147q76 0 120 29t51 67q1 6 1.5 10.5l1 9t0.5 7.5q1 15 11 15t9 -18
q-1 -4 -3 -15.5t-3 -18.5l-12 -81q-2 -15 -6.5 -20t-21.5 -5h-384z" />
    <glyph glyph-name="braceleft" unicode="{" horiz-adv-x="329" 
d="M27 263v3h64v-1q48 -1 70.5 -33t22.5 -77v-206q0 -64 22 -85.5t80 -21.5q17 0 17 -9q0 -10 -18 -10h-9q-91 0 -127 28.5t-36 96.5v207q0 46 -12.5 71t-48.5 26q-25 0 -25 11zM27 266v3q0 12 25 12q36 1 48.5 26t12.5 70v208q0 68 36.5 96.5t126.5 28.5h9q18 0 18 -10
t-17 -10q-58 0 -80 -21.5t-22 -84.5v-206q0 -45 -22.5 -77.5t-70.5 -33.5v-1h-64z" />
    <glyph glyph-name="bar" unicode="|" horiz-adv-x="239" 
d="M135 -234q0 -7 -6 -7h-20q-5 0 -5 6v974q0 8 6 8h19q6 0 6 -7v-974z" />
    <glyph glyph-name="braceright" unicode="}" horiz-adv-x="329" 
d="M302 263v3h-65v-1q-48 -1 -70 -33t-22 -77v-206q0 -64 -22 -85.5t-80 -21.5q-18 0 -18 -9q0 -10 18 -10h9q91 0 128 28.5t37 96.5v207q0 47 12 71.5t48 25.5q25 0 25 11zM302 269v-3h-65v1q-48 1 -70 33.5t-22 77.5v206q0 63 -22 84.5t-80 21.5q-18 0 -18 10t18 10h9
q91 0 128 -28.5t37 -96.5v-208q0 -46 12 -70.5t48 -25.5q25 0 25 -12z" />
    <glyph glyph-name="asciitilde" unicode="~" horiz-adv-x="492" 
d="M350 264q23 0 36 18t13 50q0 6 6 6h8q7 0 7 -8q0 -121 -93 -121q-32 0 -67.5 23.5t-66 46.5t-49.5 23q-23 0 -36.5 -19t-13.5 -49q0 -8 -8 -8h-5q-3 0 -4.5 0.5t-2.5 2.5t-1 7q0 53 25.5 85t69.5 32q34 0 94.5 -44.5t87.5 -44.5z" />
    <glyph glyph-name="nonbreakingspace" unicode="&#xa0;" horiz-adv-x="247" 
 />
    <glyph glyph-name="exclamdown" unicode="&#xa1;" horiz-adv-x="259" 
d="M75 -135q0 39 10.5 99.5t21 157.5t10.5 224q0 13 10 13q11 0 11 -13q0 -127 12 -224t23.5 -157.5t11.5 -99.5q0 -64 -56 -64q-54 0 -54 64zM71 460q0 28 18.5 47.5t43.5 19.5t42 -17t17 -45t-19 -46t-45 -18q-24 0 -40.5 16.5t-16.5 42.5z" />
    <glyph glyph-name="cent" unicode="&#xa2;" horiz-adv-x="513" 
d="M134 259q0 -243 174 -243q63 0 117 27q20 12 24 16q19 14 24 3q7 -11 -12 -21q-7 -4 -29 -14q-62 -32 -126 -35v-133q0 -7 -7 -7h-12q-6 0 -6 7v133q-118 3 -177 73t-59 191q0 122 62.5 194t170.5 77v140q0 7 7 7h12q6 0 6 -7v-140q82 -3 122 -43t40 -90h-4
q0 -26 -12.5 -41.5t-37.5 -15.5q-23 0 -38 15t-15 40q0 26 16.5 43t39.5 17q5 0 13 -2q-40 57 -126 57q-167 0 -167 -248z" />
    <glyph glyph-name="sterling" unicode="&#xa3;" horiz-adv-x="593" 
d="M399 542q0 25 17.5 42t40.5 17q17 0 30 -11q-14 46 -55 72t-105 26q-69 0 -109 -43.5t-40 -122.5q0 -28 5.5 -59.5t10 -48.5t17.5 -55.5t16 -47.5h154q9 0 9 -9q0 -10 -10 -10h-147q17 -64 17 -108q0 -60 -27.5 -102.5t-62.5 -53.5h213q145 0 154 100q1 13 1.5 24t0.5 15
q1 12 11 12q9 0 9 -16q0 -3 -0.5 -7t-1.5 -12.5t-2 -19.5l-8 -99q-2 -15 -7 -20t-21 -5h-444q-18 0 -18 9q0 10 15 10h8q39 2 70 44t31 96q0 55 -31 133h-78q-9 0 -9 10q0 6 2 7.5t7 1.5h70q-45 112 -45 192q0 99 61.5 153t171.5 54q90 0 141.5 -43.5t51.5 -122.5v-1
q0 -26 -17.5 -41.5t-42.5 -15.5q-23 0 -38.5 15.5t-15.5 40.5z" />
    <glyph glyph-name="currency" unicode="&#xa4;" horiz-adv-x="650" 
d="M331 160q-90 0 -149 46l-45 -45q-14 -14 -29 -1l-31 33q-14 12 1 27l51 51q-24 49 -24 113q0 79 36 133l-51 52q-15 15 -1 29l32 33q14 13 27 -2l54 -55q54 32 129 32q63 0 113 -24l55 56q13 13 28 0l33 -32q13 -13 -1 -28l-49 -49q44 -58 44 -144q0 -76 -34 -131l46 -45
q15 -14 1 -28l-33 -33q-12 -13 -26 1l-46 45q-53 -34 -131 -34zM486 391q0 88 -42 141.5t-113 53.5q-72 0 -115 -54t-43 -142q0 -98 42 -154t116 -56q73 0 114 56t41 155z" />
    <glyph glyph-name="yen" unicode="&#xa5;" horiz-adv-x="712" 
d="M363 3q-13 0 -41 -1t-42 -1q-8 0 -18.5 -1t-13.5 -1q-11 0 -11 10t11 10q3 0 13.5 -1t18.5 -1q24 0 32 7t8 27v113h-178q-19 0 -19 11q0 10 19 10h178v64h-178q-19 0 -19 11q0 10 19 10h178v12l-197 368q-9 17 -19.5 25t-17 9t-18.5 1q-6 0 -14 -1t-15 -1q-14 0 -14 9
q0 11 14 11q16 0 60.5 -2t59.5 -2q34 0 71.5 2t40.5 2q16 0 16 -12q0 -8 -14 -8q-3 0 -14 1t-23 1q-21 0 -22 -10t17 -46l160 -310l171 336q6 11 8 15.5t-1.5 9.5t-17.5 5q-8 0 -20.5 -1t-15.5 -1q-15 0 -15 8q0 12 17 12q3 0 21 -2t53 -2q15 0 38 2t39 2q14 0 14 -11
q0 -9 -14 -9q-6 0 -14 1t-13 1q-22 0 -32.5 -6.5t-22.5 -28.5l-179 -349v-31h181q19 0 19 -10q0 -11 -20 -11h-180v-64h181q19 0 19 -10q0 -11 -20 -11h-180v-113q0 -20 7.5 -27t31.5 -7q9 0 19 1t14 1q11 0 11 -10t-11 -10q-3 0 -14 1t-19 1q-13 0 -41 1t-42 1z" />
    <glyph glyph-name="brokenbar" unicode="&#xa6;" horiz-adv-x="238" 
d="M131 -190q0 -7 -7 -7h-12q-5 0 -5 7v391q0 6 7 6h12q5 0 5 -6v-391zM107 754q0 7 7 7h12q5 0 5 -7v-381q0 -6 -7 -6h-12q-5 0 -5 6v381z" />
    <glyph glyph-name="section" unicode="&#xa7;" horiz-adv-x="507" 
d="M339 588q0 22 13 37t34 15h2q-32 50 -131 50q-67 0 -102.5 -26t-35.5 -67q0 -43 33.5 -67.5t81.5 -36.5t95.5 -26.5t81 -49t33.5 -92.5q0 -102 -94 -136q94 -41 94 -135q0 -75 -51 -114.5t-145 -39.5q-86 0 -141 32.5t-55 91.5q0 23 13.5 37.5t36.5 14.5q22 0 35 -13.5
t13 -34.5q0 -24 -15 -39t-37 -15q-2 0 -8 2q45 -54 158 -54q67 0 108 28.5t41 77.5q0 43 -33.5 67t-81 35.5t-95 25t-81 47t-33.5 90.5q0 107 98 138q-98 39 -98 133q0 70 46.5 108.5t137.5 38.5q84 0 131 -32t47 -89q0 -21 -13.5 -35.5t-35.5 -14.5q-20 0 -33.5 13
t-13.5 35zM119 326q0 -25 10.5 -43t33.5 -30t42.5 -19t55.5 -16.5t54 -15.5q82 26 82 97q0 14 -4.5 26.5t-9.5 21t-17.5 17t-20.5 13t-27 11t-27 8.5t-31 8t-30 8q-9 -5 -33 -16.5t-38.5 -19.5t-27 -21.5t-12.5 -28.5z" />
    <glyph glyph-name="dieresis" unicode="&#xa8;" horiz-adv-x="482" 
d="M45 620q0 22 14 36.5t34 14.5q19 0 32 -13t13 -35q0 -21 -14.5 -35.5t-33.5 -14.5q-20 0 -32.5 13t-12.5 34zM200 620q0 22 14.5 36.5t33.5 14.5q20 0 32.5 -12.5t12.5 -35.5q0 -21 -14.5 -35.5t-34.5 -14.5q-19 0 -31.5 13t-12.5 34z" />
    <glyph glyph-name="copyright" unicode="&#xa9;" horiz-adv-x="831" 
d="M417 -13q-176 0 -270.5 102.5t-94.5 263.5q0 159 96.5 259.5t268.5 100.5q171 0 266.5 -100t95.5 -259q0 -162 -93.5 -264.5t-268.5 -102.5zM731 358q0 163 -84 249.5t-230 86.5q-147 0 -232 -87t-85 -250q0 -168 84 -259t233 -91q148 0 231 91t83 260zM288 347
q0 -100 34.5 -150.5t109.5 -50.5q57 0 109 26q2 1 20 13q6 4 10 -1q3 -6 -5 -11l-22 -10q-62 -31 -122 -31q-97 0 -154 55t-57 161q0 99 55 158.5t152 59.5q78 0 111.5 -35t34.5 -81v-4q0 -19 -14 -31.5t-32 -12.5t-30.5 12t-12.5 32q0 21 12.5 34t31.5 13q13 0 27 -9
q-10 30 -41 49.5t-77 19.5q-73 0 -106.5 -57.5t-33.5 -148.5z" />
    <glyph glyph-name="ordfeminine" unicode="&#xaa;" horiz-adv-x="431" 
d="M340 452q0 -46 27 -46q16 0 26 12q8 6 11 1q4 -5 -4 -11q-21 -17 -57 -17q-62 0 -71 62q-23 -63 -99 -63q-45 0 -71.5 22t-26.5 64q0 52 41 71.5t122 19.5h33v17q0 61 -21.5 87t-65.5 26q-49 0 -69 -30q10 7 21 7q14 0 25.5 -11t11.5 -29t-11.5 -29t-28.5 -11t-28 10
t-11 25v3q2 78 105 78q141 0 141 -140v-118zM145 476q0 -69 50 -69q25 0 44 19q32 32 32 93v36h-33q-50 0 -71.5 -18t-21.5 -61z" />
    <glyph glyph-name="guillemotleft" unicode="&#xab;" horiz-adv-x="535" 
d="M321 254q50 -50 157 -206q10 -14 3 -19q-7 -4 -19 9q-43 52 -104 107.5t-112 90.5q-16 11 -16 18q0 6 16 17q51 35 112 90.5t104 107.5q10 14 19 10q8 -5 -3 -20q-105 -151 -145 -193zM35 254q0 6 15 17q51 35 112 90t105 108q11 13 18 10q9 -4 -2 -20q-5 -7 -24 -34
t-25.5 -35.5t-22 -30.5t-23.5 -32.5t-20.5 -26t-22.5 -26.5t-20 -20q42 -42 158 -206q10 -15 3 -19q-8 -4 -19 9q-43 52 -104 107.5t-113 90.5q-15 10 -15 18z" />
    <glyph glyph-name="logicalnot" unicode="&#xac;" horiz-adv-x="552" 
d="M86 364h380q11 0 11 -9v-187q0 -11 -10 -11h-16q-10 0 -10 11v162h-355q-14 0 -14 12v11q0 11 14 11z" />
    <glyph glyph-name="softhyphen" unicode="&#xad;" horiz-adv-x="403" 
d="M311 295h-222q-14 0 -18 1.5t-4 8.5q0 10 22 10h226q14 0 17.5 -2t3.5 -8q0 -10 -25 -10z" />
    <glyph glyph-name="registered" unicode="&#xae;" horiz-adv-x="831" 
d="M417 -13q-176 0 -270.5 102.5t-94.5 263.5q0 159 96.5 259.5t268.5 100.5q171 0 266.5 -100t95.5 -259q0 -162 -93.5 -264.5t-268.5 -102.5zM731 358q0 163 -84 249.5t-230 86.5q-147 0 -232 -87t-85 -250q0 -168 84 -259t233 -91q148 0 231 91t83 260zM314 153
q-9 0 -31 -1t-30 -1q-4 0 -8 -0.5t-6 -0.5h-3q-8 0 -8 6q0 7 7 7q1 0 7 -1t11 -1q15 0 19.5 4.5t4.5 17.5v357q0 12 -4.5 16.5t-19.5 4.5h-18q-7 0 -7 6t8 6q6 0 24 -1.5t31 -1.5h96q93 0 138 -26.5t45 -91.5q0 -96 -108 -111q62 -16 90 -79q5 -11 11 -27t9.5 -24t8 -18
t7.5 -14.5t8 -9.5t10 -6.5t11 -1.5q5 0 27 10q6 3 8 -2q3 -5 -3 -9q-18 -13 -63 -13q-39 0 -62 20t-46 76q-13 31 -23 48t-30.5 32t-48.5 15h-25v-155q0 -12 4.5 -17t18.5 -5q6 0 12 1t7 1q7 0 7 -7q0 -6 -7 -6q-1 0 -7 0.5t-12 0.5q-8 0 -29.5 1t-30.5 1zM351 351h44
q48 0 73 28t25 76q0 54 -25.5 78.5t-76.5 24.5h-40v-207z" />
    <glyph glyph-name="macron" unicode="&#xaf;" horiz-adv-x="305" 
d="M266 611h-232q-13 0 -13 11q0 10 12 10h234q12 0 12 -10q0 -11 -13 -11z" />
    <glyph glyph-name="degree" unicode="&#xb0;" horiz-adv-x="396" 
d="M197 417q-67 0 -109 43.5t-42 110.5q0 66 42 109t110 43q69 0 110 -42.5t41 -108.5q0 -67 -42 -111t-110 -44zM295 571q0 134 -97 134q-45 0 -70.5 -33.5t-25.5 -100.5t25.5 -101t70.5 -34t71 34.5t26 100.5z" />
    <glyph glyph-name="plusminus" unicode="&#xb1;" horiz-adv-x="558" 
d="M292 459v-166h174q12 0 12 -10q0 -7 -3 -9t-13 -2h-170v-182q0 -13 -11 -13q-8 0 -10.5 2.5t-2.5 9.5v183h-170q-6 0 -8.5 0.5t-3.5 2.5t-1 7q0 11 12 11h171v170q0 12 11 12q9 0 11 -3t2 -13zM499 -30h-445q-19 0 -19 11q0 10 19 10h446q19 0 19 -10q0 -11 -20 -11z" />
    <glyph glyph-name="twosuperior" unicode="&#xb2;" horiz-adv-x="353" 
d="M41 665q0 50 30 80.5t95 30.5q63 0 99 -30t36 -83q0 -47 -33.5 -88t-125.5 -124q-22 -20 -34 -31l-18 -18h147q32 0 44.5 8.5t17.5 30.5q2 14 2 24q0 11 7 11q5 0 5 -9q0 -4 -1.5 -10.5t-1.5 -8.5l-11 -83q-2 -9 -4.5 -12t-11.5 -3h-245q-7 0 -7 6q0 4 11 15l42 45
q82 88 113 144t31 106q0 45 -21 68.5t-59 23.5q-69 0 -89 -56q10 10 26 10q18 0 30.5 -12.5t12.5 -33.5q0 -20 -13 -32.5t-32 -12.5q-18 0 -30 12t-12 32z" />
    <glyph glyph-name="threesuperior" unicode="&#xb3;" horiz-adv-x="354" 
d="M137 682q0 -19 -12 -31t-31 -12q-20 0 -31.5 12.5t-11.5 31.5q0 43 31.5 68t86.5 25q62 0 97.5 -28t35.5 -78q0 -47 -30.5 -70.5t-68.5 -27.5q49 -5 79 -31t30 -76q0 -57 -40.5 -90t-112.5 -33q-59 0 -92 25.5t-33 70.5h3q0 44 39 44q20 0 32 -11.5t12 -30.5
q0 -20 -13 -33.5t-31 -13.5q-13 0 -20 5q30 -42 89 -42q44 0 69 27.5t25 81.5q0 102 -87 102q-4 0 -11 -0.5t-8 -0.5q-10 0 -10 6t9 6h19q38 0 60 25t22 69q0 43 -21 66.5t-57 23.5q-52 0 -78 -36q7 3 16 3q18 0 31 -13.5t13 -33.5z" />
    <glyph glyph-name="acute" unicode="&#xb4;" horiz-adv-x="267" 
d="M193 659q9 -17 -1 -32.5t-42 -23.5q-15 -6 -62 -20t-72 -25q-12 -6 -15 2q-2 7 8 14q12 8 109 77q32 24 51 24q17 0 24 -16z" />
    <glyph glyph-name="mu" unicode="&#xb5;" horiz-adv-x="659" 
d="M530 80q0 -34 12 -48.5t37 -14.5q9 0 20.5 1t15.5 1q12 0 12 -10t-12 -10q-6 0 -31.5 0.5t-42.5 0.5q-49 0 -71.5 19t-23.5 62q-24 -46 -61.5 -69t-103.5 -23q-47 0 -80 12v-202q0 -11 -9 -11h-67q-8 0 -8 10v642q0 17 -8.5 24t-30.5 7q-8 0 -19 -0.5t-13 -0.5
q-12 0 -12 10q0 9 12 9q3 0 12 -0.5t13 -0.5q68 2 104 30q9 8 17 8q9 0 9 -11v-357q0 -74 24 -109.5t80 -35.5q66 0 102.5 45t38.5 130v252q0 17 -8.5 24t-30.5 7q-8 0 -19 -0.5t-14 -0.5q-11 0 -11 10q0 9 12 9q4 0 12.5 -0.5t12.5 -0.5q68 2 104 30q9 8 17 8q9 0 9 -11
v-435z" />
    <glyph glyph-name="paragraph" unicode="&#xb6;" horiz-adv-x="471" 
d="M239 -85v326q-92 1 -148.5 55.5t-56.5 163.5q0 113 56 177t149 66h180q11 0 11 -10t-11 -10q-3 0 -13.5 1.5t-18.5 1.5q-24 0 -31.5 -6t-7.5 -26v-740q0 -13 -15 -13t-15 13v768h-50v-767q0 -14 -14 -14q-15 0 -15 14z" />
    <glyph glyph-name="periodcentered" unicode="&#xb7;" horiz-adv-x="234" 
d="M64 285q0 24 16.5 41t37.5 17q22 0 37 -15t15 -40q0 -24 -16 -39.5t-40 -15.5q-21 0 -35.5 14t-14.5 38z" />
    <glyph glyph-name="cedilla" unicode="&#xb8;" horiz-adv-x="282" 
d="M67 -56l31 65l19 -1l-26 -56q118 0 118 -75t-113 -75q-38 0 -70 14q-9 4 -5 12q3 7 13 3l20 -7q13 -4 36 -4q60 0 60 58q0 54 -76 54q-13 0 -7 12z" />
    <glyph glyph-name="onesuperior" unicode="&#xb9;" horiz-adv-x="268" 
d="M144 352q-11 0 -35 -0.5t-34 -0.5q-7 0 -19 -1t-14 -1q-8 0 -8 6q0 7 8 7q2 0 13 -1t20 -1q18 0 25 6.5t7 23.5v289q0 16 -6.5 20.5t-27.5 -0.5q-5 -2 -12.5 -4.5t-13 -4.5t-8.5 -2q-7 0 -8 5q0 7 8 9q19 2 31 6q50 16 93 61q7 7 12 7q6 0 6 -9v-377q0 -17 7 -23.5
t25 -6.5q8 0 19 1t14 1q7 0 7 -7q0 -6 -7 -6q-2 0 -14.5 0.5t-18.5 0.5q-10 0 -34 1t-35 1z" />
    <glyph glyph-name="ordmasculine" unicode="&#xba;" horiz-adv-x="491" 
d="M39 492q0 40 10.5 76.5t32.5 69.5t64 52.5t99 19.5q107 0 157 -62.5t50 -154.5q0 -40 -10 -76t-32.5 -69t-64.5 -52.5t-99 -19.5q-55 0 -96.5 18t-65 49.5t-34.5 68.5t-11 80zM245 697q-71 0 -99.5 -53.5t-28.5 -150.5q0 -204 129 -204q72 0 100 53.5t28 149.5
q0 44 -5 77.5t-18.5 64t-40 47t-65.5 16.5z" />
    <glyph glyph-name="guillemotright" unicode="&#xbb;" horiz-adv-x="570" 
d="M534 254q0 -8 -15 -18q-52 -36 -113 -91t-103 -107q-12 -13 -19 -9t2 19q111 159 158 206q-10 9 -20 20t-22.5 26.5t-20.5 26t-23.5 32.5t-22 30.5t-25.5 35.5t-24 34q-9 16 -2 20q9 4 19 -10q43 -52 104 -107.5t112 -90.5q15 -11 15 -17zM303 254q0 -8 -14 -18
q-52 -35 -113 -90.5t-104 -107.5q-11 -12 -18 -9q-8 5 2 19q112 161 157 206q-44 42 -146 188q-7 11 -11 17q-10 15 -2 20q6 3 17 -10q44 -52 105 -107.5t113 -90.5q14 -10 14 -17z" />
    <glyph glyph-name="questiondown" unicode="&#xbf;" horiz-adv-x="495" 
d="M467 -24q0 -67 -55.5 -119.5t-164.5 -52.5q-101 0 -158 50.5t-57 131.5q0 48 24 89.5t58 70t68 55t58 58.5t24 66v9q0 18 8 18q12 0 12 -17v-13q0 -37 -16.5 -71.5t-40 -62.5t-47 -57t-40 -67.5t-16.5 -81.5q0 -67 37 -109.5t107 -42.5q62 0 104 25.5t61 65.5
q-16 -7 -29 -7q-24 0 -41.5 17t-17.5 44q0 28 18.5 44t44.5 16q25 0 42 -16t17 -43zM332 467q0 -27 -18.5 -44.5t-42.5 -17.5q-25 0 -42.5 17t-17.5 44q0 28 18.5 44.5t44.5 16.5q25 0 41.5 -16t16.5 -44z" />
    <glyph glyph-name="Agrave" unicode="&#xc0;" horiz-adv-x="659" 
d="M479 73l-53 147h-257l-53 -148q-8 -20 -8 -34q0 -21 32 -21q8 0 20 1.5t16 1.5q14 0 14 -9q0 -12 -16 -12q-4 0 -29.5 2t-61.5 2q-15 0 -40.5 -2t-39.5 -2t-14 11q0 9 14 9q5 0 15 -1t14 -1q19 0 32.5 12.5t27.5 50.5l218 602q9 28 18 28q8 0 17 -27l220 -594
q18 -48 28.5 -60t34.5 -12q6 0 15 1t13 1q15 0 15 -9q0 -11 -15 -11q-14 0 -52 2t-53 2q-36 0 -80 -2t-48 -2q-15 0 -15 11q0 9 13 9q4 0 15.5 -1t19.5 -1q31 0 31 23q0 11 -8 33zM297 578l-120 -336h241zM163 851q9 16 24 16q19 0 52 -24l108 -77q10 -7 8 -14q-1 -7 -15 -3
q-24 9 -69.5 24t-64.5 22q-32 8 -41.5 23.5t-1.5 32.5z" />
    <glyph glyph-name="Aacute" unicode="&#xc1;" horiz-adv-x="659" 
d="M479 73l-53 147h-257l-53 -148q-8 -20 -8 -34q0 -21 32 -21q8 0 20 1.5t16 1.5q14 0 14 -9q0 -12 -16 -12q-4 0 -29.5 2t-61.5 2q-15 0 -40.5 -2t-39.5 -2t-14 11q0 9 14 9q5 0 15 -1t14 -1q19 0 32.5 12.5t27.5 50.5l218 602q9 28 18 28q8 0 17 -27l220 -594
q18 -48 28.5 -60t34.5 -12q6 0 15 1t13 1q15 0 15 -9q0 -11 -15 -11q-14 0 -52 2t-53 2q-36 0 -80 -2t-48 -2q-15 0 -15 11q0 9 13 9q4 0 15.5 -1t19.5 -1q31 0 31 23q0 11 -8 33zM297 578l-120 -336h241zM480 849q9 -17 -1 -32.5t-42 -23.5q-15 -6 -62 -20t-72 -25
q-12 -6 -15 2q-2 7 8 14q12 8 109 77q31 24 51 24q17 0 24 -16z" />
    <glyph glyph-name="Acircumflex" unicode="&#xc2;" horiz-adv-x="659" 
d="M479 73l-53 147h-257l-53 -148q-8 -20 -8 -34q0 -21 32 -21q8 0 20 1.5t16 1.5q14 0 14 -9q0 -12 -16 -12q-4 0 -29.5 2t-61.5 2q-15 0 -40.5 -2t-39.5 -2t-14 11q0 9 14 9q5 0 15 -1t14 -1q19 0 32.5 12.5t27.5 50.5l218 602q9 28 18 28q8 0 17 -27l220 -594
q18 -48 28.5 -60t34.5 -12q6 0 15 1t13 1q15 0 15 -9q0 -11 -15 -11q-14 0 -52 2t-53 2q-36 0 -80 -2t-48 -2q-15 0 -15 11q0 9 13 9q4 0 15.5 -1t19.5 -1q31 0 31 23q0 11 -8 33zM297 578l-120 -336h241zM327 876q17 0 22 -2t13 -11l94 -107q10 -9 5 -12q-6 -6 -15 1
l-119 82l-119 -82q-10 -7 -16 -1q-4 4 5 12l94 107q8 9 13 11t23 2z" />
    <glyph glyph-name="Atilde" unicode="&#xc3;" horiz-adv-x="659" 
d="M479 73l-53 147h-257l-53 -148q-8 -20 -8 -34q0 -21 32 -21q8 0 20 1.5t16 1.5q14 0 14 -9q0 -12 -16 -12q-4 0 -29.5 2t-61.5 2q-15 0 -40.5 -2t-39.5 -2t-14 11q0 9 14 9q5 0 15 -1t14 -1q19 0 32.5 12.5t27.5 50.5l218 602q9 28 18 28q8 0 17 -27l220 -594
q18 -48 28.5 -60t34.5 -12q6 0 15 1t13 1q15 0 15 -9q0 -11 -15 -11q-14 0 -52 2t-53 2q-36 0 -80 -2t-48 -2q-15 0 -15 11q0 9 13 9q4 0 15.5 -1t19.5 -1q31 0 31 23q0 11 -8 33zM297 578l-120 -336h241zM396 796q31 0 31 43q0 12 9 12t9 -16q0 -84 -60 -84q-31 0 -76 27.5
t-60 27.5q-26 0 -26 -44q0 -11 -11 -11q-8 0 -8 19q0 81 60 81q27 0 71 -27.5t61 -27.5z" />
    <glyph glyph-name="Adieresis" unicode="&#xc4;" horiz-adv-x="659" 
d="M479 73l-53 147h-257l-53 -148q-8 -20 -8 -34q0 -21 32 -21q8 0 20 1.5t16 1.5q14 0 14 -9q0 -12 -16 -12q-4 0 -29.5 2t-61.5 2q-15 0 -40.5 -2t-39.5 -2t-14 11q0 9 14 9q5 0 15 -1t14 -1q19 0 32.5 12.5t27.5 50.5l218 602q9 28 18 28q8 0 17 -27l220 -594
q18 -48 28.5 -60t34.5 -12q6 0 15 1t13 1q15 0 15 -9q0 -11 -15 -11q-14 0 -52 2t-53 2q-36 0 -80 -2t-48 -2q-15 0 -15 11q0 9 13 9q4 0 15.5 -1t19.5 -1q31 0 31 23q0 11 -8 33zM297 578l-120 -336h241zM203 802q0 22 14 36.5t34 14.5q19 0 32 -13t13 -35
q0 -21 -14.5 -35.5t-33.5 -14.5q-20 0 -32.5 13t-12.5 34zM358 802q0 22 14.5 36.5t33.5 14.5q20 0 32.5 -12.5t12.5 -35.5q0 -21 -14.5 -35.5t-34.5 -14.5q-19 0 -31.5 13t-12.5 34z" />
    <glyph glyph-name="Aring" unicode="&#xc5;" horiz-adv-x="659" 
d="M479 73l-53 147h-257l-53 -148q-8 -20 -8 -34q0 -21 32 -21q8 0 20 1.5t16 1.5q14 0 14 -9q0 -12 -16 -12q-4 0 -29.5 2t-61.5 2q-15 0 -40.5 -2t-39.5 -2t-14 11q0 9 14 9q5 0 15 -1t14 -1q19 0 32.5 12.5t27.5 50.5l218 602q9 28 18 28q8 0 17 -27l220 -594
q18 -48 28.5 -60t34.5 -12q6 0 15 1t13 1q15 0 15 -9q0 -11 -15 -11q-14 0 -52 2t-53 2q-36 0 -80 -2t-48 -2q-15 0 -15 11q0 9 13 9q4 0 15.5 -1t19.5 -1q31 0 31 23q0 11 -8 33zM297 578l-120 -336h241zM327 733q-51 0 -83 23.5t-32 61.5q0 37 32 60t83 23t83 -23t32 -60
q0 -38 -32 -61.5t-83 -23.5zM327 747q25 0 40.5 18t15.5 53q0 34 -15.5 52t-40.5 18t-40.5 -18t-15.5 -52q0 -35 15.5 -53t40.5 -18z" />
    <glyph glyph-name="AE" unicode="&#xc6;" horiz-adv-x="897" 
d="M78 60l317 617q0 1 0.5 2.5t1.5 2.5q-6 2 -14 2q-9 0 -19.5 -0.5t-12.5 -0.5q-12 0 -12 10t13 10q8 0 32 -2t42 -2h368q16 0 21 -5t6 -20l5 -87q1 -16 2.5 -28.5t1.5 -16.5q0 -15 -10 -15t-11 13q0 4 -0.5 16t-1.5 28q-5 53 -37 74t-117 21h-156v-325h119q31 0 48.5 18.5
t17.5 45.5q0 7 -0.5 18.5t-0.5 14.5q0 11 11 11q10 0 10 -11q0 -3 -0.5 -14.5t-0.5 -18.5q0 -14 -1 -36t-1 -37q0 -16 1 -39t1 -37q0 -7 0.5 -18.5t0.5 -13.5q0 -12 -10 -12q-11 0 -11 12q0 2 0.5 13.5t0.5 18.5q0 30 -16.5 47.5t-49.5 17.5h-119v-314h177q77 0 112 23.5
t39 71.5q2 17 2.5 30t0.5 14q1 13 12 13q10 0 10 -16q0 -3 -0.5 -7.5t-2 -14.5t-2.5 -22l-8 -87q-1 -15 -6.5 -20t-20.5 -5h-370q-23 0 -58 -2t-44 -2q-12 0 -12 10t11 10q2 0 12.5 -1t19.5 -1q24 0 31.5 7t7.5 27v208h-199l-103 -202q-11 -22 -5.5 -29.5t28.5 -7.5
q12 -1 23.5 0.5t12.5 1.5q14 0 14 -9q0 -12 -15 -12q-5 0 -31.5 3t-53.5 3q-16 0 -40 -3t-39 -3t-15 12q0 9 15 9q5 0 13 -1.5t16 -0.5q30 0 49 43zM219 275h189v367z" />
    <glyph glyph-name="Ccedilla" unicode="&#xc7;" horiz-adv-x="651" 
d="M346 -59l22 46q-146 4 -230.5 96t-84.5 266q0 162 86 261.5t238 99.5q64 0 110.5 -17t71.5 -46t36.5 -60t11.5 -65q0 -25 -17.5 -40.5t-40.5 -15.5t-38.5 15t-15.5 41t15.5 42t40.5 16q14 0 28 -7q-14 51 -63 83.5t-129 32.5q-64 0 -111.5 -27t-75 -75t-41 -108
t-13.5 -131q0 -339 244 -339q96 0 184 44q7 3 16 9.5t14 9.5q12 8 18 -2q5 -11 -9 -18q-3 -2 -16 -7.5t-18 -8.5q-98 -48 -192 -49l-17 -38q118 0 118 -75t-113 -75q-38 0 -70 14q-9 4 -5 12q3 7 13 3l20 -7q13 -4 36 -4q60 0 60 58q0 54 -76 54q-13 0 -7 12z" />
    <glyph glyph-name="Egrave" unicode="&#xc8;" horiz-adv-x="617" 
d="M157 0q-23 0 -58.5 -0.5t-43.5 -0.5q-13 0 -13 10q0 9 12 9q2 0 13 -1t20 -1q22 0 30.5 6.5t8.5 25.5v607q0 19 -8 25.5t-32 6.5q-8 0 -19 -2t-13 -2q-11 0 -11 10q0 11 13 11q8 0 42.5 -0.5t58.5 -0.5h354q16 0 21 -5t6 -20l5 -87q1 -16 2.5 -28.5t1.5 -16.5
q0 -16 -9 -16t-10 14v15t-2 29q-5 50 -39.5 72.5t-116.5 22.5h-157v-329h89q97 0 97 70q0 6 -0.5 15.5t-0.5 11.5q0 13 11 13q10 0 10 -13q0 -2 -1 -11.5t-1 -15.5q0 -13 -1 -37.5t-1 -41.5t1 -43t1 -39q0 -6 1 -15t1 -11q0 -14 -10 -14q-11 0 -11 14q0 2 0.5 11t0.5 15
q0 71 -97 71h-89v-314h119q61 0 102.5 9.5t64.5 27.5t33.5 39t13.5 50q2 15 2 41q0 16 12 16q9 0 9 -17q0 -3 -0.5 -8.5t-1.5 -15.5l-2 -20l-11 -117q-1 -15 -6.5 -20t-20.5 -5h-370zM147 845q9 16 24 16q19 0 52 -24l108 -77q10 -7 8 -14q-1 -7 -15 -3q-24 9 -69.5 24
t-64.5 22q-32 8 -41.5 23.5t-1.5 32.5z" />
    <glyph glyph-name="Eacute" unicode="&#xc9;" horiz-adv-x="617" 
d="M157 0q-23 0 -58.5 -0.5t-43.5 -0.5q-13 0 -13 10q0 9 12 9q2 0 13 -1t20 -1q22 0 30.5 6.5t8.5 25.5v607q0 19 -8 25.5t-32 6.5q-8 0 -19 -2t-13 -2q-11 0 -11 10q0 11 13 11q8 0 42.5 -0.5t58.5 -0.5h354q16 0 21 -5t6 -20l5 -87q1 -16 2.5 -28.5t1.5 -16.5
q0 -16 -9 -16t-10 14v15t-2 29q-5 50 -39.5 72.5t-116.5 22.5h-157v-329h89q97 0 97 70q0 6 -0.5 15.5t-0.5 11.5q0 13 11 13q10 0 10 -13q0 -2 -1 -11.5t-1 -15.5q0 -13 -1 -37.5t-1 -41.5t1 -43t1 -39q0 -6 1 -15t1 -11q0 -14 -10 -14q-11 0 -11 14q0 2 0.5 11t0.5 15
q0 71 -97 71h-89v-314h119q61 0 102.5 9.5t64.5 27.5t33.5 39t13.5 50q2 15 2 41q0 16 12 16q9 0 9 -17q0 -3 -0.5 -8.5t-1.5 -15.5l-2 -20l-11 -117q-1 -15 -6.5 -20t-20.5 -5h-370zM464 843q9 -17 -1 -32.5t-42 -23.5q-15 -6 -62 -20t-72 -25q-12 -6 -15 2q-2 7 8 14
q12 8 109 77q31 24 51 24q17 0 24 -16z" />
    <glyph glyph-name="Ecircumflex" unicode="&#xca;" horiz-adv-x="617" 
d="M157 0q-23 0 -58.5 -0.5t-43.5 -0.5q-13 0 -13 10q0 9 12 9q2 0 13 -1t20 -1q22 0 30.5 6.5t8.5 25.5v607q0 19 -8 25.5t-32 6.5q-8 0 -19 -2t-13 -2q-11 0 -11 10q0 11 13 11q8 0 42.5 -0.5t58.5 -0.5h354q16 0 21 -5t6 -20l5 -87q1 -16 2.5 -28.5t1.5 -16.5
q0 -16 -9 -16t-10 14v15t-2 29q-5 50 -39.5 72.5t-116.5 22.5h-157v-329h89q97 0 97 70q0 6 -0.5 15.5t-0.5 11.5q0 13 11 13q10 0 10 -13q0 -2 -1 -11.5t-1 -15.5q0 -13 -1 -37.5t-1 -41.5t1 -43t1 -39q0 -6 1 -15t1 -11q0 -14 -10 -14q-11 0 -11 14q0 2 0.5 11t0.5 15
q0 71 -97 71h-89v-314h119q61 0 102.5 9.5t64.5 27.5t33.5 39t13.5 50q2 15 2 41q0 16 12 16q9 0 9 -17q0 -3 -0.5 -8.5t-1.5 -15.5l-2 -20l-11 -117q-1 -15 -6.5 -20t-20.5 -5h-370zM311 870q17 0 22 -2t13 -11l94 -107q10 -9 5 -12q-6 -6 -15 1l-119 82l-119 -82
q-10 -7 -16 -1q-4 4 5 12l94 107q8 9 13 11t23 2z" />
    <glyph glyph-name="Edieresis" unicode="&#xcb;" horiz-adv-x="617" 
d="M157 0q-23 0 -58.5 -0.5t-43.5 -0.5q-13 0 -13 10q0 9 12 9q2 0 13 -1t20 -1q22 0 30.5 6.5t8.5 25.5v607q0 19 -8 25.5t-32 6.5q-8 0 -19 -2t-13 -2q-11 0 -11 10q0 11 13 11q8 0 42.5 -0.5t58.5 -0.5h354q16 0 21 -5t6 -20l5 -87q1 -16 2.5 -28.5t1.5 -16.5
q0 -16 -9 -16t-10 14v15t-2 29q-5 50 -39.5 72.5t-116.5 22.5h-157v-329h89q97 0 97 70q0 6 -0.5 15.5t-0.5 11.5q0 13 11 13q10 0 10 -13q0 -2 -1 -11.5t-1 -15.5q0 -13 -1 -37.5t-1 -41.5t1 -43t1 -39q0 -6 1 -15t1 -11q0 -14 -10 -14q-11 0 -11 14q0 2 0.5 11t0.5 15
q0 71 -97 71h-89v-314h119q61 0 102.5 9.5t64.5 27.5t33.5 39t13.5 50q2 15 2 41q0 16 12 16q9 0 9 -17q0 -3 -0.5 -8.5t-1.5 -15.5l-2 -20l-11 -117q-1 -15 -6.5 -20t-20.5 -5h-370zM186 796q0 22 14 36.5t34 14.5q19 0 32 -13t13 -35q0 -21 -14.5 -35.5t-33.5 -14.5
q-20 0 -32.5 13t-12.5 34zM341 796q0 22 14.5 36.5t33.5 14.5t32 -12.5t13 -35.5q0 -21 -14.5 -35.5t-34.5 -14.5q-19 0 -31.5 13t-12.5 34z" />
    <glyph glyph-name="Igrave" unicode="&#xcc;" horiz-adv-x="342" 
d="M170 695q15 0 42.5 1t40.5 1q9 0 20 1t13 1q11 0 11 -10t-11 -10q-3 0 -13.5 1t-19.5 1q-23 0 -30.5 -7t-7.5 -27v-596q0 -20 7.5 -27t30.5 -7q9 0 19.5 1t13.5 1q13 0 13 -10t-13 -10q-2 0 -13 1t-20 1q-13 0 -40.5 1t-42.5 1q-14 0 -41.5 -1t-40.5 -1q-8 0 -19 -1
t-14 -1q-12 0 -12 10t12 10q3 0 13.5 -1t19.5 -1q23 0 31 7t8 27v596q0 20 -8 27t-31 7q-9 0 -19.5 -1t-13.5 -1q-11 0 -11 10t11 10q3 0 14 -1t19 -1q13 0 40.5 -1t41.5 -1zM-3 830q9 16 24 16q19 0 52 -24l108 -77q10 -7 8 -14q-1 -7 -15 -3q-24 9 -69.5 24t-64.5 22
q-32 8 -41.5 23.5t-1.5 32.5z" />
    <glyph glyph-name="Iacute" unicode="&#xcd;" horiz-adv-x="342" 
d="M170 695q15 0 42.5 1t40.5 1q9 0 20 1t13 1q11 0 11 -10t-11 -10q-3 0 -13.5 1t-19.5 1q-23 0 -30.5 -7t-7.5 -27v-596q0 -20 7.5 -27t30.5 -7q9 0 19.5 1t13.5 1q13 0 13 -10t-13 -10q-2 0 -13 1t-20 1q-13 0 -40.5 1t-42.5 1q-14 0 -41.5 -1t-40.5 -1q-8 0 -19 -1
t-14 -1q-12 0 -12 10t12 10q3 0 13.5 -1t19.5 -1q23 0 31 7t8 27v596q0 20 -8 27t-31 7q-9 0 -19.5 -1t-13.5 -1q-11 0 -11 10t11 10q3 0 14 -1t19 -1q13 0 40.5 -1t41.5 -1zM328 828q9 -17 -1 -32.5t-42 -23.5q-15 -6 -62 -20t-72 -25q-12 -6 -15 2q-2 7 8 14q12 8 109 77
q31 24 51 24q17 0 24 -16z" />
    <glyph glyph-name="Icircumflex" unicode="&#xce;" horiz-adv-x="342" 
d="M170 695q15 0 42.5 1t40.5 1q9 0 20 1t13 1q11 0 11 -10t-11 -10q-3 0 -13.5 1t-19.5 1q-23 0 -30.5 -7t-7.5 -27v-596q0 -20 7.5 -27t30.5 -7q9 0 19.5 1t13.5 1q13 0 13 -10t-13 -10q-2 0 -13 1t-20 1q-13 0 -40.5 1t-42.5 1q-14 0 -41.5 -1t-40.5 -1q-8 0 -19 -1
t-14 -1q-12 0 -12 10t12 10q3 0 13.5 -1t19.5 -1q23 0 31 7t8 27v596q0 20 -8 27t-31 7q-9 0 -19.5 -1t-13.5 -1q-11 0 -11 10t11 10q3 0 14 -1t19 -1q13 0 40.5 -1t41.5 -1zM170 866q17 0 22 -2t13 -11l94 -107q10 -9 5 -12q-6 -6 -15 1l-119 82l-119 -82q-10 -7 -16 -1
q-4 4 5 12l94 107q8 9 13 11t23 2z" />
    <glyph glyph-name="Idieresis" unicode="&#xcf;" horiz-adv-x="342" 
d="M170 695q15 0 42.5 1t40.5 1q9 0 20 1t13 1q11 0 11 -10t-11 -10q-3 0 -13.5 1t-19.5 1q-23 0 -30.5 -7t-7.5 -27v-596q0 -20 7.5 -27t30.5 -7q9 0 19.5 1t13.5 1q13 0 13 -10t-13 -10q-2 0 -13 1t-20 1q-13 0 -40.5 1t-42.5 1q-14 0 -41.5 -1t-40.5 -1q-8 0 -19 -1
t-14 -1q-12 0 -12 10t12 10q3 0 13.5 -1t19.5 -1q23 0 31 7t8 27v596q0 20 -8 27t-31 7q-9 0 -19.5 -1t-13.5 -1q-11 0 -11 10t11 10q3 0 14 -1t19 -1q13 0 40.5 -1t41.5 -1zM45 792q0 22 14 36.5t34 14.5q19 0 32 -13t13 -35q0 -21 -14.5 -35.5t-33.5 -14.5q-20 0 -32.5 13
t-12.5 34zM200 792q0 22 14.5 36.5t33.5 14.5q20 0 32.5 -12.5t12.5 -35.5q0 -21 -14.5 -35.5t-34.5 -14.5q-19 0 -31.5 13t-12.5 34z" />
    <glyph glyph-name="Eth" unicode="&#xd0;" horiz-adv-x="726" 
d="M127 51v294h-66q-13 0 -13 12q0 8 12 8h67v284q0 20 -8 27t-32 7q-9 0 -19 -1t-12 -1q-12 0 -12 10q0 11 13 11q9 0 50 -2t64 -2q32 0 70 1.5t50 1.5q181 0 281 -85t100 -268q0 -348 -381 -348q-21 0 -61.5 1.5t-59.5 1.5q-17 0 -61 -2t-50 -2q-15 0 -15 10t12 10
q2 0 12 -1t19 -1q24 0 32 7t8 27zM286 19q154 0 223 78t69 255q0 180 -70.5 255t-229.5 75q-42 0 -52.5 -5.5t-10.5 -25.5v-286h208q13 0 13 -8q0 -12 -14 -12h-207v-298q0 -15 12.5 -21.5t58.5 -6.5z" />
    <glyph glyph-name="Ntilde" unicode="&#xd1;" 
d="M600 696q9 0 25.5 1t26.5 1q8 0 19 1t14 1q11 0 11 -10t-11 -10q-4 0 -14.5 1t-18.5 1q-24 0 -32 -7t-8 -27v-642q0 -18 -8 -18t-19 17l-435 618v-572q0 -20 8 -27t32 -7q8 0 18.5 1t13.5 1q11 0 11 -10t-11 -10q-2 0 -13 1t-19 1q-10 0 -26 1t-26 1q-9 0 -25.5 -1
t-26.5 -1q-7 0 -18.5 -1t-14.5 -1q-10 0 -10 10t10 10q4 0 14.5 -1t18.5 -1q24 0 32 7t8 27v600q0 20 -8 26.5t-32 6.5q-8 0 -19 -0.5t-13 -0.5q-11 0 -11 10t12 10q5 0 32.5 -2t46.5 -2h53q16 0 27 -15l373 -532v496q0 20 -7.5 27t-30.5 7q-9 0 -19.5 -1t-13.5 -1
q-11 0 -11 10t11 10q2 0 13.5 -1t19.5 -1q9 0 25 -1t26 -1zM431 789q31 0 31 43q0 12 9 12t9 -16q0 -84 -60 -84q-31 0 -76 27.5t-60 27.5q-26 0 -26 -44q0 -11 -11 -11q-8 0 -8 19q0 81 60 81q27 0 71 -27.5t61 -27.5z" />
    <glyph glyph-name="Ograve" unicode="&#xd2;" horiz-adv-x="749" 
d="M53 347q0 53 9 102t32 97.5t58.5 84t92.5 57.5t129 22q86 0 150.5 -30t100.5 -82.5t53.5 -114.5t17.5 -134q0 -52 -9 -100.5t-32 -97.5t-58.5 -84.5t-92.5 -57.5t-130 -22q-69 0 -124.5 20t-92 54t-60.5 81t-34 98t-10 107zM374 689q-229 0 -229 -340q0 -341 229 -341
q69 0 116 28t70.5 78.5t33 106t9.5 125.5q0 343 -229 343zM210 851q9 16 24 16q19 0 52 -24l108 -77q10 -7 8 -14q-1 -7 -15 -3q-24 9 -69.5 24t-64.5 22q-32 8 -41.5 23.5t-1.5 32.5z" />
    <glyph glyph-name="Oacute" unicode="&#xd3;" horiz-adv-x="749" 
d="M53 347q0 53 9 102t32 97.5t58.5 84t92.5 57.5t129 22q86 0 150.5 -30t100.5 -82.5t53.5 -114.5t17.5 -134q0 -52 -9 -100.5t-32 -97.5t-58.5 -84.5t-92.5 -57.5t-130 -22q-69 0 -124.5 20t-92 54t-60.5 81t-34 98t-10 107zM374 689q-229 0 -229 -340q0 -341 229 -341
q69 0 116 28t70.5 78.5t33 106t9.5 125.5q0 343 -229 343zM527 849q9 -17 -1 -32.5t-42 -23.5q-15 -6 -62 -20t-72 -25q-12 -6 -15 2q-2 7 8 14q12 8 109 77q32 24 51 24q17 0 24 -16z" />
    <glyph glyph-name="Ocircumflex" unicode="&#xd4;" horiz-adv-x="749" 
d="M53 347q0 53 9 102t32 97.5t58.5 84t92.5 57.5t129 22q86 0 150.5 -30t100.5 -82.5t53.5 -114.5t17.5 -134q0 -52 -9 -100.5t-32 -97.5t-58.5 -84.5t-92.5 -57.5t-130 -22q-69 0 -124.5 20t-92 54t-60.5 81t-34 98t-10 107zM374 689q-229 0 -229 -340q0 -341 229 -341
q69 0 116 28t70.5 78.5t33 106t9.5 125.5q0 343 -229 343zM374 877q17 0 22 -2t13 -11l94 -107q10 -9 5 -12q-6 -6 -15 1l-119 82l-119 -82q-10 -7 -16 -1q-4 4 5 12l94 107q8 9 13 11t23 2z" />
    <glyph glyph-name="Otilde" unicode="&#xd5;" horiz-adv-x="749" 
d="M53 347q0 53 9 102t32 97.5t58.5 84t92.5 57.5t129 22q86 0 150.5 -30t100.5 -82.5t53.5 -114.5t17.5 -134q0 -52 -9 -100.5t-32 -97.5t-58.5 -84.5t-92.5 -57.5t-130 -22q-69 0 -124.5 20t-92 54t-60.5 81t-34 98t-10 107zM374 689q-229 0 -229 -340q0 -341 229 -341
q69 0 116 28t70.5 78.5t33 106t9.5 125.5q0 343 -229 343zM443 796q31 0 31 43q0 12 9 12t9 -16q0 -84 -60 -84q-31 0 -76 27.5t-60 27.5q-26 0 -26 -44q0 -11 -11 -11q-8 0 -8 19q0 81 60 81q27 0 71 -27.5t61 -27.5z" />
    <glyph glyph-name="Odieresis" unicode="&#xd6;" horiz-adv-x="749" 
d="M53 347q0 53 9 102t32 97.5t58.5 84t92.5 57.5t129 22q86 0 150.5 -30t100.5 -82.5t53.5 -114.5t17.5 -134q0 -52 -9 -100.5t-32 -97.5t-58.5 -84.5t-92.5 -57.5t-130 -22q-69 0 -124.5 20t-92 54t-60.5 81t-34 98t-10 107zM374 689q-229 0 -229 -340q0 -341 229 -341
q69 0 116 28t70.5 78.5t33 106t9.5 125.5q0 343 -229 343zM250 803q0 22 14 36.5t34 14.5q19 0 32 -13t13 -35q0 -21 -14.5 -35.5t-33.5 -14.5q-20 0 -32.5 13t-12.5 34zM405 803q0 22 14.5 36.5t33.5 14.5t32 -13t13 -35q0 -21 -14.5 -35.5t-34.5 -14.5q-19 0 -31.5 13
t-12.5 34z" />
    <glyph glyph-name="multiply" unicode="&#xd7;" horiz-adv-x="463" 
d="M242 459v-166h174q12 0 12 -10q0 -7 -3 -9t-13 -2h-170v-182q0 -13 -11 -13q-8 0 -10.5 2.5t-2.5 9.5v183h-170q-6 0 -8.5 0.5t-3.5 2.5t-1 7q0 11 12 11h171v170q0 12 11 12q9 0 11 -3t2 -13z" />
    <glyph glyph-name="Oslash" unicode="&#xd8;" horiz-adv-x="749" 
d="M53 347q0 53 9 102t32 97.5t58.5 84t92.5 57.5t129 22q71 0 129 -22l24 58q3 8 5 10.5t6 4.5t9 -1q11 -2 2 -23l-24 -58q88 -41 129.5 -130t41.5 -200q0 -52 -9 -100.5t-32 -97.5t-58.5 -84.5t-92.5 -57.5t-130 -22q-68 0 -128 21l-25 -62q-5 -11 -18 -8q-11 4 -4 19
l25 60q-88 42 -129.5 130.5t-41.5 199.5zM374 689q-229 0 -229 -340q0 -219 93 -297l253 607q-49 30 -117 30zM603 346q0 219 -93 298l-251 -607q46 -29 115 -29t116 28t70.5 78.5t33 106t9.5 125.5z" />
    <glyph glyph-name="Ugrave" unicode="&#xd9;" 
d="M606 695q9 0 25.5 1t26.5 1q8 0 19 1t14 1q11 0 11 -10t-11 -10q-3 0 -13.5 1t-19.5 1q-23 0 -31 -7t-8 -27v-389q0 -137 -61.5 -204t-190.5 -67q-131 0 -193 68.5t-62 204.5v387q0 20 -7.5 27t-30.5 7q-9 0 -19.5 -1t-13.5 -1q-11 0 -11 10t11 10q2 0 13.5 -1t19.5 -1
q13 0 40.5 -1t42.5 -1q14 0 41.5 1t41.5 1q7 0 18 1t14 1q11 0 11 -10t-11 -10q-3 0 -13.5 1t-18.5 1q-24 0 -32 -7t-8 -27v-386q0 -124 42.5 -185.5t144.5 -61.5q207 0 207 244v389q0 20 -8 27t-31 7q-8 0 -18.5 -1t-14.5 -1q-10 0 -10 10t10 10q3 0 14 -1t19 -1q9 0 26 -1
t25 -1zM228 840q9 16 24 16q19 0 52 -24l108 -77q10 -7 8 -14q-1 -7 -15 -3q-24 9 -69.5 24t-64.5 22q-32 8 -41.5 23.5t-1.5 32.5z" />
    <glyph glyph-name="Uacute" unicode="&#xda;" 
d="M606 695q9 0 25.5 1t26.5 1q8 0 19 1t14 1q11 0 11 -10t-11 -10q-3 0 -13.5 1t-19.5 1q-23 0 -31 -7t-8 -27v-389q0 -137 -61.5 -204t-190.5 -67q-131 0 -193 68.5t-62 204.5v387q0 20 -7.5 27t-30.5 7q-9 0 -19.5 -1t-13.5 -1q-11 0 -11 10t11 10q2 0 13.5 -1t19.5 -1
q13 0 40.5 -1t42.5 -1q14 0 41.5 1t41.5 1q7 0 18 1t14 1q11 0 11 -10t-11 -10q-3 0 -13.5 1t-18.5 1q-24 0 -32 -7t-8 -27v-386q0 -124 42.5 -185.5t144.5 -61.5q207 0 207 244v389q0 20 -8 27t-31 7q-8 0 -18.5 -1t-14.5 -1q-10 0 -10 10t10 10q3 0 14 -1t19 -1q9 0 26 -1
t25 -1zM545 838q9 -17 -1 -32.5t-42 -23.5q-15 -6 -62 -20t-72 -25q-12 -6 -15 2q-2 7 8 14q12 8 109 77q32 24 51 24q17 0 24 -16z" />
    <glyph glyph-name="Ucircumflex" unicode="&#xdb;" 
d="M606 695q9 0 25.5 1t26.5 1q8 0 19 1t14 1q11 0 11 -10t-11 -10q-3 0 -13.5 1t-19.5 1q-23 0 -31 -7t-8 -27v-389q0 -137 -61.5 -204t-190.5 -67q-131 0 -193 68.5t-62 204.5v387q0 20 -7.5 27t-30.5 7q-9 0 -19.5 -1t-13.5 -1q-11 0 -11 10t11 10q2 0 13.5 -1t19.5 -1
q13 0 40.5 -1t42.5 -1q14 0 41.5 1t41.5 1q7 0 18 1t14 1q11 0 11 -10t-11 -10q-3 0 -13.5 1t-18.5 1q-24 0 -32 -7t-8 -27v-386q0 -124 42.5 -185.5t144.5 -61.5q207 0 207 244v389q0 20 -8 27t-31 7q-8 0 -18.5 -1t-14.5 -1q-10 0 -10 10t10 10q3 0 14 -1t19 -1q9 0 26 -1
t25 -1zM392 866q17 0 22 -2t13 -11l94 -107q10 -9 5 -12q-6 -6 -15 1l-119 82l-119 -82q-10 -7 -16 -1q-4 4 5 12l94 107q8 9 13 11t23 2z" />
    <glyph glyph-name="Udieresis" unicode="&#xdc;" 
d="M606 695q9 0 25.5 1t26.5 1q8 0 19 1t14 1q11 0 11 -10t-11 -10q-3 0 -13.5 1t-19.5 1q-23 0 -31 -7t-8 -27v-389q0 -137 -61.5 -204t-190.5 -67q-131 0 -193 68.5t-62 204.5v387q0 20 -7.5 27t-30.5 7q-9 0 -19.5 -1t-13.5 -1q-11 0 -11 10t11 10q2 0 13.5 -1t19.5 -1
q13 0 40.5 -1t42.5 -1q14 0 41.5 1t41.5 1q7 0 18 1t14 1q11 0 11 -10t-11 -10q-3 0 -13.5 1t-18.5 1q-24 0 -32 -7t-8 -27v-386q0 -124 42.5 -185.5t144.5 -61.5q207 0 207 244v389q0 20 -8 27t-31 7q-8 0 -18.5 -1t-14.5 -1q-10 0 -10 10t10 10q3 0 14 -1t19 -1q9 0 26 -1
t25 -1zM268 792q0 22 14 36.5t34 14.5q19 0 32 -13t13 -35q0 -21 -14.5 -35.5t-33.5 -14.5q-20 0 -32.5 13t-12.5 34zM423 792q0 22 14.5 36.5t33.5 14.5t32 -12.5t13 -35.5q0 -21 -14.5 -35.5t-34.5 -14.5q-19 0 -31.5 13t-12.5 34z" />
    <glyph glyph-name="Yacute" unicode="&#xdd;" horiz-adv-x="642" 
d="M325 3q-13 0 -41 -1t-42 -1q-8 0 -18.5 -1t-13.5 -1q-11 0 -11 10t11 10q3 0 13.5 -1t18.5 -1q24 0 32 7t8 27v231l-197 368q-9 17 -19.5 25t-17 9t-18.5 1q-6 0 -14 -1t-15 -1q-14 0 -14 9q0 11 14 11q15 0 60 -2t60 -2q34 0 71.5 2t40.5 2q16 0 16 -12q0 -8 -14 -8
q-3 0 -14 1t-23 1q-21 0 -22 -10t17 -46l160 -310l171 336q6 11 8 15.5t-1.5 9.5t-17.5 5q-8 0 -20.5 -1t-15.5 -1q-15 0 -15 8q0 12 17 12q3 0 21 -2t53 -2q15 0 38 2t39 2q14 0 14 -11q0 -9 -14 -9q-6 0 -14 1t-13 1q-22 0 -32.5 -6.5t-22.5 -28.5l-179 -349v-250
q0 -20 7.5 -27t31.5 -7q9 0 19 1t14 1q11 0 11 -10t-11 -10q-3 0 -14 1t-19 1q-13 0 -41 1t-42 1zM470 838q9 -17 -1 -32.5t-42 -23.5q-15 -6 -62 -20t-72 -25q-12 -6 -15 2q-2 7 8 14q12 8 109 77q31 24 51 24q17 0 24 -16z" />
    <glyph glyph-name="Thorn" unicode="&#xde;" horiz-adv-x="623" 
d="M170 3q-14 0 -41.5 -1t-40.5 -1q-8 0 -19 -1t-14 -1q-12 0 -12 10t12 10q3 0 13.5 -1t19.5 -1q23 0 31 7t8 27v596q0 20 -8 27t-31 7q-9 0 -19.5 -1t-13.5 -1q-11 0 -11 10t11 10q3 0 14 -1t19 -1q13 0 40.5 -1t41.5 -1q15 0 42.5 1t40.5 1q9 0 20 1t13 1q11 0 11 -10
t-11 -10q-3 0 -13.5 1t-19.5 1q-23 0 -30.5 -7t-7.5 -27v-65h70q147 0 219.5 -49.5t72.5 -165.5q0 -117 -73 -169t-219 -52h-70v-95q0 -20 7.5 -27t30.5 -7q9 0 19.5 1t13.5 1q13 0 13 -10t-13 -10q-2 0 -13 1t-20 1q-13 0 -40.5 1t-42.5 1zM215 166h69q103 0 152 49t49 153
q0 103 -49 148.5t-154 45.5h-67v-396z" />
    <glyph glyph-name="germandbls" unicode="&#xdf;" horiz-adv-x="598" 
d="M148 3q-10 0 -39.5 -1t-37.5 -1t-14 -0.5t-8.5 -1t-3.5 -0.5q-11 0 -11 10t10 10q2 0 10.5 -1t16.5 -1q21 0 27.5 7t6.5 27v487q0 219 208 219q99 0 152 -48t53 -128q0 -76 -47 -121.5t-116 -52.5q39 -4 71.5 -15.5t62 -35t46.5 -64t17 -95.5q0 -95 -49.5 -148.5
t-133.5 -53.5q-68 0 -105 34q-16 15 -11 23q7 10 25 -7q31 -29 76 -29q49 0 79.5 46t30.5 135q0 198 -163 198h-30q-15 0 -15 11q0 10 17 10h24q58 0 96 39t38 122q0 76 -33 117.5t-88 41.5q-121 0 -121 -196v-489q0 -20 7 -27t27 -7q8 0 16.5 1t10.5 1q10 0 10 -10t-10 -10
q-1 0 -3.5 0.5t-8.5 1t-15 0.5q-7 0 -36.5 1t-38.5 1z" />
    <glyph glyph-name="agrave" unicode="&#xe0;" horiz-adv-x="556" 
d="M127 452q17 0 32.5 -14.5t15.5 -37.5t-15.5 -37.5t-37.5 -14.5q-20 0 -34 13.5t-14 33.5v4q2 61 43 94.5t122 33.5q216 0 216 -226v-205q0 -80 49 -80q8 0 15.5 2.5t11 5t9.5 7.5l7 5q11 11 18 2q6 -7 -7 -18q-32 -25 -82 -25q-93 0 -103 101q-20 -45 -62.5 -73.5
t-105.5 -28.5q-72 0 -116 35.5t-44 105.5q0 84 63.5 118.5t187.5 34.5h76v27q0 101 -37 146t-111 45q-95 0 -123 -62q13 8 26 8zM129 134q0 -116 99 -116q44 0 82 32q62 51 62 149v69h-76q-89 0 -128 -31t-39 -103zM102 687q9 16 24 16q19 0 52 -24l108 -77q10 -7 8 -14
q-1 -7 -15 -3q-24 9 -69.5 24t-64.5 22q-32 8 -41.5 23.5t-1.5 32.5z" />
    <glyph glyph-name="aacute" unicode="&#xe1;" horiz-adv-x="556" 
d="M127 452q17 0 32.5 -14.5t15.5 -37.5t-15.5 -37.5t-37.5 -14.5q-20 0 -34 13.5t-14 33.5v4q2 61 43 94.5t122 33.5q216 0 216 -226v-205q0 -80 49 -80q8 0 15.5 2.5t11 5t9.5 7.5l7 5q11 11 18 2q6 -7 -7 -18q-32 -25 -82 -25q-93 0 -103 101q-20 -45 -62.5 -73.5
t-105.5 -28.5q-72 0 -116 35.5t-44 105.5q0 84 63.5 118.5t187.5 34.5h76v27q0 101 -37 146t-111 45q-95 0 -123 -62q13 8 26 8zM129 134q0 -116 99 -116q44 0 82 32q62 51 62 149v69h-76q-89 0 -128 -31t-39 -103zM419 685q9 -17 -1 -32.5t-42 -23.5q-15 -6 -62 -20
t-72 -25q-12 -6 -15 2q-2 7 8 14q12 8 109 77q32 24 51 24q17 0 24 -16z" />
    <glyph glyph-name="acircumflex" unicode="&#xe2;" horiz-adv-x="556" 
d="M127 452q17 0 32.5 -14.5t15.5 -37.5t-15.5 -37.5t-37.5 -14.5q-20 0 -34 13.5t-14 33.5v4q2 61 43 94.5t122 33.5q216 0 216 -226v-205q0 -80 49 -80q8 0 15.5 2.5t11 5t9.5 7.5l7 5q11 11 18 2q6 -7 -7 -18q-32 -25 -82 -25q-93 0 -103 101q-20 -45 -62.5 -73.5
t-105.5 -28.5q-72 0 -116 35.5t-44 105.5q0 84 63.5 118.5t187.5 34.5h76v27q0 101 -37 146t-111 45q-95 0 -123 -62q13 8 26 8zM129 134q0 -116 99 -116q44 0 82 32q62 51 62 149v69h-76q-89 0 -128 -31t-39 -103zM266 713q17 0 22 -2t13 -11l94 -107q10 -9 5 -12
q-6 -6 -15 1l-119 82l-119 -82q-10 -7 -16 -1q-4 4 5 12l94 107q8 9 13 11t23 2z" />
    <glyph glyph-name="atilde" unicode="&#xe3;" horiz-adv-x="556" 
d="M127 452q17 0 32.5 -14.5t15.5 -37.5t-15.5 -37.5t-37.5 -14.5q-20 0 -34 13.5t-14 33.5v4q2 61 43 94.5t122 33.5q216 0 216 -226v-205q0 -80 49 -80q8 0 15.5 2.5t11 5t9.5 7.5l7 5q11 11 18 2q6 -7 -7 -18q-32 -25 -82 -25q-93 0 -103 101q-20 -45 -62.5 -73.5
t-105.5 -28.5q-72 0 -116 35.5t-44 105.5q0 84 63.5 118.5t187.5 34.5h76v27q0 101 -37 146t-111 45q-95 0 -123 -62q13 8 26 8zM129 134q0 -116 99 -116q44 0 82 32q62 51 62 149v69h-76q-89 0 -128 -31t-39 -103zM335 632q31 0 31 43q0 12 9 12t9 -16q0 -84 -60 -84
q-31 0 -76 27.5t-60 27.5q-26 0 -26 -44q0 -11 -11 -11q-8 0 -8 19q0 81 60 81q27 0 71 -27.5t61 -27.5z" />
    <glyph glyph-name="adieresis" unicode="&#xe4;" horiz-adv-x="556" 
d="M127 452q17 0 32.5 -14.5t15.5 -37.5t-15.5 -37.5t-37.5 -14.5q-20 0 -34 13.5t-14 33.5v4q2 61 43 94.5t122 33.5q216 0 216 -226v-205q0 -80 49 -80q8 0 15.5 2.5t11 5t9.5 7.5l7 5q11 11 18 2q6 -7 -7 -18q-32 -25 -82 -25q-93 0 -103 101q-20 -45 -62.5 -73.5
t-105.5 -28.5q-72 0 -116 35.5t-44 105.5q0 84 63.5 118.5t187.5 34.5h76v27q0 101 -37 146t-111 45q-95 0 -123 -62q13 8 26 8zM129 134q0 -116 99 -116q44 0 82 32q62 51 62 149v69h-76q-89 0 -128 -31t-39 -103zM142 639q0 22 14 36.5t34 14.5q19 0 32 -13t13 -35
q0 -21 -14.5 -35.5t-33.5 -14.5q-20 0 -32.5 13t-12.5 34zM297 639q0 22 14.5 36.5t33.5 14.5t32 -13t13 -35q0 -21 -14.5 -35.5t-34.5 -14.5q-19 0 -31.5 13t-12.5 34z" />
    <glyph glyph-name="aring" unicode="&#xe5;" horiz-adv-x="556" 
d="M127 452q17 0 32.5 -14.5t15.5 -37.5t-15.5 -37.5t-37.5 -14.5q-20 0 -34 13.5t-14 33.5v4q2 61 43 94.5t122 33.5q216 0 216 -226v-205q0 -80 49 -80q8 0 15.5 2.5t11 5t9.5 7.5l7 5q11 11 18 2q6 -7 -7 -18q-32 -25 -82 -25q-93 0 -103 101q-20 -45 -62.5 -73.5
t-105.5 -28.5q-72 0 -116 35.5t-44 105.5q0 84 63.5 118.5t187.5 34.5h76v27q0 101 -37 146t-111 45q-95 0 -123 -62q13 8 26 8zM129 134q0 -116 99 -116q44 0 82 32q62 51 62 149v69h-76q-89 0 -128 -31t-39 -103zM266 570q-51 0 -83 23.5t-32 61.5q0 37 32 60t83 23
t83 -23t32 -60q0 -38 -32 -61.5t-83 -23.5zM266 584q25 0 40.5 18t15.5 53q0 34 -15.5 52t-40.5 18t-40.5 -18t-15.5 -52q0 -35 15.5 -53t40.5 -18z" />
    <glyph glyph-name="ae" unicode="&#xe6;" horiz-adv-x="861" 
d="M617 527q94 0 143.5 -38.5t49.5 -109.5q0 -160 -220 -160q-69 0 -118 9q5 -117 48.5 -164.5t124.5 -47.5q63 0 125 27q9 3 18 9.5t12 8.5q14 6 18 -1q7 -10 -7 -18q-6 -4 -18.5 -9t-16.5 -7q-68 -34 -145 -34q-158 0 -217 119q-21 -51 -76 -84t-141 -33q-74 0 -113 34.5
t-39 99.5q0 88 70 124t211 36h46v32q0 100 -35 143.5t-105 43.5q-102 0 -129 -65q9 6 22 6q20 0 35 -14t15 -38q0 -23 -16 -38t-37 -15t-34.5 13.5t-13.5 36.5v4q2 130 172 130q139 0 185 -93q61 93 186 93zM617 507q-69 0 -107 -62t-38 -188v-7q56 -10 116 -10
q144 0 144 144q0 60 -29.5 91.5t-85.5 31.5zM129 126q0 -108 88 -108q57 0 93 32q62 54 62 161v57h-46q-104 0 -150.5 -33t-46.5 -109z" />
    <glyph glyph-name="ccedilla" unicode="&#xe7;" horiz-adv-x="511" 
d="M240 -56l23 49q-108 8 -162 77.5t-54 185.5q0 126 66 198.5t179 72.5q88 0 131.5 -40.5t43.5 -92.5h-4q0 -26 -12.5 -41.5t-37.5 -15.5q-23 0 -38 15t-15 40q0 26 16.5 43t39.5 17q5 0 13 -2q-40 57 -126 57q-167 0 -167 -248q0 -243 174 -243q63 0 117 27q20 12 24 16
q19 14 24 3q7 -10 -12 -21q-7 -4 -29 -14q-65 -35 -141 -35h-11l-18 -40q118 0 118 -75t-113 -75q-38 0 -70 14q-9 4 -5 12q3 7 13 3l20 -7q13 -4 36 -4q60 0 60 58q0 54 -76 54q-13 0 -7 12z" />
    <glyph glyph-name="egrave" unicode="&#xe8;" horiz-adv-x="521" 
d="M279 527q89 0 140 -41.5t51 -117.5q0 -150 -231 -150h-102q6 -111 46.5 -156.5t114.5 -45.5q69 0 133 27q7 3 12 6t10 6.5t8 5.5q13 6 17 -1q7 -10 -7 -18q-4 -2 -34 -16q-75 -34 -149 -34q-120 0 -180 70t-60 193q0 124 59.5 198t171.5 74zM279 507q-143 0 -143 -250
v-18h102q80 0 117 33t37 100q0 66 -29 100.5t-84 34.5zM116 687q9 16 24 16q19 0 52 -24l108 -77q10 -7 8 -14q-1 -7 -15 -3q-24 9 -69.5 24t-64.5 22q-32 8 -41.5 23.5t-1.5 32.5z" />
    <glyph glyph-name="eacute" unicode="&#xe9;" horiz-adv-x="521" 
d="M279 527q89 0 140 -41.5t51 -117.5q0 -150 -231 -150h-102q6 -111 46.5 -156.5t114.5 -45.5q69 0 133 27q7 3 12 6t10 6.5t8 5.5q13 6 17 -1q7 -10 -7 -18q-4 -2 -34 -16q-75 -34 -149 -34q-120 0 -180 70t-60 193q0 124 59.5 198t171.5 74zM279 507q-143 0 -143 -250
v-18h102q80 0 117 33t37 100q0 66 -29 100.5t-84 34.5zM434 685q9 -17 -1 -32.5t-42 -23.5q-15 -6 -62 -20t-72 -25q-12 -6 -15 2q-2 7 8 14q12 8 109 77q31 24 51 24q17 0 24 -16z" />
    <glyph glyph-name="ecircumflex" unicode="&#xea;" horiz-adv-x="521" 
d="M279 527q89 0 140 -41.5t51 -117.5q0 -150 -231 -150h-102q6 -111 46.5 -156.5t114.5 -45.5q69 0 133 27q7 3 12 6t10 6.5t8 5.5q13 6 17 -1q7 -10 -7 -18q-4 -2 -34 -16q-75 -34 -149 -34q-120 0 -180 70t-60 193q0 124 59.5 198t171.5 74zM279 507q-143 0 -143 -250
v-18h102q80 0 117 33t37 100q0 66 -29 100.5t-84 34.5zM280 713q17 0 22 -2t13 -11l94 -107q10 -9 5 -12q-6 -6 -15 1l-119 82l-119 -82q-10 -7 -16 -1q-4 4 5 12l94 107q8 9 13 11t23 2z" />
    <glyph glyph-name="edieresis" unicode="&#xeb;" horiz-adv-x="521" 
d="M279 527q89 0 140 -41.5t51 -117.5q0 -150 -231 -150h-102q6 -111 46.5 -156.5t114.5 -45.5q69 0 133 27q7 3 12 6t10 6.5t8 5.5q13 6 17 -1q7 -10 -7 -18q-4 -2 -34 -16q-75 -34 -149 -34q-120 0 -180 70t-60 193q0 124 59.5 198t171.5 74zM279 507q-143 0 -143 -250
v-18h102q80 0 117 33t37 100q0 66 -29 100.5t-84 34.5zM156 639q0 22 14 36.5t34 14.5q19 0 32 -13t13 -35q0 -21 -14.5 -35.5t-33.5 -14.5q-20 0 -32.5 13t-12.5 34zM311 639q0 22 14.5 36.5t33.5 14.5t32 -13t13 -35q0 -21 -14.5 -35.5t-34.5 -14.5q-19 0 -31.5 13
t-12.5 34z" />
    <glyph glyph-name="igrave" unicode="&#xec;" horiz-adv-x="308" 
d="M159 3q-14 0 -41 -1t-40 -1q-8 0 -19 -1t-14 -1q-11 0 -11 10t11 10q4 0 14 -1t19 -1q23 0 31 7t8 27v385q0 23 -9 31t-35 8q-5 0 -14.5 -0.5t-12.5 -0.5q-13 0 -13 9q0 10 13 10q3 0 13 -0.5t15 -0.5q66 0 100 23q12 11 20 11q7 0 7 -13v-462q0 -20 7.5 -27t31.5 -7
q8 0 18.5 1t13.5 1q11 0 11 -10t-11 -10q-2 0 -13 1t-19 1q-13 0 -40 1t-41 1zM-23 677q9 16 24 16q19 0 52 -24l108 -77q10 -7 8 -14q-1 -7 -15 -3q-24 9 -69.5 24t-64.5 22q-32 8 -41.5 23.5t-1.5 32.5z" />
    <glyph glyph-name="iacute" unicode="&#xed;" horiz-adv-x="308" 
d="M159 3q-14 0 -41 -1t-40 -1q-8 0 -19 -1t-14 -1q-11 0 -11 10t11 10q4 0 14 -1t19 -1q23 0 31 7t8 27v385q0 23 -9 31t-35 8q-5 0 -14.5 -0.5t-12.5 -0.5q-13 0 -13 9q0 10 13 10q3 0 13 -0.5t15 -0.5q66 0 100 23q12 11 20 11q7 0 7 -13v-462q0 -20 7.5 -27t31.5 -7
q8 0 18.5 1t13.5 1q11 0 11 -10t-11 -10q-2 0 -13 1t-19 1q-13 0 -40 1t-41 1zM295 675q9 -17 -1 -32.5t-42 -23.5q-15 -6 -62 -20t-72 -25q-12 -6 -15 2q-2 7 8 14q12 8 109 77q32 24 51 24q17 0 24 -16z" />
    <glyph glyph-name="icircumflex" unicode="&#xee;" horiz-adv-x="308" 
d="M159 3q-14 0 -41 -1t-40 -1q-8 0 -19 -1t-14 -1q-11 0 -11 10t11 10q4 0 14 -1t19 -1q23 0 31 7t8 27v385q0 23 -9 31t-35 8q-5 0 -14.5 -0.5t-12.5 -0.5q-13 0 -13 9q0 10 13 10q3 0 13 -0.5t15 -0.5q66 0 100 23q12 11 20 11q7 0 7 -13v-462q0 -20 7.5 -27t31.5 -7
q8 0 18.5 1t13.5 1q11 0 11 -10t-11 -10q-2 0 -13 1t-19 1q-13 0 -40 1t-41 1zM141 703q17 0 22 -2t13 -11l94 -107q10 -9 5 -12q-6 -6 -15 1l-119 82l-119 -82q-10 -7 -16 -1q-4 4 5 12l94 107q8 9 13 11t23 2z" />
    <glyph glyph-name="idieresis" unicode="&#xef;" horiz-adv-x="308" 
d="M159 3q-14 0 -41 -1t-40 -1q-8 0 -19 -1t-14 -1q-11 0 -11 10t11 10q4 0 14 -1t19 -1q23 0 31 7t8 27v385q0 23 -9 31t-35 8q-5 0 -14.5 -0.5t-12.5 -0.5q-13 0 -13 9q0 10 13 10q3 0 13 -0.5t15 -0.5q66 0 100 23q12 11 20 11q7 0 7 -13v-462q0 -20 7.5 -27t31.5 -7
q8 0 18.5 1t13.5 1q11 0 11 -10t-11 -10q-2 0 -13 1t-19 1q-13 0 -40 1t-41 1zM17 628q0 22 14 36.5t34 14.5q19 0 32 -13t13 -35q0 -21 -14.5 -35.5t-33.5 -14.5q-20 0 -32.5 13t-12.5 34zM172 628q0 22 14.5 36.5t33.5 14.5q20 0 32.5 -12.5t12.5 -35.5q0 -21 -14.5 -35.5
t-34.5 -14.5q-19 0 -31.5 13t-12.5 34z" />
    <glyph glyph-name="eth" unicode="&#xf0;" horiz-adv-x="585" 
d="M515 640l-113 -43q133 -142 133 -310q0 -39 -6.5 -77t-24.5 -79t-45.5 -71.5t-74 -50.5t-105.5 -20q-115 0 -174.5 65t-59.5 159q0 99 62.5 161.5t170.5 62.5q52 0 97.5 -34t67.5 -87q-16 151 -90 262l-126 -48q-26 -10 -29 0q-2 7 1.5 10t17.5 9l124 47q-35 49 -96 103
q-15 14 -11 20q7 7 22 -3q71 -44 130 -102l124 47q29 11 33 0q2 -6 -3.5 -10t-24.5 -11zM279 9q73 0 111.5 58t38.5 146q0 97 -43.5 150.5t-111.5 53.5q-69 0 -104.5 -53t-35.5 -153q0 -96 36.5 -149t108.5 -53z" />
    <glyph glyph-name="ntilde" unicode="&#xf1;" horiz-adv-x="643" 
d="M343 498q-41 0 -73 -24q-68 -53 -68 -229v-194q0 -20 7.5 -27t31.5 -7q9 0 19 1t12 1q12 0 12 -10t-12 -10q-2 0 -13 1t-18 1q-13 0 -40.5 1t-41.5 1t-41 -1t-40 -1q-8 0 -19 -1t-14 -1q-10 0 -10 10t10 10q4 0 14.5 -1t18.5 -1q24 0 31.5 7t7.5 27v385q0 23 -8.5 31
t-34.5 8q-5 0 -15 -0.5t-13 -0.5q-13 0 -13 9q0 10 13 10q4 0 14 -0.5t15 -0.5q66 0 100 23q12 11 19 11q8 0 8 -13v-108q44 122 166 122q73 0 115.5 -42t42.5 -128v-261q0 -80 48 -80q8 0 16 2.5t11.5 5t9 7.5t6.5 5q12 11 18 2q5 -7 -6 -18q-29 -25 -82 -25t-79 31.5
t-26 99.5v241q0 131 -99 131zM400 632q31 0 31 43q0 12 9 12t9 -16q0 -84 -60 -84q-31 0 -76 27.5t-60 27.5q-26 0 -26 -44q0 -11 -11 -11q-8 0 -8 19q0 81 60 81q27 0 71 -27.5t61 -27.5z" />
    <glyph glyph-name="ograve" unicode="&#xf2;" horiz-adv-x="568" 
d="M48 258q0 120 57.5 194.5t178.5 74.5q120 0 178 -74.5t58 -194.5q0 -121 -58 -196t-178 -75q-121 0 -178.5 75t-57.5 196zM284 507q-148 0 -148 -249q0 -251 148 -251t148 251q0 249 -148 249zM120 687q9 16 24 16q19 0 52 -24l108 -77q10 -7 8 -14q-1 -7 -15 -3
q-24 9 -69.5 24t-64.5 22q-32 8 -41.5 23.5t-1.5 32.5z" />
    <glyph glyph-name="oacute" unicode="&#xf3;" horiz-adv-x="568" 
d="M48 258q0 120 57.5 194.5t178.5 74.5q120 0 178 -74.5t58 -194.5q0 -121 -58 -196t-178 -75q-121 0 -178.5 75t-57.5 196zM284 507q-148 0 -148 -249q0 -251 148 -251t148 251q0 249 -148 249zM438 685q9 -17 -1 -32.5t-42 -23.5q-15 -6 -62 -20t-72 -25q-12 -6 -15 2
q-2 7 8 14q12 8 109 77q31 24 51 24q17 0 24 -16z" />
    <glyph glyph-name="ocircumflex" unicode="&#xf4;" horiz-adv-x="568" 
d="M48 258q0 120 57.5 194.5t178.5 74.5q120 0 178 -74.5t58 -194.5q0 -121 -58 -196t-178 -75q-121 0 -178.5 75t-57.5 196zM284 507q-148 0 -148 -249q0 -251 148 -251t148 251q0 249 -148 249zM284 713q17 0 22 -2t13 -11l94 -107q10 -9 5 -12q-6 -6 -15 1l-119 82
l-119 -82q-10 -7 -16 -1q-4 4 5 12l94 107q8 9 13 11t23 2z" />
    <glyph glyph-name="otilde" unicode="&#xf5;" horiz-adv-x="568" 
d="M48 258q0 120 57.5 194.5t178.5 74.5q120 0 178 -74.5t58 -194.5q0 -121 -58 -196t-178 -75q-121 0 -178.5 75t-57.5 196zM284 507q-148 0 -148 -249q0 -251 148 -251t148 251q0 249 -148 249zM359 568q31 0 31 43q0 12 9 12t9 -16q0 -84 -60 -84q-31 0 -76 27.5
t-60 27.5q-26 0 -26 -44q0 -11 -11 -11q-8 0 -8 19q0 81 60 81q27 0 71 -27.5t61 -27.5z" />
    <glyph glyph-name="odieresis" unicode="&#xf6;" horiz-adv-x="568" 
d="M48 258q0 120 57.5 194.5t178.5 74.5q120 0 178 -74.5t58 -194.5q0 -121 -58 -196t-178 -75q-121 0 -178.5 75t-57.5 196zM284 507q-148 0 -148 -249q0 -251 148 -251t148 251q0 249 -148 249zM160 639q0 22 14 36.5t34 14.5q19 0 32 -13t13 -35q0 -21 -14.5 -35.5
t-33.5 -14.5q-20 0 -32.5 13t-12.5 34zM315 639q0 22 14.5 36.5t33.5 14.5t32 -13t13 -35q0 -21 -14.5 -35.5t-34.5 -14.5q-19 0 -31.5 13t-12.5 34z" />
    <glyph glyph-name="divide" unicode="&#xf7;" horiz-adv-x="605" 
d="M248 41q0 25 16.5 42t38.5 17t36.5 -15t14.5 -40q0 -24 -16 -40t-40 -16q-21 0 -35.5 14.5t-14.5 37.5zM248 497q0 25 16.5 41.5t38.5 16.5t36.5 -14.5t14.5 -39.5q0 -24 -16 -39.5t-40 -15.5q-21 0 -35.5 14t-14.5 37zM524 263h-445q-19 0 -19 11q0 10 19 10h446
q19 0 19 -10q0 -11 -20 -11z" />
    <glyph glyph-name="oslash" unicode="&#xf8;" horiz-adv-x="568" 
d="M48 258q0 120 57.5 194.5t178.5 74.5q53 0 92 -15l32 73q7 18 22 13q16 -4 9 -23l-33 -76q114 -63 114 -241q0 -121 -58 -196t-178 -75q-50 0 -95 15l-38 -88q-5 -12 -24 -6q-11 3 -5 18l39 89q-113 64 -113 243zM432 258q0 138 -45 198l-184 -422q31 -27 81 -27
q148 0 148 251zM284 507q-148 0 -148 -249q0 -137 44 -199l183 423q-33 25 -79 25z" />
    <glyph glyph-name="ugrave" unicode="&#xf9;" horiz-adv-x="633" 
d="M293 17q68 0 104.5 47.5t36.5 136.5v241q-1 19 -10.5 26t-32.5 7q-5 0 -15 -0.5t-13 -0.5q-13 0 -13 9q0 10 13 10q4 0 14 -0.5t15 -0.5q64 0 99 23q12 11 20 11q7 0 7 -13v-433q0 -34 12 -48.5t37 -14.5q10 0 21 1t15 1q13 0 13 -10t-13 -10q-6 0 -31 0.5t-43 0.5
q-51 0 -73 20t-22 65q-25 -47 -62 -69.5t-103 -22.5q-82 0 -123 40.5t-41 134.5v268q0 23 -8.5 31t-34.5 8q-5 0 -15.5 -0.5t-13.5 -0.5q-12 0 -12 9q0 10 12 10q5 0 15 -0.5t14 -0.5q66 0 100 23q12 11 20 11q6 0 6 -13v-352q0 -73 24.5 -108.5t80.5 -35.5zM150 686
q9 16 24 16q19 0 52 -24l108 -77q10 -7 8 -14q-1 -7 -15 -3q-24 9 -69.5 24t-64.5 22q-32 8 -41.5 23.5t-1.5 32.5z" />
    <glyph glyph-name="uacute" unicode="&#xfa;" horiz-adv-x="633" 
d="M293 13q68 0 104.5 47.5t36.5 136.5v239q0 23 -8.5 31t-34.5 8q-5 0 -15 -0.5t-13 -0.5q-13 0 -13 9q0 10 13 10q4 0 14 -0.5t15 -0.5q64 0 99 23q12 11 20 11q7 0 7 -13v-433q0 -34 12 -48.5t37 -14.5q10 0 21 1t15 1q13 0 13 -10t-13 -10q-6 0 -31 0.5t-43 0.5
q-50 0 -72 19.5t-23 61.5q-25 -47 -62 -69.5t-103 -22.5q-82 0 -123 40.5t-41 135.5v271q0 23 -8.5 31t-34.5 8q-5 0 -15.5 -0.5t-13.5 -0.5q-12 0 -12 9q0 10 12 10q5 0 15 -0.5t14 -0.5q66 0 100 23q12 11 20 11q6 0 6 -13v-355q0 -74 24.5 -109.5t80.5 -35.5zM467 684
q9 -17 -1 -32.5t-42 -23.5q-15 -6 -62 -20t-72 -25q-12 -6 -15 2q-2 7 8 14q12 8 109 77q32 24 51 24q17 0 24 -16z" />
    <glyph glyph-name="ucircumflex" unicode="&#xfb;" horiz-adv-x="633" 
d="M293 13q68 0 104.5 47.5t36.5 136.5v239q0 23 -8.5 31t-34.5 8q-5 0 -15 -0.5t-13 -0.5q-13 0 -13 9q0 10 13 10q4 0 14 -0.5t15 -0.5q64 0 99 23q12 11 20 11q7 0 7 -13v-433q0 -34 12 -48.5t37 -14.5q10 0 21 1t15 1q13 0 13 -10t-13 -10q-6 0 -31 0.5t-43 0.5
q-50 0 -72 19.5t-23 61.5q-25 -47 -62 -69.5t-103 -22.5q-82 0 -123 40.5t-41 135.5v271q0 23 -8.5 31t-34.5 8q-5 0 -15.5 -0.5t-13.5 -0.5q-12 0 -12 9q0 10 12 10q5 0 15 -0.5t14 -0.5q66 0 100 23q12 11 20 11q6 0 6 -13v-355q0 -74 24.5 -109.5t80.5 -35.5zM314 712
q17 0 22 -2t13 -11l94 -107q10 -9 5 -12q-6 -6 -15 1l-119 82l-119 -82q-10 -7 -16 -1q-4 4 5 12l94 107q8 9 13 11t23 2z" />
    <glyph glyph-name="udieresis" unicode="&#xfc;" horiz-adv-x="633" 
d="M293 13q68 0 104.5 47.5t36.5 136.5v239q0 23 -8.5 31t-34.5 8q-5 0 -15 -0.5t-13 -0.5q-13 0 -13 9q0 10 13 10q4 0 14 -0.5t15 -0.5q64 0 99 23q12 11 20 11q7 0 7 -13v-433q0 -34 12 -48.5t37 -14.5q10 0 21 1t15 1q13 0 13 -10t-13 -10q-6 0 -31 0.5t-43 0.5
q-50 0 -72 19.5t-23 61.5q-25 -47 -62 -69.5t-103 -22.5q-82 0 -123 40.5t-41 135.5v271q0 23 -8.5 31t-34.5 8q-5 0 -15.5 -0.5t-13.5 -0.5q-12 0 -12 9q0 10 12 10q5 0 15 -0.5t14 -0.5q66 0 100 23q12 11 20 11q6 0 6 -13v-355q0 -74 24.5 -109.5t80.5 -35.5zM189 638
q0 22 14 36.5t34 14.5q19 0 32 -13t13 -35q0 -21 -14.5 -35.5t-33.5 -14.5q-20 0 -32.5 13t-12.5 34zM344 638q0 22 14.5 36.5t33.5 14.5q20 0 32.5 -12.5t12.5 -35.5q0 -21 -14.5 -35.5t-34.5 -14.5q-19 0 -31.5 13t-12.5 34z" />
    <glyph glyph-name="yacute" unicode="&#xfd;" horiz-adv-x="582" 
d="M494 454l-199 -520q-37 -95 -75.5 -135t-92.5 -40q-43 0 -69 24t-26 68v1q0 19 15 33.5t35 14.5t35 -13t15 -35t-15 -36t-35 -14q-6 0 -14 2q20 -26 60 -26q41 0 75.5 37t71.5 128l13 36l-195 469q-11 27 -20 35.5t-30 8.5q-9 0 -18 -1t-12 -1q-12 0 -12 10t12 10
q2 0 12 -1t18 -1q13 0 39 -1t40 -1t45.5 1t44.5 1q8 0 18 1t12 1q12 0 12 -10t-12 -10q-3 0 -12.5 1t-17.5 1q-24 0 -30 -7.5t2 -26.5l146 -369l140 369q7 19 -0.5 26.5t-31.5 7.5q-9 0 -18.5 -1t-12.5 -1q-11 0 -11 10t11 10q3 0 13 -1t18 -1q13 0 25.5 -1t26.5 -1t26.5 1
t25.5 1q8 0 18 1t13 1q11 0 11 -10t-11 -10q-4 0 -13 1t-18 1q-22 0 -30.5 -7.5t-17.5 -30.5zM442 669q9 -17 -1 -32.5t-42 -23.5q-15 -6 -62 -20t-72 -25q-12 -6 -15 2q-2 7 8 14q12 8 109 77q31 24 51 24q17 0 24 -16z" />
    <glyph glyph-name="thorn" unicode="&#xfe;" horiz-adv-x="587" 
d="M133 -238q-14 0 -41 -1t-40 -1q-8 0 -19 -1t-14 -1q-11 0 -11 10t11 10q3 0 14 -1t19 -1q23 0 31 7t8 27v848q0 24 -9 32t-34 8q-6 0 -16 -1t-12 -1q-13 0 -13 10t13 10q4 0 13.5 -0.5t14.5 -0.5q65 0 100 23q13 10 20 10t7 -12v-350h3q41 139 169 139q92 0 141 -64.5
t49 -193.5q0 -280 -223 -280q-73 0 -139 34v-211q0 -20 8 -27t32 -7q8 0 18 1t13 1q11 0 11 -10t-11 -10q-2 0 -13 1t-18 1q-13 0 -40.5 1t-41.5 1zM329 501q-66 0 -107 -65t-45 -179v-209q51 -39 126 -39q80 0 113 64t33 194q0 53 -5 92t-17.5 73t-37 51.5t-60.5 17.5z" />
    <glyph glyph-name="ydieresis" unicode="&#xff;" horiz-adv-x="582" 
d="M494 454l-199 -520q-37 -95 -75.5 -135t-92.5 -40q-43 0 -69 24t-26 68v1q0 19 15 33.5t35 14.5t35 -13t15 -35t-15 -36t-35 -14q-6 0 -14 2q20 -26 60 -26q41 0 75.5 37t71.5 128l13 36l-195 469q-11 27 -20 35.5t-30 8.5q-9 0 -18 -1t-12 -1q-12 0 -12 10t12 10
q2 0 12 -1t18 -1q13 0 39 -1t40 -1t45.5 1t44.5 1q8 0 18 1t12 1q12 0 12 -10t-12 -10q-3 0 -12.5 1t-17.5 1q-24 0 -30 -7.5t2 -26.5l146 -369l140 369q7 19 -0.5 26.5t-31.5 7.5q-9 0 -18.5 -1t-12.5 -1q-11 0 -11 10t11 10q3 0 13 -1t18 -1q13 0 25.5 -1t26.5 -1t26.5 1
t25.5 1q8 0 18 1t13 1q11 0 11 -10t-11 -10q-4 0 -13 1t-18 1q-22 0 -30.5 -7.5t-17.5 -30.5zM164 623q0 22 14 36.5t34 14.5q19 0 32 -13t13 -35q0 -21 -14.5 -35.5t-33.5 -14.5q-20 0 -32.5 13t-12.5 34zM319 623q0 22 14.5 36.5t33.5 14.5t32 -13t13 -35
q0 -21 -14.5 -35.5t-34.5 -14.5q-19 0 -31.5 13t-12.5 34z" />
    <glyph glyph-name="Amacron" unicode="&#x100;" horiz-adv-x="659" 
d="M479 73l-53 147h-257l-53 -148q-8 -20 -8 -34q0 -21 32 -21q8 0 20 1.5t16 1.5q14 0 14 -9q0 -12 -16 -12q-4 0 -29.5 2t-61.5 2q-15 0 -40.5 -2t-39.5 -2t-14 11q0 9 14 9q5 0 15 -1t14 -1q19 0 32.5 12.5t27.5 50.5l218 602q9 28 18 28q8 0 17 -27l220 -594
q18 -48 28.5 -60t34.5 -12q6 0 15 1t13 1q15 0 15 -9q0 -11 -15 -11q-14 0 -52 2t-53 2q-36 0 -80 -2t-48 -2q-15 0 -15 11q0 9 13 9q4 0 15.5 -1t19.5 -1q31 0 31 23q0 11 -8 33zM297 578l-120 -336h241zM443 744h-232q-13 0 -13 11q0 10 12 10h234q12 0 12 -10
q0 -11 -13 -11z" />
    <glyph glyph-name="amacron" unicode="&#x101;" horiz-adv-x="556" 
d="M127 452q17 0 32.5 -14.5t15.5 -37.5t-15.5 -37.5t-37.5 -14.5q-20 0 -34 13.5t-14 33.5v4q2 61 43 94.5t122 33.5q216 0 216 -226v-205q0 -80 49 -80q8 0 15.5 2.5t11 5t9.5 7.5l7 5q11 11 18 2q6 -7 -7 -18q-32 -25 -82 -25q-93 0 -103 101q-20 -45 -62.5 -73.5
t-105.5 -28.5q-72 0 -116 35.5t-44 105.5q0 84 63.5 118.5t187.5 34.5h76v27q0 101 -37 146t-111 45q-95 0 -123 -62q13 8 26 8zM129 134q0 -116 99 -116q44 0 82 32q62 51 62 149v69h-76q-89 0 -128 -31t-39 -103zM381 581h-232q-13 0 -13 11q0 10 12 10h234q12 0 12 -10
q0 -11 -13 -11z" />
    <glyph glyph-name="Abreve" unicode="&#x102;" horiz-adv-x="659" 
d="M479 73l-53 147h-257l-53 -148q-8 -20 -8 -34q0 -21 32 -21q8 0 20 1.5t16 1.5q14 0 14 -9q0 -12 -16 -12q-4 0 -29.5 2t-61.5 2q-15 0 -40.5 -2t-39.5 -2t-14 11q0 9 14 9q5 0 15 -1t14 -1q19 0 32.5 12.5t27.5 50.5l218 602q9 28 18 28q8 0 17 -27l220 -594
q18 -48 28.5 -60t34.5 -12q6 0 15 1t13 1q15 0 15 -9q0 -11 -15 -11q-14 0 -52 2t-53 2q-36 0 -80 -2t-48 -2q-15 0 -15 11q0 9 13 9q4 0 15.5 -1t19.5 -1q31 0 31 23q0 11 -8 33zM297 578l-120 -336h241zM326 792q43 0 68.5 16t25.5 39q0 14 10 14q9 0 9 -16
q0 -45 -31 -73.5t-82 -28.5q-53 0 -82.5 28.5t-29.5 74.5q0 15 10 15q8 0 8 -14q1 -24 24.5 -39.5t69.5 -15.5z" />
    <glyph glyph-name="abreve" unicode="&#x103;" horiz-adv-x="556" 
d="M127 452q17 0 32.5 -14.5t15.5 -37.5t-15.5 -37.5t-37.5 -14.5q-20 0 -34 13.5t-14 33.5v4q2 61 43 94.5t122 33.5q216 0 216 -226v-205q0 -80 49 -80q8 0 15.5 2.5t11 5t9.5 7.5l7 5q11 11 18 2q6 -7 -7 -18q-32 -25 -82 -25q-93 0 -103 101q-20 -45 -62.5 -73.5
t-105.5 -28.5q-72 0 -116 35.5t-44 105.5q0 84 63.5 118.5t187.5 34.5h76v27q0 101 -37 146t-111 45q-95 0 -123 -62q13 8 26 8zM129 134q0 -116 99 -116q44 0 82 32q62 51 62 149v69h-76q-89 0 -128 -31t-39 -103zM266 629q43 0 68.5 16t25.5 39q0 14 10 14q9 0 9 -16
q0 -45 -31 -73.5t-82 -28.5q-53 0 -82.5 28.5t-29.5 74.5q0 15 10 15q8 0 8 -14q1 -24 24.5 -39.5t69.5 -15.5z" />
    <glyph glyph-name="Aogonek" unicode="&#x104;" horiz-adv-x="659" 
d="M479 73l-53 147h-257l-53 -148q-8 -20 -8 -34q0 -21 32 -21q8 0 20 1.5t16 1.5q14 0 14 -9q0 -12 -16 -12q-4 0 -29.5 2t-61.5 2q-15 0 -40.5 -2t-39.5 -2t-14 11q0 9 14 9q5 0 15 -1t14 -1q19 0 32.5 12.5t27.5 50.5l218 602q9 28 18 28q8 0 17 -27l220 -594
q18 -48 28.5 -60t34.5 -12q6 0 15 1t13 1q15 0 15 -9q0 -11 -15 -11q-12 0 -43.5 2t-41.5 2q-25 -17 -41 -46.5t-16 -56.5q0 -25 12.5 -38t32.5 -13q31 0 58 17q13 10 18 2q6 -8 -11 -19q-33 -23 -80 -23q-41 0 -66.5 18t-25.5 52q0 62 89 107q-32 -1 -71.5 -2.5t-46.5 -1.5
q-15 0 -15 11q0 9 13 9q4 0 15.5 -1t19.5 -1q31 0 31 23q0 11 -8 33zM297 578l-120 -336h241z" />
    <glyph glyph-name="aogonek" unicode="&#x105;" horiz-adv-x="556" 
d="M127 452q17 0 32.5 -14.5t15.5 -37.5t-15.5 -37.5t-37.5 -14.5q-20 0 -34 13.5t-14 33.5v4q2 61 43 94.5t122 33.5q216 0 216 -226v-205q0 -80 49 -80q8 0 15.5 2.5t11 5t9.5 7.5l7 5q11 11 18 2q6 -7 -7 -18q-28 -22 -68 -24q-47 -42 -47 -96q0 -25 12.5 -38t32.5 -13
q31 0 58 17q13 10 18 2q6 -8 -11 -19q-33 -23 -80 -23q-41 0 -66.5 18t-25.5 52q0 58 76 100q-75 9 -84 100q-20 -45 -62.5 -73.5t-105.5 -28.5q-72 0 -116 35.5t-44 105.5q0 84 63.5 118.5t187.5 34.5h76v27q0 101 -37 146t-111 45q-95 0 -123 -62q13 8 26 8zM129 134
q0 -116 99 -116q44 0 82 32q62 51 62 149v69h-76q-89 0 -128 -31t-39 -103z" />
    <glyph glyph-name="Cacute" unicode="&#x106;" horiz-adv-x="652" 
d="M146 348q0 -339 244 -339q96 0 184 44q7 3 16 9.5t14 9.5q12 8 18 -2q5 -11 -9 -18q-3 -2 -16 -7.5t-18 -8.5q-102 -49 -198 -49q-151 0 -239.5 92t-88.5 270q0 162 86 261.5t238 99.5q64 0 110.5 -17t71.5 -46t36.5 -60t11.5 -65q0 -25 -17.5 -40.5t-40.5 -15.5
t-38.5 15t-15.5 41t15.5 42t40.5 16q14 0 28 -7q-14 51 -63 83.5t-129 32.5q-64 0 -111.5 -27t-75 -75t-41 -108t-13.5 -131zM542 839q9 -17 -1 -32.5t-42 -23.5q-15 -6 -62 -20t-72 -25q-12 -6 -15 2q-2 7 8 14q12 8 109 77q31 24 51 24q17 0 24 -16z" />
    <glyph glyph-name="cacute" unicode="&#x107;" horiz-adv-x="511" 
d="M136 259q0 -243 174 -243q63 0 117 27q20 12 24 16q19 14 24 3q7 -10 -12 -21q-7 -4 -29 -14q-65 -35 -141 -35q-123 0 -184.5 70t-61.5 194q0 126 66 198.5t179 72.5q88 0 131.5 -40.5t43.5 -92.5h-4q0 -26 -12.5 -41.5t-37.5 -15.5q-23 0 -38 15t-15 40q0 26 16.5 43
t39.5 17q5 0 13 -2q-40 57 -126 57q-167 0 -167 -248zM450 685q9 -17 -1 -32.5t-42 -23.5q-15 -6 -62 -20t-72 -25q-12 -6 -15 2q-2 7 8 14q12 8 109 77q31 24 51 24q17 0 24 -16z" />
    <glyph glyph-name="Ccircumflex" unicode="&#x108;" horiz-adv-x="652" 
d="M146 348q0 -339 244 -339q96 0 184 44q7 3 16 9.5t14 9.5q12 8 18 -2q5 -11 -9 -18q-3 -2 -16 -7.5t-18 -8.5q-102 -49 -198 -49q-151 0 -239.5 92t-88.5 270q0 162 86 261.5t238 99.5q64 0 110.5 -17t71.5 -46t36.5 -60t11.5 -65q0 -25 -17.5 -40.5t-40.5 -15.5
t-38.5 15t-15.5 41t15.5 42t40.5 16q14 0 28 -7q-14 51 -63 83.5t-129 32.5q-64 0 -111.5 -27t-75 -75t-41 -108t-13.5 -131zM383 877q17 0 22 -2t13 -11l94 -107q10 -9 5 -12q-6 -6 -15 1l-119 82l-119 -82q-10 -7 -16 -1q-4 4 5 12l94 107q8 9 13 11t23 2z" />
    <glyph glyph-name="ccircumflex" unicode="&#x109;" horiz-adv-x="511" 
d="M136 259q0 -243 174 -243q63 0 117 27q20 12 24 16q19 14 24 3q7 -10 -12 -21q-7 -4 -29 -14q-65 -35 -141 -35q-123 0 -184.5 70t-61.5 194q0 126 66 198.5t179 72.5q88 0 131.5 -40.5t43.5 -92.5h-4q0 -26 -12.5 -41.5t-37.5 -15.5q-23 0 -38 15t-15 40q0 26 16.5 43
t39.5 17q5 0 13 -2q-40 57 -126 57q-167 0 -167 -248zM297 713q17 0 22 -2t13 -11l94 -107q10 -9 5 -12q-6 -6 -15 1l-119 82l-119 -82q-10 -7 -16 -1q-4 4 5 12l94 107q8 9 13 11t23 2z" />
    <glyph glyph-name="Cdotaccent" unicode="&#x10a;" horiz-adv-x="652" 
d="M331 794q0 25 16 42t38 17t36.5 -15t14.5 -40q0 -24 -16 -39.5t-39 -15.5q-22 0 -36 14t-14 37zM146 348q0 -339 244 -339q96 0 184 44q7 3 16 9.5t14 9.5q12 8 18 -2q5 -11 -9 -18q-3 -2 -16 -7.5t-18 -8.5q-102 -49 -198 -49q-151 0 -239.5 92t-88.5 270
q0 162 86 261.5t238 99.5q64 0 110.5 -17t71.5 -46t36.5 -60t11.5 -65q0 -25 -17.5 -40.5t-40.5 -15.5t-38.5 15t-15.5 41t15.5 42t40.5 16q14 0 28 -7q-14 51 -63 83.5t-129 32.5q-64 0 -111.5 -27t-75 -75t-41 -108t-13.5 -131z" />
    <glyph glyph-name="cdotaccent" unicode="&#x10b;" horiz-adv-x="511" 
d="M136 259q0 -243 174 -243q63 0 117 27q20 12 24 16q19 14 24 3q7 -10 -12 -21q-7 -4 -29 -14q-65 -35 -141 -35q-123 0 -184.5 70t-61.5 194q0 126 66 198.5t179 72.5q88 0 131.5 -40.5t43.5 -92.5h-4q0 -26 -12.5 -41.5t-37.5 -15.5q-23 0 -38 15t-15 40q0 26 16.5 43
t39.5 17q5 0 13 -2q-40 57 -126 57q-167 0 -167 -248zM245 637q0 24 16.5 40.5t38.5 16.5q21 0 36 -14.5t15 -39.5q0 -24 -16.5 -39.5t-39.5 -15.5q-22 0 -36 14t-14 38z" />
    <glyph glyph-name="Ccaron" unicode="&#x10c;" horiz-adv-x="652" 
d="M146 348q0 -339 244 -339q96 0 184 44q7 3 16 9.5t14 9.5q12 8 18 -2q5 -11 -9 -18q-3 -2 -16 -7.5t-18 -8.5q-102 -49 -198 -49q-151 0 -239.5 92t-88.5 270q0 162 86 261.5t238 99.5q64 0 110.5 -17t71.5 -46t36.5 -60t11.5 -65q0 -25 -17.5 -40.5t-40.5 -15.5
t-38.5 15t-15.5 41t15.5 42t40.5 16q14 0 28 -7q-14 51 -63 83.5t-129 32.5q-64 0 -111.5 -27t-75 -75t-41 -108t-13.5 -131zM383 743q-16 0 -21 2t-15 12l-105 106q-9 9 -6 14q4 5 15 -3l132 -81l131 81q10 8 15 3q4 -5 -5 -14l-106 -106q-9 -10 -14 -12t-21 -2z" />
    <glyph glyph-name="ccaron" unicode="&#x10d;" horiz-adv-x="511" 
d="M136 259q0 -243 174 -243q63 0 117 27q20 12 24 16q19 14 24 3q7 -10 -12 -21q-7 -4 -29 -14q-65 -35 -141 -35q-123 0 -184.5 70t-61.5 194q0 126 66 198.5t179 72.5q88 0 131.5 -40.5t43.5 -92.5h-4q0 -26 -12.5 -41.5t-37.5 -15.5q-23 0 -38 15t-15 40q0 26 16.5 43
t39.5 17q5 0 13 -2q-40 57 -126 57q-167 0 -167 -248zM297 580q-16 0 -21 2t-15 12l-105 106q-9 9 -6 14q4 5 15 -3l132 -81l131 81q10 8 15 3q4 -5 -5 -14l-106 -106q-9 -10 -14.5 -12t-20.5 -2z" />
    <glyph glyph-name="Dcaron" unicode="&#x10e;" horiz-adv-x="726" 
d="M126 51v600q0 20 -7.5 27t-31.5 7q-9 0 -19 -1t-13 -1q-11 0 -11 10t12 10q8 0 49 -2t65 -2q32 0 70.5 2t50.5 2q180 0 280.5 -86t100.5 -269q0 -348 -382 -348q-21 0 -61.5 1.5t-59.5 1.5q-17 0 -60.5 -2t-49.5 -2q-15 0 -15 10t11 10q3 0 13 -1t19 -1q24 0 31.5 7
t7.5 27zM286 19q154 0 222.5 78t68.5 255q0 180 -70.5 256t-229.5 76q-42 0 -52.5 -6t-10.5 -26v-605q0 -17 12.5 -22.5t59.5 -5.5zM358 727q-16 0 -21 2t-15 12l-105 106q-9 9 -6 14q5 5 15 -3l132 -81l131 81q10 8 15 3q4 -5 -5 -14l-106 -106q-9 -10 -14 -12t-21 -2z" />
    <glyph glyph-name="dcaron" unicode="&#x10f;" horiz-adv-x="624" 
d="M409 126q-19 -65 -59 -97q-42 -34 -103 -34q-93 0 -146 59.5t-53 182.5q0 132 61.5 211t171.5 79q65 0 128 -40v171q0 24 -8.5 32t-34.5 8q-5 0 -15 -1t-14 -1q-12 0 -12 10q0 9 13 9q4 0 13.5 -0.5t14.5 -0.5q66 0 100 24q14 10 20 10q7 0 7 -13v-639q0 -80 48 -80
q8 0 15.5 2.5t11 5l10.5 7.5l6 5q11 11 18 2q5 -8 -7 -18q-32 -25 -82 -25q-53 0 -78.5 31.5t-25.5 99.5zM263 20q129 0 146 232v208q-46 44 -116 44q-55 0 -91.5 -38.5t-51 -96t-14.5 -131.5q0 -218 127 -218zM591 745q19 0 31.5 -12t12.5 -36q0 -18 -5 -34l-25 -131
q-6 -20 -14 -20q-9 0 -15 20l-25 131q-6 21 -6 35q0 47 46 47z" />
    <glyph glyph-name="Dcroat" unicode="&#x110;" horiz-adv-x="726" 
d="M126 51v302h-65q-12 0 -12 11q0 9 11 9h66v278q0 20 -7.5 27t-31.5 7q-9 0 -19 -1t-13 -1q-11 0 -11 10t12 10q8 0 49 -2t65 -2q32 0 70.5 2t50.5 2q180 0 280.5 -86t100.5 -269q0 -348 -382 -348q-21 0 -61.5 1.5t-59.5 1.5q-17 0 -60.5 -2t-49.5 -2q-15 0 -15 10t11 10
q3 0 13 -1t19 -1q24 0 31.5 7t7.5 27zM286 19q154 0 222.5 78t68.5 255q0 180 -70.5 256t-229.5 76q-42 0 -52.5 -6t-10.5 -26v-279h144q12 0 12 -9q0 -11 -13 -11h-143v-306q0 -17 12.5 -22.5t59.5 -5.5z" />
    <glyph glyph-name="dcroat" unicode="&#x111;" horiz-adv-x="600" 
d="M409 126q-19 -65 -59 -97q-42 -34 -103 -34q-93 0 -146 59.5t-53 182.5q0 132 61.5 211t171.5 79q65 0 128 -40v136h-98q-14 0 -18 1.5t-4 8.5q0 10 22 10h98v69q0 27 17 27h50q9 1 13 -5.5t4 -21.5v-69h75q21 0 21 -10t-25 -10h-71v-527q0 -80 48 -80q8 0 15.5 2.5t11 5
l10.5 7.5l6 5q11 11 18 2q5 -8 -7 -18q-32 -25 -82 -25q-53 0 -78.5 31.5t-25.5 99.5zM263 20q129 0 146 232v208q-46 44 -116 44q-55 0 -91.5 -38.5t-51 -96t-14.5 -131.5q0 -218 127 -218z" />
    <glyph glyph-name="Emacron" unicode="&#x112;" horiz-adv-x="617" 
d="M157 0q-23 0 -58.5 -0.5t-43.5 -0.5q-13 0 -13 10q0 9 12 9q2 0 13 -1t20 -1q22 0 30.5 6.5t8.5 25.5v607q0 19 -8 25.5t-32 6.5q-8 0 -19 -2t-13 -2q-11 0 -11 10q0 11 13 11q8 0 42.5 -0.5t58.5 -0.5h354q16 0 21 -5t6 -20l5 -87q1 -16 2.5 -28.5t1.5 -16.5
q0 -16 -9 -16t-10 14v15t-2 29q-5 50 -39.5 72.5t-116.5 22.5h-157v-329h89q97 0 97 70q0 6 -0.5 15.5t-0.5 11.5q0 13 11 13q10 0 10 -13q0 -2 -1 -11.5t-1 -15.5q0 -13 -1 -37.5t-1 -41.5t1 -43t1 -39q0 -6 1 -15t1 -11q0 -14 -10 -14q-11 0 -11 14q0 2 0.5 11t0.5 15
q0 71 -97 71h-89v-314h119q61 0 102.5 9.5t64.5 27.5t33.5 39t13.5 50q2 15 2 41q0 16 12 16q9 0 9 -17q0 -3 -0.5 -8.5t-1.5 -15.5l-2 -20l-11 -117q-1 -15 -6.5 -20t-20.5 -5h-370zM427 738h-232q-13 0 -13 11q0 10 12 10h234q12 0 12 -10q0 -11 -13 -11z" />
    <glyph glyph-name="emacron" unicode="&#x113;" horiz-adv-x="521" 
d="M279 527q89 0 140 -41.5t51 -117.5q0 -150 -231 -150h-102q6 -111 46.5 -156.5t114.5 -45.5q69 0 133 27q7 3 12 6t10 6.5t8 5.5q13 6 17 -1q7 -10 -7 -18q-4 -2 -34 -16q-75 -34 -149 -34q-120 0 -180 70t-60 193q0 124 59.5 198t171.5 74zM279 507q-143 0 -143 -250
v-18h102q80 0 117 33t37 100q0 66 -29 100.5t-84 34.5zM396 581h-232q-13 0 -13 11q0 10 12 10h234q12 0 12 -10q0 -11 -13 -11z" />
    <glyph glyph-name="Ebreve" unicode="&#x114;" horiz-adv-x="617" 
d="M157 0q-23 0 -58.5 -0.5t-43.5 -0.5q-13 0 -13 10q0 9 12 9q2 0 13 -1t20 -1q22 0 30.5 6.5t8.5 25.5v607q0 19 -8 25.5t-32 6.5q-8 0 -19 -2t-13 -2q-11 0 -11 10q0 11 13 11q8 0 42.5 -0.5t58.5 -0.5h354q16 0 21 -5t6 -20l5 -87q1 -16 2.5 -28.5t1.5 -16.5
q0 -16 -9 -16t-10 14v15t-2 29q-5 50 -39.5 72.5t-116.5 22.5h-157v-329h89q97 0 97 70q0 6 -0.5 15.5t-0.5 11.5q0 13 11 13q10 0 10 -13q0 -2 -1 -11.5t-1 -15.5q0 -13 -1 -37.5t-1 -41.5t1 -43t1 -39q0 -6 1 -15t1 -11q0 -14 -10 -14q-11 0 -11 14q0 2 0.5 11t0.5 15
q0 71 -97 71h-89v-314h119q61 0 102.5 9.5t64.5 27.5t33.5 39t13.5 50q2 15 2 41q0 16 12 16q9 0 9 -17q0 -3 -0.5 -8.5t-1.5 -15.5l-2 -20l-11 -117q-1 -15 -6.5 -20t-20.5 -5h-370zM310 786q43 0 68.5 16t25.5 39q0 14 10 14q9 0 9 -16q0 -45 -31 -73.5t-82 -28.5
q-53 0 -82.5 28.5t-29.5 74.5q0 15 10 15q8 0 8 -14q1 -24 24.5 -39.5t69.5 -15.5z" />
    <glyph glyph-name="ebreve" unicode="&#x115;" horiz-adv-x="521" 
d="M279 527q89 0 140 -41.5t51 -117.5q0 -150 -231 -150h-102q6 -111 46.5 -156.5t114.5 -45.5q69 0 133 27q7 3 12 6t10 6.5t8 5.5q13 6 17 -1q7 -10 -7 -18q-4 -2 -34 -16q-75 -34 -149 -34q-120 0 -180 70t-60 193q0 124 59.5 198t171.5 74zM279 507q-143 0 -143 -250
v-18h102q80 0 117 33t37 100q0 66 -29 100.5t-84 34.5zM280 629q43 0 68.5 16t25.5 39q0 14 10 14q9 0 9 -16q0 -45 -31 -73.5t-82 -28.5q-53 0 -82.5 28.5t-29.5 74.5q0 15 10 15q8 0 8 -14q1 -24 24.5 -39.5t69.5 -15.5z" />
    <glyph glyph-name="Edotaccent" unicode="&#x116;" horiz-adv-x="617" 
d="M157 0q-23 0 -58.5 -0.5t-43.5 -0.5q-13 0 -13 10q0 9 12 9q2 0 13 -1t20 -1q22 0 30.5 6.5t8.5 25.5v607q0 19 -8 25.5t-32 6.5q-8 0 -19 -2t-13 -2q-11 0 -11 10q0 11 13 11q8 0 42.5 -0.5t58.5 -0.5h354q16 0 21 -5t6 -20l5 -87q1 -16 2.5 -28.5t1.5 -16.5
q0 -16 -9 -16t-10 14v15t-2 29q-5 50 -39.5 72.5t-116.5 22.5h-157v-329h89q97 0 97 70q0 6 -0.5 15.5t-0.5 11.5q0 13 11 13q10 0 10 -13q0 -2 -1 -11.5t-1 -15.5q0 -13 -1 -37.5t-1 -41.5t1 -43t1 -39q0 -6 1 -15t1 -11q0 -14 -10 -14q-11 0 -11 14q0 2 0.5 11t0.5 15
q0 71 -97 71h-89v-314h119q61 0 102.5 9.5t64.5 27.5t33.5 39t13.5 50q2 15 2 41q0 16 12 16q9 0 9 -17q0 -3 -0.5 -8.5t-1.5 -15.5l-2 -20l-11 -117q-1 -15 -6.5 -20t-20.5 -5h-370zM259 794q0 25 16.5 41.5t38.5 16.5t36.5 -15t14.5 -39t-16 -40t-40 -16q-21 0 -35.5 14.5
t-14.5 37.5z" />
    <glyph glyph-name="edotaccent" unicode="&#x117;" horiz-adv-x="521" 
d="M228 637q0 24 16 40.5t38 16.5t37 -14.5t15 -39.5q0 -24 -16.5 -39.5t-38.5 -15.5t-36.5 14t-14.5 38zM279 527q89 0 140 -41.5t51 -117.5q0 -150 -231 -150h-102q6 -111 46.5 -156.5t114.5 -45.5q69 0 133 27q7 3 12 6t10 6.5t8 5.5q13 6 17 -1q7 -10 -7 -18
q-4 -2 -34 -16q-75 -34 -149 -34q-120 0 -180 70t-60 193q0 124 59.5 198t171.5 74zM279 507q-143 0 -143 -250v-18h102q80 0 117 33t37 100q0 66 -29 100.5t-84 34.5z" />
    <glyph glyph-name="Eogonek" unicode="&#x118;" horiz-adv-x="617" 
d="M157 0q-23 0 -58.5 -0.5t-43.5 -0.5q-13 0 -13 10q0 9 12 9q2 0 13 -1t20 -1q22 0 30.5 6.5t8.5 25.5v607q0 19 -8 25.5t-32 6.5q-8 0 -19 -2t-13 -2q-11 0 -11 10q0 11 13 11q8 0 42.5 -0.5t58.5 -0.5h354q16 0 21 -5t6 -20l5 -87q1 -16 2.5 -28.5t1.5 -16.5
q0 -16 -9 -16t-10 14v15t-2 29q-5 50 -39.5 72.5t-116.5 22.5h-157v-329h89q97 0 97 70q0 6 -0.5 15.5t-0.5 11.5q0 13 11 13q10 0 10 -13q0 -2 -1 -11.5t-1 -15.5q0 -13 -1 -37.5t-1 -41.5t1 -43t1 -39q0 -6 1 -15t1 -11q0 -14 -10 -14q-11 0 -11 14q0 2 0.5 11t0.5 15
q0 71 -97 71h-89v-314h119q61 0 102.5 9.5t64.5 27.5t33.5 39t13.5 50q2 15 2 41q0 16 12 16q9 0 9 -17q0 -3 -0.5 -8.5t-1.5 -15.5l-2 -20l-11 -117q-1 -22 -15 -24q-26 -17 -43 -47t-17 -58q0 -25 12.5 -38t32.5 -13q31 0 58 17q13 10 18 2q6 -8 -11 -19q-33 -23 -80 -23
q-41 0 -66.5 18t-25.5 52q0 66 91 108h-351z" />
    <glyph glyph-name="eogonek" unicode="&#x119;" horiz-adv-x="521" 
d="M279 527q89 0 140 -41.5t51 -117.5q0 -150 -231 -150h-102q6 -111 46.5 -156.5t114.5 -45.5q69 0 133 27q7 3 12 6t10 6.5t8 5.5q13 6 17 -1q7 -10 -7 -18q-4 -2 -34 -16q-68 -32 -137 -34q-44 -42 -44 -92q0 -25 12.5 -38t32.5 -13q31 0 58 17q13 10 18 2q6 -8 -11 -19
q-33 -23 -80 -23q-41 0 -66.5 18t-25.5 52q0 56 70 97q-108 7 -162 76t-54 186q0 124 59.5 198t171.5 74zM279 507q-143 0 -143 -250v-18h102q80 0 117 33t37 100q0 66 -29 100.5t-84 34.5z" />
    <glyph glyph-name="Ecaron" unicode="&#x11a;" horiz-adv-x="617" 
d="M157 0q-23 0 -58.5 -0.5t-43.5 -0.5q-13 0 -13 10q0 9 12 9q2 0 13 -1t20 -1q22 0 30.5 6.5t8.5 25.5v607q0 19 -8 25.5t-32 6.5q-8 0 -19 -2t-13 -2q-11 0 -11 10q0 11 13 11q8 0 42.5 -0.5t58.5 -0.5h354q16 0 21 -5t6 -20l5 -87q1 -16 2.5 -28.5t1.5 -16.5
q0 -16 -9 -16t-10 14v15t-2 29q-5 50 -39.5 72.5t-116.5 22.5h-157v-329h89q97 0 97 70q0 6 -0.5 15.5t-0.5 11.5q0 13 11 13q10 0 10 -13q0 -2 -1 -11.5t-1 -15.5q0 -13 -1 -37.5t-1 -41.5t1 -43t1 -39q0 -6 1 -15t1 -11q0 -14 -10 -14q-11 0 -11 14q0 2 0.5 11t0.5 15
q0 71 -97 71h-89v-314h119q61 0 102.5 9.5t64.5 27.5t33.5 39t13.5 50q2 15 2 41q0 16 12 16q9 0 9 -17q0 -3 -0.5 -8.5t-1.5 -15.5l-2 -20l-11 -117q-1 -15 -6.5 -20t-20.5 -5h-370zM311 737q-16 0 -21 2t-15 12l-105 106q-9 9 -6 14q4 5 15 -3l132 -81l131 81q10 8 15 3
q4 -5 -5 -14l-106 -106q-9 -10 -14.5 -12t-20.5 -2z" />
    <glyph glyph-name="ecaron" unicode="&#x11b;" horiz-adv-x="521" 
d="M279 527q89 0 140 -41.5t51 -117.5q0 -150 -231 -150h-102q6 -111 46.5 -156.5t114.5 -45.5q69 0 133 27q7 3 12 6t10 6.5t8 5.5q13 6 17 -1q7 -10 -7 -18q-4 -2 -34 -16q-75 -34 -149 -34q-120 0 -180 70t-60 193q0 124 59.5 198t171.5 74zM279 507q-143 0 -143 -250
v-18h102q80 0 117 33t37 100q0 66 -29 100.5t-84 34.5zM280 580q-16 0 -21 2t-15 12l-105 106q-9 9 -6 14q5 5 15 -3l132 -81l131 81q10 8 15 3q4 -5 -5 -14l-106 -106q-9 -10 -14 -12t-21 -2z" />
    <glyph glyph-name="Gcircumflex" unicode="&#x11c;" horiz-adv-x="693" 
d="M511 521q0 26 17 42.5t39 16.5q15 0 30 -10q-17 51 -72.5 85t-137.5 34q-124 0 -182.5 -87t-58.5 -259q0 -334 225 -334q33 0 62 7.5t54.5 24t40.5 48t15 75.5v133q0 20 -18 20h-50q-15 0 -34 -1t-23 -1q-13 0 -13 10q0 11 16 11q3 0 21.5 -0.5t32.5 -0.5h141
q11 0 11 -10v-316q0 -17 -9 -17q-11 0 -11 16q-3 70 -22 70q-7 0 -16 -7t-23.5 -19.5t-27.5 -21.5q-66 -43 -155 -43q-139 0 -224 92.5t-85 265.5q0 169 85 267t243 98q118 0 180 -55t62 -132q0 -26 -17.5 -41.5t-41.5 -15.5q-23 0 -38.5 15t-15.5 40zM387 877q17 0 22 -2
t13 -11l94 -107q10 -9 5 -12q-6 -6 -15 1l-119 82l-119 -82q-10 -7 -16 -1q-4 4 5 12l94 107q8 9 13 11t23 2z" />
    <glyph glyph-name="gcircumflex" unicode="&#x11d;" horiz-adv-x="602" 
d="M235 -218q84 0 131 52.5t47 161.5v130q-19 -65 -59 -97q-43 -34 -103 -34q-93 0 -146 59.5t-53 182.5q0 132 61.5 211t171.5 79q65 0 128 -40v29q0 11 9 11t17 -8q4 -5 9.5 -9t13.5 -6t13.5 -3.5t17 -2.5t16 -1t18 -0.5t16.5 -0.5q8 -1 25 -1q12 0 12 -9q0 -10 -12 -10
q-3 0 -13.5 1t-18.5 1q-22 0 -30.5 -7t-8.5 -24v-432q0 -123 -69.5 -189.5t-182.5 -66.5q-85 0 -136 36t-51 99q0 19 15 33.5t35 14.5t34.5 -13t14.5 -35t-14.5 -36t-34.5 -14q-12 0 -20 5q17 -32 56.5 -49.5t90.5 -17.5zM267 20q129 0 146 232v208q-46 44 -116 44
q-55 0 -91.5 -38.5t-51 -96t-14.5 -131.5q0 -218 127 -218zM307 713q17 0 22 -2t13 -11l94 -107q10 -9 5 -12q-6 -6 -15 1l-119 82l-119 -82q-10 -7 -16 -1q-4 4 5 12l94 107q8 9 13 11t23 2z" />
    <glyph glyph-name="Gbreve" unicode="&#x11e;" horiz-adv-x="693" 
d="M511 521q0 26 17 42.5t39 16.5q15 0 30 -10q-17 51 -72.5 85t-137.5 34q-124 0 -182.5 -87t-58.5 -259q0 -334 225 -334q33 0 62 7.5t54.5 24t40.5 48t15 75.5v133q0 20 -18 20h-50q-15 0 -34 -1t-23 -1q-13 0 -13 10q0 11 16 11q3 0 21.5 -0.5t32.5 -0.5h141
q11 0 11 -10v-316q0 -17 -9 -17q-11 0 -11 16q-3 70 -22 70q-7 0 -16 -7t-23.5 -19.5t-27.5 -21.5q-66 -43 -155 -43q-139 0 -224 92.5t-85 265.5q0 169 85 267t243 98q118 0 180 -55t62 -132q0 -26 -17.5 -41.5t-41.5 -15.5q-23 0 -38.5 15t-15.5 40zM387 793q43 0 68.5 16
t25.5 39q0 14 10 14q9 0 9 -16q0 -45 -31 -73.5t-82 -28.5q-53 0 -82.5 28.5t-29.5 74.5q0 15 10 15q8 0 8 -14q1 -24 24.5 -39.5t69.5 -15.5z" />
    <glyph glyph-name="gbreve" unicode="&#x11f;" horiz-adv-x="602" 
d="M235 -218q84 0 131 52.5t47 161.5v130q-19 -65 -59 -97q-43 -34 -103 -34q-93 0 -146 59.5t-53 182.5q0 132 61.5 211t171.5 79q65 0 128 -40v29q0 11 9 11t17 -8q4 -5 9.5 -9t13.5 -6t13.5 -3.5t17 -2.5t16 -1t18 -0.5t16.5 -0.5q8 -1 25 -1q12 0 12 -9q0 -10 -12 -10
q-3 0 -13.5 1t-18.5 1q-22 0 -30.5 -7t-8.5 -24v-432q0 -123 -69.5 -189.5t-182.5 -66.5q-85 0 -136 36t-51 99q0 19 15 33.5t35 14.5t34.5 -13t14.5 -35t-14.5 -36t-34.5 -14q-12 0 -20 5q17 -32 56.5 -49.5t90.5 -17.5zM267 20q129 0 146 232v208q-46 44 -116 44
q-55 0 -91.5 -38.5t-51 -96t-14.5 -131.5q0 -218 127 -218zM307 629q43 0 68.5 16t25.5 39q0 14 10 14q9 0 9 -16q0 -45 -31 -73.5t-82 -28.5q-53 0 -82.5 28.5t-29.5 74.5q0 15 10 15q8 0 8 -14q1 -24 24.5 -39.5t69.5 -15.5z" />
    <glyph glyph-name="Gdotaccent" unicode="&#x120;" horiz-adv-x="693" 
d="M335 800q0 25 16.5 41.5t38.5 16.5q21 0 36 -14.5t15 -39.5q0 -24 -16.5 -40t-39.5 -16q-21 0 -35.5 14t-14.5 38zM511 521q0 26 17 42.5t39 16.5q15 0 30 -10q-17 51 -72.5 85t-137.5 34q-124 0 -182.5 -87t-58.5 -259q0 -334 225 -334q33 0 62 7.5t54.5 24t40.5 48
t15 75.5v133q0 20 -18 20h-50q-15 0 -34 -1t-23 -1q-13 0 -13 10q0 11 16 11q3 0 21.5 -0.5t32.5 -0.5h141q11 0 11 -10v-316q0 -17 -9 -17q-11 0 -11 16q-3 70 -22 70q-7 0 -16 -7t-23.5 -19.5t-27.5 -21.5q-66 -43 -155 -43q-139 0 -224 92.5t-85 265.5q0 169 85 267
t243 98q118 0 180 -55t62 -132q0 -26 -17.5 -41.5t-41.5 -15.5q-23 0 -38.5 15t-15.5 40z" />
    <glyph glyph-name="gdotaccent" unicode="&#x121;" horiz-adv-x="602" 
d="M235 -218q84 0 131 52.5t47 161.5v130q-19 -65 -59 -97q-43 -34 -103 -34q-93 0 -146 59.5t-53 182.5q0 132 61.5 211t171.5 79q65 0 128 -40v29q0 11 9 11t17 -8q4 -5 9.5 -9t13.5 -6t13.5 -3.5t17 -2.5t16 -1t18 -0.5t16.5 -0.5q8 -1 25 -1q12 0 12 -9q0 -10 -12 -10
q-3 0 -13.5 1t-18.5 1q-22 0 -30.5 -7t-8.5 -24v-432q0 -123 -69.5 -189.5t-182.5 -66.5q-85 0 -136 36.5t-51 99.5q0 19 15 33t35 14t34.5 -13t14.5 -35t-14.5 -36t-34.5 -14q-12 0 -20 5q17 -32 56.5 -49.5t90.5 -17.5zM267 20q129 0 146 232v208q-46 44 -116 44
q-55 0 -91.5 -38.5t-51 -96t-14.5 -131.5q0 -218 127 -218zM254 637q0 24 16.5 40.5t38.5 16.5t36.5 -14.5t14.5 -39.5q0 -24 -16 -39.5t-39 -15.5q-22 0 -36.5 14t-14.5 38z" />
    <glyph glyph-name="Gcommaaccent" unicode="&#x122;" horiz-adv-x="693" 
d="M511 521q0 26 17 42.5t39 16.5q15 0 30 -10q-17 51 -72.5 85t-137.5 34q-124 0 -182.5 -87t-58.5 -259q0 -334 225 -334q33 0 62 7.5t54.5 24t40.5 48t15 75.5v133q0 20 -18 20h-50q-15 0 -34 -1t-23 -1q-13 0 -13 10q0 11 16 11q3 0 21.5 -0.5t32.5 -0.5h141
q11 0 11 -10v-316q0 -17 -9 -17q-11 0 -11 16q-3 70 -22 70q-7 0 -16 -7t-23.5 -19.5t-27.5 -21.5q-66 -43 -155 -43q-139 0 -224 92.5t-85 265.5q0 169 85 267t243 98q118 0 180 -55t62 -132q0 -26 -17.5 -41.5t-41.5 -15.5q-23 0 -38.5 15t-15.5 40zM333 -117
q0 19 11 30.5t30 11.5q18 0 29.5 -12.5t11.5 -33.5q0 -35 -24 -70.5t-48 -53.5q-9 -9 -15 -2q-6 6 4 14q53 44 60 92q-9 -16 -27 -16q-13 0 -22.5 11t-9.5 29z" />
    <glyph glyph-name="gcommaaccent" unicode="&#x123;" horiz-adv-x="602" 
d="M497 15q0 -123 -69.5 -189.5t-182.5 -66.5q-85 0 -136 36t-51 99q0 19 15 33.5t35 14.5t34.5 -13t14.5 -35t-14.5 -36t-34.5 -14q-12 0 -20 5q17 -32 56.5 -49.5t90.5 -17.5q84 0 131 52.5t47 161.5v130q-19 -65 -59 -97q-43 -34 -103 -34q-93 0 -146 59.5t-53 182.5
q0 132 61.5 211t171.5 79q65 0 128 -40v29q0 11 9 11t17 -8q4 -5 9.5 -9t13.5 -6t13.5 -3.5t17 -2.5t16 -1t18 -0.5t16.5 -0.5q8 -1 25 -1q12 0 12 -9q0 -10 -12 -10q-3 0 -13.5 1t-18.5 1q-22 0 -30.5 -7t-8.5 -24v-432zM267 20q129 0 146 232v208q-46 44 -116 44
q-55 0 -91.5 -38.5t-51 -96t-14.5 -131.5q0 -218 127 -218zM341 609q0 -22 -12.5 -35.5t-33.5 -13.5t-34 14.5t-13 37.5q0 38 26 76.5t52 57.5q11 9 17 3q5 -7 -6 -15q-54 -45 -64 -100q11 20 33 20q15 0 25 -12.5t10 -32.5z" />
    <glyph glyph-name="Hcircumflex" unicode="&#x124;" horiz-adv-x="756" 
d="M170 695q15 0 42.5 1t40.5 1q9 0 20 1t13 1q11 0 11 -10t-11 -10q-3 0 -13.5 1t-19.5 1q-23 0 -30.5 -7t-7.5 -27v-287h327v287q0 20 -8 27t-31 7q-8 0 -18.5 -1t-14.5 -1q-11 0 -11 10t11 10q3 0 14 -1t19 -1q13 0 41 -1t42 -1t41.5 1t40.5 1q8 0 19 1t14 1q11 0 11 -10
t-11 -10q-4 0 -14 1t-19 1q-23 0 -31 -7t-8 -27v-596q0 -20 8 -27t31 -7q9 0 19 1t14 1q13 0 13 -10t-13 -10q-3 0 -14 1t-19 1q-13 0 -40.5 1t-41.5 1t-42 -1t-41 -1q-8 0 -19 -1t-14 -1q-12 0 -12 10t12 10q4 0 14.5 -1t18.5 -1q23 0 31 7t8 27v288h-327v-288
q0 -20 7.5 -27t30.5 -7q9 0 19.5 1t13.5 1q13 0 13 -10t-13 -10q-2 0 -13 1t-20 1q-13 0 -40.5 1t-42.5 1q-14 0 -41.5 -1t-40.5 -1q-8 0 -19 -1t-14 -1q-12 0 -12 10t12 10q3 0 13.5 -1t19.5 -1q23 0 31 7t8 27v596q0 20 -8 27t-31 7q-9 0 -19.5 -1t-13.5 -1q-11 0 -11 10
t11 10q3 0 14 -1t19 -1q13 0 40.5 -1t41.5 -1zM378 871q17 0 22 -2t13 -11l94 -107q10 -9 5 -12q-6 -6 -15 1l-119 82l-119 -82q-10 -7 -16 -1q-4 4 5 12l94 107q8 9 13 11t23 2z" />
    <glyph glyph-name="hcircumflex" unicode="&#x125;" horiz-adv-x="626" 
d="M433 86v281q0 131 -99 131q-42 0 -73 -24q-66 -54 -69 -211v-212q0 -20 7.5 -27t31.5 -7q8 0 18.5 1t14.5 1q10 0 10 -10t-10 -10q-3 0 -14 1t-19 1q-13 0 -40 1t-41 1t-41 -1t-40 -1q-8 0 -19 -1t-14 -1q-11 0 -11 10t11 10q4 0 14 -1t19 -1q22 0 29.5 5.5t9.5 20.5v615
q0 24 -9 32t-35 8q-5 0 -14.5 -1t-13.5 -1q-12 0 -12 10t13 10q4 0 13.5 -0.5t14.5 -0.5q66 0 100 23q13 10 19 10q8 0 8 -12v-333q19 56 60.5 90t106.5 34q73 0 115.5 -42t42.5 -128v-277q0 -34 12 -48.5t37 -14.5q10 0 21 1t15 1q13 0 13 -10t-13 -10q-6 0 -31.5 0.5
t-42.5 0.5q-51 0 -73 20.5t-22 65.5zM146 882q17 0 22 -2t13 -11l94 -107q10 -9 5 -12q-6 -6 -15 1l-119 82l-119 -82q-10 -7 -16 -1q-4 4 5 12l94 107q8 9 13 11t23 2z" />
    <glyph glyph-name="Hbar" unicode="&#x126;" horiz-adv-x="756" 
d="M586 695q14 0 41.5 1t40.5 1q8 0 19 1t14 1q11 0 11 -10t-11 -10q-4 0 -14 1t-19 1q-23 0 -31 -7t-8 -27v-121h59q14 0 17.5 -2t3.5 -7q0 -10 -26 -10h-54v-456q0 -20 8 -27t31 -7q9 0 19 1t14 1q13 0 13 -10t-13 -10q-3 0 -14 1t-19 1q-13 0 -40.5 1t-41.5 1t-42 -1
t-41 -1q-8 0 -19 -1t-14 -1q-12 0 -12 10t12 10q4 0 14.5 -1t18.5 -1q23 0 31 7t8 27v288h-327v-288q0 -20 7.5 -27t30.5 -7q9 0 19.5 1t13.5 1q13 0 13 -10t-13 -10q-2 0 -13 1t-20 1q-13 0 -40.5 1t-42.5 1q-14 0 -41.5 -1t-40.5 -1q-8 0 -19 -1t-14 -1q-12 0 -12 10
t12 10q3 0 13.5 -1t19.5 -1q23 0 31 7t8 27v456h-63q-14 0 -18 1.5t-4 8.5q0 9 21 9h64v121q0 20 -8 27t-31 7q-9 0 -19.5 -1t-13.5 -1q-11 0 -11 10t11 10q3 0 14 -1t19 -1q13 0 40.5 -1t41.5 -1q15 0 42.5 1t40.5 1q9 0 20 1t13 1q11 0 11 -10t-11 -10q-3 0 -13.5 1
t-19.5 1q-23 0 -30.5 -7t-7.5 -27v-121h327v121q0 20 -8 27t-31 7q-8 0 -18.5 -1t-14.5 -1q-11 0 -11 10t11 10q3 0 14 -1t19 -1q13 0 41 -1t42 -1zM215 507v-147h327v147h-327z" />
    <glyph glyph-name="hbar" unicode="&#x127;" horiz-adv-x="626" 
d="M284 563h-92v-160q19 56 60.5 90t106.5 34q73 0 115.5 -42t42.5 -128v-277q0 -34 12 -48.5t37 -14.5q10 0 21 1t15 1q13 0 13 -10t-13 -10q-6 0 -31.5 0.5t-42.5 0.5q-51 0 -73 20.5t-22 65.5v281q0 131 -99 131q-42 0 -73 -24q-66 -54 -69 -211v-212q0 -20 7.5 -27
t31.5 -7q8 0 18.5 1t14.5 1q10 0 10 -10t-10 -10q-3 0 -14 1t-19 1q-13 0 -40 1t-41 1t-41 -1t-40 -1q-8 0 -19 -1t-14 -1q-11 0 -11 10t11 10q4 0 14 -1t19 -1q22 0 29.5 5.5t9.5 20.5v520h-56q-13 0 -13 11q0 10 12 10h57v128q0 27 16 27h52q9 1 12.5 -5.5t3.5 -21.5v-128
h93q12 0 12 -10q0 -11 -13 -11z" />
    <glyph glyph-name="Itilde" unicode="&#x128;" horiz-adv-x="342" 
d="M170 699q15 0 42.5 1t40.5 1q9 0 20 1t13 1q11 0 11 -10t-11 -10q-3 0 -13.5 1t-19.5 1q-23 0 -30.5 -7t-7.5 -27v-600q0 -20 7.5 -27t30.5 -7q9 0 19.5 1t13.5 1q13 0 13 -10t-13 -10q-2 0 -13 1t-20 1q-13 0 -40.5 1t-42.5 1q-14 0 -41.5 -1t-40.5 -1q-8 0 -19 -1
t-14 -1q-12 0 -12 10t12 10q3 0 13.5 -1t19.5 -1q23 0 31 7t8 27v600q0 20 -8 27t-31 7q-9 0 -19.5 -1t-13.5 -1q-11 0 -11 10t11 10q3 0 14 -1t19 -1q13 0 40.5 -1t41.5 -1zM238 786q31 0 31 43q0 12 9 12t9 -16q0 -84 -60 -84q-31 0 -76 27.5t-60 27.5q-26 0 -26 -44
q0 -11 -11 -11q-8 0 -8 19q0 81 60 81q27 0 71 -27.5t61 -27.5z" />
    <glyph glyph-name="itilde" unicode="&#x129;" horiz-adv-x="308" 
d="M159 3q-14 0 -41 -1t-40 -1q-8 0 -19 -1t-14 -1q-11 0 -11 10t11 10q4 0 14 -1t19 -1q23 0 31 7t8 27v385q0 23 -9 31t-35 8q-5 0 -14.5 -0.5t-12.5 -0.5q-13 0 -13 9q0 10 13 10q3 0 13 -0.5t15 -0.5q66 0 100 23q12 11 20 11q7 0 7 -13v-462q0 -20 7.5 -27t31.5 -7
q8 0 18.5 1t13.5 1q11 0 11 -10t-11 -10q-2 0 -13 1t-19 1q-13 0 -40 1t-41 1zM210 622q31 0 31 43q0 12 9 12t9 -16q0 -84 -60 -84q-31 0 -76 27.5t-60 27.5q-26 0 -26 -44q0 -11 -11 -11q-8 0 -8 19q0 81 60 81q27 0 71 -27.5t61 -27.5z" />
    <glyph glyph-name="Imacron" unicode="&#x12a;" horiz-adv-x="342" 
d="M170 695q15 0 42.5 1t40.5 1q9 0 20 1t13 1q11 0 11 -10t-11 -10q-3 0 -13.5 1t-19.5 1q-23 0 -30.5 -7t-7.5 -27v-596q0 -20 7.5 -27t30.5 -7q9 0 19.5 1t13.5 1q13 0 13 -10t-13 -10q-2 0 -13 1t-20 1q-13 0 -40.5 1t-42.5 1q-14 0 -41.5 -1t-40.5 -1q-8 0 -19 -1
t-14 -1q-12 0 -12 10t12 10q3 0 13.5 -1t19.5 -1q23 0 31 7t8 27v596q0 20 -8 27t-31 7q-9 0 -19.5 -1t-13.5 -1q-11 0 -11 10t11 10q3 0 14 -1t19 -1q13 0 40.5 -1t41.5 -1zM285 734h-232q-13 0 -13 11q0 10 12 10h234q12 0 12 -10q0 -11 -13 -11z" />
    <glyph glyph-name="imacron" unicode="&#x12b;" horiz-adv-x="308" 
d="M159 3q-14 0 -41 -1t-40 -1q-8 0 -19 -1t-14 -1q-11 0 -11 10t11 10q4 0 14 -1t19 -1q23 0 31 7t8 27v385q0 23 -9 31t-35 8q-5 0 -14.5 -0.5t-12.5 -0.5q-13 0 -13 9q0 10 13 10q3 0 13 -0.5t15 -0.5q66 0 100 23q12 11 20 11q7 0 7 -13v-462q0 -20 7.5 -27t31.5 -7
q8 0 18.5 1t13.5 1q11 0 11 -10t-11 -10q-2 0 -13 1t-19 1q-13 0 -40 1t-41 1zM257 570h-232q-13 0 -13 11q0 10 12 10h234q12 0 12 -10q0 -11 -13 -11z" />
    <glyph glyph-name="Ibreve" unicode="&#x12c;" horiz-adv-x="342" 
d="M170 695q15 0 42.5 1t40.5 1q9 0 20 1t13 1q11 0 11 -10t-11 -10q-3 0 -13.5 1t-19.5 1q-23 0 -30.5 -7t-7.5 -27v-596q0 -20 7.5 -27t30.5 -7q9 0 19.5 1t13.5 1q13 0 13 -10t-13 -10q-2 0 -13 1t-20 1q-13 0 -40.5 1t-42.5 1q-14 0 -41.5 -1t-40.5 -1q-8 0 -19 -1
t-14 -1q-12 0 -12 10t12 10q3 0 13.5 -1t19.5 -1q23 0 31 7t8 27v596q0 20 -8 27t-31 7q-9 0 -19.5 -1t-13.5 -1q-11 0 -11 10t11 10q3 0 14 -1t19 -1q13 0 40.5 -1t41.5 -1zM169 782q43 0 68.5 16t25.5 39q0 14 10 14q9 0 9 -16q0 -45 -31 -73.5t-82 -28.5
q-53 0 -82.5 28.5t-29.5 74.5q0 15 10 15q8 0 8 -14q1 -24 24.5 -39.5t69.5 -15.5z" />
    <glyph glyph-name="ibreve" unicode="&#x12d;" horiz-adv-x="308" 
d="M159 3q-14 0 -41 -1t-40 -1q-8 0 -19 -1t-14 -1q-11 0 -11 10t11 10q4 0 14 -1t19 -1q23 0 31 7t8 27v385q0 23 -9 31t-35 8q-5 0 -14.5 -0.5t-12.5 -0.5q-13 0 -13 9q0 10 13 10q3 0 13 -0.5t15 -0.5q66 0 100 23q12 11 20 11q7 0 7 -13v-462q0 -20 7.5 -27t31.5 -7
q8 0 18.5 1t13.5 1q11 0 11 -10t-11 -10q-2 0 -13 1t-19 1q-13 0 -40 1t-41 1zM141 618q43 0 68.5 16t25.5 39q0 14 10 14q9 0 9 -16q0 -45 -31 -73.5t-82 -28.5q-53 0 -82.5 28.5t-29.5 74.5q0 15 10 15q8 0 8 -14q1 -24 24.5 -39.5t69.5 -15.5z" />
    <glyph glyph-name="Iogonek" unicode="&#x12e;" horiz-adv-x="342" 
d="M170 695q15 0 42.5 1t40.5 1q9 0 20 1t13 1q11 0 11 -10t-11 -10q-3 0 -13.5 1t-19.5 1q-23 0 -30.5 -7t-7.5 -27v-596q0 -20 7.5 -27t30.5 -7q9 0 19.5 1t13.5 1q13 0 13 -10t-13 -10q-2 0 -13 1t-20 1h-25q-24 -17 -39.5 -46t-15.5 -55q0 -25 12.5 -38t32.5 -13
q31 0 58 17q13 10 18 2q6 -8 -11 -19q-33 -23 -80 -23q-41 0 -66.5 18t-25.5 52q0 64 88 106q-9 1 -29 1q-14 0 -41.5 -1t-40.5 -1q-8 0 -19 -1t-14 -1q-12 0 -12 10t12 10q3 0 13.5 -1t19.5 -1q23 0 31 7t8 27v596q0 20 -8 27t-31 7q-9 0 -19.5 -1t-13.5 -1q-11 0 -11 10
t11 10q3 0 14 -1t19 -1q13 0 40.5 -1t41.5 -1z" />
    <glyph glyph-name="iogonek" unicode="&#x12f;" horiz-adv-x="308" 
d="M240 1q-21 0 -63 2q-25 -17 -41 -46.5t-16 -56.5q0 -25 12.5 -38t32.5 -13q31 0 58 17q13 10 18 2q6 -8 -11 -19q-33 -23 -80 -23q-41 0 -66.5 18t-25.5 52q0 62 89 107q-46 -2 -69 -2q-8 0 -19 -1t-14 -1q-11 0 -11 10t11 10q4 0 14 -1t19 -1q23 0 31 7t8 27v385
q0 23 -9 31t-35 8q-5 0 -14.5 -0.5t-12.5 -0.5q-13 0 -13 9q0 10 13 10q3 0 13 -0.5t15 -0.5q66 0 100 23q12 11 20 11q7 0 7 -13v-462q0 -20 7.5 -27t31.5 -7q8 0 18.5 1t13.5 1q11 0 11 -10t-11 -10q-2 0 -13 1t-19 1zM107 657q0 24 16 40.5t38 16.5t37 -14.5t15 -39.5
q0 -24 -16.5 -39.5t-39.5 -15.5q-21 0 -35.5 14.5t-14.5 37.5z" />
    <glyph glyph-name="Idotaccent" unicode="&#x130;" horiz-adv-x="342" 
d="M170 695q15 0 42.5 1t40.5 1q9 0 20 1t13 1q11 0 11 -10t-11 -10q-3 0 -13.5 1t-19.5 1q-23 0 -30.5 -7t-7.5 -27v-596q0 -20 7.5 -27t30.5 -7q9 0 19.5 1t13.5 1q13 0 13 -10t-13 -10q-2 0 -13 1t-20 1q-13 0 -40.5 1t-42.5 1q-14 0 -41.5 -1t-40.5 -1q-8 0 -19 -1
t-14 -1q-12 0 -12 10t12 10q3 0 13.5 -1t19.5 -1q23 0 31 7t8 27v596q0 20 -8 27t-31 7q-9 0 -19.5 -1t-13.5 -1q-11 0 -11 10t11 10q3 0 14 -1t19 -1q13 0 40.5 -1t41.5 -1zM117 790q0 24 16 40.5t38 16.5t37 -14.5t15 -39.5q0 -24 -16.5 -39.5t-39.5 -15.5q-22 0 -36 14
t-14 38z" />
    <glyph glyph-name="dotlessi" unicode="&#x131;" horiz-adv-x="308" 
d="M159 3q-14 0 -41 -1t-40 -1q-8 0 -19 -1t-14 -1q-11 0 -11 10t11 10q4 0 14 -1t19 -1q23 0 31 7t8 27v385q0 23 -9 31t-35 8q-5 0 -14.5 -0.5t-12.5 -0.5q-13 0 -13 9q0 10 13 10q3 0 13 -0.5t15 -0.5q66 0 100 23q12 11 20 11q7 0 7 -13v-462q0 -20 7.5 -27t31.5 -7
q8 0 18.5 1t13.5 1q11 0 11 -10t-11 -10q-2 0 -13 1t-19 1q-13 0 -40 1t-41 1z" />
    <glyph glyph-name="IJ" unicode="&#x132;" horiz-adv-x="825" 
d="M358 134q0 27 18.5 44.5t44.5 17.5q24 0 41.5 -17t17.5 -44q0 -28 -18.5 -44t-44.5 -16q-18 0 -31 7q13 -35 43.5 -54t70.5 -19q124 0 124 191v447q0 20 -8 27t-32 7q-8 0 -18.5 -1t-13.5 -1q-11 0 -11 10t11 10q3 0 13.5 -1t18.5 -1q14 0 42 -1t41 -1q14 0 42 1t41 1
q8 0 19 1t14 1q11 0 11 -10t-11 -10q-4 0 -14 1t-19 1q-24 0 -31.5 -7t-7.5 -27v-75h1v-353q0 -103 -49.5 -167.5t-149.5 -64.5q-146 0 -154 131q-1 5 -1 16zM170 695q15 0 42.5 1t40.5 1q9 0 20 1t13 1q11 0 11 -10t-11 -10q-3 0 -13.5 1t-19.5 1q-23 0 -30.5 -7t-7.5 -27
v-596q0 -20 7.5 -27t30.5 -7q9 0 19.5 1t13.5 1q13 0 13 -10t-13 -10q-2 0 -13 1t-20 1q-13 0 -40.5 1t-42.5 1q-14 0 -41.5 -1t-40.5 -1q-8 0 -19 -1t-14 -1q-12 0 -12 10t12 10q3 0 13.5 -1t19.5 -1q23 0 31 7t8 27v596q0 20 -8 27t-31 7q-9 0 -19.5 -1t-13.5 -1
q-11 0 -11 10t11 10q3 0 14 -1t19 -1q13 0 40.5 -1t41.5 -1z" />
    <glyph glyph-name="ij" unicode="&#x133;" horiz-adv-x="563" 
d="M185 -140q0 22 14.5 36t36.5 14q20 0 34.5 -14t14.5 -37q0 -21 -15.5 -35.5t-36.5 -14.5q-9 0 -16 4q24 -35 72 -35q52 0 75 44t23 152v463q0 24 -8.5 32t-34.5 8q-5 0 -15 -1t-13 -1q-13 0 -13 10t13 10q4 0 14 -0.5t15 -0.5q66 0 100 23q14 11 19 11q7 0 7 -14v-515
q0 -240 -171 -240q-59 0 -87 28t-28 73zM159 3q-14 0 -41 -1t-40 -1q-8 0 -19 -1t-14 -1q-11 0 -11 10t11 10q4 0 14 -1t19 -1q23 0 31 7t8 27v385q0 23 -9 31t-35 8q-5 0 -14.5 -0.5t-12.5 -0.5q-13 0 -13 9q0 10 13 10q3 0 13 -0.5t15 -0.5q66 0 100 23q12 11 20 11
q7 0 7 -13v-462q0 -20 7.5 -27t31.5 -7q8 0 18.5 1t13.5 1q11 0 11 -10t-11 -10q-2 0 -13 1t-19 1q-13 0 -40 1t-41 1zM107 657q0 24 16 40.5t38 16.5t37 -14.5t15 -39.5q0 -24 -16.5 -39.5t-39.5 -15.5q-21 0 -35.5 14.5t-14.5 37.5zM379 657q0 24 16 40.5t38 16.5
t36.5 -14.5t14.5 -39.5q0 -24 -16.5 -39.5t-38.5 -15.5t-36 14t-14 38z" />
    <glyph glyph-name="Jcircumflex" unicode="&#x134;" horiz-adv-x="325" 
d="M19 -113q51 32 76 81t25 145v534q0 20 -7.5 27t-31.5 7q-9 0 -19.5 -1t-13.5 -1q-11 0 -11 10t11 10q2 0 13 -1t20 -1q13 0 40.5 -1t42.5 -1q14 0 42 1t41 1q7 0 18 1t14 1q11 0 11 -10t-11 -10q-3 0 -13.5 1t-18.5 1q-24 0 -32 -7t-8 -27v-478q0 -109 -45.5 -179.5
t-130.5 -120.5q-3 -2 -10.5 -6t-14 -8t-8.5 -4q-17 -8 -21 2t7 16q31 16 35 18zM163 866q17 0 22 -2t13 -11l94 -107q10 -9 5 -12q-6 -6 -15 1l-119 82l-119 -82q-10 -7 -16 -1q-4 4 5 12l94 107q8 9 13 11t23 2z" />
    <glyph glyph-name="jcircumflex" unicode="&#x135;" horiz-adv-x="283" 
d="M110 19v418q0 24 -8.5 32t-34.5 8q-5 0 -15 -1t-13 -1q-13 0 -13 10t13 10q4 0 14 -0.5t15 -0.5q66 0 100 23q14 11 19 11q7 0 7 -14v-441q0 -191 -153 -291l-35 -22q-14 -6 -19 2q-4 10 7 17q1 1 13 7t23 14q46 34 63 78.5t17 140.5zM134 693q17 0 22 -2t13 -11l94 -107
q10 -9 5 -12q-6 -6 -15 1l-119 82l-119 -82q-10 -7 -16 -1q-4 4 5 12l94 107q8 9 13 11t23 2z" />
    <glyph glyph-name="Kcommaaccent" unicode="&#x136;" horiz-adv-x="684" 
d="M170 3q-14 0 -41.5 -1t-40.5 -1q-8 0 -19 -1t-14 -1q-12 0 -12 10t12 10q3 0 13.5 -1t19.5 -1q23 0 31 7t8 27v596q0 20 -8 27t-31 7q-9 0 -19.5 -1t-13.5 -1q-11 0 -11 10t11 10q3 0 14 -1t19 -1q13 0 40.5 -1t41.5 -1q15 0 42.5 1t40.5 1q9 0 20 1t13 1q11 0 11 -10
t-11 -10q-3 0 -13.5 1t-19.5 1q-23 0 -30.5 -7t-7.5 -27v-327l292 318q39 43 -6 43q-8 0 -20.5 -1t-15.5 -1q-15 0 -15 9q0 11 17 11q4 0 31.5 -2.5t54.5 -2.5q16 0 47 2.5t46 2.5t15 -10t-15 -10q-6 0 -14.5 1t-15.5 1q-26 0 -40 -8.5t-38 -35.5l-224 -243h9
q95 0 141.5 -45t72.5 -154q45 -185 108 -185q19 0 45 15q13 8 18 -1q4 -9 -10 -17q-29 -18 -74 -18q-76 0 -114.5 44.5t-64.5 154.5q-22 94 -52 141t-90 47h-5l-83 -91v-234q0 -20 7.5 -27t30.5 -7q9 0 19.5 1t13.5 1q13 0 13 -10t-13 -10q-2 0 -13 1t-20 1q-13 0 -40.5 1
t-42.5 1zM313 -117q0 19 11 30.5t30 11.5q18 0 29.5 -12.5t11.5 -33.5q0 -35 -24 -70.5t-48 -53.5q-9 -9 -15 -2q-6 6 4 14q53 44 60 92q-9 -16 -27 -16q-13 0 -22.5 11t-9.5 29z" />
    <glyph glyph-name="kcommaaccent" unicode="&#x137;" horiz-adv-x="567" 
d="M406 454l-119 -117l125 -218q37 -67 56.5 -86.5t41.5 -19.5q7 0 12.5 1t10 3.5t7.5 4t7.5 5t5.5 4.5q11 9 17 2t-3 -16q-29 -26 -92 -26q-47 0 -78.5 21.5t-72.5 94.5l-98 170l-34 -35v-191q0 -20 7.5 -27t31.5 -7q8 0 18.5 1t14.5 1q10 0 10 -10t-10 -10q-3 0 -14 1
t-19 1q-13 0 -40 1t-41 1t-41 -1t-40 -1q-8 0 -19 -1t-14 -1q-11 0 -11 10t11 10q4 0 14 -1t19 -1q24 0 31.5 7t7.5 27v607q0 24 -9 32t-35 8q-5 0 -14.5 -1t-13.5 -1q-12 0 -12 10q0 9 13 9q4 0 13.5 -0.5t14.5 -0.5q65 0 100 24q13 10 19 10q8 0 8 -13v-464l193 192
q13 13 9 20.5t-24 7.5q-8 0 -35 -3q-16 0 -16 11q0 10 21 10q14 0 47 -3t44 -3t40.5 3t43.5 3q16 0 16 -10q0 -11 -15 -11q-5 0 -15 1.5t-16 1.5q-42 0 -79 -37zM259 -117q0 19 11 30.5t30 11.5q18 0 29.5 -12.5t11.5 -33.5q0 -35 -24 -70.5t-48 -53.5q-9 -9 -15 -2
q-6 6 4 14q53 44 60 92q-9 -16 -27 -16q-13 0 -22.5 11t-9.5 29z" />
    <glyph glyph-name="Lacute" unicode="&#x139;" horiz-adv-x="579" 
d="M170 695q15 0 42.5 1t40.5 1q9 0 20 1t13 1q11 0 11 -10t-11 -10q-3 0 -13.5 1t-19.5 1q-21 0 -29 -6t-9 -21v-634h105q61 0 102.5 9.5t64.5 27.5t33.5 39t13.5 50q2 23 2 41q0 16 11 16q10 0 10 -17q0 -4 -2 -17.5t-3 -26.5l-11 -117q-1 -15 -6 -20t-22 -5h-355
q-23 0 -57.5 -2t-43.5 -2q-13 0 -13 10t12 10q2 0 12 -1t19 -1q24 0 32 7t8 27v604q-1 16 -9.5 22.5t-30.5 6.5q-8 0 -18.5 -1t-13.5 -1q-11 0 -11 10t11 10q3 0 14 -1t18 -1q14 0 41.5 -1t41.5 -1zM333 833q9 -17 -1 -32.5t-42 -23.5q-15 -6 -62 -20t-72 -25q-12 -6 -15 2
q-2 7 8 14q12 8 109 77q32 24 51 24q17 0 24 -16z" />
    <glyph glyph-name="lacute" unicode="&#x13a;" horiz-adv-x="299" 
d="M150 3q-14 0 -41 -1t-40 -1q-8 0 -19 -1t-14 -1q-11 0 -11 10t11 10q4 0 14 -1t19 -1q22 0 29.5 5.5t9.5 20.5v615q0 24 -9 32t-35 8q-5 0 -14.5 -1t-13.5 -1q-12 0 -12 10q0 9 13 9q4 0 13.5 -0.5t14.5 -0.5q65 0 100 24q13 10 19 10q8 0 8 -13v-684q0 -20 7.5 -27
t31.5 -7q8 0 18.5 1t14.5 1q10 0 10 -10t-10 -10q-3 0 -14 1t-19 1q-13 0 -40 1t-41 1zM283 907q9 -17 -1 -32.5t-42 -23.5q-15 -6 -62 -20t-72 -25q-12 -6 -15 2q-2 7 8 14q12 8 109 77q32 24 51 24q17 0 24 -16z" />
    <glyph glyph-name="Lcommaaccent" unicode="&#x13b;" horiz-adv-x="579" 
d="M170 695q15 0 42.5 1t40.5 1q9 0 20 1t13 1q11 0 11 -10t-11 -10q-3 0 -13.5 1t-19.5 1q-21 0 -29 -6t-9 -21v-634h105q61 0 102.5 9.5t64.5 27.5t33.5 39t13.5 50q2 23 2 41q0 16 11 16q10 0 10 -17q0 -4 -2 -17.5t-3 -26.5l-11 -117q-1 -15 -6 -20t-22 -5h-355
q-23 0 -57.5 -2t-43.5 -2q-13 0 -13 10t12 10q2 0 12 -1t19 -1q24 0 32 7t8 27v604q-1 16 -9.5 22.5t-30.5 6.5q-8 0 -18.5 -1t-13.5 -1q-11 0 -11 10t11 10q3 0 14 -1t18 -1q14 0 41.5 -1t41.5 -1zM287 -117q0 19 11 30.5t30 11.5q18 0 29.5 -12.5t11.5 -33.5
q0 -35 -24 -70.5t-48 -53.5q-9 -9 -15 -2q-6 6 4 14q53 44 60 92q-9 -16 -27 -16q-13 0 -22.5 11t-9.5 29z" />
    <glyph glyph-name="lcommaaccent" unicode="&#x13c;" horiz-adv-x="299" 
d="M150 3q-14 0 -41 -1t-40 -1q-8 0 -19 -1t-14 -1q-11 0 -11 10t11 10q4 0 14 -1t19 -1q22 0 29.5 5.5t9.5 20.5v615q0 24 -9 32t-35 8q-5 0 -14.5 -1t-13.5 -1q-12 0 -12 10q0 9 13 9q4 0 13.5 -0.5t14.5 -0.5q65 0 100 24q13 10 19 10q8 0 8 -13v-684q0 -20 7.5 -27
t31.5 -7q8 0 18.5 1t14.5 1q10 0 10 -10t-10 -10q-3 0 -14 1t-19 1q-13 0 -40 1t-41 1zM115 -117q0 19 11 30.5t30 11.5q18 0 29.5 -12.5t11.5 -33.5q0 -35 -24 -70.5t-48 -53.5q-9 -9 -15 -2q-6 6 4 14q53 44 60 92q-9 -16 -27 -16q-13 0 -22.5 11t-9.5 29z" />
    <glyph glyph-name="Lcaron" unicode="&#x13d;" horiz-adv-x="594" 
d="M170 695q15 0 42.5 1t40.5 1q9 0 20 1t13 1q11 0 11 -10t-11 -10q-3 0 -13.5 1t-19.5 1q-21 0 -29 -6t-9 -21v-634h105q61 0 102.5 9.5t64.5 27.5t33.5 39t13.5 50q2 23 2 41q0 16 11 16q10 0 10 -17q0 -4 -2 -17.5t-3 -26.5l-11 -117q-1 -15 -6 -20t-22 -5h-373
q-17 0 -45.5 -2t-37.5 -2q-13 0 -13 10t12 10q2 0 12 -1t19 -1q24 0 32 7t8 27v599q0 20 -8 27t-32 7q-8 0 -18.5 -1t-13.5 -1q-11 0 -11 10t11 10q3 0 14 -1t18 -1q14 0 41.5 -1t41.5 -1zM455 703q45 0 45 -48q0 -18 -5 -34l-25 -131q-6 -20 -15 -20q-8 0 -14 20l-25 131
q-6 21 -6 36q0 46 45 46z" />
    <glyph glyph-name="lcaron" unicode="&#x13e;" horiz-adv-x="321" 
d="M150 3q-14 0 -41 -1t-40 -1q-8 0 -19 -1t-14 -1q-11 0 -11 10t11 10q4 0 14 -1t19 -1q22 0 29.5 5.5t9.5 20.5v615q0 24 -9 32t-35 8q-5 0 -14.5 -1t-13.5 -1q-12 0 -12 10q0 9 13 9q4 0 13.5 -0.5t14.5 -0.5q65 0 100 24q13 10 19 10q8 0 8 -13v-692q1 -15 9 -20.5
t30 -5.5q8 0 18.5 1t14.5 1q10 0 10 -10t-10 -10q-3 0 -14 1t-19 1q-13 0 -40 1t-41 1zM290 745q19 0 31.5 -12t12.5 -36q0 -18 -5 -34l-26 -131q-5 -20 -13 -20q-9 0 -15 20l-26 131q-5 16 -5 35q0 47 46 47z" />
    <glyph glyph-name="Ldot" unicode="&#x13f;" horiz-adv-x="580" 
d="M170 695q15 0 42.5 1t40.5 1q9 0 20 1t13 1q11 0 11 -10t-11 -10q-3 0 -13.5 1t-19.5 1q-21 0 -29 -6t-9 -21v-634h105q61 0 102.5 9.5t64.5 27.5t33.5 39t13.5 50q2 23 2 41q0 16 11 16q10 0 10 -17q0 -4 -2 -17.5t-3 -26.5l-11 -117q-1 -15 -6 -20t-22 -5h-373
q-17 0 -45.5 -2t-37.5 -2q-13 0 -13 10t12 10q2 0 12 -1t19 -1q24 0 32 7t8 27v599q0 20 -8 27t-32 7q-8 0 -18.5 -1t-13.5 -1q-11 0 -11 10t11 10q3 0 14 -1t18 -1q14 0 41.5 -1t41.5 -1zM334 362q0 29 18.5 47.5t43.5 18.5q24 0 41 -16.5t17 -44.5t-18.5 -46t-44.5 -18
q-24 0 -40.5 16.5t-16.5 42.5z" />
    <glyph glyph-name="ldot" unicode="&#x140;" horiz-adv-x="359" 
d="M150 3q-14 0 -41 -1t-40 -1q-8 0 -19 -1t-14 -1q-11 0 -11 10t11 10q4 0 14 -1t19 -1q24 0 31.5 7t7.5 27v607q0 24 -9 32t-35 8q-5 0 -14.5 -1t-13.5 -1q-12 0 -12 10q0 9 13 9q4 0 13.5 -0.5t14.5 -0.5q65 0 100 24q13 10 19 10q8 0 8 -13v-692q1 -15 9 -20.5t30 -5.5
q8 0 18.5 1t14.5 1q10 0 10 -10t-10 -10q-3 0 -14 1t-19 1q-13 0 -40 1t-41 1zM268 330q0 28 18.5 47t43.5 19t42 -16.5t17 -44.5t-19 -46.5t-45 -18.5q-24 0 -40.5 16.5t-16.5 43.5z" />
    <glyph glyph-name="Lslash" unicode="&#x141;" horiz-adv-x="593" 
d="M170 695q15 0 42.5 1t40.5 1q9 0 20 1t13 1q11 0 11 -10t-11 -10q-3 0 -13.5 1t-19.5 1q-23 0 -30.5 -7t-7.5 -27v-281l149 87q20 11 20 -4q0 -9 -14 -17l-155 -91v-321h119q61 0 102.5 9.5t64.5 27.5t33.5 39t13.5 50q2 23 2 41q0 16 11 16q10 0 10 -17q0 -4 -2 -17.5
t-3 -26.5l-11 -117q-1 -15 -6 -20t-21 -5h-370q-23 0 -57.5 -2t-43.5 -2q-13 0 -13 10t12 10q2 0 12 -1t19 -1q22 0 30.5 6t9.5 22v248l-56 -33q-21 -13 -21 5q0 9 16 17l61 35v338q-1 16 -9.5 22.5t-30.5 6.5q-8 0 -18.5 -1t-13.5 -1q-11 0 -11 10t11 10q3 0 14 -1t18 -1
q14 0 41.5 -1t41.5 -1z" />
    <glyph glyph-name="lslash" unicode="&#x142;" horiz-adv-x="362" 
d="M182 3q-14 0 -41 -1t-40 -1q-8 0 -19 -1t-14 -1q-11 0 -11 10t11 10q4 0 14 -1t19 -1q23 0 30.5 7t7.5 27v253l-100 -49q-15 -5 -15 7q0 11 16 18l99 48v330q0 24 -8.5 32t-34.5 8q-5 0 -14.5 -1t-13.5 -1q-13 0 -13 10q0 9 13 9q4 0 14 -0.5t15 -0.5q65 0 100 24
q14 10 20 10q7 0 7 -13v-365l99 49q17 10 17 -5q0 -12 -14 -18l-102 -50v-303q1 -15 9 -20.5t30 -5.5q8 0 18.5 1t14.5 1q10 0 10 -10t-10 -10q-3 0 -14 1t-19 1q-13 0 -40 1t-41 1z" />
    <glyph glyph-name="Nacute" unicode="&#x143;" 
d="M600 696q9 0 25.5 1t26.5 1q8 0 19 1t14 1q11 0 11 -10t-11 -10q-4 0 -14.5 1t-18.5 1q-24 0 -32 -7t-8 -27v-642q0 -18 -8 -18t-19 17l-435 618v-572q0 -20 8 -27t32 -7q8 0 18.5 1t13.5 1q11 0 11 -10t-11 -10q-2 0 -13 1t-19 1q-10 0 -26 1t-26 1q-9 0 -25.5 -1
t-26.5 -1q-7 0 -18.5 -1t-14.5 -1q-10 0 -10 10t10 10q4 0 14.5 -1t18.5 -1q24 0 32 7t8 27v600q0 20 -8 26.5t-32 6.5q-8 0 -19 -0.5t-13 -0.5q-11 0 -11 10t12 10q5 0 32.5 -2t46.5 -2h53q16 0 27 -15l373 -532v496q0 20 -7.5 27t-30.5 7q-9 0 -19.5 -1t-13.5 -1
q-11 0 -11 10t11 10q2 0 13.5 -1t19.5 -1q9 0 25 -1t26 -1zM516 842q9 -17 -1 -32.5t-42 -23.5q-15 -6 -62 -20t-72 -25q-12 -6 -15 2q-2 7 8 14q12 8 109 77q31 24 51 24q17 0 24 -16z" />
    <glyph glyph-name="nacute" unicode="&#x144;" horiz-adv-x="643" 
d="M343 498q-41 0 -73 -24q-68 -53 -68 -229v-194q0 -20 7.5 -27t31.5 -7q9 0 19 1t12 1q12 0 12 -10t-12 -10q-2 0 -13 1t-18 1q-13 0 -40.5 1t-41.5 1t-41 -1t-40 -1q-8 0 -19 -1t-14 -1q-10 0 -10 10t10 10q4 0 14.5 -1t18.5 -1q24 0 31.5 7t7.5 27v385q0 23 -8.5 31
t-34.5 8q-5 0 -15 -0.5t-13 -0.5q-13 0 -13 9q0 10 13 10q4 0 14 -0.5t15 -0.5q66 0 100 23q12 11 19 11q8 0 8 -13v-108q44 122 166 122q73 0 115.5 -42t42.5 -128v-261q0 -80 48 -80q8 0 16 2.5t11.5 5t9 7.5t6.5 5q12 11 18 2q5 -7 -6 -18q-29 -25 -82 -25t-79 31.5
t-26 99.5v241q0 131 -99 131zM484 685q9 -17 -1 -32.5t-42 -23.5q-15 -6 -62 -20t-72 -25q-12 -6 -15 2q-2 7 8 14q12 8 109 77q31 24 51 24q17 0 24 -16z" />
    <glyph glyph-name="Ncommaaccent" unicode="&#x145;" 
d="M600 696q9 0 25.5 1t26.5 1q8 0 19 1t14 1q11 0 11 -10t-11 -10q-4 0 -14.5 1t-18.5 1q-24 0 -32 -7t-8 -27v-642q0 -18 -8 -18t-19 17l-435 618v-572q0 -20 8 -27t32 -7q8 0 18.5 1t13.5 1q11 0 11 -10t-11 -10q-2 0 -13 1t-19 1q-10 0 -26 1t-26 1q-9 0 -25.5 -1
t-26.5 -1q-7 0 -18.5 -1t-14.5 -1q-10 0 -10 10t10 10q4 0 14.5 -1t18.5 -1q24 0 32 7t8 27v600q0 20 -8 26.5t-32 6.5q-8 0 -19 -0.5t-13 -0.5q-11 0 -11 10t12 10q5 0 32.5 -2t46.5 -2h53q16 0 27 -15l373 -532v496q0 20 -7.5 27t-30.5 7q-9 0 -19.5 -1t-13.5 -1
q-11 0 -11 10t11 10q2 0 13.5 -1t19.5 -1q9 0 25 -1t26 -1zM348 -117q0 19 11 30.5t30 11.5q18 0 29.5 -12.5t11.5 -33.5q0 -35 -24 -70.5t-48 -53.5q-8 -9 -15 -2q-6 6 4 14q53 44 60 92q-9 -16 -27 -16q-13 0 -22.5 11t-9.5 29z" />
    <glyph glyph-name="ncommaaccent" unicode="&#x146;" horiz-adv-x="643" 
d="M343 498q-41 0 -73 -24q-68 -53 -68 -229v-194q0 -20 7.5 -27t31.5 -7q9 0 19 1t12 1q12 0 12 -10t-12 -10q-2 0 -13 1t-18 1q-13 0 -40.5 1t-41.5 1t-41 -1t-40 -1q-8 0 -19 -1t-14 -1q-10 0 -10 10t10 10q4 0 14.5 -1t18.5 -1q24 0 31.5 7t7.5 27v385q0 23 -8.5 31
t-34.5 8q-5 0 -15 -0.5t-13 -0.5q-13 0 -13 9q0 10 13 10q4 0 14 -0.5t15 -0.5q66 0 100 23q12 11 19 11q8 0 8 -13v-108q44 122 166 122q73 0 115.5 -42t42.5 -128v-261q0 -80 48 -80q8 0 16 2.5t11.5 5t9 7.5t6.5 5q12 11 18 2q5 -7 -6 -18q-29 -25 -82 -25t-79 31.5
t-26 99.5v241q0 131 -99 131zM299 -117q0 19 11 30.5t30 11.5q18 0 29.5 -12.5t11.5 -33.5q0 -35 -24 -70.5t-48 -53.5q-9 -9 -15 -2q-6 6 4 14q53 44 60 92q-9 -16 -27 -16q-13 0 -22.5 11t-9.5 29z" />
    <glyph glyph-name="Ncaron" unicode="&#x147;" 
d="M600 696q9 0 25.5 1t26.5 1q8 0 19 1t14 1q11 0 11 -10t-11 -10q-4 0 -14.5 1t-18.5 1q-24 0 -32 -7t-8 -27v-642q0 -18 -8 -18t-19 17l-435 618v-572q0 -20 8 -27t32 -7q8 0 18.5 1t13.5 1q11 0 11 -10t-11 -10q-2 0 -13 1t-19 1q-10 0 -26 1t-26 1q-9 0 -25.5 -1
t-26.5 -1q-7 0 -18.5 -1t-14.5 -1q-10 0 -10 10t10 10q4 0 14.5 -1t18.5 -1q24 0 32 7t8 27v600q0 20 -8 26.5t-32 6.5q-8 0 -19 -0.5t-13 -0.5q-11 0 -11 10t12 10q5 0 32.5 -2t46.5 -2h53q16 0 27 -15l373 -532v496q0 20 -7.5 27t-30.5 7q-9 0 -19.5 -1t-13.5 -1
q-11 0 -11 10t11 10q2 0 13.5 -1t19.5 -1q9 0 25 -1t26 -1zM363 737q-16 0 -21 2t-15 12l-105 106q-9 9 -6 14q4 5 15 -3l132 -81l131 81q10 8 15 3q4 -5 -5 -14l-106 -106q-9 -10 -14.5 -12t-20.5 -2z" />
    <glyph glyph-name="ncaron" unicode="&#x148;" horiz-adv-x="643" 
d="M343 498q-41 0 -73 -24q-68 -53 -68 -229v-194q0 -20 7.5 -27t31.5 -7q9 0 19 1t12 1q12 0 12 -10t-12 -10q-2 0 -13 1t-18 1q-13 0 -40.5 1t-41.5 1t-41 -1t-40 -1q-8 0 -19 -1t-14 -1q-10 0 -10 10t10 10q4 0 14.5 -1t18.5 -1q24 0 31.5 7t7.5 27v385q0 23 -8.5 31
t-34.5 8q-5 0 -15 -0.5t-13 -0.5q-13 0 -13 9q0 10 13 10q4 0 14 -0.5t15 -0.5q66 0 100 23q12 11 19 11q8 0 8 -13v-108q44 122 166 122q73 0 115.5 -42t42.5 -128v-261q0 -80 48 -80q8 0 16 2.5t11.5 5t9 7.5t6.5 5q12 11 18 2q5 -7 -6 -18q-29 -25 -82 -25t-79 31.5
t-26 99.5v241q0 131 -99 131zM331 580q-16 0 -21 2t-15 12l-105 106q-9 9 -6 14q4 5 15 -3l132 -81l131 81q10 8 15 3q4 -5 -5 -14l-106 -106q-9 -10 -14 -12t-21 -2z" />
    <glyph glyph-name="napostrophe" unicode="&#x149;" horiz-adv-x="643" 
d="M343 498q-41 0 -73 -24q-68 -53 -68 -229v-194q0 -20 7.5 -27t31.5 -7q9 0 19 1t12 1q12 0 12 -10t-12 -10q-2 0 -13 1t-18 1q-13 0 -40.5 1t-41.5 1t-41 -1t-40 -1q-8 0 -19 -1t-14 -1q-10 0 -10 10t10 10q4 0 14.5 -1t18.5 -1q24 0 31.5 7t7.5 27v385q0 23 -8.5 31
t-34.5 8q-5 0 -15 -0.5t-13 -0.5q-13 0 -13 9q0 10 13 10q4 0 14 -0.5t15 -0.5q66 0 100 23q12 11 19 11q8 0 8 -13v-108q44 122 166 122q73 0 115.5 -42t42.5 -128v-261q0 -80 48 -80q8 0 16 2.5t11.5 5t9 7.5t6.5 5q12 11 18 2q5 -7 -6 -18q-29 -25 -82 -25t-79 31.5
t-26 99.5v241q0 131 -99 131zM66 680q0 19 11 30.5t30 11.5q18 0 29.5 -12.5t11.5 -33.5q0 -35 -24 -70.5t-48 -53.5q-8 -8 -15 -2q-6 6 4 14q53 44 60 92q-9 -16 -27 -16q-13 0 -22.5 11t-9.5 29z" />
    <glyph glyph-name="Eng" unicode="&#x14a;" horiz-adv-x="764" 
d="M603 695q14 0 42 1t41 1q8 0 18.5 1t13.5 1q12 0 12 -10t-12 -10q-3 0 -13.5 1t-18.5 1q-24 0 -32 -7t-8 -27v-558q0 -109 -45.5 -180t-130.5 -120q-3 -2 -10.5 -6t-14 -8t-8.5 -4q-16 -9 -21 1q-4 9 7 17l36 18q51 32 75.5 80.5t24.5 144.5v10l-409 581v-572
q0 -20 8 -27t32 -7q8 0 18.5 1t13.5 1q11 0 11 -10t-11 -10q-2 0 -13 1t-19 1q-10 0 -26 1t-26 1q-9 0 -25.5 -1t-26.5 -1q-7 0 -18.5 -1t-14.5 -1q-10 0 -10 10t10 10q4 0 14.5 -1t18.5 -1q24 0 32 7t8 27v605q-1 16 -9.5 22t-30.5 6q-8 0 -19 -0.5t-13 -0.5q-11 0 -11 10
t12 10q5 0 32.5 -2t46.5 -2h53q16 0 27 -15l345 -492v455q0 20 -7.5 27t-31.5 7q-8 0 -18.5 -1t-14.5 -1q-11 0 -11 10t11 10q3 0 14 -1t19 -1q13 0 41 -1t42 -1z" />
    <glyph glyph-name="eng" unicode="&#x14b;" horiz-adv-x="607" 
d="M158 3q-14 0 -41 -1t-40 -1q-8 0 -18.5 -1t-13.5 -1q-11 0 -11 10t11 10q3 0 13.5 -1t18.5 -1q24 0 32 7t8 27v379q0 18 -8.5 25t-31.5 7q-7 0 -18 -1t-14 -1q-11 0 -11 10t12 10q3 0 11.5 -0.5t13.5 -0.5q70 2 103 29q11 8 18 8q9 0 9 -11v-102q19 56 60.5 90t105.5 34
q73 0 116 -42t43 -128v-409q0 -89 -39 -139t-118 -50q-57 0 -88.5 27.5t-33.5 69.5v5q0 24 15 39.5t36 15.5q19 0 34 -14t15 -37t-16 -39t-36 -16q-5 0 -7 1q26 -31 69 -31q85 0 85 136v451q0 131 -99 131q-43 0 -74 -24q-68 -55 -68 -229v-194q0 -20 7.5 -27t31.5 -7
q8 0 18.5 1t13.5 1q11 0 11 -10t-11 -10q-3 0 -13.5 1t-18.5 1q-13 0 -40 1t-42 1z" />
    <glyph glyph-name="Omacron" unicode="&#x14c;" horiz-adv-x="749" 
d="M53 347q0 53 9 102t32 97.5t58.5 84t92.5 57.5t129 22q86 0 150.5 -30t100.5 -82.5t53.5 -114.5t17.5 -134q0 -52 -9 -100.5t-32 -97.5t-58.5 -84.5t-92.5 -57.5t-130 -22q-69 0 -124.5 20t-92 54t-60.5 81t-34 98t-10 107zM374 689q-229 0 -229 -340q0 -341 229 -341
q69 0 116 28t70.5 78.5t33 106t9.5 125.5q0 343 -229 343zM490 745h-232q-13 0 -13 11q0 10 12 10h234q12 0 12 -10q0 -11 -13 -11z" />
    <glyph glyph-name="omacron" unicode="&#x14d;" horiz-adv-x="568" 
d="M48 258q0 120 57.5 194.5t178.5 74.5q120 0 178 -74.5t58 -194.5q0 -121 -58 -196t-178 -75q-121 0 -178.5 75t-57.5 196zM284 507q-148 0 -148 -249q0 -251 148 -251t148 251q0 249 -148 249zM400 581h-232q-13 0 -13 11q0 10 12 10h234q12 0 12 -10q0 -11 -13 -11z" />
    <glyph glyph-name="Obreve" unicode="&#x14e;" horiz-adv-x="749" 
d="M53 347q0 53 9 102t32 97.5t58.5 84t92.5 57.5t129 22q86 0 150.5 -30t100.5 -82.5t53.5 -114.5t17.5 -134q0 -52 -9 -100.5t-32 -97.5t-58.5 -84.5t-92.5 -57.5t-130 -22q-69 0 -124.5 20t-92 54t-60.5 81t-34 98t-10 107zM374 689q-229 0 -229 -340q0 -341 229 -341
q69 0 116 28t70.5 78.5t33 106t9.5 125.5q0 343 -229 343zM373 793q43 0 68.5 16t25.5 39q0 14 10 14q9 0 9 -16q0 -45 -31 -73.5t-82 -28.5q-53 0 -82.5 28.5t-29.5 74.5q0 15 10 15q8 0 8 -14q1 -24 24.5 -39.5t69.5 -15.5z" />
    <glyph glyph-name="obreve" unicode="&#x14f;" horiz-adv-x="568" 
d="M48 258q0 120 57.5 194.5t178.5 74.5q120 0 178 -74.5t58 -194.5q0 -121 -58 -196t-178 -75q-121 0 -178.5 75t-57.5 196zM284 507q-148 0 -148 -249q0 -251 148 -251t148 251q0 249 -148 249zM284 629q43 0 68.5 16t25.5 39q0 14 10 14q9 0 9 -16q0 -45 -31 -73.5
t-82 -28.5q-53 0 -82.5 28.5t-29.5 74.5q0 15 10 15q8 0 8 -14q1 -24 24.5 -39.5t69.5 -15.5z" />
    <glyph glyph-name="Ohungarumlaut" unicode="&#x150;" horiz-adv-x="749" 
d="M53 347q0 53 9 102t32 97.5t58.5 84t92.5 57.5t129 22q86 0 150.5 -30t100.5 -82.5t53.5 -114.5t17.5 -134q0 -52 -9 -100.5t-32 -97.5t-58.5 -84.5t-92.5 -57.5t-130 -22q-69 0 -124.5 20t-92 54t-60.5 81t-34 98t-10 107zM374 689q-229 0 -229 -340q0 -341 229 -341
q69 0 116 28t70.5 78.5t33 106t9.5 125.5q0 343 -229 343zM460 848q7 -14 -1 -28t-36 -22l-129 -45q-16 -4 -19 2q-4 9 10 18l113 77q23 17 38 17q16 0 24 -19zM609 848q18 -35 -38 -51l-128 -44q-16 -4 -19 2q-4 9 10 18l114 78q20 16 36 16q17 0 25 -19z" />
    <glyph glyph-name="ohungarumlaut" unicode="&#x151;" horiz-adv-x="568" 
d="M48 258q0 120 57.5 194.5t178.5 74.5q120 0 178 -74.5t58 -194.5q0 -121 -58 -196t-178 -75q-121 0 -178.5 75t-57.5 196zM284 507q-148 0 -148 -249q0 -251 148 -251t148 251q0 249 -148 249zM369 684q7 -14 -1 -28t-36 -22l-129 -45q-16 -4 -19 2q-4 9 10 18l113 77
q23 17 38 17q16 0 24 -19zM518 684q18 -35 -38 -51l-128 -44q-16 -4 -19 2q-4 9 10 18l114 78q20 16 36 16q17 0 25 -19z" />
    <glyph glyph-name="OE" unicode="&#x152;" horiz-adv-x="1097" 
d="M53 347q0 53 9 102t32 97.5t58.5 84t92.5 57.5t129 22q150 0 235 -93v82h386q16 0 21 -5t6 -20l6 -87q1 -16 2.5 -28.5t1.5 -16.5q0 -15 -11 -15q-10 0 -11 13l-3 44q-4 53 -36 74t-117 21h-157v-325h120q32 0 49 18t17 46q0 7 -1 18.5t-1 14.5q0 11 12 11q10 0 10 -11
q0 -3 -0.5 -14.5t-0.5 -18.5q-2 -56 -2 -73q0 -16 1 -39t1 -37q0 -7 0.5 -18.5t0.5 -13.5q0 -12 -10 -12q-12 0 -12 12q0 2 1 13.5t1 18.5q0 30 -16.5 47.5t-49.5 17.5h-120v-314h178q77 0 112 23.5t39 71.5q2 17 3 31l1 13q1 13 10 13q11 0 11 -16q0 -3 -0.5 -7.5t-2 -14.5
t-2.5 -22l-8 -87q-1 -15 -6.5 -20t-21.5 -5h-401v80q-83 -93 -235 -93q-69 0 -124.5 20t-92 54t-60.5 81t-34 98t-10 107zM374 689q-229 0 -229 -340q0 -341 229 -341q69 0 116 28t70.5 78.5t33 106t9.5 125.5q0 343 -229 343z" />
    <glyph glyph-name="oe" unicode="&#x153;" horiz-adv-x="928" 
d="M48 258q0 120 57.5 194.5t178.5 74.5q144 0 202 -112q59 112 198 112q94 0 143.5 -38.5t49.5 -109.5q0 -160 -221 -160q-67 0 -116 9q5 -117 47.5 -164.5t123.5 -47.5q60 0 127 27q9 4 17 10t12 8q14 6 19 -1q6 -9 -8 -18q-5 -3 -16.5 -7.5t-18.5 -8.5q-66 -34 -145 -34
q-151 0 -211 108q-58 -113 -203 -113q-121 0 -178.5 75t-57.5 196zM284 507q-148 0 -148 -249q0 -251 148 -251t148 251q0 249 -148 249zM684 507q-144 0 -144 -250v-7q54 -10 115 -10q144 0 144 144q0 60 -29.5 91.5t-85.5 31.5z" />
    <glyph glyph-name="Racute" unicode="&#x154;" horiz-adv-x="687" 
d="M170 3q-38 0 -75.5 -2t-38.5 -2q-13 0 -13 10t12 10q2 0 12.5 -1t19.5 -1q24 0 31.5 7t7.5 27v600q0 20 -7.5 26.5t-31.5 6.5q-9 0 -19.5 -0.5t-12.5 -0.5q-12 0 -12 10t13 10q10 0 49.5 -1.5t62.5 -1.5q22 0 54 1.5t44 1.5h21q140 0 210.5 -49t70.5 -155
q0 -166 -185 -189q55 -14 90 -46.5t59 -86.5q49 -112 60 -129q21 -34 53 -34q15 0 42 16q10 6 15 -2q4 -8 -6 -15q-28 -19 -87 -19q-56 0 -90.5 34t-73.5 123q-33 74 -71 112.5t-106 41.5h-54v-254q0 -20 7.5 -27t31.5 -7q9 0 19.5 1t12.5 1q12 0 12 -10t-13 -10q-3 0 -38 2
t-76 2zM214 325h83q88 0 133.5 45.5t45.5 132.5q0 93 -46 136.5t-140 43.5h-46q-17 0 -23.5 -6.5t-6.5 -23.5v-328zM471 843q9 -17 -1 -32.5t-42 -23.5q-15 -6 -62 -20t-72 -25q-12 -6 -15 2q-2 7 8 14q12 8 109 77q32 24 51 24q17 0 24 -16z" />
    <glyph glyph-name="racute" unicode="&#x155;" horiz-adv-x="463" 
d="M345 434q0 23 15 38t34 15q12 0 22 -6q-19 27 -55 27q-51 0 -88 -44t-54 -107.5t-17 -134.5v-171q0 -20 7.5 -27t31.5 -7q9 0 19 1t12 1q12 0 12 -10t-12 -10q-2 0 -13 1t-18 1q-13 0 -40.5 1t-41.5 1t-41 -1t-40 -1q-8 0 -19 -1t-14 -1q-10 0 -10 10t10 10q4 0 14.5 -1
t18.5 -1q24 0 31.5 7t7.5 27v385q0 24 -8.5 32t-34.5 8q-5 0 -15 -1t-13 -1q-13 0 -13 10t13 10q4 0 14 -0.5t15 -0.5q66 0 100 23q14 11 19 11q8 0 8 -14v-151q4 19 10.5 37.5t20 42.5t29.5 42t42 30.5t56 12.5q42 0 64 -25.5t22 -65.5q0 -21 -15.5 -36.5t-36.5 -15.5
t-35 14t-14 36zM473 685q9 -17 -1 -32.5t-42 -23.5q-15 -6 -62 -20t-72 -25q-12 -6 -15 2q-2 7 8 14q12 8 109 77q32 24 51 24q17 0 24 -16z" />
    <glyph glyph-name="Rcommaaccent" unicode="&#x156;" horiz-adv-x="687" 
d="M170 3q-38 0 -75.5 -2t-38.5 -2q-13 0 -13 10t12 10q2 0 12.5 -1t19.5 -1q24 0 31.5 7t7.5 27v600q0 20 -7.5 26.5t-31.5 6.5q-9 0 -19.5 -0.5t-12.5 -0.5q-12 0 -12 10t13 10q10 0 49.5 -1.5t62.5 -1.5q22 0 54 1.5t44 1.5h21q140 0 210.5 -49t70.5 -155
q0 -166 -185 -189q55 -14 90 -46.5t59 -86.5q49 -112 60 -129q21 -34 53 -34q15 0 42 16q10 6 15 -2q4 -8 -6 -15q-28 -19 -87 -19q-56 0 -90.5 34t-73.5 123q-33 74 -71 112.5t-106 41.5h-54v-254q0 -20 7.5 -27t31.5 -7q9 0 19.5 1t12.5 1q12 0 12 -10t-13 -10q-3 0 -38 2
t-76 2zM214 325h83q88 0 133.5 45.5t45.5 132.5q0 93 -46 136.5t-140 43.5h-46q-17 0 -23.5 -6.5t-6.5 -23.5v-328zM308 -117q0 19 11 30.5t30 11.5q18 0 29.5 -12.5t11.5 -33.5q0 -35 -24 -70.5t-48 -53.5q-8 -9 -15 -2q-6 6 4 14q53 44 60 92q-9 -16 -27 -16
q-13 0 -22.5 11t-9.5 29z" />
    <glyph glyph-name="rcommaaccent" unicode="&#x157;" horiz-adv-x="463" 
d="M345 434q0 23 15 38t34 15q12 0 22 -6q-19 27 -55 27q-51 0 -88 -44t-54 -107.5t-17 -134.5v-171q0 -20 7.5 -27t31.5 -7q9 0 19 1t12 1q12 0 12 -10t-12 -10q-2 0 -13 1t-18 1q-13 0 -40.5 1t-41.5 1t-41 -1t-40 -1q-8 0 -19 -1t-14 -1q-10 0 -10 10t10 10q4 0 14.5 -1
t18.5 -1q24 0 31.5 7t7.5 27v385q0 24 -8.5 32t-34.5 8q-5 0 -15 -1t-13 -1q-13 0 -13 10t13 10q4 0 14 -0.5t15 -0.5q66 0 100 23q14 11 19 11q8 0 8 -14v-151q4 19 10.5 37.5t20 42.5t29.5 42t42 30.5t56 12.5q42 0 64 -25.5t22 -65.5q0 -21 -15.5 -36.5t-36.5 -15.5
t-35 14t-14 36zM204 -117q0 19 11 30.5t30 11.5q18 0 29.5 -12.5t11.5 -33.5q0 -35 -24 -70.5t-48 -53.5q-8 -9 -15 -2q-6 6 4 14q53 44 60 92q-9 -16 -27 -16q-13 0 -22.5 11t-9.5 29z" />
    <glyph glyph-name="Rcaron" unicode="&#x158;" horiz-adv-x="687" 
d="M170 3q-38 0 -75.5 -2t-38.5 -2q-13 0 -13 10t12 10q2 0 12.5 -1t19.5 -1q24 0 31.5 7t7.5 27v600q0 20 -7.5 26.5t-31.5 6.5q-9 0 -19.5 -0.5t-12.5 -0.5q-12 0 -12 10t13 10q10 0 49.5 -1.5t62.5 -1.5q22 0 54 1.5t44 1.5h21q140 0 210.5 -49t70.5 -155
q0 -166 -185 -189q55 -14 90 -46.5t59 -86.5q49 -112 60 -129q21 -34 53 -34q15 0 42 16q10 6 15 -2q4 -8 -6 -15q-28 -19 -87 -19q-56 0 -90.5 34t-73.5 123q-33 74 -71 112.5t-106 41.5h-54v-254q0 -20 7.5 -27t31.5 -7q9 0 19.5 1t12.5 1q12 0 12 -10t-13 -10q-3 0 -38 2
t-76 2zM214 325h83q88 0 133.5 45.5t45.5 132.5q0 93 -46 136.5t-140 43.5h-46q-17 0 -23.5 -6.5t-6.5 -23.5v-328zM318 737q-16 0 -21 2t-15 12l-105 106q-9 9 -6 14q5 5 15 -3l132 -81l131 81q10 8 15 3q4 -5 -5 -14l-106 -106q-9 -10 -14 -12t-21 -2z" />
    <glyph glyph-name="rcaron" unicode="&#x159;" horiz-adv-x="463" 
d="M345 434q0 23 15 38t34 15q12 0 22 -6q-19 27 -55 27q-51 0 -88 -44t-54 -107.5t-17 -134.5v-171q0 -20 7.5 -27t31.5 -7q9 0 19 1t12 1q12 0 12 -10t-12 -10q-2 0 -13 1t-18 1q-13 0 -40.5 1t-41.5 1t-41 -1t-40 -1q-8 0 -19 -1t-14 -1q-10 0 -10 10t10 10q4 0 14.5 -1
t18.5 -1q24 0 31.5 7t7.5 27v385q0 24 -8.5 32t-34.5 8q-5 0 -15 -1t-13 -1q-13 0 -13 10t13 10q4 0 14 -0.5t15 -0.5q66 0 100 23q14 11 19 11q8 0 8 -14v-151q4 19 10.5 37.5t20 42.5t29.5 42t42 30.5t56 12.5q42 0 64 -25.5t22 -65.5q0 -21 -15.5 -36.5t-36.5 -15.5
t-35 14t-14 36zM320 580q-16 0 -21 2t-15 12l-105 106q-9 9 -6 14q4 5 15 -3l132 -81l131 81q10 8 15 3q4 -5 -5 -14l-106 -106q-9 -10 -14 -12t-21 -2z" />
    <glyph glyph-name="Sacute" unicode="&#x15a;" horiz-adv-x="544" 
d="M439 150q0 54 -38 91.5t-92 61t-107.5 49t-91.5 70.5t-38 110q0 88 54 133t142 45q77 0 134 -37q24 -16 28 -16q8 0 6 31q0 16 11 16q8 0 9 -11v-14.5t1 -19.5l5 -101q1 -14 2 -23t2 -14t1 -8q0 -15 -10 -15q-9 0 -9 11l-3 30q-6 76 -57 111.5t-118 35.5
q-148 0 -148 -121q0 -49 38 -83t92 -57t107.5 -49t91.5 -75.5t38 -120.5q0 -93 -58 -140.5t-156 -47.5q-87 0 -148 37q-27 17 -33 17q-9 0 -9 -26q0 -12 -8 -12t-10 23l-5 106q-1 24 -3.5 41t-2.5 21q0 14 9 14q10 0 13 -27q4 -61 37.5 -101.5t74 -55t86.5 -14.5
q72 0 117.5 34t45.5 101zM425 849q9 -17 -1 -32.5t-42 -23.5q-15 -6 -62 -20t-72 -25q-12 -6 -15 2q-2 7 8 14q12 8 109 77q32 24 51 24q17 0 24 -16z" />
    <glyph glyph-name="sacute" unicode="&#x15b;" horiz-adv-x="475" 
d="M241 15q64 0 99 27t35 75q0 45 -32.5 70.5t-78.5 37t-92 24.5t-78.5 45t-32.5 87q0 70 44.5 108t127.5 38q62 0 108 -27q27 -14 29 -14q3 0 4.5 1t1.5 4v5.5v8.5v10q2 15 11 15q10 0 10 -17v-57l2 -34l2 -26t2 -21t1 -11q0 -16 -10 -16t-10 16q0 13 -1 26q-4 53 -44 84.5
t-107 31.5q-60 0 -90.5 -25t-30.5 -65q0 -34 23.5 -55.5t58.5 -30.5t75.5 -21.5t75.5 -27t58.5 -49t23.5 -86.5q0 -153 -185 -153q-67 0 -129 40q-14 11 -25 11q-3 0 -4.5 -1.5t-2 -4.5t-0.5 -6v-8v-8q0 -16 -10 -16q-9 0 -9 15q0 1 0.5 5.5t0.5 11v13.5q0 13 -2 37l-1 23
q-1 18 -3 35t-3 26.5t-1 13.5q0 17 11 17q9 0 9 -16q0 -7 1.5 -17.5t1.5 -13.5q4 -60 49 -97.5t117 -37.5zM388 685q9 -17 -1 -32.5t-42 -23.5q-15 -6 -62 -20t-72 -25q-12 -6 -15 2q-2 7 8 14q12 8 109 77q31 24 51 24q17 0 24 -16z" />
    <glyph glyph-name="Scircumflex" unicode="&#x15c;" horiz-adv-x="544" 
d="M439 150q0 54 -38 91.5t-92 61t-107.5 49t-91.5 70.5t-38 110q0 88 54 133t142 45q77 0 134 -37q24 -16 28 -16q8 0 6 31q0 16 11 16q8 0 9 -11v-14.5t1 -19.5l5 -101q1 -14 2 -23t2 -14t1 -8q0 -15 -10 -15q-9 0 -9 11l-3 30q-6 76 -57 111.5t-118 35.5
q-148 0 -148 -121q0 -49 38 -83t92 -57t107.5 -49t91.5 -75.5t38 -120.5q0 -93 -58 -140.5t-156 -47.5q-87 0 -148 37q-27 17 -33 17q-9 0 -9 -26q0 -12 -8 -12t-10 23l-5 106q-1 24 -3.5 41t-2.5 21q0 14 9 14q10 0 13 -27q4 -61 37.5 -101.5t74 -55t86.5 -14.5
q72 0 117.5 34t45.5 101zM272 877q17 0 22 -2t13 -11l94 -107q10 -9 5 -12q-6 -6 -15 1l-119 82l-119 -82q-10 -7 -16 -1q-4 4 5 12l94 107q8 9 13 11t23 2z" />
    <glyph glyph-name="scircumflex" unicode="&#x15d;" horiz-adv-x="475" 
d="M241 15q64 0 99 27t35 75q0 45 -32.5 70.5t-78.5 37t-92 24.5t-78.5 45t-32.5 87q0 70 44.5 108t127.5 38q62 0 108 -27q27 -14 29 -14q3 0 4.5 1t1.5 4v5.5v8.5v10q2 15 11 15q10 0 10 -17v-57l2 -34l2 -26t2 -21t1 -11q0 -16 -10 -16t-10 16q0 13 -1 26q-4 53 -44 84.5
t-107 31.5q-60 0 -90.5 -25t-30.5 -65q0 -34 23.5 -55.5t58.5 -30.5t75.5 -21.5t75.5 -27t58.5 -49t23.5 -86.5q0 -153 -185 -153q-67 0 -129 40q-14 11 -25 11q-3 0 -4.5 -1.5t-2 -4.5t-0.5 -6v-8v-8q0 -16 -10 -16q-9 0 -9 15q0 1 0.5 5.5t0.5 11v13.5q0 13 -2 37l-1 23
q-1 18 -3 35t-3 26.5t-1 13.5q0 17 11 17q9 0 9 -16q0 -7 1.5 -17.5t1.5 -13.5q4 -60 49 -97.5t117 -37.5zM236 713q17 0 22 -2t13 -11l94 -107q10 -9 5 -12q-6 -6 -15 1l-119 82l-119 -82q-10 -7 -16 -1q-4 4 5 12l94 107q8 9 13 11t23 2z" />
    <glyph glyph-name="Scedilla" unicode="&#x15e;" horiz-adv-x="544" 
d="M225 -56l23 49q-74 7 -121 36q-27 17 -33 17q-9 0 -9 -26q0 -12 -8 -12t-10 23l-5 106q-1 24 -3.5 41t-2.5 21q0 14 9 14q10 0 13 -27q4 -61 37.5 -101.5t74 -55t86.5 -14.5q72 0 117.5 34t45.5 101q0 54 -38 91.5t-92 61t-107.5 49t-91.5 70.5t-38 110q0 88 54 133
t142 45q77 0 134 -37q24 -16 28 -16q8 0 6 31q0 16 11 16q8 0 9 -11v-14.5t1 -19.5l5 -101q1 -14 2 -23t2 -14t1 -8q0 -15 -10 -15q-9 0 -9 11l-3 30q-6 76 -57 111.5t-118 35.5q-148 0 -148 -121q0 -49 38 -83t92 -57t107.5 -49t91.5 -75.5t38 -120.5q0 -93 -58 -140.5
t-156 -47.5h-8l-18 -40q118 0 118 -75t-113 -75q-38 0 -70 14q-9 4 -5 12q3 7 13 3l20 -7q13 -4 36 -4q60 0 60 58q0 54 -76 54q-13 0 -7 12z" />
    <glyph glyph-name="scedilla" unicode="&#x15f;" horiz-adv-x="475" 
d="M186 -56l24 51q-49 6 -98 38q-14 11 -25 11q-3 0 -4.5 -1.5t-2 -4.5t-0.5 -6v-8v-8q0 -16 -10 -16q-9 0 -9 15q0 1 0.5 5.5t0.5 11v13.5q0 13 -2 37l-1 23q-1 18 -3 35t-3 26.5t-1 13.5q0 17 11 17q9 0 9 -16q0 -7 1.5 -17.5t1.5 -13.5q4 -60 49 -97.5t117 -37.5
q64 0 99 27t35 75q0 45 -32.5 70.5t-78.5 37t-92 24.5t-78.5 45t-32.5 87q0 70 44.5 108t127.5 38q62 0 108 -27q27 -14 29 -14q3 0 4.5 1t1.5 4v5.5v8.5v10q2 15 11 15q10 0 10 -17v-57l2 -34l2 -26t2 -21t1 -11q0 -16 -10 -16t-10 16q0 13 -1 26q-4 53 -44 84.5t-107 31.5
q-60 0 -90.5 -25t-30.5 -65q0 -34 23.5 -55.5t58.5 -30.5t75.5 -21.5t75.5 -27t58.5 -49t23.5 -86.5q0 -153 -185 -153h-12l-19 -41q118 0 118 -75t-113 -75q-38 0 -70 14q-9 4 -5 12q3 7 13 3l20 -7q13 -4 36 -4q60 0 60 58q0 54 -76 54q-13 0 -7 12z" />
    <glyph glyph-name="Scaron" unicode="&#x160;" horiz-adv-x="544" 
d="M439 150q0 54 -38 91.5t-92 61t-107.5 49t-91.5 70.5t-38 110q0 88 54 133t142 45q77 0 134 -37q24 -16 28 -16q8 0 6 31q0 16 11 16q8 0 9 -11v-14.5t1 -19.5l5 -101q1 -14 2 -23t2 -14t1 -8q0 -15 -10 -15q-9 0 -9 11l-3 30q-6 76 -57 111.5t-118 35.5
q-148 0 -148 -121q0 -49 38 -83t92 -57t107.5 -49t91.5 -75.5t38 -120.5q0 -93 -58 -140.5t-156 -47.5q-87 0 -148 37q-27 17 -33 17q-9 0 -9 -26q0 -12 -8 -12t-10 23l-5 106q-1 24 -3.5 41t-2.5 21q0 14 9 14q10 0 13 -27q4 -61 37.5 -101.5t74 -55t86.5 -14.5
q72 0 117.5 34t45.5 101zM272 743q-16 0 -21 2t-15 12l-105 106q-9 9 -6 14q5 5 15 -3l132 -81l131 81q10 8 15 3q4 -5 -5 -14l-106 -106q-9 -10 -14 -12t-21 -2z" />
    <glyph glyph-name="scaron" unicode="&#x161;" horiz-adv-x="475" 
d="M241 15q64 0 99 27t35 75q0 45 -32.5 70.5t-78.5 37t-92 24.5t-78.5 45t-32.5 87q0 70 44.5 108t127.5 38q62 0 108 -27q27 -14 29 -14q3 0 4.5 1t1.5 4v5.5v8.5v10q2 15 11 15q10 0 10 -17v-57l2 -34l2 -26t2 -21t1 -11q0 -16 -10 -16t-10 16q0 13 -1 26q-4 53 -44 84.5
t-107 31.5q-60 0 -90.5 -25t-30.5 -65q0 -34 23.5 -55.5t58.5 -30.5t75.5 -21.5t75.5 -27t58.5 -49t23.5 -86.5q0 -153 -185 -153q-67 0 -129 40q-14 11 -25 11q-3 0 -4.5 -1.5t-2 -4.5t-0.5 -6v-8v-8q0 -16 -10 -16q-9 0 -9 15q0 1 0.5 5.5t0.5 11v13.5q0 13 -2 37l-1 23
q-1 18 -3 35t-3 26.5t-1 13.5q0 17 11 17q9 0 9 -16q0 -7 1.5 -17.5t1.5 -13.5q4 -60 49 -97.5t117 -37.5zM235 580q-16 0 -21 2t-15 12l-105 106q-9 9 -6 14q4 5 15 -3l132 -81l131 81q10 8 15 3q4 -5 -5 -14l-106 -106q-9 -10 -14.5 -12t-20.5 -2z" />
    <glyph glyph-name="Tcommaaccent" unicode="&#x162;" horiz-adv-x="572" 
d="M513 703q16 0 21 -5t6 -20l6 -87q1 -17 2.5 -29.5t1.5 -15.5q0 -15 -9 -15q-10 0 -10 13l-3 44q-5 50 -31.5 71.5t-100.5 23.5h-66v-632q0 -20 8 -27t31 -7q8 0 18.5 1t14.5 1q11 0 11 -10t-11 -10q-3 0 -14 1t-19 1q-13 0 -41 1t-42 1t-42 -1t-41 -1q-8 0 -18.5 -1
t-13.5 -1q-11 0 -11 10t11 10q3 0 13.5 -1t18.5 -1q24 0 32 7t8 27v632h-51q-84 0 -114 -21t-35 -74q-1 -16 -1.5 -28t-0.5 -16q-1 -13 -10 -13t-9 15q0 4 1.5 16.5t2.5 28.5l6 87q1 15 5.5 20t21.5 5h454zM254 -117q0 19 11 30.5t30 11.5q18 0 29.5 -12.5t11.5 -33.5
q0 -35 -24 -70.5t-48 -53.5q-8 -9 -15 -2q-6 6 4 14q53 44 60 92q-9 -16 -27 -16q-13 0 -22.5 11t-9.5 29z" />
    <glyph glyph-name="tcommaaccent" unicode="&#x163;" horiz-adv-x="359" 
d="M37 507h67q24 0 43.5 49.5t19.5 92.5q0 16 11 16q10 0 10 -16v-142h132q9 0 9 -8v-7q0 -9 -9 -9h-132v-341q0 -67 18 -96.5t55 -29.5q43 0 66 20q3 2 8.5 8t8.5 8q11 10 16 2q8 -6 -4 -18q-8 -8 -19 -14q-40 -28 -91 -28q-142 0 -142 158v331h-67q-7 0 -9 2t-2 9v2
q0 11 11 11zM145 -117q0 19 11 30.5t30 11.5q18 0 29.5 -12.5t11.5 -33.5q0 -35 -24 -70.5t-48 -53.5q-9 -9 -15 -2q-6 6 4 14q53 44 60 92q-9 -16 -27 -16q-13 0 -22.5 11t-9.5 29z" />
    <glyph glyph-name="Tcaron" unicode="&#x164;" horiz-adv-x="572" 
d="M513 703q16 0 21 -5t6 -20l6 -87q1 -17 2.5 -29.5t1.5 -15.5q0 -15 -9 -15q-10 0 -10 13l-3 44q-5 50 -31.5 71.5t-100.5 23.5h-66v-632q0 -20 8 -27t31 -7q8 0 18.5 1t14.5 1q11 0 11 -10t-11 -10q-3 0 -14 1t-19 1q-13 0 -41 1t-42 1t-42 -1t-41 -1q-8 0 -18.5 -1
t-13.5 -1q-11 0 -11 10t11 10q3 0 13.5 -1t18.5 -1q24 0 32 7t8 27v632h-51q-84 0 -114 -21t-35 -74q-1 -16 -1.5 -28t-0.5 -16q-1 -13 -10 -13t-9 15q0 4 1.5 16.5t2.5 28.5l6 87q1 15 5.5 20t21.5 5h454zM265 733q-16 0 -21 2t-15 12l-105 106q-9 9 -6 14q4 5 15 -3
l132 -81l131 81q10 8 15 3q4 -5 -5 -14l-106 -106q-9 -10 -14.5 -12t-20.5 -2z" />
    <glyph glyph-name="tcaron" unicode="&#x165;" horiz-adv-x="359" 
d="M37 507h67q24 0 43.5 49.5t19.5 92.5q0 16 11 16q10 0 10 -16v-142h132q9 0 9 -8v-7q0 -9 -9 -9h-132v-341q0 -67 18 -96.5t55 -29.5q43 0 66 20q3 2 8.5 8t8.5 8q11 10 16 2q8 -6 -4 -18q-8 -8 -19 -14q-40 -28 -91 -28q-142 0 -142 158v331h-67q-7 0 -9 2t-2 9v2
q0 11 11 11zM256 684q0 23 12.5 36.5t34.5 13.5q21 0 34 -15t13 -38q0 -39 -26 -78t-53 -60q-11 -8 -17 -2q-5 6 6 16q21 17 40.5 45t24.5 56q-11 -20 -33 -20q-15 0 -25.5 13t-10.5 33z" />
    <glyph glyph-name="Tbar" unicode="&#x166;" horiz-adv-x="576" 
d="M418 351h-86v-300q0 -20 8 -27t31 -7q8 0 18.5 1t14.5 1q11 0 11 -10t-11 -10q-3 0 -14 1t-19 1q-13 0 -41 1t-42 1t-41.5 -1t-41.5 -1q-8 0 -18.5 -1t-13.5 -1q-11 0 -11 10t11 10q3 0 13.5 -1t18.5 -1q24 0 32 7t8 27v300h-94q-15 0 -15 11q0 10 14 10h95v311h-51
q-84 0 -114 -21t-35 -74q-1 -16 -1.5 -28t-0.5 -16q-1 -13 -10 -13t-9 15q0 4 1.5 16.5t2.5 28.5l6 87q1 15 5.5 20t21.5 5h454q16 0 21 -5t6 -20l6 -87q1 -17 2.5 -29.5t1.5 -15.5q0 -15 -9 -15q-10 0 -10 13l-3 44q-5 50 -31.5 71.5t-100.5 23.5h-66v-311h87q14 0 14 -10
q0 -11 -15 -11z" />
    <glyph glyph-name="tbar" unicode="&#x167;" horiz-adv-x="359" 
d="M37 507h67q24 0 43.5 49.5t19.5 92.5q0 16 11 16q10 0 10 -16v-142h132q9 0 9 -8v-7q0 -9 -9 -9h-132v-86h129q10 0 10 -8v-7q0 -9 -9 -9h-130v-231q0 -67 18 -96.5t55 -29.5q43 0 66 20q3 2 8.5 8t8.5 8q11 10 16 2q8 -6 -4 -18q-8 -8 -19 -14q-40 -28 -91 -28
q-142 0 -142 158v221h-69q-7 0 -9 2t-2 8v2q0 12 11 12h69v86h-67q-7 0 -9 2t-2 9v2q0 11 11 11z" />
    <glyph glyph-name="Utilde" unicode="&#x168;" 
d="M606 695q9 0 25.5 1t26.5 1q8 0 19 1t14 1q11 0 11 -10t-11 -10q-3 0 -13.5 1t-19.5 1q-23 0 -31 -7t-8 -27v-389q0 -137 -61.5 -204t-190.5 -67q-131 0 -193 68.5t-62 204.5v387q0 20 -7.5 27t-30.5 7q-9 0 -19.5 -1t-13.5 -1q-11 0 -11 10t11 10q2 0 13.5 -1t19.5 -1
q13 0 40.5 -1t42.5 -1q14 0 41.5 1t41.5 1q7 0 18 1t14 1q11 0 11 -10t-11 -10q-3 0 -13.5 1t-18.5 1q-24 0 -32 -7t-8 -27v-386q0 -124 42.5 -185.5t144.5 -61.5q207 0 207 244v389q0 20 -8 27t-31 7q-8 0 -18.5 -1t-14.5 -1q-10 0 -10 10t10 10q3 0 14 -1t19 -1q9 0 26 -1
t25 -1zM461 785q31 0 31 43q0 12 9 12t9 -16q0 -84 -60 -84q-31 0 -76 27.5t-60 27.5q-26 0 -26 -44q0 -11 -11 -11q-8 0 -8 19q0 81 60 81q27 0 71 -27.5t61 -27.5z" />
    <glyph glyph-name="utilde" unicode="&#x169;" horiz-adv-x="633" 
d="M293 13q68 0 104.5 47.5t36.5 136.5v239q0 23 -8.5 31t-34.5 8q-5 0 -15 -0.5t-13 -0.5q-13 0 -13 9q0 10 13 10q4 0 14 -0.5t15 -0.5q64 0 99 23q12 11 20 11q7 0 7 -13v-433q0 -34 12 -48.5t37 -14.5q10 0 21 1t15 1q13 0 13 -10t-13 -10q-6 0 -31 0.5t-43 0.5
q-50 0 -72 19.5t-23 61.5q-25 -47 -62 -69.5t-103 -22.5q-82 0 -123 40.5t-41 135.5v271q0 23 -8.5 31t-34.5 8q-5 0 -15.5 -0.5t-13.5 -0.5q-12 0 -12 9q0 10 12 10q5 0 15 -0.5t14 -0.5q66 0 100 23q12 11 20 11q6 0 6 -13v-355q0 -74 24.5 -109.5t80.5 -35.5zM383 631
q31 0 31 43q0 12 9 12t9 -16q0 -84 -60 -84q-31 0 -76 27.5t-60 27.5q-26 0 -26 -44q0 -11 -11 -11q-8 0 -8 19q0 81 60 81q27 0 71 -27.5t61 -27.5z" />
    <glyph glyph-name="Umacron" unicode="&#x16a;" 
d="M606 695q9 0 25.5 1t26.5 1q8 0 19 1t14 1q11 0 11 -10t-11 -10q-3 0 -13.5 1t-19.5 1q-23 0 -31 -7t-8 -27v-389q0 -137 -61.5 -204t-190.5 -67q-131 0 -193 68.5t-62 204.5v387q0 20 -7.5 27t-30.5 7q-9 0 -19.5 -1t-13.5 -1q-11 0 -11 10t11 10q2 0 13.5 -1t19.5 -1
q13 0 40.5 -1t42.5 -1q14 0 41.5 1t41.5 1q7 0 18 1t14 1q11 0 11 -10t-11 -10q-3 0 -13.5 1t-18.5 1q-24 0 -32 -7t-8 -27v-386q0 -124 42.5 -185.5t144.5 -61.5q207 0 207 244v389q0 20 -8 27t-31 7q-8 0 -18.5 -1t-14.5 -1q-10 0 -10 10t10 10q3 0 14 -1t19 -1q9 0 26 -1
t25 -1zM508 734h-232q-13 0 -13 11q0 10 12 10h234q12 0 12 -10q0 -11 -13 -11z" />
    <glyph glyph-name="umacron" unicode="&#x16b;" horiz-adv-x="633" 
d="M293 13q68 0 104.5 47.5t36.5 136.5v239q0 23 -8.5 31t-34.5 8q-5 0 -15 -0.5t-13 -0.5q-13 0 -13 9q0 10 13 10q4 0 14 -0.5t15 -0.5q64 0 99 23q12 11 20 11q7 0 7 -13v-433q0 -34 12 -48.5t37 -14.5q10 0 21 1t15 1q13 0 13 -10t-13 -10q-6 0 -31 0.5t-43 0.5
q-50 0 -72 19.5t-23 61.5q-25 -47 -62 -69.5t-103 -22.5q-82 0 -123 40.5t-41 135.5v271q0 23 -8.5 31t-34.5 8q-5 0 -15.5 -0.5t-13.5 -0.5q-12 0 -12 9q0 10 12 10q5 0 15 -0.5t14 -0.5q66 0 100 23q12 11 20 11q6 0 6 -13v-355q0 -74 24.5 -109.5t80.5 -35.5zM429 580
h-232q-13 0 -13 11q0 10 12 10h234q12 0 12 -10q0 -11 -13 -11z" />
    <glyph glyph-name="Ubreve" unicode="&#x16c;" 
d="M606 695q9 0 25.5 1t26.5 1q8 0 19 1t14 1q11 0 11 -10t-11 -10q-3 0 -13.5 1t-19.5 1q-23 0 -31 -7t-8 -27v-389q0 -137 -61.5 -204t-190.5 -67q-131 0 -193 68.5t-62 204.5v387q0 20 -7.5 27t-30.5 7q-9 0 -19.5 -1t-13.5 -1q-11 0 -11 10t11 10q2 0 13.5 -1t19.5 -1
q13 0 40.5 -1t42.5 -1q14 0 41.5 1t41.5 1q7 0 18 1t14 1q11 0 11 -10t-11 -10q-3 0 -13.5 1t-18.5 1q-24 0 -32 -7t-8 -27v-386q0 -124 42.5 -185.5t144.5 -61.5q207 0 207 244v389q0 20 -8 27t-31 7q-8 0 -18.5 -1t-14.5 -1q-10 0 -10 10t10 10q3 0 14 -1t19 -1q9 0 26 -1
t25 -1zM392 782q43 0 68.5 16t25.5 39q0 14 10 14q9 0 9 -16q0 -45 -31 -73.5t-82 -28.5q-53 0 -82.5 28.5t-29.5 74.5q0 15 10 15q8 0 8 -14q1 -24 24.5 -39.5t69.5 -15.5z" />
    <glyph glyph-name="ubreve" unicode="&#x16d;" horiz-adv-x="633" 
d="M293 13q68 0 104.5 47.5t36.5 136.5v239q0 23 -8.5 31t-34.5 8q-5 0 -15 -0.5t-13 -0.5q-13 0 -13 9q0 10 13 10q4 0 14 -0.5t15 -0.5q64 0 99 23q12 11 20 11q7 0 7 -13v-433q0 -34 12 -48.5t37 -14.5q10 0 21 1t15 1q13 0 13 -10t-13 -10q-6 0 -31 0.5t-43 0.5
q-50 0 -72 19.5t-23 61.5q-25 -47 -62 -69.5t-103 -22.5q-82 0 -123 40.5t-41 135.5v271q0 23 -8.5 31t-34.5 8q-5 0 -15.5 -0.5t-13.5 -0.5q-12 0 -12 9q0 10 12 10q5 0 15 -0.5t14 -0.5q66 0 100 23q12 11 20 11q6 0 6 -13v-355q0 -74 24.5 -109.5t80.5 -35.5zM313 628
q43 0 68.5 16t25.5 39q0 14 10 14q9 0 9 -16q0 -45 -31 -73.5t-82 -28.5q-53 0 -82.5 28.5t-29.5 74.5q0 15 10 15q8 0 8 -14q1 -24 24.5 -39.5t69.5 -15.5z" />
    <glyph glyph-name="Uring" unicode="&#x16e;" 
d="M606 695q9 0 25.5 1t26.5 1q8 0 19 1t14 1q11 0 11 -10t-11 -10q-3 0 -13.5 1t-19.5 1q-23 0 -31 -7t-8 -27v-389q0 -137 -61.5 -204t-190.5 -67q-131 0 -193 68.5t-62 204.5v387q0 20 -7.5 27t-30.5 7q-9 0 -19.5 -1t-13.5 -1q-11 0 -11 10t11 10q2 0 13.5 -1t19.5 -1
q13 0 40.5 -1t42.5 -1q14 0 41.5 1t41.5 1q7 0 18 1t14 1q11 0 11 -10t-11 -10q-3 0 -13.5 1t-18.5 1q-24 0 -32 -7t-8 -27v-386q0 -124 42.5 -185.5t144.5 -61.5q207 0 207 244v389q0 20 -8 27t-31 7q-8 0 -18.5 -1t-14.5 -1q-10 0 -10 10t10 10q3 0 14 -1t19 -1q9 0 26 -1
t25 -1zM391 723q-51 0 -83 23.5t-32 61.5q0 37 32 60t83 23t83 -23t32 -60q0 -38 -32 -61.5t-83 -23.5zM391 737q25 0 40.5 18t15.5 53q0 34 -15.5 52t-40.5 18t-40.5 -18t-15.5 -52q0 -35 15.5 -53t40.5 -18z" />
    <glyph glyph-name="uring" unicode="&#x16f;" horiz-adv-x="633" 
d="M293 13q68 0 104.5 47.5t36.5 136.5v239q0 23 -8.5 31t-34.5 8q-5 0 -15 -0.5t-13 -0.5q-13 0 -13 9q0 10 13 10q4 0 14 -0.5t15 -0.5q64 0 99 23q12 11 20 11q7 0 7 -13v-433q0 -34 12 -48.5t37 -14.5q10 0 21 1t15 1q13 0 13 -10t-13 -10q-6 0 -31 0.5t-43 0.5
q-50 0 -72 19.5t-23 61.5q-25 -47 -62 -69.5t-103 -22.5q-82 0 -123 40.5t-41 135.5v271q0 23 -8.5 31t-34.5 8q-5 0 -15.5 -0.5t-13.5 -0.5q-12 0 -12 9q0 10 12 10q5 0 15 -0.5t14 -0.5q66 0 100 23q12 11 20 11q6 0 6 -13v-355q0 -74 24.5 -109.5t80.5 -35.5zM313 569
q-51 0 -83 23.5t-32 61.5q0 37 32 60t83 23t83 -23t32 -60q0 -38 -32 -61.5t-83 -23.5zM313 583q25 0 40.5 18t15.5 53q0 34 -15.5 52t-40.5 18t-40.5 -18t-15.5 -52q0 -35 15.5 -53t40.5 -18z" />
    <glyph glyph-name="Uhungarumlaut" unicode="&#x170;" 
d="M606 695q9 0 25.5 1t26.5 1q8 0 19 1t14 1q11 0 11 -10t-11 -10q-3 0 -13.5 1t-19.5 1q-23 0 -31 -7t-8 -27v-389q0 -137 -61.5 -204t-190.5 -67q-131 0 -193 68.5t-62 204.5v387q0 20 -7.5 27t-30.5 7q-9 0 -19.5 -1t-13.5 -1q-11 0 -11 10t11 10q2 0 13.5 -1t19.5 -1
q13 0 40.5 -1t42.5 -1q14 0 41.5 1t41.5 1q7 0 18 1t14 1q11 0 11 -10t-11 -10q-3 0 -13.5 1t-18.5 1q-24 0 -32 -7t-8 -27v-386q0 -124 42.5 -185.5t144.5 -61.5q207 0 207 244v389q0 20 -8 27t-31 7q-8 0 -18.5 -1t-14.5 -1q-10 0 -10 10t10 10q3 0 14 -1t19 -1q9 0 26 -1
t25 -1zM478 837q7 -14 -1 -28t-36 -22l-129 -45q-16 -4 -19 2q-4 9 10 18l113 77q23 17 38 17q16 0 24 -19zM627 837q18 -35 -38 -51l-128 -44q-16 -4 -19 2q-4 9 10 18l114 78q20 16 36 16q17 0 25 -19z" />
    <glyph glyph-name="uhungarumlaut" unicode="&#x171;" horiz-adv-x="633" 
d="M293 13q68 0 104.5 47.5t36.5 136.5v239q0 23 -8.5 31t-34.5 8q-5 0 -15 -0.5t-13 -0.5q-13 0 -13 9q0 10 13 10q4 0 14 -0.5t15 -0.5q64 0 99 23q12 11 20 11q7 0 7 -13v-433q0 -34 12 -48.5t37 -14.5q10 0 21 1t15 1q13 0 13 -10t-13 -10q-6 0 -31 0.5t-43 0.5
q-50 0 -72 19.5t-23 61.5q-25 -47 -62 -69.5t-103 -22.5q-82 0 -123 40.5t-41 135.5v271q0 23 -8.5 31t-34.5 8q-5 0 -15.5 -0.5t-13.5 -0.5q-12 0 -12 9q0 10 12 10q5 0 15 -0.5t14 -0.5q66 0 100 23q12 11 20 11q6 0 6 -13v-355q0 -74 24.5 -109.5t80.5 -35.5zM399 683
q7 -14 -1 -28t-36 -22l-129 -45q-16 -4 -19 2q-4 9 10 18l113 77q23 17 38 17q16 0 24 -19zM548 683q18 -35 -38 -51l-128 -44q-16 -4 -19 2q-4 9 10 18l114 78q20 16 36 16q17 0 25 -19z" />
    <glyph glyph-name="Uogonek" unicode="&#x172;" 
d="M606 695q9 0 25.5 1t26.5 1q8 0 19 1t14 1q11 0 11 -10t-11 -10q-3 0 -13.5 1t-19.5 1q-23 0 -31 -7t-8 -27v-389q0 -134 -58.5 -201t-181.5 -70q-39 -39 -39 -87q0 -25 12.5 -38t32.5 -13q31 0 58 17q13 10 18 2q6 -8 -11 -19q-33 -23 -80 -23q-41 0 -66.5 18t-25.5 52
q0 53 61 92q-227 13 -227 272v387q0 20 -7.5 27t-30.5 7q-9 0 -19.5 -1t-13.5 -1q-11 0 -11 10t11 10q2 0 13.5 -1t19.5 -1q13 0 40.5 -1t42.5 -1q14 0 41.5 1t41.5 1q7 0 18 1t14 1q11 0 11 -10t-11 -10q-3 0 -13.5 1t-18.5 1q-24 0 -32 -7t-8 -27v-386q0 -124 42.5 -185.5
t144.5 -61.5q207 0 207 244v389q0 20 -8 27t-31 7q-8 0 -18.5 -1t-14.5 -1q-10 0 -10 10t10 10q3 0 14 -1t19 -1q9 0 26 -1t25 -1z" />
    <glyph glyph-name="uogonek" unicode="&#x173;" horiz-adv-x="633" 
d="M293 13q68 0 104.5 47.5t36.5 136.5v239q0 23 -8.5 31t-34.5 8q-5 0 -15 -0.5t-13 -0.5q-13 0 -13 9q0 10 13 10q4 0 14 -0.5t15 -0.5q64 0 99 23q12 11 20 11q7 0 7 -13v-433q0 -34 12 -48.5t37 -14.5q10 0 21 1t15 1q13 0 13 -10t-13 -10q-6 0 -26 0.5t-34 0.5
q-23 -18 -38 -46t-15 -54q0 -25 12.5 -38t32.5 -13q31 0 58 17q13 10 18 2q6 -8 -11 -19q-33 -23 -80 -23q-41 0 -66.5 18t-25.5 52q0 63 84 104q-41 3 -59 22.5t-19 58.5q-25 -47 -62 -69.5t-103 -22.5q-82 0 -123 40.5t-41 135.5v271q0 23 -8.5 31t-34.5 8
q-5 0 -15.5 -0.5t-13.5 -0.5q-12 0 -12 9q0 10 12 10q5 0 15 -0.5t14 -0.5q66 0 100 23q12 11 20 11q6 0 6 -13v-355q0 -74 24.5 -109.5t80.5 -35.5z" />
    <glyph glyph-name="Wcircumflex" unicode="&#x174;" horiz-adv-x="947" 
d="M869 642l-190 -639q-4 -15 -10 -15h-1q-7 0 -12 15l-184 565l-181 -565q-5 -15 -12 -15h-2q-6 0 -11 15l-183 628q-9 32 -20.5 43t-30.5 11q-8 0 -16 -1t-14 -1q-14 0 -14 9q0 11 15 11t57 -2.5t64 -2.5q28 0 64 2.5t39 2.5q17 0 17 -11q0 -9 -14 -9q-3 0 -14 1t-22 1
q-27 0 -27 -20q0 -14 7 -36l135 -492l184 564q3 8 10 8h2q5 0 9 -8l180 -567l148 509q6 23 0.5 32.5t-25.5 9.5q-9 0 -20.5 -1t-15.5 -1q-14 0 -14 9q0 11 17 11q5 0 31 -2.5t48 -2.5q14 0 43.5 2.5t41.5 2.5q16 0 16 -11q0 -9 -13 -9q-6 0 -16 1t-17 1q-37 0 -49 -43z
M502 875q17 0 22 -2t13 -11l94 -107q10 -9 5 -12q-6 -6 -15 1l-119 82l-119 -82q-10 -7 -16 -1q-4 4 5 12l94 107q8 9 13 11t23 2z" />
    <glyph glyph-name="wcircumflex" unicode="&#x175;" horiz-adv-x="848" 
d="M249 -1l-164 456q-7 21 -14 27.5t-30 6.5q-9 0 -18 -1t-12 -1q-12 0 -12 11q0 9 12 9q3 0 12.5 -1t17.5 -1q13 0 37.5 -1t38.5 -1q13 0 44 1t44 1q7 0 17 1t13 1q11 0 11 -9q0 -11 -11 -11q-3 0 -12.5 1t-17.5 1q-44 0 -32 -34l118 -353l143 394q7 21 16 21q8 0 15 -21
l146 -390l123 349q7 18 -1.5 26t-33.5 8q-8 0 -17.5 -1t-12.5 -1q-11 0 -11 11q0 9 11 9q3 0 14 -1t19 -1t26 -1t29 -1q9 0 26 1t27 1q8 0 18 1t13 1q11 0 11 -9q0 -11 -11 -11q-4 0 -13 1t-18 1q-22 0 -32.5 -7.5t-17.5 -26.5l-163 -454q-5 -14 -13 -14q-9 0 -14 15
l-151 399l-143 -401q-5 -13 -13 -13q-9 0 -14 12zM450 706q17 0 22 -2t13 -11l94 -107q10 -9 5 -12q-6 -6 -15 1l-119 82l-119 -82q-10 -7 -16 -1q-4 4 5 12l94 107q8 9 13 11t23 2z" />
    <glyph glyph-name="Ycircumflex" unicode="&#x176;" horiz-adv-x="642" 
d="M325 3q-13 0 -41 -1t-42 -1q-8 0 -18.5 -1t-13.5 -1q-11 0 -11 10t11 10q3 0 13.5 -1t18.5 -1q24 0 32 7t8 27v231l-197 368q-9 17 -19.5 25t-17 9t-18.5 1q-6 0 -14 -1t-15 -1q-14 0 -14 9q0 11 14 11q15 0 60 -2t60 -2q34 0 71.5 2t40.5 2q16 0 16 -12q0 -8 -14 -8
q-3 0 -14 1t-23 1q-21 0 -22 -10t17 -46l160 -310l171 336q6 11 8 15.5t-1.5 9.5t-17.5 5q-8 0 -20.5 -1t-15.5 -1q-15 0 -15 8q0 12 17 12q3 0 21 -2t53 -2q15 0 38 2t39 2q14 0 14 -11q0 -9 -14 -9q-6 0 -14 1t-13 1q-22 0 -32.5 -6.5t-22.5 -28.5l-179 -349v-250
q0 -20 7.5 -27t31.5 -7q9 0 19 1t14 1q11 0 11 -10t-11 -10q-3 0 -14 1t-19 1q-13 0 -41 1t-42 1zM317 866q17 0 22 -2t13 -11l94 -107q10 -9 5 -12q-6 -6 -15 1l-119 82l-119 -82q-10 -7 -16 -1q-4 4 5 12l94 107q8 9 13 11t23 2z" />
    <glyph glyph-name="ycircumflex" unicode="&#x177;" horiz-adv-x="582" 
d="M494 454l-199 -520q-37 -95 -75.5 -135t-92.5 -40q-43 0 -69 24t-26 68v1q0 19 15 33.5t35 14.5t35 -13t15 -35t-15 -36t-35 -14q-6 0 -14 2q20 -26 60 -26q41 0 75.5 37t71.5 128l13 36l-195 469q-11 27 -20 35.5t-30 8.5q-9 0 -18 -1t-12 -1q-12 0 -12 10t12 10
q2 0 12 -1t18 -1q13 0 39 -1t40 -1t45.5 1t44.5 1q8 0 18 1t12 1q12 0 12 -10t-12 -10q-3 0 -12.5 1t-17.5 1q-24 0 -30 -7.5t2 -26.5l146 -369l140 369q7 19 -0.5 26.5t-31.5 7.5q-9 0 -18.5 -1t-12.5 -1q-11 0 -11 10t11 10q3 0 13 -1t18 -1q13 0 25.5 -1t26.5 -1t26.5 1
t25.5 1q8 0 18 1t13 1q11 0 11 -10t-11 -10q-4 0 -13 1t-18 1q-22 0 -30.5 -7.5t-17.5 -30.5zM289 697q17 0 22 -2t13 -11l94 -107q10 -9 5 -12q-6 -6 -15 1l-119 82l-119 -82q-10 -7 -16 -1q-4 4 5 12l94 107q8 9 13 11t23 2z" />
    <glyph glyph-name="Ydieresis" unicode="&#x178;" horiz-adv-x="642" 
d="M325 3q-13 0 -41 -1t-42 -1q-8 0 -18.5 -1t-13.5 -1q-11 0 -11 10t11 10q3 0 13.5 -1t18.5 -1q24 0 32 7t8 27v231l-197 368q-9 17 -19.5 25t-17 9t-18.5 1q-6 0 -14 -1t-15 -1q-14 0 -14 9q0 11 14 11q15 0 60 -2t60 -2q34 0 71.5 2t40.5 2q16 0 16 -12q0 -8 -14 -8
q-3 0 -14 1t-23 1q-21 0 -22 -10t17 -46l160 -310l171 336q6 11 8 15.5t-1.5 9.5t-17.5 5q-8 0 -20.5 -1t-15.5 -1q-15 0 -15 8q0 12 17 12q3 0 21 -2t53 -2q15 0 38 2t39 2q14 0 14 -11q0 -9 -14 -9q-6 0 -14 1t-13 1q-22 0 -32.5 -6.5t-22.5 -28.5l-179 -349v-250
q0 -20 7.5 -27t31.5 -7q9 0 19 1t14 1q11 0 11 -10t-11 -10q-3 0 -14 1t-19 1q-13 0 -41 1t-42 1zM193 792q0 22 14 36.5t34 14.5q19 0 32 -13t13 -35q0 -21 -14.5 -35.5t-33.5 -14.5q-20 0 -32.5 13t-12.5 34zM348 792q0 22 14.5 36.5t33.5 14.5q20 0 32.5 -12.5
t12.5 -35.5q0 -21 -14.5 -35.5t-34.5 -14.5q-19 0 -31.5 13t-12.5 34z" />
    <glyph glyph-name="Zacute" unicode="&#x179;" horiz-adv-x="590" 
d="M520 703q12 0 12 -9q0 -12 -7 -23l-388 -651h235q149 0 157 95q2 16 2.5 29t0.5 15q1 13 11 13q9 0 9 -16q0 -3 -0.5 -7.5t-2 -14.5t-2.5 -22l-7 -87q-2 -15 -7 -20t-22 -5h-461q-8 0 -10.5 2t-2.5 8q0 4 10 22l390 651h-210q-85 0 -118 -21.5t-38 -73.5q-2 -16 -2 -29
v-15q-1 -13 -11 -13q-9 0 -9 15q0 4 1.5 16.5t2.5 28.5l6 87q1 15 6 20t22 5h433zM432 838q9 -17 -1 -32.5t-42 -23.5q-15 -6 -62 -20t-72 -25q-12 -6 -15 2q-2 7 8 14q12 8 109 77q31 24 51 24q17 0 24 -16z" />
    <glyph glyph-name="zacute" unicode="&#x17a;" horiz-adv-x="517" 
d="M47 0q-10 0 -10 9q0 7 18 30l315 448h-127q-70 0 -113.5 -25t-49.5 -69v-16t-1 -13q-3 -14 -11 -14q-10 0 -9 16l4 34l9 82q2 15 6.5 20t20.5 5h352q13 0 13 -8q0 -7 -17 -32l-315 -448h4v1h147q76 0 120 29t51 67q1 6 1.5 10.5l1 9t0.5 7.5q1 15 11 15t9 -18
q-1 -4 -3 -15.5t-3 -18.5l-12 -81q-2 -15 -6.5 -20t-21.5 -5h-384zM406 669q9 -17 -1 -32.5t-42 -23.5q-15 -6 -62 -20t-72 -25q-12 -6 -15 2q-2 7 8 14q12 8 109 77q31 24 51 24q17 0 24 -16z" />
    <glyph glyph-name="Zdotaccent" unicode="&#x17b;" horiz-adv-x="590" 
d="M226 790q0 24 16.5 40.5t38.5 16.5t36.5 -14.5t14.5 -39.5q0 -24 -16 -39.5t-40 -15.5q-21 0 -35.5 14t-14.5 38zM520 703q12 0 12 -9q0 -12 -7 -23l-388 -651h235q149 0 157 95q2 16 2.5 29t0.5 15q1 13 11 13q9 0 9 -16q0 -3 -0.5 -7.5t-2 -14.5t-2.5 -22l-7 -87
q-2 -15 -7 -20t-22 -5h-461q-8 0 -10.5 2t-2.5 8q0 4 10 22l390 651h-210q-85 0 -118 -21.5t-38 -73.5q-2 -16 -2 -29v-15q-1 -13 -11 -13q-9 0 -9 15q0 4 1.5 16.5t2.5 28.5l6 87q1 15 6 20t22 5h433z" />
    <glyph glyph-name="zdotaccent" unicode="&#x17c;" horiz-adv-x="517" 
d="M201 620q0 25 16.5 41.5t38.5 16.5q21 0 36 -14.5t15 -39.5q0 -24 -16.5 -40t-39.5 -16q-21 0 -35.5 14t-14.5 38zM47 0q-10 0 -10 9q0 7 18 30l315 448h-127q-70 0 -113.5 -25t-49.5 -69v-16t-1 -13q-3 -14 -11 -14q-10 0 -9 16l4 34l9 82q2 15 6.5 20t20.5 5h352
q13 0 13 -8q0 -7 -17 -32l-315 -448h4v1h147q76 0 120 29t51 67q1 6 1.5 10.5l1 9t0.5 7.5q1 15 11 15t9 -18q-1 -4 -3 -15.5t-3 -18.5l-12 -81q-2 -15 -6.5 -20t-21.5 -5h-384z" />
    <glyph glyph-name="Zcaron" unicode="&#x17d;" horiz-adv-x="590" 
d="M520 703q12 0 12 -9q0 -12 -7 -23l-388 -651h235q149 0 157 95q2 16 2.5 29t0.5 15q1 13 11 13q9 0 9 -16q0 -3 -0.5 -7.5t-2 -14.5t-2.5 -22l-7 -87q-2 -15 -7 -20t-22 -5h-461q-8 0 -10.5 2t-2.5 8q0 4 10 22l390 651h-210q-85 0 -118 -21.5t-38 -73.5q-2 -16 -2 -29
v-15q-1 -13 -11 -13q-9 0 -9 15q0 4 1.5 16.5t2.5 28.5l6 87q1 15 6 20t22 5h433zM279 733q-16 0 -21 2t-15 12l-105 106q-9 9 -6 14q4 5 15 -3l132 -81l131 81q10 8 15 3q4 -5 -5 -14l-106 -106q-9 -10 -14.5 -12t-20.5 -2z" />
    <glyph glyph-name="zcaron" unicode="&#x17e;" horiz-adv-x="517" 
d="M47 0q-10 0 -10 9q0 7 18 30l315 448h-127q-70 0 -113.5 -25t-49.5 -69v-16t-1 -13q-3 -14 -11 -14q-10 0 -9 16l4 34l9 82q2 15 6.5 20t20.5 5h352q13 0 13 -8q0 -7 -17 -32l-315 -448h4v1h147q76 0 120 29t51 67q1 6 1.5 10.5l1 9t0.5 7.5q1 15 11 15t9 -18
q-1 -4 -3 -15.5t-3 -18.5l-12 -81q-2 -15 -6.5 -20t-21.5 -5h-384zM253 563q-16 0 -21 2t-15 12l-105 106q-9 9 -6 14q4 5 15 -3l132 -81l131 81q10 8 15 3q4 -5 -5 -14l-106 -106q-9 -10 -14.5 -12t-20.5 -2z" />
    <glyph glyph-name="florin" unicode="&#x192;" horiz-adv-x="538" 
d="M145 488h75v58q0 104 45 158t131 54q63 0 95 -28.5t32 -80.5v-1q0 -23 -16 -38.5t-36 -15.5q-21 0 -35 14t-14 36q0 24 15 39.5t36 15.5q9 0 21 -5q-21 45 -86 45q-52 0 -78 -44t-26 -143v-64h128q10 0 10 -8v-6q0 -10 -9 -10h-129v-427q0 -104 -44.5 -158t-130.5 -54
q-128 0 -128 109h4v7q0 23 15.5 38.5t36.5 15.5q19 0 34 -14t15 -37t-16 -38.5t-36 -15.5q-16 0 -29 8q20 -54 92 -54q103 0 103 186v434h-75q-7 0 -9 2t-2 9v2q0 11 11 11z" />
    <glyph glyph-name="AEacute" unicode="&#x1fc;" horiz-adv-x="897" 
d="M78 60l317 617q0 1 0.5 2.5t1.5 2.5q-6 2 -14 2q-9 0 -19.5 -0.5t-12.5 -0.5q-12 0 -12 10t13 10q8 0 32 -2t42 -2h368q16 0 21 -5t6 -20l5 -87q1 -16 2.5 -28.5t1.5 -16.5q0 -15 -10 -15t-11 13q0 4 -0.5 16t-1.5 28q-5 53 -37 74t-117 21h-156v-325h119q31 0 48.5 18.5
t17.5 45.5q0 7 -0.5 18.5t-0.5 14.5q0 11 11 11q10 0 10 -11q0 -3 -0.5 -14.5t-0.5 -18.5q0 -14 -1 -36t-1 -37q0 -16 1 -39t1 -37q0 -7 0.5 -18.5t0.5 -13.5q0 -12 -10 -12q-11 0 -11 12q0 2 0.5 13.5t0.5 18.5q0 30 -16.5 47.5t-49.5 17.5h-119v-314h177q77 0 112 23.5
t39 71.5q2 17 2.5 30t0.5 14q1 13 12 13q10 0 10 -16q0 -3 -0.5 -7.5t-2 -14.5t-2.5 -22l-8 -87q-1 -15 -6.5 -20t-20.5 -5h-370q-23 0 -58 -2t-44 -2q-12 0 -12 10t11 10q2 0 12.5 -1t19.5 -1q24 0 31.5 7t7.5 27v208h-199l-103 -202q-11 -22 -5.5 -29.5t28.5 -7.5
q12 -1 23.5 0.5t12.5 1.5q14 0 14 -9q0 -12 -15 -12q-5 0 -31.5 3t-53.5 3q-16 0 -40 -3t-39 -3t-15 12q0 9 15 9q5 0 13 -1.5t16 -0.5q30 0 49 43zM219 275h189v367zM604 830q9 -17 -1 -32.5t-42 -23.5q-15 -6 -62 -20t-72 -25q-12 -6 -15 2q-2 7 8 14q12 8 109 77
q31 24 51 24q17 0 24 -16z" />
    <glyph glyph-name="aeacute" unicode="&#x1fd;" horiz-adv-x="862" 
d="M618 527q93 0 143 -38.5t50 -109.5q0 -160 -221 -160q-69 0 -117 9q5 -117 48 -164.5t124 -47.5q64 0 126 27q9 3 17.5 9.5t12.5 8.5q14 7 18 -1q6 -11 -7 -18q-6 -4 -18.5 -9t-16.5 -7q-68 -34 -146 -34q-159 0 -216 118q-22 -51 -76.5 -83.5t-140.5 -32.5
q-74 0 -113 34.5t-39 99.5q0 88 70 124t211 36h46v32q0 100 -35 143.5t-105 43.5q-96 0 -127 -58q7 3 17 3q19 0 34 -14t15 -38q0 -22 -16 -38t-36 -16q-22 0 -35.5 14t-13.5 37q0 16 7 27q18 103 169 103q139 0 185 -93q61 93 186 93zM618 507q-145 0 -145 -250v-7
q56 -10 115 -10q145 0 145 144q0 60 -29.5 91.5t-85.5 31.5zM129 126q0 -108 89 -108q57 0 93 32q62 55 62 161v57h-46q-104 0 -151 -33t-47 -109zM591 670q9 -17 -1 -32.5t-42 -23.5q-15 -6 -62 -20t-72 -25q-12 -6 -15 2q-2 7 8 14q12 8 109 77q32 24 51 24q17 0 24 -16z
" />
    <glyph glyph-name="Oslashacute" unicode="&#x1fe;" horiz-adv-x="749" 
d="M53 347q0 53 9 102t32 97.5t58.5 84t92.5 57.5t129 22q71 0 129 -22l24 58q3 8 5 10.5t6 4.5t9 -1q11 -2 2 -23l-24 -58q88 -41 129.5 -130t41.5 -200q0 -52 -9 -100.5t-32 -97.5t-58.5 -84.5t-92.5 -57.5t-130 -22q-68 0 -128 21l-25 -62q-5 -11 -18 -8q-11 4 -4 19
l25 60q-88 42 -129.5 130.5t-41.5 199.5zM374 689q-229 0 -229 -340q0 -219 93 -297l253 607q-49 30 -117 30zM603 346q0 219 -93 298l-251 -607q46 -29 115 -29t116 28t70.5 78.5t33 106t9.5 125.5zM498 834q9 -17 -1 -32.5t-42 -23.5q-15 -6 -62 -20t-72 -25q-12 -6 -15 2
q-2 7 8 14q12 8 109 77q31 24 51 24q17 0 24 -16z" />
    <glyph glyph-name="oslashacute" unicode="&#x1ff;" horiz-adv-x="568" 
d="M48 258q0 120 57.5 194.5t178.5 74.5q53 0 92 -15l32 73q7 18 22 13q16 -4 9 -23l-33 -76q114 -63 114 -241q0 -121 -58 -196t-178 -75q-50 0 -95 15l-38 -88q-5 -12 -24 -6q-11 3 -5 18l39 89q-113 64 -113 243zM432 258q0 138 -45 198l-184 -422q31 -27 81 -27
q148 0 148 251zM284 507q-148 0 -148 -249q0 -137 44 -199l183 423q-33 25 -79 25zM440 704q9 -17 -1 -32.5t-42 -23.5q-15 -6 -62 -20t-72 -25q-12 -6 -15 2q-2 7 8 14q12 8 109 77q31 24 51 24q17 0 24 -16z" />
    <glyph glyph-name="Scommaaccent" unicode="&#x218;" horiz-adv-x="544" 
d="M439 150q0 54 -38 91.5t-92 61t-107.5 49t-91.5 70.5t-38 110q0 88 54 133t142 45q77 0 134 -37q24 -16 28 -16q8 0 6 31q0 16 11 16q8 0 9 -11v-14.5t1 -19.5l5 -101q1 -14 2 -23t2 -14t1 -8q0 -15 -10 -15q-9 0 -9 11l-3 30q-6 76 -57 111.5t-118 35.5
q-148 0 -148 -121q0 -49 38 -83t92 -57t107.5 -49t91.5 -75.5t38 -120.5q0 -93 -58 -140.5t-156 -47.5q-87 0 -148 37q-27 17 -33 17q-9 0 -9 -26q0 -12 -8 -12t-10 23l-5 106q-1 24 -3.5 41t-2.5 21q0 14 9 14q10 0 13 -27q4 -61 37.5 -101.5t74 -55t86.5 -14.5
q72 0 117.5 34t45.5 101zM233 -117q0 19 11 30.5t30 11.5q18 0 29.5 -12.5t11.5 -33.5q0 -35 -24 -70.5t-48 -53.5q-9 -9 -15 -2q-6 6 4 14q53 44 60 92q-9 -16 -27 -16q-13 0 -22.5 11t-9.5 29z" />
    <glyph glyph-name="scommaaccent" unicode="&#x219;" horiz-adv-x="475" 
d="M241 15q64 0 99 27t35 75q0 45 -32.5 70.5t-78.5 37t-92 24.5t-78.5 45t-32.5 87q0 70 44.5 108t127.5 38q62 0 108 -27q27 -14 29 -14q3 0 4.5 1t1.5 4v5.5v8.5v10q2 15 11 15q10 0 10 -17v-57l2 -34l2 -26t2 -21t1 -11q0 -16 -10 -16t-10 16q0 13 -1 26q-4 53 -44 84.5
t-107 31.5q-60 0 -90.5 -25t-30.5 -65q0 -34 23.5 -55.5t58.5 -30.5t75.5 -21.5t75.5 -27t58.5 -49t23.5 -86.5q0 -153 -185 -153q-67 0 -129 40q-14 11 -25 11q-3 0 -4.5 -1.5t-2 -4.5t-0.5 -6v-8v-8q0 -16 -10 -16q-9 0 -9 15q0 1 0.5 5.5t0.5 11v13.5q0 13 -2 37l-1 23
q-1 18 -3 35t-3 26.5t-1 13.5q0 17 11 17q9 0 9 -16q0 -7 1.5 -17.5t1.5 -13.5q4 -60 49 -97.5t117 -37.5zM198 -117q0 19 11 30.5t30 11.5q18 0 29.5 -12.5t11.5 -33.5q0 -35 -24 -70.5t-48 -53.5q-8 -9 -15 -2q-6 6 4 14q53 44 60 92q-9 -16 -27 -16q-13 0 -22.5 11
t-9.5 29z" />
    <glyph glyph-name="uni021A" unicode="&#x21a;" horiz-adv-x="572" 
d="M513 703q16 0 21 -5t6 -20l6 -87q1 -17 2.5 -29.5t1.5 -15.5q0 -15 -9 -15q-10 0 -10 13l-3 44q-5 50 -31.5 71.5t-100.5 23.5h-66v-632q0 -20 8 -27t31 -7q8 0 18.5 1t14.5 1q11 0 11 -10t-11 -10q-3 0 -14 1t-19 1q-13 0 -41 1t-42 1t-42 -1t-41 -1q-8 0 -18.5 -1
t-13.5 -1q-11 0 -11 10t11 10q3 0 13.5 -1t18.5 -1q24 0 32 7t8 27v632h-51q-84 0 -114 -21t-35 -74q-1 -16 -1.5 -28t-0.5 -16q-1 -13 -10 -13t-9 15q0 4 1.5 16.5t2.5 28.5l6 87q1 15 5.5 20t21.5 5h454zM244 -117q0 19 11 30.5t30 11.5q18 0 29.5 -12.5t11.5 -33.5
q0 -35 -24 -70.5t-48 -53.5q-8 -9 -15 -2q-6 6 4 14q53 44 60 92q-9 -16 -27 -16q-13 0 -22.5 11t-9.5 29z" />
    <glyph glyph-name="uni021B" unicode="&#x21b;" horiz-adv-x="359" 
d="M37 507h67q24 0 43.5 49.5t19.5 92.5q0 16 11 16q10 0 10 -16v-142h132q9 0 9 -8v-7q0 -9 -9 -9h-132v-341q0 -67 18 -96.5t55 -29.5q43 0 66 20q3 2 8.5 8t8.5 8q11 10 16 2q8 -6 -4 -18q-8 -8 -19 -14q-40 -28 -91 -28q-142 0 -142 158v331h-67q-7 0 -9 2t-2 9v2
q0 11 11 11zM149 -117q0 19 11 30.5t30 11.5q18 0 29.5 -12.5t11.5 -33.5q0 -35 -24 -70.5t-48 -53.5q-9 -9 -15 -2q-6 6 4 14q53 44 60 92q-9 -16 -27 -16q-13 0 -22.5 11t-9.5 29z" />
    <glyph glyph-name="dotlessj" unicode="&#x237;" horiz-adv-x="283" 
d="M110 19v418q0 24 -8.5 32t-34.5 8q-5 0 -15 -1t-13 -1q-13 0 -13 10t13 10q4 0 14 -0.5t15 -0.5q66 0 100 23q14 11 19 11q7 0 7 -14v-441q0 -191 -153 -291l-35 -22q-14 -6 -19 2q-4 10 7 17q1 1 13 7t23 14q46 34 63 78.5t17 140.5z" />
    <glyph glyph-name="apostrophemod" unicode="&#x2bc;" horiz-adv-x="229" 
d="M74 654q0 26 14.5 41.5t39.5 15.5q24 0 39 -17t15 -44q0 -45 -30 -89.5t-61 -67.5q-12 -10 -19 -3q-7 8 6 18q25 20 47 52t28 64q-12 -23 -38 -23q-17 0 -29 15t-12 38z" />
    <glyph glyph-name="circumflex" unicode="&#x2c6;" horiz-adv-x="354" 
d="M141 688q17 0 22 -2t13 -11l94 -107q10 -9 5 -12q-6 -6 -15 1l-119 82l-119 -82q-10 -7 -16 -1q-4 4 5 12l94 107q8 9 13 11t23 2z" />
    <glyph glyph-name="caron" unicode="&#x2c7;" horiz-adv-x="805" 
d="M141 544q-16 0 -21 2t-15 12l-105 106q-9 9 -6 14q5 4 15 -3l132 -81l131 81q10 8 15 3q4 -5 -5 -14l-106 -106q-9 -10 -14.5 -12t-20.5 -2z" />
    <glyph glyph-name="breve" unicode="&#x2d8;" horiz-adv-x="292" 
d="M133 601q43 0 68.5 16t25.5 39q0 14 10 14q9 0 9 -16q0 -45 -31 -73.5t-82 -28.5q-53 0 -82.5 28.5t-29.5 74.5q0 15 10 15q8 0 8 -14q1 -24 24.5 -39.5t69.5 -15.5z" />
    <glyph glyph-name="dotaccent" unicode="&#x2d9;" horiz-adv-x="235" 
d="M60 656q0 25 16.5 41.5t38.5 16.5t36.5 -15t14.5 -39t-16 -40t-40 -16q-21 0 -35.5 14.5t-14.5 37.5z" />
    <glyph glyph-name="ring" unicode="&#x2da;" horiz-adv-x="296" 
d="M148 531q-51 0 -83 23.5t-32 61.5q0 37 32 60t83 23t83 -23t32 -60q0 -38 -32 -61.5t-83 -23.5zM148 545q25 0 40.5 18t15.5 53q0 34 -15.5 52t-40.5 18t-40.5 -18t-15.5 -52q0 -35 15.5 -53t40.5 -18z" />
    <glyph glyph-name="ogonek" unicode="&#x2db;" horiz-adv-x="301" 
d="M157 8h27q-28 -16 -46.5 -47.5t-18.5 -60.5q0 -25 12.5 -38t32.5 -13q31 0 58 17q13 10 18 2q6 -8 -11 -19q-33 -23 -80 -23q-41 0 -66.5 18t-25.5 52q0 68 100 112z" />
    <glyph glyph-name="tilde" unicode="&#x2dc;" horiz-adv-x="341" 
d="M220 604q31 0 31 43q0 12 9 12t9 -16q0 -84 -60 -84q-31 0 -76 27.5t-60 27.5q-26 0 -26 -44q0 -11 -11 -11q-8 0 -8 19q0 81 60 81q27 0 71 -27.5t61 -27.5z" />
    <glyph glyph-name="hungarumlaut" unicode="&#x2dd;" horiz-adv-x="496" 
d="M240 654q7 -14 -1 -28t-36 -22l-129 -45q-16 -4 -19 2q-4 9 10 18l113 77q23 17 38 17q16 0 24 -19zM389 654q18 -35 -38 -51l-128 -44q-16 -4 -19 2q-4 9 10 18l114 78q20 16 36 16q17 0 25 -19z" />
    <glyph glyph-name="Wgrave" unicode="&#x1e80;" horiz-adv-x="947" 
d="M869 642l-190 -639q-4 -15 -10 -15h-1q-7 0 -12 15l-184 565l-181 -565q-5 -15 -12 -15h-2q-6 0 -11 15l-183 628q-9 32 -20.5 43t-30.5 11q-8 0 -16 -1t-14 -1q-14 0 -14 9q0 11 15 11t57 -2.5t64 -2.5q28 0 64 2.5t39 2.5q17 0 17 -11q0 -9 -14 -9q-3 0 -14 1t-22 1
q-27 0 -27 -20q0 -14 7 -36l135 -492l184 564q3 8 10 8h2q5 0 9 -8l180 -567l148 509q6 23 0.5 32.5t-25.5 9.5q-9 0 -20.5 -1t-15.5 -1q-14 0 -14 9q0 11 17 11q5 0 31 -2.5t48 -2.5q14 0 43.5 2.5t41.5 2.5q16 0 16 -11q0 -9 -13 -9q-6 0 -16 1t-17 1q-37 0 -49 -43z
M339 850q9 16 24 16q19 0 52 -24l108 -77q10 -7 8 -14q-1 -7 -15 -3q-24 9 -69.5 24t-64.5 22q-32 8 -41.5 23.5t-1.5 32.5z" />
    <glyph glyph-name="wgrave" unicode="&#x1e81;" horiz-adv-x="848" 
d="M249 -1l-164 456q-7 21 -14 27.5t-30 6.5q-9 0 -18 -1t-12 -1q-12 0 -12 11q0 9 12 9q3 0 12.5 -1t17.5 -1q13 0 37.5 -1t38.5 -1q13 0 44 1t44 1q7 0 17 1t13 1q11 0 11 -9q0 -11 -11 -11q-3 0 -12.5 1t-17.5 1q-44 0 -32 -34l118 -353l143 394q7 21 16 21q8 0 15 -21
l146 -390l123 349q7 18 -1.5 26t-33.5 8q-8 0 -17.5 -1t-12.5 -1q-11 0 -11 11q0 9 11 9q3 0 14 -1t19 -1t26 -1t29 -1q9 0 26 1t27 1q8 0 18 1t13 1q11 0 11 -9q0 -11 -11 -11q-4 0 -13 1t-18 1q-22 0 -32.5 -7.5t-17.5 -26.5l-163 -454q-5 -14 -13 -14q-9 0 -14 15
l-151 399l-143 -401q-5 -13 -13 -13q-9 0 -14 12zM286 681q9 16 24 16q19 0 52 -24l108 -77q10 -7 8 -14q-1 -7 -15 -3q-24 9 -69.5 24t-64.5 22q-32 8 -41.5 23.5t-1.5 32.5z" />
    <glyph glyph-name="Wacute" unicode="&#x1e82;" horiz-adv-x="947" 
d="M869 642l-190 -639q-4 -15 -10 -15h-1q-7 0 -12 15l-184 565l-181 -565q-5 -15 -12 -15h-2q-6 0 -11 15l-183 628q-9 32 -20.5 43t-30.5 11q-8 0 -16 -1t-14 -1q-14 0 -14 9q0 11 15 11t57 -2.5t64 -2.5q28 0 64 2.5t39 2.5q17 0 17 -11q0 -9 -14 -9q-3 0 -14 1t-22 1
q-27 0 -27 -20q0 -14 7 -36l135 -492l184 564q3 8 10 8h2q5 0 9 -8l180 -567l148 509q6 23 0.5 32.5t-25.5 9.5q-9 0 -20.5 -1t-15.5 -1q-14 0 -14 9q0 11 17 11q5 0 31 -2.5t48 -2.5q14 0 43.5 2.5t41.5 2.5q16 0 16 -11q0 -9 -13 -9q-6 0 -16 1t-17 1q-37 0 -49 -43z
M655 848q9 -17 -1 -32.5t-42 -23.5q-15 -6 -62 -20t-72 -25q-12 -6 -15 2q-2 7 8 14q12 8 109 77q32 24 51 24q17 0 24 -16z" />
    <glyph glyph-name="wacute" unicode="&#x1e83;" horiz-adv-x="848" 
d="M249 -1l-164 456q-7 21 -14 27.5t-30 6.5q-9 0 -18 -1t-12 -1q-12 0 -12 11q0 9 12 9q3 0 12.5 -1t17.5 -1q13 0 37.5 -1t38.5 -1q13 0 44 1t44 1q7 0 17 1t13 1q11 0 11 -9q0 -11 -11 -11q-3 0 -12.5 1t-17.5 1q-44 0 -32 -34l118 -353l143 394q7 21 16 21q8 0 15 -21
l146 -390l123 349q7 18 -1.5 26t-33.5 8q-8 0 -17.5 -1t-12.5 -1q-11 0 -11 11q0 9 11 9q3 0 14 -1t19 -1t26 -1t29 -1q9 0 26 1t27 1q8 0 18 1t13 1q11 0 11 -9q0 -11 -11 -11q-4 0 -13 1t-18 1q-22 0 -32.5 -7.5t-17.5 -26.5l-163 -454q-5 -14 -13 -14q-9 0 -14 15
l-151 399l-143 -401q-5 -13 -13 -13q-9 0 -14 12zM603 679q9 -17 -1 -32.5t-42 -23.5q-15 -6 -62 -20t-72 -25q-12 -6 -15 2q-2 7 8 14q12 8 109 77q32 24 51 24q17 0 24 -16z" />
    <glyph glyph-name="Wdieresis" unicode="&#x1e84;" horiz-adv-x="947" 
d="M869 642l-190 -639q-4 -15 -10 -15h-1q-7 0 -12 15l-184 565l-181 -565q-5 -15 -12 -15h-2q-6 0 -11 15l-183 628q-9 32 -20.5 43t-30.5 11q-8 0 -16 -1t-14 -1q-14 0 -14 9q0 11 15 11t57 -2.5t64 -2.5q28 0 64 2.5t39 2.5q17 0 17 -11q0 -9 -14 -9q-3 0 -14 1t-22 1
q-27 0 -27 -20q0 -14 7 -36l135 -492l184 564q3 8 10 8h2q5 0 9 -8l180 -567l148 509q6 23 0.5 32.5t-25.5 9.5q-9 0 -20.5 -1t-15.5 -1q-14 0 -14 9q0 11 17 11q5 0 31 -2.5t48 -2.5q14 0 43.5 2.5t41.5 2.5q16 0 16 -11q0 -9 -13 -9q-6 0 -16 1t-17 1q-37 0 -49 -43z
M378 801q0 22 14 36.5t34 14.5q19 0 32 -13t13 -35q0 -21 -14.5 -35.5t-33.5 -14.5q-20 0 -32.5 13t-12.5 34zM533 801q0 22 14.5 36.5t33.5 14.5t32 -13t13 -35q0 -21 -14.5 -35.5t-34.5 -14.5q-19 0 -31.5 13t-12.5 34z" />
    <glyph glyph-name="wdieresis" unicode="&#x1e85;" horiz-adv-x="848" 
d="M249 -1l-164 456q-7 21 -14 27.5t-30 6.5q-9 0 -18 -1t-12 -1q-12 0 -12 11q0 9 12 9q3 0 12.5 -1t17.5 -1q13 0 37.5 -1t38.5 -1q13 0 44 1t44 1q7 0 17 1t13 1q11 0 11 -9q0 -11 -11 -11q-3 0 -12.5 1t-17.5 1q-44 0 -32 -34l118 -353l143 394q7 21 16 21q8 0 15 -21
l146 -390l123 349q7 18 -1.5 26t-33.5 8q-8 0 -17.5 -1t-12.5 -1q-11 0 -11 11q0 9 11 9q3 0 14 -1t19 -1t26 -1t29 -1q9 0 26 1t27 1q8 0 18 1t13 1q11 0 11 -9q0 -11 -11 -11q-4 0 -13 1t-18 1q-22 0 -32.5 -7.5t-17.5 -26.5l-163 -454q-5 -14 -13 -14q-9 0 -14 15
l-151 399l-143 -401q-5 -13 -13 -13q-9 0 -14 12zM326 632q0 22 14 36.5t34 14.5q19 0 32 -13t13 -35q0 -21 -14.5 -35.5t-33.5 -14.5q-20 0 -32.5 13t-12.5 34zM481 632q0 22 14.5 36.5t33.5 14.5t32 -12.5t13 -35.5q0 -21 -14.5 -35.5t-34.5 -14.5q-19 0 -31.5 13
t-12.5 34z" />
    <glyph glyph-name="Ygrave" unicode="&#x1ef2;" horiz-adv-x="642" 
d="M325 3q-13 0 -41 -1t-42 -1q-8 0 -18.5 -1t-13.5 -1q-11 0 -11 10t11 10q3 0 13.5 -1t18.5 -1q24 0 32 7t8 27v231l-197 368q-9 17 -19.5 25t-17 9t-18.5 1q-6 0 -14 -1t-15 -1q-14 0 -14 9q0 11 14 11q15 0 60 -2t60 -2q34 0 71.5 2t40.5 2q16 0 16 -12q0 -8 -14 -8
q-3 0 -14 1t-23 1q-21 0 -22 -10t17 -46l160 -310l171 336q6 11 8 15.5t-1.5 9.5t-17.5 5q-8 0 -20.5 -1t-15.5 -1q-15 0 -15 8q0 12 17 12q3 0 21 -2t53 -2q15 0 38 2t39 2q14 0 14 -11q0 -9 -14 -9q-6 0 -14 1t-13 1q-22 0 -32.5 -6.5t-22.5 -28.5l-179 -349v-250
q0 -20 7.5 -27t31.5 -7q9 0 19 1t14 1q11 0 11 -10t-11 -10q-3 0 -14 1t-19 1q-13 0 -41 1t-42 1zM153 840q9 16 24 16q19 0 52 -24l108 -77q10 -7 8 -14q-1 -7 -15 -3q-24 9 -69.5 24t-64.5 22q-32 8 -41.5 23.5t-1.5 32.5z" />
    <glyph glyph-name="ygrave" unicode="&#x1ef3;" horiz-adv-x="582" 
d="M494 454l-199 -520q-37 -95 -75.5 -135t-92.5 -40q-43 0 -69 24t-26 68v1q0 19 15 33.5t35 14.5t35 -13t15 -35t-15 -36t-35 -14q-6 0 -14 2q20 -26 60 -26q41 0 75.5 37t71.5 128l13 36l-195 469q-11 27 -20 35.5t-30 8.5q-9 0 -18 -1t-12 -1q-12 0 -12 10t12 10
q2 0 12 -1t18 -1q13 0 39 -1t40 -1t45.5 1t44.5 1q8 0 18 1t12 1q12 0 12 -10t-12 -10q-3 0 -12.5 1t-17.5 1q-24 0 -30 -7.5t2 -26.5l146 -369l140 369q7 19 -0.5 26.5t-31.5 7.5q-9 0 -18.5 -1t-12.5 -1q-11 0 -11 10t11 10q3 0 13 -1t18 -1q13 0 25.5 -1t26.5 -1t26.5 1
t25.5 1q8 0 18 1t13 1q11 0 11 -10t-11 -10q-4 0 -13 1t-18 1q-22 0 -30.5 -7.5t-17.5 -30.5zM125 671q9 16 24 16q19 0 52 -24l108 -77q10 -7 8 -14q-1 -7 -15 -3q-24 9 -69.5 24t-64.5 22q-32 8 -41.5 23.5t-1.5 32.5z" />
    <glyph glyph-name="thinspace" unicode="&#x2009;" horiz-adv-x="200" 
 />
    <glyph glyph-name="endash" unicode="&#x2013;" horiz-adv-x="618" 
d="M531 294h-445q-19 0 -19 11q0 10 19 10h446q19 0 19 -10q0 -11 -20 -11z" />
    <glyph glyph-name="emdash" unicode="&#x2014;" horiz-adv-x="1084" 
d="M1004 293h-923q-13 0 -13 11t13 11h923q13 0 13 -12q0 -10 -13 -10z" />
    <glyph glyph-name="quoteleft" unicode="&#x2018;" horiz-adv-x="215" 
d="M156 542q0 -26 -14.5 -41.5t-39.5 -15.5q-24 0 -39 17t-15 44q0 45 30 89.5t61 67.5q12 10 19 3q7 -8 -6 -18q-25 -20 -47 -52t-28 -64q12 23 38 23q17 0 29 -15t12 -38z" />
    <glyph glyph-name="quoteright" unicode="&#x2019;" horiz-adv-x="218" 
d="M67 633q0 26 14.5 41.5t39.5 15.5q24 0 39 -17t15 -44q0 -45 -30 -89.5t-61 -67.5q-12 -10 -19 -3q-7 8 6 18q25 20 47 52t28 64q-12 -23 -38 -23q-17 0 -29 15t-12 38z" />
    <glyph glyph-name="quotesinglbase" unicode="&#x201a;" horiz-adv-x="216" 
d="M55 46q0 26 14.5 41.5t39.5 15.5q24 0 39 -17t15 -44q0 -45 -30 -89.5t-61 -67.5q-12 -10 -19 -3q-7 8 6 18q25 20 47 52t28 64q-12 -23 -38 -23q-17 0 -29 15t-12 38z" />
    </font>
</defs>
</svg>
