<?xml version="1.0" standalone="no"?>
<!DOCTYPE svg PUBLIC "-//W3C//DTD SVG 1.1//EN" "http://www.w3.org/Graphics/SVG/1.1/DTD/svg11.dtd" >
<svg xmlns="http://www.w3.org/2000/svg" xmlns:xlink="http://www.w3.org/1999/xlink" version="1.1">
<metadata>
Created by FontForge 20190801 at Sat Jul 21 02:10:04 2007
 By root
Copyright 2005, 2007 Adobe Systems Incorporated. All rights reserved.
</metadata>
<defs>
<font id="GaramondPremrPro-SmbdDisp" horiz-adv-x="527" >
  <font-face 
    font-family="Garamond Premiere Pro"
    font-weight="600"
    font-stretch="normal"
    units-per-em="1000"
    panose-1="2 2 6 2 6 5 6 2 4 3"
    ascent="725"
    descent="-275"
    x-height="365"
    cap-height="624"
    bbox="-148.897 -321 1387 846"
    underline-thickness="50"
    underline-position="-100"
    stemh="49"
    stemv="77"
    unicode-range="U+0020-FB06"
  />
<missing-glyph horiz-adv-x="500" 
d="M0 0v700h500v-700h-500zM250 395l170 255h-340zM280 350l170 -255v510zM80 50h340l-170 255zM50 605v-510l170 255z" />
    <glyph glyph-name="T_h" unicode="Th" horiz-adv-x="935" 
d="M298 618h223c46 0 76 7 88 15c7 5 14 11 20 19c5 7 10 11 12 11c3 0 6 -4 6 -19c-1 -14 -5 -56 -6 -92c0 -16 -6 -211 -4 -226c0 -2 2 -5 5 -3c14 12 38 28 54 35c14 8 39 15 60 15c40 0 72 -13 95 -43c13 -17 24 -48 25 -105c1 -67 0 -128 2 -179c0 -17 3 -29 30 -34
c12 -2 17 -5 17 -10s-11 -7 -17 -7c-30 0 -43 5 -81 5c-50 0 -52 -4 -84 -4c-12 0 -15 4 -15 7c0 4 4 6 14 8c30 8 31 17 34 50c2 23 4 75 4 157c0 26 -3 64 -13 81c-14 24 -36 33 -62 33c-25 0 -48 -12 -60 -23c-4 -4 -9 -14 -9 -26c-2 -97 1 -200 6 -234
c3 -21 7 -32 31 -37c10 -2 17 -5 17 -9c0 -3 -6 -8 -17 -8c-30 0 -69 5 -87 5c-43 0 -55 -4 -79 -4c-11 0 -18 3 -18 7s4 7 16 10c27 6 31 13 33 45c1 35 3 130 3 267c0 150 0 212 -2 246c0 9 -4 19 -10 20c-41 2 -157 5 -175 1c-5 -2 -8 -10 -8 -19c0 -40 -2 -262 -2 -333
c0 -57 2 -152 7 -182c3 -29 11 -37 47 -46c12 -3 17 -6 17 -11s-4 -7 -17 -7c-22 0 -70 6 -118 6c-67 0 -100 -5 -115 -5c-13 0 -19 4 -19 9c0 4 10 7 21 9c50 8 55 21 58 68c5 101 5 489 4 499c-1 11 -2 14 -5 14c-8 1 -39 3 -83 3c-31 0 -55 -2 -70 -4
c-21 -4 -34 -17 -48 -57c-6 -15 -10 -19 -16 -19c-4 0 -4 7 -3 16c4 32 10 66 11 90c1 8 3 14 8 16c2 2 4 -1 8 -5c4 -5 14 -10 33 -11c14 -1 133 -5 234 -5z" />
    <glyph glyph-name="f_b" unicode="fb" horiz-adv-x="705" 
d="M66 67v236c0 10 -4 14 -7 15c-5 0 -17 0 -26 1c-4 1 -12 4 -12 8c0 3 5 6 12 11c7 4 17 10 25 17c4 3 8 10 8 12c0 31 5 111 21 156c15 45 43 103 120 141c23 12 54 18 78 18c28 0 49 -7 68 -15c4 -2 13 -3 18 -1c8 3 13 7 22 12c8 5 9 5 13 5c2 0 4 -4 4 -15
c-3 -63 -6 -229 -6 -318c0 -7 3 -10 5 -8c24 15 62 28 91 28c67 0 106 -28 129 -54c31 -34 45 -83 45 -124c0 -64 -30 -113 -52 -135c-47 -47 -109 -69 -166 -69c-39 0 -87 12 -119 25c-5 3 -17 2 -30 -3c-4 -2 -7 4 -6 7c0 20 2 70 4 117c2 49 4 201 5 306
c0 56 -1 115 -2 135c-2 29 -7 43 -22 56c-20 17 -36 25 -56 25c-29 0 -57 -30 -65 -137c-2 -26 -3 -88 -3 -125c0 -12 0 -22 1 -27c0 -4 3 -9 10 -9s73 2 84 2c5 0 10 -8 10 -25c0 -9 -4 -17 -11 -17c-23 0 -75 2 -89 2c-2 0 -5 -6 -5 -8c-1 -38 2 -219 4 -247
c2 -38 11 -43 20 -47c9 -2 19 -3 30 -6c12 -4 16 -5 16 -9c0 -5 -8 -7 -17 -7c-35 0 -54 4 -121 4c-23 0 -44 -2 -61 -3c-9 0 -15 1 -15 5s5 7 18 11c25 7 30 18 30 54zM571 162h1c0 50 -15 99 -40 131c-21 26 -51 43 -85 43c-21 0 -30 -4 -36 -8c-5 -3 -8 -10 -8 -16
c-3 -20 -4 -122 -3 -165c1 -24 6 -72 16 -93c6 -14 19 -29 34 -37c13 -8 29 -9 42 -9c34 0 79 53 79 154z" />
    <glyph glyph-name="f_f" unicode="ff" horiz-adv-x="497" 
d="M300 325h-133c-3 0 -5 -6 -5 -8c-1 -39 2 -224 3 -252c2 -42 9 -48 39 -53c12 -2 16 -6 16 -9c0 -5 -7 -7 -17 -7c-32 0 -32 4 -93 4c-23 0 -60 -2 -77 -3c-8 0 -15 1 -15 5s4 7 17 10c26 8 31 19 31 55v240c0 10 -5 14 -8 14c-5 0 -17 1 -25 2c-4 0 -12 3 -12 7
s4 6 11 10l26 16c4 3 8 9 8 12c0 26 3 85 19 130c14 44 41 104 119 141c23 12 54 18 81 18c34 0 73 -9 96 -29c2 -2 6 -2 7 0c34 33 87 54 133 54s78 -21 78 -42c0 -15 -24 -37 -33 -41c-4 -2 -15 0 -20 4c-20 19 -54 48 -83 48c-30 0 -56 -26 -62 -133
c-1 -27 -2 -70 -2 -100c0 -25 1 -45 3 -51c1 -3 3 -9 8 -9c7 0 74 2 85 2c6 0 11 -6 11 -23c0 -9 -4 -14 -11 -14c-23 0 -75 1 -89 1c-2 0 -5 -6 -5 -8c-1 -39 3 -223 4 -251c2 -39 11 -43 21 -47c8 -2 18 -3 29 -6c12 -4 16 -5 16 -9c0 -5 -8 -7 -17 -7c-34 0 -54 4 -121 4
c-23 0 -44 -2 -61 -3c-9 0 -15 1 -15 5s5 7 18 11c25 7 30 18 30 54v249c0 5 -3 9 -5 9zM239 632c-36 0 -68 -34 -75 -142c-1 -24 -3 -76 -2 -103c0 -7 0 -15 1 -20c0 -4 4 -8 11 -8c20 0 114 -1 126 0c3 0 5 4 5 6c0 40 8 143 34 196c2 3 1 9 -1 11c-32 47 -71 60 -99 60z
" />
    <glyph glyph-name="f_f_b" unicode="ffb" horiz-adv-x="944" 
d="M66 67v240c0 10 -5 14 -8 14c-5 0 -17 1 -25 2c-4 0 -12 3 -12 7s5 6 12 11c6 4 16 9 25 16c4 3 8 9 8 12c0 26 3 84 19 129c14 43 41 104 119 141c23 12 53 18 80 18c34 0 71 -9 94 -29c2 -2 6 -2 8 0c36 34 88 54 138 54c28 0 49 -7 68 -15c5 -2 13 -4 18 -2
c8 4 13 8 22 13c8 5 9 5 13 5c2 0 4 -4 4 -15c-2 -63 -6 -229 -6 -318c0 -7 3 -10 6 -8c23 15 61 28 91 28c66 0 105 -28 128 -54c31 -34 45 -83 45 -124c0 -64 -30 -113 -52 -135c-46 -47 -109 -69 -166 -69c-39 0 -86 12 -119 25c-5 3 -17 2 -30 -3c-4 -2 -7 4 -6 7
c0 20 2 70 4 117c2 49 4 201 5 306c0 56 -1 114 -2 135c-2 29 -7 43 -22 55c-20 18 -36 26 -56 26c-29 0 -57 -30 -65 -137c-2 -27 -3 -91 -3 -128c0 -10 1 -20 1 -24s3 -9 10 -9s73 2 84 2c5 0 10 -4 10 -21c0 -9 -4 -16 -11 -16c-23 0 -75 1 -89 1c-2 0 -5 -6 -5 -8
c-1 -39 3 -223 4 -251c2 -39 11 -43 21 -47c8 -2 18 -3 29 -6c12 -4 16 -5 16 -9c0 -5 -8 -7 -17 -7c-34 0 -54 4 -121 4c-23 0 -44 -2 -61 -3c-9 0 -15 1 -15 5s5 7 18 11c25 7 30 18 30 54v248c0 6 -3 9 -5 9h-133c-3 0 -5 -6 -5 -8c-1 -38 2 -223 3 -251
c2 -42 7 -48 39 -54c12 -2 15 -5 15 -9c0 -5 -7 -7 -17 -7c-31 0 -47 5 -108 5c-23 0 -44 -2 -61 -3c-8 0 -15 1 -15 5s4 7 17 10c26 8 31 19 31 55zM810 162h1c0 50 -14 99 -40 131c-21 26 -51 43 -85 43c-20 0 -30 -4 -36 -8c-5 -3 -7 -10 -8 -16c-3 -20 -4 -122 -3 -165
c1 -24 6 -72 16 -93c6 -14 19 -29 34 -37c13 -8 30 -9 42 -9c35 0 79 53 79 154zM239 632c-35 0 -68 -34 -75 -142c-1 -24 -3 -71 -2 -98c0 -10 0 -19 1 -25c0 -4 4 -8 11 -8c20 0 114 -1 126 0c3 0 5 4 5 6c0 28 3 113 21 163c3 10 8 22 13 33c2 3 1 9 -1 11
c-31 46 -69 60 -99 60z" />
    <glyph glyph-name="f_f_h" unicode="ffh" horiz-adv-x="938" 
d="M64 67v240c0 10 -5 14 -8 14c-5 0 -18 1 -25 2c-4 0 -12 3 -12 7s5 6 12 11c6 4 16 9 25 15c4 3 8 9 8 12c0 26 3 85 18 130c15 43 42 104 120 141c23 12 52 18 79 18c35 0 72 -9 95 -29c2 -2 6 -2 8 0c35 34 89 54 138 54c28 0 49 -7 68 -15c4 -2 12 -4 16 -2
c8 4 13 8 22 13c8 5 9 5 13 5c2 0 4 -4 5 -22c-1 -16 -6 -319 -5 -334c0 -2 2 -5 5 -3c13 11 37 28 53 35c15 8 43 14 56 14c40 0 57 -8 74 -21c27 -18 46 -58 47 -114c2 -56 3 -141 5 -192c0 -16 7 -27 29 -33c13 -4 17 -6 17 -11s-10 -7 -17 -7c-30 0 -42 5 -80 5
c-50 0 -50 -4 -82 -4c-12 0 -18 4 -18 7c0 4 6 5 16 8c30 9 31 24 33 50c0 23 2 41 2 154c0 25 -3 66 -13 83c-14 25 -33 36 -60 36c-23 0 -47 -12 -59 -23c-6 -7 -8 -20 -9 -32c-1 -59 3 -201 5 -237c2 -19 11 -25 31 -30c8 -1 18 -4 18 -9c0 -3 -6 -8 -18 -8
c-29 0 -68 5 -85 5c-43 0 -56 -4 -80 -4c-11 0 -18 3 -18 7s5 8 17 10c25 5 30 13 32 52c2 36 3 123 3 260c0 150 1 222 0 252c-2 27 -8 41 -22 53c-20 18 -36 26 -56 26c-29 0 -58 -30 -65 -137c-2 -27 -3 -95 -3 -131c0 -9 0 -17 1 -21c0 -4 3 -9 9 -9c8 0 74 2 85 2
c5 0 10 -4 10 -21c0 -9 -4 -16 -11 -16c-23 0 -75 1 -89 1c-3 0 -5 -6 -5 -8c-2 -39 3 -223 4 -251c2 -39 7 -45 40 -53c12 -3 16 -5 16 -9c0 -5 -7 -7 -17 -7c-34 0 -44 4 -111 4c-23 0 -45 -2 -61 -3c-9 0 -15 1 -15 5s5 7 18 11c25 7 30 18 30 54v249c0 5 -3 9 -6 9h-132
c-3 0 -5 -6 -5 -8c-2 -39 2 -224 3 -252c2 -38 6 -47 39 -54c12 -3 15 -5 15 -9c0 -5 -7 -7 -17 -7c-31 0 -47 5 -108 5c-23 0 -44 -2 -61 -3c-9 0 -15 1 -15 5s4 7 17 10c26 8 31 19 31 55zM237 632c-35 0 -68 -34 -75 -142c-1 -24 -3 -75 -2 -103c0 -7 0 -15 1 -20
c0 -4 3 -8 10 -8c21 0 115 -1 127 0c3 0 5 4 5 6c0 28 3 112 20 162c4 11 8 23 14 34c2 3 1 9 -1 11c-32 46 -69 60 -99 60z" />
    <glyph glyph-name="f_f_i" unicode="ffi" horiz-adv-x="705" 
d="M66 67v240c0 11 -5 14 -8 15c-5 0 -17 1 -25 1c-4 0 -12 3 -12 7s5 5 12 10l25 16c4 3 8 9 8 12c0 26 3 85 19 130c14 43 42 103 120 140c23 12 53 19 81 19c39 0 75 -12 98 -32c1 -1 5 -2 7 0c49 38 93 57 147 57c46 0 76 -16 92 -32c8 -8 11 -16 11 -22
c0 -32 -31 -47 -40 -47s-17 8 -22 14c-32 44 -58 62 -88 62c-67 0 -88 -98 -89 -222c-1 -27 -1 -54 1 -66c1 -5 2 -10 8 -10c9 0 80 0 100 1c43 1 99 7 114 14c6 3 9 5 13 5c3 0 5 -3 5 -13c0 -13 -1 -71 -1 -117c0 -117 1 -183 3 -202c1 -20 6 -29 29 -35
c12 -3 16 -6 16 -9c0 -5 -8 -7 -16 -7c-23 0 -47 4 -86 4c-42 0 -66 -4 -76 -4c-9 0 -18 2 -18 7s7 7 18 10c26 5 30 17 32 56s2 218 1 236c0 12 -3 20 -15 21h-123c-2 0 -5 -7 -5 -11c-2 -39 2 -222 3 -250c2 -43 9 -44 40 -53c12 -3 16 -5 16 -9c0 -5 -8 -7 -18 -7
c-34 0 -42 4 -109 4c-23 0 -45 -2 -62 -3c-8 0 -15 1 -15 5s6 7 19 11c25 7 30 18 30 54v250c0 5 -3 9 -6 9h-133c-3 0 -5 -7 -5 -8c-1 -39 2 -225 3 -253c2 -37 7 -47 39 -54c12 -3 16 -5 16 -9c0 -5 -7 -7 -17 -7c-32 0 -48 5 -109 5c-23 0 -44 -2 -61 -3
c-8 0 -15 1 -15 5s4 7 17 10c26 8 31 19 31 55zM239 632c-35 0 -68 -34 -75 -142c-1 -24 -3 -75 -2 -102c0 -8 0 -16 1 -21c0 -4 4 -8 11 -8c20 0 115 -1 127 0c3 0 5 4 5 6c0 66 11 142 37 195c2 3 1 9 -1 11c-32 46 -73 61 -103 61z" />
    <glyph glyph-name="f_f_j" unicode="ffj" horiz-adv-x="695" 
d="M66 67v240c0 11 -5 14 -8 15c-5 0 -17 1 -25 1c-4 0 -12 3 -12 7s5 5 12 10l25 16c4 3 8 9 8 12c0 26 3 85 19 130c14 43 42 103 120 140c23 12 53 19 81 19c39 0 75 -12 98 -32c1 -1 5 -2 7 0c48 38 92 57 146 57c44 0 74 -14 89 -29c9 -8 13 -17 13 -24
c0 -32 -31 -47 -40 -47s-17 8 -21 14c-33 44 -61 61 -88 61c-21 0 -39 -10 -54 -34c-21 -32 -31 -89 -34 -150c-1 -17 -1 -34 -1 -52c0 -23 0 -46 1 -54c1 -3 3 -8 8 -8c9 0 79 -1 98 0c44 1 95 8 110 15c6 3 9 5 13 5c2 0 5 -3 5 -13c0 -98 -2 -205 -3 -300
c0 -42 -1 -70 -3 -101c-10 -134 -91 -209 -154 -240c-12 -6 -26 -6 -26 0c0 4 3 6 11 10c57 32 76 99 76 215c1 63 2 122 2 172c-1 92 -1 158 -5 185c-1 10 -5 18 -17 19h-110c-2 0 -5 -2 -5 -9c-2 -39 2 -224 3 -252c2 -43 9 -44 40 -53c12 -3 16 -5 16 -9
c0 -5 -8 -7 -18 -7c-34 0 -42 4 -109 4c-23 0 -45 -2 -62 -3c-8 0 -15 1 -15 5s6 7 19 11c25 7 30 18 30 54v250c0 5 -3 9 -6 9h-133c-3 0 -5 -7 -5 -8c-1 -39 2 -225 3 -253c2 -37 7 -47 39 -54c12 -3 16 -5 16 -9c0 -5 -7 -7 -17 -7c-32 0 -48 5 -109 5
c-23 0 -44 -2 -61 -3c-8 0 -15 1 -15 5s4 7 17 10c26 8 31 19 31 55zM239 632c-35 0 -68 -34 -75 -142c-1 -23 -2 -69 -2 -95c0 -11 0 -21 1 -28c0 -4 4 -8 11 -8c20 0 115 -1 127 0c3 0 5 4 5 6c0 66 10 141 37 195c2 3 1 9 -1 11c-31 46 -73 61 -103 61z" />
    <glyph glyph-name="f_f_k" unicode="ffk" horiz-adv-x="929" 
d="M66 67v240c0 10 -5 14 -8 14c-5 0 -17 1 -25 2c-4 0 -12 3 -12 7s5 6 12 11c6 4 16 9 25 15c4 3 8 9 8 12c0 26 3 85 19 130c14 43 41 104 119 141c23 12 53 18 80 18c34 0 71 -9 94 -29c2 -2 6 -2 8 0c35 34 89 54 138 54c28 0 49 -7 68 -15c5 -2 12 -4 16 -2
c8 4 14 8 22 13c9 5 9 5 13 5c2 0 5 -4 4 -15c0 -34 -5 -146 -5 -220c0 -29 -4 -186 -3 -236c0 -9 2 -14 5 -14c4 0 12 5 18 9c35 24 88 77 106 105c5 6 9 12 9 16c0 5 -6 13 -35 18c-11 2 -17 4 -17 9c0 4 9 7 18 7c13 0 29 -1 36 -1c27 0 70 5 105 5c11 0 17 -3 17 -6
c0 -4 -4 -6 -16 -9c-34 -8 -56 -17 -87 -44c-23 -19 -50 -43 -73 -67c-2 -2 -2 -5 -1 -7c36 -52 104 -132 143 -175c25 -27 41 -41 68 -46c11 -2 15 -5 15 -9c0 -5 -9 -8 -20 -8c-57 0 -100 5 -132 5c-19 0 -31 -2 -45 -2c-12 0 -20 1 -20 6s4 7 19 11c17 4 21 11 12 25
c-15 20 -68 89 -100 125c-11 12 -17 20 -21 20c-3 0 -3 -3 -4 -8c-2 -16 0 -71 1 -105c2 -49 14 -52 36 -57c10 -2 18 -6 18 -10c0 -6 -12 -8 -19 -8c-30 0 -61 3 -87 3c-40 0 -75 -4 -79 -4c-9 0 -18 3 -18 7s6 7 15 9c29 7 33 17 35 50c4 73 5 150 5 228c0 61 2 214 2 287
c-2 27 -9 41 -23 53c-20 18 -36 26 -56 26c-29 0 -57 -30 -65 -137c-2 -27 -3 -95 -3 -131c0 -9 1 -17 1 -21s3 -9 10 -9s73 2 84 2c5 0 10 -4 10 -21c0 -9 -4 -16 -11 -16c-23 0 -75 1 -89 1c-2 0 -5 -6 -5 -8c-1 -39 3 -223 4 -251c2 -39 7 -45 41 -53c12 -3 16 -5 16 -9
c0 -5 -8 -7 -18 -7c-34 0 -44 4 -111 4c-23 0 -44 -2 -61 -3c-9 0 -15 1 -15 5s5 7 18 11c25 7 30 18 30 54v249c0 5 -3 9 -5 9h-133c-3 0 -5 -6 -5 -8c-1 -39 2 -224 3 -252c2 -38 6 -47 39 -54c12 -3 15 -5 15 -9c0 -5 -7 -7 -17 -7c-31 0 -47 5 -108 5
c-23 0 -44 -2 -61 -3c-8 0 -15 1 -15 5s4 7 17 10c26 8 31 19 31 55zM239 632c-35 0 -68 -34 -75 -142c-1 -24 -3 -75 -2 -103c0 -7 0 -15 1 -20c0 -4 4 -8 11 -8c20 0 114 -1 126 0c3 0 5 4 5 6c0 28 3 112 20 162c4 11 8 23 14 34c2 3 1 9 -1 11c-31 46 -69 60 -99 60z
" />
    <glyph glyph-name="f_f_l" unicode="ffl" horiz-adv-x="709" 
d="M66 67v240c0 11 -5 14 -8 14c-5 1 -17 1 -25 2c-4 0 -12 3 -12 7s5 7 12 11c6 4 16 9 25 15c4 3 8 9 8 12c0 26 3 85 19 130c15 44 41 104 119 141c23 12 54 18 81 18c33 0 70 -9 94 -29c2 -2 5 -1 7 0c36 33 88 54 136 54c28 0 51 -7 68 -14c6 -3 12 -5 16 -3
c8 3 14 7 22 14c7 5 8 6 12 6c3 0 4 -4 4 -14c0 -28 -5 -149 -5 -240c0 -25 -1 -195 -1 -211c0 -45 1 -129 2 -151c2 -47 16 -50 35 -54c9 -2 18 -6 18 -10c0 -5 -12 -8 -20 -8c-25 0 -61 3 -85 3c-38 0 -76 -3 -79 -3c-10 0 -18 1 -18 6c0 4 5 7 16 10c28 6 31 15 34 51
c3 61 4 147 5 255c0 3 -3 5 -5 5c-39 0 -102 1 -135 1c-2 0 -5 -7 -5 -9c-1 -38 3 -223 4 -251c2 -44 8 -45 44 -53c12 -3 16 -5 16 -9c0 -5 -8 -7 -18 -7c-34 0 -47 4 -114 4c-23 0 -44 -2 -61 -3c-9 0 -15 1 -15 5s5 7 18 11c25 7 30 18 30 54v249c0 6 -3 9 -5 9h-133
c-3 0 -5 -6 -5 -8c-1 -38 2 -224 3 -252c2 -38 6 -47 39 -54c12 -3 15 -5 15 -9c0 -5 -7 -7 -17 -7c-31 0 -47 5 -108 5c-23 0 -44 -2 -61 -3c-8 0 -15 1 -15 5s4 7 17 10c26 8 31 19 31 55zM469 656c-31 0 -58 -31 -65 -138c-1 -24 -3 -79 -3 -114c0 -19 0 -31 1 -36
c0 -4 3 -9 8 -9h131c3 0 5 3 5 5c0 77 1 176 1 210c-2 29 -4 41 -15 54c-18 19 -41 28 -63 28zM239 632c-36 0 -68 -34 -75 -142c-1 -24 -3 -73 -2 -101c0 -7 0 -16 1 -22c0 -4 4 -8 11 -8c20 0 114 -1 125 0c3 0 6 4 6 6c0 28 3 113 21 163c3 10 8 22 13 33c2 3 1 9 -1 11
c-32 47 -71 60 -99 60z" />
    <glyph glyph-name="f_f_t" unicode="fft" horiz-adv-x="752" 
d="M66 67v240c0 10 -5 14 -8 14c-5 0 -17 1 -25 2c-4 0 -12 3 -12 7s4 6 11 10l26 16c4 3 8 9 8 12c0 26 3 85 19 130c15 44 41 104 119 141c23 12 54 18 81 18c34 0 70 -9 93 -29c2 -2 6 -2 8 0c16 15 34 25 57 37c23 10 53 17 78 17c41 0 78 -18 78 -42
c0 -15 -24 -37 -33 -41c-4 -2 -15 0 -20 4c-20 19 -52 50 -80 50c-31 0 -56 -28 -63 -135c-1 -27 -3 -70 -3 -100c0 -25 1 -45 3 -51c1 -3 2 -9 8 -9h115c5 0 13 2 20 6c23 13 38 36 60 58c15 16 23 10 23 5c0 -6 -1 -49 -1 -57c0 -3 1 -10 5 -10c19 0 86 1 102 1
c2 0 7 -2 7 -13c0 -21 -6 -26 -10 -26c-30 0 -71 1 -99 1c-1 0 -3 -3 -3 -6c0 -22 -1 -185 0 -211c1 -23 4 -34 12 -45c14 -19 34 -23 47 -23c17 0 32 4 45 10c11 6 13 4 13 0c0 -5 -5 -14 -20 -27c-26 -21 -57 -30 -87 -30c-47 0 -76 12 -94 44c-9 14 -13 41 -13 65v206
c0 9 -2 17 -11 18h-116c-2 0 -5 -6 -5 -8c-1 -39 3 -223 4 -251c2 -39 11 -43 21 -47c8 -2 18 -3 29 -6c12 -4 16 -5 16 -9c0 -5 -8 -7 -17 -7c-34 0 -54 4 -121 4c-23 0 -44 -2 -61 -3c-9 0 -15 1 -15 5s5 7 18 11c25 7 30 18 30 54v249c0 5 -3 9 -5 9h-133
c-3 0 -5 -6 -5 -8c-1 -39 2 -224 3 -252c2 -42 9 -48 39 -53c12 -2 16 -6 16 -9c0 -5 -7 -7 -17 -7c-32 0 -48 4 -109 4c-23 0 -44 -2 -61 -3c-8 0 -15 1 -15 5s4 7 17 10c26 8 31 19 31 55zM239 632c-36 0 -68 -36 -75 -145c-1 -22 -2 -66 -2 -92c0 -10 0 -20 1 -28
c0 -4 4 -8 11 -8c20 0 114 -1 126 0c3 0 5 4 5 6c0 27 3 111 20 161c4 11 8 23 14 35c2 3 1 9 -1 11c-32 47 -71 60 -99 60z" />
    <glyph glyph-name="f_h" unicode="fh" horiz-adv-x="702" 
d="M66 67v236c0 10 -4 14 -7 15c-5 0 -17 0 -26 1c-4 1 -12 4 -12 8c0 3 5 6 12 11c7 4 17 10 25 17c4 3 8 10 8 12c0 31 5 111 21 156c15 45 44 103 120 141c24 12 55 18 79 18c28 0 48 -7 67 -15c4 -2 13 -3 17 -1c8 4 14 7 22 12c9 5 10 5 14 5c2 0 4 -4 3 -15
c0 -20 -5 -279 -4 -341c0 -2 3 -5 6 -3c12 11 36 28 53 35c14 8 42 14 56 14c39 0 57 -9 74 -21c27 -19 45 -57 47 -111l2 -106c1 -29 2 -64 2 -89c1 -16 8 -27 30 -33c13 -4 16 -6 16 -11s-10 -7 -16 -7c-30 0 -43 5 -81 5c-50 0 -50 -4 -82 -4c-12 0 -17 4 -17 7
c0 4 6 5 16 8c29 9 30 24 32 50c0 23 2 41 2 154c0 25 -3 66 -12 83c-15 25 -34 36 -61 36c-22 0 -46 -12 -58 -23c-7 -7 -9 -20 -10 -32c0 -59 3 -201 6 -237c2 -19 10 -25 31 -30c7 -1 17 -4 17 -9c0 -3 -6 -8 -18 -8c-29 0 -68 5 -85 5c-43 0 -55 -4 -80 -4
c-11 0 -18 3 -18 7s5 8 17 10c25 5 30 13 32 53c2 35 4 122 4 259c0 150 0 221 -2 255c-2 29 -7 38 -22 51c-20 17 -35 25 -55 25c-30 0 -58 -30 -66 -137c-2 -28 -4 -100 -3 -134c0 -7 0 -14 1 -18c0 -4 3 -9 10 -9s73 2 84 2c5 0 10 -8 10 -25c0 -9 -4 -17 -11 -17
c-23 0 -75 2 -89 2c-2 0 -5 -6 -5 -8c-1 -38 2 -219 4 -247c2 -38 11 -43 20 -47c9 -2 19 -3 30 -6c12 -4 16 -5 16 -9c0 -5 -8 -7 -17 -7c-35 0 -54 4 -121 4c-23 0 -44 -2 -61 -3c-9 0 -15 1 -15 5s5 7 18 11c25 7 30 18 30 54z" />
    <glyph glyph-name="f_i" unicode="fi" horiz-adv-x="463" 
d="M302 682c39 0 67 -12 83 -25c12 -9 18 -21 18 -30c0 -32 -33 -46 -41 -46c-9 0 -17 8 -22 14c-32 44 -59 62 -88 62c-24 0 -43 -13 -59 -40c-22 -39 -31 -108 -32 -182c0 -27 0 -54 1 -66c1 -5 3 -10 8 -10c11 0 86 0 101 1c44 1 100 7 115 14c6 4 9 6 13 5
c2 0 5 -3 5 -13c0 -13 -1 -71 -1 -117c0 -117 1 -183 2 -202c2 -20 7 -29 29 -35c12 -3 14 -6 14 -9c0 -5 -6 -7 -14 -7c-23 0 -46 4 -85 4c-42 0 -66 -3 -76 -3c-9 0 -18 2 -18 6s7 7 18 10c26 5 30 19 32 59c2 38 2 213 1 231c0 13 -3 21 -15 21c-28 1 -108 0 -124 0
c-2 0 -5 -7 -5 -11c-1 -20 0 -81 1 -139c0 -56 2 -100 3 -115c2 -31 10 -41 39 -47c12 -3 16 -5 16 -9c0 -5 -8 -6 -17 -6c-30 0 -48 3 -111 3c-23 0 -45 -3 -59 -3c-8 0 -16 0 -16 5c0 4 5 7 17 10c24 8 30 15 31 49v246c0 11 -5 14 -7 15c-7 0 -19 1 -26 2
c-3 0 -12 3 -12 6c0 4 5 6 12 11c6 4 18 9 26 15c3 2 7 8 7 12c0 19 4 91 21 141c14 42 44 111 128 150c25 15 57 23 87 23z" />
    <glyph glyph-name="f_j" unicode="fj" horiz-adv-x="454" 
d="M294 682c61 0 99 -25 99 -56c0 -32 -31 -44 -40 -44s-17 7 -21 13c-32 44 -55 62 -82 62c-23 0 -40 -11 -54 -34c-21 -33 -31 -92 -34 -153l-2 -48c0 -23 1 -45 2 -53c1 -4 3 -10 8 -10c9 0 79 -1 98 0c44 1 95 8 110 15c6 3 9 5 13 5c3 0 5 -3 5 -13
c0 -98 -2 -205 -3 -300c0 -42 -1 -70 -3 -101c-10 -134 -91 -209 -154 -240c-12 -6 -26 -6 -26 0c0 4 3 6 11 10c57 32 76 99 76 215c1 106 1 203 1 264c-1 54 -3 80 -5 93c-2 10 -5 18 -17 19h-109c-2 0 -5 -7 -5 -11c-1 -83 3 -230 4 -256c2 -31 10 -41 39 -47
c12 -3 16 -5 16 -9c0 -5 -8 -6 -17 -6c-30 0 -48 3 -111 3c-23 0 -45 -3 -59 -3c-8 0 -16 0 -16 5c0 4 5 7 17 10c24 8 30 15 31 49v247c0 12 -5 15 -7 15c-7 0 -19 1 -26 2c-4 1 -12 3 -12 7s5 7 12 11c6 3 18 8 26 15c3 2 7 8 7 11c0 20 4 90 21 140c14 42 44 112 128 152
c25 14 53 21 79 21z" />
    <glyph glyph-name="f_k" unicode="fk" horiz-adv-x="689" 
d="M287 682c27 0 47 -7 66 -15c4 -2 13 -3 17 -1l23 12c8 5 9 5 13 5c2 0 4 -4 4 -15c0 -92 -11 -294 -10 -456c0 -9 2 -14 5 -14c4 0 11 5 17 9c35 24 89 77 107 105c4 6 9 12 9 16c0 5 -7 13 -36 18c-10 2 -16 4 -16 9c0 4 8 7 17 7c13 0 29 -1 37 -1c27 0 70 6 104 6
c11 0 17 -3 17 -7c0 -3 -3 -6 -15 -8c-34 -8 -57 -18 -88 -44c-22 -19 -50 -44 -73 -68c-2 -2 -1 -5 0 -7c35 -52 104 -132 143 -175c25 -27 40 -41 68 -46c10 -2 14 -5 14 -9c0 -5 -8 -8 -20 -8c-56 0 -99 5 -131 5c-18 0 -31 -2 -45 -2c-12 0 -20 1 -20 6s4 7 19 11
c17 4 21 11 12 25c-15 20 -69 89 -101 125c-11 12 -17 20 -20 20s-4 -3 -4 -8c-3 -16 -1 -71 0 -105c2 -49 15 -52 36 -57c10 -2 18 -6 18 -10c0 -6 -12 -8 -19 -8c-29 0 -61 3 -87 3c-39 0 -74 -4 -79 -4c-9 0 -17 3 -17 7s6 7 14 9c30 7 33 17 35 50c4 73 5 148 6 225
c0 65 1 237 1 293c-2 29 -7 38 -22 51c-20 17 -35 25 -55 25c-30 0 -58 -30 -66 -137c-2 -26 -3 -89 -3 -126c0 -12 0 -22 1 -26c0 -4 3 -9 10 -9s73 2 84 2c5 0 10 -8 10 -25c0 -9 -4 -17 -11 -17c-23 0 -75 2 -89 2c-2 0 -5 -6 -5 -8c-1 -38 2 -219 4 -247
c2 -38 11 -43 20 -47c9 -2 19 -3 30 -6c12 -4 16 -5 16 -9c0 -5 -8 -7 -17 -7c-35 0 -54 4 -121 4c-23 0 -44 -2 -61 -3c-9 0 -15 1 -15 5s5 7 18 11c25 7 30 18 30 54v236c0 10 -4 14 -7 15c-5 0 -17 0 -26 1c-4 1 -12 4 -12 8c0 3 5 6 12 11c7 4 17 10 25 17
c4 3 8 10 8 12c0 31 5 111 21 156c15 45 44 103 120 141c24 12 55 18 80 18z" />
    <glyph glyph-name="f_l" unicode="fl" horiz-adv-x="464" 
d="M66 67v236c0 10 -4 14 -7 15c-5 0 -17 0 -26 1c-4 1 -12 4 -12 8c0 3 5 6 12 11c7 4 17 10 25 17c4 3 8 10 8 12c0 31 5 111 21 156c15 45 44 103 120 141c23 11 52 17 79 18c26 0 46 -7 65 -14c6 -3 15 -5 19 -3c8 3 14 7 22 14c7 5 8 6 12 6c3 0 4 -4 4 -14
c0 -28 -5 -149 -5 -240l-2 -188c-1 -132 0 -168 1 -186c1 -35 9 -38 34 -44c5 -1 13 -4 13 -9c0 -4 -10 -7 -21 -7c-30 0 -69 3 -84 3c-27 0 -47 -2 -74 -2c-10 0 -19 2 -19 7s7 7 15 9c27 5 33 10 35 53c2 41 6 228 7 324v187c-2 29 -6 38 -18 50c-19 19 -37 28 -59 28
c-30 0 -58 -30 -66 -137c-2 -27 -3 -90 -3 -127c0 -11 0 -21 1 -25c0 -4 3 -9 10 -9s73 2 84 2c5 0 10 -8 10 -25c0 -9 -4 -17 -11 -17c-23 0 -75 2 -89 2c-2 0 -5 -6 -5 -8c-1 -38 2 -219 4 -247c2 -37 10 -42 20 -47l26 -6c12 -4 16 -5 16 -9c0 -5 -8 -7 -18 -7
c-34 0 -21 4 -88 4c-23 0 -72 -2 -89 -3c-9 0 -15 1 -15 5s5 7 18 11c25 7 30 18 30 54z" />
    <glyph glyph-name="f_t" unicode="ft" horiz-adv-x="528" 
d="M66 67v236c0 8 -4 12 -9 13c-7 0 -15 1 -22 1c-8 1 -14 4 -14 10c0 3 5 6 12 10c13 8 33 17 33 30c0 31 3 111 19 156c19 57 76 159 198 159c44 0 77 -21 77 -42c0 -14 -24 -37 -34 -41c-16 -9 -51 42 -90 52c-6 2 -11 3 -16 3c-29 -2 -56 -26 -59 -158
c0 -52 -1 -105 1 -122c1 -5 1 -14 11 -14h139c4 0 9 2 14 5c24 14 57 54 71 63c5 3 8 3 8 -1c0 -6 -1 -49 -1 -57c0 -3 1 -10 6 -10c18 0 85 2 101 2c2 0 8 -3 8 -14c0 -21 -7 -29 -11 -29c-29 0 -71 2 -99 2c-1 0 -3 -4 -3 -6v-201c0 -64 36 -76 59 -76c29 0 59 20 59 10
c0 -28 -68 -57 -111 -57c-66 0 -103 28 -103 109v203c0 6 -1 14 -10 15c-32 2 -120 1 -133 1c-2 0 -5 -7 -5 -8c-1 -39 2 -218 4 -246c2 -38 11 -43 20 -47c17 -4 46 -8 46 -15c0 -5 -8 -7 -17 -7c-37 0 -55 4 -121 4c-23 0 -44 -2 -61 -3c-9 0 -15 1 -15 5s5 7 18 11
c25 7 30 18 30 54z" />
    <glyph glyph-name="longs_b" unicode="&#x17f;b" horiz-adv-x="691" 
d="M276 682c25 0 50 -7 70 -15c5 -2 10 -2 14 0c7 4 13 8 21 14c7 4 7 5 11 5c2 0 4 -4 4 -15c-2 -63 -5 -232 -5 -321c0 -7 3 -10 5 -8c24 15 62 28 91 28c66 0 105 -28 128 -54c31 -34 45 -83 45 -124c0 -64 -29 -113 -52 -135c-46 -47 -108 -69 -165 -69
c-40 0 -87 12 -119 25c-5 3 -17 2 -30 -3c-4 -2 -7 4 -7 7c0 20 2 70 4 117c2 49 4 201 5 306c0 56 0 119 -1 140c-2 26 -3 40 -13 51c-17 20 -33 25 -53 25c-30 0 -57 -27 -64 -135c-2 -32 -5 -133 -4 -170c-1 -39 3 -258 5 -286c2 -37 10 -42 19 -46c8 -3 17 -4 27 -7
c12 -4 16 -5 16 -9c0 -5 -8 -7 -17 -7c-34 0 -50 4 -117 4c-23 0 -44 -2 -61 -3c-9 0 -15 1 -15 5s5 7 18 11c25 7 30 18 30 54v236c0 10 -4 14 -7 15c-5 0 -17 0 -26 1c-4 1 -12 4 -12 8c0 3 5 6 12 11c7 4 17 10 25 17c4 3 8 10 8 12c0 31 5 111 21 156
c15 45 43 105 120 143c23 11 44 16 69 16zM558 162c0 50 -14 99 -39 131c-21 26 -51 43 -86 43c-20 0 -30 -4 -36 -8c-4 -3 -7 -10 -8 -16c-2 -20 -4 -122 -2 -165c1 -24 6 -72 15 -93c7 -14 20 -29 34 -37s30 -9 42 -9c35 0 80 53 80 154z" />
    <glyph glyph-name="longs_h" unicode="&#x17f;h" horiz-adv-x="699" 
d="M94 0c-23 0 -44 -2 -61 -3c-9 0 -15 1 -15 5s5 7 18 11c25 7 30 18 30 54v236c0 10 -4 14 -7 15c-5 0 -17 0 -26 1c-4 1 -12 4 -12 8c0 3 5 6 12 11c7 4 17 10 25 17c4 3 8 10 8 12c0 31 5 111 21 156c15 45 46 107 121 142c23 12 44 17 70 17c25 0 48 -7 68 -15
c5 -2 10 -2 14 0c7 4 12 8 20 14c7 4 7 5 11 5c3 0 4 -5 4 -16c0 -15 -4 -328 -3 -343c0 -2 2 -5 5 -3c14 12 33 26 52 34c17 9 37 14 58 15c38 0 57 -9 74 -21c27 -19 45 -57 46 -111l3 -113c0 -27 1 -59 2 -82c0 -16 7 -27 29 -33c13 -4 17 -6 17 -11s-10 -7 -17 -7
c-30 0 -42 5 -80 5c-50 0 -50 -4 -82 -4c-12 0 -18 4 -18 7c0 4 6 5 16 8c30 9 31 24 33 50c0 23 2 41 2 154c0 25 -3 66 -12 83c-15 25 -34 36 -61 36c-23 0 -47 -12 -59 -23c-6 -7 -8 -20 -9 -32c-1 -59 3 -201 6 -237c1 -19 10 -25 30 -30c8 -1 18 -4 18 -9
c0 -3 -6 -8 -18 -8c-29 0 -68 5 -85 5c-43 0 -56 -4 -80 -4c-11 0 -18 3 -18 7s5 8 17 10c25 5 30 13 32 53c2 35 4 217 4 354c0 78 -1 132 -2 160c-1 25 -4 40 -13 51c-17 20 -32 26 -52 26c-29 0 -55 -28 -64 -136c-4 -59 -6 -133 -5 -170c-1 -39 3 -258 5 -286
c2 -40 4 -45 36 -53c12 -4 16 -5 16 -9c0 -5 -8 -7 -18 -7c-34 0 -39 4 -106 4z" />
    <glyph glyph-name="longs_i" unicode="&#x17f;i" horiz-adv-x="450" 
d="M66 67v236c0 10 -4 14 -7 15c-5 0 -17 0 -26 1c-4 1 -12 4 -12 8c0 3 5 6 12 11c7 4 17 10 25 17c4 3 8 10 8 12c0 31 6 103 21 148c21 61 62 119 133 149c23 12 55 18 81 18c34 0 65 -13 79 -31c7 -8 10 -16 10 -24c0 -27 -27 -44 -40 -44c-7 -1 -17 8 -20 11
c-34 48 -58 62 -87 62s-65 -32 -76 -140c-4 -49 -5 -105 -5 -204c0 -38 2 -219 4 -247c2 -46 3 -45 35 -53c12 -3 16 -5 16 -9c0 -5 -8 -7 -17 -7c-35 0 -39 4 -106 4c-23 0 -44 -2 -61 -3c-9 0 -15 1 -15 5s5 7 18 11c25 7 30 18 30 54zM260 334c0 3 4 7 16 8
c38 6 76 21 93 30c8 4 12 6 16 6c3 0 5 -3 5 -14s-1 -72 -1 -114c0 -112 1 -191 3 -207s9 -25 28 -31c12 -2 15 -5 15 -9c0 -5 -8 -7 -16 -7c-20 0 -49 4 -86 4c-43 0 -65 -2 -76 -2c-8 0 -16 3 -16 7c0 5 6 7 18 9c25 6 32 19 32 54c0 30 3 201 3 211c0 22 -1 27 -26 44
c-5 4 -8 7 -8 11z" />
    <glyph glyph-name="longs_k" unicode="&#x17f;k" horiz-adv-x="677" 
d="M278 682c25 0 47 -7 66 -15c5 -2 10 -2 14 0c8 4 12 8 21 14c6 4 7 5 11 5c2 0 4 -5 4 -16c-1 -17 -3 -98 -4 -186c-1 -97 -3 -229 -2 -272c0 -9 2 -14 5 -14c4 0 11 5 17 9c35 24 89 77 107 105c4 6 8 12 8 16c0 5 -6 13 -35 18c-10 2 -16 4 -16 9c0 4 8 7 17 7
c13 0 29 -1 36 -1c28 0 71 6 105 6c11 0 17 -3 17 -7c0 -3 -3 -6 -15 -8c-34 -8 -57 -18 -88 -44c-23 -19 -50 -44 -73 -68c-2 -2 -2 -5 -1 -7c36 -52 105 -132 144 -175c25 -27 40 -41 68 -46c10 -2 14 -5 14 -9c0 -5 -8 -8 -20 -8c-56 0 -100 5 -131 5
c-19 0 -32 -2 -46 -2c-12 0 -20 1 -20 6s4 7 19 11c17 4 21 11 12 25c-15 20 -68 89 -100 125c-11 12 -17 20 -20 20s-4 -3 -4 -8c-3 -16 -1 -71 0 -105c2 -49 15 -52 36 -57c10 -2 18 -6 18 -10c0 -6 -12 -8 -19 -8c-29 0 -61 3 -87 3c-40 0 -75 -4 -79 -4
c-9 0 -17 3 -17 7s6 7 14 9c30 7 33 17 35 50c4 73 5 148 5 225c1 70 3 226 1 293c-2 25 -4 40 -13 51c-18 20 -32 26 -52 26c-29 0 -55 -28 -64 -136c-4 -59 -6 -133 -5 -170c-1 -39 3 -258 5 -286c2 -40 4 -45 36 -53c12 -4 16 -5 16 -9c0 -5 -8 -7 -18 -7
c-34 0 -39 4 -106 4c-23 0 -44 -2 -61 -3c-9 0 -15 1 -15 5s5 7 18 11c25 7 30 18 30 54v236c0 10 -4 14 -7 15c-5 0 -17 0 -26 1c-4 1 -12 4 -12 8c0 3 5 6 12 11c7 4 17 10 25 17c4 3 8 10 8 12c0 31 6 111 21 156s46 107 121 142c23 12 44 17 70 17z" />
    <glyph glyph-name="longs_l" unicode="&#x17f;l" horiz-adv-x="452" 
d="M66 67v236c0 10 -4 14 -7 15c-5 0 -17 0 -26 1c-4 1 -12 4 -12 8c0 3 5 6 12 11c7 4 17 10 25 17c4 3 8 10 8 12c0 31 5 111 21 156c15 45 45 106 121 143c23 12 44 16 70 16c25 0 48 -7 68 -15c5 -2 10 -2 14 0c7 4 10 8 19 14c6 4 7 5 11 5c2 0 4 -5 4 -16
c0 -7 -4 -176 -4 -349v-78c0 -132 0 -168 1 -186c1 -35 8 -38 34 -44c5 -1 12 -4 12 -9c0 -4 -10 -7 -20 -7c-30 0 -70 3 -85 3c-27 0 -47 -2 -74 -2c-10 0 -19 2 -19 7s7 7 15 9c27 5 34 10 35 53c3 41 6 267 7 363c0 62 0 121 -1 150c-2 25 -4 40 -13 51
c-17 20 -32 26 -52 26c-29 0 -55 -28 -64 -136c-5 -59 -5 -133 -5 -170c0 -39 3 -258 5 -286c2 -40 4 -45 36 -53c12 -4 16 -5 16 -9c0 -5 -8 -7 -18 -7c-34 0 -39 4 -106 4c-23 0 -44 -2 -61 -3c-9 0 -15 1 -15 5s5 7 18 11c25 7 30 18 30 54z" />
    <glyph glyph-name="longs_longs" unicode="&#x17f;&#x17f;" horiz-adv-x="463" 
d="M74 67v240c0 10 -5 14 -8 14c-5 0 -17 1 -25 2c-4 0 -12 3 -12 7s4 6 11 10l26 16c4 3 8 9 8 12c0 26 4 84 19 129c15 44 42 105 120 142c23 12 53 18 79 18c31 0 67 -8 90 -26c2 -2 6 -2 7 0c37 32 84 51 132 51c46 0 77 -21 77 -42c0 -15 -23 -37 -33 -41
c-3 -2 -15 0 -19 4c-20 19 -54 49 -83 49c-31 0 -56 -25 -61 -132c-2 -55 -2 -154 -2 -205c0 -38 3 -222 4 -250c2 -40 6 -45 36 -53c12 -4 16 -5 16 -9c0 -5 -8 -7 -17 -7c-35 0 -39 4 -106 4c-23 0 -45 -2 -61 -3c-9 0 -15 1 -15 5s5 7 18 11c25 7 30 18 30 54v237
c0 10 -5 14 -8 14c-5 0 -18 1 -25 2c-4 0 -12 3 -12 7s5 6 12 11c6 4 16 10 25 17c4 3 8 9 8 12c0 67 11 144 37 198c1 2 1 9 -1 11c-32 46 -67 57 -93 57c-36 0 -70 -34 -76 -143c-1 -29 -3 -110 -3 -173c0 -39 4 -224 5 -252c1 -42 8 -48 39 -53c12 -2 15 -6 15 -9
c0 -5 -7 -7 -17 -7c-31 0 -48 4 -109 4c-23 0 -44 -2 -61 -3c-8 0 -15 1 -15 5s4 7 17 10c26 8 31 19 31 55z" />
    <glyph glyph-name="longs_longs_i" unicode="&#x17f;&#x17f;i" horiz-adv-x="677" 
d="M66 67v240c0 10 -5 14 -8 14c-5 0 -17 1 -25 2c-4 0 -12 3 -12 7s4 6 11 10l26 16c4 3 8 9 8 12c0 26 4 84 19 129c15 44 42 105 120 142c23 12 53 18 79 18c30 0 66 -8 89 -26c2 -2 6 -2 8 0c36 32 84 51 131 51c46 0 78 -21 78 -42c0 -15 -23 -37 -33 -41
c-3 -2 -15 0 -19 4c-21 19 -54 49 -83 49c-31 0 -56 -25 -61 -132c-2 -55 -3 -154 -2 -205c0 -38 2 -222 3 -250c2 -40 6 -45 37 -53c12 -4 16 -5 16 -9c0 -5 -8 -7 -18 -7c-34 0 -38 4 -105 4c-23 0 -45 -2 -62 -3c-8 0 -15 1 -15 5s6 7 19 11c25 7 30 18 30 54v237
c0 10 -5 14 -8 14c-5 0 -18 1 -26 2c-3 0 -12 3 -12 7s6 6 13 11c6 4 16 10 25 17c4 3 8 9 8 12c0 67 11 144 37 198c1 2 1 9 -1 11c-32 46 -67 57 -93 57c-36 0 -70 -34 -76 -143c-1 -29 -3 -110 -3 -173c0 -39 3 -224 4 -252c2 -42 8 -48 39 -53c12 -2 16 -6 16 -9
c0 -5 -8 -7 -17 -7c-32 0 -48 4 -109 4c-23 0 -44 -2 -61 -3c-8 0 -15 1 -15 5s4 7 17 10c26 8 31 19 31 55zM490 334c0 3 4 7 16 8c38 6 76 21 93 30c8 4 12 6 16 6c3 0 5 -3 5 -14s-1 -72 -1 -114c0 -112 1 -191 3 -207s9 -25 29 -31c11 -2 14 -5 14 -9c0 -5 -7 -7 -15 -7
c-21 0 -50 4 -86 4c-44 0 -66 -2 -77 -2c-8 0 -16 3 -16 7c0 5 6 7 18 9c25 6 32 19 32 54c0 30 3 201 3 211c0 22 -1 27 -26 44c-5 4 -8 7 -8 11z" />
    <glyph glyph-name="longs_longs_l" unicode="&#x17f;&#x17f;l" horiz-adv-x="679" 
d="M64 67v240c0 10 -5 14 -8 14c-5 0 -18 1 -25 2c-4 0 -12 3 -12 7s3 6 10 10c6 4 18 10 27 16c4 3 8 9 8 12c0 26 4 84 19 129c15 44 42 105 120 142c23 12 52 18 78 18c31 0 67 -7 90 -26c2 -2 5 -1 7 0c36 34 80 51 127 51c26 0 51 -7 68 -15c5 -2 10 -2 14 0
c8 4 11 8 19 14c7 4 8 5 11 5s4 -5 4 -16c0 -7 -4 -176 -4 -349v-78c0 -132 1 -168 2 -186c1 -35 8 -38 33 -44c6 -1 13 -4 13 -9c0 -4 -10 -7 -20 -7c-30 0 -70 3 -85 3c-27 0 -47 -3 -75 -3c-10 0 -18 2 -18 7s7 7 15 9c27 6 33 10 35 54c2 40 6 267 7 363
c0 62 0 121 -1 150c-2 25 -4 40 -13 51c-18 20 -33 26 -53 26c-29 0 -54 -28 -63 -136c-5 -59 -5 -133 -5 -170c0 -119 3 -256 4 -284c2 -40 6 -46 37 -54c12 -3 16 -5 16 -9c0 -5 -8 -7 -18 -7c-34 0 -39 3 -106 3c-23 0 -44 -2 -61 -3c-8 0 -15 1 -15 5s6 7 19 11
c24 7 29 18 29 54v237c0 10 -4 14 -7 14c-5 0 -18 1 -26 2c-4 0 -12 3 -12 7s5 6 12 11c6 4 17 10 25 17c5 3 8 9 8 12c0 67 11 144 37 198c2 2 1 9 -1 11c-31 46 -66 57 -92 57c-36 0 -70 -34 -76 -143c-1 -29 -3 -110 -3 -173c0 -39 3 -224 4 -252c2 -42 8 -48 39 -53
c12 -2 16 -6 16 -9c0 -5 -8 -7 -17 -7c-32 0 -48 4 -109 4c-23 0 -44 -2 -61 -3c-9 0 -15 1 -15 5s4 7 17 10c26 8 31 19 31 55z" />
    <glyph glyph-name="longs_t" unicode="&#x17f;t" horiz-adv-x="515" 
d="M66 67v236c0 10 -4 14 -7 15c-5 0 -17 0 -26 1c-4 1 -12 4 -12 8c0 3 5 6 12 11c7 4 17 10 25 17c4 3 8 10 8 12c0 31 4 100 19 146c15 44 40 101 117 138c19 10 42 16 66 16c40 0 79 -11 106 -51c15 -21 20 -60 20 -72c0 -17 -1 -147 -1 -172c0 -3 1 -11 6 -11
c19 0 83 2 99 2c2 0 7 -3 7 -14c0 -21 -6 -28 -10 -28c-30 0 -71 2 -99 2c-1 0 -3 -3 -3 -7c0 -22 -2 -183 -1 -210c1 -23 5 -34 13 -45c14 -19 34 -23 47 -23c17 0 32 4 45 10c11 6 13 4 13 0c0 -5 -5 -14 -20 -27c-26 -21 -60 -30 -91 -30c-46 0 -78 12 -96 44
c-9 14 -13 41 -13 65l1 204c0 11 -5 15 -7 15c-5 0 -17 1 -26 2c-4 0 -11 3 -11 7c0 3 4 6 11 11c7 4 18 10 26 17c4 3 9 10 9 12c3 27 5 106 6 158c0 31 -7 64 -13 74c-15 27 -29 42 -58 42c-55 0 -64 -110 -67 -199v-160c1 -65 3 -166 5 -218c2 -38 11 -43 20 -47
c9 -2 19 -3 30 -6c12 -4 15 -5 15 -9c0 -5 -7 -7 -16 -7c-35 0 -54 4 -121 4c-23 0 -44 -2 -61 -3c-9 0 -15 1 -15 5s5 7 18 11c25 7 30 18 30 54z" />
    <glyph glyph-name="Tcommaaccent_h" unicode="&#x162;h" horiz-adv-x="935" 
d="M298 618h223c46 0 76 7 88 15c7 5 14 11 20 19c5 7 10 11 12 11c3 0 6 -4 6 -19c-1 -14 -5 -56 -6 -92c0 -16 -6 -211 -4 -226c0 -2 2 -5 5 -3c14 12 38 28 54 35c14 8 39 15 60 15c40 0 72 -13 95 -43c13 -17 24 -48 25 -105c1 -67 0 -128 2 -179c0 -17 3 -29 30 -34
c12 -2 17 -5 17 -10s-11 -7 -17 -7c-30 0 -43 5 -81 5c-50 0 -52 -4 -84 -4c-12 0 -15 4 -15 7c0 4 4 6 14 8c30 8 31 17 34 50c2 23 4 75 4 157c0 26 -3 64 -13 81c-14 24 -36 33 -62 33c-25 0 -48 -12 -60 -23c-4 -4 -9 -14 -9 -26c-2 -97 1 -200 6 -234
c3 -21 7 -32 31 -37c10 -2 17 -5 17 -9c0 -3 -6 -8 -17 -8c-30 0 -69 5 -87 5c-43 0 -55 -4 -79 -4c-11 0 -18 3 -18 7s4 7 16 10c27 6 31 13 33 45c1 35 3 130 3 267c0 150 0 212 -2 246c0 9 -4 19 -10 20c-41 2 -157 5 -175 1c-5 -2 -8 -10 -8 -19c0 -40 -2 -262 -2 -333
c0 -57 2 -152 7 -182c3 -29 11 -37 47 -46c12 -3 17 -6 17 -11s-4 -7 -17 -7c-22 0 -70 6 -118 6c-67 0 -100 -5 -115 -5c-13 0 -19 4 -19 9c0 4 10 7 21 9c50 8 55 21 58 68c5 101 5 489 4 499c-1 11 -2 14 -5 14c-8 1 -39 3 -83 3c-31 0 -55 -2 -70 -4
c-21 -4 -34 -17 -48 -57c-6 -15 -10 -19 -16 -19c-4 0 -4 7 -3 16c4 32 10 66 11 90c1 8 3 14 8 16c2 2 4 -1 8 -5c4 -5 14 -10 33 -11c14 -1 133 -5 234 -5zM277 -38c25 0 52 -21 52 -58c0 -60 -68 -85 -77 -85c-6 0 -13 0 -13 5c0 2 7 6 13 8c26 11 41 31 41 51
c0 16 -13 22 -24 26c-15 4 -25 11 -25 26c0 14 15 27 33 27z" />
    <glyph glyph-name="Tcaron_h" unicode="&#x164;h" horiz-adv-x="935" 
d="M298 618h223c46 0 76 7 88 15c7 5 14 11 20 19c5 7 10 11 12 11c3 0 6 -4 6 -19c-1 -14 -5 -56 -6 -92c0 -16 -6 -211 -4 -226c0 -2 2 -5 5 -3c14 12 38 28 54 35c14 8 39 15 60 15c40 0 72 -13 95 -43c13 -17 24 -48 25 -105c1 -67 0 -128 2 -179c0 -17 3 -29 30 -34
c12 -2 17 -5 17 -10s-11 -7 -17 -7c-30 0 -43 5 -81 5c-50 0 -52 -4 -84 -4c-12 0 -15 4 -15 7c0 4 4 6 14 8c30 8 31 17 34 50c2 23 4 75 4 157c0 26 -3 64 -13 81c-14 24 -36 33 -62 33c-25 0 -48 -12 -60 -23c-4 -4 -9 -14 -9 -26c-2 -97 1 -200 6 -234
c3 -21 7 -32 31 -37c10 -2 17 -5 17 -9c0 -3 -6 -8 -17 -8c-30 0 -69 5 -87 5c-43 0 -55 -4 -79 -4c-11 0 -18 3 -18 7s4 7 16 10c27 6 31 13 33 45c1 35 3 130 3 267c0 150 0 212 -2 246c0 9 -4 19 -10 20c-41 2 -157 5 -175 1c-5 -2 -8 -10 -8 -19c0 -40 -2 -262 -2 -333
c0 -57 2 -152 7 -182c3 -29 11 -37 47 -46c12 -3 17 -6 17 -11s-4 -7 -17 -7c-22 0 -70 6 -118 6c-67 0 -100 -5 -115 -5c-13 0 -19 4 -19 9c0 4 10 7 21 9c50 8 55 21 58 68c5 101 5 489 4 499c-1 11 -2 14 -5 14c-8 1 -39 3 -83 3c-31 0 -55 -2 -70 -4
c-21 -4 -34 -17 -48 -57c-6 -15 -10 -19 -16 -19c-4 0 -4 7 -3 16c4 32 10 66 11 90c1 8 3 14 8 16c2 2 4 -1 8 -5c4 -5 14 -10 33 -11c14 -1 133 -5 234 -5zM288 650c-6 0 -12 8 -22 18c-20 25 -65 66 -85 85c-8 7 0 10 4 9c28 -8 80 -42 102 -57c4 -3 8 0 10 1
c27 18 77 50 100 57c6 2 16 0 4 -9c-17 -14 -63 -55 -93 -88c-9 -9 -16 -16 -20 -16z" />
    <glyph glyph-name="gamma_gamma" unicode="&#x3b3;&#x3b3;" horiz-adv-x="755" 
d="M461 378c44 0 89 -17 104 -126c6 -31 11 -116 8 -168c0 -7 7 -6 11 0c24 49 64 135 84 185c20 51 27 94 29 113c1 4 11 4 14 3c16 -10 33 -29 36 -47c4 -21 -3 -47 -10 -60c-28 -60 -90 -147 -120 -198c-16 -27 -28 -61 -31 -80c-1 -5 -4 -36 -3 -59
c-1 -50 -6 -176 -8 -187c-1 -6 -11 -12 -18 -12c-19 0 -47 23 -60 47c-7 14 -8 26 -7 36c5 35 33 110 53 166c7 19 13 59 13 80c1 100 -30 216 -109 216c-83 0 -146 -101 -185 -206c-12 -30 -17 -62 -21 -81c-1 -5 -4 -30 -4 -52c-2 -53 -12 -200 -16 -214
c-3 -7 -12 -13 -18 -13c-20 0 -47 24 -60 48c-7 13 -8 26 -7 35c5 36 44 131 63 187c8 19 12 59 12 80c2 115 -37 213 -117 213c-30 0 -57 -13 -78 -36c-3 -2 -9 -6 -11 -6c-3 1 -5 6 -5 10c1 19 9 43 21 62c21 34 60 64 98 64c45 0 91 -18 108 -127c5 -31 8 -104 3 -165
c0 -6 5 -6 8 0c29 79 104 292 223 292z" />
    <glyph glyph-name="lambda_lambda" unicode="&#x3bb;&#x3bb;" horiz-adv-x="693" 
d="M86 658c48 0 75 -37 100 -129c13 -46 68 -339 86 -406c12 -45 28 -54 45 -54c7 0 20 12 35 39c42 76 90 169 103 194c10 20 33 54 38 58c4 4 6 12 6 16c-9 58 -24 106 -45 147c-27 50 -62 82 -118 82c-33 0 -50 -6 -75 -19c-3 -3 -9 4 -7 9c2 13 12 28 21 39
c20 26 53 48 94 48c69 0 97 -56 125 -146c12 -45 68 -343 86 -410c13 -44 27 -53 65 -53c16 0 36 7 49 13c3 2 5 -5 5 -10c0 -15 -6 -38 -11 -51c-15 -30 -39 -41 -55 -41c-31 0 -44 33 -57 69c-14 42 -51 203 -53 212c-1 5 -2 9 -4 9s-4 -5 -5 -7c-2 -7 -91 -214 -108 -239
c-16 -26 -36 -44 -63 -44c-38 0 -63 33 -76 69c-15 42 -52 201 -54 210c-1 5 -2 9 -4 9c-1 0 -3 -6 -4 -8c-5 -14 -83 -230 -88 -239c-4 -12 -21 -41 -31 -41c-9 0 -49 13 -63 24c-6 4 -12 19 -10 22c6 22 118 247 129 267c8 20 35 61 41 65c4 4 6 13 6 16
c-10 60 -13 96 -34 137c-27 52 -70 62 -107 62c-22 0 -41 -5 -53 -9c-4 -2 -8 7 -6 13c2 12 12 29 20 39c18 19 42 38 77 38z" />
    <glyph glyph-name=".notdef" horiz-adv-x="500" 
d="M0 0v700h500v-700h-500zM250 395l170 255h-340zM280 350l170 -255v510zM80 50h340l-170 255zM50 605v-510l170 255z" />
    <glyph glyph-name="space" unicode=" " horiz-adv-x="143" 
 />
    <glyph glyph-name="exclam" unicode="!" horiz-adv-x="283" 
d="M168 179c-6 0 -10 5 -13 26c-13 117 -53 221 -54 293c0 40 27 88 67 88c44 0 66 -46 66 -85c0 -66 -42 -196 -54 -293c-3 -25 -8 -29 -12 -29zM169 -13c-32 0 -58 27 -59 61c0 35 28 62 59 62c37 0 57 -34 57 -62c0 -38 -33 -61 -57 -61z" />
    <glyph glyph-name="quotedbl" unicode="&#x22;" horiz-adv-x="245" 
d="M85 653c8 0 13 -6 13 -31c0 -30 -12 -113 -25 -145c-2 -5 -10 -24 -15 -24c-5 -1 -7 4 -7 7c-2 48 -9 116 -16 143c0 1 0 13 4 17c9 11 36 33 46 33zM197 659c8 0 13 -5 13 -31c0 -30 -12 -114 -25 -146c-2 -6 -10 -24 -15 -25s-7 5 -7 8c-2 47 -9 117 -16 144
c0 2 0 13 4 17c9 11 34 33 46 33z" />
    <glyph glyph-name="numbersign" unicode="#" horiz-adv-x="394" 
d="M360 413c-1 -6 -9 -37 -16 -37l-61 -4c-1 0 -6 -4 -7 -9l-21 -84c-1 -2 1 -6 3 -5l60 3c3 0 10 -4 8 -10c-1 -13 -10 -43 -19 -43l-62 -3c-5 0 -7 -5 -7 -6l-34 -134c-2 -6 -6 -13 -10 -13c-5 0 -11 5 -9 13l32 131c1 4 -3 6 -6 6l-76 -4c-2 0 -7 -5 -7 -7l-38 -140
c-2 -7 -6 -9 -8 -9c-6 0 -12 8 -11 11l35 138c1 4 -2 6 -4 6l-63 -2c-3 0 -5 6 -5 8c2 18 12 44 19 44l59 4c3 0 5 1 7 5l20 85c1 5 -1 9 -6 8l-59 -3c0 -1 -8 0 -5 16c1 6 9 34 14 35l66 5c5 0 9 2 8 5l32 118c1 6 10 11 16 11c4 0 5 -6 5 -9l-31 -119c-1 -2 2 -4 3 -4
l81 5c4 0 6 3 8 7l32 115c1 5 11 14 15 14c5 0 7 -6 5 -14l-30 -114c-1 -6 3 -7 5 -7l56 2c4 0 8 -9 6 -15zM255 365c1 3 -2 6 -5 5l-82 -4c-4 0 -7 -3 -7 -6l-22 -86c0 -2 2 -7 6 -6l79 4c3 0 7 1 8 6z" />
    <glyph glyph-name="dollar" unicode="$" horiz-adv-x="432" 
d="M226 251l-21 -199c0 -2 -1 -5 3 -5c56 4 102 41 102 106c0 25 -15 66 -80 100c-3 2 -4 -1 -4 -2zM219 385l21 191c0 1 -1 2 -3 2c-62 -5 -92 -44 -92 -103c0 -44 25 -69 69 -93c2 -2 4 -1 5 3zM242 595l7 60c0 1 6 8 11 8c6 0 6 -8 6 -9l-6 -56c0 -3 1 -6 4 -6
c43 -3 79 -14 84 -15c10 -4 14 -14 16 -25c4 -17 7 -38 7 -50c0 -13 -1 -22 -5 -22c-5 0 -7 5 -9 13c-12 48 -58 77 -94 83c-2 1 -5 -3 -5 -4l-21 -195c0 -2 1 -6 3 -8c88 -46 149 -91 149 -184c0 -53 -30 -93 -66 -116c-26 -18 -71 -35 -118 -37c-1 0 -4 -1 -4 -4l-7 -66
c-1 -4 -5 -9 -10 -9c-4 0 -7 6 -7 10l6 64c0 2 0 5 -2 5c-33 1 -87 16 -117 26c-4 0 -10 8 -14 27c-3 14 -8 55 -8 64c0 10 2 16 7 16c3 0 9 -12 14 -25c19 -53 69 -91 119 -93c3 0 4 5 4 6l22 207c0 4 -3 6 -5 7c-78 48 -134 91 -134 183c0 39 19 73 49 99
c33 28 70 39 120 43c1 0 3 0 4 3z" />
    <glyph glyph-name="percent" unicode="%" horiz-adv-x="560" 
d="M418 87c37 1 41 79 41 117c0 39 -9 131 -49 131c-37 0 -42 -77 -42 -116c0 -40 11 -133 50 -132zM412 71c-76 0 -111 73 -111 133c0 34 7 69 28 98c22 31 52 48 89 48c78 0 108 -77 108 -130c0 -44 -7 -76 -24 -100c-22 -32 -51 -49 -90 -49zM456 588c7 0 4 -11 -1 -19
c-120 -186 -204 -317 -319 -490c-5 -8 -18 -13 -20 -10c-3 5 3 15 9 25c114 169 199 306 306 471c13 20 19 23 25 23zM161 315c37 1 40 79 40 117c0 39 -8 131 -49 131c-35 0 -40 -75 -40 -115c0 -41 11 -135 49 -133zM155 301c-78 0 -111 74 -111 133c0 35 9 69 29 98
c21 29 49 46 88 46c73 0 108 -77 108 -131c0 -47 -10 -79 -27 -102c-26 -32 -57 -44 -87 -44z" />
    <glyph glyph-name="ampersand" unicode="&#x26;" horiz-adv-x="747" 
d="M264 589c91 0 134 -58 134 -107c0 -34 -22 -53 -35 -63c-12 -10 -41 -26 -61 -40c-6 -4 -5 -8 -1 -9c79 -51 160 -141 182 -162c4 -3 8 -2 12 3c6 8 46 68 103 168c13 23 -5 35 -33 40c-15 2 -18 8 -18 10c0 5 7 9 22 7c53 -4 96 4 145 9c19 2 23 0 23 -4
c0 -5 -4 -10 -19 -15c-30 -8 -55 -12 -96 -65c-24 -32 -95 -139 -114 -167c-4 -8 -3 -11 2 -16c76 -107 116 -127 159 -127c24 0 29 2 49 8c8 2 9 -2 9 -5c1 -5 -4 -10 -17 -21c-28 -28 -77 -44 -139 -44c-44 0 -64 11 -87 37c-19 23 -31 41 -47 60c-3 5 -7 6 -10 3
c-13 -16 -40 -47 -63 -63c-53 -34 -91 -43 -142 -43c-43 0 -99 18 -136 58c-22 23 -49 67 -49 118c0 40 12 76 53 115c27 25 65 49 85 63c4 2 2 8 -1 10c-37 39 -54 74 -53 116c0 34 21 70 53 96c24 19 65 30 90 30zM290 45c63 0 95 22 126 60c3 5 4 8 1 14
c-49 77 -202 193 -216 203c-5 5 -10 2 -11 0c-27 -30 -50 -54 -49 -117c-1 -93 86 -160 149 -160zM259 573c-27 0 -54 -22 -54 -75c0 -35 26 -81 69 -108c4 -4 8 -3 13 -1c17 22 34 52 34 99c0 44 -29 85 -62 85z" />
    <glyph glyph-name="quoteright" unicode="&#x2019;" horiz-adv-x="155" 
d="M64 656c38 0 69 -32 69 -79c0 -80 -84 -109 -101 -109c-7 0 -11 2 -11 5c0 2 3 5 8 8c27 12 59 33 59 71c0 21 -10 37 -38 45c-17 5 -24 11 -24 25c0 19 19 34 38 34z" />
    <glyph glyph-name="parenleft" unicode="(" horiz-adv-x="292" 
d="M93 265c0 -194 62 -327 148 -432c8 -10 13 -16 8 -21c-2 -3 -8 -5 -18 -5c-7 0 -20 2 -30 16c-103 125 -145 279 -145 421c0 200 88 358 160 432c7 8 19 16 25 16c5 0 9 -2 9 -5c1 -3 -3 -8 -10 -16c-88 -94 -147 -253 -147 -406z" />
    <glyph glyph-name="parenright" unicode=")" horiz-adv-x="292" 
d="M199 233c0 194 -59 327 -148 432c-9 10 -13 17 -8 22c2 2 8 5 18 5c7 0 19 -3 30 -17c102 -120 144 -278 144 -421c0 -199 -87 -358 -159 -432c-7 -7 -19 -15 -25 -15c-5 0 -9 1 -10 4c0 3 3 8 11 16c87 95 147 254 147 406z" />
    <glyph glyph-name="asterisk" unicode="*" horiz-adv-x="273" 
d="M124 615c2 0 6 -3 8 -10c6 -21 14 -53 18 -70c1 -6 3 -5 5 -1c6 9 32 43 40 53c6 7 9 8 11 8c4 0 1 -9 -1 -13c-6 -14 -34 -58 -36 -62c-1 -2 0 -4 2 -4c7 2 74 10 77 10c5 0 12 -1 12 -4c0 -2 -4 -6 -10 -8c-12 -4 -54 -14 -76 -17c-3 0 -3 -2 -1 -3
c14 -9 39 -28 55 -41c7 -5 11 -7 11 -14c0 -4 -9 -2 -17 2l-64 36c-1 0 -2 -1 -2 -3l7 -41c3 -22 4 -31 4 -36c0 -3 -2 -11 -5 -11c-1 0 -6 2 -8 10c-2 5 -12 43 -18 76c0 4 -3 4 -4 2c-20 -30 -42 -57 -47 -61c-4 -4 -6 -6 -10 -6c-7 0 -2 11 10 31c12 16 26 38 30 46
c1 1 2 4 -3 3c-5 0 -60 -7 -69 -7c-8 0 -13 1 -13 5c0 2 4 7 13 9c25 6 37 10 67 15c4 1 3 2 2 3c-21 15 -52 37 -63 51c-4 5 1 8 7 6c4 -1 52 -27 72 -42c1 -1 2 0 2 2c-5 31 -9 64 -10 75c0 7 2 11 4 11z" />
    <glyph glyph-name="plus" unicode="+" horiz-adv-x="410" 
d="M188 353c0 6 24 10 27 10c4 0 10 1 10 -12v-138c0 -2 2 -7 5 -7h138c3 0 5 -1 5 -7c0 -11 -4 -26 -8 -26l-135 -1c-3 0 -5 -6 -5 -11l-1 -143c0 -4 -16 -9 -27 -9c-2 0 -10 0 -10 6v150c0 6 -1 7 -4 7l-140 1c-5 0 -6 2 -6 6c0 9 5 26 11 26l134 1c4 0 5 6 5 8z" />
    <glyph glyph-name="comma" unicode="," horiz-adv-x="190" 
d="M87 105c41 0 67 -39 67 -85c0 -83 -82 -117 -101 -120c-10 -3 -17 -1 -17 2s3 6 9 9c27 12 62 34 62 76c0 22 -13 32 -35 37s-32 14 -32 36c0 25 24 45 47 45z" />
    <glyph glyph-name="hyphen" unicode="-" horiz-adv-x="241" 
d="M46 202c6 1 137 13 159 14c2 0 6 -3 6 -6c0 -5 0 -23 -6 -32c-1 -3 -8 -6 -9 -6c-11 -2 -146 -11 -157 -11c-6 0 -8 2 -8 7c0 4 0 20 4 27c3 4 6 6 11 7z" />
    <glyph glyph-name="period" unicode="." horiz-adv-x="190" 
d="M95 -13c-31 0 -54 28 -54 58c0 32 25 57 55 57c33 0 53 -28 53 -56c0 -38 -30 -59 -54 -59z" />
    <glyph glyph-name="slash" unicode="/" horiz-adv-x="370" 
d="M36 -58c91 232 181 479 269 711c2 4 18 16 24 16c5 0 7 -4 0 -21c-88 -231 -242 -649 -267 -702c-4 -8 -17 -20 -24 -20c-4 0 -7 1 -2 16z" />
    <glyph glyph-name="zero" unicode="0" horiz-adv-x="432" 
d="M221 598c136 0 178 -182 178 -296c0 -174 -52 -258 -102 -291c-23 -15 -50 -23 -79 -23c-136 0 -185 179 -185 295c0 157 41 253 121 299c21 11 42 16 67 16zM213 583c-12 0 -25 -9 -33 -25c-18 -37 -38 -104 -38 -238c0 -163 21 -318 82 -318c14 0 29 6 43 49
c12 39 25 127 25 227c0 153 -26 305 -79 305z" />
    <glyph glyph-name="one" unicode="1" horiz-adv-x="432" 
d="M111 558c0 3 6 6 14 7c44 6 99 14 127 26c9 3 17 7 22 7c2 0 4 -1 4 -7c0 -13 -1 -102 -3 -167c-1 -84 1 -294 3 -337c3 -62 8 -68 50 -75c11 -2 16 -6 16 -10s-6 -7 -19 -7c-51 0 -82 5 -117 5c-49 0 -68 -5 -103 -5c-9 0 -17 2 -17 8c0 4 6 6 16 8c47 8 56 17 58 76
c3 31 5 85 5 256c0 121 -1 154 -3 179c-1 11 -5 18 -13 22c-8 3 -15 4 -25 6c-6 1 -15 4 -15 8z" />
    <glyph glyph-name="two" unicode="2" horiz-adv-x="432" 
d="M199 598c96 0 149 -75 149 -148c0 -52 -17 -107 -72 -175c-62 -76 -99 -115 -152 -173c-3 -3 -2 -8 4 -9c21 -5 80 -5 146 -5c43 0 70 2 82 4c17 2 29 8 44 29c7 12 11 14 13 14c5 0 4 -13 -1 -23c-9 -19 -31 -98 -33 -106c-2 -9 -16 -10 -22 -10c-28 0 -161 4 -204 4
c-16 0 -90 -1 -97 -1c-23 0 -34 2 -37 6s4 12 10 19c44 46 90 94 141 165c53 73 80 133 80 215c0 62 -37 123 -102 123c-38 0 -72 -14 -103 -50c-7 -8 -11 -12 -15 -12c-6 0 -4 10 1 20c17 32 42 59 64 76c24 20 65 37 104 37z" />
    <glyph glyph-name="three" unicode="3" horiz-adv-x="432" 
d="M166 544c-30 0 -62 -15 -87 -46c-10 -11 -13 -12 -14 -12c-5 0 -6 6 -1 14c32 58 95 98 156 98c85 0 125 -61 125 -108c0 -59 -41 -98 -99 -132c-2 -2 -1 -5 2 -5h11c32 -1 75 -14 102 -41c25 -25 40 -57 40 -106c0 -71 -47 -159 -158 -218c-36 -19 -85 -36 -123 -36
c-36 0 -85 18 -85 46c0 5 11 20 28 31c3 2 10 2 13 -1c13 -11 51 -40 103 -40c31 0 55 10 73 25c25 20 55 65 55 129c0 54 -22 99 -45 120c-27 25 -49 33 -76 33c-11 0 -31 -4 -42 -8c-10 -3 -17 -5 -17 0s3 11 9 14c13 7 24 12 44 25c46 28 73 58 73 114
c0 66 -36 104 -87 104z" />
    <glyph glyph-name="four" unicode="4" horiz-adv-x="432" 
d="M343 399v-186c0 -3 2 -6 4 -6c17 0 63 1 78 2c0 0 3 -2 3 -6s-3 -25 -10 -28l-70 -1c-1 0 -5 -3 -5 -7c0 -24 0 -61 1 -87c2 -51 5 -60 41 -66c9 -1 17 -4 17 -9c0 -2 -4 -8 -17 -8c-23 -1 -72 3 -98 3c-40 0 -70 -4 -98 -4c-9 0 -17 5 -17 7c0 5 6 8 18 10
c38 6 42 13 46 74c2 24 2 58 2 78c0 3 -1 8 -5 8c-107 0 -191 -2 -215 -4c-7 0 -12 4 -12 8c0 3 3 6 14 24l298 420c5 8 11 12 16 13h8c15 0 8 -9 3 -17l-293 -405c0 -2 1 -4 4 -5c9 -3 119 -3 178 -3c1 0 4 2 4 5v161c0 7 1 20 9 27c9 7 63 28 86 28c7 0 10 -8 10 -26z" />
    <glyph glyph-name="five" unicode="5" horiz-adv-x="432" 
d="M330 604c9 5 11 -3 9 -7c-11 -20 -27 -54 -38 -83c-2 -5 -11 -13 -18 -14c-43 -6 -129 -12 -176 -16c-4 0 -9 -3 -11 -5c-4 -6 -12 -30 -13 -36s1 -10 10 -13c37 -11 123 -41 176 -71c78 -44 115 -106 115 -170c0 -81 -41 -134 -86 -169c-68 -51 -162 -70 -205 -70
c-8 0 -16 0 -20 1c-6 1 -9 3 -9 6c0 5 4 7 17 8c89 13 212 65 212 182c0 57 -30 106 -102 137c-41 17 -102 34 -138 43c-5 2 -6 9 -6 15c1 47 44 181 64 218c3 5 14 10 16 10c28 5 79 11 128 18c31 4 63 7 75 16z" />
    <glyph glyph-name="six" unicode="6" horiz-adv-x="432" 
d="M414 631c9 0 14 -2 14 -4s-2 -8 -14 -11c-168 -76 -278 -258 -278 -427c0 -65 12 -109 34 -140c19 -28 48 -43 73 -43c31 0 75 24 75 120c0 82 -40 145 -101 145c-20 0 -36 -10 -46 -14c-3 -3 -13 -7 -13 -1c0 4 2 9 8 15c10 9 36 28 62 41c14 8 35 14 54 14
c75 0 123 -60 123 -139c0 -74 -33 -130 -88 -168c-27 -19 -70 -32 -105 -32c-122 0 -186 87 -186 204c0 138 95 282 224 371c54 35 134 69 164 69z" />
    <glyph glyph-name="seven" unicode="7" horiz-adv-x="432" 
d="M205 586c105 0 137 1 147 1c28 1 47 2 55 2c4 0 11 -1 12 -4s-1 -8 -3 -11c-11 -14 -43 -71 -78 -143c-74 -155 -150 -318 -224 -471c-3 -5 -7 -12 -10 -12c-8 0 -13 7 -13 14s7 22 17 41c80 161 164 335 233 479c2 3 -1 7 -3 7c-13 2 -48 3 -139 3c-66 0 -89 0 -113 -2
c-35 -3 -39 -6 -53 -25c-5 -6 -10 -12 -15 -12s-7 8 1 21c6 12 27 60 33 98c1 9 3 17 5 20c3 3 8 1 13 0c16 -4 56 -6 135 -6z" />
    <glyph glyph-name="eight" unicode="8" horiz-adv-x="432" 
d="M220 610c98 0 162 -58 162 -138c0 -41 -20 -71 -49 -95c-18 -14 -35 -25 -56 -40c-2 -1 -2 -3 0 -5c53 -42 112 -93 112 -176c0 -61 -31 -105 -70 -133c-32 -24 -73 -36 -105 -36c-95 0 -171 59 -171 147c0 50 27 82 65 112c14 11 31 20 46 31c3 1 3 5 1 6
c-39 35 -105 92 -105 170c0 58 26 98 69 127c29 19 64 30 101 30zM208 596c-41 0 -77 -46 -77 -99s64 -110 127 -151c4 -2 6 0 7 1c18 18 44 59 44 119c0 45 -31 130 -101 130zM225 2c18 0 34 5 47 15c21 15 36 41 36 83c0 64 -65 121 -130 169c-3 2 -8 1 -9 -1
c-33 -24 -52 -67 -52 -120c0 -82 59 -146 108 -146z" />
    <glyph glyph-name="nine" unicode="9" horiz-adv-x="432" 
d="M228 598c126 0 179 -119 179 -210c0 -175 -101 -304 -217 -385c-56 -40 -125 -58 -138 -58c-8 0 -11 1 -11 3c0 4 4 7 13 11c52 27 88 53 141 120c55 68 105 186 105 295c0 89 -32 202 -111 202c-13 0 -28 -6 -39 -16c-18 -16 -35 -44 -35 -89c0 -107 64 -151 113 -151
c13 0 33 4 49 13c5 3 10 4 10 -1s-5 -13 -14 -22c-27 -27 -71 -52 -113 -52c-75 0 -133 60 -133 146c0 64 32 128 103 168c34 20 69 26 98 26z" />
    <glyph glyph-name="colon" unicode=":" horiz-adv-x="248" 
d="M123 -12c-29 0 -51 25 -52 55c0 31 25 54 54 54c32 0 52 -27 52 -54c0 -35 -31 -55 -54 -55zM123 230c-29 0 -51 25 -52 55c0 31 25 55 54 55c32 0 52 -28 52 -55c0 -35 -31 -55 -54 -55z" />
    <glyph glyph-name="semicolon" unicode=";" horiz-adv-x="248" 
d="M123 231c-29 0 -51 25 -52 55c0 31 25 54 54 54c32 0 52 -27 52 -54c0 -35 -31 -55 -54 -55zM115 104c41 0 66 -41 66 -87c0 -84 -85 -114 -100 -117c-9 -3 -16 -2 -16 3c0 3 3 5 9 7c23 14 61 31 61 77c0 22 -13 29 -34 36c-20 8 -32 17 -32 36c0 23 22 45 46 45z" />
    <glyph glyph-name="less" unicode="&#x3c;" horiz-adv-x="410" 
d="M340 72c1 -1 2 -4 1 -8s-7 -18 -12 -22c-1 -2 -8 -1 -12 1l-220 120c-24 14 -29 17 -29 21c0 3 2 7 9 11c6 4 16 10 241 140c7 4 11 3 13 1c4 -4 9 -17 10 -21c0 -2 0 -5 -4 -8l-204 -116c-3 -2 -6 -5 -1 -8z" />
    <glyph glyph-name="equal" unicode="=" horiz-adv-x="410" 
d="M368 143c3 0 5 -2 5 -8c0 -12 -5 -25 -8 -25h-320c-7 0 -9 3 -9 6c0 10 5 27 9 27h323zM369 268c1 0 4 -2 4 -8c0 -9 -4 -25 -7 -25h-322c-4 0 -6 5 -6 6c0 10 5 26 10 26c107 1 215 2 321 1z" />
    <glyph glyph-name="greater" unicode="&#x3e;" horiz-adv-x="410" 
d="M69 307c-1 1 -2 4 -1 8s8 18 13 22c1 2 8 1 12 -1l220 -120c24 -14 29 -17 29 -21c0 -3 -2 -7 -9 -11c-6 -4 -16 -10 -241 -140c-7 -4 -11 -3 -13 -1c-4 4 -10 17 -11 21c0 2 0 5 5 8l203 116c3 2 6 5 1 8z" />
    <glyph glyph-name="question" unicode="?" horiz-adv-x="358" 
d="M199 507c-19 0 -47 -10 -55 -13c-10 -5 -20 -4 -30 4c-11 13 -21 47 -21 61c0 12 11 23 42 23c52 0 101 -49 130 -87c37 -48 50 -93 50 -136c0 -34 -14 -64 -53 -84c-23 -11 -38 -17 -58 -25c-33 -15 -36 -32 -36 -52c0 -8 -2 -15 -7 -15s-9 9 -11 18
c-7 20 -17 65 -17 97c0 16 8 34 25 46c26 18 54 28 80 42c28 15 33 36 33 51c0 39 -25 70 -72 70zM178 110c37 0 58 -33 58 -61c0 -39 -34 -62 -58 -62c-33 0 -58 28 -59 62c0 33 26 61 59 61z" />
    <glyph glyph-name="at" unicode="@" horiz-adv-x="749" 
d="M453 13c-59 0 -74 18 -74 27c0 10 1 16 6 27l31 73c0 2 -1 2 -4 1c-67 -71 -141 -128 -184 -128c-23 0 -30 20 -30 40c1 27 21 77 85 154c35 42 124 123 173 123c7 0 20 -4 27 -10c1 -1 3 -1 6 3l11 22c5 8 9 8 12 8c13 1 26 -6 37 -12c5 -3 6 -10 5 -14
c-21 -46 -83 -203 -97 -257c-7 -25 6 -36 26 -36c99 0 186 91 186 217c0 150 -105 242 -243 242c-200 0 -328 -173 -328 -362c0 -127 73 -277 268 -279c64 -1 131 19 185 61c8 6 11 7 11 1c0 -3 -5 -12 -12 -18c-62 -57 -143 -69 -211 -69c-150 0 -293 103 -292 297
c0 230 192 386 383 386c180 0 273 -115 273 -250c0 -126 -106 -247 -250 -247zM423 295c-22 0 -42 -9 -67 -39c-49 -57 -75 -118 -74 -167c0 -15 8 -21 15 -21c8 0 27 6 68 46c48 47 83 112 97 145c3 9 4 10 1 16c-8 13 -25 20 -40 20z" />
    <glyph glyph-name="A" unicode="A" horiz-adv-x="645" 
d="M351 638c4 0 8 -7 8 -14c1 -13 11 -47 24 -80c51 -139 134 -357 184 -465c23 -51 35 -59 58 -65c14 -3 18 -7 18 -11s-11 -7 -19 -7c-27 0 -53 4 -101 4c-61 0 -90 -5 -120 -5c-13 0 -21 1 -21 7s8 9 20 11c27 4 47 16 43 43c-6 29 -35 111 -62 180c-3 7 -10 10 -15 10
h-164c-9 0 -12 -6 -16 -15c-11 -26 -37 -96 -47 -135c-9 -30 -9 -51 0 -62c11 -13 24 -15 46 -21c10 -3 15 -7 15 -10c0 -6 -9 -7 -23 -7c-20 0 -55 4 -89 4c-25 0 -48 -5 -78 -5c-11 0 -18 1 -18 7c0 5 10 7 20 10c45 9 61 22 98 104c32 72 115 283 165 420c3 13 4 20 4 27
c0 3 1 8 5 9c23 11 49 38 55 56c3 7 5 10 10 10zM360 280c3 0 3 5 1 12c-28 82 -64 170 -72 189c-5 11 -7 7 -10 1c-13 -31 -57 -157 -70 -196c-2 -6 0 -8 3 -8c24 -1 47 -1 76 -1c36 0 64 1 72 3z" />
    <glyph glyph-name="B" unicode="B" horiz-adv-x="560" 
d="M30 613c0 4 9 7 19 7c26 -1 73 0 95 2c45 5 89 8 124 8c127 0 211 -51 211 -157c0 -40 -20 -77 -47 -96c-18 -14 -32 -20 -45 -26c-6 -3 -3 -7 0 -9c34 -12 61 -28 81 -44c32 -27 53 -68 53 -122c0 -74 -45 -130 -116 -160c-19 -9 -63 -22 -138 -22c-18 0 -55 1 -98 2
c-45 2 -65 2 -90 2l-42 -1c-10 0 -19 3 -19 8s6 7 17 9c35 4 54 21 57 57c3 27 3 167 3 277c0 62 -1 162 -1 201c-1 37 -8 42 -47 54c-11 2 -17 5 -17 10zM400 161c0 29 -3 78 -45 122c-28 32 -56 43 -93 43c-15 0 -38 0 -46 -2c-8 -1 -11 -5 -11 -11c-5 -26 -2 -156 2 -194
c3 -34 5 -64 17 -77c12 -14 41 -30 67 -30c16 0 29 4 37 8c37 22 72 60 72 141zM368 468c0 98 -67 144 -120 144c-13 0 -28 -3 -34 -4c-3 -1 -7 -12 -7 -15c-3 -21 -4 -194 -2 -236c1 -6 4 -10 18 -12c15 -1 42 1 55 4c40 8 90 45 90 119z" />
    <glyph glyph-name="C" unicode="C" horiz-adv-x="658" 
d="M402 636c77 0 154 -24 190 -41c11 -5 13 -13 12 -19c-2 -22 3 -73 4 -82c0 -11 -5 -16 -7 -16c-3 0 -7 5 -9 13c-8 35 -29 67 -48 81c-38 30 -83 46 -148 46c-38 0 -99 -20 -143 -64c-56 -61 -82 -149 -82 -240c0 -76 27 -175 86 -238c46 -51 107 -72 157 -72
c58 0 89 13 112 28c37 22 57 55 74 94c4 10 6 15 11 15c4 0 5 -11 5 -15c0 -17 -11 -62 -14 -73c-3 -10 -5 -20 -13 -24c-59 -31 -106 -47 -191 -47c-126 0 -213 43 -269 100c-47 47 -85 134 -85 224c0 118 46 187 110 245c53 49 147 85 248 85z" />
    <glyph glyph-name="D" unicode="D" horiz-adv-x="697" 
d="M28 611c0 7 9 8 22 8c42 0 85 0 126 5c28 3 83 6 108 6c88 0 159 -11 227 -54c76 -48 142 -131 142 -257c0 -208 -140 -293 -269 -321c-35 -8 -78 -10 -101 -10c-24 0 -51 3 -79 5c-30 1 -58 5 -90 5c-27 0 -62 -2 -71 -2c-11 0 -20 2 -20 8c0 4 5 6 18 8
c37 8 46 14 50 54c3 22 5 66 5 214c0 181 -1 240 -4 270c-3 37 -10 45 -43 52c-8 2 -21 3 -21 9zM264 611c-13 0 -31 -3 -40 -7c-8 -3 -11 -11 -12 -30c-2 -31 -3 -65 -3 -250c0 -91 2 -163 6 -212c3 -37 11 -64 36 -82c14 -12 42 -23 63 -23c29 0 62 7 89 23
c54 33 124 119 124 274c0 86 -29 181 -94 239c-59 53 -108 68 -169 68z" />
    <glyph glyph-name="E" unicode="E" horiz-adv-x="520" 
d="M29 616c0 4 8 7 18 7c25 0 78 -5 99 -5c71 0 187 3 227 3c37 0 54 2 62 2c5 0 11 -9 12 -16l10 -77c0 -6 -2 -15 -5 -15c-4 0 -9 3 -13 13c-14 37 -41 64 -59 68c-15 3 -101 4 -158 3c-7 0 -11 -3 -11 -43c-1 -31 -1 -152 -1 -219c0 -5 3 -10 7 -10h103c34 0 55 2 65 7
c9 6 16 17 27 44c1 4 5 12 10 12c4 0 5 -9 5 -12c0 -6 -4 -47 -5 -60s2 -52 2 -59c1 -14 -3 -19 -6 -19s-6 4 -11 18c-5 11 -12 35 -30 37c-26 3 -47 5 -161 5c-3 0 -6 -5 -6 -11c0 -52 4 -201 4 -220c0 -11 9 -37 24 -42c14 -4 34 -7 91 -7c53 0 83 -2 107 22
c14 14 31 39 41 52c8 10 12 16 17 16c4 0 5 -9 2 -20c-4 -12 -19 -70 -24 -79c-4 -9 -13 -15 -22 -15c-106 0 -217 4 -297 4c-34 0 -101 -5 -112 -5c-13 0 -19 3 -19 7c0 5 7 7 18 10c29 5 50 15 51 61c6 154 5 293 5 460c0 54 -13 67 -50 73c-10 2 -17 6 -17 10z" />
    <glyph glyph-name="F" unicode="F" horiz-adv-x="492" 
d="M159 618c127 0 243 4 282 4c12 0 17 -11 17 -18c2 -10 5 -69 6 -76c1 -9 0 -20 -7 -20c-3 0 -6 3 -11 18c-15 43 -39 67 -79 70c-30 2 -66 2 -146 2c-5 0 -8 -9 -9 -14c-2 -28 -4 -201 -2 -254c0 -6 5 -12 9 -12c111 0 130 -1 147 3c19 5 28 13 42 45c4 9 7 14 11 14
c5 0 6 -7 5 -15c0 -11 -5 -41 -5 -66c0 -26 3 -46 4 -56c1 -12 -2 -19 -7 -19s-10 12 -14 20c-13 34 -25 40 -37 43c-17 4 -54 5 -146 5c-3 0 -9 -6 -9 -12c-2 -23 1 -172 3 -216c1 -35 10 -41 54 -51c7 -2 14 -6 14 -11c0 -6 -12 -7 -22 -7c-23 0 -70 5 -113 5
c-48 0 -69 -4 -97 -4c-15 0 -21 3 -21 8c0 4 8 8 20 10c35 8 42 18 44 52c3 32 3 142 3 250c0 104 0 178 -2 237c-2 36 -11 45 -43 53c-9 3 -16 6 -16 10c0 5 3 7 17 7c18 0 63 -5 108 -5z" />
    <glyph glyph-name="G" unicode="G" horiz-adv-x="696" 
d="M409 636c49 0 91 -9 121 -16c27 -7 52 -16 67 -21c6 -1 9 -13 10 -21c3 -16 10 -74 12 -87c2 -14 -3 -20 -6 -20c-5 0 -9 4 -13 18c-24 74 -89 130 -193 130c-56 0 -113 -22 -157 -72c-48 -52 -79 -141 -79 -239c0 -120 52 -206 103 -252c41 -38 82 -55 128 -55
c20 0 58 8 84 33c5 7 12 24 13 52c1 17 4 89 1 118c-3 33 -15 44 -53 52c-10 1 -21 4 -21 9c0 6 8 8 26 8c35 0 61 -4 115 -4c24 0 70 3 77 3c13 0 20 -3 20 -6c0 -7 -9 -11 -24 -14c-20 -5 -25 -16 -25 -68c0 -67 4 -109 4 -122s1 -20 -7 -24c-17 -8 -34 -14 -53 -22
c-44 -17 -113 -34 -157 -34c-102 0 -193 35 -250 83c-72 63 -108 147 -108 238c0 105 43 192 136 263c44 33 115 70 229 70z" />
    <glyph glyph-name="H" unicode="H" horiz-adv-x="739" 
d="M95 313c0 50 -1 186 -3 220c-3 55 -5 65 -44 75c-10 2 -15 6 -15 9c0 5 6 7 17 7c16 0 65 -6 94 -6c45 0 89 5 106 5c12 0 18 -3 18 -7c0 -3 -5 -8 -14 -10c-33 -7 -38 -18 -41 -57c-1 -25 -4 -185 -2 -203c0 -11 2 -17 9 -18h210c66 0 78 2 84 2c10 1 11 3 12 19
c0 26 -2 141 -4 176c-3 66 -12 76 -44 81c-7 1 -17 5 -17 11c0 4 4 7 17 7c31 0 47 -6 105 -6c33 0 73 6 99 6c8 0 17 -1 17 -7c0 -5 -5 -8 -15 -10c-36 -8 -39 -19 -42 -70c-1 -29 0 -179 0 -247c0 -67 4 -169 5 -209c2 -50 6 -59 46 -68c11 -3 15 -5 15 -10s-10 -7 -19 -7
c-44 0 -72 4 -100 4c-47 0 -74 -4 -103 -4c-12 0 -21 1 -21 8c0 3 8 8 19 10c36 7 38 21 41 59c1 24 2 116 1 200c0 13 -2 23 -9 23c-39 2 -111 2 -206 3c-49 1 -82 1 -94 1c-4 0 -7 -4 -7 -19c-1 -41 4 -209 9 -229c3 -20 10 -32 36 -38c13 -4 18 -6 18 -12
c0 -4 -11 -6 -20 -6c-32 0 -77 4 -107 4c-26 0 -73 -4 -99 -4c-10 0 -18 3 -18 6c0 5 6 9 17 11c36 7 43 21 45 48c2 28 4 96 4 252z" />
    <glyph glyph-name="I" unicode="I" horiz-adv-x="306" 
d="M31 617c0 4 7 6 15 6c46 0 73 -5 103 -5c44 0 81 4 104 4c13 0 17 -2 17 -7c0 -4 -5 -8 -17 -9c-40 -6 -38 -24 -41 -64c-2 -42 -2 -158 -2 -212c0 -148 2 -225 3 -260c2 -39 11 -48 38 -55c13 -3 17 -6 17 -11c0 -6 -8 -7 -20 -7c-31 0 -46 3 -88 3
c-67 0 -93 -6 -113 -6c-12 0 -20 3 -20 7c0 5 2 8 21 12c36 8 44 24 46 84c2 58 1 316 1 350c0 50 -2 102 -4 117c-5 31 -18 37 -48 44c-8 3 -12 7 -12 9z" />
    <glyph glyph-name="J" unicode="J" horiz-adv-x="296" 
d="M96 31c0 220 1 348 -2 449c-3 110 -11 117 -50 125c-12 2 -20 6 -20 11s10 7 22 7c16 0 61 -5 107 -5c49 0 67 4 98 4c17 0 18 -3 18 -6c0 -5 -7 -8 -20 -11c-29 -6 -35 -16 -36 -89c-1 -65 -2 -270 -4 -365c-1 -78 -9 -134 -19 -165c-36 -126 -159 -198 -218 -198
c-30 0 -51 14 -51 28c0 9 10 24 27 39c15 14 22 18 29 18c3 0 13 -3 23 -11c17 -12 37 -20 52 -20c10 0 17 4 23 11c10 12 21 61 21 178z" />
    <glyph glyph-name="K" unicode="K" horiz-adv-x="644" 
d="M155 618c30 0 52 3 101 3c13 0 16 -4 16 -7s-8 -7 -18 -10c-39 -7 -39 -18 -43 -105c-1 -31 -3 -137 -1 -167c0 -6 5 -11 9 -7c11 9 20 13 46 38c58 59 160 165 185 199c6 8 13 16 13 23s-6 12 -31 17c-11 1 -18 7 -18 10c0 4 7 8 15 8c25 0 38 -2 63 -2c37 2 86 6 103 6
c14 0 17 -4 17 -7c0 -5 -8 -9 -19 -11c-40 -7 -69 -19 -114 -59c-45 -39 -123 -115 -170 -166c-1 -2 -2 -4 -2 -6s1 -4 3 -8c40 -51 207 -261 256 -312c26 -28 45 -35 72 -40c15 -4 22 -8 22 -13s-12 -8 -21 -8c-34 0 -101 6 -137 6c-34 0 -82 -2 -94 -2c-13 0 -21 2 -21 8
c0 3 2 7 17 11c23 6 26 11 26 17c0 5 -4 12 -11 21c-61 83 -164 206 -189 237c-8 10 -11 14 -14 14c-4 0 -4 -4 -5 -13c-2 -14 -2 -100 -1 -148c0 -50 2 -76 4 -96c3 -22 13 -29 39 -35c14 -4 21 -6 21 -11c0 -7 -10 -8 -20 -8c-22 0 -32 5 -105 5c-32 0 -79 -6 -95 -6
c-15 0 -20 4 -20 7c0 4 5 9 21 12c25 5 34 17 37 39c4 22 7 82 7 297c1 104 1 188 -1 212c-4 34 -17 40 -43 45c-9 3 -17 7 -17 11c0 5 7 7 14 7c27 0 79 -6 103 -6z" />
    <glyph glyph-name="L" unicode="L" horiz-adv-x="511" 
d="M30 617c0 5 8 7 17 7c32 0 70 -6 103 -6c44 0 65 4 102 4c13 0 18 -1 18 -6c0 -6 -12 -9 -18 -11c-34 -6 -39 -12 -41 -75c-1 -17 -2 -121 -2 -212s0 -182 2 -200c3 -39 4 -64 12 -75c10 -17 39 -25 109 -26c26 0 52 0 72 5c19 5 48 39 69 73c11 17 14 20 18 20
c6 0 5 -17 -1 -36l-29 -75c-3 -8 -15 -11 -29 -11c-10 0 -83 0 -132 2c-48 1 -111 5 -159 5c-30 0 -81 -5 -95 -5c-13 0 -24 0 -24 6s8 8 18 10c39 8 47 18 50 51c5 40 5 104 5 241c0 136 0 199 -2 238c-3 53 -11 59 -46 66c-14 3 -17 6 -17 10z" />
    <glyph glyph-name="M" unicode="M" horiz-adv-x="803" 
d="M13 617c0 5 11 7 17 7c38 -1 103 -6 157 -6c4 0 9 -7 12 -13c34 -80 175 -366 210 -430c2 -6 5 -3 7 1c28 50 148 297 170 346c16 38 25 61 31 81c0 2 7 15 12 15c45 0 75 6 136 6c13 0 18 -3 18 -7c0 -5 -9 -9 -16 -10c-58 -12 -60 -25 -63 -80c-2 -40 -2 -142 -2 -191
c0 -109 5 -209 7 -243c4 -57 14 -69 55 -81c9 -3 16 -6 16 -11c0 -4 -7 -7 -18 -7c-36 0 -80 6 -119 6s-88 -3 -102 -3c-7 0 -18 1 -18 8c0 4 10 9 17 11c41 9 47 31 50 108c3 52 4 294 4 349c0 4 -3 11 -5 3c-66 -137 -174 -361 -213 -455c-8 -16 -12 -23 -18 -23
s-11 15 -16 26c-36 86 -181 406 -207 457c-4 9 -6 9 -8 -5c-4 -42 -13 -280 -13 -349c0 -40 1 -53 4 -69c4 -23 23 -38 53 -44c10 -2 16 -6 16 -10c0 -7 -9 -9 -19 -8c-18 -1 -53 4 -87 4c-32 0 -60 -5 -72 -5c-15 0 -19 2 -19 7c0 3 3 7 17 11c29 8 44 14 54 29
c11 16 16 39 23 110c6 57 19 261 19 337c0 60 -3 73 -22 93c-17 17 -33 20 -52 24c-7 2 -16 5 -16 11z" />
    <glyph glyph-name="N" unicode="N" horiz-adv-x="703" 
d="M14 616c0 5 5 8 19 8c51 0 122 -8 159 -6c4 0 9 -2 22 -18c67 -84 290 -329 367 -413c5 -6 6 -2 6 3c0 30 1 257 -3 339c-3 57 -28 69 -63 77c-11 2 -19 6 -19 10c0 5 10 7 21 7c18 0 53 -5 73 -5c27 0 60 5 71 5c12 0 16 -3 16 -7c0 -5 -7 -8 -17 -11
c-40 -12 -45 -34 -47 -59c-4 -57 -7 -236 -7 -328c0 -89 -2 -150 1 -203c1 -25 -7 -36 -14 -36c-4 0 -19 15 -35 37c-42 55 -310 359 -432 501c-5 6 -10 2 -10 -2c0 -20 -2 -337 -1 -390c2 -45 3 -63 10 -80c8 -17 30 -25 52 -31c8 -2 15 -6 15 -12c0 -5 -11 -6 -19 -6
c-19 0 -46 3 -77 3c-27 0 -62 -5 -71 -5c-14 0 -17 3 -17 7s8 7 19 11c30 9 47 15 53 72c5 41 12 308 12 431c0 58 -10 66 -18 72c-13 10 -28 15 -48 19c-14 3 -18 6 -18 10z" />
    <glyph glyph-name="O" unicode="O" horiz-adv-x="749" 
d="M372 636c186 0 333 -146 333 -334c0 -160 -109 -255 -186 -289c-41 -19 -88 -31 -141 -31c-186 0 -334 147 -334 329c0 100 34 191 131 264c52 40 130 61 197 61zM361 620c-60 0 -110 -47 -132 -74c-37 -48 -61 -130 -61 -221s30 -184 84 -247c38 -47 86 -78 142 -78
c30 0 72 12 104 50c28 29 80 102 80 253c0 93 -17 160 -64 230c-29 43 -79 87 -153 87z" />
    <glyph glyph-name="P" unicode="P" horiz-adv-x="524" 
d="M32 613c0 6 11 9 19 9c24 0 49 0 74 1c33 1 81 6 124 6c74 0 149 -17 189 -61c43 -45 51 -91 51 -128c0 -83 -39 -129 -78 -154c-40 -29 -96 -37 -121 -37c-8 0 -23 2 -29 4s-11 4 -11 8c0 3 3 6 10 5h13c31 0 99 33 99 163c0 49 -14 96 -39 131c-29 42 -61 51 -88 51
c-10 0 -23 -2 -28 -4c-3 -1 -6 -5 -6 -13c0 -19 -1 -233 -1 -338c0 -106 4 -164 5 -191c1 -38 17 -48 45 -52c15 -3 19 -5 19 -10s-7 -8 -19 -8c-13 0 -65 5 -115 5c-41 0 -87 -5 -99 -5c-4 0 -16 4 -16 8s7 8 16 9c31 6 41 13 45 45c3 24 5 127 5 281c0 132 -3 202 -7 233
c-2 18 -10 30 -40 33c-5 1 -17 3 -17 9z" />
    <glyph glyph-name="Q" unicode="Q" horiz-adv-x="749" 
d="M375 637c83 0 149 -27 203 -69c78 -61 127 -159 127 -266c0 -90 -34 -161 -84 -215c-30 -32 -70 -60 -113 -78c-3 -2 -3 -6 -1 -9c13 -17 164 -112 247 -146c61 -27 115 -44 169 -44c63 0 85 8 128 22c5 2 8 0 8 -4s-7 -12 -12 -15c-24 -17 -89 -53 -194 -53
c-76 0 -137 17 -211 49c-64 28 -172 90 -255 142c-37 23 -56 34 -74 38c-48 15 -100 33 -145 69c-75 57 -124 147 -124 255c0 80 26 169 103 236c61 54 134 88 228 88zM364 620c-44 0 -91 -20 -134 -76c-45 -54 -64 -144 -63 -226c1 -96 38 -189 80 -240
c39 -49 93 -80 153 -80c40 0 74 14 105 48c30 34 73 109 73 258c0 94 -26 185 -73 245c-24 30 -74 71 -141 71z" />
    <glyph glyph-name="R" unicode="R" horiz-adv-x="600" 
d="M291 625c60 0 106 -15 138 -37c42 -31 62 -70 62 -122c0 -59 -34 -91 -56 -106c-12 -10 -37 -21 -49 -26c-3 -1 -6 -7 -2 -17c17 -35 56 -106 96 -174c31 -50 52 -76 73 -99c26 -27 46 -31 67 -33c5 0 12 -3 12 -6s-4 -8 -10 -10c-9 -4 -31 -5 -62 -5
c-66 0 -120 14 -165 81c-29 41 -76 125 -111 190c-19 31 -32 40 -47 40c-7 1 -13 1 -23 -1c-3 -1 -6 -5 -6 -12c-2 -18 0 -106 0 -138c0 -70 4 -95 8 -107c2 -9 12 -23 45 -29c10 -3 16 -8 16 -12s-8 -7 -19 -7c-9 0 -66 5 -109 5c-35 0 -88 -6 -105 -6c-11 0 -19 2 -19 9
c0 4 5 7 18 9c36 7 45 18 47 55c4 58 6 149 6 228c0 137 -4 222 -6 261c-2 27 0 44 -42 51c-9 2 -18 5 -18 9c0 5 8 7 18 7c13 0 54 -2 86 -2c56 0 59 4 157 4zM245 605c-12 0 -23 -3 -28 -7c-3 -1 -6 -6 -7 -25c-1 -16 -4 -218 -3 -237c0 -9 2 -15 8 -16c5 -2 13 -2 17 -2
c19 1 70 7 95 24c28 19 46 54 46 108c0 45 -8 84 -36 115c-32 35 -64 40 -92 40z" />
    <glyph glyph-name="S" unicode="S" horiz-adv-x="463" 
d="M262 636c57 0 109 -13 130 -20c5 -2 7 -10 7 -13c0 -26 3 -58 5 -69c2 -12 0 -20 -6 -20c-2 0 -6 5 -9 16c-11 26 -20 44 -41 61s-55 28 -80 28c-50 0 -115 -29 -115 -109c0 -43 20 -75 63 -106c33 -22 65 -42 98 -66c43 -31 109 -76 109 -173
c0 -117 -110 -183 -223 -183c-53 0 -113 12 -145 29c-6 4 -11 11 -13 18c-1 15 -12 64 -12 87c0 17 3 21 6 21c5 0 8 -6 12 -21c18 -73 85 -115 147 -115c74 0 125 51 125 118c0 54 -42 97 -110 140c-98 64 -148 118 -148 208c0 48 26 98 65 127c30 23 72 42 135 42z" />
    <glyph glyph-name="T" unicode="T" horiz-adv-x="578" 
d="M287 618l135 1c95 0 109 2 126 11c4 3 7 6 9 4c2 -3 4 -6 2 -14c-4 -13 -4 -57 -3 -87c1 -16 -5 -20 -6 -20c-4 0 -9 8 -10 13c-3 17 -12 42 -21 52c-9 8 -28 16 -77 16c-41 0 -82 0 -96 -2c-5 -3 -7 -11 -7 -20c0 -39 -3 -286 -3 -334c0 -55 2 -150 7 -180
c3 -29 12 -37 48 -46c12 -3 17 -6 17 -11s-5 -7 -18 -7c-22 0 -70 6 -118 6c-67 0 -99 -5 -115 -5c-13 0 -18 4 -18 9c0 4 9 7 20 9c50 8 55 21 58 68c6 101 6 491 4 501c-1 9 -2 12 -5 12c-8 1 -31 3 -75 3c-31 0 -55 -2 -69 -4c-21 -4 -36 -17 -50 -57
c-5 -15 -10 -19 -15 -19c-4 0 -5 7 -4 16c5 31 11 60 13 89c1 7 3 14 8 16c2 1 4 -1 8 -5c4 -5 15 -9 30 -10c14 -1 124 -5 225 -5z" />
    <glyph glyph-name="U" unicode="U" horiz-adv-x="671" 
d="M152 618c42 0 65 4 95 4c12 0 17 -3 17 -7c0 -5 -8 -8 -17 -10c-40 -8 -44 -25 -44 -71c-2 -93 -2 -203 -1 -281c0 -89 20 -143 50 -176c39 -43 95 -49 131 -49c98 0 172 54 178 257c1 36 2 82 2 105c0 186 -11 197 -36 209c-6 2 -18 5 -29 6c-13 2 -19 6 -19 10
c0 5 6 8 19 8c27 0 42 -5 74 -5c24 0 50 4 76 4c15 0 20 -2 20 -6c0 -5 -4 -8 -21 -11c-42 -7 -47 -25 -51 -69c-3 -52 -5 -169 -7 -210c-4 -126 -18 -220 -73 -278c-53 -56 -130 -66 -181 -66c-58 0 -124 16 -161 45c-65 50 -85 104 -87 246c-2 88 -2 210 -4 269
c-2 45 -6 55 -43 64c-11 4 -16 8 -16 11c0 5 9 6 18 6c36 0 67 -5 110 -5z" />
    <glyph glyph-name="V" unicode="V" horiz-adv-x="623" 
d="M-11 616c0 5 9 7 20 7c37 0 66 -5 112 -5c34 0 83 4 103 4c14 0 19 -4 19 -7c0 -6 -13 -10 -18 -10c-26 -4 -34 -15 -34 -25c0 -9 5 -23 13 -49c18 -52 128 -327 146 -359c2 -3 4 -7 8 0c14 25 111 272 128 322c13 34 21 55 21 77c0 23 -18 31 -48 36c-10 1 -16 6 -16 8
c0 5 7 8 23 8c24 0 58 -5 80 -5c24 0 53 5 71 5c13 0 17 -1 17 -6c0 -4 -6 -9 -22 -12c-46 -11 -66 -48 -88 -96c-19 -41 -76 -180 -171 -408c-24 -57 -33 -86 -40 -107c-3 -9 -9 -13 -11 -13c-5 0 -8 7 -13 21c-36 108 -198 507 -228 562c-12 23 -19 35 -53 42
c-12 2 -19 6 -19 10z" />
    <glyph glyph-name="W" unicode="W" horiz-adv-x="939" 
d="M-12 616c0 2 6 7 19 7c26 0 81 -5 111 -5c22 0 63 3 86 3c14 0 20 -3 20 -7c0 -6 -8 -10 -19 -13c-20 -5 -24 -11 -15 -32c38 -95 127 -277 193 -418c3 -7 7 -5 10 0c13 25 37 72 59 122c2 5 2 9 1 14c-9 25 -87 189 -110 236c-29 57 -37 74 -72 81c-8 1 -19 5 -19 11
c0 5 7 7 22 7c27 0 66 -4 101 -4c33 0 81 5 99 5c11 0 17 -3 17 -7c0 -5 -4 -10 -22 -13c-19 -5 -30 -11 -20 -36c12 -32 54 -128 75 -168c1 -2 6 -3 8 2c12 23 43 85 63 132c18 43 19 57 -24 68c-17 4 -24 9 -24 13s6 7 17 7c24 0 45 -3 71 -3c23 0 51 5 72 5
c12 0 18 -2 18 -7c0 -6 -6 -9 -19 -12c-32 -7 -49 -19 -83 -77c-20 -37 -49 -95 -81 -154c-1 -2 -1 -7 1 -14c12 -33 68 -145 101 -214c2 -4 6 -3 8 1c38 82 140 319 167 403c9 29 7 44 -29 54c-16 5 -21 8 -21 13c0 4 4 6 18 6c25 0 44 -4 71 -4c29 0 57 5 71 5
c12 0 22 0 22 -6s-6 -10 -22 -13c-37 -8 -60 -16 -129 -177c-64 -149 -98 -218 -182 -422c-7 -17 -13 -23 -18 -23c-8 0 -12 7 -20 25c-21 58 -89 197 -107 238c-2 4 -7 3 -8 0c-36 -71 -91 -177 -114 -240c-6 -16 -14 -23 -17 -23c-8 0 -11 6 -17 23
c-14 36 -41 103 -54 131c-56 124 -141 309 -185 393c-26 52 -32 70 -68 75c-13 1 -23 7 -22 12z" />
    <glyph glyph-name="X" unicode="X" horiz-adv-x="636" 
d="M-3 619c0 4 8 6 20 6c52 0 100 -7 132 -7c13 0 45 1 92 4c7 1 20 0 20 -6c0 -5 -10 -9 -19 -12c-17 -4 -30 -13 -19 -33c16 -34 107 -184 117 -195c2 -3 7 -3 11 2c17 25 89 140 104 166c12 21 15 31 15 39c0 12 -13 15 -37 21c-14 4 -16 8 -16 11s5 6 19 6
c19 0 39 -3 65 -3c29 0 60 6 87 6c12 0 18 -3 18 -7c0 -6 -10 -9 -15 -10c-54 -10 -69 -24 -99 -62s-62 -86 -133 -190c-3 -4 -2 -8 0 -13c70 -118 140 -234 173 -282c27 -38 45 -39 79 -48c7 -2 15 -5 15 -10s-8 -7 -16 -7c-34 0 -106 5 -145 5c-41 0 -91 -3 -96 -3
c-9 0 -22 2 -22 9c0 5 8 8 20 10c32 7 36 23 24 46c-10 19 -97 170 -110 189c-4 5 -8 3 -9 1c-47 -66 -97 -148 -112 -175c-9 -16 -12 -25 -12 -32c0 -11 3 -22 45 -31c9 -3 16 -7 16 -10c0 -7 -15 -8 -21 -8c-20 0 -49 4 -75 4c-33 0 -72 -5 -91 -5c-14 0 -21 4 -21 9
c0 4 10 8 17 9c39 4 67 25 82 40c29 32 129 171 160 221c4 5 2 11 0 15c-8 16 -109 189 -157 258c-30 43 -45 54 -89 62c-10 2 -17 7 -17 10z" />
    <glyph glyph-name="Y" unicode="Y" horiz-adv-x="591" 
d="M-7 617c0 7 9 7 20 7c26 0 79 -6 108 -6c34 0 70 4 102 4c11 0 17 -2 17 -6c0 -5 -5 -8 -14 -11c-24 -5 -31 -11 -31 -19c0 -7 5 -17 17 -36c17 -30 95 -170 119 -201c2 -1 7 -5 9 -1c20 31 80 132 105 179c17 28 23 42 23 53c0 13 -18 24 -40 28c-7 2 -16 4 -16 9
c0 4 6 6 16 6c29 0 45 -5 73 -5c25 0 70 7 82 7c10 0 18 -2 18 -6c0 -5 -6 -8 -21 -11c-51 -10 -67 -31 -91 -65c-48 -68 -112 -176 -135 -217c-3 -6 -9 -22 -9 -33v-218c1 -48 12 -51 49 -61c8 -2 20 -4 20 -11c0 -6 -11 -7 -20 -7c-58 0 -45 4 -112 4
c-46 0 -79 -5 -107 -5c-14 0 -21 3 -21 8c0 4 11 9 22 11c42 6 52 19 54 52c2 19 5 86 5 127c0 63 0 75 -1 92c-1 11 -6 22 -8 25c-19 40 -108 192 -139 233c-32 44 -39 56 -74 64c-17 3 -20 7 -20 10z" />
    <glyph glyph-name="Z" unicode="Z" horiz-adv-x="609" 
d="M60 632c6 -1 28 -9 46 -10c21 -1 164 -4 325 -4c49 0 108 4 120 4c6 0 9 -5 2 -15c-5 -5 -39 -55 -75 -114c-32 -55 -217 -358 -274 -459c-1 -2 -2 -9 5 -9c87 0 232 2 271 6c24 3 33 10 46 24c11 13 34 47 42 59c6 8 9 15 15 15c4 0 6 -9 3 -17c-3 -10 -19 -72 -22 -98
c-3 -13 -26 -14 -43 -14h-360c-14 0 -82 -2 -101 -3c-10 -1 -17 4 -10 13c86 128 282 443 351 575c2 3 2 9 -3 9c-77 0 -247 -2 -270 -2c-12 -2 -34 -2 -47 -14c-13 -11 -32 -33 -52 -63c-4 -5 -9 -9 -13 -9s-7 8 0 21c11 25 24 68 33 99c1 6 3 8 11 6z" />
    <glyph glyph-name="bracketleft" unicode="[" horiz-adv-x="278" 
d="M236 675c0 -5 -14 -9 -24 -10c-14 -1 -75 -5 -84 -7c-6 -1 -8 -11 -9 -20c-3 -60 -4 -177 -4 -315c0 -169 4 -374 6 -433c1 -30 8 -38 25 -41c20 -2 69 -7 74 -7c6 0 21 -3 21 -10c0 -6 -13 -10 -24 -10c-8 0 -43 1 -69 1s-52 -1 -58 -1c-7 0 -10 7 -10 30
c2 136 2 296 2 444l-2 366c0 12 1 14 4 17s11 3 24 3c45 0 92 1 105 1c12 0 23 -2 23 -8z" />
    <glyph glyph-name="backslash" unicode="\" horiz-adv-x="372" 
d="M66 644c88 -234 173 -448 263 -682c9 -19 6 -27 0 -27c-10 0 -18 4 -26 25c-91 235 -179 455 -267 691c0 4 -2 14 6 14c9 0 21 -9 24 -21z" />
    <glyph glyph-name="bracketright" unicode="]" horiz-adv-x="279" 
d="M37 674c0 6 13 9 24 9c8 0 43 -1 70 -1c25 0 53 1 59 1c5 0 8 -7 8 -30c-1 -136 -1 -296 -1 -443c0 -141 1 -260 1 -367c0 -12 -1 -14 -3 -16c-3 -3 -11 -3 -25 -3c-45 0 -91 -1 -104 -1c-12 0 -23 1 -23 8c0 5 14 8 24 9c15 1 74 5 83 7c6 1 9 11 10 21
c3 59 4 176 4 314c0 170 -4 376 -7 435c-1 28 -6 37 -24 40c-20 2 -70 7 -75 7c-6 0 -21 3 -21 10z" />
    <glyph glyph-name="asciicircum" unicode="^" horiz-adv-x="410" 
d="M207 581c5 0 13 -16 18 -25l102 -191c3 -5 4 -9 2 -12c-5 -5 -28 -13 -29 -9l-92 175c-2 3 -4 4 -6 1l-95 -180c-2 -3 -20 2 -27 9c-2 2 -1 8 1 13l105 192c13 24 17 27 21 27z" />
    <glyph glyph-name="underscore" unicode="_" horiz-adv-x="485" 
d="M0 -121h485v-49h-485v49z" />
    <glyph glyph-name="quoteleft" unicode="&#x2018;" horiz-adv-x="155" 
d="M89 473c-38 0 -69 32 -69 78c0 80 83 109 101 109c6 0 11 -1 11 -5c0 -2 -4 -5 -9 -7c-27 -13 -58 -33 -58 -72c0 -21 10 -36 38 -45c17 -5 24 -11 24 -25c0 -18 -19 -33 -38 -33z" />
    <glyph glyph-name="a" unicode="a" horiz-adv-x="365" 
d="M196 373c42 0 69 -23 81 -41c20 -27 25 -70 25 -100c0 -48 -2 -132 -2 -158c0 -14 11 -32 33 -32c8 0 18 2 28 8c4 3 8 -4 5 -10c-20 -37 -58 -52 -92 -52c-39 0 -59 28 -67 47c0 1 -3 2 -5 1c-30 -32 -61 -46 -97 -46c-37 0 -81 33 -81 90c0 33 23 55 37 62
c26 13 109 34 136 45c7 2 11 8 13 15c2 12 1 39 1 48c0 40 -8 59 -22 72c-12 11 -27 17 -39 17c-13 0 -26 -4 -35 -9c-5 -3 -9 -10 -10 -17c0 -5 1 -20 1 -29c0 -1 -3 -6 -6 -8c-11 -8 -46 -27 -61 -32c-6 -1 -12 6 -12 11c0 12 13 28 26 42c20 20 38 35 76 55
c22 12 51 21 67 21zM165 36c13 0 24 4 31 12c3 3 8 12 9 20c2 16 5 57 5 100c0 1 -2 7 -6 6c-11 -3 -45 -14 -64 -25c-18 -9 -29 -27 -29 -52c0 -39 28 -61 54 -61z" />
    <glyph glyph-name="b" unicode="b" horiz-adv-x="456" 
d="M425 196c0 -69 -30 -117 -52 -139c-46 -47 -109 -69 -166 -69c-39 0 -91 12 -123 27c-5 2 -11 2 -29 -5c-4 -2 -7 4 -7 7c3 18 6 42 8 111c2 54 4 207 5 312c0 83 -1 135 -4 155c-3 16 -5 22 -26 35c-8 6 -11 9 -11 11c0 3 4 7 16 9c12 3 67 13 103 28c9 4 14 5 18 5
c2 0 4 -4 4 -15c-3 -63 -6 -230 -6 -319c0 -7 3 -8 6 -7c23 16 58 28 92 28c63 0 103 -28 126 -54c31 -34 46 -79 46 -120zM322 162h1c0 34 -9 96 -38 132c-13 16 -45 43 -86 43c-16 0 -31 -5 -38 -9c-4 -3 -6 -10 -7 -17c-4 -18 -3 -111 -3 -150c0 -37 6 -93 16 -114
c5 -12 21 -23 34 -30c9 -5 29 -9 42 -9c12 0 37 10 51 32c16 24 28 76 28 122z" />
    <glyph glyph-name="c" unicode="c" horiz-adv-x="371" 
d="M206 352c-27 0 -79 -33 -79 -146c0 -49 16 -99 42 -123c27 -26 64 -35 87 -35c43 0 68 8 97 34c5 4 9 4 9 0s-2 -9 -8 -18c-20 -31 -67 -74 -141 -74c-51 0 -100 18 -133 51c-32 33 -49 79 -49 135c0 63 36 114 67 140c33 28 92 57 147 57s84 -16 98 -27
c7 -4 12 -14 12 -19c0 -23 -17 -39 -32 -39c-3 0 -11 4 -17 9c-13 11 -49 41 -63 47c-13 6 -22 8 -37 8z" />
    <glyph glyph-name="d" unicode="d" horiz-adv-x="462" 
d="M241 372c27 0 49 -3 58 -5c2 0 5 3 5 5c2 17 1 177 -2 226c0 8 -2 15 -5 19c-5 7 -14 11 -26 14c-8 3 -11 6 -11 10c0 3 7 7 18 8c47 7 101 22 108 25c6 3 12 5 15 5c4 0 6 -5 5 -17c-2 -25 -6 -269 -6 -437c0 -85 0 -164 2 -190c1 -5 3 -7 6 -7c6 0 28 4 40 7
c5 2 8 -1 8 -4c0 -8 -5 -18 -23 -20c-60 -7 -104 -19 -130 -27c-2 -1 -5 6 -5 9c1 13 3 28 2 39c0 4 -4 3 -5 2c-46 -39 -91 -44 -112 -44c-35 0 -72 16 -99 41c-35 33 -53 86 -53 140c0 81 49 139 98 169c30 18 74 32 112 32zM214 354c-11 0 -23 -3 -37 -16
c-22 -20 -43 -67 -43 -137c0 -118 60 -169 107 -169c17 0 38 5 51 16c2 3 7 12 8 22c6 42 6 177 0 211c-2 10 -7 24 -10 28c-21 32 -48 45 -76 45z" />
    <glyph glyph-name="e" unicode="e" horiz-adv-x="372" 
d="M220 373c73 0 126 -51 126 -108c0 -7 -7 -14 -12 -14c-11 1 -135 3 -162 3h-36c-3 0 -7 -5 -9 -8c-3 -9 -5 -26 -5 -41c0 -52 17 -89 44 -118c24 -27 62 -39 87 -39c37 0 68 6 93 30c7 8 11 6 11 1s-2 -8 -7 -15c-31 -44 -82 -76 -147 -76c-51 0 -93 19 -124 52
s-48 83 -48 135c0 54 22 115 67 153c27 23 69 45 122 45zM210 359c-22 0 -39 -14 -56 -33c-12 -16 -22 -41 -22 -51c0 -2 2 -6 5 -6l95 1c27 0 29 15 29 24c0 19 -4 34 -14 48c-7 8 -20 17 -37 17z" />
    <glyph glyph-name="f" unicode="f" horiz-adv-x="256" 
d="M66 67v236c0 10 -4 14 -7 15c-5 0 -17 0 -26 1c-4 1 -12 4 -12 8c0 3 5 6 12 11c7 4 17 10 25 17c4 3 8 10 8 12c2 73 4 115 19 160c13 40 43 100 116 136c23 12 55 19 80 19c44 0 78 -18 78 -39c0 -15 -22 -39 -31 -42c-8 -4 -19 -4 -25 0c-16 11 -46 53 -79 53
c-34 0 -53 -27 -59 -97c-3 -30 -5 -111 -5 -144c0 -20 1 -43 3 -48c0 -1 3 -7 8 -7c7 0 75 2 86 2c5 0 10 -8 10 -25c0 -9 -4 -17 -11 -17c-23 0 -74 2 -88 2c-3 0 -5 -6 -5 -8c-2 -27 2 -216 3 -247c2 -38 12 -43 21 -47c9 -2 18 -3 29 -6c12 -4 16 -5 16 -9
c0 -5 -8 -7 -17 -7c-35 0 -54 4 -121 4c-23 0 -44 -2 -61 -3c-9 0 -15 1 -15 5s5 7 18 11c25 7 30 18 30 54z" />
    <glyph glyph-name="g" unicode="g" horiz-adv-x="405" 
d="M87 -149c0 -16 13 -49 41 -68c26 -18 54 -27 88 -27c23 0 63 0 93 20c28 18 48 53 48 82c0 39 -22 74 -90 74c-36 0 -93 -2 -121 -2c-15 -1 -23 -5 -25 -6c-25 -21 -34 -49 -34 -73zM188 379c50 0 96 -19 108 -26c9 -4 20 -5 34 -5c18 0 54 2 71 2c4 0 7 -9 7 -24
c0 -10 -6 -21 -10 -21c-15 0 -45 2 -56 2c-2 0 -5 -4 -5 -5c1 -8 1 -26 1 -39c0 -54 -25 -104 -61 -131c-29 -21 -67 -28 -85 -28c-14 0 -36 3 -47 6c-4 1 -9 -1 -11 -2c-7 -3 -17 -12 -24 -20s-8 -15 -8 -19c0 -24 29 -38 84 -38c30 0 74 1 110 1c41 0 67 -13 84 -28
c22 -20 35 -49 35 -88c0 -63 -52 -124 -97 -152c-50 -33 -98 -47 -145 -47c-90 0 -147 43 -147 108c0 20 9 31 20 42c9 11 42 44 60 61c1 2 0 6 -2 7c-19 6 -80 41 -80 90c0 7 2 11 4 12c22 17 75 60 87 76c1 1 0 3 -2 4c-39 21 -79 64 -79 121c0 50 18 75 42 98
c28 28 72 43 112 43zM182 364c-15 0 -29 -11 -37 -21c-13 -19 -20 -49 -20 -80c0 -58 15 -94 25 -110c13 -19 31 -34 52 -34c37 0 56 54 56 99c0 46 -11 91 -29 116c-18 24 -29 30 -47 30z" />
    <glyph glyph-name="h" unicode="h" horiz-adv-x="454" 
d="M223 332c-26 0 -48 -12 -60 -23c-5 -4 -10 -14 -10 -26c-1 -97 2 -200 5 -234c3 -19 8 -32 32 -37c11 -2 18 -5 18 -9c0 -3 -6 -8 -18 -8c-29 0 -69 5 -86 5c-43 0 -56 -4 -80 -4c-11 0 -18 3 -18 7s4 7 16 10c28 6 32 13 33 45c2 35 3 130 3 267c0 150 1 222 -1 255
c-2 32 -5 34 -30 46c-4 3 -7 6 -7 9c0 4 6 7 17 10c32 9 73 18 103 32c8 3 11 4 13 4c3 0 6 -3 6 -19c0 -15 -6 -321 -5 -336c0 -2 3 -5 5 -3c14 12 38 28 54 35c14 8 40 15 61 15c39 0 71 -13 94 -43c14 -17 24 -48 25 -105l2 -179c0 -17 3 -29 30 -34c13 -3 17 -5 17 -10
s-11 -7 -17 -7c-30 0 -42 5 -81 5c-50 0 -52 -4 -83 -4c-12 0 -16 4 -16 7c0 4 5 6 15 8c29 8 30 17 33 50c2 23 4 75 4 157c0 26 -3 63 -13 81c-14 24 -35 33 -61 33z" />
    <glyph glyph-name="i" unicode="i" horiz-adv-x="223" 
d="M34 334c0 2 3 5 14 8c45 9 63 16 98 30c8 3 12 6 15 6s5 -3 4 -14c-2 -21 -2 -72 -2 -114c0 -112 0 -192 2 -207c2 -17 7 -26 27 -31c11 -3 14 -6 14 -10c0 -5 -7 -7 -15 -7c-17 0 -40 5 -82 5c-44 0 -67 -2 -78 -2c-9 0 -17 3 -17 7c0 5 6 7 18 9c26 6 33 19 33 54
c0 30 3 204 3 214c0 19 0 23 -26 41c-5 4 -8 7 -8 11zM123 548c25 0 44 -24 44 -47c0 -35 -27 -50 -49 -50c-21 0 -42 20 -42 46c0 35 26 51 47 51z" />
    <glyph glyph-name="j" unicode="j" horiz-adv-x="218" 
d="M21 329c0 4 8 7 12 8c45 10 95 28 109 36c6 4 11 6 14 6c4 0 6 -9 6 -18c0 -98 -1 -200 -2 -295c0 -42 -2 -70 -4 -101c-9 -134 -91 -209 -154 -240c-12 -6 -26 -6 -26 0c0 4 4 6 11 10c48 27 69 80 74 154c2 27 3 64 3 103c0 59 0 191 -2 249c-1 41 -3 53 -8 61
c-4 5 -15 12 -23 17c-6 4 -10 6 -10 10zM110 451c-25 0 -44 21 -44 48c0 34 28 52 51 52c19 0 41 -22 41 -48s-17 -52 -48 -52z" />
    <glyph glyph-name="k" unicode="k" horiz-adv-x="448" 
d="M261 362c14 0 29 -1 37 -1c37 0 70 6 105 6c11 0 17 -3 17 -7c0 -3 -4 -6 -16 -8c-34 -8 -56 -18 -87 -44c-23 -19 -51 -44 -74 -68c-2 -2 0 -5 1 -7c36 -49 103 -132 142 -175c29 -32 39 -41 68 -46c10 -2 14 -5 14 -9c0 -5 -8 -8 -19 -8c-57 0 -88 5 -132 5
c-19 0 -34 -2 -48 -2c-12 0 -17 2 -17 7s4 7 19 11c16 5 20 12 11 26c-15 20 -69 87 -100 123c-10 12 -17 20 -20 20s-3 -3 -4 -8c-2 -16 -1 -71 0 -105c2 -49 15 -52 37 -57c10 -2 17 -6 17 -10c0 -6 -12 -8 -19 -8c-29 0 -61 3 -87 3c-39 0 -74 -4 -79 -4
c-8 0 -17 3 -17 7s6 7 14 9c30 7 34 17 36 50c4 73 5 148 5 225c0 42 2 218 2 274c0 23 -1 32 -4 48c0 7 -9 14 -24 22c-4 3 -9 6 -9 9c0 4 7 8 19 10c66 12 96 27 97 28c7 3 14 5 18 5c1 0 4 -4 4 -7c-1 -35 -6 -135 -6 -210c0 -34 -5 -204 -4 -254c0 -9 2 -14 5 -14
c4 0 11 5 17 9c35 24 89 77 107 105c5 6 9 12 9 16c0 5 -6 13 -36 18c-10 2 -16 4 -16 9c0 4 8 7 17 7z" />
    <glyph glyph-name="l" unicode="l" horiz-adv-x="223" 
d="M159 321v-78c0 -130 1 -170 2 -188c1 -32 7 -36 33 -42c6 -1 13 -4 13 -9c0 -4 -10 -7 -20 -7c-30 0 -70 3 -85 3c-27 0 -48 -2 -75 -2c-10 0 -18 2 -18 7s7 7 15 9c27 5 33 11 35 54c2 41 6 227 7 323c0 55 1 161 0 195c0 23 -5 30 -28 42c-7 4 -10 8 -10 11s6 6 15 8
c41 6 80 21 101 28c5 2 10 4 14 4c2 0 4 -6 4 -11c0 -7 -3 -174 -3 -347z" />
    <glyph glyph-name="m" unicode="m" horiz-adv-x="698" 
d="M36 328h-1c0 3 6 7 13 8c28 7 68 20 91 36c8 5 13 7 18 7c4 0 5 -5 5 -10c0 -11 0 -35 -1 -46c0 -4 1 -9 5 -5c33 28 71 54 122 54c44 0 76 -21 96 -61c1 -2 4 -3 6 -1c41 38 84 63 133 63c52 0 87 -36 100 -74c7 -20 12 -57 12 -94l4 -147c1 -34 11 -40 29 -43
c10 -3 16 -7 16 -9c0 -5 -6 -9 -19 -9c-11 0 -52 3 -75 3c-24 0 -60 -4 -75 -4c-13 0 -18 2 -18 7s8 8 15 10c21 5 27 16 27 45c1 120 -3 171 -7 199c-9 51 -35 68 -74 68c-24 0 -49 -14 -62 -27c-3 -3 -3 -11 -3 -19c6 -40 6 -198 7 -225c3 -28 6 -34 28 -40
c10 -4 15 -7 15 -11s-7 -6 -15 -6c-34 0 -49 3 -94 3c-23 0 -51 -3 -62 -3c-14 0 -17 2 -17 6c0 3 4 7 14 10c21 5 30 13 30 37l3 161c0 53 -3 74 -23 95c-9 10 -26 21 -51 21s-45 -10 -57 -23c-3 -3 -7 -14 -8 -17c-1 -13 -2 -34 -2 -77c0 -112 2 -151 5 -171
c2 -14 7 -20 26 -25c11 -4 15 -7 15 -10c0 -5 -7 -7 -15 -7c-18 0 -56 3 -80 3c-42 0 -60 -3 -84 -3c-9 0 -16 3 -16 7c0 5 6 7 18 10c25 6 31 15 32 33c2 16 3 136 3 172c0 25 1 51 -1 67c0 10 -5 19 -20 30c-6 5 -8 7 -8 12z" />
    <glyph glyph-name="n" unicode="n" horiz-adv-x="460" 
d="M284 373c39 0 63 -16 80 -34c24 -23 35 -68 35 -126c1 -58 2 -68 2 -124c1 -62 6 -70 33 -77c5 -2 11 -4 11 -9c0 -4 -5 -6 -14 -6c-23 0 -56 3 -76 3c-57 0 -75 -4 -83 -4c-10 0 -17 3 -17 7s6 7 15 9c27 8 32 15 32 38v147c0 77 -6 98 -30 117c-15 11 -33 14 -47 14
c-21 0 -42 -9 -54 -19c-5 -4 -10 -13 -10 -21c0 -19 1 -66 1 -117c1 -62 3 -112 4 -124c3 -22 10 -28 28 -34c12 -3 16 -5 16 -10c0 -6 -11 -7 -18 -7c-10 0 -67 4 -90 4c-13 0 -39 -2 -69 -2c-11 0 -19 3 -19 8c0 4 9 8 18 10c28 5 30 13 31 36c2 58 3 145 3 237
c0 10 -3 18 -23 32c-9 6 -8 8 -8 10c0 3 5 6 14 8c34 7 90 32 106 41c3 1 8 -3 8 -8c-1 -11 -3 -36 -2 -50c0 -2 3 -3 5 -1c20 16 39 30 59 39c18 8 38 13 59 13z" />
    <glyph glyph-name="o" unicode="o" horiz-adv-x="461" 
d="M230 373c119 0 200 -85 200 -189c0 -80 -47 -133 -78 -157c-34 -26 -83 -39 -120 -39c-114 0 -201 84 -201 191c0 76 40 124 71 148c41 33 87 46 128 46zM221 356c-43 0 -84 -63 -84 -150c0 -48 6 -104 31 -147c21 -35 49 -55 76 -55c18 0 35 9 46 23c12 14 33 62 33 136
c0 114 -32 193 -102 193z" />
    <glyph glyph-name="p" unicode="p" horiz-adv-x="453" 
d="M277 370c39 0 79 -23 102 -49c30 -35 43 -79 43 -120c0 -99 -62 -173 -145 -199c-29 -9 -44 -12 -67 -12c-14 0 -34 3 -44 5c-3 0 -6 -5 -7 -7c-3 -12 -4 -57 -3 -96c0 -47 3 -88 5 -103c3 -29 17 -37 47 -43c11 -3 15 -5 15 -10s-11 -6 -24 -6c-15 0 -54 4 -99 4
c-32 0 -69 -7 -80 -7c-13 0 -19 3 -19 6c0 5 3 7 14 10c31 8 39 15 42 40c0 13 4 74 4 159c0 178 -2 287 -3 315c-2 36 -4 43 -23 56c-6 3 -11 8 -11 11c0 4 5 8 14 10c9 4 73 25 99 40c8 6 12 9 18 9c2 0 5 -2 5 -11c0 -4 -3 -34 -3 -41c0 -2 2 -7 5 -5c45 31 76 44 115 44
zM247 12c11 0 21 4 34 14c11 9 44 52 44 134c0 63 -14 113 -53 146c-15 12 -38 20 -59 20s-38 -6 -49 -13c-4 -3 -7 -10 -8 -15c-3 -31 -2 -191 0 -218c1 -6 6 -20 12 -29c25 -31 64 -39 79 -39z" />
    <glyph glyph-name="q" unicode="q" horiz-adv-x="457" 
d="M199 -12c-33 0 -74 10 -107 39c-37 33 -61 82 -61 144c0 65 35 130 92 166c27 16 67 36 123 36c60 0 94 -17 127 -29c7 -3 12 1 22 11c4 5 8 10 13 10c4 0 5 -5 4 -14c-1 -7 -5 -30 -7 -80c-3 -50 -5 -192 -5 -253v-232c0 -12 10 -29 37 -38c10 -3 16 -5 16 -11
c0 -2 -7 -7 -15 -7c-26 0 -49 4 -86 4c-36 0 -96 -7 -104 -7c-15 0 -19 5 -19 7c0 5 4 8 19 11c37 8 47 23 49 50c3 34 9 154 9 220c0 5 -2 5 -4 4c-30 -18 -64 -31 -103 -31zM264 22c14 0 26 3 35 10c4 4 6 14 7 31c0 40 0 135 -1 175c-1 31 -5 59 -13 72
c-19 31 -43 45 -73 45c-15 0 -30 -7 -41 -19c-32 -32 -41 -82 -41 -139c0 -49 17 -115 53 -145c27 -24 50 -30 74 -30z" />
    <glyph glyph-name="r" unicode="r" horiz-adv-x="307" 
d="M207 305c-12 0 -24 -4 -34 -14c-7 -7 -9 -14 -11 -23c-3 -19 -2 -58 -2 -77c0 -71 2 -113 4 -136c4 -30 11 -37 48 -42c14 -2 18 -5 18 -10s-8 -7 -21 -7c-28 0 -46 4 -94 4c-60 0 -59 -5 -83 -5c-13 0 -19 3 -19 7s4 9 15 11c23 5 31 13 34 41c1 17 2 74 3 140
c0 63 1 89 0 101c0 6 -3 8 -26 28c-6 5 -8 7 -8 10s7 7 11 9c42 11 77 23 96 33c9 5 13 6 17 6c2 0 5 -6 5 -11c0 -18 -2 -46 -2 -68c0 -5 4 -6 5 -3c28 37 64 73 103 73c13 0 25 -4 33 -10c10 -7 14 -12 14 -20c0 -9 -13 -31 -30 -48c-10 -10 -15 -12 -20 -12
c-2 0 -7 0 -17 7c-11 8 -28 16 -39 16z" />
    <glyph glyph-name="s" unicode="s" horiz-adv-x="305" 
d="M173 357c-25 0 -57 -21 -57 -54c0 -39 34 -58 75 -84c63 -42 87 -68 87 -119c0 -41 -29 -71 -46 -84c-24 -17 -68 -28 -98 -28c-23 0 -57 6 -87 17c-7 3 -17 12 -17 19l-5 55c-1 13 1 20 5 20c3 0 7 -3 13 -21c8 -24 24 -47 42 -60c17 -12 30 -13 50 -13
c26 0 60 21 60 56c0 29 -21 50 -72 82c-59 38 -81 82 -81 117c0 36 17 69 49 89c19 14 51 24 85 24c32 0 64 -7 78 -13c3 -2 6 -6 6 -10c0 -10 4 -28 5 -54c1 -11 -2 -16 -6 -16s-6 5 -9 13c-5 15 -9 32 -25 46c-13 10 -30 18 -52 18z" />
    <glyph glyph-name="t" unicode="t" horiz-adv-x="277" 
d="M162 -9c-40 0 -74 13 -92 45c-9 14 -12 38 -12 62v205c0 8 -1 13 -7 17c-3 2 -9 4 -16 6c-8 2 -13 5 -13 10c0 3 5 8 16 14c23 10 65 39 94 71c15 15 22 11 22 6c0 -7 -2 -49 -1 -57c0 -3 1 -10 5 -10c19 1 86 3 102 2c2 0 8 -7 8 -18c0 -22 -7 -23 -11 -23h-88
c-12 0 -14 -4 -14 -9c0 -22 -1 -182 0 -208c1 -24 3 -37 11 -46c15 -18 35 -22 48 -22c19 0 34 4 46 12c10 6 13 3 13 0c0 -6 -5 -14 -21 -27c-25 -22 -60 -30 -90 -30z" />
    <glyph glyph-name="u" unicode="u" horiz-adv-x="444" 
d="M155 -9c-30 0 -57 9 -79 36c-15 17 -19 41 -20 70c-1 33 -2 192 -3 210c-1 20 -7 25 -23 34c-8 5 -11 9 -11 12s6 5 15 5c52 0 101 9 116 13c4 1 6 -6 6 -11c-3 -57 -4 -181 -3 -241c1 -41 8 -53 13 -61c14 -16 32 -22 53 -22c22 0 39 6 55 20c7 6 12 16 13 38
c2 32 3 82 3 107c0 15 0 71 -2 97c-3 34 -7 39 -36 44c-12 2 -18 6 -18 9c0 5 10 7 17 7h52c36 0 68 9 81 9c3 0 5 -5 5 -11c-4 -36 -5 -168 -5 -254c0 -37 0 -46 2 -60c1 -6 6 -11 12 -10c10 2 25 6 34 7c8 0 13 -8 13 -13s-12 -7 -22 -9c-11 -1 -93 -15 -122 -29
c-8 -3 -12 -2 -14 0c-2 4 -2 9 -2 16c0 10 1 28 1 38c0 5 -1 8 -3 6c-17 -16 -45 -36 -62 -43c-18 -8 -40 -14 -66 -14z" />
    <glyph glyph-name="v" unicode="v" horiz-adv-x="362" 
d="M92 361c29 0 55 3 72 3c9 0 15 -2 15 -6s-7 -8 -14 -10c-23 -6 -23 -14 -18 -34c9 -34 59 -158 74 -184c1 -4 3 -5 5 -1c8 17 50 120 62 158c5 18 9 27 9 39c0 6 -5 17 -31 22c-10 2 -15 6 -15 10c0 3 4 6 15 6c10 0 27 -3 53 -3c15 0 42 3 51 3c7 0 15 -2 15 -6
s-6 -8 -16 -10c-16 -4 -34 -15 -49 -50l-86 -200c-19 -41 -28 -61 -41 -96c-5 -13 -10 -17 -15 -17c-3 0 -7 1 -12 15c-4 15 -13 41 -27 77c-20 48 -78 198 -100 238c-10 18 -20 29 -41 34c-11 3 -14 6 -14 9c0 5 5 7 17 7c29 0 69 -4 91 -4z" />
    <glyph glyph-name="w" unicode="w" horiz-adv-x="565" 
d="M84 361c20 0 49 3 72 3c10 0 18 -3 18 -8c0 -2 -7 -7 -16 -8c-20 -4 -19 -11 -15 -29c13 -42 47 -126 71 -186c3 -5 5 -6 6 -2c8 15 40 84 54 120c2 6 4 14 2 19l-21 48c-8 16 -14 25 -36 31c-11 3 -16 5 -16 9c0 5 6 7 15 7c23 0 51 -4 73 -4c38 0 57 2 84 2
c11 0 15 -2 15 -6c0 -3 -7 -7 -15 -9c-22 -5 -26 -11 -13 -43c13 -33 56 -147 67 -173c2 -4 6 -1 6 1c14 34 38 92 53 138c8 23 13 41 13 48s0 20 -29 28c-13 3 -19 7 -19 11s8 6 15 6c19 0 41 -3 57 -3c11 0 41 3 52 3s14 -1 14 -5s-3 -7 -18 -12c-21 -7 -33 -18 -45 -43
c-20 -40 -50 -116 -77 -182c-18 -42 -30 -78 -43 -114c-6 -16 -12 -23 -16 -23c-6 0 -10 8 -14 22l-18 49c-26 72 -48 123 -69 176c0 2 -2 6 -5 0c-12 -24 -39 -84 -56 -123s-30 -74 -41 -100c-3 -10 -11 -24 -17 -24c-4 0 -9 9 -12 22c-5 14 -12 36 -28 80
c-19 53 -78 199 -93 227c-10 19 -16 28 -43 35c-9 2 -15 5 -15 9c0 6 9 8 16 8c21 0 45 -5 87 -5z" />
    <glyph glyph-name="x" unicode="x" horiz-adv-x="384" 
d="M127 361c15 0 42 2 53 2c8 0 16 -2 16 -7c0 -3 -4 -7 -18 -11c-12 -3 -14 -11 -8 -24c9 -19 35 -65 46 -82c2 -3 4 -2 5 -1c9 11 32 44 43 62c10 15 13 27 13 30c0 7 -4 12 -26 18c-7 2 -15 6 -15 10s8 5 15 5c9 0 26 -2 51 -2c22 0 48 3 63 3c10 0 15 -1 15 -5
c0 -3 -5 -7 -17 -10c-29 -8 -40 -15 -57 -33c-22 -23 -45 -55 -76 -93c-2 -3 -2 -7 -1 -9c13 -22 65 -117 101 -169c14 -20 31 -27 47 -31c12 -4 15 -7 15 -10c0 -6 -6 -8 -23 -8c-16 0 -64 4 -92 4c-29 0 -50 -3 -77 -3c-9 0 -17 3 -17 7c0 5 7 8 20 11c19 5 23 12 8 41
c-3 5 -32 60 -47 82c-1 2 -3 2 -5 1c-19 -26 -39 -56 -54 -82c-15 -24 -14 -37 11 -42c12 -4 17 -6 17 -10s-7 -7 -16 -7c-11 0 -33 2 -48 2c-16 0 -37 -2 -56 -3c-16 -1 -24 2 -24 7c0 4 5 7 21 9c26 4 39 17 54 33c15 14 31 37 86 109c2 2 2 6 1 8c-32 57 -67 120 -89 152
c-17 21 -25 28 -45 33c-11 3 -22 6 -22 11s8 7 18 7c39 -1 73 -4 114 -5z" />
    <glyph glyph-name="y" unicode="y" horiz-adv-x="362" 
d="M87 361c14 0 44 3 70 3c10 0 16 -3 16 -7s-9 -8 -15 -10c-16 -5 -21 -10 -15 -26c16 -42 56 -146 76 -189c4 -9 6 -7 8 -3c23 55 56 144 65 174c3 5 4 19 4 23c0 7 -6 16 -27 21c-15 4 -18 8 -18 11c0 4 5 6 19 6c11 0 36 -3 50 -3c21 0 39 3 49 3c5 0 14 -1 14 -5
s-6 -8 -14 -11c-23 -8 -33 -10 -50 -48c-15 -31 -73 -169 -93 -220l-46 -112c-26 -59 -53 -133 -74 -180c-8 -19 -14 -33 -21 -40c-8 -12 -20 -15 -33 -15c-22 0 -37 20 -37 38c0 20 13 38 35 38c6 0 18 -3 27 -3c8 0 16 1 22 13c10 22 35 84 67 166c4 9 4 17 1 26
c-15 42 -85 211 -132 310c-7 13 -19 23 -33 27c-11 3 -18 7 -18 10c0 6 10 7 17 7c39 0 46 -4 86 -4z" />
    <glyph glyph-name="z" unicode="z" horiz-adv-x="358" 
d="M232 361c43 0 59 2 79 2c6 0 9 1 13 -3c2 -2 -1 -8 -4 -12c-31 -42 -128 -233 -166 -314c-3 -7 -2 -12 2 -12c11 -1 41 -2 74 -2c35 0 49 3 61 11c11 7 35 40 40 50c6 8 12 15 15 15c7 0 5 -13 1 -26c-9 -27 -17 -52 -22 -62c-4 -6 -8 -10 -20 -10h-83
c-37 0 -68 2 -103 2c-52 0 -76 -1 -89 -2c-11 -1 -13 7 -7 14c11 16 39 67 63 109c28 48 103 183 114 213c2 4 1 7 -3 7c-44 0 -85 0 -104 -1s-39 -15 -57 -44c-9 -15 -12 -17 -15 -17c-4 0 -7 7 -2 20c5 14 22 69 25 79c2 10 9 10 13 2c5 -10 14 -14 27 -15
c31 -4 64 -4 148 -4z" />
    <glyph glyph-name="braceleft" unicode="{" horiz-adv-x="311" 
d="M252 -183c-87 2 -143 84 -143 159c0 28 21 128 21 165c0 72 -22 97 -77 115c-12 4 -24 7 -24 13c0 4 9 7 16 9c55 15 90 38 90 93c0 34 -21 125 -21 165c0 38 19 78 50 108c34 31 70 46 97 47c11 0 13 -2 13 -5s-7 -7 -13 -8c-17 -4 -33 -10 -48 -19
c-41 -23 -57 -61 -53 -114c2 -36 23 -106 23 -154c0 -57 -58 -96 -110 -119c-7 -2 -4 -4 -1 -5c78 -37 111 -78 111 -133c0 -37 -16 -114 -20 -131c-15 -81 -4 -152 93 -174c7 -2 10 -5 10 -8c0 -2 -5 -4 -14 -4z" />
    <glyph glyph-name="bar" unicode="|" horiz-adv-x="247" 
d="M99 728h49v-971h-49v971z" />
    <glyph glyph-name="braceright" unicode="}" horiz-adv-x="310" 
d="M58 691c87 0 143 -83 143 -159c0 -28 -21 -107 -21 -145c0 -65 23 -90 78 -108c11 -3 22 -7 22 -13c0 -4 -8 -7 -15 -9c-55 -14 -89 -41 -89 -96c0 -49 20 -148 20 -189c0 -37 -16 -74 -46 -104c-35 -33 -73 -50 -100 -51c-10 0 -13 2 -13 6c0 3 5 6 11 7
c74 17 108 61 103 133c-3 37 -24 112 -24 172c0 63 57 105 109 128c6 2 4 4 1 6c-78 37 -110 77 -110 129c0 31 17 88 20 108c12 81 7 150 -92 172c-7 2 -10 6 -10 9c0 2 7 4 13 4z" />
    <glyph glyph-name="asciitilde" unicode="~" horiz-adv-x="410" 
d="M131 245c56 0 109 -68 149 -68c29 0 45 13 68 62c2 5 5 6 7 6c7 0 20 -13 16 -22c-19 -50 -48 -80 -94 -80c-51 0 -100 67 -146 67c-25 0 -48 -6 -68 -54c-4 -7 -5 -9 -10 -9s-17 11 -16 15c15 49 49 83 94 83z" />
    <glyph glyph-name="exclamdown" unicode="&#xa1;" horiz-adv-x="273" 
d="M115 181c6 0 10 -5 13 -26c13 -117 53 -221 54 -293c0 -40 -27 -88 -66 -88c-45 0 -67 46 -67 85c0 66 42 196 54 293c3 25 8 29 12 29zM115 373c31 0 57 -27 58 -61c0 -35 -28 -62 -58 -62c-37 0 -57 32 -57 61c0 39 33 62 57 62z" />
    <glyph glyph-name="cent" unicode="&#xa2;" horiz-adv-x="432" 
d="M227 193l31 271c1 2 0 3 -3 3c-75 2 -107 -83 -107 -143c0 -56 24 -113 75 -134c2 -1 3 0 4 3zM285 537l-5 -50c0 -2 1 -3 2 -3c31 -2 64 -11 76 -20c5 -2 11 -8 11 -18c0 -16 -21 -33 -32 -33c-4 0 -8 2 -13 7c-12 13 -32 34 -45 42c-1 0 -3 -1 -3 -3l-32 -273
c0 -5 1 -6 3 -7c6 -2 16 -4 22 -4c31 0 64 4 97 31c5 4 10 6 10 0c0 -4 -2 -7 -8 -18c-15 -25 -62 -64 -127 -68c-4 -1 -5 -1 -6 -7l-7 -57c-2 -4 -2 -11 -8 -10c-6 0 -11 7 -10 11l8 59c0 2 -1 4 -4 4c-84 10 -157 70 -157 176c0 61 33 109 62 134c40 33 96 49 140 53
c1 0 3 3 3 4l7 54c0 2 2 9 6 9c7 0 10 -11 10 -13z" />
    <glyph glyph-name="sterling" unicode="&#xa3;" horiz-adv-x="435" 
d="M319 598c57 0 89 -33 89 -71c-1 -29 -20 -51 -43 -51c-5 -1 -11 3 -10 7c1 8 1 22 1 30c-1 37 -17 70 -46 70c-44 0 -73 -130 -86 -264c-2 -6 1 -9 3 -9l96 6c1 0 12 1 12 -6c0 -4 -10 -10 -13 -11l-96 -8c-4 0 -7 -5 -8 -9c-16 -85 -56 -139 -97 -176c-3 -4 -2 -6 1 -6
c35 5 73 -8 105 -23c48 -25 97 -49 120 -49c32 0 47 18 47 48c1 18 -1 34 -6 51c0 4 3 9 7 9c16 0 32 -5 32 -36c-1 -59 -92 -137 -158 -137c-43 0 -73 17 -121 56c-26 23 -47 45 -56 45c-4 0 -11 -3 -16 -9c-21 -26 -54 -68 -64 -68c-9 0 -17 8 -17 18c0 32 37 63 67 79
l14 10c17 17 29 78 35 183c0 3 -1 8 -3 8l-51 -2c-3 -1 -8 2 -8 6c0 6 6 11 9 12l51 3c2 0 5 5 5 9c4 40 10 79 19 112c15 55 38 100 77 134c22 18 63 39 109 39z" />
    <glyph glyph-name="fraction" unicode="&#x2044;" horiz-adv-x="21" 
d="M165 565c6 0 3 -10 -1 -17c-96 -160 -206 -331 -295 -480c-4 -7 -15 -11 -17 -9c-3 5 2 13 8 22c86 144 199 322 284 464c10 17 16 20 21 20z" />
    <glyph glyph-name="yen" unicode="&#xa5;" horiz-adv-x="432" 
d="M-7 583c0 2 6 6 17 6c13 0 63 -3 77 -3c33 0 75 3 93 3c10 0 18 -2 18 -6c0 -3 -6 -7 -17 -9c-16 -4 -21 -10 -13 -33c23 -61 65 -152 86 -198c1 -1 4 -3 5 0c21 43 45 99 63 146c11 26 19 50 19 61c0 9 -3 17 -27 23c-9 2 -15 5 -15 9c0 3 6 6 18 6c22 0 31 -2 48 -2
c26 1 38 4 59 4c7 0 15 -2 15 -6c0 -3 -8 -7 -14 -8c-33 -8 -45 -18 -72 -71c-30 -58 -63 -133 -84 -182c-1 -1 -3 -6 1 -6l73 -1c4 0 9 0 9 -4c0 -6 -8 -12 -12 -12h-72c-3 0 -4 -2 -4 -5v-49c0 -7 3 -7 5 -7h72c3 0 10 -2 10 -6c0 -6 -8 -11 -13 -11l-68 -1
c-3 0 -5 -2 -5 -7v-101c0 -93 1 -91 45 -100c9 -2 16 -5 15 -9c0 -3 -8 -7 -20 -7c-21 0 -73 3 -93 3c-25 0 -69 -3 -95 -3c-7 0 -16 3 -16 7c0 5 8 7 14 9c40 7 42 12 42 65c1 42 3 104 3 137c0 5 -4 6 -6 6l-68 1c-3 0 -12 2 -12 6c0 6 12 11 15 11h65c2 0 6 2 6 7v49
c0 3 -3 5 -4 5h-68c-3 0 -10 2 -10 5c0 6 10 12 13 12h62c1 0 2 1 0 6c-29 69 -61 140 -88 192c-24 45 -31 52 -54 57c-13 4 -18 7 -18 11z" />
    <glyph glyph-name="florin" unicode="&#x192;" horiz-adv-x="432" 
d="M358 636c53 0 70 -30 70 -51c-1 -32 -32 -48 -45 -48c-8 0 -9 5 -8 10c2 9 3 15 3 32c0 32 -12 43 -29 43c-21 0 -39 -22 -53 -55c-17 -39 -34 -105 -53 -200c-1 -5 1 -7 3 -7l65 1c10 1 14 -2 14 -5c0 -6 -12 -11 -17 -11c-12 -2 -41 -3 -66 -5c-3 0 -6 -5 -6 -7
c-19 -91 -34 -175 -54 -265c-22 -100 -82 -144 -121 -170c-33 -23 -61 -31 -85 -31c-30 0 -57 28 -57 42s14 31 23 36c3 2 10 2 12 0c29 -26 54 -48 72 -48c13 0 26 13 39 79l66 352c1 5 0 8 -3 8l-53 -2c-6 0 -10 3 -11 6c0 5 9 11 13 12l54 3c2 0 5 4 7 8
c26 114 71 198 120 236c27 21 56 37 100 37z" />
    <glyph glyph-name="section" unicode="&#xa7;" horiz-adv-x="338" 
d="M37 344c0 45 26 89 50 120c0 2 0 5 1 8c5 24 22 50 40 66c29 24 57 34 77 34s33 -5 39 -10c6 -4 8 -8 8 -11c0 -6 -10 -21 -18 -27c-4 -3 -10 -4 -13 -1c-18 12 -35 21 -51 21c-36 0 -48 -30 -48 -51c0 -34 25 -57 85 -118c62 -61 90 -111 90 -164
c0 -58 -33 -105 -46 -129c-21 -37 -52 -68 -87 -85c-7 -3 -32 -12 -43 -12c-26 0 -57 13 -57 30c0 6 7 13 20 23c3 4 10 7 14 4c18 -15 41 -25 59 -25c35 0 52 23 52 56c0 19 -20 51 -83 112c-49 48 -89 101 -89 159zM69 375c0 -54 43 -102 88 -148c33 -33 80 -77 86 -126
c0 -3 0 -7 5 -1c11 19 18 43 18 65c0 57 -23 98 -84 163c-45 47 -74 78 -90 116c-2 4 -3 3 -4 1c-14 -19 -19 -39 -19 -70z" />
    <glyph glyph-name="currency" unicode="&#xa4;" horiz-adv-x="432" 
d="M102 383l-36 47c-2 3 -7 10 -5 14c2 2 9 10 13 12c4 1 8 2 10 0l43 -49c4 -3 6 0 8 1c25 19 53 30 81 30c30 0 58 -12 83 -30c1 -1 3 -1 7 1l41 41c3 2 9 6 12 5c6 -4 8 -6 12 -12c2 -3 0 -9 -2 -12l-39 -48c-1 -1 -1 -5 0 -6c24 -29 34 -63 34 -96
c0 -35 -13 -72 -34 -98c-1 -1 -3 -3 -1 -7l39 -49c2 -2 4 -6 2 -9c-2 -5 -3 -10 -8 -14c-5 -3 -7 -3 -12 1l-43 45c-3 2 -5 1 -7 0c-26 -19 -55 -30 -84 -30s-59 11 -86 29c0 0 -3 2 -6 0l-41 -44c-4 -4 -8 -4 -12 -3c-4 4 -6 9 -8 15c-1 2 0 6 0 8l39 48c2 2 1 5 0 7
c-21 27 -33 64 -33 99s12 68 32 96c2 3 2 5 1 8zM216 398c-64 0 -114 -46 -114 -119c0 -71 54 -120 114 -120c59 0 114 49 114 120c0 69 -55 119 -114 119z" />
    <glyph glyph-name="quotesingle" unicode="'" horiz-adv-x="137" 
d="M90 656c8 0 13 -6 13 -31c0 -30 -14 -112 -27 -144c-2 -6 -11 -24 -16 -24c-5 -2 -7 4 -7 7c-2 48 -11 115 -18 141c0 2 0 14 4 18c9 11 39 33 51 33z" />
    <glyph glyph-name="quotedblleft" unicode="&#x201c;" horiz-adv-x="284" 
d="M86 473c-36 0 -66 32 -66 78c0 80 83 109 99 109c7 0 11 -1 11 -5c0 -2 -3 -5 -9 -7c-26 -13 -58 -33 -58 -72c0 -21 10 -36 36 -45c17 -5 23 -11 23 -25c0 -18 -18 -33 -36 -33zM219 473c-36 0 -66 32 -66 78c0 80 84 109 100 109c6 0 10 -1 10 -5c0 -2 -2 -5 -8 -7
c-26 -13 -59 -33 -59 -72c0 -21 10 -36 37 -45c16 -5 23 -11 23 -25c0 -18 -19 -33 -37 -33z" />
    <glyph glyph-name="guillemotleft" unicode="&#xab;" horiz-adv-x="552" 
d="M84 156c-6 2 -3 6 1 8c96 46 182 110 205 134c5 4 9 4 9 -2c0 -15 -103 -108 -130 -131c-3 -2 -2 -5 0 -7c53 -41 129 -119 129 -133c0 -10 -7 -4 -9 -3c-54 51 -130 96 -205 134zM256 156c-6 2 -3 6 1 8c96 46 182 117 206 140c5 4 9 4 9 -2c0 -14 -104 -114 -131 -137
c-3 -2 -2 -5 0 -7c53 -41 129 -126 129 -140c0 -9 -6 -4 -8 -2c-55 51 -131 102 -206 140z" />
    <glyph glyph-name="guilsinglleft" unicode="&#x2039;" horiz-adv-x="390" 
d="M83 156c-5 2 -1 6 2 8c100 46 191 112 215 135c5 4 10 4 10 -2c0 -15 -109 -109 -136 -132c-3 -1 -2 -5 0 -7c55 -42 134 -119 134 -135c0 -9 -7 -4 -9 -2c-57 51 -136 96 -216 135z" />
    <glyph glyph-name="guilsinglright" unicode="&#x203a;" horiz-adv-x="390" 
d="M306 162c6 -3 2 -7 -1 -9c-100 -45 -191 -111 -215 -135c-5 -4 -10 -3 -10 2c0 16 109 109 136 132c3 2 2 6 0 7c-55 42 -135 120 -135 136c0 9 7 4 9 2c58 -51 137 -97 216 -135z" />
    <glyph glyph-name="endash" unicode="&#x2013;" horiz-adv-x="451" 
d="M49 206h359c3 0 7 -2 7 -5c0 -6 -2 -21 -5 -26c-2 -3 -8 -4 -10 -4l-348 -2c-6 0 -17 1 -17 6c0 3 1 20 5 26c2 3 7 5 9 5z" />
    <glyph glyph-name="dagger" unicode="&#x2020;" horiz-adv-x="340" 
d="M165 553c12 0 24 -23 24 -38c0 -23 -12 -65 -15 -118c0 -3 1 -3 4 -3c40 1 63 14 92 14c16 0 31 -13 31 -20c0 -9 -15 -21 -34 -21c-26 0 -53 12 -92 14c-1 0 -2 -2 -2 -3c0 -72 10 -313 10 -338c0 -30 -11 -37 -18 -37c-6 0 -18 7 -18 37c0 25 10 270 10 338
c0 1 0 3 -3 3c-40 -3 -77 -14 -93 -14c-14 0 -31 12 -31 19c0 10 17 22 33 22c22 0 51 -13 91 -14c3 0 3 1 3 3c-1 52 -15 95 -15 118c0 15 12 38 23 38z" />
    <glyph glyph-name="daggerdbl" unicode="&#x2021;" horiz-adv-x="341" 
d="M182 385l-3 -97c0 -2 1 -4 3 -4c36 1 56 12 83 12c15 0 30 -10 30 -19c0 -11 -15 -21 -33 -21c-25 0 -42 12 -80 14c-2 0 -4 -2 -4 -3c1 -93 -3 -218 -3 -231c0 -23 -4 -33 -9 -33c-4 0 -7 14 -7 24c-1 31 -6 156 -7 239c0 3 -2 4 -3 4c-36 -3 -64 -14 -81 -14
s-35 8 -35 20c0 8 18 20 35 20c21 0 46 -12 82 -12c1 0 2 2 2 4l-2 97c0 2 0 6 -3 6c-35 -2 -69 -13 -86 -13c-13 0 -31 8 -31 19c0 10 14 21 30 21c25 0 45 -8 86 -12c1 0 3 1 3 4c-2 52 -4 89 -4 111c0 16 10 35 22 35c11 0 19 -19 19 -35c0 -22 -1 -59 -3 -112
c0 -2 1 -4 3 -4c34 1 59 13 85 13c16 0 31 -9 31 -19c0 -9 -15 -21 -33 -21c-25 0 -50 12 -84 14c-2 0 -3 -3 -3 -7z" />
    <glyph glyph-name="periodcentered" unicode="&#xb7;" horiz-adv-x="255" 
d="M128 242c36 0 57 -30 57 -60c0 -39 -33 -62 -58 -62c-33 0 -57 30 -57 61c0 35 27 61 58 61z" />
    <glyph glyph-name="paragraph" unicode="&#xb6;" horiz-adv-x="440" 
d="M356 565h17c14 0 28 -2 28 -10c0 -5 -12 -8 -17 -9c-8 -1 -63 -2 -76 -2c-6 0 -11 -11 -11 -22c0 -264 4 -490 4 -516c0 -105 -14 -146 -37 -172c-15 -17 -42 -24 -56 -24c-38 0 -81 28 -81 77c0 38 25 75 65 75c21 0 39 -20 39 -37c0 -30 -18 -43 -32 -43
c-9 0 -20 2 -27 5c-6 5 -8 6 -14 6c-3 0 -7 -4 -7 -12c0 -41 31 -53 61 -53c52 0 66 71 67 152c1 82 0 124 0 132c0 4 -5 6 -7 6c-30 0 -96 8 -149 45c-38 26 -88 87 -88 181c0 56 23 116 67 156c45 39 102 53 135 58c24 4 91 7 119 7z" />
    <glyph glyph-name="bullet" unicode="&#x2022;" horiz-adv-x="363" 
d="M180 291c56 0 106 -48 106 -108c0 -58 -49 -106 -105 -106c-57 0 -104 48 -104 106c0 59 49 108 103 108z" />
    <glyph glyph-name="quotesinglbase" unicode="&#x201a;" horiz-adv-x="175" 
d="M74 109c40 0 74 -34 74 -84c0 -87 -91 -118 -109 -118c-7 0 -12 2 -12 6c0 2 3 5 9 7c29 14 65 36 65 78c0 22 -13 39 -43 47c-19 7 -26 13 -26 28c0 20 21 36 42 36z" />
    <glyph glyph-name="quotedblbase" unicode="&#x201e;" horiz-adv-x="319" 
d="M74 109c40 0 74 -34 74 -84c0 -87 -91 -118 -109 -118c-7 0 -12 2 -12 6c0 2 3 5 9 7c29 14 65 36 65 78c0 22 -13 39 -43 47c-19 7 -26 13 -26 28c0 20 21 36 42 36zM218 109c40 0 74 -34 74 -84c0 -87 -91 -118 -109 -118c-6 0 -12 2 -12 6c0 2 4 5 9 7
c29 14 65 36 65 78c0 22 -13 39 -43 47c-19 7 -25 13 -25 28c0 20 20 36 41 36z" />
    <glyph glyph-name="quotedblright" unicode="&#x201d;" horiz-adv-x="284" 
d="M65 656c36 0 66 -32 66 -79c0 -80 -83 -109 -100 -109c-6 0 -10 2 -10 5c0 2 3 5 8 8c26 12 59 33 59 71c0 21 -10 37 -37 45c-16 5 -23 11 -23 25c0 19 19 34 37 34zM199 656c36 0 65 -32 65 -79c0 -80 -83 -109 -99 -109c-6 0 -11 2 -11 5c0 2 4 5 9 8
c26 12 59 33 59 71c0 21 -11 37 -37 45c-16 5 -23 11 -23 25c0 19 18 34 37 34z" />
    <glyph glyph-name="guillemotright" unicode="&#xbb;" horiz-adv-x="552" 
d="M468 162c6 -2 2 -6 -2 -9c-95 -45 -181 -110 -204 -133c-5 -4 -10 -4 -10 2c0 14 104 108 131 131c3 1 2 5 0 7c-53 41 -129 119 -129 133c0 10 7 4 9 2c54 -50 130 -95 205 -133zM296 162c6 -2 3 -6 -1 -9c-96 -45 -182 -116 -206 -139c-5 -4 -9 -5 -9 1
c0 15 104 115 131 138c3 1 2 5 0 7c-53 41 -130 125 -130 139c0 10 7 4 9 3c55 -51 131 -102 206 -140z" />
    <glyph glyph-name="ellipsis" unicode="&#x2026;" horiz-adv-x="625" 
d="M102 102c33 0 53 -28 53 -56c0 -37 -31 -58 -54 -58c-31 0 -53 28 -53 57c0 32 24 57 54 57zM310 102c33 0 53 -28 53 -56c0 -37 -31 -58 -54 -58c-31 0 -53 28 -53 57c0 32 24 57 54 57zM519 106c35 0 56 -31 56 -60c0 -40 -33 -62 -57 -62c-33 0 -57 29 -57 61
c0 34 27 61 58 61z" />
    <glyph glyph-name="perthousand" unicode="&#x2030;" horiz-adv-x="814" 
d="M668 87c36 1 40 79 40 117c0 39 -9 131 -49 131c-37 0 -41 -77 -41 -116c0 -40 11 -133 50 -132zM662 71c-76 0 -111 73 -111 133c0 34 7 69 28 98c21 31 52 48 89 48c77 0 108 -77 108 -130c0 -44 -8 -76 -25 -100c-22 -32 -50 -49 -89 -49zM413 87c36 1 40 79 40 117
c0 39 -9 131 -48 131c-37 0 -42 -77 -42 -116c0 -40 11 -133 50 -132zM407 71c-76 0 -111 73 -111 133c0 34 7 69 28 98c21 31 52 48 89 48c77 0 108 -77 108 -130c0 -44 -8 -76 -25 -100c-21 -32 -50 -49 -89 -49zM450 588c7 0 4 -11 -1 -19c-120 -186 -203 -317 -318 -490
c-5 -8 -18 -13 -20 -10c-3 5 2 15 8 25c114 169 199 306 306 471c13 20 19 23 25 23zM156 315c37 1 40 79 40 117c0 39 -8 131 -49 131c-36 0 -41 -75 -41 -115c0 -41 11 -135 50 -133zM149 301c-78 0 -110 74 -110 133c0 35 8 69 28 98c22 29 50 46 89 46
c72 0 108 -77 108 -131c0 -47 -10 -79 -28 -102c-25 -32 -56 -44 -87 -44z" />
    <glyph glyph-name="questiondown" unicode="&#xbf;" horiz-adv-x="356" 
d="M167 -147c19 0 47 10 55 13c10 4 20 4 30 -4c11 -13 21 -47 21 -61c0 -12 -11 -23 -43 -23c-52 0 -101 49 -130 86c-37 48 -49 94 -49 137c0 34 13 64 53 84c23 11 37 16 58 25c33 15 36 32 36 51c0 9 2 15 7 15s8 -8 11 -17c6 -20 17 -65 17 -97c0 -16 -8 -34 -25 -46
c-26 -18 -54 -29 -80 -42c-28 -15 -34 -36 -34 -51c0 -18 6 -35 16 -46c12 -14 32 -24 57 -24zM189 372c33 0 57 -28 58 -61c0 -33 -26 -61 -59 -61c-36 0 -57 33 -57 61c0 39 34 61 58 61z" />
    <glyph glyph-name="grave" unicode="`" horiz-adv-x="350" 
d="M131 586c4 0 9 -3 12 -9c2 -7 53 -133 58 -146c2 -7 1 -15 -2 -15c-4 0 -8 4 -14 10c-4 7 -58 91 -86 138c-7 12 -2 17 0 19c3 3 21 3 32 3z" />
    <glyph glyph-name="acute" unicode="&#xb4;" horiz-adv-x="350" 
d="M255 579c7 0 8 -3 8 -6c0 -2 -2 -7 -4 -10c-21 -35 -67 -103 -97 -144c-5 -8 -12 -11 -14 -11c-3 0 -4 6 0 15c1 3 60 135 62 138c6 7 31 17 45 18z" />
    <glyph glyph-name="circumflex" unicode="&#x2c6;" horiz-adv-x="350" 
d="M180 583c2 0 7 -4 9 -11l63 -139c4 -10 4 -17 0 -17c-6 0 -13 11 -19 18c-8 10 -33 48 -54 83c-2 3 -4 4 -9 -3c-10 -13 -35 -50 -60 -82c-2 -2 -9 -10 -15 -10c-3 0 -2 9 2 15c6 13 53 96 61 113c9 17 12 22 15 26c2 4 4 7 7 7z" />
    <glyph glyph-name="tilde" unicode="&#x2dc;" horiz-adv-x="350" 
d="M122 518c12 0 15 -2 31 -3c12 -1 53 -9 71 -9c21 0 34 3 50 23c5 8 12 12 15 12c2 0 4 -7 -1 -15l-39 -52c-6 -7 -17 -13 -22 -13c-23 0 -85 14 -104 14s-25 -3 -45 -27c-5 -4 -7 -7 -11 -7c-2 0 -4 3 1 17c7 11 26 37 38 50c7 6 13 10 16 10z" />
    <glyph glyph-name="macron" unicode="&#xaf;" horiz-adv-x="350" 
d="M96 512c19 1 153 3 168 3c2 0 6 -3 6 -7s-5 -26 -8 -32c-2 -3 -5 -4 -6 -4c-10 -1 -153 -4 -169 -4c-2 0 -7 4 -7 9s5 25 8 30c2 2 7 5 8 5z" />
    <glyph glyph-name="breve" unicode="&#x2d8;" horiz-adv-x="350" 
d="M171 440c-45 0 -77 28 -80 88c0 5 2 16 6 16c5 0 7 -9 9 -16c7 -28 32 -42 65 -42c27 0 65 5 76 45c2 6 4 10 7 10c4 0 5 -7 5 -14c-2 -35 -27 -87 -88 -87z" />
    <glyph glyph-name="dotaccent" unicode="&#x2d9;" horiz-adv-x="350" 
d="M176 548c26 0 45 -23 45 -47c0 -35 -27 -50 -49 -50c-21 0 -43 19 -43 46c0 36 27 51 47 51z" />
    <glyph glyph-name="dieresis" unicode="&#xa8;" horiz-adv-x="350" 
d="M107 537c21 0 38 -19 38 -40c0 -30 -22 -44 -42 -44c-17 0 -37 16 -37 39c0 29 22 45 41 45zM245 537c22 0 38 -20 38 -41c0 -28 -22 -43 -42 -43c-18 0 -37 17 -37 40c0 30 22 44 41 44z" />
    <glyph glyph-name="ring" unicode="&#x2da;" horiz-adv-x="350" 
d="M174 551c35 0 58 -29 58 -59c0 -31 -23 -60 -58 -60s-57 29 -57 60c0 30 22 59 57 59zM174 529c-19 0 -38 -15 -38 -37c0 -25 20 -36 38 -36c19 0 38 10 38 38c0 20 -18 35 -38 35z" />
    <glyph glyph-name="cedilla" unicode="&#xb8;" horiz-adv-x="350" 
d="M227 -118c0 -42 -56 -76 -90 -76c-26 0 -42 10 -42 27c0 7 9 22 23 22c6 0 12 -8 16 -15c8 -10 17 -16 25 -16c7 0 23 5 23 31c0 31 -23 43 -49 53c-8 3 -10 6 -10 9c0 1 -1 3 2 5c12 12 52 57 71 82h17c-21 -26 -34 -40 -39 -47c-2 -3 -1 -5 0 -6c17 -12 53 -28 53 -69z
" />
    <glyph glyph-name="hungarumlaut" unicode="&#x2dd;" horiz-adv-x="350" 
d="M191 560c4 0 5 -1 5 -4s-2 -11 -4 -14c-16 -34 -48 -91 -65 -122c-5 -8 -11 -11 -13 -11c-3 0 -3 4 -1 13c1 3 42 117 44 120c6 6 24 18 34 18zM284 567c4 0 5 -2 5 -5c0 -2 0 -7 -2 -10c-16 -34 -51 -95 -71 -129c-5 -8 -9 -8 -11 -8c-3 0 -3 4 -1 13c1 3 43 118 45 121
c6 6 26 18 35 18z" />
    <glyph glyph-name="ogonek" unicode="&#x2db;" horiz-adv-x="350" 
d="M234 5h14c-51 -41 -95 -101 -95 -142c0 -26 21 -41 42 -41c26 0 38 10 54 21c2 1 8 2 7 -4c-1 -4 -5 -13 -12 -22c-17 -22 -46 -47 -82 -47c-31 0 -66 17 -66 68c0 57 81 126 138 167z" />
    <glyph glyph-name="caron" unicode="&#x2c7;" horiz-adv-x="350" 
d="M168 416c-2 0 -7 6 -9 12l-62 139c-5 10 -4 17 0 17c5 0 12 -11 19 -19c7 -10 33 -48 54 -82c1 -3 4 -4 8 2c10 14 33 48 60 83c2 2 10 11 15 11c3 0 3 -10 -1 -16c-7 -13 -53 -97 -61 -113c-9 -17 -13 -23 -16 -27c-2 -4 -4 -7 -7 -7z" />
    <glyph glyph-name="emdash" unicode="&#x2014;" horiz-adv-x="758" 
d="M49 206h670c3 0 7 -2 7 -5c0 -6 -2 -21 -5 -26c-2 -3 -8 -4 -10 -4l-659 -2c-6 0 -17 1 -17 6c0 3 1 20 5 26c2 3 7 5 9 5z" />
    <glyph glyph-name="AE" unicode="&#xc6;" horiz-adv-x="862" 
d="M558 311h99c52 0 60 4 67 10c10 5 23 30 28 43c2 5 6 12 9 12c4 0 5 -8 5 -12c0 -6 -4 -46 -5 -59c-1 -14 2 -55 2 -61c1 -14 -2 -21 -6 -21c-2 0 -4 2 -10 16c-4 11 -15 40 -33 42c-25 3 -48 5 -163 5c-1 0 -3 -2 -3 -6c0 -54 2 -183 2 -201c1 -30 14 -50 30 -55
c16 -4 48 -5 103 -5c51 0 72 7 80 13c19 11 41 43 55 61c7 10 14 17 19 17c4 0 3 -8 -1 -20c-2 -8 -20 -69 -25 -78c-6 -12 -17 -16 -21 -16c-106 0 -213 4 -315 4c-33 0 -88 -5 -99 -5c-13 0 -20 2 -20 7s9 7 20 10c32 6 53 16 56 61c0 33 5 135 3 200c0 5 -1 8 -7 8h-167
c-8 0 -15 -10 -19 -16c-15 -23 -77 -125 -93 -163c-18 -37 -15 -52 -11 -64c5 -13 27 -19 49 -25c9 -3 15 -6 15 -9c0 -6 -8 -9 -19 -9c-17 0 -63 5 -86 5c-24 0 -69 -5 -83 -5s-20 3 -20 7s6 7 20 10c44 7 69 40 105 98c37 61 226 372 277 464c8 14 10 21 -15 25l-45 6
c-8 2 -18 4 -18 11c0 4 7 7 20 7c45 0 79 -5 116 -5c81 0 221 3 256 3c38 1 52 1 61 1c7 0 11 -6 12 -15c1 -7 10 -62 11 -79c1 -6 -4 -14 -8 -14c-3 0 -7 4 -11 14c-16 39 -41 64 -57 67c-15 4 -38 3 -162 3c-7 0 -8 0 -8 -36c0 -31 1 -176 1 -243c0 -5 1 -8 9 -8zM430 307
c5 0 5 9 5 13c1 56 3 132 3 253c0 15 -6 25 -19 1c-26 -47 -118 -203 -147 -259c-2 -4 0 -8 4 -8c41 0 129 -1 154 0z" />
    <glyph glyph-name="ordfeminine" unicode="&#xaa;" horiz-adv-x="207" 
d="M109 501c36 0 64 -22 66 -64c1 -25 -1 -68 -1 -79c0 -10 4 -20 16 -20c6 0 11 2 15 4c1 1 5 0 5 -2c0 -1 -1 -3 -2 -6c-6 -17 -27 -31 -52 -31c-23 0 -33 11 -38 22c-1 2 -2 3 -4 1c-21 -17 -42 -23 -52 -23c-23 0 -45 19 -45 48c0 19 15 31 29 36c19 6 52 15 67 21
c4 1 5 3 5 7c1 4 1 16 1 22c0 29 -8 49 -31 49c-7 0 -13 -4 -16 -7c-5 -4 -4 -6 -6 -28c0 -2 -2 -6 -5 -7c-8 -4 -36 -16 -40 -16c-3 -1 -6 3 -6 6c0 6 5 15 12 22c20 21 53 45 82 45zM75 364c0 -22 11 -34 27 -34c4 0 8 2 11 4c2 2 3 5 3 8c1 10 3 41 2 54c0 3 -1 3 -3 3
c-8 -2 -20 -7 -28 -12c-7 -5 -12 -13 -12 -23z" />
    <glyph glyph-name="Lslash" unicode="&#x141;" horiz-adv-x="514" 
d="M32 617c0 5 8 7 18 7c32 0 69 -6 103 -6c44 0 65 4 102 4c13 0 18 -1 18 -6c0 -6 -12 -9 -18 -11c-34 -6 -39 -12 -42 -75c-1 -15 -1 -100 -1 -181c0 -2 3 -6 6 -5l116 38c7 2 13 0 13 -4c0 -9 -7 -13 -18 -17c-34 -12 -81 -30 -113 -40c-3 -1 -4 -8 -4 -11
c0 -86 0 -174 2 -192c3 -39 4 -64 12 -75c10 -17 38 -25 109 -26c26 0 52 0 72 5c19 5 47 39 68 73c12 17 15 20 19 20c6 0 5 -17 -1 -36c-3 -6 -27 -70 -30 -75c-2 -8 -14 -11 -29 -11c-10 0 -82 0 -131 2c-49 1 -111 5 -159 5c-30 0 -82 -5 -96 -5c-12 0 -23 0 -23 6
s8 8 17 10c40 8 47 18 50 51c4 28 6 82 6 201c0 9 1 23 -5 22l-39 -12c-5 -1 -17 -3 -22 7c0 4 5 8 10 10l50 17c3 1 6 3 6 10c0 125 0 187 -2 224c-3 53 -11 59 -47 66c-14 3 -17 6 -17 10z" />
    <glyph glyph-name="Oslash" unicode="&#xd8;" horiz-adv-x="749" 
d="M372 636c63 0 125 -19 174 -49c3 -2 7 -1 8 1l30 39c8 10 14 14 20 14c7 0 5 -10 -2 -21c-8 -12 -21 -28 -31 -43c-3 -4 -1 -8 1 -9c80 -61 133 -159 133 -266c0 -160 -109 -255 -186 -289c-41 -19 -88 -31 -141 -31c-72 0 -138 22 -192 60c-2 1 -8 -1 -8 -2l-48 -59
c-2 -3 -15 -11 -20 -5c-2 4 1 11 7 18l45 59c2 4 1 6 -2 8c-70 61 -116 151 -116 250c0 100 35 191 131 264c53 40 130 61 197 61zM394 0c42 0 76 16 105 50c27 30 80 102 80 253c0 84 -14 140 -51 208c-1 1 -4 2 -5 1l-289 -397c-1 -2 -2 -7 -1 -8c12 -19 25 -36 37 -48
c33 -30 69 -59 124 -59zM361 620c-39 0 -86 -16 -132 -74c-41 -52 -61 -134 -61 -221c0 -62 19 -139 49 -190c1 -3 4 -2 6 1c98 132 194 264 290 395c1 2 1 6 0 7c-28 41 -79 82 -152 82z" />
    <glyph glyph-name="OE" unicode="&#x152;" horiz-adv-x="1062" 
d="M380 638c108 0 197 -43 253 -114c1 -3 6 -4 6 2c0 14 -2 77 -2 79c0 11 1 14 8 14c8 0 45 -1 50 -1c69 0 178 3 218 3c38 0 55 2 63 2c4 0 10 -10 11 -16l10 -80c1 -5 -2 -14 -5 -14c-4 0 -9 4 -13 14c-14 37 -41 66 -58 69c-14 3 -72 3 -156 3c-8 0 -12 -7 -12 -41
c-1 -25 -1 -154 -1 -222c0 -4 2 -10 7 -10h102c33 0 56 2 65 8c9 5 17 21 26 44c2 3 6 12 11 12c3 0 5 -10 5 -12c0 -6 -4 -48 -5 -60c-1 -13 1 -53 2 -60c0 -14 -3 -18 -6 -18c-4 0 -6 4 -12 17c-4 11 -12 36 -29 38c-26 3 -50 5 -161 5c-2 0 -6 -8 -6 -11
c0 -47 4 -199 4 -218c0 -17 9 -41 24 -45c14 -3 38 -7 90 -7c53 0 84 0 109 24c15 13 31 38 41 50c7 10 12 16 17 16c3 0 5 -8 1 -19c-2 -7 -20 -70 -25 -80c-4 -8 -13 -14 -21 -14c-106 0 -209 4 -287 4c-12 0 -52 -2 -61 -3c-6 -2 -10 -1 -10 14c0 24 2 56 2 77
c0 6 -3 5 -7 0c-62 -69 -146 -105 -244 -105c-192 0 -340 138 -340 339c0 80 32 179 134 253c44 33 116 63 202 63zM382 619c-48 0 -100 -18 -144 -68c-49 -58 -70 -138 -70 -235c0 -164 94 -313 238 -313c33 0 82 10 118 34c60 42 118 133 118 268c0 105 -24 175 -86 243
c-41 43 -114 71 -174 71z" />
    <glyph glyph-name="ordmasculine" unicode="&#xba;" horiz-adv-x="246" 
d="M124 303c-62 0 -107 44 -107 100c0 57 47 98 106 98c67 0 106 -45 106 -99c0 -59 -49 -99 -105 -99zM131 313c22 0 37 27 37 80c0 59 -20 98 -48 98c-24 0 -40 -31 -40 -78c0 -59 22 -100 51 -100z" />
    <glyph glyph-name="ae" unicode="&#xe6;" horiz-adv-x="513" 
d="M196 373c47 0 74 -31 85 -45c2 -4 6 -3 9 -1c20 18 59 44 99 44c41 0 69 -12 86 -28c18 -17 22 -35 22 -48c0 -5 -8 -15 -18 -19c-53 -24 -154 -62 -170 -66c-4 -2 -5 -9 -5 -11c-1 -12 -1 -56 0 -70c3 -27 7 -41 18 -55c19 -22 41 -36 80 -36c22 0 52 10 73 27
c8 8 13 11 16 11c6 0 6 -4 0 -15c-21 -35 -87 -71 -135 -71c-67 0 -98 18 -125 54c-3 2 -9 3 -12 1c-32 -28 -78 -55 -112 -55c-45 0 -83 35 -83 91c0 40 34 58 53 64c36 13 77 27 115 43c16 5 21 13 22 17c1 11 2 44 2 52c0 41 -10 56 -23 67s-27 15 -41 15
c-12 0 -24 -3 -31 -7c-9 -5 -16 -15 -16 -53c0 -1 -2 -6 -6 -8c-12 -8 -44 -22 -59 -26c-6 -2 -12 2 -12 8c0 15 12 32 26 45c16 15 31 31 73 53c24 13 53 22 69 22zM167 41c19 0 34 5 44 14c7 5 6 9 6 19c-3 17 -4 54 -4 96c0 3 -1 9 -5 8c-8 -4 -47 -18 -66 -28
c-15 -8 -25 -23 -25 -47c0 -48 28 -62 50 -62zM366 352c-12 0 -26 -9 -34 -18c-22 -25 -29 -65 -29 -101c0 -6 2 -8 5 -7c13 4 49 20 67 27c18 8 28 17 28 47c0 31 -12 52 -37 52z" />
    <glyph glyph-name="dotlessi" unicode="&#x131;" horiz-adv-x="223" 
d="M34 334c0 2 3 5 14 8c45 9 63 16 98 30c8 3 12 6 15 6s5 -3 4 -14c-2 -21 -2 -72 -2 -114c0 -112 0 -192 2 -207c2 -17 7 -26 27 -31c11 -3 14 -6 14 -10c0 -5 -7 -7 -15 -7c-17 0 -40 5 -82 5c-44 0 -67 -2 -78 -2c-9 0 -17 3 -17 7c0 5 6 7 18 9c26 6 33 19 33 54
c0 30 3 204 3 214c0 19 0 23 -26 41c-5 4 -8 7 -8 11z" />
    <glyph glyph-name="lslash" unicode="&#x142;" horiz-adv-x="223" 
d="M34 639c0 3 6 6 16 8c40 6 80 21 100 28c5 2 10 4 14 4c2 0 5 -6 5 -11c0 -6 -3 -151 -3 -301c0 -3 1 -5 2 -4c10 3 42 18 48 21c8 4 11 -2 11 -5c0 -5 -5 -9 -14 -14l-43 -21c-4 -2 -4 -8 -4 -12v-89c0 -132 0 -168 1 -186c1 -35 9 -38 34 -44c5 -1 12 -4 12 -9
c0 -4 -9 -7 -20 -7c-30 0 -70 3 -85 3c-27 0 -47 -2 -74 -2c-10 0 -18 2 -18 7s6 7 14 9c27 5 33 10 35 53c2 29 4 139 5 232c0 3 -3 4 -6 3c-9 -5 -26 -10 -32 -12c-7 -3 -15 1 -15 4c0 5 5 8 7 10l43 19c3 2 4 8 4 12c1 22 1 39 1 56c0 55 1 161 1 195c0 23 -6 31 -28 42
c-7 4 -11 8 -11 11z" />
    <glyph glyph-name="oslash" unicode="&#xf8;" horiz-adv-x="461" 
d="M232 373c40 0 71 -9 101 -26c3 -1 3 -2 6 1l15 20c7 9 14 15 17 15c5 0 6 -9 2 -16c-2 -4 -12 -19 -19 -29c-1 -2 1 -5 2 -6c45 -35 74 -89 74 -150c0 -75 -45 -131 -77 -156c-33 -25 -77 -38 -120 -38c-41 0 -84 13 -115 32c-2 2 -5 0 -6 -1c-8 -9 -21 -25 -28 -32
c-4 -5 -10 -8 -12 -6c-4 2 -3 13 1 17l25 33c1 2 -1 4 -3 6c-40 35 -64 83 -64 139c0 79 42 127 71 150c42 33 88 47 130 47zM163 70c15 -33 48 -66 80 -66c8 0 30 6 44 21c12 14 39 63 39 136c0 40 -6 81 -15 110c-1 4 -3 6 -7 1c-46 -61 -92 -124 -139 -187
c-5 -6 -4 -11 -2 -15zM212 356c-42 0 -77 -65 -77 -155c0 -38 4 -72 15 -98c1 -5 2 -5 7 1c47 61 92 125 139 186c4 4 5 6 2 13c-20 34 -52 53 -86 53z" />
    <glyph glyph-name="oe" unicode="&#x153;" horiz-adv-x="654" 
d="M232 373c48 0 100 -29 131 -66c2 -1 5 -2 7 0c34 36 71 66 144 66c71 0 119 -53 119 -106c0 -8 -10 -15 -16 -16c-18 0 -126 2 -157 2h-33c-3 0 -6 -3 -7 -6c-3 -8 -5 -25 -5 -38c0 -49 13 -87 39 -120c22 -26 59 -41 83 -41c34 0 64 6 90 28c7 5 11 4 11 -1
c0 -4 -1 -6 -7 -14c-28 -40 -79 -72 -142 -72c-49 0 -92 22 -122 57c-3 2 -5 1 -7 -1c-40 -39 -86 -57 -128 -57c-116 0 -201 83 -201 190c0 77 42 126 73 150c45 36 93 45 128 45zM219 356v1c-53 0 -82 -76 -82 -148c0 -55 5 -101 29 -147c21 -40 50 -58 79 -58
c17 0 33 8 46 24c13 18 30 65 30 133c0 115 -31 195 -102 195zM502 359c-22 0 -37 -11 -51 -27c-17 -16 -28 -49 -28 -56c0 -3 2 -6 8 -6c22 0 70 -1 91 -1c25 0 28 14 28 22c0 19 -3 38 -16 53c-6 8 -17 15 -32 15z" />
    <glyph glyph-name="germandbls" unicode="&#xdf;" horiz-adv-x="456" 
d="M293 682c97 0 130 -80 130 -131c0 -52 -22 -76 -51 -102c-14 -13 -28 -25 -41 -38c-22 -24 -28 -38 -28 -60c0 -15 7 -31 22 -48c13 -14 35 -35 55 -55c27 -26 50 -58 50 -106c0 -64 -60 -110 -88 -128c-40 -25 -72 -26 -80 -26c-9 0 -47 5 -47 30c0 6 8 19 17 24
c7 6 10 8 16 5c30 -17 50 -25 65 -25c28 0 50 23 50 60c0 29 -23 60 -68 102c-40 38 -71 71 -71 120c0 18 12 38 19 45c18 19 34 32 56 52c50 45 70 89 70 133c0 88 -58 127 -98 127c-53 0 -83 -34 -99 -119c-11 -62 -13 -149 -13 -289c0 -92 3 -187 4 -207
c1 -22 20 -27 27 -31c6 -3 15 -7 15 -11s-11 -8 -14 -8c-17 0 -41 4 -74 4c-54 0 -60 -5 -82 -5c-7 0 -20 2 -20 6s6 6 17 10c19 6 27 15 30 37c3 18 3 113 3 160c0 45 0 77 -1 97c0 7 -2 11 -8 13c-4 0 -16 2 -23 2c-9 0 -14 3 -14 8c1 6 21 15 36 26c6 4 9 6 9 13
c3 58 13 166 79 241c29 33 81 74 150 74z" />
    <glyph glyph-name="logicalnot" unicode="&#xac;" horiz-adv-x="410" 
d="M41 242c0 10 6 25 9 25l310 1c4 0 8 -8 8 -14v-186c0 -11 -22 -12 -27 -12c-2 0 -9 2 -9 6l-2 152c0 11 -4 19 -10 19l-265 1c-13 0 -14 5 -14 8z" />
    <glyph glyph-name="mu" unicode="&#xb5;" horiz-adv-x="428" 
d="M91 378c18 0 48 -10 60 -19c7 -4 17 -20 16 -32c0 -20 -16 -63 -23 -88c-9 -35 -28 -102 -33 -129c-3 -12 -4 -23 -1 -29c6 -11 14 -19 31 -19c42 0 91 57 120 128c4 9 7 28 7 38c1 44 6 108 8 123c2 13 12 27 18 27c32 0 66 -16 74 -24c5 -6 7 -20 7 -32
c-3 -39 -49 -154 -67 -191c-5 -11 -5 -14 -5 -23c1 -28 23 -36 48 -36s56 13 70 24c2 4 9 3 9 -3c0 -13 -8 -44 -14 -58c-16 -37 -39 -52 -68 -52c-34 0 -54 32 -59 103c-1 5 -4 3 -6 -1c-47 -74 -82 -98 -115 -98s-59 51 -67 67c-2 5 -5 -1 -6 -11
c-11 -66 -18 -146 -11 -175c9 -39 39 -66 77 -92c3 -3 3 -9 1 -11c-9 -19 -36 -42 -60 -42c-11 0 -20 5 -29 20c-12 19 -13 64 -13 127c0 37 2 190 2 213c0 24 0 14 -1 46c-1 23 -1 192 0 225c1 7 4 17 11 19c9 5 16 5 19 5z" />
    <glyph glyph-name="trademark" unicode="&#x2122;" horiz-adv-x="201" 
d="M172 549c2 0 18 1 20 1c8 0 5 -4 2 -5l-8 -3c-2 -1 -3 -2 -3 -5v-38c1 -12 0 -13 12 -17c6 -2 2 -5 -3 -5c-6 0 -10 1 -14 1c-9 0 -15 -1 -19 -1c-5 0 -5 4 -1 5c8 3 12 5 12 14c1 15 1 37 1 38s-1 1 -2 0c-2 -3 -18 -36 -25 -55c-1 -2 -2 -2 -4 0c-5 14 -15 34 -23 52
c-1 2 -1 1 -1 0c-1 -12 -2 -26 -2 -35c0 -7 2 -10 12 -13c6 -3 4 -6 -2 -6s-10 1 -17 1c-5 0 -10 -1 -13 -1c-5 0 -8 3 -3 5c7 3 14 6 15 14c1 9 3 32 3 36c0 2 0 4 -2 7s-4 4 -8 5c-6 2 -7 6 1 6s16 -1 21 -1c2 0 4 -5 7 -10l17 -33c1 -1 2 -2 3 -1l19 40c1 2 3 4 5 4z
M24 549h44c7 0 11 1 16 3c1 1 2 0 2 -1c-1 -6 -2 -19 -2 -20c0 -4 -2 -4 -4 -1c-2 4 -4 12 -10 12l-13 -1c-1 0 -2 -1 -2 -2v-39c0 -11 1 -14 14 -18c4 -1 3 -5 -1 -5s-15 1 -20 1c-10 0 -12 -1 -20 -1c-4 0 -6 4 -1 5c10 3 14 6 14 19v33c0 6 0 7 -2 7l-12 1
c-7 0 -9 -5 -12 -10c-1 -2 -2 -4 -3 -4c-2 0 -2 1 -2 5c0 1 3 15 3 18c0 1 2 2 3 1z" />
    <glyph glyph-name="Eth" unicode="&#xd0;" horiz-adv-x="697" 
d="M28 611c0 7 9 8 22 8c42 0 85 0 126 5c28 3 80 6 105 6c89 0 162 -11 230 -54c76 -48 142 -131 142 -257c0 -208 -140 -293 -269 -321c-35 -8 -78 -10 -101 -10c-24 0 -51 3 -79 5c-30 1 -58 5 -90 5c-27 0 -62 -2 -71 -2c-11 0 -20 2 -20 8c0 4 5 6 18 8
c37 8 46 14 50 54c3 22 5 60 5 208c0 11 0 23 -1 33c0 3 -1 6 -3 6h-49c-10 0 -16 5 -16 11c0 3 6 11 19 11l46 1c2 0 4 2 4 6c0 99 -1 181 -4 207c-3 36 -10 45 -43 51c-8 2 -21 5 -21 11zM366 330c0 -7 -10 -15 -24 -15l-129 -2c-3 0 -4 -3 -4 -7c0 -86 5 -142 6 -194
c1 -37 11 -64 36 -82c14 -12 46 -23 59 -23c29 0 66 7 93 23c54 33 124 119 124 274c0 86 -29 181 -94 239c-59 53 -118 68 -169 68c-13 0 -31 -3 -40 -7c-8 -3 -11 -11 -12 -30c-2 -30 -3 -66 -3 -230c0 -4 1 -7 4 -7h133c15 0 20 -3 20 -7z" />
    <glyph glyph-name="onehalf" unicode="&#xbd;" horiz-adv-x="456" 
d="M333 334c40 0 72 -30 72 -72c0 -24 -9 -43 -37 -70c-25 -24 -44 -40 -62 -56c-4 -3 -1 -5 2 -5c21 -1 82 1 92 1c10 1 15 2 25 15c4 6 7 10 11 10c3 0 3 -9 0 -15l-16 -55c-1 -4 -3 -5 -5 -5c-14 0 -49 4 -101 3h-53c-6 0 -13 0 -13 3s2 7 5 11c14 14 31 27 57 56
c22 24 39 55 39 87c0 36 -26 50 -44 50c-17 0 -32 -8 -44 -20c-4 -5 -6 -5 -8 -5c-7 -2 0 13 2 17c19 31 48 50 78 50zM53 531c0 3 4 5 10 6c28 6 64 12 80 22c4 1 5 -2 5 -6c0 -2 0 -18 -1 -61c-1 -38 -3 -91 -2 -120c2 -37 4 -47 27 -53c10 -1 13 -3 13 -6
c0 -4 -6 -6 -13 -6c-22 0 -39 3 -55 3c-24 0 -37 -3 -62 -3c-8 0 -14 1 -14 4c0 4 4 6 14 8c20 4 27 12 28 29c2 22 3 55 3 102v64c-1 5 -4 8 -8 9l-14 3c-6 1 -11 3 -11 5zM382 565c6 0 3 -10 -1 -17c-96 -160 -206 -331 -295 -480c-4 -7 -15 -11 -17 -9c-3 5 2 13 8 22
c86 144 199 322 284 464c10 17 16 20 21 20z" />
    <glyph glyph-name="plusminus" unicode="&#xb1;" horiz-adv-x="410" 
d="M187 411c0 6 24 10 27 10c4 0 10 1 10 -12v-137c0 -3 2 -8 5 -8h138c3 0 5 -1 5 -7c0 -11 -4 -26 -7 -26l-136 -1c-3 0 -5 -6 -5 -11l-1 -142c0 -5 -16 -10 -26 -10c-2 0 -11 0 -11 6v150c0 6 -1 7 -4 7l-139 1c-5 0 -6 3 -6 7c0 8 5 25 10 25l134 1c4 0 5 6 5 9zM368 34
c1 0 4 -2 4 -8c0 -8 -4 -25 -7 -25h-322c-4 0 -6 6 -6 7c0 9 5 25 10 25c107 1 215 2 321 1z" />
    <glyph glyph-name="Thorn" unicode="&#xde;" horiz-adv-x="517" 
d="M34 616c0 4 8 7 18 7c19 -1 42 -5 84 -5c38 0 93 5 109 5c12 1 19 -2 19 -6c0 -3 -5 -7 -17 -11c-22 -5 -36 -9 -37 -33c-1 -26 -1 -38 -1 -78c0 -3 1 -8 4 -7c11 1 39 2 62 2c76 0 125 -18 155 -44c38 -32 54 -81 54 -124c0 -87 -55 -139 -89 -157
c-36 -19 -77 -28 -114 -28c-25 0 -52 5 -68 10c-1 0 -4 -3 -4 -6c1 -34 3 -63 5 -86c2 -24 8 -34 34 -40c15 -4 24 -6 24 -11c0 -6 -9 -8 -18 -8c-18 0 -56 4 -107 4c-26 0 -89 -4 -99 -4c-9 0 -18 2 -18 6s5 8 21 12c25 4 41 14 42 47c2 24 2 133 2 199v136
c0 114 -1 143 -3 176c-1 25 -21 30 -42 34c-11 3 -16 8 -16 10zM237 473c-8 0 -19 -2 -23 -4c-4 -3 -6 -6 -6 -29v-260c1 -9 3 -16 7 -18c9 -3 24 -3 33 -3c27 0 59 15 81 42c21 27 36 67 36 115c0 119 -68 157 -128 157z" />
    <glyph glyph-name="onequarter" unicode="&#xbc;" horiz-adv-x="426" 
d="M315 75c-5 0 -6 3 -6 12c0 5 1 40 1 66c0 2 -1 5 -3 5c-36 0 -85 -1 -89 -1c-3 0 -7 4 -7 6c0 3 7 13 14 21c4 4 81 103 94 117c6 7 38 32 47 32c2 0 4 -3 4 -9v-139c0 -1 1 -4 5 -4l33 1c2 0 5 -2 5 -4c0 -7 -3 -20 -6 -21c-3 0 -21 1 -34 1c-1 0 -2 -3 -2 -4v-64
c0 -4 -1 -9 -6 -11c-4 -2 -46 -4 -50 -4zM53 531c0 3 4 5 10 6c28 6 64 12 80 22c4 1 5 -2 5 -6c0 -2 0 -18 -1 -61c-1 -38 -3 -91 -2 -120c2 -37 4 -47 27 -53c10 -1 13 -3 13 -6c0 -4 -6 -6 -13 -6c-22 0 -39 3 -55 3c-24 0 -37 -3 -62 -3c-8 0 -14 1 -14 4c0 4 4 6 14 8
c20 4 27 12 28 29c2 22 3 55 3 102v64c-1 5 -4 8 -8 9l-14 3c-6 1 -11 3 -11 5zM387 565c6 0 3 -10 -1 -17c-96 -160 -206 -331 -295 -480c-4 -7 -15 -11 -17 -9c-3 5 2 13 8 22c86 144 199 322 284 464c10 17 16 20 21 20zM246 181l62 -1c2 0 2 1 2 2c0 12 2 71 4 89
c0 4 -3 4 -4 3c-18 -22 -53 -68 -67 -89c-2 -2 2 -4 3 -4z" />
    <glyph glyph-name="divide" unicode="&#xf7;" horiz-adv-x="410" 
d="M369 206c1 0 4 -2 4 -8c0 -9 -4 -25 -8 -25h-322c-4 0 -6 5 -6 6c0 10 5 26 11 26c107 1 214 2 321 1zM204 105c17 0 27 -14 27 -28c0 -18 -10 -30 -27 -30s-28 12 -28 30c0 14 11 28 28 28zM204 270c-14 0 -28 11 -28 28c0 16 14 29 28 29c17 0 28 -13 28 -29
c0 -17 -11 -28 -28 -28z" />
    <glyph glyph-name="brokenbar" unicode="&#xa6;" horiz-adv-x="247" 
d="M99 -170v340h49v-340h-49zM99 655h49v-340h-49v340z" />
    <glyph glyph-name="degree" unicode="&#xb0;" horiz-adv-x="410" 
d="M207 559c41 0 75 -29 75 -79c0 -43 -36 -80 -78 -80s-76 35 -76 80c0 43 37 79 79 79zM202 540c-25 0 -50 -27 -50 -60c0 -36 25 -59 56 -59c24 0 50 21 50 59c0 33 -23 60 -56 60z" />
    <glyph glyph-name="thorn" unicode="&#xfe;" horiz-adv-x="449" 
d="M245 12c11 0 21 4 34 14c12 9 45 52 45 134c0 59 -16 116 -58 149c-11 11 -36 22 -57 22s-34 -2 -46 -9c-5 -3 -7 -9 -7 -14c-4 -31 -5 -201 -2 -228c1 -6 6 -20 12 -29c25 -31 65 -39 79 -39zM17 641c0 3 4 7 16 9c12 3 65 13 101 28c9 4 14 5 18 5c2 0 4 -4 4 -15
c-1 -27 -2 -97 -3 -175c-1 -77 -1 -140 0 -152c1 -6 3 -7 5 -4c44 27 75 33 115 33c41 0 80 -22 102 -47c31 -34 43 -82 43 -121c0 -99 -60 -174 -143 -200c-30 -9 -44 -12 -67 -12c-14 0 -37 3 -47 5c-3 0 -6 -7 -6 -9c-2 -20 -2 -63 -2 -102c1 -32 4 -93 6 -98
c4 -29 17 -34 47 -40c11 -3 14 -5 14 -10s-11 -6 -23 -6c-16 0 -54 4 -99 4c-32 0 -69 -7 -80 -7c-13 0 -19 3 -19 6c0 5 3 7 13 10c28 8 40 14 43 47c0 13 4 67 3 152c-2 178 0 424 0 452c0 82 -2 180 -3 200c-2 16 -6 23 -27 36c-8 6 -11 9 -11 11z" />
    <glyph glyph-name="threequarters" unicode="&#xbe;" horiz-adv-x="408" 
d="M297 75c-5 0 -6 3 -6 12c0 5 1 40 1 66c0 2 -1 5 -3 5c-36 0 -85 -1 -89 -1c-3 0 -7 4 -7 6c0 3 7 13 14 21c4 4 81 103 94 117c6 7 38 32 47 32c2 0 4 -3 4 -9v-139c0 -1 1 -4 5 -4l33 1c2 0 5 -2 5 -4c0 -7 -3 -20 -6 -21c-3 0 -21 1 -34 1c-1 0 -2 -3 -2 -4v-64
c0 -4 -1 -9 -6 -11c-4 -2 -46 -4 -50 -4zM112 559c36 0 57 -26 57 -48c0 -26 -21 -40 -45 -51c-2 -1 -4 -4 0 -4c51 -4 68 -30 68 -61c0 -32 -28 -66 -72 -86c-21 -9 -40 -13 -52 -13c-23 0 -44 13 -44 23c0 5 10 16 15 18c1 1 9 2 12 -1c11 -9 30 -21 50 -21
c23 0 39 15 39 49c0 44 -27 61 -50 61c-8 0 -22 -5 -27 -6c-2 -1 -5 0 -5 3c0 1 1 4 6 7c4 3 8 5 15 9c33 18 41 31 41 51c0 22 -16 37 -34 37c-16 0 -29 -7 -43 -20c-3 -3 -6 -6 -8 -6c-1 0 -1 5 0 10c8 13 36 49 77 49zM374 565c6 0 3 -10 -1 -17
c-96 -160 -206 -331 -295 -480c-4 -7 -15 -11 -17 -9c-3 5 2 13 8 22c86 144 199 322 284 464c10 17 16 20 21 20zM228 181l62 -1c2 0 2 1 2 2c0 12 2 71 4 89c0 4 -3 4 -4 3c-18 -22 -53 -68 -67 -89c-2 -2 2 -4 3 -4z" />
    <glyph glyph-name="registered" unicode="&#xae;" horiz-adv-x="117" 
d="M63 573c30 0 53 -23 53 -53c0 -24 -19 -54 -54 -54c-29 0 -52 24 -52 54c0 28 23 53 53 53zM63 566c-25 1 -44 -20 -44 -46s19 -46 44 -46c27 0 44 20 44 46s-20 46 -44 46zM48 507v25c0 8 0 11 -6 12c-4 0 -4 2 1 2c6 0 13 1 21 1c13 0 19 -6 19 -13c0 -8 -7 -12 -9 -13
c0 0 -1 -1 0 -2c8 -14 14 -19 19 -21c2 -1 2 -1 2 -2s-2 -2 -6 -2c-6 0 -10 2 -14 7c-3 3 -7 10 -9 13s-4 4 -6 4s-2 -1 -2 -2v-7c0 -7 1 -8 8 -10c2 -1 2 -3 0 -3h-26c-3 0 -3 2 0 3c6 2 8 4 8 8zM58 541v-17c0 -2 0 -3 4 -3c7 0 11 4 11 10c0 8 -5 12 -10 12
c-4 0 -5 -1 -5 -2z" />
    <glyph glyph-name="minus" unicode="&#x2212;" horiz-adv-x="410" 
d="M369 206c1 0 4 -2 4 -8c0 -9 -4 -25 -8 -25h-322c-4 0 -6 5 -6 6c0 10 5 26 11 26c107 1 214 2 321 1z" />
    <glyph glyph-name="eth" unicode="&#xf0;" horiz-adv-x="455" 
d="M92 676c0 5 8 6 14 6c46 -3 116 -38 174 -88c1 -1 4 -1 5 0c25 13 50 29 70 40c6 3 16 -1 16 -7c0 -3 -7 -8 -13 -12l-55 -34c-2 -1 -3 -3 -1 -6c72 -84 117 -191 117 -312c0 -133 -47 -202 -82 -231c-31 -28 -70 -44 -112 -44c-114 0 -194 88 -194 189
c0 47 15 86 35 114c35 46 97 81 160 81c17 0 51 -3 77 -19c2 -1 4 -1 4 8c-5 59 -32 141 -60 183c-1 4 -4 4 -7 2c-35 -19 -67 -37 -81 -44c-8 -5 -17 -1 -17 4c0 4 5 6 9 10c26 14 47 26 79 45c3 2 3 4 2 6c-31 43 -86 85 -128 101c-7 2 -12 5 -12 8zM222 357
c-17 0 -31 -5 -42 -18c-30 -29 -43 -78 -43 -146c0 -65 18 -120 33 -146c13 -19 34 -45 62 -45c21 0 44 16 59 55c15 36 25 86 25 161c0 68 -9 88 -21 102c-29 32 -63 37 -73 37z" />
    <glyph glyph-name="multiply" unicode="&#xd7;" horiz-adv-x="410" 
d="M61 312c-3 3 4 14 11 22c2 2 9 -2 13 -6l117 -115c2 -2 5 -2 6 -1l116 120c5 5 9 5 11 3c12 -13 11 -19 10 -20l-117 -124c-2 -2 0 -5 1 -6l120 -122c3 -3 0 -16 -7 -24c-1 -1 -7 -4 -10 -1l-128 127c-3 2 -6 1 -8 -2l-113 -114c-3 -3 -7 -7 -13 -3c-7 5 -13 14 -10 19
l118 118c3 3 3 5 1 7z" />
    <glyph glyph-name="copyright" unicode="&#xa9;" horiz-adv-x="680" 
d="M340 611c178 0 300 -137 300 -303c0 -167 -127 -305 -300 -305c-177 0 -300 138 -300 305c0 165 127 303 300 303zM340 593c-156 0 -276 -125 -276 -284c0 -158 120 -287 276 -287c157 0 277 125 277 287c0 155 -120 284 -277 284zM381 482c13 0 39 -3 55 -6
c12 -2 27 -5 39 -6c3 -1 6 -7 6 -11c1 -17 8 -40 8 -64c0 -4 -3 -10 -6 -10c-2 0 -6 8 -8 15c-8 21 -18 41 -41 55c-15 8 -38 14 -66 14c-72 0 -112 -74 -112 -154c0 -89 51 -164 129 -164c43 0 78 27 93 56c6 12 13 24 16 24c4 -1 5 -9 4 -15c-2 -9 -8 -33 -14 -47
s-17 -19 -39 -26c-21 -7 -47 -10 -74 -10c-57 0 -102 14 -135 39c-44 33 -65 84 -65 130c0 58 21 101 58 132s89 48 152 48z" />
    <glyph glyph-name="Aacute" unicode="&#xc1;" horiz-adv-x="645" 
d="M351 638c4 0 8 -7 8 -14c1 -13 11 -47 24 -80c51 -139 134 -357 184 -465c23 -51 35 -59 58 -65c14 -3 18 -7 18 -11s-11 -7 -19 -7c-27 0 -53 4 -101 4c-61 0 -90 -5 -120 -5c-13 0 -21 1 -21 7s8 9 20 11c27 4 47 16 43 43c-6 29 -35 111 -62 180c-3 7 -10 10 -15 10
h-164c-9 0 -12 -6 -16 -15c-11 -26 -37 -96 -47 -135c-9 -30 -9 -51 0 -62c11 -13 24 -15 46 -21c10 -3 15 -7 15 -10c0 -6 -9 -7 -23 -7c-20 0 -55 4 -89 4c-25 0 -48 -5 -78 -5c-11 0 -18 1 -18 7c0 5 10 7 20 10c45 9 61 22 98 104c32 72 115 283 165 420c3 13 4 20 4 27
c0 3 1 8 5 9c23 11 49 38 55 56c3 7 5 10 10 10zM360 280c3 0 3 5 1 12c-28 82 -64 170 -72 189c-5 11 -7 7 -10 1c-13 -31 -57 -157 -70 -196c-2 -6 0 -8 3 -8c24 -1 47 -1 76 -1c36 0 64 1 72 3zM419 755c8 6 17 8 23 6c8 -4 23 -17 23 -23s-11 -16 -21 -22
c-34 -23 -75 -46 -114 -67c-9 -4 -17 -7 -19 -3c-2 2 1 8 7 13c28 28 69 69 101 96z" />
    <glyph glyph-name="Acircumflex" unicode="&#xc2;" horiz-adv-x="645" 
d="M351 638c4 0 8 -7 8 -14c1 -13 11 -47 24 -80c51 -139 134 -357 184 -465c23 -51 35 -59 58 -65c14 -3 18 -7 18 -11s-11 -7 -19 -7c-27 0 -53 4 -101 4c-61 0 -90 -5 -120 -5c-13 0 -21 1 -21 7s8 9 20 11c27 4 47 16 43 43c-6 29 -35 111 -62 180c-3 7 -10 10 -15 10
h-164c-9 0 -12 -6 -16 -15c-11 -26 -37 -96 -47 -135c-9 -30 -9 -51 0 -62c11 -13 24 -15 46 -21c10 -3 15 -7 15 -10c0 -6 -9 -7 -23 -7c-20 0 -55 4 -89 4c-25 0 -48 -5 -78 -5c-11 0 -18 1 -18 7c0 5 10 7 20 10c45 9 61 22 98 104c32 72 115 283 165 420c3 13 4 20 4 27
c0 3 1 8 5 9c23 11 49 38 55 56c3 7 5 10 10 10zM360 280c3 0 3 5 1 12c-28 82 -64 170 -72 189c-5 11 -7 7 -10 1c-13 -31 -57 -157 -70 -196c-2 -6 0 -8 3 -8c24 -1 47 -1 76 -1c36 0 64 1 72 3zM334 746c6 0 12 -8 22 -19c20 -24 66 -66 85 -84c8 -7 0 -11 -4 -10
c-28 8 -80 43 -102 58c-4 3 -8 0 -10 -1c-28 -18 -77 -50 -100 -58c-6 -1 -17 1 -5 10c17 14 63 55 93 87c9 9 16 17 21 17z" />
    <glyph glyph-name="Adieresis" unicode="&#xc4;" horiz-adv-x="645" 
d="M351 638c4 0 8 -7 8 -14c1 -13 11 -47 24 -80c51 -139 134 -357 184 -465c23 -51 35 -59 58 -65c14 -3 18 -7 18 -11s-11 -7 -19 -7c-27 0 -53 4 -101 4c-61 0 -90 -5 -120 -5c-13 0 -21 1 -21 7s8 9 20 11c27 4 47 16 43 43c-6 29 -35 111 -62 180c-3 7 -10 10 -15 10
h-164c-9 0 -12 -6 -16 -15c-11 -26 -37 -96 -47 -135c-9 -30 -9 -51 0 -62c11 -13 24 -15 46 -21c10 -3 15 -7 15 -10c0 -6 -9 -7 -23 -7c-20 0 -55 4 -89 4c-25 0 -48 -5 -78 -5c-11 0 -18 1 -18 7c0 5 10 7 20 10c45 9 61 22 98 104c32 72 115 283 165 420c3 13 4 20 4 27
c0 3 1 8 5 9c23 11 49 38 55 56c3 7 5 10 10 10zM360 280c3 0 3 5 1 12c-28 82 -64 170 -72 189c-5 11 -7 7 -10 1c-13 -31 -57 -157 -70 -196c-2 -6 0 -8 3 -8c24 -1 47 -1 76 -1c36 0 64 1 72 3zM255 724c20 0 36 -17 36 -36c0 -28 -20 -42 -41 -42c-10 0 -31 10 -31 36
c0 20 13 42 36 42zM412 724c18 0 37 -18 37 -39c0 -18 -22 -39 -41 -39s-35 17 -35 39c0 25 18 39 39 39z" />
    <glyph glyph-name="Agrave" unicode="&#xc0;" horiz-adv-x="645" 
d="M351 638c4 0 8 -7 8 -14c1 -13 11 -47 24 -80c51 -139 134 -357 184 -465c23 -51 35 -59 58 -65c14 -3 18 -7 18 -11s-11 -7 -19 -7c-27 0 -53 4 -101 4c-61 0 -90 -5 -120 -5c-13 0 -21 1 -21 7s8 9 20 11c27 4 47 16 43 43c-6 29 -35 111 -62 180c-3 7 -10 10 -15 10
h-164c-9 0 -12 -6 -16 -15c-11 -26 -37 -96 -47 -135c-9 -30 -9 -51 0 -62c11 -13 24 -15 46 -21c10 -3 15 -7 15 -10c0 -6 -9 -7 -23 -7c-20 0 -55 4 -89 4c-25 0 -48 -5 -78 -5c-11 0 -18 1 -18 7c0 5 10 7 20 10c45 9 61 22 98 104c32 72 115 283 165 420c3 13 4 20 4 27
c0 3 1 8 5 9c23 11 49 38 55 56c3 7 5 10 10 10zM360 280c3 0 3 5 1 12c-28 82 -64 170 -72 189c-5 11 -7 7 -10 1c-13 -31 -57 -157 -70 -196c-2 -6 0 -8 3 -8c24 -1 47 -1 76 -1c36 0 64 1 72 3zM231 767c5 2 16 2 23 -5c33 -34 56 -64 86 -101c14 -16 2 -22 -14 -11
c-30 23 -69 46 -106 78c-10 8 -14 14 -14 20c0 5 12 15 25 19z" />
    <glyph glyph-name="Aring" unicode="&#xc5;" horiz-adv-x="645" 
d="M351 638c4 0 8 -7 8 -14c1 -13 11 -47 24 -80c51 -139 134 -357 184 -465c23 -51 35 -59 58 -65c14 -3 18 -7 18 -11s-11 -7 -19 -7c-27 0 -53 4 -101 4c-61 0 -90 -5 -120 -5c-13 0 -21 1 -21 7s8 9 20 11c27 4 47 16 43 43c-6 29 -35 111 -62 180c-3 7 -10 10 -15 10
h-164c-9 0 -12 -6 -16 -15c-11 -26 -37 -96 -47 -135c-9 -30 -9 -51 0 -62c11 -13 24 -15 46 -21c10 -3 15 -7 15 -10c0 -6 -9 -7 -23 -7c-20 0 -55 4 -89 4c-25 0 -48 -5 -78 -5c-11 0 -18 1 -18 7c0 5 10 7 20 10c45 9 61 22 98 104c32 72 115 283 165 420c3 13 4 20 4 27
c0 3 1 8 5 9c23 11 49 38 55 56c3 7 5 10 10 10zM360 280c3 0 3 5 1 12c-28 82 -64 170 -72 189c-5 11 -7 7 -10 1c-13 -31 -57 -157 -70 -196c-2 -6 0 -8 3 -8c24 -1 47 -1 76 -1c36 0 64 1 72 3zM325 773c40 0 65 -32 65 -65c0 -34 -25 -66 -65 -66c-39 0 -63 32 -63 66
c0 33 24 65 63 65zM325 750c-20 0 -43 -17 -43 -42c0 -28 24 -41 43 -41c21 0 43 12 43 43c0 23 -21 40 -43 40z" />
    <glyph glyph-name="Atilde" unicode="&#xc3;" horiz-adv-x="645" 
d="M351 638c4 0 8 -7 8 -14c1 -13 11 -47 24 -80c51 -139 134 -357 184 -465c23 -51 35 -59 58 -65c14 -3 18 -7 18 -11s-11 -7 -19 -7c-27 0 -53 4 -101 4c-61 0 -90 -5 -120 -5c-13 0 -21 1 -21 7s8 9 20 11c27 4 47 16 43 43c-6 29 -35 111 -62 180c-3 7 -10 10 -15 10
h-164c-9 0 -12 -6 -16 -15c-11 -26 -37 -96 -47 -135c-9 -30 -9 -51 0 -62c11 -13 24 -15 46 -21c10 -3 15 -7 15 -10c0 -6 -9 -7 -23 -7c-20 0 -55 4 -89 4c-25 0 -48 -5 -78 -5c-11 0 -18 1 -18 7c0 5 10 7 20 10c45 9 61 22 98 104c32 72 115 283 165 420c3 13 4 20 4 27
c0 3 1 8 5 9c23 11 49 38 55 56c3 7 5 10 10 10zM360 280c3 0 3 5 1 12c-28 82 -64 170 -72 189c-5 11 -7 7 -10 1c-13 -31 -57 -157 -70 -196c-2 -6 0 -8 3 -8c24 -1 47 -1 76 -1c36 0 64 1 72 3zM283 718c13 0 17 -1 33 -2c13 -1 47 -6 64 -6c28 0 41 6 53 20
c6 7 10 9 13 9s4 -6 -1 -14c-6 -11 -35 -43 -49 -53c-7 -5 -17 -6 -20 -6c-24 0 -79 8 -99 8s-25 -2 -45 -27c-6 -4 -8 -6 -13 -6c-2 0 -3 2 3 16c6 12 28 37 40 51c7 7 18 10 21 10z" />
    <glyph glyph-name="Ccedilla" unicode="&#xc7;" horiz-adv-x="658" 
d="M451 -126c0 -42 -56 -77 -90 -77c-27 0 -43 11 -43 28c0 7 9 23 23 23c6 0 12 -9 17 -16c7 -10 16 -17 25 -17c7 0 23 5 23 31c0 31 -23 45 -49 55c-9 3 -11 6 -11 9c0 2 1 3 3 5c9 10 34 42 54 67h-5c-126 0 -213 43 -269 100c-47 47 -85 134 -85 224
c0 118 46 187 110 245c53 49 147 85 248 85c66 0 157 -22 191 -41c10 -7 13 -13 12 -19c-2 -22 1 -73 2 -82c1 -11 -5 -16 -7 -16c-3 0 -7 5 -9 13c-8 35 -29 64 -47 78c-38 34 -75 49 -148 49c-38 0 -99 -20 -143 -64c-56 -61 -82 -149 -82 -240c0 -76 27 -175 86 -238
c46 -51 107 -72 157 -72c58 0 89 13 112 28c37 22 57 55 74 94c4 10 6 15 11 15c4 0 5 -11 5 -15c0 -17 -11 -62 -14 -73c-3 -10 -6 -18 -13 -24c-55 -31 -98 -44 -169 -47c-13 -16 -19 -25 -23 -31c-1 -2 -1 -5 2 -8c17 -11 52 -27 52 -69z" />
    <glyph glyph-name="Eacute" unicode="&#xc9;" horiz-adv-x="520" 
d="M29 616c0 4 8 7 18 7c25 0 78 -5 99 -5c71 0 187 3 227 3c37 0 54 2 62 2c5 0 11 -9 12 -16l10 -77c0 -6 -2 -15 -5 -15c-4 0 -9 3 -13 13c-14 37 -41 64 -59 68c-15 3 -101 4 -158 3c-7 0 -11 -3 -11 -43c-1 -31 -1 -152 -1 -219c0 -5 3 -10 7 -10h103c34 0 55 2 65 7
c9 6 16 17 27 44c1 4 5 12 10 12c4 0 5 -9 5 -12c0 -6 -4 -47 -5 -60s2 -52 2 -59c1 -14 -3 -19 -6 -19s-6 4 -11 18c-5 11 -12 35 -30 37c-26 3 -47 5 -161 5c-3 0 -6 -5 -6 -11c0 -52 4 -201 4 -220c0 -11 9 -37 24 -42c14 -4 34 -7 91 -7c53 0 83 -2 107 22
c14 14 31 39 41 52c8 10 12 16 17 16c4 0 5 -9 2 -20c-4 -12 -19 -70 -24 -79c-4 -9 -13 -15 -22 -15c-106 0 -217 4 -297 4c-34 0 -101 -5 -112 -5c-13 0 -19 3 -19 7c0 5 7 7 18 10c29 5 50 15 51 61c6 154 5 293 5 460c0 54 -13 67 -50 73c-10 2 -17 6 -17 10zM342 765
c8 6 17 8 23 6c8 -4 23 -17 23 -23s-11 -16 -21 -22c-34 -23 -75 -46 -114 -67c-9 -4 -17 -7 -19 -3c-2 2 1 8 7 13c28 28 69 69 101 96z" />
    <glyph glyph-name="Ecircumflex" unicode="&#xca;" horiz-adv-x="520" 
d="M29 616c0 4 8 7 18 7c25 0 78 -5 99 -5c71 0 187 3 227 3c37 0 54 2 62 2c5 0 11 -9 12 -16l10 -77c0 -6 -2 -15 -5 -15c-4 0 -9 3 -13 13c-14 37 -41 64 -59 68c-15 3 -101 4 -158 3c-7 0 -11 -3 -11 -43c-1 -31 -1 -152 -1 -219c0 -5 3 -10 7 -10h103c34 0 55 2 65 7
c9 6 16 17 27 44c1 4 5 12 10 12c4 0 5 -9 5 -12c0 -6 -4 -47 -5 -60s2 -52 2 -59c1 -14 -3 -19 -6 -19s-6 4 -11 18c-5 11 -12 35 -30 37c-26 3 -47 5 -161 5c-3 0 -6 -5 -6 -11c0 -52 4 -201 4 -220c0 -11 9 -37 24 -42c14 -4 34 -7 91 -7c53 0 83 -2 107 22
c14 14 31 39 41 52c8 10 12 16 17 16c4 0 5 -9 2 -20c-4 -12 -19 -70 -24 -79c-4 -9 -13 -15 -22 -15c-106 0 -217 4 -297 4c-34 0 -101 -5 -112 -5c-13 0 -19 3 -19 7c0 5 7 7 18 10c29 5 50 15 51 61c6 154 5 293 5 460c0 54 -13 67 -50 73c-10 2 -17 6 -17 10zM264 767
c6 0 12 -8 22 -19c20 -24 66 -66 85 -84c8 -7 0 -11 -4 -10c-28 8 -80 43 -102 58c-4 3 -8 0 -10 -1c-28 -18 -77 -50 -100 -58c-6 -1 -17 1 -5 10c17 14 63 55 93 87c9 9 16 17 21 17z" />
    <glyph glyph-name="Edieresis" unicode="&#xcb;" horiz-adv-x="520" 
d="M29 616c0 4 8 7 18 7c25 0 78 -5 99 -5c71 0 187 3 227 3c37 0 54 2 62 2c5 0 11 -9 12 -16l10 -77c0 -6 -2 -15 -5 -15c-4 0 -9 3 -13 13c-14 37 -41 64 -59 68c-15 3 -101 4 -158 3c-7 0 -11 -3 -11 -43c-1 -31 -1 -152 -1 -219c0 -5 3 -10 7 -10h103c34 0 55 2 65 7
c9 6 16 17 27 44c1 4 5 12 10 12c4 0 5 -9 5 -12c0 -6 -4 -47 -5 -60s2 -52 2 -59c1 -14 -3 -19 -6 -19s-6 4 -11 18c-5 11 -12 35 -30 37c-26 3 -47 5 -161 5c-3 0 -6 -5 -6 -11c0 -52 4 -201 4 -220c0 -11 9 -37 24 -42c14 -4 34 -7 91 -7c53 0 83 -2 107 22
c14 14 31 39 41 52c8 10 12 16 17 16c4 0 5 -9 2 -20c-4 -12 -19 -70 -24 -79c-4 -9 -13 -15 -22 -15c-106 0 -217 4 -297 4c-34 0 -101 -5 -112 -5c-13 0 -19 3 -19 7c0 5 7 7 18 10c29 5 50 15 51 61c6 154 5 293 5 460c0 54 -13 67 -50 73c-10 2 -17 6 -17 10zM184 742
c20 0 36 -17 36 -36c0 -28 -20 -42 -41 -42c-10 0 -31 10 -31 36c0 20 13 42 36 42zM341 742c18 0 37 -18 37 -39c0 -18 -22 -39 -41 -39s-35 17 -35 39c0 25 18 39 39 39z" />
    <glyph glyph-name="Egrave" unicode="&#xc8;" horiz-adv-x="520" 
d="M29 616c0 4 8 7 18 7c25 0 78 -5 99 -5c71 0 187 3 227 3c37 0 54 2 62 2c5 0 11 -9 12 -16l10 -77c0 -6 -2 -15 -5 -15c-4 0 -9 3 -13 13c-14 37 -41 64 -59 68c-15 3 -101 4 -158 3c-7 0 -11 -3 -11 -43c-1 -31 -1 -152 -1 -219c0 -5 3 -10 7 -10h103c34 0 55 2 65 7
c9 6 16 17 27 44c1 4 5 12 10 12c4 0 5 -9 5 -12c0 -6 -4 -47 -5 -60s2 -52 2 -59c1 -14 -3 -19 -6 -19s-6 4 -11 18c-5 11 -12 35 -30 37c-26 3 -47 5 -161 5c-3 0 -6 -5 -6 -11c0 -52 4 -201 4 -220c0 -11 9 -37 24 -42c14 -4 34 -7 91 -7c53 0 83 -2 107 22
c14 14 31 39 41 52c8 10 12 16 17 16c4 0 5 -9 2 -20c-4 -12 -19 -70 -24 -79c-4 -9 -13 -15 -22 -15c-106 0 -217 4 -297 4c-34 0 -101 -5 -112 -5c-13 0 -19 3 -19 7c0 5 7 7 18 10c29 5 50 15 51 61c6 154 5 293 5 460c0 54 -13 67 -50 73c-10 2 -17 6 -17 10zM186 775
c5 2 16 2 23 -5c33 -34 56 -64 86 -101c14 -16 2 -22 -14 -11c-30 23 -69 46 -106 78c-10 8 -14 14 -14 20c0 5 12 15 25 19z" />
    <glyph glyph-name="Iacute" unicode="&#xcd;" horiz-adv-x="306" 
d="M31 617c0 4 7 6 15 6c46 0 73 -5 103 -5c44 0 81 4 104 4c13 0 17 -2 17 -7c0 -4 -5 -8 -17 -9c-40 -6 -38 -24 -41 -64c-2 -42 -2 -158 -2 -212c0 -148 2 -225 3 -260c2 -39 11 -48 38 -55c13 -3 17 -6 17 -11c0 -6 -8 -7 -20 -7c-31 0 -46 3 -88 3
c-67 0 -93 -6 -113 -6c-12 0 -20 3 -20 7c0 5 2 8 21 12c36 8 44 24 46 84c2 58 1 316 1 350c0 50 -2 102 -4 117c-5 31 -18 37 -48 44c-8 3 -12 7 -12 9zM241 763c8 6 17 8 23 6c8 -4 23 -17 23 -23s-11 -16 -21 -22c-34 -23 -75 -46 -114 -67c-9 -4 -17 -7 -19 -3
c-2 2 1 8 7 13c28 28 69 69 101 96z" />
    <glyph glyph-name="Icircumflex" unicode="&#xce;" horiz-adv-x="306" 
d="M31 617c0 4 7 6 15 6c46 0 73 -5 103 -5c44 0 81 4 104 4c13 0 17 -2 17 -7c0 -4 -5 -8 -17 -9c-40 -6 -38 -24 -41 -64c-2 -42 -2 -158 -2 -212c0 -148 2 -225 3 -260c2 -39 11 -48 38 -55c13 -3 17 -6 17 -11c0 -6 -8 -7 -20 -7c-31 0 -46 3 -88 3
c-67 0 -93 -6 -113 -6c-12 0 -20 3 -20 7c0 5 2 8 21 12c36 8 44 24 46 84c2 58 1 316 1 350c0 50 -2 102 -4 117c-5 31 -18 37 -48 44c-8 3 -12 7 -12 9zM157 766c6 0 12 -8 22 -19c20 -24 66 -66 85 -84c8 -7 0 -11 -4 -10c-28 8 -80 43 -102 58c-4 3 -8 0 -10 -1
c-28 -18 -77 -50 -100 -58c-6 -1 -17 1 -5 10c17 14 63 55 93 87c9 9 16 17 21 17z" />
    <glyph glyph-name="Idieresis" unicode="&#xcf;" horiz-adv-x="306" 
d="M31 617c0 4 7 6 15 6c46 0 73 -5 103 -5c44 0 81 4 104 4c13 0 17 -2 17 -7c0 -4 -5 -8 -17 -9c-40 -6 -38 -24 -41 -64c-2 -42 -2 -158 -2 -212c0 -148 2 -225 3 -260c2 -39 11 -48 38 -55c13 -3 17 -6 17 -11c0 -6 -8 -7 -20 -7c-31 0 -46 3 -88 3
c-67 0 -93 -6 -113 -6c-12 0 -20 3 -20 7c0 5 2 8 21 12c36 8 44 24 46 84c2 58 1 316 1 350c0 50 -2 102 -4 117c-5 31 -18 37 -48 44c-8 3 -12 7 -12 9zM76 740c20 0 36 -17 36 -36c0 -28 -20 -42 -41 -42c-10 0 -31 10 -31 36c0 20 13 42 36 42zM233 740
c18 0 37 -18 37 -39c0 -18 -22 -39 -41 -39s-35 17 -35 39c0 25 18 39 39 39z" />
    <glyph glyph-name="Igrave" unicode="&#xcc;" horiz-adv-x="306" 
d="M31 617c0 4 7 6 15 6c46 0 73 -5 103 -5c44 0 81 4 104 4c13 0 17 -2 17 -7c0 -4 -5 -8 -17 -9c-40 -6 -38 -24 -41 -64c-2 -42 -2 -158 -2 -212c0 -148 2 -225 3 -260c2 -39 11 -48 38 -55c13 -3 17 -6 17 -11c0 -6 -8 -7 -20 -7c-31 0 -46 3 -88 3
c-67 0 -93 -6 -113 -6c-12 0 -20 3 -20 7c0 5 2 8 21 12c36 8 44 24 46 84c2 58 1 316 1 350c0 50 -2 102 -4 117c-5 31 -18 37 -48 44c-8 3 -12 7 -12 9zM68 775c5 2 16 2 23 -5c33 -34 56 -64 86 -101c14 -16 2 -22 -14 -11c-30 23 -69 46 -106 78c-10 8 -14 14 -14 20
c0 5 12 15 25 19z" />
    <glyph glyph-name="Ntilde" unicode="&#xd1;" horiz-adv-x="703" 
d="M14 616c0 5 5 8 19 8c51 0 122 -8 159 -6c4 0 9 -2 22 -18c67 -84 290 -329 367 -413c5 -6 6 -2 6 3c0 30 1 257 -3 339c-3 57 -28 69 -63 77c-11 2 -19 6 -19 10c0 5 10 7 21 7c18 0 53 -5 73 -5c27 0 60 5 71 5c12 0 16 -3 16 -7c0 -5 -7 -8 -17 -11
c-40 -12 -45 -34 -47 -59c-4 -57 -7 -236 -7 -328c0 -89 -2 -150 1 -203c1 -25 -7 -36 -14 -36c-4 0 -19 15 -35 37c-42 55 -310 359 -432 501c-5 6 -10 2 -10 -2c0 -20 -2 -337 -1 -390c2 -45 3 -63 10 -80c8 -17 30 -25 52 -31c8 -2 15 -6 15 -12c0 -5 -11 -6 -19 -6
c-19 0 -46 3 -77 3c-27 0 -62 -5 -71 -5c-14 0 -17 3 -17 7s8 7 19 11c30 9 47 15 53 72c5 41 12 308 12 431c0 58 -10 66 -18 72c-13 10 -28 15 -48 19c-14 3 -18 6 -18 10zM319 731c13 0 17 -1 33 -2c13 -1 47 -6 64 -6c28 0 41 6 53 20c6 7 10 9 13 9s4 -6 -1 -14
c-6 -11 -35 -43 -49 -53c-7 -5 -17 -6 -20 -6c-24 0 -79 8 -99 8s-25 -2 -45 -27c-6 -4 -8 -6 -13 -6c-2 0 -3 2 3 16c6 12 28 37 40 51c7 7 18 10 21 10z" />
    <glyph glyph-name="Oacute" unicode="&#xd3;" horiz-adv-x="749" 
d="M372 636c186 0 333 -146 333 -334c0 -160 -109 -255 -186 -289c-41 -19 -88 -31 -141 -31c-186 0 -334 147 -334 329c0 100 34 191 131 264c52 40 130 61 197 61zM361 620c-60 0 -110 -47 -132 -74c-37 -48 -61 -130 -61 -221s30 -184 84 -247c38 -47 86 -78 142 -78
c30 0 72 12 104 50c28 29 80 102 80 253c0 93 -17 160 -64 230c-29 43 -79 87 -153 87zM453 775c8 6 17 8 23 6c8 -4 23 -17 23 -23s-11 -16 -21 -22c-34 -23 -75 -46 -114 -67c-9 -4 -17 -7 -19 -3c-2 2 1 8 7 13c28 28 69 69 101 96z" />
    <glyph glyph-name="Ocircumflex" unicode="&#xd4;" horiz-adv-x="749" 
d="M372 636c186 0 333 -146 333 -334c0 -160 -109 -255 -186 -289c-41 -19 -88 -31 -141 -31c-186 0 -334 147 -334 329c0 100 34 191 131 264c52 40 130 61 197 61zM361 620c-60 0 -110 -47 -132 -74c-37 -48 -61 -130 -61 -221s30 -184 84 -247c38 -47 86 -78 142 -78
c30 0 72 12 104 50c28 29 80 102 80 253c0 93 -17 160 -64 230c-29 43 -79 87 -153 87zM378 772c6 0 12 -8 22 -19c20 -24 66 -66 85 -84c8 -7 0 -11 -4 -10c-28 8 -80 43 -102 58c-4 3 -8 0 -10 -1c-28 -18 -77 -50 -100 -58c-6 -1 -17 1 -5 10c17 14 63 55 93 87
c9 9 16 17 21 17z" />
    <glyph glyph-name="Odieresis" unicode="&#xd6;" horiz-adv-x="749" 
d="M372 636c186 0 333 -146 333 -334c0 -160 -109 -255 -186 -289c-41 -19 -88 -31 -141 -31c-186 0 -334 147 -334 329c0 100 34 191 131 264c52 40 130 61 197 61zM361 620c-60 0 -110 -47 -132 -74c-37 -48 -61 -130 -61 -221s30 -184 84 -247c38 -47 86 -78 142 -78
c30 0 72 12 104 50c28 29 80 102 80 253c0 93 -17 160 -64 230c-29 43 -79 87 -153 87zM295 750c20 0 36 -17 36 -36c0 -28 -20 -42 -41 -42c-10 0 -31 10 -31 36c0 20 13 42 36 42zM452 750c18 0 37 -18 37 -39c0 -18 -22 -39 -41 -39s-35 17 -35 39c0 25 18 39 39 39z" />
    <glyph glyph-name="Ograve" unicode="&#xd2;" horiz-adv-x="749" 
d="M372 636c186 0 333 -146 333 -334c0 -160 -109 -255 -186 -289c-41 -19 -88 -31 -141 -31c-186 0 -334 147 -334 329c0 100 34 191 131 264c52 40 130 61 197 61zM361 620c-60 0 -110 -47 -132 -74c-37 -48 -61 -130 -61 -221s30 -184 84 -247c38 -47 86 -78 142 -78
c30 0 72 12 104 50c28 29 80 102 80 253c0 93 -17 160 -64 230c-29 43 -79 87 -153 87zM289 785c5 2 16 2 23 -5c33 -34 56 -64 86 -101c14 -16 2 -22 -14 -11c-30 23 -69 46 -106 78c-10 8 -14 14 -14 20c0 5 12 15 25 19z" />
    <glyph glyph-name="Otilde" unicode="&#xd5;" horiz-adv-x="749" 
d="M372 636c186 0 333 -146 333 -334c0 -160 -109 -255 -186 -289c-41 -19 -88 -31 -141 -31c-186 0 -334 147 -334 329c0 100 34 191 131 264c52 40 130 61 197 61zM361 620c-60 0 -110 -47 -132 -74c-37 -48 -61 -130 -61 -221s30 -184 84 -247c38 -47 86 -78 142 -78
c30 0 72 12 104 50c28 29 80 102 80 253c0 93 -17 160 -64 230c-29 43 -79 87 -153 87zM326 743c13 0 17 -1 33 -2c13 -1 47 -6 64 -6c28 0 41 6 53 20c6 7 10 9 13 9s4 -6 -1 -14c-6 -11 -35 -43 -49 -53c-7 -5 -17 -6 -20 -6c-24 0 -79 8 -99 8s-25 -2 -45 -27
c-6 -4 -8 -6 -13 -6c-2 0 -3 2 3 16c6 12 28 37 40 51c7 7 18 10 21 10z" />
    <glyph glyph-name="Scaron" unicode="&#x160;" horiz-adv-x="463" 
d="M262 636c57 0 109 -13 130 -20c5 -2 7 -10 7 -13c0 -26 3 -58 5 -69c2 -12 0 -20 -6 -20c-2 0 -6 5 -9 16c-11 26 -20 44 -41 61s-55 28 -80 28c-50 0 -115 -29 -115 -109c0 -43 20 -75 63 -106c33 -22 65 -42 98 -66c43 -31 109 -76 109 -173
c0 -117 -110 -183 -223 -183c-53 0 -113 12 -145 29c-6 4 -11 11 -13 18c-1 15 -12 64 -12 87c0 17 3 21 6 21c5 0 8 -6 12 -21c18 -73 85 -115 147 -115c74 0 125 51 125 118c0 54 -42 97 -110 140c-98 64 -148 118 -148 208c0 48 26 98 65 127c30 23 72 42 135 42z
M249 665c-6 0 -12 8 -22 18c-20 25 -65 66 -85 85c-8 7 0 10 4 9c28 -8 80 -42 102 -57c4 -3 8 0 10 1c27 18 77 50 100 57c6 2 16 0 4 -9c-17 -14 -63 -55 -93 -88c-9 -9 -16 -16 -20 -16z" />
    <glyph glyph-name="Uacute" unicode="&#xda;" horiz-adv-x="671" 
d="M152 618c42 0 65 4 95 4c12 0 17 -3 17 -7c0 -5 -8 -8 -17 -10c-40 -8 -44 -25 -44 -71c-2 -93 -2 -203 -1 -281c0 -89 20 -143 50 -176c39 -43 95 -49 131 -49c98 0 172 54 178 257c1 36 2 82 2 105c0 186 -11 197 -36 209c-6 2 -18 5 -29 6c-13 2 -19 6 -19 10
c0 5 6 8 19 8c27 0 42 -5 74 -5c24 0 50 4 76 4c15 0 20 -2 20 -6c0 -5 -4 -8 -21 -11c-42 -7 -47 -25 -51 -69c-3 -52 -5 -169 -7 -210c-4 -126 -18 -220 -73 -278c-53 -56 -130 -66 -181 -66c-58 0 -124 16 -161 45c-65 50 -85 104 -87 246c-2 88 -2 210 -4 269
c-2 45 -6 55 -43 64c-11 4 -16 8 -16 11c0 5 9 6 18 6c36 0 67 -5 110 -5zM445 761c8 6 17 8 23 6c8 -4 23 -17 23 -23s-11 -16 -21 -22c-34 -23 -75 -46 -114 -67c-9 -4 -17 -7 -19 -3c-2 2 1 8 7 13c28 28 69 69 101 96z" />
    <glyph glyph-name="Ucircumflex" unicode="&#xdb;" horiz-adv-x="671" 
d="M152 618c42 0 65 4 95 4c12 0 17 -3 17 -7c0 -5 -8 -8 -17 -10c-40 -8 -44 -25 -44 -71c-2 -93 -2 -203 -1 -281c0 -89 20 -143 50 -176c39 -43 95 -49 131 -49c98 0 172 54 178 257c1 36 2 82 2 105c0 186 -11 197 -36 209c-6 2 -18 5 -29 6c-13 2 -19 6 -19 10
c0 5 6 8 19 8c27 0 42 -5 74 -5c24 0 50 4 76 4c15 0 20 -2 20 -6c0 -5 -4 -8 -21 -11c-42 -7 -47 -25 -51 -69c-3 -52 -5 -169 -7 -210c-4 -126 -18 -220 -73 -278c-53 -56 -130 -66 -181 -66c-58 0 -124 16 -161 45c-65 50 -85 104 -87 246c-2 88 -2 210 -4 269
c-2 45 -6 55 -43 64c-11 4 -16 8 -16 11c0 5 9 6 18 6c36 0 67 -5 110 -5zM370 766c6 0 12 -8 22 -19c20 -24 66 -66 85 -84c8 -7 0 -11 -4 -10c-28 8 -80 43 -102 58c-4 3 -8 0 -10 -1c-28 -18 -77 -50 -100 -58c-6 -1 -17 1 -5 10c17 14 63 55 93 87c9 9 16 17 21 17z" />
    <glyph glyph-name="Udieresis" unicode="&#xdc;" horiz-adv-x="671" 
d="M152 618c42 0 65 4 95 4c12 0 17 -3 17 -7c0 -5 -8 -8 -17 -10c-40 -8 -44 -25 -44 -71c-2 -93 -2 -203 -1 -281c0 -89 20 -143 50 -176c39 -43 95 -49 131 -49c98 0 172 54 178 257c1 36 2 82 2 105c0 186 -11 197 -36 209c-6 2 -18 5 -29 6c-13 2 -19 6 -19 10
c0 5 6 8 19 8c27 0 42 -5 74 -5c24 0 50 4 76 4c15 0 20 -2 20 -6c0 -5 -4 -8 -21 -11c-42 -7 -47 -25 -51 -69c-3 -52 -5 -169 -7 -210c-4 -126 -18 -220 -73 -278c-53 -56 -130 -66 -181 -66c-58 0 -124 16 -161 45c-65 50 -85 104 -87 246c-2 88 -2 210 -4 269
c-2 45 -6 55 -43 64c-11 4 -16 8 -16 11c0 5 9 6 18 6c36 0 67 -5 110 -5zM298 740c20 0 36 -17 36 -36c0 -28 -20 -42 -41 -42c-10 0 -31 10 -31 36c0 20 13 42 36 42zM455 740c18 0 37 -18 37 -39c0 -18 -22 -39 -41 -39s-35 17 -35 39c0 25 18 39 39 39z" />
    <glyph glyph-name="Ugrave" unicode="&#xd9;" horiz-adv-x="671" 
d="M152 618c42 0 65 4 95 4c12 0 17 -3 17 -7c0 -5 -8 -8 -17 -10c-40 -8 -44 -25 -44 -71c-2 -93 -2 -203 -1 -281c0 -89 20 -143 50 -176c39 -43 95 -49 131 -49c98 0 172 54 178 257c1 36 2 82 2 105c0 186 -11 197 -36 209c-6 2 -18 5 -29 6c-13 2 -19 6 -19 10
c0 5 6 8 19 8c27 0 42 -5 74 -5c24 0 50 4 76 4c15 0 20 -2 20 -6c0 -5 -4 -8 -21 -11c-42 -7 -47 -25 -51 -69c-3 -52 -5 -169 -7 -210c-4 -126 -18 -220 -73 -278c-53 -56 -130 -66 -181 -66c-58 0 -124 16 -161 45c-65 50 -85 104 -87 246c-2 88 -2 210 -4 269
c-2 45 -6 55 -43 64c-11 4 -16 8 -16 11c0 5 9 6 18 6c36 0 67 -5 110 -5zM292 772c5 2 16 2 23 -5c33 -34 56 -64 86 -101c14 -16 2 -22 -14 -11c-30 23 -69 46 -106 78c-10 8 -14 14 -14 20c0 5 12 15 25 19z" />
    <glyph glyph-name="Yacute" unicode="&#xdd;" horiz-adv-x="591" 
d="M-7 617c0 7 9 7 20 7c26 0 79 -6 108 -6c34 0 70 4 102 4c11 0 17 -2 17 -6c0 -5 -5 -8 -14 -11c-24 -5 -31 -11 -31 -19c0 -7 5 -17 17 -36c17 -30 95 -170 119 -201c2 -1 7 -5 9 -1c20 31 80 132 105 179c17 28 23 42 23 53c0 13 -18 24 -40 28c-7 2 -16 4 -16 9
c0 4 6 6 16 6c29 0 45 -5 73 -5c25 0 70 7 82 7c10 0 18 -2 18 -6c0 -5 -6 -8 -21 -11c-51 -10 -67 -31 -91 -65c-48 -68 -112 -176 -135 -217c-3 -6 -9 -22 -9 -33v-218c1 -48 12 -51 49 -61c8 -2 20 -4 20 -11c0 -6 -11 -7 -20 -7c-58 0 -45 4 -112 4
c-46 0 -79 -5 -107 -5c-14 0 -21 3 -21 8c0 4 11 9 22 11c42 6 52 19 54 52c2 19 5 86 5 127c0 63 0 75 -1 92c-1 11 -6 22 -8 25c-19 40 -108 192 -139 233c-32 44 -39 56 -74 64c-17 3 -20 7 -20 10zM405 761c8 6 17 8 23 6c8 -4 23 -17 23 -23s-11 -16 -21 -22
c-34 -23 -75 -46 -114 -67c-9 -4 -17 -7 -19 -3c-2 2 1 8 7 13c28 28 69 69 101 96z" />
    <glyph glyph-name="Ydieresis" unicode="&#x178;" horiz-adv-x="591" 
d="M-7 617c0 7 9 7 20 7c26 0 79 -6 108 -6c34 0 70 4 102 4c11 0 17 -2 17 -6c0 -5 -5 -8 -14 -11c-24 -5 -31 -11 -31 -19c0 -7 5 -17 17 -36c17 -30 95 -170 119 -201c2 -1 7 -5 9 -1c20 31 80 132 105 179c17 28 23 42 23 53c0 13 -18 24 -40 28c-7 2 -16 4 -16 9
c0 4 6 6 16 6c29 0 45 -5 73 -5c25 0 70 7 82 7c10 0 18 -2 18 -6c0 -5 -6 -8 -21 -11c-51 -10 -67 -31 -91 -65c-48 -68 -112 -176 -135 -217c-3 -6 -9 -22 -9 -33v-218c1 -48 12 -51 49 -61c8 -2 20 -4 20 -11c0 -6 -11 -7 -20 -7c-58 0 -45 4 -112 4
c-46 0 -79 -5 -107 -5c-14 0 -21 3 -21 8c0 4 11 9 22 11c42 6 52 19 54 52c2 19 5 86 5 127c0 63 0 75 -1 92c-1 11 -6 22 -8 25c-19 40 -108 192 -139 233c-32 44 -39 56 -74 64c-17 3 -20 7 -20 10zM247 742c20 0 36 -17 36 -36c0 -28 -20 -42 -41 -42
c-10 0 -31 10 -31 36c0 20 13 42 36 42zM404 742c18 0 37 -18 37 -39c0 -18 -22 -39 -41 -39s-35 17 -35 39c0 25 18 39 39 39z" />
    <glyph glyph-name="Zcaron" unicode="&#x17d;" horiz-adv-x="609" 
d="M60 632c6 -1 28 -9 46 -10c21 -1 164 -4 325 -4c49 0 108 4 120 4c6 0 9 -5 2 -15c-5 -5 -39 -55 -75 -114c-32 -55 -217 -358 -274 -459c-1 -2 -2 -9 5 -9c87 0 232 2 271 6c24 3 33 10 46 24c11 13 34 47 42 59c6 8 9 15 15 15c4 0 6 -9 3 -17c-3 -10 -19 -72 -22 -98
c-3 -13 -26 -14 -43 -14h-360c-14 0 -82 -2 -101 -3c-10 -1 -17 4 -10 13c86 128 282 443 351 575c2 3 2 9 -3 9c-77 0 -247 -2 -270 -2c-12 -2 -34 -2 -47 -14c-13 -11 -32 -33 -52 -63c-4 -5 -9 -9 -13 -9s-7 8 0 21c11 25 24 68 33 99c1 6 3 8 11 6zM291 652
c-6 0 -12 8 -22 18c-20 25 -65 66 -85 85c-8 7 0 10 4 9c28 -8 80 -42 102 -57c4 -3 8 0 10 1c27 18 77 50 100 57c6 2 16 0 4 -9c-17 -14 -63 -55 -93 -88c-9 -9 -16 -16 -20 -16z" />
    <glyph glyph-name="aacute" unicode="&#xe1;" horiz-adv-x="365" 
d="M196 373c42 0 69 -23 81 -41c20 -27 25 -70 25 -100c0 -48 -2 -132 -2 -158c0 -14 11 -32 33 -32c8 0 18 2 28 8c4 3 8 -4 5 -10c-20 -37 -58 -52 -92 -52c-39 0 -59 28 -67 47c0 1 -3 2 -5 1c-30 -32 -61 -46 -97 -46c-37 0 -81 33 -81 90c0 33 23 55 37 62
c26 13 109 34 136 45c7 2 11 8 13 15c2 12 1 39 1 48c0 40 -8 59 -22 72c-12 11 -27 17 -39 17c-13 0 -26 -4 -35 -9c-5 -3 -9 -10 -10 -17c0 -5 1 -20 1 -29c0 -1 -3 -6 -6 -8c-11 -8 -46 -27 -61 -32c-6 -1 -12 6 -12 11c0 12 13 28 26 42c20 20 38 35 76 55
c22 12 51 21 67 21zM165 36c13 0 24 4 31 12c3 3 8 12 9 20c2 16 5 57 5 100c0 1 -2 7 -6 6c-11 -3 -45 -14 -64 -25c-18 -9 -29 -27 -29 -52c0 -39 28 -61 54 -61zM269 579c7 0 8 -3 8 -6c0 -2 -2 -7 -4 -10c-21 -35 -67 -103 -97 -144c-5 -8 -12 -11 -14 -11
c-3 0 -4 6 0 15c1 3 60 135 62 138c6 7 31 17 45 18z" />
    <glyph glyph-name="acircumflex" unicode="&#xe2;" horiz-adv-x="365" 
d="M196 373c42 0 69 -23 81 -41c20 -27 25 -70 25 -100c0 -48 -2 -132 -2 -158c0 -14 11 -32 33 -32c8 0 18 2 28 8c4 3 8 -4 5 -10c-20 -37 -58 -52 -92 -52c-39 0 -59 28 -67 47c0 1 -3 2 -5 1c-30 -32 -61 -46 -97 -46c-37 0 -81 33 -81 90c0 33 23 55 37 62
c26 13 109 34 136 45c7 2 11 8 13 15c2 12 1 39 1 48c0 40 -8 59 -22 72c-12 11 -27 17 -39 17c-13 0 -26 -4 -35 -9c-5 -3 -9 -10 -10 -17c0 -5 1 -20 1 -29c0 -1 -3 -6 -6 -8c-11 -8 -46 -27 -61 -32c-6 -1 -12 6 -12 11c0 12 13 28 26 42c20 20 38 35 76 55
c22 12 51 21 67 21zM165 36c13 0 24 4 31 12c3 3 8 12 9 20c2 16 5 57 5 100c0 1 -2 7 -6 6c-11 -3 -45 -14 -64 -25c-18 -9 -29 -27 -29 -52c0 -39 28 -61 54 -61zM183 574c2 0 7 -4 9 -11l63 -139c4 -10 4 -17 0 -17c-6 0 -13 11 -19 18c-8 10 -33 48 -54 83
c-2 3 -4 4 -9 -3c-10 -13 -35 -50 -60 -82c-2 -2 -9 -10 -15 -10c-3 0 -2 9 2 15c6 13 53 96 61 113c9 17 12 22 15 26c2 4 4 7 7 7z" />
    <glyph glyph-name="adieresis" unicode="&#xe4;" horiz-adv-x="365" 
d="M196 373c42 0 69 -23 81 -41c20 -27 25 -70 25 -100c0 -48 -2 -132 -2 -158c0 -14 11 -32 33 -32c8 0 18 2 28 8c4 3 8 -4 5 -10c-20 -37 -58 -52 -92 -52c-39 0 -59 28 -67 47c0 1 -3 2 -5 1c-30 -32 -61 -46 -97 -46c-37 0 -81 33 -81 90c0 33 23 55 37 62
c26 13 109 34 136 45c7 2 11 8 13 15c2 12 1 39 1 48c0 40 -8 59 -22 72c-12 11 -27 17 -39 17c-13 0 -26 -4 -35 -9c-5 -3 -9 -10 -10 -17c0 -5 1 -20 1 -29c0 -1 -3 -6 -6 -8c-11 -8 -46 -27 -61 -32c-6 -1 -12 6 -12 11c0 12 13 28 26 42c20 20 38 35 76 55
c22 12 51 21 67 21zM165 36c13 0 24 4 31 12c3 3 8 12 9 20c2 16 5 57 5 100c0 1 -2 7 -6 6c-11 -3 -45 -14 -64 -25c-18 -9 -29 -27 -29 -52c0 -39 28 -61 54 -61zM109 536c21 0 38 -19 38 -40c0 -30 -22 -44 -42 -44c-17 0 -37 16 -37 39c0 29 22 45 41 45zM247 536
c22 0 38 -20 38 -41c0 -28 -22 -43 -42 -43c-18 0 -37 17 -37 40c0 30 22 44 41 44z" />
    <glyph glyph-name="agrave" unicode="&#xe0;" horiz-adv-x="365" 
d="M196 373c42 0 69 -23 81 -41c20 -27 25 -70 25 -100c0 -48 -2 -132 -2 -158c0 -14 11 -32 33 -32c8 0 18 2 28 8c4 3 8 -4 5 -10c-20 -37 -58 -52 -92 -52c-39 0 -59 28 -67 47c0 1 -3 2 -5 1c-30 -32 -61 -46 -97 -46c-37 0 -81 33 -81 90c0 33 23 55 37 62
c26 13 109 34 136 45c7 2 11 8 13 15c2 12 1 39 1 48c0 40 -8 59 -22 72c-12 11 -27 17 -39 17c-13 0 -26 -4 -35 -9c-5 -3 -9 -10 -10 -17c0 -5 1 -20 1 -29c0 -1 -3 -6 -6 -8c-11 -8 -46 -27 -61 -32c-6 -1 -12 6 -12 11c0 12 13 28 26 42c20 20 38 35 76 55
c22 12 51 21 67 21zM165 36c13 0 24 4 31 12c3 3 8 12 9 20c2 16 5 57 5 100c0 1 -2 7 -6 6c-11 -3 -45 -14 -64 -25c-18 -9 -29 -27 -29 -52c0 -39 28 -61 54 -61zM136 586c4 0 9 -3 12 -9c2 -7 53 -133 58 -146c2 -7 1 -15 -2 -15c-4 0 -8 4 -14 10c-4 7 -58 91 -86 138
c-7 12 -2 17 0 19c3 3 21 3 32 3z" />
    <glyph glyph-name="aring" unicode="&#xe5;" horiz-adv-x="365" 
d="M196 373c42 0 69 -23 81 -41c20 -27 25 -70 25 -100c0 -48 -2 -132 -2 -158c0 -14 11 -32 33 -32c8 0 18 2 28 8c4 3 8 -4 5 -10c-20 -37 -58 -52 -92 -52c-39 0 -59 28 -67 47c0 1 -3 2 -5 1c-30 -32 -61 -46 -97 -46c-37 0 -81 33 -81 90c0 33 23 55 37 62
c26 13 109 34 136 45c7 2 11 8 13 15c2 12 1 39 1 48c0 40 -8 59 -22 72c-12 11 -27 17 -39 17c-13 0 -26 -4 -35 -9c-5 -3 -9 -10 -10 -17c0 -5 1 -20 1 -29c0 -1 -3 -6 -6 -8c-11 -8 -46 -27 -61 -32c-6 -1 -12 6 -12 11c0 12 13 28 26 42c20 20 38 35 76 55
c22 12 51 21 67 21zM165 36c13 0 24 4 31 12c3 3 8 12 9 20c2 16 5 57 5 100c0 1 -2 7 -6 6c-11 -3 -45 -14 -64 -25c-18 -9 -29 -27 -29 -52c0 -39 28 -61 54 -61zM182 547c35 0 58 -29 58 -59c0 -31 -23 -60 -58 -60s-57 29 -57 60c0 30 22 59 57 59zM182 525
c-19 0 -38 -15 -38 -37c0 -25 20 -36 38 -36c19 0 38 10 38 38c0 20 -18 35 -38 35z" />
    <glyph glyph-name="atilde" unicode="&#xe3;" horiz-adv-x="365" 
d="M196 373c42 0 69 -23 81 -41c20 -27 25 -70 25 -100c0 -48 -2 -132 -2 -158c0 -14 11 -32 33 -32c8 0 18 2 28 8c4 3 8 -4 5 -10c-20 -37 -58 -52 -92 -52c-39 0 -59 28 -67 47c0 1 -3 2 -5 1c-30 -32 -61 -46 -97 -46c-37 0 -81 33 -81 90c0 33 23 55 37 62
c26 13 109 34 136 45c7 2 11 8 13 15c2 12 1 39 1 48c0 40 -8 59 -22 72c-12 11 -27 17 -39 17c-13 0 -26 -4 -35 -9c-5 -3 -9 -10 -10 -17c0 -5 1 -20 1 -29c0 -1 -3 -6 -6 -8c-11 -8 -46 -27 -61 -32c-6 -1 -12 6 -12 11c0 12 13 28 26 42c20 20 38 35 76 55
c22 12 51 21 67 21zM165 36c13 0 24 4 31 12c3 3 8 12 9 20c2 16 5 57 5 100c0 1 -2 7 -6 6c-11 -3 -45 -14 -64 -25c-18 -9 -29 -27 -29 -52c0 -39 28 -61 54 -61zM121 518c12 0 15 -2 31 -3c12 -1 53 -9 71 -9c21 0 34 3 50 23c5 8 12 12 15 12c2 0 4 -7 -1 -15l-39 -52
c-6 -7 -17 -13 -22 -13c-23 0 -85 14 -104 14s-25 -3 -45 -27c-5 -4 -7 -7 -11 -7c-2 0 -4 3 1 17c7 11 26 37 38 50c7 6 13 10 16 10z" />
    <glyph glyph-name="ccedilla" unicode="&#xe7;" horiz-adv-x="371" 
d="M246 373c54 0 83 -16 97 -27c7 -4 12 -14 12 -19c0 -23 -19 -39 -33 -39c-4 0 -11 3 -16 9c-18 18 -49 41 -63 47c-13 6 -22 8 -37 8c-27 0 -79 -33 -79 -146c0 -49 19 -97 44 -120c27 -27 62 -38 85 -38c42 0 69 8 98 34c5 5 8 4 8 0s-2 -9 -8 -18
c-15 -23 -46 -53 -91 -66c-17 -19 -32 -36 -36 -42c-2 -3 -1 -6 0 -7c17 -11 50 -26 50 -67c0 -42 -55 -76 -89 -76c-26 0 -42 10 -42 27c0 7 9 22 23 22c6 0 12 -8 16 -15c8 -10 17 -16 25 -16c6 0 23 5 23 31c0 31 -23 43 -49 53c-8 3 -10 6 -10 9c0 1 -1 3 2 5
c9 10 46 47 67 71c-10 -2 -20 -3 -30 -3c-101 0 -182 70 -182 186c0 63 36 114 67 140c33 28 92 57 148 57z" />
    <glyph glyph-name="eacute" unicode="&#xe9;" horiz-adv-x="372" 
d="M220 373c73 0 126 -51 126 -108c0 -7 -7 -14 -12 -14c-11 1 -135 3 -162 3h-36c-3 0 -7 -5 -9 -8c-3 -9 -5 -26 -5 -41c0 -52 17 -89 44 -118c24 -27 62 -39 87 -39c37 0 68 6 93 30c7 8 11 6 11 1s-2 -8 -7 -15c-31 -44 -82 -76 -147 -76c-51 0 -93 19 -124 52
s-48 83 -48 135c0 54 22 115 67 153c27 23 69 45 122 45zM210 359c-22 0 -39 -14 -56 -33c-12 -16 -22 -41 -22 -51c0 -2 2 -6 5 -6l95 1c27 0 29 15 29 24c0 19 -4 34 -14 48c-7 8 -20 17 -37 17zM294 579c7 0 8 -3 8 -6c0 -2 -2 -7 -4 -10c-21 -35 -67 -103 -97 -144
c-5 -8 -12 -11 -14 -11c-3 0 -4 6 0 15c1 3 60 135 62 138c6 7 31 17 45 18z" />
    <glyph glyph-name="ecircumflex" unicode="&#xea;" horiz-adv-x="372" 
d="M220 373c73 0 126 -51 126 -108c0 -7 -7 -14 -12 -14c-11 1 -135 3 -162 3h-36c-3 0 -7 -5 -9 -8c-3 -9 -5 -26 -5 -41c0 -52 17 -89 44 -118c24 -27 62 -39 87 -39c37 0 68 6 93 30c7 8 11 6 11 1s-2 -8 -7 -15c-31 -44 -82 -76 -147 -76c-51 0 -93 19 -124 52
s-48 83 -48 135c0 54 22 115 67 153c27 23 69 45 122 45zM210 359c-22 0 -39 -14 -56 -33c-12 -16 -22 -41 -22 -51c0 -2 2 -6 5 -6l95 1c27 0 29 15 29 24c0 19 -4 34 -14 48c-7 8 -20 17 -37 17zM214 573c2 0 7 -4 9 -11l63 -139c4 -10 4 -17 0 -17c-6 0 -13 11 -19 18
c-8 10 -33 48 -54 83c-2 3 -4 4 -9 -3c-10 -13 -35 -50 -60 -82c-2 -2 -9 -10 -15 -10c-3 0 -2 9 2 15c6 13 53 96 61 113c9 17 12 22 15 26c2 4 4 7 7 7z" />
    <glyph glyph-name="edieresis" unicode="&#xeb;" horiz-adv-x="372" 
d="M220 373c73 0 126 -51 126 -108c0 -7 -7 -14 -12 -14c-11 1 -135 3 -162 3h-36c-3 0 -7 -5 -9 -8c-3 -9 -5 -26 -5 -41c0 -52 17 -89 44 -118c24 -27 62 -39 87 -39c37 0 68 6 93 30c7 8 11 6 11 1s-2 -8 -7 -15c-31 -44 -82 -76 -147 -76c-51 0 -93 19 -124 52
s-48 83 -48 135c0 54 22 115 67 153c27 23 69 45 122 45zM210 359c-22 0 -39 -14 -56 -33c-12 -16 -22 -41 -22 -51c0 -2 2 -6 5 -6l95 1c27 0 29 15 29 24c0 19 -4 34 -14 48c-7 8 -20 17 -37 17zM139 537c21 0 38 -19 38 -40c0 -30 -22 -44 -42 -44c-17 0 -37 16 -37 39
c0 29 22 45 41 45zM277 537c22 0 38 -20 38 -41c0 -28 -22 -43 -42 -43c-18 0 -37 17 -37 40c0 30 22 44 41 44z" />
    <glyph glyph-name="egrave" unicode="&#xe8;" horiz-adv-x="372" 
d="M220 373c73 0 126 -51 126 -108c0 -7 -7 -14 -12 -14c-11 1 -135 3 -162 3h-36c-3 0 -7 -5 -9 -8c-3 -9 -5 -26 -5 -41c0 -52 17 -89 44 -118c24 -27 62 -39 87 -39c37 0 68 6 93 30c7 8 11 6 11 1s-2 -8 -7 -15c-31 -44 -82 -76 -147 -76c-51 0 -93 19 -124 52
s-48 83 -48 135c0 54 22 115 67 153c27 23 69 45 122 45zM210 359c-22 0 -39 -14 -56 -33c-12 -16 -22 -41 -22 -51c0 -2 2 -6 5 -6l95 1c27 0 29 15 29 24c0 19 -4 34 -14 48c-7 8 -20 17 -37 17zM163 581c4 0 9 -3 12 -9c2 -7 53 -133 58 -146c2 -7 1 -15 -2 -15
c-4 0 -8 4 -14 10c-4 7 -58 91 -86 138c-7 12 -2 17 0 19c3 3 21 3 32 3z" />
    <glyph glyph-name="iacute" unicode="&#xed;" horiz-adv-x="223" 
d="M34 334c0 2 3 5 14 8c45 9 63 16 98 30c8 3 12 6 15 6s5 -3 4 -14c-2 -21 -2 -72 -2 -114c0 -112 0 -192 2 -207c2 -17 7 -26 27 -31c11 -3 14 -6 14 -10c0 -5 -7 -7 -15 -7c-17 0 -40 5 -82 5c-44 0 -67 -2 -78 -2c-9 0 -17 3 -17 7c0 5 6 7 18 9c26 6 33 19 33 54
c0 30 3 204 3 214c0 19 0 23 -26 41c-5 4 -8 7 -8 11zM209 579c7 0 8 -3 8 -6c0 -2 -2 -7 -4 -10c-21 -35 -67 -103 -97 -144c-5 -8 -12 -11 -14 -11c-3 0 -4 6 0 15c1 3 60 135 62 138c6 7 31 17 45 18z" />
    <glyph glyph-name="icircumflex" unicode="&#xee;" horiz-adv-x="223" 
d="M34 334c0 2 3 5 14 8c45 9 63 16 98 30c8 3 12 6 15 6s5 -3 4 -14c-2 -21 -2 -72 -2 -114c0 -112 0 -192 2 -207c2 -17 7 -26 27 -31c11 -3 14 -6 14 -10c0 -5 -7 -7 -15 -7c-17 0 -40 5 -82 5c-44 0 -67 -2 -78 -2c-9 0 -17 3 -17 7c0 5 6 7 18 9c26 6 33 19 33 54
c0 30 3 204 3 214c0 19 0 23 -26 41c-5 4 -8 7 -8 11zM118 576c2 0 7 -4 9 -11l63 -139c4 -10 4 -17 0 -17c-6 0 -13 11 -19 18c-8 10 -33 48 -54 83c-2 3 -4 4 -9 -3c-10 -13 -35 -50 -60 -82c-2 -2 -9 -10 -15 -10c-3 0 -2 9 2 15c6 13 53 96 61 113c9 17 12 22 15 26
c2 4 4 7 7 7z" />
    <glyph glyph-name="idieresis" unicode="&#xef;" horiz-adv-x="223" 
d="M34 334c0 2 3 5 14 8c45 9 63 16 98 30c8 3 12 6 15 6s5 -3 4 -14c-2 -21 -2 -72 -2 -114c0 -112 0 -192 2 -207c2 -17 7 -26 27 -31c11 -3 14 -6 14 -10c0 -5 -7 -7 -15 -7c-17 0 -40 5 -82 5c-44 0 -67 -2 -78 -2c-9 0 -17 3 -17 7c0 5 6 7 18 9c26 6 33 19 33 54
c0 30 3 204 3 214c0 19 0 23 -26 41c-5 4 -8 7 -8 11zM44 537c21 0 38 -19 38 -40c0 -30 -22 -44 -42 -44c-17 0 -37 16 -37 39c0 29 22 45 41 45zM182 537c22 0 38 -20 38 -41c0 -28 -22 -43 -42 -43c-18 0 -37 17 -37 40c0 30 22 44 41 44z" />
    <glyph glyph-name="igrave" unicode="&#xec;" horiz-adv-x="223" 
d="M34 334c0 2 3 5 14 8c45 9 63 16 98 30c8 3 12 6 15 6s5 -3 4 -14c-2 -21 -2 -72 -2 -114c0 -112 0 -192 2 -207c2 -17 7 -26 27 -31c11 -3 14 -6 14 -10c0 -5 -7 -7 -15 -7c-17 0 -40 5 -82 5c-44 0 -67 -2 -78 -2c-9 0 -17 3 -17 7c0 5 6 7 18 9c26 6 33 19 33 54
c0 30 3 204 3 214c0 19 0 23 -26 41c-5 4 -8 7 -8 11zM58 577c4 0 9 -3 12 -9c2 -7 53 -133 58 -146c2 -7 1 -15 -2 -15c-4 0 -8 4 -14 10c-4 7 -58 91 -86 138c-7 12 -2 17 0 19c3 3 21 3 32 3z" />
    <glyph glyph-name="ntilde" unicode="&#xf1;" horiz-adv-x="460" 
d="M284 373c39 0 63 -16 80 -34c24 -23 35 -68 35 -126c1 -58 2 -68 2 -124c1 -62 6 -70 33 -77c5 -2 11 -4 11 -9c0 -4 -5 -6 -14 -6c-23 0 -56 3 -76 3c-57 0 -75 -4 -83 -4c-10 0 -17 3 -17 7s6 7 15 9c27 8 32 15 32 38v147c0 77 -6 98 -30 117c-15 11 -33 14 -47 14
c-21 0 -42 -9 -54 -19c-5 -4 -10 -13 -10 -21c0 -19 1 -66 1 -117c1 -62 3 -112 4 -124c3 -22 10 -28 28 -34c12 -3 16 -5 16 -10c0 -6 -11 -7 -18 -7c-10 0 -67 4 -90 4c-13 0 -39 -2 -69 -2c-11 0 -19 3 -19 8c0 4 9 8 18 10c28 5 30 13 31 36c2 58 3 145 3 237
c0 10 -3 18 -23 32c-9 6 -8 8 -8 10c0 3 5 6 14 8c34 7 90 32 106 41c3 1 8 -3 8 -8c-1 -11 -3 -36 -2 -50c0 -2 3 -3 5 -1c20 16 39 30 59 39c18 8 38 13 59 13zM178 518c12 0 15 -2 31 -3c12 -1 53 -9 71 -9c21 0 34 3 50 23c5 8 12 12 15 12c2 0 4 -7 -1 -15l-39 -52
c-6 -7 -17 -13 -22 -13c-23 0 -85 14 -104 14s-25 -3 -45 -27c-5 -4 -7 -7 -11 -7c-2 0 -4 3 1 17c7 11 26 37 38 50c7 6 13 10 16 10z" />
    <glyph glyph-name="oacute" unicode="&#xf3;" horiz-adv-x="461" 
d="M230 373c119 0 200 -85 200 -189c0 -80 -47 -133 -78 -157c-34 -26 -83 -39 -120 -39c-114 0 -201 84 -201 191c0 76 40 124 71 148c41 33 87 46 128 46zM221 356c-43 0 -84 -63 -84 -150c0 -48 6 -104 31 -147c21 -35 49 -55 76 -55c18 0 35 9 46 23c12 14 33 62 33 136
c0 114 -32 193 -102 193zM314 579c7 0 8 -3 8 -6c0 -2 -2 -7 -4 -10c-21 -35 -67 -103 -97 -144c-5 -8 -12 -11 -14 -11c-3 0 -4 6 0 15c1 3 60 135 62 138c6 7 31 17 45 18z" />
    <glyph glyph-name="ocircumflex" unicode="&#xf4;" horiz-adv-x="461" 
d="M230 373c119 0 200 -85 200 -189c0 -80 -47 -133 -78 -157c-34 -26 -83 -39 -120 -39c-114 0 -201 84 -201 191c0 76 40 124 71 148c41 33 87 46 128 46zM221 356c-43 0 -84 -63 -84 -150c0 -48 6 -104 31 -147c21 -35 49 -55 76 -55c18 0 35 9 46 23c12 14 33 62 33 136
c0 114 -32 193 -102 193zM235 573c2 0 7 -4 9 -11l63 -139c4 -10 4 -17 0 -17c-6 0 -13 11 -19 18c-8 10 -33 48 -54 83c-2 3 -4 4 -9 -3c-10 -13 -35 -50 -60 -82c-2 -2 -9 -10 -15 -10c-3 0 -2 9 2 15c6 13 53 96 61 113c9 17 12 22 15 26c2 4 4 7 7 7z" />
    <glyph glyph-name="odieresis" unicode="&#xf6;" horiz-adv-x="461" 
d="M230 373c119 0 200 -85 200 -189c0 -80 -47 -133 -78 -157c-34 -26 -83 -39 -120 -39c-114 0 -201 84 -201 191c0 76 40 124 71 148c41 33 87 46 128 46zM221 356c-43 0 -84 -63 -84 -150c0 -48 6 -104 31 -147c21 -35 49 -55 76 -55c18 0 35 9 46 23c12 14 33 62 33 136
c0 114 -32 193 -102 193zM162 537c21 0 38 -19 38 -40c0 -30 -22 -44 -42 -44c-17 0 -37 16 -37 39c0 29 22 45 41 45zM300 537c22 0 38 -20 38 -41c0 -28 -22 -43 -42 -43c-18 0 -37 17 -37 40c0 30 22 44 41 44z" />
    <glyph glyph-name="ograve" unicode="&#xf2;" horiz-adv-x="461" 
d="M230 373c119 0 200 -85 200 -189c0 -80 -47 -133 -78 -157c-34 -26 -83 -39 -120 -39c-114 0 -201 84 -201 191c0 76 40 124 71 148c41 33 87 46 128 46zM221 356c-43 0 -84 -63 -84 -150c0 -48 6 -104 31 -147c21 -35 49 -55 76 -55c18 0 35 9 46 23c12 14 33 62 33 136
c0 114 -32 193 -102 193zM178 580c4 0 9 -3 12 -9c2 -7 53 -133 58 -146c2 -7 1 -15 -2 -15c-4 0 -8 4 -14 10c-4 7 -58 91 -86 138c-7 12 -2 17 0 19c3 3 21 3 32 3z" />
    <glyph glyph-name="otilde" unicode="&#xf5;" horiz-adv-x="461" 
d="M230 373c119 0 200 -85 200 -189c0 -80 -47 -133 -78 -157c-34 -26 -83 -39 -120 -39c-114 0 -201 84 -201 191c0 76 40 124 71 148c41 33 87 46 128 46zM221 356c-43 0 -84 -63 -84 -150c0 -48 6 -104 31 -147c21 -35 49 -55 76 -55c18 0 35 9 46 23c12 14 33 62 33 136
c0 114 -32 193 -102 193zM177 511c12 0 15 -2 31 -3c12 -1 53 -9 71 -9c21 0 34 3 50 23c5 8 12 12 15 12c2 0 4 -7 -1 -15l-39 -52c-6 -7 -17 -13 -22 -13c-23 0 -85 14 -104 14s-25 -3 -45 -27c-5 -4 -7 -7 -11 -7c-2 0 -4 3 1 17c7 11 26 37 38 50c7 6 13 10 16 10z" />
    <glyph glyph-name="scaron" unicode="&#x161;" horiz-adv-x="305" 
d="M173 357c-25 0 -57 -21 -57 -54c0 -39 34 -58 75 -84c63 -42 87 -68 87 -119c0 -41 -29 -71 -46 -84c-24 -17 -68 -28 -98 -28c-23 0 -57 6 -87 17c-7 3 -17 12 -17 19l-5 55c-1 13 1 20 5 20c3 0 7 -3 13 -21c8 -24 24 -47 42 -60c17 -12 30 -13 50 -13
c26 0 60 21 60 56c0 29 -21 50 -72 82c-59 38 -81 82 -81 117c0 36 17 69 49 89c19 14 51 24 85 24c32 0 64 -7 78 -13c3 -2 6 -6 6 -10c0 -10 4 -28 5 -54c1 -11 -2 -16 -6 -16s-6 5 -9 13c-5 15 -9 32 -25 46c-13 10 -30 18 -52 18zM161 409c-2 0 -7 6 -9 12l-62 139
c-5 10 -4 17 0 17c5 0 12 -11 19 -19c7 -10 33 -48 54 -82c1 -3 4 -4 8 2c10 14 33 48 60 83c2 2 10 11 15 11c3 0 3 -10 -1 -16c-7 -13 -53 -97 -61 -113c-9 -17 -13 -23 -16 -27c-2 -4 -4 -7 -7 -7z" />
    <glyph glyph-name="uacute" unicode="&#xfa;" horiz-adv-x="444" 
d="M155 -9c-30 0 -57 9 -79 36c-15 17 -19 41 -20 70c-1 33 -2 192 -3 210c-1 20 -7 25 -23 34c-8 5 -11 9 -11 12s6 5 15 5c52 0 101 9 116 13c4 1 6 -6 6 -11c-3 -57 -4 -181 -3 -241c1 -41 8 -53 13 -61c14 -16 32 -22 53 -22c22 0 39 6 55 20c7 6 12 16 13 38
c2 32 3 82 3 107c0 15 0 71 -2 97c-3 34 -7 39 -36 44c-12 2 -18 6 -18 9c0 5 10 7 17 7h52c36 0 68 9 81 9c3 0 5 -5 5 -11c-4 -36 -5 -168 -5 -254c0 -37 0 -46 2 -60c1 -6 6 -11 12 -10c10 2 25 6 34 7c8 0 13 -8 13 -13s-12 -7 -22 -9c-11 -1 -93 -15 -122 -29
c-8 -3 -12 -2 -14 0c-2 4 -2 9 -2 16c0 10 1 28 1 38c0 5 -1 8 -3 6c-17 -16 -45 -36 -62 -43c-18 -8 -40 -14 -66 -14zM313 576c7 0 8 -3 8 -6c0 -2 -2 -7 -4 -10c-21 -35 -67 -103 -97 -144c-5 -8 -12 -11 -14 -11c-3 0 -4 6 0 15c1 3 60 135 62 138c6 7 31 17 45 18z" />
    <glyph glyph-name="ucircumflex" unicode="&#xfb;" horiz-adv-x="444" 
d="M155 -9c-30 0 -57 9 -79 36c-15 17 -19 41 -20 70c-1 33 -2 192 -3 210c-1 20 -7 25 -23 34c-8 5 -11 9 -11 12s6 5 15 5c52 0 101 9 116 13c4 1 6 -6 6 -11c-3 -57 -4 -181 -3 -241c1 -41 8 -53 13 -61c14 -16 32 -22 53 -22c22 0 39 6 55 20c7 6 12 16 13 38
c2 32 3 82 3 107c0 15 0 71 -2 97c-3 34 -7 39 -36 44c-12 2 -18 6 -18 9c0 5 10 7 17 7h52c36 0 68 9 81 9c3 0 5 -5 5 -11c-4 -36 -5 -168 -5 -254c0 -37 0 -46 2 -60c1 -6 6 -11 12 -10c10 2 25 6 34 7c8 0 13 -8 13 -13s-12 -7 -22 -9c-11 -1 -93 -15 -122 -29
c-8 -3 -12 -2 -14 0c-2 4 -2 9 -2 16c0 10 1 28 1 38c0 5 -1 8 -3 6c-17 -16 -45 -36 -62 -43c-18 -8 -40 -14 -66 -14zM226 575c2 0 7 -4 9 -11l63 -139c4 -10 4 -17 0 -17c-6 0 -13 11 -19 18c-8 10 -33 48 -54 83c-2 3 -4 4 -9 -3c-10 -13 -35 -50 -60 -82
c-2 -2 -9 -10 -15 -10c-3 0 -2 9 2 15c6 13 53 96 61 113c9 17 12 22 15 26c2 4 4 7 7 7z" />
    <glyph glyph-name="udieresis" unicode="&#xfc;" horiz-adv-x="444" 
d="M155 -9c-30 0 -57 9 -79 36c-15 17 -19 41 -20 70c-1 33 -2 192 -3 210c-1 20 -7 25 -23 34c-8 5 -11 9 -11 12s6 5 15 5c52 0 101 9 116 13c4 1 6 -6 6 -11c-3 -57 -4 -181 -3 -241c1 -41 8 -53 13 -61c14 -16 32 -22 53 -22c22 0 39 6 55 20c7 6 12 16 13 38
c2 32 3 82 3 107c0 15 0 71 -2 97c-3 34 -7 39 -36 44c-12 2 -18 6 -18 9c0 5 10 7 17 7h52c36 0 68 9 81 9c3 0 5 -5 5 -11c-4 -36 -5 -168 -5 -254c0 -37 0 -46 2 -60c1 -6 6 -11 12 -10c10 2 25 6 34 7c8 0 13 -8 13 -13s-12 -7 -22 -9c-11 -1 -93 -15 -122 -29
c-8 -3 -12 -2 -14 0c-2 4 -2 9 -2 16c0 10 1 28 1 38c0 5 -1 8 -3 6c-17 -16 -45 -36 -62 -43c-18 -8 -40 -14 -66 -14zM153 537c21 0 38 -19 38 -40c0 -30 -22 -44 -42 -44c-17 0 -37 16 -37 39c0 29 22 45 41 45zM291 537c22 0 38 -20 38 -41c0 -28 -22 -43 -42 -43
c-18 0 -37 17 -37 40c0 30 22 44 41 44z" />
    <glyph glyph-name="ugrave" unicode="&#xf9;" horiz-adv-x="444" 
d="M155 -9c-30 0 -57 9 -79 36c-15 17 -19 41 -20 70c-1 33 -2 192 -3 210c-1 20 -7 25 -23 34c-8 5 -11 9 -11 12s6 5 15 5c52 0 101 9 116 13c4 1 6 -6 6 -11c-3 -57 -4 -181 -3 -241c1 -41 8 -53 13 -61c14 -16 32 -22 53 -22c22 0 39 6 55 20c7 6 12 16 13 38
c2 32 3 82 3 107c0 15 0 71 -2 97c-3 34 -7 39 -36 44c-12 2 -18 6 -18 9c0 5 10 7 17 7h52c36 0 68 9 81 9c3 0 5 -5 5 -11c-4 -36 -5 -168 -5 -254c0 -37 0 -46 2 -60c1 -6 6 -11 12 -10c10 2 25 6 34 7c8 0 13 -8 13 -13s-12 -7 -22 -9c-11 -1 -93 -15 -122 -29
c-8 -3 -12 -2 -14 0c-2 4 -2 9 -2 16c0 10 1 28 1 38c0 5 -1 8 -3 6c-17 -16 -45 -36 -62 -43c-18 -8 -40 -14 -66 -14zM165 579c4 0 9 -3 12 -9c2 -7 53 -133 58 -146c2 -7 1 -15 -2 -15c-4 0 -8 4 -14 10c-4 7 -58 91 -86 138c-7 12 -2 17 0 19c3 3 21 3 32 3z" />
    <glyph glyph-name="yacute" unicode="&#xfd;" horiz-adv-x="362" 
d="M87 361c14 0 44 3 70 3c10 0 16 -3 16 -7s-9 -8 -15 -10c-16 -5 -21 -10 -15 -26c16 -42 56 -146 76 -189c4 -9 6 -7 8 -3c23 55 56 144 65 174c3 5 4 19 4 23c0 7 -6 16 -27 21c-15 4 -18 8 -18 11c0 4 5 6 19 6c11 0 36 -3 50 -3c21 0 39 3 49 3c5 0 14 -1 14 -5
s-6 -8 -14 -11c-23 -8 -33 -10 -50 -48c-15 -31 -73 -169 -93 -220l-46 -112c-26 -59 -53 -133 -74 -180c-8 -19 -14 -33 -21 -40c-8 -12 -20 -15 -33 -15c-22 0 -37 20 -37 38c0 20 13 38 35 38c6 0 18 -3 27 -3c8 0 16 1 22 13c10 22 35 84 67 166c4 9 4 17 1 26
c-15 42 -85 211 -132 310c-7 13 -19 23 -33 27c-11 3 -18 7 -18 10c0 6 10 7 17 7c39 0 46 -4 86 -4zM308 577c7 0 8 -3 8 -6c0 -2 -2 -7 -4 -10c-21 -35 -67 -103 -97 -144c-5 -8 -12 -11 -14 -11c-3 0 -4 6 0 15c1 3 60 135 62 138c6 7 31 17 45 18z" />
    <glyph glyph-name="ydieresis" unicode="&#xff;" horiz-adv-x="362" 
d="M87 361c14 0 44 3 70 3c10 0 16 -3 16 -7s-9 -8 -15 -10c-16 -5 -21 -10 -15 -26c16 -42 56 -146 76 -189c4 -9 6 -7 8 -3c23 55 56 144 65 174c3 5 4 19 4 23c0 7 -6 16 -27 21c-15 4 -18 8 -18 11c0 4 5 6 19 6c11 0 36 -3 50 -3c21 0 39 3 49 3c5 0 14 -1 14 -5
s-6 -8 -14 -11c-23 -8 -33 -10 -50 -48c-15 -31 -73 -169 -93 -220l-46 -112c-26 -59 -53 -133 -74 -180c-8 -19 -14 -33 -21 -40c-8 -12 -20 -15 -33 -15c-22 0 -37 20 -37 38c0 20 13 38 35 38c6 0 18 -3 27 -3c8 0 16 1 22 13c10 22 35 84 67 166c4 9 4 17 1 26
c-15 42 -85 211 -132 310c-7 13 -19 23 -33 27c-11 3 -18 7 -18 10c0 6 10 7 17 7c39 0 46 -4 86 -4zM132 537c21 0 38 -19 38 -40c0 -30 -22 -44 -42 -44c-17 0 -37 16 -37 39c0 29 22 45 41 45zM270 537c22 0 38 -20 38 -41c0 -28 -22 -43 -42 -43c-18 0 -37 17 -37 40
c0 30 22 44 41 44z" />
    <glyph glyph-name="zcaron" unicode="&#x17e;" horiz-adv-x="358" 
d="M232 361c43 0 59 2 79 2c6 0 9 1 13 -3c2 -2 -1 -8 -4 -12c-31 -42 -128 -233 -166 -314c-3 -7 -2 -12 2 -12c11 -1 41 -2 74 -2c35 0 49 3 61 11c11 7 35 40 40 50c6 8 12 15 15 15c7 0 5 -13 1 -26c-9 -27 -17 -52 -22 -62c-4 -6 -8 -10 -20 -10h-83
c-37 0 -68 2 -103 2c-52 0 -76 -1 -89 -2c-11 -1 -13 7 -7 14c11 16 39 67 63 109c28 48 103 183 114 213c2 4 1 7 -3 7c-44 0 -85 0 -104 -1s-39 -15 -57 -44c-9 -15 -12 -17 -15 -17c-4 0 -7 7 -2 20c5 14 22 69 25 79c2 10 9 10 13 2c5 -10 14 -14 27 -15
c31 -4 64 -4 148 -4zM182 404c-2 0 -7 6 -9 12l-62 139c-5 10 -4 17 0 17c5 0 12 -11 19 -19c7 -10 33 -48 54 -82c1 -3 4 -4 8 2c10 14 33 48 60 83c2 2 10 11 15 11c3 0 3 -10 -1 -16c-7 -13 -53 -97 -61 -113c-9 -17 -13 -23 -16 -27c-2 -4 -4 -7 -7 -7z" />
    <glyph glyph-name="twodotenleader" unicode="&#x2025;" horiz-adv-x="500" 
d="M126 102c34 0 53 -28 53 -56c0 -38 -30 -59 -54 -59c-31 0 -54 28 -54 58c0 32 25 57 55 57zM375 102c34 0 54 -28 54 -56c0 -38 -31 -59 -55 -59c-31 0 -54 28 -54 58c0 32 25 57 55 57z" />
    <glyph glyph-name="onedotenleader" unicode="&#x2024;" horiz-adv-x="500" 
d="M251 102c33 0 53 -28 53 -56c0 -38 -31 -59 -55 -59c-30 0 -53 28 -53 58c0 32 25 57 55 57z" />
    <glyph glyph-name="emdash.alt" horiz-adv-x="652" 
d="M49 206h558c3 0 7 -2 7 -5c0 -6 -2 -21 -5 -26c-2 -3 -8 -4 -10 -4l-547 -2c-6 0 -17 1 -17 6c0 3 1 20 5 26c2 3 7 5 9 5z" />
    <glyph glyph-name="colonmonetary" unicode="&#x20a1;" horiz-adv-x="432" 
d="M398 532v-51c0 -18 -7 -21 -9 -21c-5 0 -5 5 -8 18c-9 41 -27 70 -53 84c-2 1 -5 0 -5 -2l-49 -529c0 -4 2 -6 5 -5c51 4 83 31 101 82c10 21 13 24 16 24s6 -7 4 -16c-3 -17 -12 -60 -18 -74c-3 -7 -10 -14 -12 -15c-10 -6 -54 -17 -94 -20c-1 0 -4 -2 -5 -6l-7 -57
c-1 -4 -5 -8 -10 -8c-4 0 -8 6 -7 9l6 57c0 2 0 3 -4 4c-8 1 -24 2 -33 4c-2 0 -5 1 -5 -3l-8 -65c-2 -4 -7 -7 -9 -6c-5 0 -8 3 -8 6l8 69c0 4 -2 5 -3 5c-79 28 -161 93 -161 280c0 140 76 271 217 292c3 0 4 1 4 5l6 48c0 4 5 12 11 12c5 0 6 -10 6 -15l-4 -42
c0 -4 0 -5 3 -5c10 0 22 -1 32 -1c2 0 4 1 4 4l6 48c1 6 6 13 10 13c5 0 7 -5 7 -11l-5 -54c0 -2 1 -6 5 -7c20 -6 41 -15 60 -19c3 -1 6 -8 6 -32zM199 57l49 511c0 2 0 4 -4 2c-68 -27 -109 -159 -109 -273c0 -126 25 -203 60 -241c3 -2 4 -1 4 1zM256 30l49 537
c0 3 0 6 -3 6c-9 2 -21 4 -33 2c-2 0 -3 -4 -3 -6l-51 -527c0 -2 2 -6 3 -7c11 -6 25 -8 35 -9c1 0 3 2 3 4z" />
    <glyph glyph-name="R_p" unicode="&#xf6dd;" horiz-adv-x="865" 
d="M584 -10v-96c0 -47 2 -76 4 -82c6 -19 20 -23 48 -30c3 -2 10 -5 10 -11c0 -4 -5 -8 -18 -8c-16 0 -76 3 -107 3c-30 0 -57 -6 -67 -6c-13 0 -20 3 -20 7c0 5 5 8 21 14c24 6 30 12 32 40c0 11 3 37 3 128v36c0 3 -1 4 -3 4c-1 0 -7 -1 -19 -1c-54 0 -109 6 -143 62
c-28 43 -70 144 -92 192c-6 12 -16 22 -25 27c-5 3 -15 6 -26 6c-4 0 -5 -8 -5 -14v-103c0 -33 2 -65 3 -89c1 -35 6 -49 42 -57c11 -2 19 -7 19 -11c0 -6 -9 -7 -19 -7c-13 0 -40 5 -95 5c-34 0 -74 -6 -90 -6c-10 0 -22 1 -22 7c0 4 6 7 19 11c27 6 37 18 39 50
c4 52 4 117 4 248v198c-2 37 -27 39 -41 42c-9 1 -19 3 -19 11c0 4 11 6 20 6c12 0 52 -1 83 -1c54 0 76 4 110 4c65 0 102 -10 129 -29c39 -28 54 -71 54 -107c0 -73 -48 -111 -91 -133c-2 -1 -2 -5 -1 -9c29 -69 69 -164 100 -216c27 -44 40 -61 66 -69c1 -1 2 -1 3 2v232
c0 40 -6 43 -20 53c-5 3 -12 9 -12 12c0 5 4 8 12 11c25 8 77 25 101 40c4 3 8 4 12 4c3 0 4 -3 4 -7c0 -5 -1 -35 -1 -42c0 -6 3 -5 3 -4c31 21 62 40 99 40c84 0 135 -76 135 -158c0 -98 -68 -156 -130 -184c-28 -13 -57 -16 -74 -16c-16 0 -20 1 -31 4c-2 0 -4 1 -4 -3z
M624 302c-15 -1 -26 -6 -35 -11c-4 -2 -5 -7 -5 -18v-203c0 -5 2 -14 6 -20c25 -31 55 -35 74 -35c12 0 21 6 35 19c14 12 32 49 32 115c0 65 -33 155 -107 153zM207 551c-6 0 -17 -2 -20 -5c-2 -2 -6 -6 -7 -22c-1 -17 -3 -199 -3 -218c0 -7 3 -12 5 -13c3 -2 7 -2 23 -2
c26 0 48 1 73 23c17 15 30 46 30 96c0 42 -10 92 -35 116c-23 23 -44 25 -66 25z" />
    <glyph glyph-name="figuredash" unicode="&#x2012;" horiz-adv-x="241" 
d="M46 302c6 1 137 13 159 14c2 0 6 -3 6 -6c0 -5 0 -22 -6 -31c-1 -2 -8 -5 -9 -5c-11 -3 -146 -12 -157 -12c-6 0 -8 2 -8 7c0 4 0 19 4 26c3 4 6 6 11 7z" />
    <glyph glyph-name="oneeighth" unicode="&#x215b;" horiz-adv-x="451" 
d="M339 334c45 0 76 -26 76 -59c0 -26 -20 -38 -43 -51c-2 -1 -1 -2 0 -3c38 -25 52 -45 52 -71c0 -42 -43 -71 -88 -71c-53 0 -83 33 -83 62c0 25 19 38 50 54c1 1 0 3 -1 3c-22 16 -42 37 -42 66c0 44 40 70 79 70zM53 531c0 3 4 5 10 6c28 6 64 12 80 22c4 1 5 -2 5 -6
c0 -2 0 -18 -1 -61c-1 -38 -3 -91 -2 -120c2 -37 4 -47 27 -53c10 -1 13 -3 13 -6c0 -4 -6 -6 -13 -6c-22 0 -39 3 -55 3c-24 0 -37 -3 -62 -3c-8 0 -14 1 -14 4c0 4 4 6 14 8c20 4 27 12 28 29c2 22 3 55 3 102v64c-1 5 -4 8 -8 9l-14 3c-6 1 -11 3 -11 5zM383 565
c6 0 3 -10 -1 -17c-96 -160 -206 -331 -295 -480c-4 -7 -15 -11 -17 -9c-3 5 2 13 8 22c86 144 199 322 284 464c10 17 16 20 21 20zM342 89c19 0 32 16 32 36c0 23 -18 41 -59 65c-3 1 -4 0 -6 -2c-7 -6 -15 -21 -15 -42c0 -26 17 -57 48 -57zM340 325
c-22 0 -36 -15 -36 -38s22 -40 55 -60c3 -1 4 -1 5 1c9 8 16 24 16 48c0 19 -15 49 -40 49z" />
    <glyph glyph-name="threeeighths" unicode="&#x215c;" horiz-adv-x="430" 
d="M112 559c36 0 57 -26 57 -48c0 -26 -21 -40 -45 -51c-2 -1 -4 -4 0 -4c51 -4 68 -30 68 -61c0 -32 -28 -66 -72 -86c-21 -9 -40 -13 -52 -13c-23 0 -44 13 -44 23c0 5 10 16 15 18c1 1 9 2 12 -1c11 -9 30 -21 50 -21c23 0 39 15 39 49c0 44 -27 61 -50 61
c-8 0 -22 -5 -27 -6c-2 -1 -5 0 -5 3c0 1 1 4 6 7c4 3 8 5 15 9c33 18 41 31 41 51c0 22 -16 37 -34 37c-16 0 -29 -7 -43 -20c-3 -3 -6 -6 -8 -6c-1 0 -1 5 0 10c8 13 36 49 77 49zM361 565c6 0 3 -10 -1 -17c-96 -160 -206 -331 -295 -480c-4 -7 -15 -11 -17 -9
c-3 5 2 13 8 22c86 144 199 322 284 464c10 17 16 20 21 20zM318 334c45 0 76 -26 76 -59c0 -26 -20 -38 -43 -51c-2 -1 -1 -2 0 -3c38 -25 52 -45 52 -71c0 -42 -43 -71 -88 -71c-53 0 -83 33 -83 62c0 25 19 38 50 54c1 1 0 3 -1 3c-22 16 -42 37 -42 66c0 44 40 70 79 70
zM319 325c-22 0 -36 -15 -36 -38s22 -40 55 -60c3 -1 4 -1 5 1c9 8 16 24 16 48c0 19 -15 49 -40 49zM321 89c19 0 32 16 32 36c0 23 -18 41 -59 65c-3 1 -4 0 -6 -2c-7 -6 -15 -21 -15 -42c0 -26 17 -57 48 -57z" />
    <glyph glyph-name="fiveeighths" unicode="&#x215d;" horiz-adv-x="436" 
d="M194 392c0 -63 -75 -97 -137 -97c-2 0 -16 1 -16 7c0 1 3 4 10 5c58 6 91 28 91 62c0 29 -40 51 -101 62c-4 1 -6 6 -6 13c0 17 13 70 25 88c1 3 7 9 10 11c11 4 69 17 100 17c1 0 5 -2 5 -4c0 -18 -19 -47 -30 -50c-19 -3 -58 -5 -74 -6c-6 -1 -8 -2 -11 -4
c-4 -2 -6 -6 -6 -9c0 -2 5 -5 16 -7c68 -10 124 -32 124 -88zM366 565c6 0 3 -10 -1 -17c-96 -160 -206 -331 -295 -480c-4 -7 -15 -11 -17 -9c-3 5 2 13 8 22c86 144 199 322 284 464c10 17 16 20 21 20zM324 334c45 0 76 -26 76 -59c0 -26 -20 -38 -43 -51
c-2 -1 -1 -2 0 -3c38 -25 52 -45 52 -71c0 -42 -43 -71 -88 -71c-53 0 -83 33 -83 62c0 25 19 38 50 54c1 1 0 3 -1 3c-22 16 -42 37 -42 66c0 44 40 70 79 70zM325 325c-22 0 -36 -15 -36 -38s22 -40 55 -60c3 -1 4 -1 5 1c9 8 16 24 16 48c0 19 -15 49 -40 49zM327 89
c19 0 32 16 32 36c0 23 -18 41 -59 65c-3 1 -4 0 -6 -2c-7 -6 -15 -21 -15 -42c0 -26 17 -57 48 -57z" />
    <glyph glyph-name="seveneighths" unicode="&#x215e;" horiz-adv-x="413" 
d="M115 551c66 0 87 2 91 2c2 0 3 -6 2 -7c-8 -13 -56 -106 -88 -165c-22 -40 -40 -75 -42 -81c-1 -1 -5 -5 -8 -5c-7 0 -10 3 -10 5c0 3 6 14 9 20c37 63 75 134 93 170c2 3 2 5 0 6c-7 1 -30 2 -45 2c-29 0 -50 -1 -62 -1c-15 -2 -19 -7 -26 -18c-3 -6 -6 -8 -9 -8
s-3 7 0 17c5 20 12 44 18 62c1 2 3 4 5 4c10 -2 37 -3 72 -3zM323 565c6 0 3 -10 -1 -17c-96 -160 -206 -331 -295 -480c-4 -7 -15 -11 -17 -9c-3 5 2 13 8 22c86 144 199 322 284 464c10 17 16 20 21 20zM301 334c45 0 76 -26 76 -59c0 -26 -20 -38 -43 -51
c-2 -1 -1 -2 0 -3c38 -25 52 -45 52 -71c0 -42 -43 -71 -88 -71c-53 0 -83 33 -83 62c0 25 19 38 50 54c1 1 0 3 -1 3c-22 16 -42 37 -42 66c0 44 40 70 79 70zM302 325c-22 0 -36 -15 -36 -38s22 -40 55 -60c3 -1 4 -1 5 1c9 8 16 24 16 48c0 19 -15 49 -40 49zM304 89
c19 0 32 16 32 36c0 23 -18 41 -59 65c-3 1 -4 0 -6 -2c-7 -6 -15 -21 -15 -42c0 -26 17 -57 48 -57z" />
    <glyph glyph-name="onethird" unicode="&#x2153;" horiz-adv-x="451" 
d="M53 531c0 3 4 5 10 6c28 6 64 12 80 22c4 1 5 -2 5 -6c0 -2 0 -18 -1 -61c-1 -38 -3 -91 -2 -120c2 -37 4 -47 27 -53c10 -1 13 -3 13 -6c0 -4 -6 -6 -13 -6c-22 0 -39 3 -55 3c-24 0 -37 -3 -62 -3c-8 0 -14 1 -14 4c0 4 4 6 14 8c20 4 27 12 28 29c2 22 3 55 3 102v64
c-1 5 -4 8 -8 9l-14 3c-6 1 -11 3 -11 5zM337 334c36 0 57 -26 57 -48c0 -26 -21 -40 -45 -51c-2 -1 -4 -4 0 -4c51 -4 68 -30 68 -61c0 -32 -28 -66 -72 -86c-21 -9 -40 -13 -52 -13c-23 0 -44 13 -44 23c0 5 10 16 15 18c1 1 9 2 12 -1c11 -9 30 -21 50 -21
c23 0 39 15 39 49c0 44 -27 61 -50 61c-8 0 -22 -5 -27 -6c-2 -1 -5 0 -5 3c0 1 1 4 6 7c4 3 8 5 15 9c33 18 41 31 41 51c0 22 -16 37 -34 37c-16 0 -29 -7 -43 -20c-3 -3 -6 -6 -8 -6c-1 0 -1 5 0 10c8 13 36 49 77 49zM383 565c6 0 3 -10 -1 -17
c-96 -160 -206 -331 -295 -480c-4 -7 -15 -11 -17 -9c-3 5 2 13 8 22c86 144 199 322 284 464c10 17 16 20 21 20z" />
    <glyph glyph-name="twothirds" unicode="&#x2154;" horiz-adv-x="460" 
d="M103 559c40 0 72 -30 72 -72c0 -24 -9 -43 -37 -70c-25 -24 -44 -40 -62 -56c-4 -3 -1 -5 2 -5c21 -1 82 1 92 1c10 1 15 2 25 15c4 6 7 10 11 10c3 0 3 -9 0 -15l-16 -55c-1 -4 -3 -5 -5 -5c-14 0 -49 4 -101 3h-53c-6 0 -13 0 -13 3s2 7 5 11c14 14 31 27 57 56
c22 24 39 55 39 87c0 36 -26 50 -44 50c-17 0 -32 -8 -44 -20c-4 -5 -6 -5 -8 -5c-7 -2 0 13 2 17c19 31 48 50 78 50zM346 334c36 0 57 -26 57 -48c0 -26 -21 -40 -45 -51c-2 -1 -4 -4 0 -4c51 -4 68 -30 68 -61c0 -32 -28 -66 -72 -86c-21 -9 -40 -13 -52 -13
c-23 0 -44 13 -44 23c0 5 10 16 15 18c1 1 9 2 12 -1c11 -9 30 -21 50 -21c23 0 39 15 39 49c0 44 -27 61 -50 61c-8 0 -22 -5 -27 -6c-2 -1 -5 0 -5 3c0 1 1 4 6 7c4 3 8 5 15 9c33 18 41 31 41 51c0 22 -16 37 -34 37c-16 0 -29 -7 -43 -20c-3 -3 -6 -6 -8 -6
c-1 0 -1 5 0 10c8 13 36 49 77 49zM395 565c6 0 3 -10 -1 -17c-96 -160 -206 -331 -295 -480c-4 -7 -15 -11 -17 -9c-3 5 2 13 8 22c86 144 199 322 284 464c10 17 16 20 21 20z" />
    <glyph glyph-name="zero.slash" unicode="&#xf638;" horiz-adv-x="432" 
d="M224 2c17 0 33 7 47 50c12 39 27 122 27 226c0 70 -5 142 -13 189c-1 2 -2 2 -3 -1c-35 -102 -84 -249 -123 -360c-1 -2 0 -6 0 -9c14 -64 38 -95 65 -95zM155 139l121 360c2 6 1 9 0 11c-13 50 -35 73 -62 73c-13 0 -28 -10 -38 -29c-19 -36 -39 -101 -39 -235
c0 -59 5 -130 14 -180c0 -2 2 -3 4 0zM221 598c136 0 178 -182 178 -296c0 -174 -52 -258 -102 -291c-23 -15 -50 -23 -79 -23c-136 0 -185 179 -185 295c0 157 41 253 121 299c21 11 42 16 67 16z" />
    <glyph glyph-name="Euro" unicode="&#x20ac;" horiz-adv-x="432" 
d="M315 327l-147 1c-3 0 -7 -3 -7 -6c0 -14 -1 -36 1 -42c1 -2 2 -4 7 -4l133 1c8 0 13 -3 14 -6c0 -12 -12 -17 -23 -17l-125 2c-2 0 -4 -3 -4 -7c3 -125 46 -239 130 -239c41 0 74 32 102 93c9 18 8 15 13 15c4 0 4 -5 4 -15c0 -20 -12 -55 -20 -70c-2 -6 -7 -11 -22 -19
c-17 -10 -57 -22 -98 -22c-124 0 -210 96 -219 258c0 5 -3 7 -4 7l-36 1c-8 0 -9 1 -9 7c0 7 8 9 12 10h30c4 0 5 2 5 5c0 10 0 31 1 41c1 3 0 8 -5 8l-20 1c-9 0 -10 3 -10 7c0 7 6 9 12 9h20c4 0 7 2 7 4c15 115 89 248 237 248c26 0 46 -2 68 -9c14 -4 25 -9 33 -11
c6 -2 9 -21 9 -29v-47c0 -18 -2 -24 -7 -24c-4 0 -6 6 -9 19c-6 25 -16 47 -34 64c-18 15 -36 22 -59 22c-68 0 -118 -96 -131 -230c0 -5 1 -6 6 -6l154 2c10 0 16 -3 16 -5c0 -12 -15 -17 -25 -17z" />
    <glyph glyph-name="franc" unicode="&#x20a3;" horiz-adv-x="432" 
d="M199 293v-103c0 -5 3 -8 7 -8h55c8 0 18 -3 18 -7c0 -7 -7 -10 -18 -10l-57 -1c-2 0 -5 -3 -5 -9v-71c0 -61 12 -66 41 -72c12 -3 20 -5 20 -9c0 -6 -9 -7 -23 -7c-32 0 -51 4 -90 4c-38 0 -58 -4 -95 -4c-12 0 -19 2 -19 7s10 7 22 10c24 5 31 10 33 53c0 14 0 51 1 89
c0 3 0 9 -4 9h-31c-5 0 -16 1 -16 5c0 9 12 13 16 13h34c2 0 3 2 3 6c0 41 1 110 1 178c0 95 0 134 -2 160c-2 34 -2 41 -39 49c-11 3 -21 6 -21 11c0 4 4 5 19 5c50 0 102 -5 174 -5h51c51 0 110 2 116 3c5 0 8 -7 9 -14c1 -15 3 -54 3 -70c0 -10 -1 -22 -8 -22
c-5 0 -7 13 -10 21c-13 41 -26 61 -68 62c-29 2 -82 1 -103 1c-6 0 -11 -12 -12 -23c-1 -24 -2 -166 -2 -219c0 -7 4 -8 8 -8c64 0 80 1 95 3c31 5 33 17 41 41c4 10 7 15 10 15c4 0 6 -10 6 -16c0 -11 -3 -38 -3 -56c0 -28 2 -38 2 -49c0 -8 -2 -16 -7 -16
c-4 0 -6 6 -10 18c-7 29 -16 35 -29 38c-17 3 -69 4 -109 4c-2 0 -4 -3 -4 -6z" />
    <glyph glyph-name="lira" unicode="&#x20a4;" horiz-adv-x="435" 
d="M313 268l-94 -8c-3 0 -6 -4 -7 -8c-24 -64 -57 -114 -91 -146c-3 -4 -2 -6 1 -6c35 5 73 -8 105 -23c48 -25 98 -49 120 -49c33 0 48 18 48 48c0 18 -1 34 -6 51c0 4 2 9 7 9c15 0 32 -5 31 -36c0 -59 -91 -137 -157 -137c-43 0 -75 17 -122 56c-26 23 -47 45 -56 45
c-4 0 -11 -3 -16 -9c-21 -26 -54 -68 -64 -68c-9 0 -17 8 -17 18c0 32 37 63 67 79l14 10c14 14 26 55 33 155c0 3 -1 5 -3 5l-48 -2c-2 0 -8 2 -8 6c0 6 6 11 9 12l49 3c3 0 4 4 4 6l3 30c0 3 -1 6 -3 6l-45 -2c-3 0 -11 2 -10 6c0 6 8 11 11 12l45 3c2 0 4 2 4 6
c5 33 10 65 18 91c14 52 38 98 80 132c21 16 56 35 100 35c58 0 92 -33 92 -71c0 -29 -19 -51 -43 -51c-5 -1 -10 3 -10 7c1 8 2 22 1 30c-1 37 -18 70 -47 70c-34 0 -64 -68 -81 -234c-1 -6 0 -9 3 -9l98 6c2 0 13 1 12 -6c0 -5 -10 -11 -13 -11l-97 -8c-4 0 -6 -4 -7 -8
c-2 -8 -3 -21 -5 -29c0 -4 2 -5 3 -5l93 6c1 0 12 1 12 -6c0 -5 -10 -10 -13 -11z" />
    <glyph glyph-name="peseta" unicode="&#x20a7;" horiz-adv-x="432" 
d="M65 320v80c0 3 0 8 -3 8l-30 1c-5 0 -15 1 -15 6c0 7 9 11 16 11h30c1 0 2 3 2 6c0 64 0 96 -1 105c0 18 -5 27 -37 32c-10 1 -17 3 -17 8s11 7 20 7c16 0 38 1 62 2c37 3 74 6 104 6c59 0 114 -12 150 -47c39 -38 49 -87 50 -116c0 -3 1 -3 3 -3h18c6 0 13 -2 13 -5
c0 -10 -13 -13 -18 -13h-13c-2 0 -4 -2 -4 -4c-7 -58 -36 -93 -63 -113c-33 -26 -70 -31 -106 -31c-8 0 -22 1 -27 3c-8 2 -12 7 -12 9c0 3 4 5 10 5h5c34 0 80 33 88 125c0 2 0 6 -3 6h-115c-2 0 -3 -2 -3 -7c-1 -53 0 -80 0 -122c0 -100 4 -194 4 -218
c2 -37 15 -45 41 -50c14 -2 20 -5 20 -10s-8 -6 -19 -6c-14 0 -53 5 -101 5c-39 0 -84 -3 -96 -3c-4 0 -15 2 -15 6s7 7 14 9c30 5 39 13 44 43c3 23 4 119 4 265zM173 426h114c4 0 4 2 4 6c-2 39 -12 73 -32 102c-22 34 -55 42 -68 42c-7 0 -10 -2 -13 -3
c-4 -2 -6 -6 -7 -19c0 -8 -1 -62 -1 -123c0 -3 0 -5 3 -5z" />
    <glyph glyph-name="percent.alt" horiz-adv-x="386" 
d="M287 241c23 0 26 51 26 75c0 25 -6 85 -32 85c-23 0 -26 -50 -26 -75s8 -86 32 -85zM284 230c-52 0 -76 47 -76 86c0 21 4 45 19 63c15 20 35 31 60 31c54 0 74 -50 74 -84c0 -28 -6 -49 -17 -64c-15 -21 -34 -32 -60 -32zM308 563c6 0 3 -10 -1 -15
c-81 -120 -135 -201 -213 -312c-3 -6 -14 -9 -15 -7c-3 3 1 10 4 16c78 109 135 198 208 304c8 13 14 14 17 14zM105 387c24 1 26 52 26 75c0 26 -6 85 -32 85c-23 0 -25 -49 -25 -74c0 -26 7 -87 31 -86zM101 379c-54 0 -76 46 -76 85c0 23 6 45 20 63c15 19 33 29 60 29
c49 0 73 -49 73 -84c0 -31 -6 -50 -18 -66c-18 -20 -39 -27 -59 -27z" />
    <glyph glyph-name="uni2116" unicode="&#x2116;" horiz-adv-x="782" 
d="M469 601c18 0 30 -11 34 -22c1 -4 0 -10 -7 -10c-44 0 -72 -39 -72 -162v-218c0 -161 -3 -203 -17 -203c-8 0 -25 3 -64 80c-60 121 -126 256 -199 398c-4 7 -9 6 -9 -1v-329c0 -135 -44 -149 -71 -149s-41 29 -41 50c0 4 4 11 8 10c5 -1 15 -2 23 -2c37 0 55 30 58 153
c1 44 6 178 3 286c0 45 -7 77 -35 86c-15 5 -19 5 -37 10c-11 2 -13 5 -13 9s7 5 20 5c22 0 81 -3 128 -3c6 0 12 -5 17 -12c11 -14 18 -31 47 -88c52 -100 111 -217 157 -303c2 -4 7 -7 7 1c1 38 -7 223 -7 274c0 131 48 140 70 140zM616 256c-85 0 -128 73 -128 142
c0 107 69 150 127 150c71 0 123 -56 123 -147c0 -94 -59 -145 -122 -145zM621 271c18 0 42 40 42 118c0 63 -19 146 -53 146c-29 0 -46 -53 -46 -120c0 -47 15 -144 57 -144zM531 208l183 21c4 0 6 -1 6 -5c0 -6 -1 -25 -12 -25l-181 -20c-4 0 -8 2 -8 6c0 7 3 22 12 23z
" />
    <glyph glyph-name="estimated" unicode="&#x212e;" horiz-adv-x="792" 
d="M759 307h-587c-3 0 -5 -1 -5 -4v-178c0 -8 4 -14 9 -20c55 -59 134 -96 222 -96c93 0 176 41 233 107h53c-66 -76 -171 -127 -287 -127c-200 0 -363 146 -363 326c0 181 163 326 363 326s362 -145 362 -326v-8zM627 330v178c0 9 -4 16 -10 22c-56 56 -134 92 -219 92
c-88 0 -165 -37 -221 -95c-6 -6 -10 -14 -10 -23v-174c0 -3 2 -5 5 -5h450c3 0 5 2 5 5z" />
    <glyph glyph-name="estimated.alt" horiz-adv-x="566" 
d="M311 599c137 0 217 -88 217 -190c0 -9 -11 -24 -28 -24h-342c-4 0 -8 -3 -10 -8c-5 -12 -6 -53 -6 -64c0 -149 83 -265 222 -265c54 0 105 17 147 61c4 5 12 8 12 3c0 -8 -5 -18 -10 -24c-60 -74 -133 -100 -213 -100c-162 0 -260 136 -260 295c0 90 28 191 117 261
c53 42 119 55 154 55zM306 583c-79 0 -135 -81 -150 -164c-2 -6 0 -14 6 -14c46 -3 90 -1 181 1c77 1 85 10 85 56c0 69 -52 121 -122 121z" />
    <glyph glyph-name="Q.alt" horiz-adv-x="749" 
d="M367 637c117 0 180 -43 229 -85c65 -54 109 -154 109 -243c0 -113 -46 -183 -86 -225c-42 -40 -76 -58 -104 -72c-5 -2 -9 -4 -9 -9c0 -3 2 -7 11 -15c55 -40 222 -138 372 -194c109 -41 198 -61 313 -61c60 0 118 13 166 36c7 4 19 4 19 -1c0 -7 -12 -16 -15 -18
c-61 -40 -152 -71 -271 -71c-150 0 -272 37 -414 101c-95 44 -206 109 -329 186c-20 13 -56 25 -66 29c-34 13 -93 31 -142 75c-45 39 -106 119 -106 246c0 70 24 143 66 195c47 59 138 126 257 126zM368 619c-51 0 -79 -13 -117 -49c-65 -59 -85 -172 -83 -261
c2 -97 43 -189 79 -232c49 -56 105 -80 151 -80c27 0 52 8 83 26c48 27 97 145 97 273c0 82 -20 164 -49 214c-43 80 -104 109 -161 109z" />
    <glyph glyph-name="W.alt" horiz-adv-x="942" 
d="M-1 614c0 5 4 9 19 9c25 0 87 -5 116 -5c21 0 78 4 98 4c14 0 19 -2 19 -8c0 -5 -10 -10 -18 -12c-17 -3 -42 -10 -34 -33c12 -41 127 -359 141 -386c2 -8 5 -5 8 3c30 85 46 127 95 279c4 16 4 23 2 30c-4 16 -24 70 -32 81c-11 16 -26 23 -47 28c-11 4 -16 7 -16 11
s10 8 20 8c18 0 89 -5 115 -5c28 0 72 4 90 4c14 0 22 -2 22 -7s-8 -10 -20 -13c-33 -10 -41 -16 -34 -42c3 -11 16 -49 29 -84c29 -81 93 -248 112 -299c4 -10 6 -5 9 2c28 76 68 196 105 315c10 29 18 62 18 73c-1 14 -7 26 -42 36c-18 5 -23 8 -23 13c0 3 5 6 19 6
c23 0 53 -4 71 -4c28 0 57 5 79 5c12 0 20 0 21 -7c0 -4 -5 -8 -26 -13c-42 -11 -53 -20 -78 -85c-26 -68 -93 -259 -130 -369l-46 -141c-3 -15 -13 -27 -21 -27c-2 0 -9 3 -21 38c-45 134 -108 301 -152 413c-3 11 -5 13 -10 -2c-44 -132 -115 -325 -129 -369
c-9 -33 -14 -48 -22 -66c-5 -10 -10 -14 -16 -14c-1 0 -7 4 -9 11c-48 154 -157 451 -196 545c-17 43 -27 58 -66 66c-12 3 -20 6 -20 11z" />
    <glyph glyph-name="a.end" horiz-adv-x="571" 
d="M107 -10c-45 0 -83 35 -83 92c0 44 41 59 52 62c34 12 86 30 114 41c16 6 22 14 23 18c1 12 2 37 2 46c0 45 -8 63 -23 75c-13 11 -26 15 -39 15c-15 0 -27 -4 -33 -7c-7 -4 -15 -14 -15 -51c0 -2 -2 -7 -5 -9c-12 -9 -44 -23 -60 -27c-6 -2 -12 2 -12 8
c0 15 12 30 25 44c20 20 38 35 76 55c22 12 51 21 67 21c43 0 73 -24 84 -42c21 -27 26 -64 26 -94c0 -49 -1 -130 -1 -156c0 -28 10 -43 30 -53c19 -10 55 -14 90 -14c46 0 81 4 81 51c0 9 -5 29 -7 32c-1 4 2 12 6 14c3 3 31 30 39 30c11 0 14 -18 14 -30
c0 -40 -43 -89 -76 -106c-41 -20 -84 -26 -127 -26c-52 0 -86 5 -107 14s-28 22 -36 40c0 2 -3 2 -5 1c-34 -25 -69 -44 -100 -44zM171 35c5 0 23 4 31 12c2 3 5 11 6 19c3 15 4 60 4 102c0 4 -2 9 -6 7c-8 -3 -45 -18 -64 -28c-11 -5 -25 -19 -25 -44c0 -47 28 -68 54 -68z
" />
    <glyph glyph-name="d.end" horiz-adv-x="624" 
d="M241 372c29 0 48 -2 58 -5c3 -1 5 2 5 7c2 17 1 175 -2 224c0 8 -4 15 -7 19c-5 7 -12 11 -23 14c-8 4 -12 5 -12 9c0 3 8 8 19 9c47 7 100 22 108 25c6 3 9 5 12 5c4 0 9 -5 8 -17c-3 -29 -8 -363 -7 -437c0 -85 -1 -136 0 -161c2 -10 5 -23 18 -25c18 -6 46 -7 58 -7
c38 0 62 -1 78 12c7 6 10 16 10 27c0 8 -5 25 -11 38c-3 4 2 14 6 18c7 7 30 31 37 31c10 0 15 -22 15 -37c0 -49 -44 -87 -65 -101c-24 -14 -56 -23 -94 -23c-40 0 -76 3 -105 3c-13 0 -31 -3 -36 -5c-8 -2 -13 -2 -13 11c0 5 1 12 1 24c0 4 -1 6 -3 4
c-45 -37 -92 -44 -113 -44c-37 0 -71 15 -98 40c-38 36 -54 87 -54 138c0 83 50 142 99 171c30 18 73 33 111 33zM212 352c-11 0 -24 -3 -37 -16c-19 -19 -41 -65 -41 -135c0 -118 63 -169 107 -169c15 0 36 1 48 12c6 5 10 13 11 26c5 42 5 177 -1 211c-1 10 -7 25 -10 29
c-22 27 -50 42 -77 42z" />
    <glyph glyph-name="e.end" horiz-adv-x="596" 
d="M276 -32c-95 0 -181 38 -219 103c-16 30 -26 59 -26 110c0 80 53 148 111 175c23 11 44 17 71 17c45 0 77 -16 93 -33c22 -21 29 -51 29 -63c0 -9 -2 -16 -4 -19s-12 -5 -18 -5c-21 0 -62 2 -184 0c-6 0 -9 -6 -10 -11c-1 -6 -3 -22 -3 -31c0 -59 22 -102 52 -129
c53 -49 137 -62 177 -62c129 0 164 31 183 52c14 14 16 29 15 43c-1 9 -7 25 -10 32c-2 4 -2 10 0 14c5 8 23 27 34 27c9 0 15 -20 15 -36c0 -47 -36 -88 -76 -119c-39 -29 -114 -65 -230 -65zM258 296c0 8 -3 27 -12 38c-13 16 -28 23 -47 23c-25 0 -61 -35 -72 -81
c-1 -4 2 -6 4 -6c15 0 93 0 101 1c8 0 15 2 19 6c6 3 7 12 7 19z" />
    <glyph glyph-name="h.end" horiz-adv-x="618" 
d="M346 0c-50 0 -52 -4 -82 -4c-12 0 -18 3 -18 7s6 5 16 8c27 9 29 24 31 50c0 23 1 41 1 154c0 25 -3 66 -12 83c-15 25 -34 36 -61 36c-22 0 -47 -12 -59 -23c-6 -7 -8 -20 -9 -32c0 -59 3 -201 5 -237c2 -19 11 -25 32 -30c7 -1 17 -4 17 -9c0 -3 -6 -8 -18 -8
c-29 0 -68 5 -85 5c-43 0 -56 -4 -80 -4c-11 0 -18 3 -18 7s5 8 17 10c25 5 30 13 32 53c2 35 3 122 3 259c0 150 1 221 -1 254c-2 32 -10 36 -30 48c-4 3 -7 5 -7 8c0 4 6 7 17 10c33 9 72 18 103 32c7 3 10 4 12 4c3 0 7 -5 6 -20c0 -16 -5 -319 -4 -334c0 -2 3 -5 6 -3
c12 11 36 28 52 35c15 8 43 14 56 14c40 0 58 -9 75 -21c27 -19 45 -57 46 -111c2 -49 4 -123 4 -175c2 -12 6 -25 18 -29c14 -4 45 -6 56 -6c41 0 67 0 85 14c7 6 8 15 8 25c0 8 -6 27 -11 39c-3 6 2 16 6 20c6 7 28 30 35 30c10 0 15 -21 15 -36c0 -51 -44 -90 -65 -104
c-23 -13 -53 -22 -93 -22s-71 3 -101 3z" />
    <glyph glyph-name="m.end" horiz-adv-x="858" 
d="M286 372c40 0 75 -20 95 -60c1 -2 4 -3 6 -1c41 35 81 60 130 60c54 0 89 -34 101 -72c7 -20 12 -59 12 -95c1 -33 3 -104 3 -138c1 -12 5 -25 17 -29c15 -4 46 -6 57 -6c40 0 66 0 84 14c7 6 9 15 9 25c0 8 -7 27 -12 40c-3 4 2 15 6 19c6 7 29 30 35 30
c11 0 16 -21 16 -36c0 -51 -44 -90 -66 -104c-23 -13 -53 -22 -93 -22s-72 3 -98 3c-15 0 -66 -4 -75 -4c-13 0 -18 2 -18 7c0 4 7 7 15 9c16 5 23 15 23 43c1 120 -2 173 -6 200c-9 51 -33 71 -72 71c-24 0 -46 -13 -58 -26c-5 -4 -6 -16 -5 -27c4 -38 4 -192 5 -219
c3 -28 6 -34 28 -40c10 -4 15 -7 15 -11s-7 -6 -15 -6c-34 0 -49 3 -94 3c-23 0 -51 -3 -62 -3c-14 0 -17 2 -17 6c0 3 4 7 14 10c21 5 30 15 30 39l2 158c0 53 -4 77 -23 98c-15 17 -30 20 -49 20c-24 0 -43 -8 -55 -20c-3 -4 -7 -14 -8 -18c-1 -12 -2 -37 -2 -80
c0 -47 2 -154 4 -171c2 -14 8 -20 27 -25c11 -4 15 -7 15 -10c0 -5 -7 -7 -15 -7c-18 0 -56 3 -80 3c-42 0 -60 -3 -84 -3c-9 0 -16 3 -16 7c0 5 6 7 18 10c28 7 30 13 31 42c2 16 4 127 4 163c0 25 1 51 -1 67c0 10 -5 19 -20 30c-5 4 -8 8 -8 12c0 3 3 6 12 8
c28 7 69 18 92 35c7 6 12 8 17 8c4 0 5 -5 5 -10c0 -11 0 -32 -1 -42c0 -5 1 -9 5 -6c37 30 72 51 120 51z" />
    <glyph glyph-name="n.end" horiz-adv-x="623" 
d="M281 373c42 0 65 -17 81 -35c25 -25 34 -67 35 -125l2 -147c2 -12 5 -25 18 -29c14 -4 45 -6 56 -6c41 0 67 0 84 14c7 6 9 15 9 25c0 8 -6 27 -12 39c-2 5 2 16 6 20c7 7 29 30 35 30c11 0 16 -21 16 -36c0 -51 -44 -90 -66 -104c-23 -13 -52 -22 -93 -22
c-40 0 -71 3 -101 3c-32 0 -61 -4 -79 -4c-11 0 -18 3 -18 7c0 3 6 6 13 8c25 8 32 19 32 41v145c1 77 -6 95 -30 117c-12 12 -34 16 -44 16c-21 0 -41 -7 -54 -18c-5 -5 -10 -13 -10 -22c0 -26 0 -100 1 -161c1 -45 2 -73 4 -82c3 -22 11 -30 28 -34c12 -3 16 -5 16 -10
c0 -6 -11 -7 -18 -7c-10 0 -67 4 -90 4c-13 0 -39 -2 -69 -2c-11 0 -19 3 -19 8c0 4 9 8 18 10c28 5 30 18 31 42c2 56 3 135 3 230c0 12 -3 18 -23 31c-9 6 -10 11 -10 14c0 2 5 6 14 8c35 7 92 31 106 40c4 2 9 -3 9 -8c0 -12 -1 -32 -2 -46c0 -5 2 -6 6 -2
c20 14 40 27 60 36c18 8 35 12 55 12z" />
    <glyph glyph-name="r.end" horiz-adv-x="446" 
d="M266 373c18 0 36 -6 54 -15c32 -15 46 -25 69 -25c9 0 18 5 18 19c0 10 -3 17 -7 24c-3 7 -3 10 0 15c5 10 21 24 30 24c7 0 13 -10 13 -20c0 -31 -20 -55 -39 -75c-19 -22 -51 -43 -78 -43c-26 0 -42 10 -68 23c-18 9 -33 14 -49 14c-11 0 -27 -7 -40 -26
c-3 -5 -9 -16 -9 -31c-1 -22 -1 -53 -1 -71c0 -71 2 -108 4 -131c4 -30 12 -38 49 -43c14 -2 18 -5 18 -10s-9 -6 -21 -6c-29 0 -47 4 -95 4c-58 0 -57 -4 -83 -4c-12 0 -18 3 -18 7s4 8 15 10c24 5 30 13 33 41c2 17 3 74 3 140c1 63 1 81 0 93c-1 8 -5 20 -26 36
c-6 5 -8 9 -7 13c0 3 9 6 13 6c33 6 85 27 94 33c8 4 11 6 16 6s6 -6 6 -17c-1 -8 -1 -30 -1 -54c0 -6 3 -9 6 -6c8 10 31 35 47 47c12 8 34 22 54 22z" />
    <glyph glyph-name="longs" unicode="&#x17f;" horiz-adv-x="223" 
d="M162 312c-1 -38 2 -219 4 -247c2 -46 3 -45 35 -53c12 -3 16 -5 16 -9c0 -5 -8 -7 -17 -7c-35 0 -39 4 -106 4c-23 0 -44 -2 -61 -3c-9 0 -15 1 -15 5s5 7 18 11c25 7 30 18 30 54v236c0 10 -4 14 -7 15c-5 0 -17 0 -26 1c-4 1 -12 4 -12 8c0 3 5 6 12 11
c7 4 17 10 25 17c4 3 8 10 8 12c0 31 4 109 20 154c15 44 41 105 118 142c23 13 53 19 79 19c44 0 77 -21 77 -42c0 -14 -24 -37 -34 -41c-2 -1 -15 1 -19 4c-20 19 -51 51 -80 51c-30 0 -54 -20 -61 -128c-3 -48 -5 -148 -4 -214z" />
    <glyph glyph-name="t.end" horiz-adv-x="419" 
d="M397 469c10 0 17 -19 17 -40c0 -43 -35 -74 -59 -86c-21 -10 -47 -16 -84 -17c-32 -2 -60 -2 -111 -2c-1 0 -5 -4 -5 -8c0 -23 -1 -184 0 -210c1 -23 4 -34 12 -45c14 -19 34 -23 47 -23c17 0 32 4 45 10c11 6 13 4 13 0c0 -5 -5 -14 -20 -27c-26 -21 -60 -30 -91 -30
c-46 0 -72 12 -90 44c-9 14 -13 41 -13 65v203c0 8 -1 12 -6 16c-4 2 -10 5 -17 7c-9 2 -14 5 -14 10c0 3 5 5 16 11c23 10 66 42 95 74c15 15 22 11 22 6c0 -6 -1 -49 -1 -57c0 -3 1 -9 6 -10c8 -1 45 -2 64 -2c38 0 75 -1 102 0c49 3 52 17 52 32c0 4 -4 18 -12 31
c-5 8 -3 8 -3 14s24 34 35 34z" />
    <glyph glyph-name="t.endalt" horiz-adv-x="455" 
d="M23 336c0 3 5 5 16 11c23 10 65 42 95 74c15 15 21 11 21 6c0 -6 -1 -49 -1 -57c0 -3 1 -10 6 -10c19 0 85 2 101 2c2 0 8 -3 8 -14c0 -21 -7 -29 -11 -29c-29 0 -71 2 -98 2c-1 0 -4 -3 -4 -6c0 -22 -1 -185 0 -211c0 -20 0 -40 32 -61c28 -17 69 -22 99 -22
c85 0 104 19 113 33c3 4 8 17 -1 28c-7 8 -10 11 -10 16c0 15 14 31 28 31c11 0 25 -7 25 -31c0 -35 -38 -68 -80 -86c-46 -19 -91 -25 -146 -25c-39 0 -120 8 -147 60c-7 14 -9 31 -9 52v204c0 7 -1 13 -6 16c-3 2 -10 4 -17 7c-9 2 -14 5 -14 10z" />
    <glyph glyph-name="u.end" horiz-adv-x="609" 
d="M19 354c0 4 6 6 15 6c49 0 103 7 118 11c3 1 6 -6 5 -11c-3 -57 -5 -181 -4 -241c1 -41 9 -53 14 -61c14 -16 38 -22 59 -22c14 0 38 5 53 18c6 7 8 20 8 42c2 66 2 68 2 108c0 15 0 67 -1 93c-2 34 -5 40 -37 45c-12 2 -18 6 -18 9c0 5 10 7 18 7h56c18 0 61 9 74 9
c5 0 8 -3 7 -11c-3 -34 -4 -150 -4 -229c0 -38 0 -47 1 -63c2 -10 6 -23 18 -25c18 -6 47 -7 58 -7c53 0 68 3 80 12c7 6 11 13 11 28c0 8 -7 23 -14 36c-2 4 4 15 7 19c6 7 29 31 36 31c10 0 15 -22 15 -37c0 -49 -43 -88 -64 -101c-24 -15 -57 -23 -95 -23
c-40 0 -76 3 -105 3c-19 0 -33 -3 -38 -5c-6 -2 -10 -4 -10 7c0 9 1 23 2 35c0 5 -1 6 -3 5c-17 -14 -43 -29 -59 -37c-19 -9 -47 -14 -70 -14c-30 0 -56 9 -78 36c-15 17 -19 41 -20 72c-1 33 -1 191 -2 209c-1 20 -5 24 -24 34c-8 5 -11 9 -11 12z" />
    <glyph glyph-name="z.end" horiz-adv-x="495" 
d="M83 362l99 -2c64 -2 118 4 139 4c3 0 8 0 8 -2c0 -3 0 -4 -2 -9c-3 -8 -17 -30 -39 -71c-22 -39 -87 -176 -117 -247c-3 -4 2 -8 4 -9c8 -3 55 -5 130 -5c90 0 153 19 153 69c0 18 -4 33 -8 39c-6 8 -9 12 -9 18c0 7 19 25 26 25c11 0 20 -22 20 -43
c0 -29 -15 -63 -29 -79c-32 -34 -70 -53 -151 -53h-151c-69 0 -90 0 -112 -1c-5 0 -11 4 -11 9c0 6 25 48 51 98c23 42 77 151 113 226c2 6 0 10 -7 10h-106c-21 0 -37 -25 -48 -45c-7 -12 -12 -16 -15 -16c-1 0 -3 3 -3 10s4 15 7 28c3 11 13 39 15 53c0 5 0 6 5 12
c2 2 5 2 7 -1c8 -7 16 -18 31 -18z" />
    <glyph glyph-name="c_h" horiz-adv-x="803" 
d="M206 352c-27 0 -79 -33 -79 -146c0 -49 16 -99 42 -123c27 -26 64 -35 87 -35c43 0 68 8 97 34c5 4 9 4 9 0s-2 -9 -8 -18c-20 -31 -67 -74 -141 -74c-51 0 -100 18 -133 51c-32 33 -49 79 -49 135c0 63 36 114 67 140c33 28 92 57 147 57s84 -16 98 -27
c7 -4 12 -14 12 -19c0 -23 -17 -39 -32 -39c-3 0 -11 4 -17 9c-13 11 -49 41 -63 47c-13 6 -22 8 -37 8zM572 332c-26 0 -48 -12 -60 -23c-5 -4 -10 -14 -10 -26c-1 -97 2 -200 5 -234c3 -19 8 -32 32 -37c11 -2 18 -5 18 -9c0 -3 -6 -8 -18 -8c-29 0 -69 5 -86 5
c-43 0 -56 -4 -80 -4c-11 0 -18 3 -18 7s4 7 16 10c28 6 32 13 33 45c2 35 3 130 3 267c0 150 1 222 -1 255c-2 32 -5 34 -30 46c-4 3 -7 6 -7 9c0 4 6 7 17 10c32 9 73 18 103 32c8 3 11 4 13 4c3 0 6 -3 6 -19c0 -15 -6 -321 -5 -336c0 -2 3 -5 5 -3c14 12 38 28 54 35
c14 8 40 15 61 15c39 0 71 -13 94 -43c14 -17 24 -48 25 -105l2 -179c0 -17 3 -29 30 -34c13 -3 17 -5 17 -10s-11 -7 -17 -7c-30 0 -42 5 -81 5c-50 0 -52 -4 -83 -4c-12 0 -16 4 -16 7c0 4 5 6 15 8c29 8 30 17 33 50c2 23 4 75 4 157c0 26 -3 63 -13 81
c-14 24 -35 33 -61 33z" />
    <glyph glyph-name="c_k" horiz-adv-x="796" 
d="M206 352c-27 0 -79 -33 -79 -146c0 -49 16 -99 42 -123c27 -26 64 -35 87 -35c43 0 68 8 97 34c5 4 9 4 9 0s-2 -9 -8 -18c-20 -31 -67 -74 -141 -74c-51 0 -100 18 -133 51c-32 33 -49 79 -49 135c0 63 36 114 67 140c33 28 92 57 147 57s84 -16 98 -27
c7 -4 12 -14 12 -19c0 -23 -17 -39 -32 -39c-3 0 -11 4 -17 9c-13 11 -49 41 -63 47c-13 6 -22 8 -37 8zM610 362c14 0 29 -1 37 -1c37 0 70 6 105 6c11 0 17 -3 17 -7c0 -3 -4 -6 -16 -8c-34 -8 -56 -18 -87 -44c-23 -19 -51 -44 -74 -68c-2 -2 0 -5 1 -7
c36 -49 103 -132 142 -175c29 -32 39 -41 68 -46c10 -2 14 -5 14 -9c0 -5 -8 -8 -19 -8c-57 0 -88 5 -132 5c-19 0 -34 -2 -48 -2c-12 0 -17 2 -17 7s4 7 19 11c16 5 20 12 11 26c-15 20 -69 87 -100 123c-10 12 -17 20 -20 20s-3 -3 -4 -8c-2 -16 -1 -71 0 -105
c2 -49 15 -52 37 -57c10 -2 17 -6 17 -10c0 -6 -12 -8 -19 -8c-29 0 -61 3 -87 3c-39 0 -74 -4 -79 -4c-8 0 -17 3 -17 7s6 7 14 9c30 7 34 17 36 50c4 73 5 148 5 225c0 42 2 218 2 274c0 23 -1 32 -4 48c0 7 -9 14 -24 22c-4 3 -9 6 -9 9c0 4 7 8 19 10c66 12 96 27 97 28
c7 3 14 5 18 5c1 0 4 -4 4 -7c-1 -35 -6 -135 -6 -210c0 -34 -5 -204 -4 -254c0 -9 2 -14 5 -14c4 0 11 5 17 9c35 24 89 77 107 105c5 6 9 12 9 16c0 5 -6 13 -36 18c-10 2 -16 4 -16 9c0 4 8 7 17 7z" />
    <glyph glyph-name="c_t" horiz-adv-x="634" 
d="M415 100v211c0 5 -4 9 -7 9c-10 4 -22 6 -24 8s-4 5 -4 7c0 3 13 11 32 24c5 3 9 7 11 18c2 14 3 35 3 57c0 91 -33 117 -84 117c-84 0 -113 -65 -113 -131c0 -20 7 -38 10 -44c2 -3 5 -4 7 -4c19 -1 52 -6 72 -19c12 -9 12 -15 12 -19c0 -14 -31 -32 -34 -32
c-7 0 -14 2 -21 11c-16 18 -42 37 -72 37c-45 0 -83 -48 -83 -130c0 -58 18 -104 45 -128c27 -25 56 -34 82 -34c55 0 87 22 106 51c6 10 8 13 11 13c5 0 6 -7 3 -13c-11 -33 -59 -118 -160 -118c-106 0 -176 88 -176 179c0 90 50 138 94 166c27 17 57 26 98 34c2 0 2 3 2 4
c-11 17 -15 46 -15 64c0 78 58 142 155 142c92 0 126 -45 142 -87c8 -25 5 -66 5 -122c0 -3 1 -11 6 -11c19 0 82 2 99 2c2 0 7 -3 7 -14c0 -21 -6 -29 -11 -29c-29 0 -70 2 -98 2c-1 0 -3 -4 -3 -6c0 -22 -1 -183 0 -209c1 -23 4 -34 12 -45c14 -19 34 -23 47 -23
c17 0 32 4 45 10c11 6 13 4 13 0c0 -5 -5 -14 -21 -27c-25 -21 -60 -30 -90 -30c-46 0 -72 12 -90 44c-9 14 -13 41 -13 65z" />
    <glyph glyph-name="f_t.alt" horiz-adv-x="514" 
d="M62 67v236c0 10 -4 14 -7 15c-5 0 -17 0 -26 1c-4 1 -12 4 -12 8c0 3 5 6 12 11c7 4 17 10 25 17c4 3 8 10 8 12c0 31 4 100 19 146c15 44 40 101 117 137c19 10 47 17 71 17c43 0 83 -16 111 -58c13 -21 17 -55 17 -65c0 -17 -2 -148 -2 -174c0 -3 1 -10 6 -10
c19 0 83 2 99 2c2 0 8 -3 8 -14c0 -22 -7 -28 -11 -28c-30 0 -71 1 -99 1c-1 0 -3 -4 -3 -6c0 -22 -1 -183 0 -209c1 -23 5 -34 12 -45c14 -19 34 -23 47 -23c17 0 32 4 45 10c11 6 14 4 14 0c0 -5 -5 -14 -21 -27c-26 -21 -60 -30 -90 -30c-47 0 -78 12 -97 44
c-9 14 -13 41 -13 65l1 211c0 8 -3 12 -10 11c-23 0 -106 1 -120 1c-2 0 -5 -7 -5 -9c-2 -38 2 -221 4 -249c2 -38 11 -43 20 -47c9 -2 19 -3 30 -6c12 -4 16 -5 16 -9c0 -5 -8 -7 -17 -7c-35 0 -54 4 -121 4c-23 0 -44 -2 -61 -3c-9 0 -15 1 -15 5s5 7 18 11
c25 7 30 18 30 54zM225 642c-42 0 -59 -53 -66 -132c-2 -32 -3 -70 -3 -97c0 -20 1 -41 3 -46c1 -4 3 -9 10 -9h117c3 1 9 7 9 11c3 26 6 105 6 157c0 31 -8 64 -13 74c-15 27 -33 42 -63 42z" />
    <glyph glyph-name="s_p" horiz-adv-x="737" 
d="M562 370c46 0 79 -21 101 -46c31 -34 43 -83 43 -122c0 -99 -61 -174 -143 -200c-30 -9 -44 -12 -68 -12c-13 0 -37 3 -46 5c-3 0 -6 -7 -6 -9c-2 -20 -3 -63 -2 -102c0 -32 4 -93 5 -98c5 -29 18 -34 47 -40c11 -3 15 -5 15 -10s-11 -6 -23 -6c-16 0 -55 4 -100 4
c-31 0 -69 -7 -80 -7c-13 0 -19 3 -19 6c0 5 4 7 14 10c28 8 40 14 42 47c1 13 4 67 4 152v359c0 59 -1 139 -2 171c-1 21 -1 36 -12 45c-8 7 -21 9 -38 9c-48 0 -98 -26 -98 -90c0 -26 6 -46 13 -60c1 -4 4 -6 8 -7c15 -2 29 -6 37 -9c2 -2 6 -6 6 -10s4 -26 5 -54
c0 -11 -1 -16 -5 -16s-7 5 -10 13c-9 27 -32 66 -82 66c-25 0 -52 -23 -52 -52c0 -44 34 -62 75 -88c63 -42 87 -68 87 -119c0 -41 -29 -71 -46 -84c-24 -17 -68 -28 -98 -28c-23 0 -57 6 -87 17c-7 3 -17 12 -17 19l-4 52c-1 13 1 20 4 20c4 0 7 -2 13 -20
c15 -45 54 -73 97 -73c22 0 55 23 55 58c0 29 -21 50 -72 82c-59 38 -81 82 -81 117c0 36 17 69 49 89c19 14 51 24 84 24c6 0 11 -1 17 -1c2 0 4 2 3 4c-14 19 -21 44 -21 63c0 88 75 120 164 120c34 0 71 7 85 14c4 3 11 0 13 -6c3 -8 5 -24 5 -46c0 -4 -2 -183 -2 -189
s4 -7 7 -4c44 30 76 42 116 42zM535 12c11 0 21 4 34 14c12 9 45 52 45 134c0 59 -16 110 -58 143c-11 10 -38 21 -59 21s-33 -3 -47 -11c-6 -3 -6 -7 -7 -14c-3 -30 -4 -192 -1 -219c1 -6 5 -20 12 -29c25 -31 67 -39 81 -39z" />
    <glyph glyph-name="s_t" unicode="&#xfb06;" horiz-adv-x="579" 
d="M359 100v213c0 5 -3 8 -6 9c-10 2 -22 5 -25 7c-2 2 -4 5 -4 7c0 3 13 11 32 24c5 4 9 7 11 18c2 14 3 26 3 48c0 65 -20 110 -76 110c-54 0 -87 -48 -87 -107c0 -25 3 -37 9 -54c1 -3 2 -4 8 -7c14 -2 22 -5 30 -8c2 -2 6 -6 6 -10s4 -26 5 -54c0 -11 -1 -16 -5 -16
s-7 5 -10 13c-9 27 -32 66 -82 66c-25 0 -52 -23 -52 -52c0 -44 34 -62 75 -88c63 -42 87 -68 87 -119c0 -41 -29 -71 -46 -84c-24 -17 -68 -28 -98 -28c-23 0 -57 6 -87 17c-7 3 -17 12 -17 19l-4 52c-1 13 1 20 4 20c4 0 7 -2 13 -20c15 -45 54 -73 97 -73
c22 0 55 23 55 58c0 29 -21 50 -72 82c-59 38 -81 82 -81 117c0 36 17 69 49 89c19 14 52 24 86 24h20c2 0 4 0 3 3c-9 16 -15 42 -15 56c0 79 60 133 141 133c73 0 107 -34 122 -73c9 -22 10 -66 8 -119c0 -5 1 -11 7 -11c19 0 80 3 96 3c6 0 11 -2 11 -17
c0 -22 -6 -27 -12 -27c-30 0 -69 2 -97 2c-3 0 -5 -3 -5 -7c0 -22 -2 -184 -1 -210c1 -23 5 -34 13 -45c14 -19 34 -22 47 -22c17 0 32 3 45 10c12 6 15 3 15 -1c0 -5 -6 -14 -21 -27c-26 -22 -61 -30 -91 -30c-47 0 -73 12 -92 44c-9 14 -12 41 -12 65z" />
    <glyph glyph-name="Eng" unicode="&#x14a;" horiz-adv-x="703" 
d="M14 615c0 5 5 8 19 8c38 0 109 -5 159 -5c4 0 9 -3 22 -19c67 -84 290 -328 367 -411c5 -6 6 3 6 8c0 30 1 251 -3 333c-3 57 -27 68 -63 76c-11 2 -19 6 -19 10c0 5 10 7 21 7c18 0 53 -4 73 -4c27 0 60 4 71 4c12 0 16 -3 16 -6c0 -5 -7 -9 -17 -12
c-40 -11 -45 -34 -47 -59c-6 -83 -12 -346 -8 -450c0 -158 -12 -208 -36 -251c-22 -39 -55 -56 -68 -56c-20 0 -40 19 -44 29c-4 5 -6 11 3 12c19 3 56 9 77 27c27 24 39 48 39 106c0 26 -17 52 -21 58c-45 59 -309 356 -429 497c-5 5 -10 2 -10 -3c0 -20 -2 -336 -1 -389
c2 -45 3 -63 10 -80c8 -17 33 -28 55 -34c8 -2 18 -5 18 -11c0 -5 -11 -6 -19 -6c-19 0 -52 5 -83 5c-27 0 -61 -4 -70 -4c-14 0 -18 3 -18 7c0 5 8 7 19 10c29 9 47 15 53 72c5 41 12 307 12 431c0 57 -12 68 -19 74c-11 9 -23 12 -47 17c-14 2 -18 5 -18 9z" />
    <glyph glyph-name="uni019F" unicode="&#x19f;" horiz-adv-x="749" 
d="M361 620c-39 0 -88 -15 -134 -74c-37 -47 -59 -128 -62 -206c0 -3 2 -8 6 -8h404c4 0 6 3 5 7c-5 71 -24 128 -64 194c-26 43 -78 87 -155 87zM394 0c42 0 78 16 106 50c28 30 80 101 81 248c0 6 0 11 -6 11l-404 -2c-3 0 -5 -5 -5 -8c8 -83 44 -176 83 -221
c38 -46 85 -78 145 -78zM372 636c186 0 333 -152 333 -334c0 -160 -109 -255 -186 -289c-41 -19 -88 -31 -141 -31c-186 0 -334 147 -334 329c0 100 35 191 131 264c53 40 130 61 197 61z" />
    <glyph glyph-name="uni018F" unicode="&#x18f;" horiz-adv-x="627" 
d="M284 -18c-149 0 -247 95 -247 212c0 11 13 24 35 24c18 0 294 -1 380 -2c3 0 10 8 12 13c4 15 4 46 4 68c0 149 -83 284 -232 284c-70 0 -131 -29 -169 -64c-9 -9 -16 -14 -20 -14c-4 -1 -5 1 -5 4c0 4 3 9 8 17c66 76 149 112 249 112c176 0 284 -148 284 -317
c0 -88 -26 -202 -128 -279c-57 -45 -128 -58 -171 -58zM296 -1c71 0 136 59 158 187c1 4 -2 10 -4 10c-45 3 -203 1 -250 -2c-22 -2 -42 -14 -42 -48c0 -79 63 -147 138 -147z" />
    <glyph glyph-name="uni021C" unicode="&#x21c;" horiz-adv-x="464" 
d="M160 615c-22 0 -55 -4 -84 -40c-15 -16 -26 -37 -36 -65c-5 -14 -6 -18 -10 -18c-3 0 -7 3 -7 16c0 32 10 59 14 79c2 11 7 17 10 17c6 1 15 3 27 7c30 9 68 25 117 25c121 0 179 -64 179 -137c0 -43 -26 -76 -40 -90c-22 -21 -45 -33 -73 -48c-4 -4 -5 -6 1 -8
c36 -7 103 -24 139 -70c18 -24 30 -56 30 -98c0 -76 -47 -158 -145 -213c-55 -31 -137 -51 -199 -51c-29 0 -44 2 -55 5c-9 4 -13 8 -13 11c0 4 5 5 10 4c4 0 21 -1 41 -1c54 0 110 25 144 46c65 39 100 106 100 177c0 34 -8 74 -36 104c-16 17 -47 33 -85 33
c-20 0 -57 -12 -75 -17c-6 -2 -15 -1 -15 2c0 6 10 14 20 19c16 10 48 24 69 37c60 35 72 94 72 142c0 80 -45 132 -100 132z" />
    <glyph glyph-name="eng" unicode="&#x14b;" horiz-adv-x="445" 
d="M395 211v-119c-1 -219 -52 -294 -117 -348c-11 -10 -35 -25 -53 -25c-10 0 -22 2 -28 10c-5 6 -7 16 -7 30c0 5 4 12 8 10c10 -3 41 -15 50 -15c32 0 48 6 49 208c1 75 3 164 0 240c-1 79 -9 95 -26 112c-13 12 -37 16 -46 16c-20 0 -41 -7 -54 -18
c-5 -5 -10 -13 -10 -22c0 -22 0 -82 1 -140c1 -55 2 -92 3 -103c3 -22 12 -30 29 -34c12 -3 16 -5 16 -10c0 -6 -11 -7 -18 -7c-10 0 -67 4 -90 4c-13 0 -39 -2 -69 -2c-11 0 -19 3 -19 8c0 4 9 8 18 10c28 5 30 18 31 42c2 56 3 135 3 230c0 12 -3 18 -23 31
c-9 6 -10 11 -10 14c0 2 5 6 14 8c35 7 92 31 106 40c4 2 9 -3 9 -8c0 -12 -1 -32 -2 -47c0 -3 2 -5 6 -1c20 14 40 27 60 36c18 8 32 12 53 12c41 0 64 -17 80 -34c25 -26 36 -70 36 -128z" />
    </font>
</defs>
</svg>
