<svg width="15" height="9" viewBox="0 0 15 9" fill="none" xmlns="http://www.w3.org/2000/svg">
<path d="M14.8056 3.79949C14.6738 3.64413 11.5251 0 7.50008 0C3.47485 0 0.326354 3.64413 0.194297 3.79965C-0.0647909 4.10427 -0.0647909 4.54629 0.194449 4.85123C0.326353 5.00659 3.47485 8.65057 7.50008 8.65057C11.5251 8.65057 14.6738 5.00628 14.8057 4.85092C15.0648 4.54629 15.0648 4.10427 14.8056 3.79949ZM8.72956 2.18907C9.00022 2.04132 9.37766 2.21085 9.57247 2.56757C9.76728 2.92444 9.70575 3.33356 9.43508 3.48131C9.16457 3.6292 8.78698 3.45953 8.59202 3.1028C8.39736 2.74593 8.45875 2.33681 8.72956 2.18907ZM7.50008 7.3303C4.68834 7.3303 2.32213 5.17094 1.50314 4.32528C2.05619 3.7541 3.31538 2.58448 4.94043 1.88505C4.62346 2.36728 4.43763 2.94348 4.43763 3.56371C4.43763 5.25501 5.80862 6.626 7.49992 6.626C9.19123 6.626 10.5624 5.25501 10.5624 3.56371C10.5624 2.94348 10.3767 2.36728 10.0597 1.88505C11.6848 2.58463 12.9438 3.7541 13.4969 4.32528C12.6779 5.17139 10.3117 7.3303 7.50008 7.3303Z" fill="#666666"/>
</svg>
