<svg width="20" height="20" viewBox="0 0 20 20" fill="none" xmlns="http://www.w3.org/2000/svg">
<path d="M6.987 2.06621L6.271 2.28221C5.63239 2.47458 5.06204 2.84541 4.62711 3.35103C4.19217 3.85666 3.91076 4.47603 3.816 5.13621C3.519 7.20421 4.183 9.62221 5.784 12.3952C7.381 15.1612 9.139 16.9432 11.074 17.7232C11.6957 17.9738 12.3763 18.0406 13.0349 17.9156C13.6935 17.7906 14.3023 17.4791 14.789 17.0182L15.332 16.5042C15.6838 16.171 15.9027 15.7214 15.9479 15.2389C15.9931 14.7565 15.8617 14.274 15.578 13.8812L14.222 12.0012C14.0387 11.7474 13.7805 11.5573 13.4837 11.4576C13.1869 11.3579 12.8664 11.3536 12.567 11.4452L10.516 12.0722L10.463 12.0822C10.237 12.1152 9.716 11.6262 9.066 10.5002C8.386 9.32221 8.244 8.63321 8.432 8.45521L9.476 7.48221C9.85724 7.12656 10.1176 6.66048 10.2205 6.14936C10.3235 5.63824 10.2638 5.10772 10.05 4.63221L9.39 3.16121C9.1909 2.71812 8.83733 2.36263 8.39532 2.16113C7.95331 1.95963 7.45307 1.92589 6.988 2.06621H6.987ZM8.477 3.57121L9.138 5.04221C9.26654 5.32744 9.30248 5.64578 9.24078 5.95249C9.17908 6.2592 9.02283 6.53887 8.794 6.75221L7.748 7.72621C7.078 8.35921 7.3 9.44221 8.199 11.0002C9.046 12.4662 9.818 13.1902 10.647 13.0642L10.771 13.0382L12.859 12.4012C12.9588 12.3706 13.0657 12.3719 13.1647 12.4051C13.2637 12.4383 13.3498 12.5016 13.411 12.5862L14.767 14.4662C14.909 14.6627 14.9748 14.904 14.9522 15.1453C14.9295 15.3867 14.82 15.6116 14.644 15.7782L14.101 16.2922C13.7533 16.6212 13.3185 16.8435 12.8483 16.9327C12.378 17.0219 11.892 16.9741 11.448 16.7952C9.75 16.1112 8.145 14.4842 6.65 11.8952C5.152 9.30021 4.546 7.09321 4.806 5.27821C4.87364 4.80652 5.07468 4.36399 5.38543 4.00274C5.69619 3.64149 6.10371 3.37658 6.56 3.23921L7.277 3.02321C7.50946 2.95336 7.75939 2.97044 7.98018 3.07127C8.20097 3.1721 8.37756 3.34979 8.477 3.57121Z" fill="white"/>
</svg>
