<svg width="20" height="20" viewBox="0 0 20 20" fill="none" xmlns="http://www.w3.org/2000/svg">
<path d="M17.8568 3.3335H2.14253C1.79522 3.3335 1.46214 3.47397 1.21656 3.72402C0.970975 3.97407 0.833008 4.31321 0.833008 4.66683V15.3335C0.833008 15.6871 0.970975 16.0263 1.21656 16.2763C1.46214 16.5264 1.79522 16.6668 2.14253 16.6668H17.8568C18.2041 16.6668 18.5372 16.5264 18.7828 16.2763C19.0284 16.0263 19.1663 15.6871 19.1663 15.3335V4.66683C19.1663 4.31321 19.0284 3.97407 18.7828 3.72402C18.5372 3.47397 18.2041 3.3335 17.8568 3.3335ZM16.4163 4.66683L9.99967 9.18683L3.58301 4.66683H16.4163ZM2.14253 15.3335V5.2735L9.62646 10.5468C9.73606 10.6242 9.86628 10.6657 9.99967 10.6657C10.1331 10.6657 10.2633 10.6242 10.3729 10.5468L17.8568 5.2735V15.3335H2.14253Z" fill="white"/>
</svg>
